<svg xmlns="http://www.w3.org/2000/svg" width="20.676" height="20.381" viewBox="0 0 20.676 20.381">
  <path id="Location_on_map_19371" d="M169.431,160.358a5.535,5.535,0,0,1-.659,1.6l-.018.033-.009.017-.01.017-2.375,3.9a1.477,1.477,0,1,1-2.594,0l-2.384-3.9-.01-.017-.009-.018a5.122,5.122,0,0,1-.7-1.857H150v8.123l1.034,1.034L150,170.325v3.84a2.215,2.215,0,0,0,2.215,2.215h18.461V162.35a2.215,2.215,0,0,0-1.245-1.992ZM152.1,168.279l-1.044-1.044,1.044-1.044,1.044,1.044Zm.981-3.091,1.044-1.044,1.044,1.044-1.044,1.044Zm2.089,2.089,1.044-1.044,1.044,1.044-1.044,1.044Zm2.089,2.089,1.044-1.044,1.044,1.044L158.3,170.41Zm3.048,3.027-1.044-1.044,1.044-1.044,1.044,1.044Zm2.089-2.089-1.044-1.044,1.044-1.044,1.044,1.044Zm2.67-14.3a3.681,3.681,0,0,0-3.692,3.681,3.842,3.842,0,0,0,.64,1.961l3.05,4.991h0l3.04-4.991a3.859,3.859,0,0,0,.652-1.961A3.7,3.7,0,0,0,165.064,156Zm0,5.021a1.329,1.329,0,1,1,1.329-1.329A1.329,1.329,0,0,1,165.064,161.021Z" transform="translate(-150 -155.999)" fill-rule="evenodd"/>
</svg>
