<svg xmlns="http://www.w3.org/2000/svg" width="32.845" height="48.554" viewBox="0 0 32.845 48.554">
  <path id="Catalogue" d="M244.417,79.284h-4.466A5.735,5.735,0,0,0,234.421,75a1.428,1.428,0,0,0-1.428,1.428v2.856H214.428A1.432,1.432,0,0,0,213,80.712v41.414a1.432,1.432,0,0,0,1.428,1.428h29.989a1.432,1.432,0,0,0,1.428-1.428V80.712A1.432,1.432,0,0,0,244.417,79.284Zm-7.14,38.557h0a2.847,2.847,0,0,1-.058.574,2.779,2.779,0,0,1-.071.273q-.031.1-.07.2t-.084.191q-.06.125-.132.243-.036.059-.074.116-.077.114-.165.22a2.888,2.888,0,0,1-.388.388q-.106.088-.22.165c-.038.026-.077.05-.116.074q-.118.072-.243.132-.094.045-.191.084t-.2.07q-.134.042-.273.071-.07.014-.14.025a2.843,2.843,0,0,1-.434.033H215.856V82.14h17.137v7.14H220.14a1.428,1.428,0,0,0,0,2.856h12.852v1.428H220.14a1.428,1.428,0,0,0,0,2.856h12.852v12.852H220.14a1.428,1.428,0,0,0,0,2.856h12.852v1.428a1.428,1.428,0,0,0,1.428,1.428,2.851,2.851,0,0,1,.414.031h0l.107.018.026,0,.1.021.034.008.092.024.037.01.088.028.037.013.086.032.036.014.085.036.033.015.086.04.027.014.089.047.01.006a2.882,2.882,0,0,1,.3.191l.011.008.072.056.032.025.063.054.037.032.058.053.038.036.053.054.039.04.05.055.038.044.046.055.037.047.043.056.036.051.039.056.036.057.034.054c.017.029.034.058.05.087l.035.065c.013.025.027.05.039.076l.024.051c.011.023.022.046.032.07s.015.036.022.054.019.046.028.07l.02.056c.008.024.016.047.024.071l.018.058q.011.036.021.072c.005.019.01.039.015.058s.012.049.017.074.009.039.012.058.01.051.014.078.006.038.009.057.007.055.01.082,0,.036.006.055.005.061.007.092c0,.015,0,.031,0,.046q0,.07,0,.14h0Zm0-37.129V112.9h0a5.682,5.682,0,0,0-1.428-.589h0V78.242h0a2.862,2.862,0,0,1,1.428,2.47Zm5.712,39.985h-2.856v-2.856h0V82.14h2.856ZM220.14,87.852h5.712a1.428,1.428,0,1,0,0-2.856H220.14a1.428,1.428,0,0,0,0,2.856Z" transform="translate(-213 -75)" fill="#ff7900" fill-rule="evenodd"/>
</svg>
