<svg xmlns="http://www.w3.org/2000/svg" width="38.095" height="38.095" viewBox="0 0 38.095 38.095">
  <g id="calendar" transform="translate(0.5 0.5)">
    <path id="Path_126395" data-name="Path 126395" d="M32.314,2.9H28.981V1.159a1.159,1.159,0,1,0-2.318,0V2.9H10.433V1.159a1.159,1.159,0,1,0-2.318,0V2.9H4.782A4.787,4.787,0,0,0,0,7.68V32.314A4.787,4.787,0,0,0,4.782,37.1H32.314A4.787,4.787,0,0,0,37.1,32.314V7.68A4.787,4.787,0,0,0,32.314,2.9ZM4.782,5.217H8.115V6.376a1.159,1.159,0,1,0,2.318,0V5.217H26.662V6.376a1.159,1.159,0,1,0,2.318,0V5.217h3.333A2.466,2.466,0,0,1,34.777,7.68v2.753H2.318V7.68A2.466,2.466,0,0,1,4.782,5.217Zm27.532,29.56H4.782a2.466,2.466,0,0,1-2.463-2.463V12.752H34.777V32.314A2.466,2.466,0,0,1,32.314,34.777Z" transform="translate(0 0)" fill="#ff7900" stroke="#ff7900" stroke-width="1"/>
  </g>
</svg>
