<svg xmlns="http://www.w3.org/2000/svg" width="50.65" height="29.947" viewBox="0 0 50.65 29.947">
  <path id="Path_126412" data-name="Path 126412" d="M54.189,67.9,51.4,54.7a.73.73,0,0,0-.715-.579H8.083a.73.73,0,0,0-.715.579L4.578,67.9a.73.73,0,0,0,.715.882H7.354V82.339a.73.73,0,0,0,.731.731h42.6a.73.73,0,0,0,.731-.731V68.783h2.062a.73.73,0,0,0,.715-.882ZM8.675,55.585H28.481L26,67.321H6.192Zm.138,13.2H26.589a.73.73,0,0,0,.714-.58l1.348-6.367V81.608H8.814ZM49.951,81.608H30.113V61.836L31.461,68.2a.73.73,0,0,0,.714.58H49.951ZM32.767,67.321,30.284,55.585H50.089l2.483,11.737Z" transform="translate(-4.058 -53.623)" fill="#ff7900" stroke="#ff7900" stroke-width="1"/>
</svg>
