<svg xmlns="http://www.w3.org/2000/svg" width="49.558" height="40.886" viewBox="0 0 49.558 40.886">
  <path id="Track_Your_order_19371" d="M171.255,203.994H166.3l-9.862-16.276A3.5,3.5,0,0,0,153.413,186H128.3a3.288,3.288,0,0,0-3.3,3.272V219.7h0a7.436,7.436,0,0,0,14.863,0h13.22a7.436,7.436,0,0,0,14.863,0h6.61V207.265A3.288,3.288,0,0,0,171.255,203.994Zm-22.788-.167-6.121,9.982h0l-6.141-9.982a7.649,7.649,0,0,1-1.289-3.922,7.314,7.314,0,0,1,2.174-5.208,7.454,7.454,0,0,1,12.693,5.208A7.682,7.682,0,0,1,148.467,203.826Zm-3.313-3.6a2.808,2.808,0,1,1-2.808-2.781A2.795,2.795,0,0,1,145.154,200.231Z" transform="translate(-125 -186)" fill-rule="evenodd"/>
</svg>
