<svg xmlns="http://www.w3.org/2000/svg" width="206.578" height="96.928" viewBox="0 0 206.578 96.928">
  <path id="Subtraction_1" data-name="Subtraction 1" d="M20811.373-10785.4h-206.578v-96.917h54.684a98.12,98.12,0,0,1,25.959,3.419,88.4,88.4,0,0,1,22.646,9.732,88.381,88.381,0,0,1,22.646-9.73,98.178,98.178,0,0,1,25.959-3.416l54.684-.016v96.926h0v0Zm-62.7-50.5h0v2.909l.574.036c1.867.108,3.119.528,3.725,1.248.428.5.936,1.859.936,5.489v25.4c0,3.8-.488,4.938-.779,5.275a5.171,5.171,0,0,1-3.859,1.468l-.6.021v2.873h25.273v-2.862l-.574-.031c-1.857-.112-3.059-.521-3.672-1.248-.91-1.094-1.373-2.942-1.373-5.5v-35.082Zm-125.648,26.475a6.1,6.1,0,0,0-6.09,6.09,6.093,6.093,0,0,0,6.09,6.085h24.3a6.091,6.091,0,0,0,6.084-6.085,6.093,6.093,0,0,0-6.084-6.09Zm0-24.281a6.083,6.083,0,0,0-6.08,6.074,6.086,6.086,0,0,0,6.08,6.079h48.605a6.084,6.084,0,0,0,6.074-6.079,6.081,6.081,0,0,0-6.074-6.074Zm136.863-24.548a8.362,8.362,0,0,0-5.939,2.454,8.361,8.361,0,0,0-2.471,5.929,8.394,8.394,0,0,0,8.373,8.383h.01a8.334,8.334,0,0,0,5.922-2.446,8.326,8.326,0,0,0,2.467-5.91,8.391,8.391,0,0,0-8.342-8.409Zm-136.863.219a6.1,6.1,0,0,0-6.09,6.091,6.088,6.088,0,0,0,6.078,6.084h.012l48.605.006a6.1,6.1,0,0,0,6.09-6.09,6.1,6.1,0,0,0-6.09-6.091Z" transform="translate(-20604.795 10882.33)" fill="#f5f5f5"/>
</svg>
