<svg xmlns="http://www.w3.org/2000/svg" width="35.758" height="35.758" viewBox="0 0 35.758 35.758">
  <path id="Path_158811" data-name="Path 158811" d="M10.727,28.606A3.576,3.576,0,1,0,14.3,32.182,3.586,3.586,0,0,0,10.727,28.606ZM0,0V3.576H3.576l6.436,13.588-2.5,4.291a6.352,6.352,0,0,0-.358,1.788,3.586,3.586,0,0,0,3.576,3.576H32.182V23.243H11.443a.385.385,0,0,1-.358-.358v-.179l1.609-3.039h13.23a3.261,3.261,0,0,0,3.039-1.788L35.4,6.258a.984.984,0,0,0,.358-.894A1.689,1.689,0,0,0,33.97,3.576H7.509L5.9,0ZM28.606,28.606a3.576,3.576,0,1,0,3.576,3.576A3.586,3.586,0,0,0,28.606,28.606Z"/>
</svg>
