<svg xmlns="http://www.w3.org/2000/svg" width="38.5" height="33.466" viewBox="0 0 38.5 33.466">
  <g id="Group_13086" data-name="Group 13086" transform="translate(0 2.544)">
    <path id="E_shop" data-name="E shop" d="M93.759,175.708a3.135,3.135,0,1,1-3.134-3.213A3.174,3.174,0,0,1,93.759,175.708Zm11.536,0a3.135,3.135,0,1,1-3.134-3.213A3.174,3.174,0,0,1,105.294,175.708Zm5.223-21.888a1.592,1.592,0,0,0-1.567-1.607H84.9L83,149a1.573,1.573,0,0,0-1.416-.989.837.837,0,0,0-.138-.013h-4.88A1.592,1.592,0,0,0,75,149.607h0a1.592,1.592,0,0,0,1.567,1.607h3.409a.791.791,0,0,1,.731.5L87.6,168.262a1.569,1.569,0,0,0,1.431,1.018h15.787a.459.459,0,0,0,.056,0,1.579,1.579,0,0,0,1.424-1.235l4.061-13.506c0-.012.007-.024.01-.035a1.625,1.625,0,0,0,.149-.68Z" transform="translate(-75 -148)" fill-rule="evenodd"/>
    <g id="Ellipse_22" data-name="Ellipse 22" transform="translate(24.5 0.456)" fill="#ff7900" stroke="#fff" stroke-width="3">
      <circle cx="5.5" cy="5.5" r="5.5" stroke="none"/>
      <circle cx="5.5" cy="5.5" r="7" fill="none"/>
    </g>
  </g>
</svg>
