<svg xmlns="http://www.w3.org/2000/svg" width="14.49" height="14.49" viewBox="0 0 14.49 14.49">
  <path id="clock" d="M82.245,75a7.245,7.245,0,1,0,7.245,7.245A7.245,7.245,0,0,0,82.245,75Zm2.941,10.066a.639.639,0,0,1-.9,0l-2.5-2.5h0l-.021-.022-.01-.012-.01-.012-.012-.015-.007-.009-.012-.017-.006-.009-.011-.018-.005-.009-.01-.018-.005-.01-.009-.017-.006-.011-.007-.016-.006-.014-.006-.014-.006-.016,0-.012-.006-.018,0-.011-.005-.019,0-.01,0-.02,0-.01,0-.02,0-.012c0-.006,0-.012,0-.019s0-.011,0-.016,0-.01,0-.015,0-.021,0-.032V77.429a.639.639,0,1,1,1.278,0v4.423l2.31,2.31a.639.639,0,0,1,0,.9Z" transform="translate(-75 -75)" fill-rule="evenodd"/>
</svg>
