<svg xmlns="http://www.w3.org/2000/svg" xmlns:xlink="http://www.w3.org/1999/xlink" width="173" height="173" viewBox="0 0 173 173">
  <defs>
    <clipPath id="clip-path">
      <rect id="Rectangle_9987" data-name="Rectangle 9987" width="173" height="173" fill="#fff" stroke="#707070" stroke-width="1"/>
    </clipPath>
  </defs>
  <g id="Mask_Group_347" data-name="Mask Group 347" opacity="0.5" clip-path="url(#clip-path)">
    <path id="Union_51" data-name="Union 51" d="M905.873,56.444l11.5,12.7,56.311-57.5L962.085,0Zm56.211-51.3,6.5,6.53L917.479,63.857l-6.6-7.294Zm-309.669,51.3,11.5,12.7,56.309-57.5L708.626,0Zm56.21-51.3,6.5,6.53L664.02,63.857l-6.6-7.294Zm-309.669,51.3,11.5,12.7,56.308-57.5L455.167,0Zm56.21-51.3,6.5,6.53L410.561,63.857l-6.6-7.294ZM145.5,56.444l11.5,12.7,56.31-57.5L201.708,0Zm56.21-51.3,6.5,6.53L157.1,63.857l-6.6-7.294Zm757.666,33.8,29.87,29.83,11.609-11.656-18.125-18.2,6.212-6.453,8.687,9.024,12.333-11.606L988.925,9.1Zm29.579-24.71,15.779,15.583-6.979,6.57-8.813-9.155L977.65,38.95l18.084,18.16-6.5,6.521L964.494,38.922ZM705.915,38.936l29.87,29.83L747.394,57.11l-18.125-18.2,6.211-6.453,8.688,9.024L756.5,29.873,735.467,9.1Zm29.579-24.71,15.779,15.583-6.979,6.57-8.814-9.155L724.191,38.95l18.084,18.16-6.5,6.521L711.035,38.922ZM452.456,38.936l29.87,29.83L493.935,57.11l-18.125-18.2,6.211-6.453,8.688,9.024,12.332-11.606L482.008,9.1Zm29.579-24.71,15.779,15.583-6.979,6.57-8.814-9.155L470.732,38.95l18.084,18.16-6.5,6.521L457.575,38.922ZM199,38.936l29.87,29.83L240.476,57.11l-18.125-18.2,6.212-6.453,8.687,9.024,12.333-11.606L228.549,9.1Zm29.579-24.71,15.78,15.583-6.98,6.57-8.813-9.155L217.274,38.95l18.084,18.16-6.5,6.521L204.117,38.922ZM1049.52,38.209l11.443,13.4,21.309-21.743-11.5-12.316Zm4.966.231,16.162-15.706,6.6,7.076-16.106,16.432Zm-258.425-.231,11.443,13.4L828.813,29.87l-11.5-12.316Zm21.128-15.475,6.6,7.076L807.687,46.242l-6.66-7.8ZM542.6,38.209l11.443,13.4L575.354,29.87l-11.5-12.316ZM563.73,22.734l6.6,7.076L554.228,46.242l-6.66-7.8ZM289.143,38.209l11.443,13.4L321.895,29.87l-11.5-12.316ZM310.27,22.734l6.606,7.076L300.769,46.242l-6.66-7.8ZM35.681,38.209l11.445,13.4L68.436,29.87l-11.5-12.316ZM56.811,22.734l6.6,7.076L47.31,46.242l-6.66-7.8ZM850.9,57.11l11.612,11.659,18.1-18.179,9.052,9.089,11.612-11.66-20.664-20.75Zm29.716-24.7L896.16,48.019l-6.493,6.521-9.052-9.09-18.1,18.179-6.49-6.518ZM597.44,57.11l11.612,11.659,18.1-18.179,9.052,9.089,11.612-11.66-20.664-20.75Zm29.716-24.7L642.7,48.019l-6.493,6.521-9.052-9.09-18.1,18.179-6.493-6.518ZM343.981,57.11l11.612,11.659L373.7,50.59l9.052,9.089,11.612-11.66L373.7,27.268Zm29.716-24.7,15.545,15.608-6.493,6.521-9.052-9.09-18.1,18.179L349.1,57.11ZM90.522,57.11l11.612,11.659,18.1-18.179,9.052,9.089L140.9,48.019l-20.664-20.75Zm29.716-24.7,15.545,15.608-6.493,6.521-9.052-9.09-18.1,18.179L95.642,57.11ZM1004.5,47.993l8.8,9.139-8.509,9.152,12.253,11.538,18.043-18.14,8.411,8.464,11.623-11.33-29.825-29.534Zm20.8-15.6,24.641,24.4-6.406,6.243-8.448-8.5-18.128,18.22-7.057-6.644,8.388-9.026-8.7-9.041Zm-274.26,15.6,8.8,9.139-8.509,9.152,12.253,11.538,18.044-18.14,8.41,8.464,11.622-11.33L771.836,27.282Zm20.8-15.6,24.641,24.4-6.407,6.243-8.448-8.5L763.5,72.757l-7.06-6.644,8.39-9.026-8.7-9.041Zm-274.261,15.6,8.8,9.139-8.509,9.152,12.254,11.538,18.044-18.14,8.411,8.464L548.2,56.816,518.377,27.282Zm20.8-15.6,24.64,24.4-6.406,6.243-8.448-8.5-18.127,18.22-7.06-6.644,8.39-9.026-8.7-9.041Zm-274.261,15.6,8.8,9.139-8.509,9.152,12.253,11.538,18.044-18.14,8.41,8.464,11.622-11.33L264.918,27.282Zm20.8-15.6,24.641,24.4-6.407,6.243-8.448-8.5-18.127,18.22-7.06-6.644,8.39-9.026-8.7-9.041Zm802.623,25.318,11.612,11.66,21.268-21.356L1088.816,36.36Zm5.119,0L1088.816,41.5l6.49,6.519-16.146,16.216Zm-258.578,0L825.7,69.375l21.268-21.356L835.357,36.36ZM835.357,41.5l6.49,6.519L825.7,64.235l-6.493-6.521ZM560.63,57.714l11.612,11.66L593.51,48.019,581.9,36.36ZM581.9,41.5l6.493,6.519L572.242,64.235l-6.493-6.521ZM307.168,57.714l11.615,11.66,21.265-21.356L328.436,36.36ZM328.436,41.5l6.493,6.519L318.783,64.235l-6.493-6.521ZM53.709,57.714l11.612,11.66L86.59,48.019,74.977,36.36ZM74.977,41.5l6.493,6.519L65.321,64.235l-6.49-6.521Zm865.84,15,30.32,30.445,11.612-11.66-30.32-30.446Zm11.612-6.521,25.2,25.305-6.493,6.518-25.2-25.3ZM687.358,56.5l30.32,30.445L729.29,75.29,698.97,44.844Zm11.612-6.521,25.2,25.305-6.493,6.518-25.2-25.3ZM433.9,56.5l30.32,30.445,11.612-11.66-30.32-30.446Zm11.612-6.521,25.2,25.305-6.493,6.518-25.2-25.3ZM180.44,56.5,210.76,86.95l11.612-11.66-30.32-30.446Zm11.612-6.521,25.2,25.305-6.493,6.518-25.2-25.3Zm851.5,31.823-9.052-9.089-11.612,11.66,47.821,48.019,29.737-29.86-11.644-11.3-18.084,17.855-15.574-15.64,6.513-6.758,9.031,9.372,11.633-11.682-20.664-20.75Zm18.1-13.038,15.545,15.61-6.472,6.5-9.073-9.413-11.594,12.027,20.634,20.717,18.125-17.9,6.46,6.271-24.574,24.675-42.7-42.878,6.493-6.518,9.052,9.089Zm-165.5,33.789,11.612,11.66L934.928,86.95l18.1,18.179,11.612-11.66-29.716-29.84Zm5.119,0,33.649-33.789,24.6,24.7-6.493,6.518-18.1-18.179-27.157,27.271Zm-11.612-29.84-9.052-9.089L869,75.29l20.664,20.75,20.665-20.75L898.719,63.628Zm9.052-3.948,6.493,6.521L889.667,90.9,874.122,75.29l6.493-6.521,9.052,9.092ZM790.1,81.807l-9.052-9.089-11.612,11.66L817.252,132.4l29.737-29.86-11.644-11.3-18.084,17.855-15.575-15.64,6.513-6.758,9.029,9.372,11.635-11.682L808.2,63.628Zm18.1-13.038,15.542,15.61-6.469,6.5L808.2,81.463,796.606,93.489l20.634,20.717,18.125-17.9,6.46,6.271-24.574,24.675-42.7-42.878,6.493-6.518L790.1,86.95ZM642.7,102.558l11.612,11.66L681.469,86.95l18.1,18.179,11.612-11.66-29.716-29.84Zm5.119,0,33.649-33.789,24.6,24.7-6.493,6.518-18.1-18.179-27.157,27.271Zm-11.612-29.84-9.052-9.089L615.544,75.29l20.664,20.75,20.664-20.75L645.26,63.628Zm9.052-3.948,6.493,6.521L636.208,90.9,620.664,75.29l6.492-6.521,9.052,9.092ZM536.637,81.807l-9.052-9.089-11.612,11.66L563.793,132.4l29.737-29.86-11.644-11.3L563.8,109.087l-15.574-15.64,6.513-6.758,9.029,9.372,11.635-11.682-20.664-20.75Zm18.1-13.038,15.542,15.61-6.469,6.5-9.073-9.413L543.147,93.489l20.634,20.717,18.125-17.9,6.46,6.271-24.574,24.675-42.7-42.878,6.493-6.518,9.052,9.089Zm-165.5,33.789,11.612,11.66L428.01,86.95l18.1,18.179,11.612-11.66L428.01,63.628Zm5.119,0L428.01,68.769l24.6,24.7-6.493,6.518-18.1-18.179-27.157,27.271Zm-11.612-29.84L373.7,63.628,362.085,75.29l20.664,20.75,20.664-20.75L391.8,63.628Zm9.052-3.948,6.493,6.521L382.749,90.9,367.2,75.29l6.493-6.521,9.052,9.092ZM283.175,81.807l-9.049-9.089-11.615,11.66L310.332,132.4l29.74-29.86-11.644-11.3-18.084,17.855-15.574-15.64,6.511-6.758,9.032,9.372,11.633-11.682-20.665-20.75Zm18.1-13.038,15.545,15.61-6.469,6.5-9.076-9.413L289.688,93.489l20.634,20.717,18.125-17.9,6.46,6.271-24.576,24.675-42.7-42.878,6.493-6.518,9.049,9.089Zm-165.5,33.789,11.612,11.66L174.551,86.95l18.1,18.179,11.612-11.66-29.716-29.84Zm5.119,0,33.649-33.789,24.6,24.7-6.493,6.518-18.1-18.179-27.157,27.271ZM129.29,72.717l-9.052-9.089L108.626,75.29l20.664,20.75,20.664-20.75L138.343,63.628Zm9.052-3.948,6.493,6.521L129.29,90.9,113.747,75.29l6.492-6.521,9.052,9.092ZM29.716,81.807l-9.052-9.089L9.052,84.379,56.873,132.4l29.74-29.86-11.644-11.3L56.885,109.087,41.31,93.447l6.511-6.758,9.032,9.372L68.486,84.379,47.821,63.628Zm18.1-13.038,15.545,15.61-6.471,6.5-9.074-9.413L36.23,93.489l20.634,20.717,18.125-17.9,6.458,6.271L56.873,127.256l-42.7-42.878,6.49-6.518,9.052,9.089ZM833.4,75.9l20.06,20.144,11.615-11.66L845.01,64.235Zm5.12,0,6.492-6.521,14.941,15L853.458,90.9Zm-258.579,0L600,96.039l11.612-11.66-20.06-20.144Zm5.12,0,6.492-6.521,14.941,15L600,90.9Zm-258.579,0,20.06,20.144,11.612-11.66-20.06-20.144Zm5.12,0,6.492-6.521,14.941,15L346.54,90.9Zm-258.579,0,20.06,20.144,11.613-11.66L84.633,64.235Zm5.12,0,6.492-6.521,14.941,15L93.082,90.9Zm872.331,44.842,11.612,11.66,36.209-36.358,18.1,18.179,11.612-11.66L998.294,72.718Zm5.119,0,42.7-42.876,24.6,24.7-6.493,6.521L998.294,90.9l-36.209,36.36Zm-258.578,0,11.612,11.66,36.209-36.358,18.1,18.179,11.612-11.66L744.835,72.718Zm5.119,0,42.7-42.876,24.6,24.7-6.493,6.521L744.835,90.9l-36.209,36.36Zm-258.578,0,11.612,11.66,36.209-36.358,18.1,18.179,11.612-11.66L491.376,72.718Zm5.119,0,42.7-42.876,24.6,24.7-6.493,6.521L491.376,90.9l-36.209,36.36Zm-258.578,0,11.612,11.66,36.209-36.358,18.1,18.179,11.612-11.66L237.917,72.718Zm5.119,0,42.7-42.876,24.594,24.7-6.49,6.521L237.917,90.9l-36.209,36.36Zm664.736-18.179,29.716,29.84,11.612-11.66L871.563,90.9Zm5.122,0,6.49-6.519,24.6,24.7-6.493,6.52Zm-258.581,0,29.716,29.84,11.612-11.66L618.1,90.9Zm5.119,0,6.493-6.519,24.6,24.7-6.493,6.52Zm-258.578,0,29.716,29.84,11.612-11.66L364.645,90.9Zm5.119,0,6.493-6.519,24.6,24.7-6.493,6.52Zm-258.578,0L129.29,132.4l11.612-11.66L111.186,90.9Zm5.119,0,6.493-6.519,24.6,24.7-6.493,6.52Zm818.623,9.089,11.612,11.661,11.612-11.661-11.612-11.66Zm5.119,0,6.493-6.518,6.493,6.518-6.493,6.521Zm-258.578,0,11.612,11.661,11.612-11.661-11.612-11.66Zm5.119,0,6.493-6.518,6.493,6.518-6.493,6.521Zm-258.578,0,11.612,11.661,11.612-11.661L428.01,99.986Zm5.119,0,6.493-6.518,6.493,6.518-6.493,6.521Zm-258.578,0,11.612,11.661,11.612-11.661-11.612-11.66Zm5.119,0,6.493-6.518,6.493,6.518-6.493,6.521ZM1016.4,127.257l-18.1-18.179-11.612,11.659,18.1,18.181-6.493,6.518-18.1-18.178-11.612,11.66,29.716,29.839,47.821-48.02L1034.5,109.078Zm18.1-13.039,6.493,6.519-42.7,42.878-24.6-24.7,6.493-6.521,18.1,18.181,11.612-11.66-18.1-18.181,6.492-6.519,18.1,18.179ZM762.939,127.257l-18.1-18.179-11.612,11.659,18.1,18.181-6.493,6.518-18.1-18.178-11.612,11.66,29.716,29.839,47.821-48.02-11.612-11.659Zm18.1-13.039,6.493,6.519-42.7,42.878-24.6-24.7,6.493-6.521,18.1,18.181,11.612-11.66-18.1-18.181,6.493-6.519,18.1,18.179ZM509.48,127.257l-18.1-18.179-11.612,11.659,18.1,18.181-6.493,6.518-18.1-18.178-11.612,11.66,29.716,29.839,47.821-48.02-11.612-11.659Zm18.1-13.039,6.49,6.519-42.7,42.878-24.6-24.7,6.493-6.521,18.1,18.181,11.612-11.66-18.1-18.181,6.493-6.519,18.1,18.179ZM256.021,127.257l-18.1-18.179-11.612,11.659,18.1,18.181-6.49,6.518-18.1-18.178L208.2,138.918l29.716,29.839,47.821-48.02-11.612-11.659Zm18.1-13.039,6.49,6.519-42.7,42.878-24.6-24.7,6.493-6.521,18.1,18.181,11.612-11.66-18.1-18.181,6.493-6.519,18.1,18.179Zm549.617,24.7,20.664,20.75,11.615-11.66-9.052-9.09,17.5-17.575-11.612-11.66Zm5.122,0,23.993-24.093,6.493,6.518-17.5,17.575,9.052,9.09-6.493,6.518Zm-258.581,0,20.664,20.75,11.612-11.66-9.049-9.09,17.5-17.575L599.4,109.682Zm5.122,0L599.4,114.825l6.49,6.518-17.5,17.575,9.052,9.09-6.493,6.518Zm-258.581,0,20.664,20.75,11.612-11.66-9.051-9.09,17.5-17.575-11.615-11.66Zm5.119,0,23.993-24.093,6.493,6.518-17.5,17.575,9.052,9.09-6.493,6.518Zm-258.578,0,20.664,20.75,11.613-11.66-9.052-9.09,17.5-17.575-11.612-11.66Zm5.12,0,23.992-24.093,6.493,6.518-17.5,17.575,9.052,9.09-6.493,6.518Zm827.674,0,11.612,11.66,20.664-20.75-11.612-11.661Zm5.119,0,15.545-15.61,6.493,6.521-15.545,15.607Zm-258.578,0,11.612,11.66,20.664-20.75-11.612-11.661Zm5.119,0,15.545-15.61,6.493,6.521-15.545,15.607Zm-258.578,0,11.612,11.66,20.664-20.75-11.612-11.661Zm5.119,0,15.545-15.61,6.493,6.521-15.545,15.607Zm-258.578,0,11.612,11.66,20.664-20.75-11.612-11.661Zm5.119,0,15.545-15.61,6.493,6.521-15.545,15.607Zm900.093,0,38.164,38.323,11.612-11.66-38.165-38.323Zm5.119,0,6.493-6.521,33.045,33.183-6.493,6.521ZM914.264,157.1l11.612,11.66,18.1-18.178,36.209,36.357,11.612-11.66L943.98,127.257Zm5.119,0,24.6-24.7,42.7,42.879-6.493,6.521L943.98,145.436l-18.1,18.179Zm-59.432-18.179L869,148.007l-9.052,9.09,11.612,11.66,20.664-20.75-20.664-20.749Zm5.122,18.179,9.049-9.09-9.049-9.089,6.49-6.521,15.545,15.61-15.545,15.608Zm-77.537-18.179L825.7,177.241l11.612-11.66-38.164-38.323Zm11.612-6.521,33.045,33.183L825.7,172.1l-33.045-33.183ZM660.805,157.1l11.612,11.66,18.1-18.178,36.209,36.357,11.612-11.66-47.821-48.019Zm5.119,0,24.6-24.7,42.7,42.879L726.73,181.8l-36.209-36.361-18.1,18.179Zm-59.432-18.179,9.052,9.089-9.052,9.09,11.612,11.66,20.664-20.75L618.1,127.257Zm5.119,18.179,9.052-9.09-9.052-9.089L618.1,132.4l15.545,15.61L618.1,163.615Zm-77.537-18.179,38.167,38.323,11.612-11.66-38.165-38.323Zm11.615-6.521,33.045,33.183-6.493,6.521L539.2,138.918ZM407.346,157.1l11.612,11.66,18.1-18.178,36.209,36.357,11.612-11.66-47.821-48.019Zm5.119,0,24.6-24.7,42.7,42.879-6.493,6.521-36.209-36.361-18.1,18.179Zm-59.432-18.179,9.052,9.089-9.052,9.09,11.612,11.66,20.664-20.75-20.664-20.749Zm5.119,18.179,9.052-9.09-9.052-9.089,6.493-6.521,15.545,15.61-15.545,15.608Zm-77.537-18.179,38.167,38.323,11.612-11.66-38.167-38.323Zm11.612-6.521,33.045,33.183-6.49,6.521-33.045-33.183Zm-138.34,24.7,11.612,11.66,18.1-18.178,36.209,36.357,11.612-11.66L183.6,127.257Zm5.119,0,24.6-24.7,42.7,42.879-6.493,6.521L183.6,145.436l-18.1,18.179ZM99.574,138.918l9.052,9.089-9.052,9.09,11.612,11.66,20.664-20.75-20.664-20.749Zm5.119,18.179,9.052-9.09-9.052-9.089,6.493-6.521,15.545,15.61-15.545,15.608ZM27.157,138.918l38.165,38.323,11.614-11.66L38.768,127.257ZM38.768,132.4,71.814,165.58,65.321,172.1,32.277,138.918Zm956.966,51.968,11.612,11.66,38.768-38.929L1034.5,145.436Zm5.119,0,33.649-33.786,6.493,6.518-33.649,33.789Zm-258.578,0,11.612,11.66L792.655,157.1l-11.612-11.661Zm5.119,0,33.649-33.786,6.492,6.518-33.648,33.789Zm-258.578,0,11.612,11.66L539.2,157.1l-11.612-11.661Zm5.119,0,33.649-33.786,6.49,6.518-33.647,33.789Zm-258.578,0,11.612,11.66L285.737,157.1l-11.612-11.661Zm5.119,0,33.649-33.786,6.49,6.518-33.646,33.789Zm646.631-18.179,38.768,38.93,29.716-29.84L943.98,163.615l-18.1,18.182-27.157-27.271Zm5.119,0,6.493-6.518,27.157,27.268,18.1-18.179,6.493,6.519-24.6,24.7Zm-258.578,0,38.768,38.93,29.716-29.84-11.612-11.661-18.1,18.182L645.26,154.526Zm5.12,0,6.492-6.518,27.157,27.268,18.1-18.179,6.493,6.519-24.6,24.7Zm-258.579,0,38.768,38.93,29.716-29.84-11.612-11.661-18.1,18.182L391.8,154.526Zm5.119,0,6.493-6.518,27.157,27.268,18.1-18.179,6.493,6.519-24.6,24.7Zm-258.578,0,38.768,38.93,29.716-29.84L183.6,163.615,165.5,181.8l-27.157-27.271Zm5.119,0,6.493-6.518L165.5,186.936l18.1-18.179,6.493,6.519-24.6,24.7Zm900.078,18.2,29.7,29.161,11.71-10.975-9.12-8.852,9.031-9.372-20.643-20.729Zm5.15-.031,15.529-15.593,15.563,15.628L1059.1,193.8l8.985,8.721-6.394,5.991Zm-195.232-9.075,29.716,29.84,20.664-20.75L880.615,172.7l-9.052,9.092-18.1-18.182Zm5.122,0,6.49-6.519,18.1,18.179,9.052-9.089,6.493,6.518-15.545,15.61Zm-68.5,9.105,29.7,29.161,11.71-10.975-9.12-8.852,9.031-9.372-20.643-20.729Zm20.678-15.624,15.563,15.628-9.073,9.416,8.985,8.721-6.394,5.991-24.611-24.163Zm-210.76,6.519,29.716,29.84,20.664-20.75L627.156,172.7,618.1,181.8,600,163.615Zm5.122,0,6.49-6.519,18.1,18.179,9.052-9.089,6.493,6.518L618.1,199.975Zm-68.5,9.105,29.7,29.161,11.71-10.975-9.12-8.852,9.031-9.372-20.643-20.729Zm20.68-15.624,15.563,15.628-9.073,9.416,8.985,8.721-6.394,5.991-24.611-24.163Zm-210.76,6.519,29.716,29.84,20.664-20.75L373.7,172.7l-9.052,9.092-18.1-18.182Zm5.12,0,6.492-6.519,18.1,18.179,9.052-9.089,6.493,6.518-15.545,15.61Zm-68.5,9.105,29.7,29.161,11.71-10.975-9.12-8.852,9.031-9.372-20.646-20.729Zm20.677-15.624,15.565,15.628L298.72,193.8l8.985,8.721-6.395,5.991L276.7,184.351ZM81.47,175.276l29.716,29.84,20.664-20.75L120.238,172.7l-9.052,9.092-18.1-18.182Zm5.12,0,6.492-6.519,18.1,18.179,9.052-9.089,6.493,6.518-15.545,15.61Zm-68.5,9.105,29.7,29.161L59.5,202.568l-9.12-8.852,9.032-9.372L38.768,163.615Zm20.678-15.624,15.566,15.628L45.261,193.8l8.985,8.721-6.394,5.991L23.241,184.351Zm911.7,24.7,11.612,11.661L973.7,193.454,962.085,181.8Zm5.119,0,6.493-6.518,6.493,6.518-6.493,6.521Zm-131.85,0L853.458,223.3l11.615-11.66L835.357,181.8Zm5.122,0,6.493-6.518,24.594,24.7-6.493,6.518Zm-131.85,0,11.612,11.661,11.612-11.661L708.626,181.8Zm5.119,0,6.493-6.518,6.493,6.518-6.493,6.521Zm-131.85,0L600,223.3l11.612-11.66L581.9,181.8Zm5.122,0,6.49-6.518,24.6,24.7L600,218.154Zm-131.85,0,11.612,11.661,11.612-11.661L455.167,181.8Zm5.119,0,6.493-6.518,6.493,6.518-6.493,6.521Zm-131.85,0L346.54,223.3l11.612-11.66L328.436,181.8Zm5.119,0,6.493-6.518,24.6,24.7-6.493,6.518Zm-131.847,0,11.612,11.661,11.612-11.661L201.708,181.8Zm5.119,0,6.493-6.518,6.493,6.518-6.493,6.521Zm-131.85,0L93.082,223.3l11.613-11.66L74.977,181.8Zm5.12,0,6.492-6.518,24.6,24.7-6.493,6.518Zm945.353,9.092,38.768,38.93,11.612-11.661-38.768-38.929Zm11.612-6.521,33.649,33.789-6.493,6.519-33.649-33.787Zm-99.574,58.488-27.157-27.271L887.108,238.9l38.768,38.929,36.209-36.357,18.708,18.785,20.664-20.75-11.612-11.66-9.052,9.089-7.1-7.124,15.545-15.61,27.157,27.271,11.612-11.661-38.768-38.929Zm63.365-58.487,33.648,33.788-6.492,6.519-27.157-27.269-20.664,20.75,12.216,12.267,9.052-9.089,6.493,6.518-15.545,15.61-18.708-18.787-36.209,36.36L892.227,238.9l6.493-6.518,27.157,27.268ZM859.349,230.421l11.613,11.66L898.719,214.2l9.052,9.092,11.612-11.66-20.664-20.75Zm5.12,0,34.25-34.4,15.545,15.611-6.493,6.518-9.052-9.09-27.758,27.875ZM760.379,202.546l38.768,38.93,11.612-11.661-38.768-38.929Zm11.612-6.521,33.647,33.789-6.49,6.519L765.5,202.546Zm-99.574,58.488L645.26,227.243,633.649,238.9l38.768,38.929,36.209-36.357,18.708,18.785L748,239.51l-11.612-11.66-9.052,9.089-7.1-7.124,15.545-15.61,27.157,27.271,11.612-11.661-38.768-38.929Zm63.365-58.487,33.649,33.788-6.493,6.519-27.157-27.269-20.664,20.75,12.216,12.267,9.052-9.089,6.49,6.518-15.542,15.61-18.708-18.787-36.209,36.36L638.769,238.9l6.492-6.518,27.157,27.268ZM605.888,230.421l11.612,11.66L645.26,214.2l9.052,9.092,11.612-11.66-20.664-20.75Zm5.122,0,34.25-34.4,15.545,15.611-6.493,6.518-9.052-9.09L617.5,236.939Zm-104.09-27.875,38.768,38.93L557.3,229.814l-38.768-38.929Zm11.612-6.521,33.646,33.789-6.49,6.519L512.04,202.546Zm-99.574,58.488L391.8,227.243,380.19,238.9l38.768,38.929,36.209-36.357,18.708,18.785,20.664-20.75-11.612-11.66-9.052,9.089-7.1-7.124,15.545-15.61,27.157,27.271,11.612-11.661-38.768-38.929Zm63.365-58.487,33.649,33.788-6.493,6.519-27.157-27.269-20.664,20.75,12.216,12.267,9.052-9.089,6.49,6.518-15.542,15.61-18.708-18.787-36.209,36.36L385.309,238.9l6.493-6.518,27.157,27.268ZM352.429,230.421l11.612,11.66L391.8,214.2l9.052,9.092,11.612-11.66L391.8,190.886Zm5.122,0,34.25-34.4,15.545,15.611-6.493,6.518-9.052-9.09-27.76,27.875ZM253.459,202.546l38.768,38.93,11.615-11.661-38.768-38.929Zm11.614-6.521,33.646,33.789-6.493,6.519-33.647-33.787ZM165.5,254.514l-27.157-27.271L126.731,238.9,165.5,277.833l36.209-36.357,18.706,18.785,20.666-20.75-11.614-11.66-9.052,9.089-7.095-7.124,15.545-15.61,27.157,27.271,11.612-11.661-38.768-38.929Zm63.365-58.487,33.646,33.788-6.49,6.519-27.157-27.269L208.2,229.814l12.214,12.267,9.052-9.089,6.492,6.518-15.544,15.61-18.706-18.787L165.5,272.693,131.85,238.9l6.493-6.518L165.5,259.655ZM98.97,230.421l11.612,11.66,27.76-27.877,9.052,9.092,11.612-11.66-20.664-20.75Zm5.119,0,34.253-34.4,15.545,15.611-6.493,6.518-9.052-9.09-27.76,27.875ZM0,202.546l38.768,38.93,11.613-11.661L11.612,190.886Zm5.122,0,6.49-6.521,33.649,33.789-6.493,6.519Zm909.142,27.268,11.612,11.661,29.716-29.839L943.98,199.975Zm5.119,0,24.6-24.7,6.493,6.521-24.6,24.7Zm-258.578,0,11.612,11.661,29.716-29.839-11.612-11.661Zm5.119,0,24.6-24.7,6.493,6.521-24.6,24.7Zm-258.578,0,11.612,11.661,29.716-29.839-11.612-11.661Zm5.119,0,24.6-24.7,6.493,6.521-24.6,24.7Zm-258.578,0L165.5,241.475l29.716-29.839L183.6,199.975Zm5.119,0,24.6-24.7,6.493,6.521-24.6,24.7Zm909.145-9.089,38.768,38.93,11.612-11.661-38.768-38.929Zm5.119,0,6.493-6.52,33.646,33.789-6.49,6.521Zm-258.581,0,38.768,38.93,11.615-11.661L826.3,209.065ZM826.3,214.2l33.646,33.789-6.493,6.521-33.646-33.789Zm-265.073,6.52L600,259.655l11.612-11.661-38.768-38.929Zm11.612-6.52,33.649,33.789L600,254.514l-33.647-33.789Zm-265.071,6.52,38.768,38.93,11.613-11.661-38.769-38.929Zm11.612-6.52,33.649,33.789-6.493,6.521-33.648-33.789Zm-265.071,6.52,38.768,38.93,11.613-11.661L65.925,209.065Zm11.612-6.52,33.649,33.789-6.493,6.521L59.433,220.725Zm966.018,60.453,11.612,11.659,27.157-27.268,18.1,18.179,11.612-11.661-29.716-29.84Zm5.119,0,33.649-33.789,24.594,24.7-6.49,6.52-18.1-18.179-27.157,27.269Zm-258.578,0L790.1,286.316l27.157-27.268,18.1,18.179,11.612-11.661-29.716-29.84Zm38.768-33.789,24.594,24.7-6.49,6.52-18.1-18.179L790.1,281.176l-6.493-6.519Zm-292.23,33.789,11.615,11.659,27.157-27.268,18.1,18.179,11.615-11.661-29.716-29.84Zm38.771-33.789,24.594,24.7-6.493,6.52-18.1-18.179-27.157,27.269-6.493-6.519Zm-292.23,33.789,11.612,11.659,27.157-27.268,18.1,18.179,11.612-11.661-29.716-29.84Zm38.768-33.789,24.6,24.7-6.493,6.52-18.1-18.179-27.157,27.269-6.49-6.519ZM18.1,274.658l11.612,11.659,27.157-27.268,18.1,18.179L86.59,265.566l-29.717-29.84Zm38.768-33.789,24.6,24.7-6.493,6.52-18.1-18.179L29.716,281.176l-6.49-6.519Zm959.058,13.612-8.548-9.1L995.72,257.1l20.054,19.706,30.364-28.917-11.619-11.861Zm18.553-13.307,6.488,6.623-25.157,23.958-14.947-14.687,6.44-6.466,8.535,9.082ZM762.472,254.481l-8.548-9.1L742.261,257.1,762.314,276.8l30.364-28.917L781.06,236.025Zm18.553-13.307,6.485,6.623-25.154,23.958-14.947-14.687,6.441-6.466,8.534,9.082ZM509.013,254.481l-8.548-9.1L488.8,257.1,508.855,276.8l30.364-28.917L527.6,236.025Zm18.553-13.307,6.485,6.623L508.9,271.756,493.95,257.069l6.439-6.466,8.536,9.082ZM255.554,254.481l-8.548-9.1L235.341,257.1,255.4,276.8l30.364-28.917-11.619-11.861Zm18.553-13.307,6.485,6.623-25.156,23.958-14.945-14.687,6.439-6.466,8.536,9.082Zm567.74,43.178,11.612,11.661,27.157-27.271,9.052,9.089,11.612-11.66-20.664-20.75Zm5.122,0,33.646-33.789,15.545,15.608-6.493,6.521-9.052-9.09-27.157,27.269Zm-258.581,0L600,296.015l27.157-27.271,9.052,9.089,11.612-11.66-20.664-20.75Zm5.122,0,33.646-33.789L642.7,266.172l-6.493,6.521-9.052-9.09L600,290.872Zm-258.581,0,11.612,11.661L373.7,268.744l9.052,9.089,11.612-11.66L373.7,245.422Zm5.12,0L373.7,250.565l15.545,15.608-6.493,6.521L373.7,263.6,346.54,290.872Zm-258.579,0,11.612,11.661,27.157-27.271,9.052,9.089,11.612-11.66-20.664-20.75Zm5.12,0,33.648-33.789,15.545,15.608-6.493,6.521-9.052-9.09L93.082,290.872Zm819.284,26.6,11.5,12.7,56.311-57.5-11.6-11.65Zm56.211-51.3,6.5,6.53-51.107,52.186-6.6-7.294Zm-309.669,51.3,11.5,12.7,56.309-57.5-11.6-11.65Zm56.21-51.3,6.5,6.53L664.02,318.371l-6.6-7.294Zm-309.669,51.3,11.5,12.7,56.308-57.5-11.6-11.65Zm56.21-51.3,6.5,6.53-51.107,52.186-6.6-7.294ZM145.5,310.957l11.5,12.7,56.31-57.5-11.6-11.65Zm56.21-51.3,6.5,6.53L157.1,318.371l-6.6-7.294Zm757.666,33.8,29.87,29.828,11.609-11.656-18.125-18.2,6.212-6.45,8.687,9.024,12.333-11.61L988.925,263.61Zm29.579-24.714,15.779,15.584-6.979,6.572-8.813-9.155-11.29,11.726,18.084,18.158-6.5,6.522-24.743-24.709ZM705.915,293.45l29.87,29.828,11.609-11.656-18.125-18.2,6.211-6.45,8.688,9.024,12.333-11.61L735.467,263.61Zm29.579-24.714,15.779,15.584-6.979,6.572-8.814-9.155-11.289,11.726,18.084,18.158-6.5,6.522-24.743-24.709ZM452.456,293.45l29.87,29.828,11.609-11.656-18.125-18.2,6.211-6.45,8.688,9.024,12.332-11.61L482.008,263.61Zm29.579-24.714,15.779,15.584-6.979,6.572-8.814-9.155-11.289,11.726,18.084,18.158-6.5,6.522-24.744-24.709ZM199,293.45l29.87,29.828,11.609-11.656-18.125-18.2,6.212-6.45,8.687,9.024,12.333-11.61L228.549,263.61Zm29.579-24.714,15.78,15.584-6.98,6.572-8.813-9.155-11.29,11.726,18.084,18.158-6.5,6.522-24.743-24.709Zm820.943,23.984,11.443,13.406,21.309-21.743-11.5-12.318Zm21.128-15.473,6.6,7.076-16.106,16.432-6.66-7.8ZM796.061,292.721,807.5,306.127l21.309-21.743-11.5-12.318Zm21.128-15.473,6.6,7.076-16.106,16.432-6.66-7.8ZM542.6,292.721l11.443,13.406,21.309-21.743-11.5-12.318Zm21.128-15.473,6.6,7.076-16.106,16.432-6.66-7.8ZM289.143,292.721l11.443,13.406,21.309-21.743-11.5-12.318Zm21.127-15.473,6.606,7.076-16.106,16.432-6.66-7.8ZM35.681,292.721l11.445,13.406,21.309-21.743-11.5-12.318Zm21.129-15.473,6.6,7.076-16.1,16.432-6.66-7.8Zm839.349,7.106,11.612,11.661,11.612-11.661-11.612-11.66Zm5.119,0,6.493-6.521,6.493,6.521-6.493,6.519Zm-258.578,0,11.612,11.661,11.612-11.661-11.612-11.66Zm5.119,0,6.493-6.521,6.493,6.521-6.493,6.519Zm-258.578,0,11.612,11.661,11.612-11.661-11.612-11.66Zm5.119,0,6.493-6.521,6.493,6.521-6.493,6.519Zm-258.578,0,11.612,11.661,11.612-11.661-11.612-11.66Zm5.119,0,6.493-6.521,6.493,6.521-6.493,6.519Zm710,27.269,11.612,11.66,18.1-18.179,9.052,9.09,11.612-11.661-20.664-20.75Zm29.716-24.7,15.545,15.61-6.493,6.519-9.052-9.09-18.1,18.181-6.49-6.52Zm-283.175,24.7,11.612,11.66,18.1-18.179,9.052,9.09,11.612-11.661-20.664-20.75Zm29.716-24.7,15.545,15.61-6.493,6.519-9.052-9.09-18.1,18.181-6.493-6.52Zm-283.175,24.7,11.612,11.66L373.7,305.1l9.052,9.09,11.612-11.661L373.7,281.782Zm29.716-24.7,15.545,15.61-6.493,6.519-9.052-9.09-18.1,18.181-6.493-6.52Zm-283.175,24.7,11.612,11.66,18.1-18.179,9.052,9.09L140.9,302.532l-20.664-20.75Zm29.716-24.7,15.545,15.61-6.493,6.519-9.052-9.09-18.1,18.181-6.492-6.52ZM1004.5,302.5l8.8,9.14-8.509,9.153,12.253,11.534,18.043-18.137,8.411,8.464,11.623-11.332L1025.294,281.8Zm20.8-15.6,24.641,24.4-6.406,6.243-8.448-8.5-18.128,18.223-7.057-6.646,8.388-9.024-8.7-9.041Zm-274.26,15.6,8.8,9.14-8.509,9.153,12.253,11.534L781.627,314.2l8.41,8.464,11.622-11.332L771.836,281.8Zm20.8-15.6,24.641,24.4-6.407,6.243-8.448-8.5L763.5,327.272l-7.06-6.646,8.39-9.024-8.7-9.041ZM497.582,302.5l8.8,9.14L497.87,320.8l12.254,11.534L528.168,314.2l8.411,8.464L548.2,311.328,518.377,281.8Zm20.8-15.6,24.64,24.4-6.406,6.243-8.448-8.5-18.127,18.223-7.06-6.646,8.39-9.024-8.7-9.041ZM244.123,302.5l8.8,9.14-8.509,9.153,12.253,11.534L274.709,314.2l8.41,8.464,11.622-11.332L264.918,281.8Zm20.8-15.6,24.641,24.4-6.407,6.243-8.448-8.5-18.127,18.223-7.06-6.646,8.39-9.024-8.7-9.041Zm802.623,25.32,11.612,11.66,21.268-21.356-11.612-11.66Zm21.268-16.214,6.49,6.518-16.146,16.214-6.493-6.518ZM814.089,312.228l11.612,11.66,21.268-21.356-11.612-11.66Zm21.268-16.214,6.49,6.518L825.7,318.746l-6.493-6.518ZM560.63,312.228l11.612,11.66,21.268-21.356L581.9,290.872ZM581.9,296.015l6.493,6.518-16.146,16.214-6.493-6.518ZM307.168,312.228l11.615,11.66,21.265-21.356-11.612-11.66Zm21.268-16.214,6.493,6.518-16.146,16.214-6.493-6.518ZM53.709,312.228l11.612,11.66L86.59,302.532l-11.613-11.66Zm21.268-16.214,6.493,6.518L65.321,318.746l-6.49-6.518Zm865.84,15,30.32,30.446L982.749,329.8l-30.32-30.445Zm11.612-6.518,25.2,25.3-6.493,6.52-25.2-25.305Zm-265.071,6.518,30.32,30.446L729.29,329.8l-30.32-30.445ZM698.97,304.5l25.2,25.3-6.493,6.52-25.2-25.305ZM433.9,311.016l30.32,30.446L475.831,329.8l-30.32-30.445Zm11.612-6.518,25.2,25.3-6.493,6.52-25.2-25.305ZM180.44,311.016l30.32,30.446L222.372,329.8l-30.32-30.445Zm11.612-6.518,25.2,25.3-6.493,6.52-25.2-25.305Zm851.5,31.823-9.052-9.089-11.612,11.659,47.821,48.02,29.737-29.863-11.644-11.3L1070.72,363.6l-15.574-15.64,6.513-6.758,9.031,9.369,11.633-11.681-20.664-20.749Zm18.1-13.038,15.545,15.608-6.472,6.5-9.073-9.416L1050.065,348,1070.7,368.72l18.125-17.9,6.46,6.268-24.574,24.676-42.7-42.878,6.493-6.519,9.052,9.09Zm-165.5,33.789,11.612,11.66,27.157-27.27,18.1,18.178,11.612-11.658-29.716-29.84Zm5.119,0,33.649-33.789,24.6,24.7-6.493,6.518-18.1-18.179-27.157,27.268ZM790.1,336.321l-9.052-9.089-11.612,11.659,47.821,48.02,29.737-29.863-11.644-11.3L817.261,363.6l-15.575-15.64L808.2,341.2l9.029,9.369,11.635-11.681L808.2,318.142Zm18.1-13.038,15.542,15.608-6.469,6.5-9.073-9.416L796.606,348l20.634,20.717,18.125-17.9,6.46,6.268-24.574,24.676-42.7-42.878,6.493-6.519,9.052,9.09ZM642.7,357.071l11.612,11.66,27.157-27.27,18.1,18.178,11.612-11.658-29.716-29.84Zm5.119,0,33.649-33.789,24.6,24.7-6.493,6.518-18.1-18.179-27.157,27.268Zm-111.183-20.75-9.052-9.089-11.612,11.659,47.821,48.02,29.737-29.863-11.644-11.3L563.8,363.6l-15.574-15.64,6.513-6.758,9.029,9.369,11.635-11.681-20.664-20.749Zm18.1-13.038,15.542,15.608-6.469,6.5-9.073-9.416L543.147,348l20.634,20.717,18.125-17.9,6.46,6.268-24.574,24.676-42.7-42.878,6.493-6.519,9.052,9.09Zm-165.5,33.789,11.612,11.66,27.157-27.27,18.1,18.178,11.612-11.658-29.716-29.84Zm5.119,0,33.649-33.789,24.6,24.7-6.493,6.518-18.1-18.179-27.157,27.268Zm-111.186-20.75-9.049-9.089-11.615,11.659,47.821,48.02,29.74-29.863-11.644-11.3L310.343,363.6l-15.574-15.64,6.511-6.758,9.032,9.369,11.633-11.681-20.665-20.749Zm18.1-13.038,15.545,15.608-6.469,6.5-9.076-9.416L289.688,348l20.634,20.717,18.125-17.9,6.46,6.268-24.576,24.676-42.7-42.878,6.493-6.519,9.049,9.09Zm-165.5,33.789,11.612,11.66,27.157-27.27,18.1,18.178,11.612-11.658-29.716-29.84Zm5.119,0,33.649-33.789,24.6,24.7-6.493,6.518-18.1-18.179-27.157,27.268ZM29.716,336.321l-9.052-9.089L9.052,338.891l47.821,48.02,29.74-29.863-11.644-11.3L56.885,363.6,41.31,347.961l6.511-6.758,9.032,9.369,11.633-11.681L47.821,318.142Zm18.1-13.038,15.545,15.608-6.471,6.5-9.074-9.416L36.23,348,56.864,368.72l18.125-17.9,6.458,6.268L56.873,381.768l-42.7-42.878,6.49-6.519,9.052,9.09Zm841.847,3.949-9.052-9.089L869,329.8l20.664,20.75,20.665-20.75-11.613-11.658Zm9.052-3.949,6.493,6.518-15.545,15.61L874.122,329.8l6.493-6.518,9.052,9.089Zm-262.511,3.949-9.052-9.089L615.544,329.8l20.664,20.75,20.664-20.75L645.26,318.143Zm9.052-3.949,6.493,6.518-15.545,15.61L620.664,329.8l6.492-6.518,9.052,9.089Zm-262.511,3.949-9.052-9.089L362.085,329.8l20.664,20.75,20.664-20.75L391.8,318.143Zm9.052-3.949,6.493,6.518-15.545,15.61L367.2,329.8l6.493-6.518,9.052,9.089ZM129.29,327.232l-9.052-9.089L108.626,329.8l20.664,20.75,20.664-20.75-11.612-11.658Zm9.052-3.949,6.493,6.518-15.545,15.61L113.747,329.8l6.492-6.518,9.052,9.089ZM833.4,330.407l20.06,20.144,11.615-11.66L845.01,318.746Zm5.12,0,6.492-6.519,14.941,15-6.493,6.521Zm-258.579,0L600,350.551l11.612-11.66-20.06-20.145Zm5.12,0,6.492-6.519,14.941,15L600,345.411Zm-258.579,0,20.06,20.144,11.612-11.66-20.06-20.145Zm5.12,0,6.492-6.519,14.941,15-6.493,6.521Zm-258.579,0,20.06,20.144,11.613-11.66L84.633,318.746Zm5.12,0,6.492-6.519,14.941,15-6.493,6.521Zm872.331,44.843,11.612,11.66,36.209-36.36,18.1,18.181,11.612-11.66-29.716-29.839Zm5.119,0,42.7-42.879,24.6,24.7-6.493,6.518-18.1-18.179-36.209,36.358Zm-258.578,0,11.612,11.66,36.209-36.36,18.1,18.181,11.612-11.66-29.716-29.839Zm5.119,0,42.7-42.879,24.6,24.7-6.493,6.518-18.1-18.179-36.209,36.358Zm-258.578,0,11.612,11.66,36.209-36.36,18.1,18.181,11.612-11.66-29.716-29.839Zm5.119,0,42.7-42.879,24.6,24.7-6.493,6.518-18.1-18.179-36.209,36.358Zm-258.578,0,11.612,11.66,36.209-36.36,18.1,18.181,11.612-11.66-29.716-29.839Zm5.119,0,42.7-42.879,24.594,24.7-6.49,6.518-18.1-18.179-36.209,36.358Zm664.736-18.179,29.716,29.839,11.612-11.66-29.716-29.84Zm5.122,0,6.49-6.521,24.6,24.7-6.493,6.518Zm-258.581,0,29.716,29.839,11.612-11.66L618.1,345.41Zm5.119,0,6.493-6.521,24.6,24.7-6.493,6.518Zm-258.578,0,29.716,29.839,11.612-11.66-29.716-29.84Zm5.119,0,6.493-6.521,24.6,24.7-6.493,6.518Zm-258.578,0,29.716,29.839,11.612-11.66-29.716-29.84Zm5.119,0,6.493-6.521,24.6,24.7-6.493,6.518Zm818.623,9.089,11.612,11.661,11.612-11.661L934.928,354.5Zm5.119,0,6.493-6.521,6.493,6.521-6.493,6.519Zm-258.578,0,11.612,11.661,11.612-11.661L681.469,354.5Zm5.119,0,6.493-6.521,6.493,6.521-6.493,6.519Zm-258.578,0,11.612,11.661,11.612-11.661L428.01,354.5Zm5.119,0,6.493-6.521,6.493,6.521-6.493,6.519Zm-258.578,0,11.612,11.661,11.612-11.661L174.551,354.5Zm5.119,0,6.493-6.521,6.493,6.521-6.493,6.519ZM1016.4,381.768l-18.1-18.179-11.612,11.661,18.1,18.179-6.493,6.52-18.1-18.181L968.577,393.43l29.716,29.839,47.821-48.019L1034.5,363.589Zm18.1-13.036,6.493,6.519-42.7,42.878-24.6-24.7,6.493-6.519,18.1,18.179,11.612-11.66-18.1-18.179,6.492-6.519,18.1,18.179ZM762.939,381.768l-18.1-18.179-11.612,11.661,18.1,18.179-6.493,6.52-18.1-18.181L715.118,393.43l29.716,29.839,47.821-48.019-11.612-11.661Zm18.1-13.036,6.493,6.519-42.7,42.878-24.6-24.7,6.493-6.519,18.1,18.179,11.612-11.66-18.1-18.179,6.493-6.519,18.1,18.179ZM509.48,381.768l-18.1-18.179-11.612,11.661,18.1,18.179-6.493,6.52-18.1-18.181L461.659,393.43l29.716,29.839L539.2,375.251l-11.612-11.661Zm18.1-13.036,6.49,6.519-42.7,42.878-24.6-24.7,6.493-6.519,18.1,18.179,11.612-11.66-18.1-18.179,6.493-6.519,18.1,18.179ZM256.021,381.768l-18.1-18.179-11.612,11.661,18.1,18.179-6.49,6.52-18.1-18.181L208.2,393.43l29.716,29.839,47.821-48.019-11.612-11.661Zm18.1-13.036,6.49,6.519-42.7,42.878-24.6-24.7,6.493-6.519,18.1,18.179,11.612-11.66-18.1-18.179,6.493-6.519,18.1,18.179Zm549.617,24.7,20.664,20.75,11.615-11.66-9.052-9.089,17.5-17.573L852.857,364.2Zm5.122,0,23.993-24.091,6.493,6.518-17.5,17.573,9.052,9.089-6.493,6.52Zm-258.581,0,20.664,20.75,11.612-11.66-9.049-9.089,17.5-17.573L599.4,364.2Zm5.122,0L599.4,369.338l6.49,6.518-17.5,17.573,9.052,9.089-6.493,6.52Zm-258.581,0,20.664,20.75,11.612-11.66-9.051-9.089,17.5-17.573L345.937,364.2Zm5.119,0,23.993-24.091,6.493,6.518-17.5,17.573,9.052,9.089-6.493,6.52Zm-258.578,0,20.664,20.75,11.613-11.66L86.59,393.43l17.5-17.573L92.478,364.2Zm5.12,0,23.992-24.091,6.493,6.518L81.47,393.43l9.052,9.089-6.493,6.52Zm827.674,0,11.612,11.66,20.664-20.75-11.612-11.66Zm5.119,0,15.545-15.608,6.493,6.518L907.772,399.95Zm-258.578,0,11.612,11.66,20.664-20.75-11.612-11.66Zm5.119,0,15.545-15.608,6.493,6.518L654.313,399.95Zm-258.578,0,11.612,11.66,20.664-20.75-11.612-11.66Zm5.119,0,15.545-15.608,6.493,6.518L400.854,399.95Zm-258.578,0,11.612,11.66,20.664-20.75-11.612-11.66Zm5.119,0,15.545-15.608,6.493,6.518L147.395,399.95Zm900.093,0,38.164,38.325,11.612-11.66-38.165-38.326Zm5.119,0,6.493-6.519,33.045,33.183-6.493,6.518Zm-131.85,18.181,11.612,11.659,18.1-18.179,36.209,36.36L991.8,429.79,943.98,381.768Zm5.119,0,24.6-24.7,42.7,42.879-6.493,6.518L943.98,399.95l-18.1,18.178ZM859.951,393.43,869,402.519l-9.052,9.092,11.612,11.659,20.664-20.75-20.664-20.75Zm5.122,18.181,9.049-9.092-9.049-9.089,6.49-6.519,15.545,15.608-15.545,15.61ZM787.536,393.43,825.7,431.754l11.612-11.66-38.164-38.326Zm11.612-6.519,33.045,33.183-6.493,6.518L792.655,393.43Zm-138.343,24.7,11.612,11.659,18.1-18.179,36.209,36.36,11.612-11.66-47.821-48.021Zm5.119,0,24.6-24.7,42.7,42.879-6.493,6.518L690.521,399.95l-18.1,18.178ZM606.492,393.43l9.052,9.089-9.052,9.092L618.1,423.269l20.664-20.75L618.1,381.768Zm5.119,18.181,9.052-9.092-9.052-9.089,6.493-6.519,15.545,15.608L618.1,418.128ZM534.074,393.43l38.167,38.325,11.612-11.66-38.165-38.326Zm11.615-6.519,33.045,33.183-6.493,6.518L539.2,393.43Zm-138.343,24.7,11.612,11.659,18.1-18.179,36.209,36.36,11.612-11.66-47.821-48.021Zm5.119,0,24.6-24.7,42.7,42.879-6.493,6.518L437.063,399.95l-18.1,18.178ZM353.033,393.43l9.052,9.089-9.052,9.092,11.612,11.659,20.664-20.75-20.664-20.75Zm5.119,18.181,9.052-9.092-9.052-9.089,6.493-6.519,15.545,15.608-15.545,15.61ZM280.615,393.43l38.167,38.325,11.612-11.66-38.167-38.326Zm11.612-6.519,33.045,33.183-6.49,6.518L285.737,393.43Zm-138.34,24.7L165.5,423.269l18.1-18.179,36.209,36.36,11.612-11.66L183.6,381.768Zm5.119,0,24.6-24.7,42.7,42.879-6.493,6.518L183.6,399.95l-18.1,18.178ZM99.574,393.43l9.052,9.089-9.052,9.092,11.612,11.659,20.664-20.75-20.664-20.75Zm5.119,18.181,9.052-9.092-9.052-9.089,6.493-6.519,15.545,15.608-15.545,15.61ZM27.157,393.43l38.165,38.325,11.614-11.66L38.768,381.768Zm11.612-6.519,33.045,33.183-6.493,6.518L32.277,393.43Zm956.966,51.968,11.612,11.66,38.768-38.929L1034.5,399.949Zm5.119,0L1034.5,405.09l6.493,6.521L1007.346,445.4Zm-258.578,0,11.612,11.66,38.768-38.929-11.612-11.661Zm5.119,0,33.649-33.789,6.492,6.521L753.887,445.4Zm-258.578,0,11.612,11.66L539.2,411.611l-11.612-11.661Zm5.119,0,33.649-33.789,6.49,6.521L500.428,445.4Zm-258.578,0,11.612,11.66,38.768-38.929-11.612-11.661Zm5.119,0,33.649-33.789,6.49,6.521L246.969,445.4ZM887.108,420.7l38.768,38.93,29.716-29.839L943.98,418.128l-18.1,18.179-27.157-27.268Zm5.119,0,6.493-6.52,27.157,27.271,18.1-18.181,6.493,6.521-24.6,24.7Zm-258.578,0,38.768,38.93,29.716-29.839-11.612-11.661-18.1,18.179L645.26,409.039Zm5.12,0,6.492-6.52,27.157,27.271,18.1-18.181,6.493,6.521-24.6,24.7Zm-258.579,0,38.768,38.93,29.716-29.839-11.612-11.661-18.1,18.179L391.8,409.039Zm5.119,0,6.493-6.52,27.157,27.271,18.1-18.181,6.493,6.521-24.6,24.7Zm-258.578,0,38.768,38.93,29.716-29.839L183.6,418.128l-18.1,18.179-27.157-27.268Zm5.119,0,6.493-6.52L165.5,441.45l18.1-18.181,6.493,6.521-24.6,24.7Zm900.078,18.194,29.7,29.164,11.71-10.975-9.12-8.852,9.031-9.372-20.643-20.73Zm5.15-.029,15.529-15.6,15.563,15.63-9.073,9.414,8.985,8.721-6.394,5.993ZM841.847,429.79l29.716,29.839,20.664-20.75-11.612-11.66-9.052,9.089-18.1-18.179Zm5.122,0,6.49-6.521,18.1,18.181,9.052-9.089,6.493,6.518-15.545,15.608Zm-68.5,9.1,29.7,29.164,11.71-10.975-9.12-8.852,9.031-9.372-20.643-20.73Zm20.678-15.624,15.563,15.63-9.073,9.414,8.985,8.721-6.394,5.993-24.611-24.163Zm-210.76,6.521L618.1,459.629l20.664-20.75-11.612-11.66-9.052,9.089L600,418.128Zm5.122,0,6.49-6.521,18.1,18.181,9.052-9.089,6.493,6.518L618.1,454.487Zm-68.5,9.1,29.7,29.164,11.71-10.975-9.12-8.852,9.031-9.372-20.643-20.73Zm20.68-15.624,15.563,15.63-9.073,9.414,8.985,8.721-6.394,5.993-24.611-24.163Zm-210.76,6.521,29.716,29.839,20.664-20.75L373.7,427.218l-9.052,9.089-18.1-18.179Zm5.12,0,6.492-6.521,18.1,18.181,9.052-9.089,6.493,6.518-15.545,15.608Zm-68.5,9.1,29.7,29.164,11.71-10.975-9.12-8.852,9.031-9.372-20.646-20.73Zm20.677-15.624,15.565,15.63-9.073,9.414,8.985,8.721-6.395,5.993L276.7,438.864ZM81.47,429.79l29.716,29.839,20.664-20.75-11.612-11.66-9.052,9.089-18.1-18.179Zm5.12,0,6.492-6.521,18.1,18.181,9.052-9.089,6.493,6.518-15.545,15.608Zm-68.5,9.1,29.7,29.164L59.5,457.081l-9.12-8.852,9.032-9.372-20.646-20.73Zm20.678-15.624L54.334,438.9l-9.073,9.414,8.985,8.721-6.394,5.993L23.241,438.864Zm911.7,24.7,11.612,11.66,11.612-11.66-11.612-11.661Zm5.119,0,6.493-6.519,6.493,6.519-6.493,6.518Zm-131.85,0,29.716,29.84,11.615-11.661-29.716-29.839Zm5.122,0,6.493-6.519,24.594,24.7-6.493,6.521Zm-131.85,0,11.612,11.66,11.612-11.66-11.612-11.661Zm5.119,0,6.493-6.519,6.493,6.519-6.493,6.518Zm-131.85,0L600,477.808l11.612-11.661L581.9,436.307Zm5.122,0,6.49-6.519,24.6,24.7L600,472.667Zm-131.85,0,11.612,11.66,11.612-11.66-11.612-11.661Zm5.119,0,6.493-6.519,6.493,6.519-6.493,6.518Zm-131.85,0,29.716,29.84,11.612-11.661-29.716-29.839Zm5.119,0,6.493-6.519,24.6,24.7-6.493,6.521Zm-131.847,0,11.612,11.66,11.612-11.66-11.612-11.661Zm5.119,0,6.493-6.519,6.493,6.519-6.493,6.518Zm-131.85,0,29.716,29.84,11.613-11.661L74.977,436.307Zm5.12,0,6.492-6.519,24.6,24.7-6.493,6.521Zm857.39,61.057-27.157-27.269-11.612,11.661,38.768,38.929,36.209-36.36,18.708,18.788,20.664-20.75-11.612-11.66-9.052,9.089-7.1-7.123,15.545-15.611,27.157,27.268,11.612-11.658L989.241,445.4Zm63.365-58.486,33.648,33.789-6.492,6.518-27.157-27.268-20.664,20.75,12.216,12.264,9.052-9.089,6.493,6.52-15.545,15.608-18.708-18.785L925.876,527.2l-33.649-33.786,6.493-6.52,27.157,27.271ZM859.349,484.934l11.613,11.659,27.758-27.875,9.052,9.09,11.612-11.661L898.719,445.4Zm5.12,0,34.25-34.4,15.545,15.608-6.493,6.521-9.052-9.089-27.758,27.874ZM672.417,509.026,645.26,481.757l-11.612,11.661,38.768,38.929,36.209-36.36,18.708,18.788L748,494.024l-11.612-11.66-9.052,9.089-7.1-7.123,15.545-15.611,27.157,27.268,11.612-11.658L735.782,445.4Zm63.365-58.486,33.649,33.789-6.493,6.518-27.157-27.268-20.664,20.75,12.216,12.264,9.052-9.089,6.49,6.52-15.542,15.608-18.708-18.785L672.417,527.2l-33.648-33.786,6.492-6.52,27.157,27.271ZM605.888,484.934,617.5,496.593l27.76-27.875,9.052,9.09,11.612-11.661L645.26,445.4Zm5.122,0,34.25-34.4,15.545,15.608-6.493,6.521-9.052-9.089L617.5,491.452ZM411.887,516.1,384.73,488.828l-11.612,11.661,38.768,38.929,43.28-43.431,18.708,18.788,20.664-20.75-11.612-11.66-9.052,9.089-7.1-7.123,15.545-15.611,27.157,27.268,11.612-11.658L482.323,445.4Zm70.437-65.556,33.649,33.789-6.493,6.518-27.157-27.268-20.664,20.75,12.216,12.264,9.052-9.089,6.49,6.52-15.542,15.608-18.708-18.785-43.28,43.429-33.648-33.786,6.492-6.521,27.157,27.271ZM352.429,484.934l11.612,11.659,27.76-27.875,9.052,9.09,11.612-11.661L391.8,445.4Zm5.122,0,34.25-34.4,15.545,15.608-6.493,6.521-9.052-9.089-27.76,27.874ZM165.5,509.026l-27.157-27.269-11.612,11.661L165.5,532.346l36.209-36.36,18.706,18.788,20.666-20.75-11.614-11.66-9.052,9.089-7.095-7.123,15.545-15.611,27.157,27.268,11.612-11.658L228.865,445.4Zm63.365-58.486,33.646,33.789-6.49,6.518-27.157-27.268L208.2,484.329l12.214,12.264,9.052-9.089,6.492,6.52-15.544,15.608-18.706-18.785L165.5,527.2,131.85,493.418l6.493-6.52L165.5,514.168ZM98.97,484.934l11.612,11.659,27.76-27.875,9.052,9.09,11.612-11.661L138.343,445.4Zm5.119,0,34.253-34.4,15.545,15.608-6.493,6.521-9.052-9.089-27.76,27.874Zm909.749-27.877,38.768,38.929,11.612-11.658L1025.45,445.4Zm11.612-6.518,33.649,33.789-6.493,6.518-33.649-33.789Zm-265.071,6.518,38.768,38.929,11.612-11.658L771.991,445.4Zm11.612-6.518,33.647,33.789-6.49,6.518L765.5,457.058Zm-265.071,6.518,38.768,38.929L557.3,484.329,518.532,445.4Zm11.612-6.518,33.646,33.789-6.49,6.518L512.04,457.058Zm-265.073,6.518,38.768,38.929,11.615-11.658L265.073,445.4Zm11.614-6.518,33.646,33.789-6.493,6.518-33.647-33.789ZM0,457.058l38.768,38.929,11.613-11.658L11.612,445.4Zm5.122,0,6.49-6.518,33.649,33.789-6.493,6.518Zm909.142,27.271,11.612,11.658,29.716-29.839-11.612-11.66Zm5.119,0,24.6-24.7,6.493,6.518-24.6,24.7Zm-258.578,0,11.612,11.658,29.716-29.839-11.612-11.66Zm5.119,0,24.6-24.7,6.493,6.518-24.6,24.7ZM400.275,491.4l11.612,11.659,36.787-36.911-11.612-11.66Zm5.12,0,31.667-31.77,6.493,6.518-31.668,31.771Zm-251.508-7.07L165.5,495.986l29.716-29.839L183.6,454.487Zm5.119,0,24.6-24.7,6.493,6.518-24.6,24.7Zm909.145-9.092,38.768,38.931,11.612-11.661-38.768-38.929Zm5.119,0,6.493-6.519,33.646,33.789-6.49,6.519Zm-258.581,0,38.768,38.931,11.615-11.661L826.3,463.578Zm11.615-6.519,33.646,33.789-6.493,6.519-33.646-33.789Zm-265.073,6.519L600,514.168l11.612-11.661-38.768-38.929Zm11.612-6.519,33.649,33.789L600,509.026l-33.647-33.789Zm-265.071,6.519,38.768,38.931,11.613-11.661-38.769-38.929Zm11.612-6.519,33.649,33.789-6.493,6.519-33.648-33.789ZM54.313,475.237l38.768,38.931,11.613-11.661L65.925,463.578Zm11.612-6.519,33.649,33.789-6.493,6.519L59.433,475.237Zm966.018,60.451,11.612,11.66,27.157-27.268,18.1,18.179,11.612-11.66-29.716-29.84Zm5.119,0,33.649-33.789,24.594,24.7-6.49,6.521-18.1-18.182-27.157,27.271Zm-258.578,0L790.1,540.83l27.157-27.268,18.1,18.179,11.612-11.66-29.716-29.84Zm38.768-33.789,24.594,24.7-6.49,6.521-18.1-18.182L790.1,535.69l-6.493-6.521Zm-292.23,33.789,11.615,11.66,27.157-27.268,18.1,18.179,11.615-11.66-29.716-29.84Zm38.771-33.789,24.594,24.7L581.9,526.6l-18.1-18.182L536.637,535.69l-6.493-6.521Zm-292.23,33.789,11.612,11.66,27.157-27.268,18.1,18.179,11.612-11.66-29.716-29.84Zm38.768-33.789,24.6,24.7-6.493,6.521-18.1-18.182L283.175,535.69l-6.49-6.521ZM18.1,529.169l11.612,11.66,27.157-27.268,18.1,18.179L86.59,520.08l-29.717-29.84Zm38.768-33.789,24.6,24.7L74.977,526.6l-18.1-18.182L29.716,535.69l-6.49-6.521ZM1015.931,509l-8.548-9.1L995.72,511.61l20.054,19.7,30.364-28.914-11.619-11.861Zm18.553-13.309,6.488,6.623-25.157,23.958-14.947-14.684,6.44-6.466,8.535,9.082ZM762.472,509l-8.548-9.1L742.261,511.61l20.054,19.7L792.679,502.4,781.06,490.539Zm18.553-13.309,6.485,6.623-25.154,23.958-14.947-14.684,6.441-6.466,8.534,9.082ZM509.013,509l-8.548-9.1L488.8,511.61l20.054,19.7L539.22,502.4,527.6,490.539Zm18.553-13.309,6.485,6.623L508.9,526.267,493.95,511.583l6.439-6.466,8.536,9.082ZM255.554,509l-8.548-9.1L235.341,511.61l20.056,19.7L285.761,502.4l-11.619-11.861Zm18.553-13.309,6.485,6.623-25.156,23.958-14.945-14.684,6.439-6.466,8.536,9.082Zm567.74,43.179,11.612,11.66,27.157-27.268,9.052,9.089,11.612-11.66-20.664-20.75Zm5.122,0,33.646-33.787,15.545,15.608-6.493,6.518-9.052-9.089-27.157,27.271Zm-258.581,0L600,550.526l27.157-27.268,9.052,9.089,11.612-11.66-20.664-20.75Zm5.122,0,33.646-33.787L642.7,520.686l-6.493,6.518-9.052-9.089L600,545.386Zm-512.04,0,11.612,11.66,27.157-27.268,9.052,9.089,11.612-11.66-20.664-20.75Zm5.12,0,33.648-33.787,15.545,15.608L129.29,527.2l-9.052-9.089L93.082,545.386Zm243.389,4.95,11.613,11.66,27.157-27.268L377.8,537.3l11.613-11.66-20.664-20.75Zm5.12,0,33.649-33.787,15.544,15.608-6.493,6.518-9.051-9.089-27.157,27.271Zm570.775,21.654,11.5,12.705,56.311-57.5-11.6-11.649Zm56.211-51.3,6.5,6.529-51.107,52.185-6.6-7.294Zm-309.669,51.3,11.5,12.705,56.309-57.5-11.6-11.649Zm56.21-51.3,6.5,6.529L664.02,572.882l-6.6-7.294Zm-309.669,51.3,11.5,12.705,56.308-57.5-11.6-11.649Zm56.21-51.3,6.5,6.529-51.107,52.185-6.6-7.294ZM145.5,565.469,157,578.174l56.31-57.5-11.6-11.649Zm56.21-51.3,6.5,6.529L157.1,572.882l-6.6-7.294Zm757.666,33.793,29.87,29.831,11.609-11.657-18.125-18.2,6.212-6.453,8.687,9.027,12.333-11.61-21.034-20.776Zm29.579-24.711,15.779,15.584-6.979,6.57-8.813-9.155-11.29,11.728,18.084,18.158-6.5,6.523-24.743-24.711ZM705.915,547.961l29.87,29.831,11.609-11.657-18.125-18.2,6.211-6.453,8.688,9.027L756.5,538.9l-21.034-20.776Zm29.579-24.711,15.779,15.584-6.979,6.57-8.814-9.155-11.289,11.728,18.084,18.158-6.5,6.523-24.743-24.711ZM452.456,547.961l29.87,29.831,11.609-11.657-18.125-18.2,6.211-6.453,8.688,9.027,12.332-11.61-21.033-20.776Zm29.579-24.711,15.779,15.584-6.979,6.57-8.814-9.155-11.289,11.728,18.084,18.158-6.5,6.523-24.744-24.711ZM199,547.961l29.87,29.831,11.609-11.657-18.125-18.2,6.212-6.453,8.687,9.027,12.333-11.61-21.034-20.776Zm29.579-24.711,15.78,15.584-6.98,6.57-8.813-9.155-11.29,11.728,18.084,18.158-6.5,6.523-24.743-24.711Zm820.943,23.984,11.443,13.4,21.309-21.741-11.5-12.318Zm21.128-15.473,6.6,7.073-16.106,16.435-6.66-7.8ZM796.061,547.234l11.443,13.4L828.813,538.9l-11.5-12.318Zm21.128-15.473,6.6,7.073-16.106,16.435-6.66-7.8ZM542.6,547.234l11.443,13.4L575.354,538.9l-11.5-12.318Zm21.128-15.473,6.6,7.073-16.106,16.435-6.66-7.8ZM289.143,547.234l11.443,13.4L321.895,538.9l-11.5-12.318Zm21.127-15.473,6.606,7.073-16.106,16.435-6.66-7.8ZM35.681,547.234l11.445,13.4L68.436,538.9l-11.5-12.318Zm21.129-15.473,6.6,7.073-16.1,16.435-6.66-7.8Zm839.349,7.1,11.612,11.66,11.612-11.66L907.772,527.2Zm5.119,0,6.493-6.519,6.493,6.519-6.493,6.521Zm-258.578,0,11.612,11.66,11.612-11.66L654.313,527.2Zm5.119,0,6.493-6.519,6.493,6.519-6.493,6.521Zm-512.037,0,11.612,11.66,11.612-11.66L147.395,527.2Zm5.119,0,6.493-6.519,6.493,6.519-6.493,6.521Zm243.39,4.95,11.612,11.66,11.613-11.66L395.9,532.154Zm5.12,0L395.9,537.3l6.493,6.519-6.493,6.521ZM850.9,566.136l11.612,11.66,18.1-18.181,9.052,9.089,11.612-11.659L880.615,536.3Zm29.716-24.7,15.545,15.61-6.493,6.519-9.052-9.09-18.1,18.179-6.49-6.518Zm-283.175,24.7,11.612,11.66,18.1-18.181,9.052,9.089,11.612-11.659L627.156,536.3Zm29.716-24.7,15.545,15.61-6.493,6.519-9.052-9.09-18.1,18.179-6.493-6.518Zm-283.175,24.7,11.612,11.66,18.1-18.181,9.052,9.089,11.612-11.659L373.7,536.3Zm29.716-24.7,15.545,15.61-6.493,6.519-9.052-9.09-18.1,18.179-6.493-6.518Zm-283.175,24.7,11.612,11.66,18.1-18.181,9.052,9.089L140.9,557.046,120.238,536.3Zm29.716-24.7,15.545,15.61-6.493,6.519-9.052-9.09-18.1,18.179-6.492-6.518ZM1004.5,557.018l8.8,9.139-8.509,9.155,12.253,11.534,18.043-18.139,8.411,8.464,11.623-11.33-29.825-29.534Zm20.8-15.6,24.641,24.4-6.406,6.245-8.448-8.5-18.128,18.221-7.057-6.644,8.388-9.026-8.7-9.04Zm-274.26,15.6,8.8,9.139-8.509,9.155,12.253,11.534,18.044-18.139,8.41,8.464,11.622-11.33-29.823-29.534Zm20.8-15.6,24.641,24.4-6.407,6.245-8.448-8.5L763.5,581.783l-7.06-6.644,8.39-9.026-8.7-9.04Zm-274.261,15.6,8.8,9.139-8.509,9.155,12.254,11.534,18.044-18.139,8.411,8.464,11.622-11.33-29.823-29.534Zm20.8-15.6,24.64,24.4-6.406,6.245-8.448-8.5-18.127,18.221-7.06-6.644,8.39-9.026-8.7-9.04Zm-274.261,15.6,8.8,9.139-8.509,9.155,12.253,11.534,18.044-18.139,8.41,8.464,11.622-11.33-29.823-29.534Zm20.8-15.6,24.641,24.4-6.407,6.245-8.448-8.5-18.127,18.221-7.06-6.644,8.39-9.026-8.7-9.04Zm802.623,25.32,11.612,11.659,21.268-21.354-11.612-11.66Zm21.268-16.216,6.49,6.521-16.146,16.214-6.493-6.518ZM814.089,566.742,825.7,578.4l21.268-21.354-11.612-11.66Zm21.268-16.216,6.49,6.521L825.7,573.26l-6.493-6.518ZM560.63,566.742,572.242,578.4l21.268-21.354L581.9,545.386ZM581.9,550.526l6.493,6.521L572.242,573.26l-6.493-6.518ZM307.168,566.742,318.783,578.4l21.265-21.354-11.612-11.66Zm21.268-16.216,6.493,6.521L318.783,573.26l-6.493-6.518ZM53.709,566.742,65.321,578.4,86.59,557.046l-11.613-11.66Zm21.268-16.216,6.493,6.521L65.321,573.26l-6.49-6.518Zm865.84,15,30.32,30.446,11.612-11.661-30.32-30.445Zm11.612-6.521,25.2,25.305-6.493,6.519-25.2-25.3Zm-265.071,6.521,30.32,30.446,11.612-11.661-30.32-30.445Zm11.612-6.521,25.2,25.305-6.493,6.519-25.2-25.3ZM433.9,565.529l30.32,30.446,11.612-11.661-30.32-30.445Zm11.612-6.521,25.2,25.305-6.493,6.519-25.2-25.3ZM180.44,565.529l30.32,30.446,11.612-11.661-30.32-30.445Zm11.612-6.521,25.2,25.305-6.493,6.519-25.2-25.3Zm851.5,31.824-9.052-9.09L1022.891,593.4l47.821,48.019,29.737-29.861-11.644-11.3-18.084,17.855-15.574-15.64,6.513-6.758,9.031,9.371,11.633-11.681-20.664-20.75Zm18.1-13.036L1077.2,593.4l-6.472,6.5-9.073-9.414-11.594,12.028,20.634,20.72,18.125-17.9,6.46,6.27-24.574,24.676-42.7-42.878,6.493-6.519,9.052,9.09Zm-165.5,33.787,11.612,11.66,27.157-27.268,18.1,18.179,11.612-11.661-29.716-29.839Zm5.119,0L934.928,577.8l24.6,24.7-6.493,6.521-18.1-18.181L907.772,618.1Zm-11.612-29.84-9.052-9.089L869,584.314l20.664,20.75,20.665-20.75-11.613-11.66Zm9.052-3.947,6.493,6.518-15.545,15.608-15.545-15.608,6.493-6.518,9.052,9.089ZM790.1,590.833l-9.052-9.09L769.432,593.4l47.821,48.019,29.737-29.861-11.644-11.3-18.084,17.855-15.575-15.64,6.513-6.758,9.029,9.371L828.864,593.4,808.2,572.654ZM808.2,577.8,823.742,593.4l-6.469,6.5-9.073-9.414-11.594,12.028,20.634,20.72,18.125-17.9,6.46,6.27-24.574,24.676-42.7-42.878,6.493-6.519,9.052,9.09ZM642.7,611.583l11.612,11.66,27.157-27.268,18.1,18.179,11.612-11.661-29.716-29.839Zm5.119,0L681.469,577.8l24.6,24.7-6.493,6.521-18.1-18.181L654.313,618.1Zm-11.612-29.84-9.052-9.089-11.612,11.66,20.664,20.75,20.664-20.75-11.612-11.66Zm9.052-3.947,6.493,6.518-15.545,15.608-15.544-15.608,6.492-6.518,9.052,9.089ZM536.637,590.833l-9.052-9.09L515.973,593.4l47.821,48.019,29.737-29.861-11.644-11.3L563.8,618.113l-15.574-15.64,6.513-6.758,9.029,9.371L575.405,593.4l-20.664-20.75Zm18.1-13.036L570.283,593.4l-6.469,6.5-9.073-9.414-11.594,12.028,20.634,20.72,18.125-17.9,6.46,6.27-24.574,24.676-42.7-42.878,6.493-6.519,9.052,9.09Zm-165.5,33.787,11.612,11.66,27.157-27.268,18.1,18.179,11.612-11.661L428.01,572.654Zm5.119,0L428.01,577.8l24.6,24.7-6.493,6.521-18.1-18.181L400.854,618.1Zm-11.612-29.84-9.052-9.089-11.612,11.66,20.664,20.75,20.664-20.75L391.8,572.654ZM391.8,577.8l6.493,6.518-15.545,15.608L367.2,584.314,373.7,577.8l9.052,9.089ZM283.175,590.833l-9.049-9.09L262.511,593.4l47.821,48.019,29.74-29.861-11.644-11.3-18.084,17.855-15.574-15.64,6.511-6.758,9.032,9.371L321.944,593.4l-20.665-20.75Zm18.1-13.036L316.824,593.4l-6.469,6.5-9.076-9.414-11.591,12.028,20.634,20.72,18.125-17.9,6.46,6.27-24.576,24.676-42.7-42.878,6.493-6.519,9.049,9.09Zm-165.5,33.787,11.612,11.66,27.157-27.268,18.1,18.179,11.612-11.661-29.716-29.839Zm5.119,0L174.551,577.8l24.6,24.7-6.493,6.521-18.1-18.181L147.395,618.1Zm-11.612-29.84-9.052-9.089-11.612,11.66,20.664,20.75,20.664-20.75-11.612-11.66Zm9.052-3.947,6.493,6.518L129.29,599.922l-15.544-15.608,6.492-6.518,9.052,9.089ZM29.716,590.833l-9.052-9.09L9.052,593.4l47.821,48.019,29.74-29.861-11.644-11.3L56.885,618.113,41.31,602.473l6.511-6.758,9.032,9.371L68.486,593.4l-20.665-20.75Zm18.1-13.036L63.365,593.4l-6.471,6.5-9.074-9.414L36.23,602.515l20.634,20.72,18.125-17.9,6.458,6.27L56.873,636.282,14.174,593.4l6.49-6.519,9.052,9.09ZM833.4,584.921l20.06,20.144,11.615-11.66L845.01,573.26Zm5.12,0,6.492-6.521,14.941,15-6.493,6.518Zm-258.579,0L600,605.065l11.612-11.66-20.06-20.145Zm5.12,0,6.492-6.521,14.941,15L600,599.922Zm-258.579,0,20.06,20.144,11.612-11.66-20.06-20.145Zm5.12,0,6.492-6.521,14.941,15-6.493,6.518Zm-258.579,0,20.06,20.144,11.613-11.66L84.633,573.26Zm5.12,0,6.492-6.521,14.941,15-6.493,6.518Zm872.331,44.843,11.612,11.659,36.209-36.358,18.1,18.179,11.612-11.661-29.716-29.84Zm5.119,0,42.7-42.879,24.6,24.7-6.493,6.52-18.1-18.181-36.209,36.36Zm-258.578,0,11.612,11.659,36.209-36.358,18.1,18.179,11.612-11.661-29.716-29.84Zm5.119,0,42.7-42.879,24.6,24.7-6.493,6.52-18.1-18.181-36.209,36.36Zm-258.578,0,11.612,11.659,36.209-36.358,18.1,18.179,11.612-11.661-29.716-29.84Zm5.119,0,42.7-42.879,24.6,24.7-6.493,6.52-18.1-18.181-36.209,36.36Zm-258.578,0,11.612,11.659,36.209-36.358,18.1,18.179,11.612-11.661-29.716-29.84Zm5.119,0,42.7-42.879,24.594,24.7-6.49,6.52-18.1-18.181-36.209,36.36Zm664.736-18.182,29.716,29.84,11.612-11.659-29.716-29.842Zm5.122,0,6.49-6.518,24.6,24.7-6.493,6.518Zm-258.581,0,29.716,29.84,11.612-11.659L618.1,599.922Zm5.119,0,6.493-6.518,24.6,24.7-6.493,6.518Zm-258.578,0,29.716,29.84,11.612-11.659-29.716-29.842Zm5.119,0,6.493-6.518,24.6,24.7-6.493,6.518Zm-258.578,0,29.716,29.84L140.9,629.764l-29.716-29.842Zm5.119,0,6.493-6.518,24.6,24.7-6.493,6.518Zm818.623,9.09,11.612,11.66,11.612-11.66-11.612-11.659Zm5.119,0,6.493-6.518,6.493,6.518-6.493,6.521Zm-258.578,0,11.612,11.66,11.612-11.66-11.612-11.659Zm5.119,0,6.493-6.518,6.493,6.518-6.493,6.521Zm-258.578,0,11.612,11.66,11.612-11.66L428.01,609.014Zm5.119,0,6.493-6.518,6.493,6.518-6.493,6.521Zm-258.578,0,11.612,11.66,11.612-11.66-11.612-11.659Zm5.119,0,6.493-6.518,6.493,6.518-6.493,6.521Zm848.339,15.61-18.1-18.178-11.612,11.66,18.1,18.179-6.493,6.518-18.1-18.179-11.612,11.661,29.716,29.839,47.821-48.019L1034.5,618.1Zm18.1-13.038,6.493,6.521-42.7,42.876-24.6-24.7,6.493-6.521,18.1,18.181,11.612-11.66-18.1-18.179,6.492-6.521,18.1,18.179ZM762.939,636.282l-18.1-18.178-11.612,11.66,18.1,18.179-6.493,6.518-18.1-18.179-11.612,11.661,29.716,29.839,47.821-48.019L781.043,618.1Zm18.1-13.038,6.493,6.521-42.7,42.876-24.6-24.7,6.493-6.521,18.1,18.181,11.612-11.66-18.1-18.179,6.493-6.521,18.1,18.179ZM509.48,636.282l-18.1-18.178-11.612,11.66,18.1,18.179-6.493,6.518-18.1-18.179-11.612,11.661,29.716,29.839L539.2,629.764,527.585,618.1Zm18.1-13.038,6.49,6.521-42.7,42.876-24.6-24.7,6.493-6.521,18.1,18.181,11.612-11.66-18.1-18.179,6.493-6.521,18.1,18.179ZM256.021,636.282l-18.1-18.178-11.612,11.66,18.1,18.179-6.49,6.518-18.1-18.179L208.2,647.943l29.716,29.839,47.821-48.019L274.126,618.1Zm18.1-13.038,6.49,6.521-42.7,42.876-24.6-24.7,6.493-6.521,18.1,18.181,11.612-11.66-18.1-18.179,6.493-6.521,18.1,18.179Zm549.617,24.7,20.664,20.75,11.615-11.66-9.052-9.089,17.5-17.573-11.612-11.66Zm5.122,0,23.993-24.094,6.493,6.521-17.5,17.573,9.052,9.089-6.493,6.518Zm-258.581,0,20.664,20.75,11.612-11.66-9.049-9.089,17.5-17.573L599.4,618.71Zm5.122,0L599.4,623.849l6.49,6.521-17.5,17.573,9.052,9.089-6.493,6.518Zm-258.581,0,20.664,20.75,11.612-11.66-9.051-9.089,17.5-17.573-11.615-11.66Zm5.119,0,23.993-24.094,6.493,6.521-17.5,17.573,9.052,9.089-6.493,6.518Zm-258.578,0,20.664,20.75,11.613-11.66-9.052-9.089,17.5-17.573L92.478,618.71Zm5.12,0,23.992-24.094,6.493,6.521-17.5,17.573,9.052,9.089-6.493,6.518Zm827.674,0,11.612,11.66,20.664-20.75-11.612-11.66Zm5.119,0,15.545-15.61,6.493,6.521-15.545,15.608Zm-258.578,0,11.612,11.66,20.664-20.75-11.612-11.66Zm5.119,0,15.545-15.61,6.493,6.521-15.545,15.608Zm-258.578,0,11.612,11.66,20.664-20.75-11.612-11.66Zm5.119,0,15.545-15.61,6.493,6.521-15.545,15.608Zm-258.578,0,11.612,11.66,20.664-20.75-11.612-11.66Zm5.119,0,15.545-15.61,6.493,6.521-15.545,15.608Zm900.093,0,38.164,38.323,11.612-11.661-38.165-38.323Zm5.119,0,6.493-6.521,33.045,33.182-6.493,6.521Zm-131.85,18.178,11.612,11.661,18.1-18.179,36.209,36.358L991.8,684.3,943.98,636.282Zm5.119,0,24.6-24.7,42.7,42.878-6.493,6.521-36.209-36.36-18.1,18.179Zm-59.432-18.178L869,657.032l-9.052,9.089,11.612,11.661,20.664-20.75-20.664-20.75Zm5.122,18.178,9.049-9.089-9.049-9.089,6.49-6.521,15.545,15.61L871.563,672.64Zm-77.537-18.178L825.7,686.266,837.312,674.6l-38.164-38.323Zm11.612-6.521L832.193,674.6l-6.493,6.521-33.045-33.182Zm-138.343,24.7,11.612,11.661,18.1-18.179,36.209,36.358L738.342,684.3l-47.821-48.019Zm5.119,0,24.6-24.7,42.7,42.878-6.493,6.521-36.209-36.36-18.1,18.179Zm-59.432-18.178,9.052,9.089-9.052,9.089L618.1,677.783l20.664-20.75L618.1,636.282Zm5.119,18.178,9.052-9.089-9.052-9.089,6.493-6.521,15.545,15.61L618.1,672.64Zm-77.537-18.178,38.167,38.323L583.853,674.6l-38.165-38.323Zm11.615-6.521L578.734,674.6l-6.493,6.521L539.2,647.943Zm-138.343,24.7,11.612,11.661,18.1-18.179,36.209,36.358L484.883,684.3l-47.821-48.019Zm5.119,0,24.6-24.7,42.7,42.878-6.493,6.521-36.209-36.36-18.1,18.179Zm-59.432-18.178,9.052,9.089-9.052,9.089,11.612,11.661,20.664-20.75-20.664-20.75Zm5.119,18.178,9.052-9.089-9.052-9.089,6.493-6.521,15.545,15.61L364.645,672.64Zm-77.537-18.178,38.167,38.323L330.395,674.6l-38.167-38.323Zm11.612-6.521L325.273,674.6l-6.49,6.521-33.045-33.182Zm-138.34,24.7L165.5,677.783,183.6,659.6l36.209,36.358L231.424,684.3,183.6,636.282Zm5.119,0,24.6-24.7,42.7,42.878-6.493,6.521L183.6,654.461,165.5,672.64ZM99.574,647.943l9.052,9.089-9.052,9.089,11.612,11.661,20.664-20.75-20.664-20.75Zm5.119,18.178,9.052-9.089-9.052-9.089,6.493-6.521,15.545,15.61L111.186,672.64ZM27.157,647.943l38.165,38.323L76.936,674.6,38.768,636.282Zm11.612-6.521L71.814,674.6l-6.493,6.521L32.277,647.943Zm956.966,51.968,11.612,11.66,38.768-38.93-11.612-11.66Zm5.119,0L1034.5,659.6l6.493,6.518-33.649,33.79Zm-258.578,0,11.612,11.66,38.768-38.93-11.612-11.66Zm5.119,0L781.043,659.6l6.492,6.518-33.648,33.79Zm-258.578,0,11.612,11.66,38.768-38.93-11.612-11.66Zm5.119,0L527.585,659.6l6.49,6.518-33.647,33.79Zm-258.578,0,11.612,11.66,38.768-38.93-11.612-11.66Zm5.119,0L274.126,659.6l6.49,6.518-33.646,33.79Zm646.631-18.179,38.768,38.929L955.592,684.3,943.98,672.64l-18.1,18.181L898.719,663.55Zm5.119,0,6.493-6.518,27.157,27.268,18.1-18.179,6.493,6.518-24.6,24.7Zm-258.578,0,38.768,38.929L702.133,684.3l-11.612-11.66-18.1,18.181L645.26,663.55Zm5.12,0,6.492-6.518,27.157,27.268,18.1-18.179,6.493,6.518-24.6,24.7Zm-258.579,0,38.768,38.929L448.674,684.3l-11.612-11.66-18.1,18.181L391.8,663.55Zm5.119,0,6.493-6.518,27.157,27.268,18.1-18.179,6.493,6.518-24.6,24.7Zm-258.578,0L165.5,714.14,195.215,684.3,183.6,672.64l-18.1,18.181L138.343,663.55Zm5.119,0,6.493-6.518L165.5,695.962l18.1-18.179L190.1,684.3,165.5,709Zm900.078,18.2,29.7,29.161,11.71-10.973-9.12-8.854,9.031-9.369-20.643-20.732Zm5.15-.031,15.529-15.593,15.563,15.629-9.073,9.416,8.985,8.721-6.394,5.994ZM841.847,684.3l29.716,29.839,20.664-20.749-11.612-11.659-9.052,9.089-18.1-18.181Zm5.122,0,6.49-6.518,18.1,18.179,9.052-9.09,6.493,6.519L871.563,709Zm-68.5,9.106,29.7,29.161,11.71-10.973-9.12-8.854,9.031-9.369L799.148,672.64Zm20.678-15.624,15.563,15.629-9.073,9.416,8.985,8.721-6.394,5.994-24.611-24.166ZM588.388,684.3,618.1,714.14l20.664-20.749-11.612-11.659-9.052,9.089L600,672.64Zm5.122,0,6.49-6.518,18.1,18.179,9.052-9.09,6.493,6.519L618.1,709Zm-68.5,9.106,29.7,29.161,11.71-10.973-9.12-8.854,9.031-9.369L545.689,672.64Zm20.68-15.624,15.563,15.629-9.073,9.416,8.985,8.721-6.394,5.994-24.611-24.166ZM334.929,684.3l29.716,29.839,20.664-20.749L373.7,681.732l-9.052,9.089-18.1-18.181Zm5.12,0,6.492-6.518,18.1,18.179,9.052-9.09,6.493,6.519L364.645,709Zm-68.5,9.106,29.7,29.161,11.71-10.973-9.12-8.854,9.031-9.369L292.227,672.64Zm20.677-15.624,15.565,15.629-9.073,9.416,8.985,8.721-6.395,5.994L276.7,693.376ZM81.47,684.3l29.716,29.839,20.664-20.749-11.612-11.659-9.052,9.089-18.1-18.181Zm5.12,0,6.492-6.518,18.1,18.179,9.052-9.09,6.493,6.519L111.186,709Zm-68.5,9.106,29.7,29.161L59.5,711.595l-9.12-8.854,9.032-9.369L38.768,672.64Zm20.678-15.624,15.566,15.629-9.073,9.416,8.985,8.721-6.394,5.994L23.241,693.376Zm911.7,24.7,11.612,11.658L973.7,702.482l-11.612-11.661Zm5.119,0,6.493-6.521,6.493,6.521L962.085,709Zm-131.85,0,29.716,29.84,11.615-11.661-29.716-29.839Zm5.122,0,6.493-6.521,24.594,24.7-6.493,6.519Zm-131.85,0,11.612,11.658,11.612-11.658-11.612-11.661Zm5.119,0,6.493-6.521,6.493,6.521L708.626,709Zm-131.85,0L600,732.322l11.612-11.661L581.9,690.821Zm5.122,0,6.49-6.521,24.6,24.7L600,727.179Zm-131.85,0,11.612,11.658,11.612-11.658-11.612-11.661Zm5.119,0,6.493-6.521,6.493,6.521L455.167,709Zm-131.85,0,29.716,29.84,11.612-11.661-29.716-29.839Zm5.119,0,6.493-6.521,24.6,24.7-6.493,6.519Zm-131.847,0,11.612,11.658,11.612-11.658-11.612-11.661Zm5.119,0,6.493-6.521,6.493,6.521L201.708,709Zm-131.85,0,29.716,29.84,11.613-11.661L74.977,690.821Zm5.12,0,6.492-6.521,24.6,24.7-6.493,6.519Zm945.353,9.089,38.768,38.93,11.612-11.661-38.768-38.929Zm11.612-6.52L1059.1,738.84l-6.493,6.521-33.649-33.789Zm-99.574,58.488-27.157-27.271-11.612,11.66,38.768,38.93L962.085,750.5l18.708,18.785,20.664-20.75-11.612-11.66-9.052,9.089-7.1-7.124,15.545-15.608L1016.4,750.5l11.612-11.661-38.768-38.929Zm63.365-58.488,33.648,33.789-6.492,6.521-27.157-27.271-20.664,20.75,12.216,12.267,9.052-9.089,6.493,6.518-15.545,15.61L962.085,745.36l-36.209,36.358-33.649-33.79,6.493-6.518,27.157,27.268Zm-129.893,34.4,11.613,11.66,27.758-27.875,9.052,9.09,11.612-11.661-20.664-20.75Zm5.12,0,34.25-34.4,15.545,15.61-6.493,6.519-9.052-9.09-27.758,27.875ZM760.379,711.572l38.768,38.93L810.76,738.84l-38.768-38.929Zm11.612-6.52,33.647,33.789-6.49,6.521L765.5,711.572Zm-99.574,58.488L645.26,736.268l-11.612,11.66,38.768,38.93L708.626,750.5l18.708,18.785L748,748.536l-11.612-11.66-9.052,9.089-7.1-7.124,15.545-15.608L762.939,750.5l11.612-11.661-38.768-38.929Zm63.365-58.488,33.649,33.789-6.493,6.521-27.157-27.271-20.664,20.75,12.216,12.267,9.052-9.089,6.49,6.518-15.542,15.61L708.626,745.36l-36.209,36.358-33.648-33.79,6.492-6.518,27.157,27.268Zm-129.894,34.4,11.612,11.66,27.76-27.875,9.052,9.09,11.612-11.661-20.664-20.75Zm5.122,0,34.25-34.4,15.545,15.61-6.493,6.519-9.052-9.09L617.5,745.964Zm-104.09-27.875,38.768,38.93L557.3,738.84l-38.768-38.929Zm11.612-6.52,33.646,33.789-6.49,6.521L512.04,711.572Zm-99.574,58.488L391.8,736.268l-11.612,11.66,38.768,38.93L455.167,750.5l18.708,18.785,20.664-20.75-11.612-11.66-9.052,9.089-7.1-7.124,15.545-15.608L509.48,750.5l11.612-11.661-38.768-38.929Zm63.365-58.488,33.649,33.789-6.493,6.521-27.157-27.271-20.664,20.75,12.216,12.267,9.052-9.089,6.49,6.518-15.542,15.61L455.167,745.36l-36.209,36.358-33.649-33.79,6.493-6.518,27.157,27.268Zm-129.894,34.4,11.612,11.66,27.76-27.875,9.052,9.09,11.612-11.661L391.8,699.911Zm5.122,0,34.25-34.4,15.545,15.61-6.493,6.519-9.052-9.09-27.76,27.875ZM253.459,711.572l38.768,38.93,11.615-11.661-38.768-38.929Zm11.614-6.52L298.72,738.84l-6.493,6.521-33.647-33.789ZM165.5,763.539l-27.157-27.271-11.612,11.66,38.768,38.93L201.708,750.5l18.706,18.785,20.666-20.75-11.614-11.66-9.052,9.089-7.095-7.124,15.545-15.608L256.021,750.5l11.612-11.661-38.768-38.929Zm63.365-58.488,33.646,33.789-6.49,6.521-27.157-27.271L208.2,738.84l12.214,12.267,9.052-9.089,6.492,6.518-15.544,15.61L201.708,745.36,165.5,781.719l-33.649-33.79,6.493-6.518L165.5,768.679ZM98.97,739.446l11.612,11.66,27.76-27.875,9.052,9.09,11.612-11.661-20.664-20.75Zm5.119,0,34.253-34.4,15.545,15.61-6.493,6.519-9.052-9.09-27.76,27.875ZM0,711.572,38.768,750.5,50.381,738.84,11.612,699.911Zm5.122,0,6.49-6.52L45.261,738.84l-6.493,6.521ZM914.264,738.84,925.876,750.5l29.716-29.84L943.98,709Zm5.119,0,24.6-24.7,6.493,6.521-24.6,24.7Zm-258.578,0L672.417,750.5l29.716-29.84L690.521,709Zm5.119,0,24.6-24.7,6.493,6.521-24.6,24.7Zm-258.578,0L418.958,750.5l29.716-29.84L437.063,709Zm5.119,0,24.6-24.7,6.493,6.521-24.6,24.7Zm-258.578,0L165.5,750.5l29.716-29.84L183.6,709Zm5.119,0,24.6-24.7,6.493,6.521-24.6,24.7Zm909.145-9.089,38.768,38.929,11.612-11.66-38.768-38.93Zm5.119,0,6.493-6.519,33.646,33.787-6.49,6.52Zm-258.581,0,38.768,38.929,11.615-11.66L826.3,718.089Zm11.615-6.519,33.646,33.787-6.493,6.52-33.646-33.789Zm-265.073,6.519L600,768.679l11.612-11.66-38.768-38.93Zm11.612-6.519,33.649,33.787L600,763.539l-33.647-33.789Zm-265.071,6.519,38.768,38.929,11.613-11.66-38.769-38.93Zm11.612-6.519,33.649,33.787-6.493,6.52-33.648-33.789ZM54.313,729.751l38.768,38.929,11.613-11.66-38.769-38.93Zm11.612-6.519,33.649,33.787-6.493,6.52L59.433,729.751Zm966.018,60.451,11.612,11.661,27.157-27.271,18.1,18.181,11.612-11.66-29.716-29.84Zm5.119,0,33.649-33.789,24.594,24.7-6.49,6.518-18.1-18.179L1043.555,790.2Zm-258.578,0L790.1,795.344l27.157-27.271,18.1,18.181,11.612-11.66-29.716-29.84Zm38.768-33.789,24.594,24.7-6.49,6.518-18.1-18.179L790.1,790.2l-6.493-6.518Zm-292.23,33.789,11.615,11.661,27.157-27.271,18.1,18.181,11.615-11.66-29.716-29.84Zm38.771-33.789,24.594,24.7-6.493,6.518-18.1-18.179L536.637,790.2l-6.493-6.518Zm-292.23,33.789,11.612,11.661,27.157-27.271,18.1,18.181,11.612-11.66-29.716-29.84Zm38.768-33.789,24.6,24.7-6.493,6.518-18.1-18.179L283.175,790.2l-6.49-6.518ZM18.1,783.683l11.612,11.661,27.157-27.271,18.1,18.181,11.613-11.66-29.717-29.84Zm38.768-33.789,24.6,24.7-6.493,6.518-18.1-18.179L29.716,790.2l-6.49-6.518Zm959.058,13.614-8.548-9.1L995.72,766.122l20.054,19.706,30.364-28.916-11.619-11.859Zm18.553-13.309,6.488,6.623-25.157,23.958-14.947-14.686,6.44-6.467,8.535,9.083ZM762.472,763.509l-8.548-9.1-11.663,11.713,20.054,19.706,30.364-28.916L781.06,745.052ZM781.025,750.2l6.485,6.623-25.154,23.958-14.947-14.686,6.441-6.467,8.534,9.083ZM509.013,763.509l-8.548-9.1L488.8,766.122l20.054,19.706,30.364-28.916L527.6,745.052ZM527.566,750.2l6.485,6.623L508.9,780.781,493.95,766.094l6.439-6.467,8.536,9.083ZM255.554,763.509l-8.548-9.1-11.665,11.713L255.4,785.828l30.364-28.916-11.619-11.859ZM274.107,750.2l6.485,6.623-25.156,23.958-14.945-14.686,6.439-6.467,8.536,9.083Zm567.74,43.179,11.612,11.66,27.157-27.27,9.052,9.089L901.279,775.2l-20.664-20.75Zm5.122,0,33.646-33.789L896.16,775.2l-6.493,6.518-9.052-9.089L853.458,799.9Zm-258.581,0L600,805.039l27.157-27.27,9.052,9.089L647.82,775.2l-20.664-20.75Zm5.122,0,33.646-33.789L642.7,775.2l-6.493,6.518-9.052-9.089L600,799.9Zm-258.581,0,11.612,11.66,27.157-27.27,9.052,9.089L394.361,775.2,373.7,754.449Zm5.12,0L373.7,759.59l15.545,15.61-6.493,6.518-9.052-9.089L346.54,799.9Zm-258.579,0,11.612,11.66,27.157-27.27,9.052,9.089L140.9,775.2l-20.664-20.75Zm5.12,0,33.648-33.789,15.545,15.61-6.493,6.518-9.052-9.089L93.082,799.9Zm819.284,26.6,11.5,12.7,56.311-57.5-11.6-11.649Zm56.211-51.3,6.5,6.53L917.479,827.4l-6.6-7.294Zm-309.669,51.3,11.5,12.7,56.309-57.5-11.6-11.649Zm56.21-51.3,6.5,6.53L664.02,827.4l-6.6-7.294Zm-309.669,51.3,11.5,12.7,56.308-57.5-11.6-11.649Zm56.21-51.3,6.5,6.53L410.561,827.4l-6.6-7.294ZM145.5,819.983l11.5,12.7,56.31-57.5-11.6-11.649Zm56.21-51.3,6.5,6.53L157.1,827.4l-6.6-7.294Zm757.666,33.8,29.87,29.83,11.609-11.659-18.125-18.2,6.212-6.453,8.687,9.024,12.333-11.609-21.034-20.774Zm29.579-24.71,15.779,15.582-6.979,6.572-8.813-9.155L977.65,802.49l18.084,18.157-6.5,6.523-24.743-24.709Zm-283.038,24.71,29.87,29.83,11.609-11.659-18.125-18.2,6.211-6.453,8.688,9.024L756.5,793.409l-21.034-20.774Zm29.579-24.71,15.779,15.582-6.979,6.572-8.814-9.155L724.191,802.49l18.084,18.157-6.5,6.523-24.743-24.709Zm-283.038,24.71,29.87,29.83,11.609-11.659-18.125-18.2,6.211-6.453,8.688,9.024,12.332-11.609-21.033-20.774Zm29.579-24.71,15.779,15.582-6.979,6.572-8.814-9.155L470.732,802.49l18.084,18.157-6.5,6.523-24.744-24.709ZM199,802.475l29.87,29.83,11.609-11.659-18.125-18.2,6.212-6.453,8.687,9.024,12.333-11.609-21.034-20.774Zm29.579-24.71,15.78,15.582-6.98,6.572-8.813-9.155-11.29,11.726,18.084,18.157-6.5,6.523-24.743-24.709Zm820.943,23.98,11.443,13.407,21.309-21.743-11.5-12.318Zm21.128-15.472,6.6,7.075-16.106,16.433-6.66-7.8ZM796.061,801.745,807.5,815.153l21.309-21.743-11.5-12.318Zm21.128-15.472,6.6,7.075-16.106,16.433-6.66-7.8ZM542.6,801.745l11.443,13.407,21.309-21.743-11.5-12.318Zm21.128-15.472,6.6,7.075-16.106,16.433-6.66-7.8ZM289.143,801.745l11.443,13.407,21.309-21.743-11.5-12.318Zm21.127-15.472,6.606,7.075-16.106,16.433-6.66-7.8ZM35.681,801.745l11.445,13.407,21.309-21.743-11.5-12.318Zm21.129-15.472,6.6,7.075-16.1,16.433-6.66-7.8Zm839.349,7.106,11.612,11.66,11.612-11.66-11.612-11.661Zm5.119,0,6.493-6.521,6.493,6.521-6.493,6.518Zm-258.578,0,11.612,11.66,11.612-11.66-11.612-11.661Zm5.119,0,6.493-6.521,6.493,6.521-6.493,6.518Zm-258.578,0,11.612,11.66,11.612-11.66-11.612-11.661Zm5.119,0,6.493-6.521,6.493,6.521-6.493,6.518Zm-258.578,0,11.612,11.66,11.612-11.66-11.612-11.661Zm5.119,0,6.493-6.521,6.493,6.521-6.493,6.518Zm710,27.268,11.612,11.661,18.1-18.179,9.052,9.089,11.612-11.66-20.664-20.75Zm29.716-24.7,15.545,15.608-6.493,6.521-9.052-9.092-18.1,18.181-6.49-6.521Zm-283.175,24.7,11.612,11.661,18.1-18.179,9.052,9.089,11.612-11.66-20.664-20.75Zm29.716-24.7L642.7,811.558l-6.493,6.521-9.052-9.092-18.1,18.181-6.493-6.521Zm-283.175,24.7,11.612,11.661,18.1-18.179,9.052,9.089,11.612-11.66L373.7,790.808Zm29.716-24.7,15.545,15.608-6.493,6.521-9.052-9.092-18.1,18.181-6.493-6.521Zm-283.175,24.7,11.612,11.661,18.1-18.179,9.052,9.089,11.612-11.66-20.664-20.75Zm29.716-24.7,15.545,15.608-6.493,6.521-9.052-9.092-18.1,18.181-6.492-6.521ZM1004.5,811.53l8.8,9.14-8.509,9.152,12.253,11.535,18.043-18.137,8.411,8.464,11.623-11.33-29.825-29.533Zm20.8-15.594,24.641,24.4-6.406,6.243-8.448-8.5L1016.96,836.3l-7.057-6.645,8.388-9.026-8.7-9.04ZM751.041,811.53l8.8,9.14-8.509,9.152,12.253,11.535,18.044-18.137,8.41,8.464,11.622-11.33-29.823-29.533Zm20.8-15.594,24.641,24.4-6.407,6.243-8.448-8.5L763.5,836.3l-7.06-6.645,8.39-9.026-8.7-9.04ZM497.582,811.53l8.8,9.14-8.509,9.152,12.254,11.535,18.044-18.137,8.411,8.464,11.622-11.33-29.823-29.533Zm20.8-15.594,24.64,24.4-6.406,6.243-8.448-8.5L510.043,836.3l-7.06-6.645,8.39-9.026-8.7-9.04ZM244.123,811.53l8.8,9.14-8.509,9.152,12.253,11.535,18.044-18.137,8.41,8.464,11.622-11.33-29.823-29.533Zm20.8-15.594,24.641,24.4-6.407,6.243-8.448-8.5L256.584,836.3l-7.06-6.645,8.39-9.026-8.7-9.04Zm802.623,25.318,11.612,11.66,21.268-21.356L1088.816,799.9Zm21.268-16.214,6.49,6.519-16.146,16.216-6.493-6.521ZM814.089,821.254l11.612,11.66,21.268-21.356L835.357,799.9Zm21.268-16.214,6.49,6.519L825.7,827.774l-6.493-6.521ZM560.63,821.254l11.612,11.66,21.268-21.356L581.9,799.9ZM581.9,805.039l6.493,6.519-16.146,16.216-6.493-6.521ZM307.168,821.254l11.615,11.66,21.265-21.356L328.436,799.9Zm21.268-16.214,6.493,6.519-16.146,16.216-6.493-6.521ZM53.709,821.254l11.612,11.66L86.59,811.558,74.977,799.9Zm21.268-16.214,6.493,6.519L65.321,827.774l-6.49-6.521Zm865.84,15,30.32,30.445,11.612-11.658-30.32-30.449Zm11.612-6.519,25.2,25.306-6.493,6.518-25.2-25.305Zm-265.071,6.519,30.32,30.445,11.612-11.658L698.97,808.38Zm11.612-6.519,25.2,25.306-6.493,6.518-25.2-25.305ZM433.9,820.041l30.32,30.445,11.612-11.658-30.32-30.449Zm11.612-6.519,25.2,25.306-6.493,6.518-25.2-25.305ZM180.44,820.041l30.32,30.445,11.612-11.658-30.32-30.449Zm11.612-6.519,25.2,25.306-6.493,6.518-25.2-25.305Zm851.5,31.824-9.052-9.089-11.612,11.66,47.821,48.019,29.737-29.861-11.644-11.3-18.084,17.855-15.574-15.64,6.513-6.758,9.031,9.372,11.633-11.682-20.664-20.75Zm18.1-13.038,15.545,15.61-6.472,6.5L1061.659,845l-11.594,12.029,20.634,20.717,18.125-17.9,6.46,6.269L1070.711,890.8l-42.7-42.878,6.493-6.521,9.052,9.089ZM896.16,866.1l11.612,11.66,27.157-27.271,18.1,18.182,11.612-11.661-29.716-29.839Zm5.119,0,33.649-33.789,24.6,24.7-6.493,6.519-18.1-18.179-27.157,27.268Zm-11.612-29.839-9.052-9.09L869,838.829l20.664,20.75,20.665-20.75-11.613-11.661Zm9.052-3.949,6.493,6.521-15.545,15.607-15.545-15.607,6.493-6.521,9.052,9.089ZM790.1,845.347l-9.052-9.089-11.612,11.66,47.821,48.019,29.737-29.861-11.644-11.3-18.084,17.855-15.575-15.64,6.513-6.758,9.029,9.372,11.635-11.682L808.2,827.168Zm18.1-13.038,15.542,15.61-6.469,6.5L808.2,845l-11.594,12.029,20.634,20.717,18.125-17.9,6.46,6.269L817.252,890.8l-42.7-42.878,6.493-6.521,9.052,9.089ZM642.7,866.1l11.612,11.66,27.157-27.271,18.1,18.182,11.612-11.661-29.716-29.839Zm5.119,0,33.649-33.789,24.6,24.7-6.493,6.519-18.1-18.179-27.157,27.268Zm-11.612-29.839-9.052-9.09-11.612,11.661,20.664,20.75,20.664-20.75L645.26,827.168Zm9.052-3.949,6.493,6.521-15.545,15.607-15.544-15.607,6.492-6.521,9.052,9.089ZM536.637,845.347l-9.052-9.089-11.612,11.66,47.821,48.019,29.737-29.861-11.644-11.3L563.8,872.627l-15.574-15.64,6.513-6.758,9.029,9.372,11.635-11.682-20.664-20.75Zm18.1-13.038,15.542,15.61-6.469,6.5L554.741,845l-11.594,12.029,20.634,20.717,18.125-17.9,6.46,6.269L563.793,890.8l-42.7-42.878,6.493-6.521,9.052,9.089ZM389.242,866.1l11.612,11.66,27.157-27.271,18.1,18.182,11.612-11.661L428.01,827.168Zm5.119,0,33.649-33.789,24.6,24.7-6.493,6.519-18.1-18.179-27.157,27.268Zm-11.612-29.839-9.052-9.09-11.612,11.661,20.664,20.75,20.664-20.75L391.8,827.168Zm9.052-3.949,6.493,6.521-15.545,15.607L367.2,838.829l6.493-6.521,9.052,9.089ZM283.175,845.347l-9.049-9.089-11.615,11.66,47.821,48.019,29.74-29.861-11.644-11.3-18.084,17.855-15.574-15.64,6.511-6.758,9.032,9.372,11.633-11.682-20.665-20.75Zm18.1-13.038,15.545,15.61-6.469,6.5L301.279,845l-11.591,12.029,20.634,20.717,18.125-17.9,6.46,6.269L310.332,890.8l-42.7-42.878,6.493-6.521,9.049,9.089ZM135.783,866.1l11.612,11.66,27.157-27.271,18.1,18.182,11.612-11.661-29.716-29.839Zm5.119,0,33.649-33.789,24.6,24.7-6.493,6.519-18.1-18.179-27.157,27.268ZM129.29,836.258l-9.052-9.09-11.612,11.661,20.664,20.75,20.664-20.75-11.612-11.661Zm9.052-3.949,6.493,6.521L129.29,854.436l-15.544-15.607,6.492-6.521,9.052,9.089ZM29.716,845.347l-9.052-9.089L9.052,847.918l47.821,48.019,29.74-29.861-11.644-11.3L56.885,872.627,41.31,856.986l6.511-6.758,9.032,9.372,11.633-11.682-20.665-20.75Zm18.1-13.038,15.545,15.61-6.471,6.5L47.821,845,36.23,857.029l20.634,20.717,18.125-17.9,6.458,6.269L56.873,890.8l-42.7-42.878,6.49-6.521,9.052,9.089ZM833.4,839.435l20.06,20.144,11.615-11.66L845.01,827.774Zm5.12,0,6.492-6.521,14.941,15-6.493,6.518Zm-258.579,0L600,859.578l11.612-11.66-20.06-20.144Zm5.12,0,6.492-6.521,14.941,15L600,854.436Zm-258.579,0,20.06,20.144,11.612-11.66-20.06-20.144Zm5.12,0,6.492-6.521,14.941,15-6.493,6.518Zm-258.579,0,20.06,20.144,11.613-11.66L84.633,827.774Zm5.12,0,6.492-6.521,14.941,15-6.493,6.518Zm872.331,44.841,11.612,11.661,36.209-36.358,18.1,18.179,11.612-11.66-29.716-29.839Zm5.119,0,42.7-42.878,24.6,24.7-6.493,6.518-18.1-18.179L962.085,890.8Zm-258.578,0,11.612,11.661,36.209-36.358,18.1,18.179,11.612-11.66-29.716-29.839Zm5.119,0,42.7-42.878,24.6,24.7-6.493,6.518-18.1-18.179L708.626,890.8Zm-258.578,0,11.612,11.661,36.209-36.358,18.1,18.179,11.612-11.66-29.716-29.839Zm5.119,0,42.7-42.878,24.6,24.7-6.493,6.518-18.1-18.179L455.167,890.8Zm-258.578,0,11.612,11.661,36.209-36.358,18.1,18.179,11.612-11.66-29.716-29.839Zm5.119,0,42.7-42.878,24.594,24.7-6.49,6.518-18.1-18.179L201.708,890.8ZM859.951,866.1l29.716,29.84,11.612-11.661-29.716-29.839Zm5.122,0,6.49-6.519,24.6,24.7-6.493,6.521Zm-258.581,0,29.716,29.84,11.612-11.661L618.1,854.436Zm5.119,0,6.493-6.519,24.6,24.7-6.493,6.521Zm-258.578,0,29.716,29.84,11.612-11.661-29.716-29.839Zm5.119,0,6.493-6.519,24.6,24.7-6.493,6.521Zm-258.578,0,29.716,29.84L140.9,884.275l-29.716-29.839Zm5.119,0,6.493-6.519,24.6,24.7L129.29,890.8Zm818.623,9.089,11.612,11.66,11.612-11.66-11.612-11.66Zm5.119,0,6.493-6.518,6.493,6.518-6.493,6.518Zm-258.578,0,11.612,11.66,11.612-11.66-11.612-11.66Zm5.119,0,6.493-6.518,6.493,6.518-6.493,6.518Zm-258.578,0,11.612,11.66,11.612-11.66-11.612-11.66Zm5.119,0,6.493-6.518,6.493,6.518L428.01,881.7Zm-258.578,0,11.612,11.66,11.612-11.66-11.612-11.66Zm5.119,0,6.493-6.518,6.493,6.518-6.493,6.518ZM1016.4,890.8l-18.1-18.181-11.612,11.66,18.1,18.179-6.493,6.521-18.1-18.179-11.612,11.659L998.294,932.3l47.821-48.021-11.612-11.66Zm18.1-13.038,6.493,6.518-42.7,42.879-24.6-24.7,6.493-6.518,18.1,18.179,11.612-11.661-18.1-18.179,6.492-6.518,18.1,18.179ZM762.939,890.8l-18.1-18.181-11.612,11.66,18.1,18.179-6.493,6.521L726.73,890.8l-11.612,11.659L744.835,932.3l47.821-48.021-11.612-11.66Zm18.1-13.038,6.493,6.518-42.7,42.879-24.6-24.7,6.493-6.518,18.1,18.179,11.612-11.661-18.1-18.179,6.493-6.518,18.1,18.179ZM509.48,890.8l-18.1-18.181-11.612,11.66,18.1,18.179-6.493,6.521-18.1-18.179-11.612,11.659L491.376,932.3,539.2,884.275l-11.612-11.66Zm18.1-13.038,6.49,6.518-42.7,42.879-24.6-24.7,6.493-6.518,18.1,18.179,11.612-11.661-18.1-18.179,6.493-6.518,18.1,18.179ZM256.021,890.8l-18.1-18.181-11.612,11.66,18.1,18.179-6.49,6.521-18.1-18.179L208.2,902.454,237.917,932.3l47.821-48.021-11.612-11.66Zm18.1-13.038,6.49,6.518-42.7,42.879-24.6-24.7,6.493-6.518,18.1,18.179,11.612-11.661-18.1-18.179,6.493-6.518,18.1,18.179Zm549.617,24.7,20.664,20.75,11.615-11.659-9.052-9.092,17.5-17.572-11.612-11.66Zm5.122,0,23.993-24.09,6.493,6.518-17.5,17.572,9.052,9.092-6.493,6.519Zm-258.581,0,20.664,20.75,11.612-11.659-9.049-9.092,17.5-17.572L599.4,873.221Zm5.122,0,23.993-24.09,6.49,6.518-17.5,17.572,9.052,9.092-6.493,6.519Zm-258.581,0,20.664,20.75L349.1,911.546l-9.051-9.092,17.5-17.572-11.615-11.66Zm5.119,0,23.993-24.09,6.493,6.518-17.5,17.572,9.052,9.092-6.493,6.519Zm-258.578,0L84.029,923.2l11.613-11.659-9.052-9.092,17.5-17.572-11.612-11.66Zm5.12,0,23.992-24.09,6.493,6.518-17.5,17.572,9.052,9.092-6.493,6.519Zm827.674,0,11.612,11.661,20.664-20.75L916.824,881.7Zm5.119,0,15.545-15.608,6.493,6.519-15.545,15.61Zm-258.578,0,11.612,11.661,20.664-20.75L663.365,881.7Zm5.119,0,15.545-15.608,6.493,6.519-15.545,15.61Zm-258.578,0,11.612,11.661,20.664-20.75L409.906,881.7Zm5.119,0,15.545-15.608,6.493,6.519-15.545,15.61Zm-258.578,0,11.612,11.661,20.664-20.75L156.447,881.7Zm5.119,0,15.545-15.608,6.493,6.519-15.545,15.61Zm900.093,0,38.164,38.326,11.612-11.66L1052.607,890.8Zm5.119,0,6.493-6.518,33.045,33.183-6.493,6.518Zm-131.85,18.182,11.612,11.66,18.1-18.181,36.209,36.36L991.8,938.814,943.98,890.8Zm5.119,0,24.6-24.7,42.7,42.878-6.493,6.519L943.98,908.975l-18.1,18.179Zm-59.432-18.182L869,911.546l-9.052,9.09,11.612,11.66,20.664-20.75L871.563,890.8Zm5.122,18.182,9.049-9.09-9.049-9.092,6.49-6.518,15.545,15.61-15.545,15.608Zm-77.537-18.182L825.7,940.78l11.612-11.66L799.148,890.8Zm11.612-6.518,33.045,33.183-6.493,6.518-33.045-33.183Zm-138.343,24.7,11.612,11.66,18.1-18.181,36.209,36.36,11.612-11.661L690.521,890.8Zm5.119,0,24.6-24.7,42.7,42.878-6.493,6.519-36.209-36.358-18.1,18.179Zm-59.432-18.182,9.052,9.092-9.052,9.09L618.1,932.3l20.664-20.75L618.1,890.8Zm5.119,18.182,9.052-9.09-9.052-9.092,6.493-6.518,15.545,15.61L618.1,927.154Zm-77.537-18.182,38.167,38.326,11.612-11.66L545.689,890.8Zm11.615-6.518,33.045,33.183-6.493,6.518L539.2,902.454Zm-138.343,24.7,11.612,11.66,18.1-18.181,36.209,36.36,11.612-11.661L437.063,890.8Zm5.119,0,24.6-24.7,42.7,42.878-6.493,6.519-36.209-36.358-18.1,18.179Zm-59.432-18.182,9.052,9.092-9.052,9.09,11.612,11.66,20.664-20.75L364.645,890.8Zm5.119,18.182,9.052-9.09-9.052-9.092,6.493-6.518,15.545,15.61-15.545,15.608Zm-77.537-18.182,38.167,38.326,11.612-11.66L292.227,890.8Zm11.612-6.518,33.045,33.183-6.49,6.518-33.045-33.183Zm-138.34,24.7L165.5,932.3l18.1-18.181,36.209,36.36,11.612-11.661L183.6,890.8Zm5.119,0,24.6-24.7,42.7,42.878-6.493,6.519L183.6,908.975l-18.1,18.179ZM99.574,902.454l9.052,9.092-9.052,9.09,11.612,11.66,20.664-20.75L111.186,890.8Zm5.119,18.182,9.052-9.09-9.052-9.092,6.493-6.518,15.545,15.61-15.545,15.608ZM27.157,902.454,65.321,940.78l11.614-11.66L38.768,890.8Zm11.612-6.518L71.814,929.12l-6.493,6.518L32.277,902.454ZM995.734,947.9l11.612,11.66,38.768-38.929L1034.5,908.975Zm5.119,0,33.649-33.789,6.493,6.521-33.649,33.789Zm-258.578,0,11.612,11.66,38.768-38.929-11.612-11.661Zm5.119,0,33.649-33.789,6.492,6.521-33.648,33.789Zm-258.578,0,11.612,11.66L539.2,920.636l-11.612-11.661Zm5.119,0,33.649-33.789,6.49,6.521-33.647,33.789Zm-258.578,0,11.612,11.66,38.768-38.929-11.612-11.661Zm5.119,0,33.649-33.789,6.49,6.521-33.646,33.789Zm646.631-18.179,38.768,38.93,29.716-29.84-11.612-11.66-18.1,18.179-27.157-27.268Zm5.119,0,6.493-6.521,27.157,27.271,18.1-18.179,6.493,6.518-24.6,24.7Zm-258.578,0,38.768,38.93,29.716-29.84-11.612-11.66-18.1,18.179L645.26,918.065Zm5.12,0,6.492-6.521,27.157,27.271,18.1-18.179,6.493,6.518-24.6,24.7Zm-258.579,0,38.768,38.93,29.716-29.84-11.612-11.66-18.1,18.179L391.8,918.065Zm5.119,0L391.8,923.2l27.157,27.271,18.1-18.179,6.493,6.518-24.6,24.7Zm-258.578,0,38.768,38.93,29.716-29.84L183.6,927.154l-18.1,18.179-27.157-27.268Zm5.119,0,6.493-6.521L165.5,950.476,183.6,932.3l6.493,6.518-24.6,24.7Zm900.078,18.193,29.7,29.164,11.71-10.976-9.12-8.851,9.031-9.372-20.643-20.729Zm5.15-.028,15.529-15.593,15.563,15.628-9.073,9.413,8.985,8.722-6.394,5.993Zm-195.232-9.076,29.716,29.84,20.664-20.75-11.612-11.661-9.052,9.09-18.1-18.179Zm5.122,0,6.49-6.518,18.1,18.179,9.052-9.09,6.493,6.519-15.545,15.61Zm-68.5,9.1,29.7,29.164,11.71-10.976-9.12-8.851,9.031-9.372-20.643-20.729ZM799.148,932.3l15.563,15.628-9.073,9.413,8.985,8.722-6.394,5.993L783.617,947.89Zm-210.76,6.518,29.716,29.84,20.664-20.75-11.612-11.661-9.052,9.09L600,927.154Zm5.122,0L600,932.3l18.1,18.179,9.052-9.09,6.493,6.519L618.1,963.514Zm-68.5,9.1,29.7,29.164,11.71-10.976-9.12-8.851,9.031-9.372-20.643-20.729Zm20.68-15.621,15.563,15.628-9.073,9.413,8.985,8.722-6.394,5.993L530.159,947.89Zm-210.76,6.518,29.716,29.84,20.664-20.75L373.7,936.243l-9.052,9.09-18.1-18.179Zm5.12,0,6.492-6.518,18.1,18.179,9.052-9.09,6.493,6.519-15.545,15.61Zm-68.5,9.1,29.7,29.164,11.71-10.976-9.12-8.851,9.031-9.372-20.646-20.729ZM292.227,932.3l15.565,15.628-9.073,9.413,8.985,8.722-6.395,5.993L276.7,947.89ZM81.47,938.814l29.716,29.84L131.85,947.9l-11.612-11.661-9.052,9.09-18.1-18.179Zm5.12,0,6.492-6.518,18.1,18.179,9.052-9.09,6.493,6.519-15.545,15.61Zm-68.5,9.1,29.7,29.164L59.5,966.106l-9.12-8.851,9.032-9.372L38.768,927.154ZM38.768,932.3l15.566,15.628-9.073,9.413,8.985,8.722-6.394,5.993L23.241,947.89Zm911.7,24.7,11.612,11.661L973.7,956.993l-11.612-11.66Zm5.119,0,6.493-6.518,6.493,6.518-6.493,6.521Zm-131.85,0,29.716,29.84,11.615-11.66-29.716-29.84Zm5.122,0,6.493-6.518,24.594,24.7-6.493,6.521Zm-131.85,0,11.612,11.661,11.612-11.661-11.612-11.66Zm5.119,0,6.493-6.518,6.493,6.518-6.493,6.521Zm-131.85,0L600,986.833l11.612-11.66L581.9,945.333Zm5.122,0,6.49-6.518,24.6,24.7L600,981.693Zm-131.85,0,11.612,11.661,11.612-11.661-11.612-11.66Zm5.119,0,6.493-6.518,6.493,6.518-6.493,6.521Zm-131.85,0,29.716,29.84,11.612-11.66-29.716-29.84Zm5.119,0,6.493-6.518,24.6,24.7-6.493,6.521Zm-131.847,0,11.612,11.661,11.612-11.661-11.612-11.66Zm5.119,0,6.493-6.518,6.493,6.518-6.493,6.521Zm-131.85,0,29.716,29.84,11.613-11.66-29.717-29.84Zm5.12,0,6.492-6.518,24.6,24.7-6.493,6.521Zm945.353,9.09,38.768,38.931,11.612-11.661-38.768-38.929Zm11.612-6.519,33.649,33.789-6.493,6.519-33.649-33.789Zm-99.574,58.486-27.157-27.268-11.612,11.661,38.768,38.929,36.209-36.357,18.708,18.785,20.664-20.75-11.612-11.66-9.052,9.089-7.1-7.124,15.545-15.61,27.157,27.271,11.612-11.661-38.768-38.929Zm63.365-58.486,33.648,33.789-6.492,6.519L989.241,972.6l-20.664,20.75,12.216,12.267,9.052-9.092,6.493,6.521-15.545,15.608-18.708-18.785-36.209,36.36-33.649-33.789,6.493-6.521,27.157,27.27Zm-129.893,34.4,11.613,11.66,27.758-27.877,9.052,9.089,11.612-11.66-20.664-20.748Zm5.12,0,34.25-34.4,15.545,15.608-6.493,6.521-9.052-9.09-27.758,27.875ZM760.379,966.083l38.768,38.931,11.612-11.661-38.768-38.929Zm11.612-6.519,33.647,33.789-6.49,6.519L765.5,966.083Zm-99.574,58.486L645.26,990.782l-11.612,11.661,38.768,38.929,36.209-36.357,18.708,18.785L748,1003.049l-11.612-11.66-9.052,9.089-7.1-7.124,15.545-15.61,27.157,27.271,11.612-11.661-38.768-38.929Zm63.365-58.486,33.649,33.789-6.493,6.519L735.782,972.6l-20.664,20.75,12.216,12.267,9.052-9.092,6.49,6.521-15.542,15.608-18.708-18.785-36.209,36.36-33.648-33.789,6.492-6.521,27.157,27.27Zm-129.894,34.4,11.612,11.66,27.76-27.877,9.052,9.089,11.612-11.66L645.26,954.425Zm5.122,0,34.25-34.4,15.545,15.608-6.493,6.521-9.052-9.09-27.76,27.875Zm-104.09-27.877,38.768,38.931L557.3,993.354l-38.768-38.929Zm11.612-6.519,33.646,33.789-6.49,6.519L512.04,966.083Zm-99.574,58.486L391.8,990.782l-11.612,11.661,38.768,38.929,36.209-36.357,18.708,18.785,20.664-20.75-11.612-11.66-9.052,9.089-7.1-7.124,15.545-15.61,27.157,27.271,11.612-11.661-38.768-38.929Zm63.365-58.486,33.649,33.789-6.493,6.519L482.323,972.6l-20.664,20.75,12.216,12.267,9.052-9.092,6.49,6.521-15.542,15.608-18.708-18.785-36.209,36.36-33.649-33.789,6.493-6.521,27.157,27.27Zm-129.894,34.4,11.612,11.66,27.76-27.877,9.052,9.089,11.612-11.66L391.8,954.425Zm5.122,0,34.25-34.4,15.545,15.608-6.493,6.521L391.8,972.6l-27.76,27.875ZM253.459,966.083l38.768,38.931,11.615-11.661-38.768-38.929Zm11.614-6.519,33.646,33.789-6.493,6.519-33.647-33.789ZM165.5,1018.05l-27.157-27.268-11.612,11.661,38.768,38.929,36.209-36.357,18.706,18.785,20.666-20.75-11.614-11.66-9.052,9.089-7.095-7.124,15.545-15.61,27.157,27.271,11.612-11.661-38.768-38.929Zm63.365-58.486,33.646,33.789-6.49,6.519L228.865,972.6,208.2,993.354l12.214,12.267,9.052-9.092,6.492,6.521-15.544,15.608-18.706-18.785-36.209,36.36-33.649-33.789,6.493-6.521,27.157,27.27ZM98.97,993.96l11.612,11.66,27.76-27.877,9.052,9.089,11.612-11.66-20.664-20.748Zm5.119,0,34.253-34.4,15.545,15.608-6.493,6.521-9.052-9.09-27.76,27.875ZM0,966.083l38.768,38.931,11.613-11.661L11.612,954.425Zm5.122,0,6.49-6.519,33.649,33.789-6.493,6.519Zm909.142,27.27,11.612,11.661,29.716-29.842L943.98,963.514Zm5.119,0,24.6-24.7,6.493,6.518-24.6,24.7Zm-258.578,0,11.612,11.661,29.716-29.842-11.612-11.659Zm5.119,0,24.6-24.7,6.493,6.518-24.6,24.7Zm-258.578,0,11.612,11.661,29.716-29.842-11.612-11.659Zm5.119,0,24.6-24.7,6.493,6.518-24.6,24.7Zm-258.578,0,11.612,11.661,29.716-29.842L183.6,963.514Zm5.119,0,24.6-24.7,6.493,6.518-24.6,24.7Zm909.145-9.089,38.768,38.929,11.612-11.66-38.768-38.93Zm5.119,0,6.493-6.521,33.646,33.789-6.49,6.518Zm-258.581,0,38.768,38.929,11.615-11.66L826.3,972.6Zm11.615-6.521,33.646,33.789-6.493,6.518-33.646-33.786Zm-265.073,6.521L600,1023.193l11.612-11.66L572.843,972.6Zm11.612-6.521,33.649,33.789L600,1018.05l-33.647-33.786Zm-265.071,6.521,38.768,38.929,11.613-11.66L319.384,972.6Zm11.612-6.521,33.649,33.789-6.493,6.518-33.648-33.786ZM54.313,984.264l38.768,38.929,11.613-11.66L65.925,972.6Zm11.612-6.521,33.649,33.789-6.493,6.518L59.433,984.264Zm966.018,60.451,11.612,11.66,27.157-27.268,18.1,18.179,11.612-11.661-29.716-29.84Zm5.119,0,33.649-33.787,24.594,24.7-6.49,6.521-18.1-18.181-27.157,27.271Zm-258.578,0,11.612,11.66,27.157-27.268,18.1,18.179,11.612-11.661-29.716-29.84Zm38.768-33.787,24.594,24.7-6.49,6.521-18.1-18.181L790.1,1044.716,783.6,1038.2ZM525.022,1038.2l11.615,11.66,27.157-27.268,18.1,18.179,11.615-11.661-29.716-29.84Zm38.771-33.787,24.594,24.7-6.493,6.521-18.1-18.181-27.157,27.271-6.493-6.521ZM271.563,1038.2l11.612,11.66,27.157-27.268,18.1,18.179,11.612-11.661-29.716-29.84Zm38.768-33.787,24.6,24.7-6.493,6.521-18.1-18.181-27.157,27.271-6.49-6.521ZM18.1,1038.2l11.612,11.66,27.157-27.268,18.1,18.179,11.613-11.661-29.717-29.84Zm38.768-33.787,24.6,24.7-6.493,6.521-18.1-18.181-27.157,27.271-6.49-6.521Zm959.058,13.612-8.548-9.1-11.663,11.712,20.054,19.705,30.364-28.916-11.619-11.861Zm18.553-13.307,6.488,6.62-25.157,23.958-14.947-14.684,6.44-6.466,8.535,9.082Zm-272.011,13.307-8.548-9.1-11.663,11.712,20.054,19.705,30.364-28.916L781.06,999.564Zm18.553-13.307,6.485,6.62-25.154,23.958-14.947-14.684,6.441-6.466,8.534,9.082Zm-272.012,13.307-8.548-9.1L488.8,1020.636l20.054,19.705,30.364-28.916L527.6,999.564Zm18.553-13.307,6.485,6.62L508.9,1035.293l-14.945-14.684,6.439-6.466,8.536,9.082Zm-272.012,13.307-8.548-9.1-11.665,11.712,20.056,19.705,30.364-28.916-11.619-11.861Zm18.553-13.307,6.485,6.62-25.156,23.958-14.945-14.684,6.439-6.466,8.536,9.082Zm567.74,43.177,11.612,11.66,27.157-27.268,9.052,9.089,11.612-11.66-20.664-20.75Zm5.122,0,33.646-33.787,15.545,15.608-6.493,6.521-9.052-9.09-27.157,27.269Zm-258.581,0L600,1059.551l27.157-27.268,9.052,9.089,11.612-11.66-20.664-20.75Zm5.122,0,33.646-33.787,15.545,15.608-6.493,6.521-9.052-9.09L600,1054.411Zm-258.581,0,11.612,11.66,27.157-27.268,9.052,9.089,11.612-11.66-20.664-20.75Zm5.12,0L373.7,1014.1l15.545,15.608-6.493,6.521-9.052-9.09-27.157,27.269Zm-258.579,0,11.612,11.66,27.157-27.268,9.052,9.089,11.612-11.66-20.664-20.75Zm5.12,0,33.648-33.787,15.545,15.608-6.493,6.521-9.052-9.09-27.157,27.269Zm819.284,26.6,11.5,12.7,56.311-57.5-11.6-11.651Zm5,.121,51.207-51.422,6.5,6.53-51.107,52.184Zm-258.462-.121,11.5,12.7,56.309-57.5-11.6-11.651Zm5,.121,51.207-51.422,6.5,6.53-51.107,52.184Zm-258.462-.121,11.5,12.7,56.308-57.5-11.6-11.651Zm5,.121,51.207-51.422,6.5,6.53-51.107,52.184Zm-258.462-.121,11.5,12.7,56.31-57.5-11.6-11.651Zm5,.121,51.207-51.422,6.5,6.53L157.1,1081.907Zm808.873-17.626,29.87,29.829,11.609-11.657-18.125-18.2,6.212-6.453,8.687,9.026,12.333-11.609-21.034-20.776Zm5.12-.014,24.459-24.7,15.779,15.584-6.979,6.572-8.813-9.155L977.65,1057l18.084,18.157-6.5,6.523Zm-258.579.014,29.87,29.829,11.609-11.657-18.125-18.2,6.211-6.453,8.688,9.026,12.333-11.609-21.034-20.776Zm5.12-.014,24.459-24.7,15.779,15.584-6.979,6.572-8.814-9.155L724.191,1057l18.084,18.157-6.5,6.523Zm-258.579.014,29.87,29.829,11.609-11.657-18.125-18.2,6.211-6.453,8.688,9.026,12.332-11.609-21.033-20.776Zm5.119-.014,24.46-24.7,15.779,15.584-6.979,6.572-8.814-9.155L470.732,1057l18.084,18.157-6.5,6.523ZM199,1056.989l29.87,29.829,11.609-11.657-18.125-18.2,6.212-6.453,8.687,9.026,12.333-11.609-21.034-20.776Zm5.12-.014,24.459-24.7,15.78,15.584-6.98,6.572-8.813-9.155L217.274,1057l18.084,18.157-6.5,6.523Zm845.4-.715,11.443,13.406,21.309-21.743-11.5-12.318Zm4.966.23,16.162-15.7,6.6,7.073-16.106,16.435Zm-258.425-.23,11.443,13.406,21.309-21.743-11.5-12.318Zm21.128-15.473,6.6,7.073L807.687,1064.3l-6.66-7.8ZM542.6,1056.26l11.443,13.406,21.309-21.743-11.5-12.318Zm21.128-15.473,6.6,7.073L554.228,1064.3l-6.66-7.8ZM289.143,1056.26l11.443,13.406,21.309-21.743-11.5-12.318Zm21.127-15.473,6.606,7.073L300.769,1064.3l-6.66-7.8ZM35.681,1056.26l11.445,13.406,21.309-21.743-11.5-12.318Zm21.129-15.473,6.6,7.073L47.31,1064.3l-6.66-7.8Zm839.349,7.1,11.612,11.66,11.612-11.66-11.612-11.659Zm5.119,0,6.493-6.519,6.493,6.519-6.493,6.521Zm-258.578,0,11.612,11.66,11.612-11.66-11.612-11.659Zm5.119,0,6.493-6.519,6.493,6.519-6.493,6.521Zm-258.578,0,11.612,11.66,11.612-11.66-11.612-11.659Zm5.119,0,6.493-6.519,6.493,6.519-6.493,6.521Zm-258.578,0,11.612,11.66,11.612-11.66-11.612-11.659Zm5.119,0,6.493-6.519,6.493,6.519-6.493,6.521Zm710,27.27,11.612,11.661,18.1-18.182,9.052,9.092,11.612-11.66-20.664-20.75Zm5.122,0,24.594-24.7,15.545,15.61-6.493,6.518-9.052-9.089-18.1,18.179Zm-258.581,0,11.612,11.661,18.1-18.182,9.052,9.092,11.612-11.66-20.664-20.75Zm5.119,0,24.6-24.7,15.545,15.61-6.493,6.518-9.052-9.089-18.1,18.179Zm-258.578,0,11.612,11.661,18.1-18.182,9.052,9.092,11.612-11.66-20.664-20.75Zm5.119,0,24.6-24.7,15.545,15.61-6.493,6.518L373.7,1063.5l-18.1,18.179Zm-258.578,0,11.612,11.661,18.1-18.182,9.052,9.092,11.612-11.66-20.664-20.75Zm5.12,0,24.6-24.7,15.545,15.61-6.493,6.518-9.052-9.089-18.1,18.179Zm908.858-9.117,8.8,9.139-8.509,9.155,12.253,11.534,18.043-18.137,8.411,8.463,11.623-11.33-29.825-29.532Zm5.4,18.121,8.388-9.027-8.7-9.04,15.714-15.649,24.641,24.4-6.406,6.243-8.448-8.5-18.128,18.221Zm-258.862-18.121,8.8,9.139-8.509,9.155,12.253,11.534,18.044-18.137,8.41,8.463,11.622-11.33-29.823-29.532Zm5.4,18.121,8.39-9.027-8.7-9.04,15.714-15.649,24.641,24.4-6.407,6.243-8.448-8.5L763.5,1090.808Zm-258.86-18.121,8.8,9.139-8.509,9.155,12.254,11.534,18.044-18.137,8.411,8.463,11.622-11.33-29.823-29.532Zm5.4,18.121,8.39-9.027-8.7-9.04,15.714-15.649,24.64,24.4-6.406,6.243-8.448-8.5-18.127,18.221Zm-258.86-18.121,8.8,9.139-8.509,9.155,12.253,11.534,18.044-18.137,8.41,8.463,11.622-11.33-29.823-29.532Zm5.4,18.121,8.39-9.027-8.7-9.04,15.714-15.649,24.641,24.4-6.407,6.243-8.448-8.5-18.127,18.221Zm818.024-8.4,11.612,11.66,21.268-21.356-11.612-11.66Zm5.119,0,16.149-16.216,6.49,6.521-16.146,16.214Zm-258.578,0,11.612,11.66,21.268-21.356-11.612-11.66Zm21.268-16.216,6.49,6.521L825.7,1082.285l-6.493-6.518ZM560.63,1075.767l11.612,11.66,21.268-21.356-11.615-11.66Zm21.265-16.216,6.493,6.521-16.146,16.214-6.493-6.518Zm-274.727,16.216,11.615,11.66,21.265-21.356-11.612-11.66Zm21.268-16.216,6.493,6.521-16.146,16.214-6.493-6.518ZM53.709,1075.767l11.612,11.66,21.269-21.356-11.613-11.66Zm21.268-16.216,6.493,6.521-16.149,16.214-6.49-6.518Zm865.84,15L971.137,1105l11.612-11.661-30.32-30.446Zm5.119,0,6.493-6.518,25.2,25.3-6.493,6.521Zm-258.578,0L717.678,1105l11.612-11.661-30.32-30.446Zm5.119,0,6.493-6.518,25.2,25.3-6.493,6.521Zm-258.578,0L464.219,1105l11.612-11.661-30.32-30.446Zm5.119,0,6.493-6.518,25.2,25.3-6.493,6.521Zm-258.578,0L210.76,1105l11.612-11.661-30.32-30.446Zm5.119,0,6.493-6.518,25.2,25.3-6.493,6.521Z" transform="translate(-630.106 79.683) rotate(-45)" fill="#ddd"/>
  </g>
</svg>
