<svg xmlns="http://www.w3.org/2000/svg" width="90" height="90" viewBox="0 0 90 90">
  <path id="Control_Centre_19371" d="M154.412,104.118h-2.2C147.3,87.1,134.73,75,120,75S92.7,87.1,87.793,104.118H85.588A10.588,10.588,0,0,0,75,114.706v10.588a10.588,10.588,0,0,0,10.588,10.588h2.205C92.7,152.9,105.27,165,120,165s27.3-12.1,32.207-29.118h2.2A10.588,10.588,0,0,0,165,125.294V114.706A10.588,10.588,0,0,0,154.412,104.118ZM144.6,141.176H127.487a7.941,7.941,0,1,0,0,5.294h14.156q-.727,1.1-1.517,2.133a30.2,30.2,0,0,1-9.3,8.227,21.842,21.842,0,0,1-21.663,0,30.2,30.2,0,0,1-9.3-8.227,42.217,42.217,0,0,1-6.543-12.717,52.783,52.783,0,0,1,0-31.774q.644-1.99,1.437-3.859a3.623,3.623,0,0,1,3.849-2.165c4.1.586,11.467,2.833,21.384,10.686,12.015,9.515,24.781,6.893,28.713,4.629a53.769,53.769,0,0,1,.4,6.6,51.538,51.538,0,0,1-2.447,15.887,46,46,0,0,1-2.074,5.29Z" transform="translate(-75 -75)" fill="#ddd" fill-rule="evenodd"/>
</svg>
