<svg xmlns="http://www.w3.org/2000/svg" width="16.059" height="21" viewBox="0 0 16.059 21">
  <path id="Trash_19371" d="M189.206,76.852h-3.088v-.617A1.235,1.235,0,0,0,184.882,75h-3.706a1.235,1.235,0,0,0-1.235,1.235v.617h-3.088A1.853,1.853,0,0,0,175,78.7v1.236h16.059V78.7A1.853,1.853,0,0,0,189.206,76.852Zm-8.029-.617h3.706v.617h-3.706Zm-4.941,4.323V96h13.588V80.558Zm3.706,2.472v10.5h0v0a.618.618,0,0,1-1.235,0v0h0v-10.5h0a.618.618,0,1,1,1.235,0Zm3.706,0v10.5h0v0a.618.618,0,1,1-1.235,0v0h0v-10.5h0a.618.618,0,1,1,1.235,0Zm3.706,0v10.5h0v0a.618.618,0,0,1-1.235,0v0h0v-10.5h0a.618.618,0,0,1,1.235,0Z" transform="translate(-175 -75)" fill="#fff" fill-rule="evenodd"/>
</svg>
