<svg xmlns="http://www.w3.org/2000/svg" width="14.583" height="19.07" viewBox="0 0 14.583 19.07">
  <path id="Trash_19371" d="M187.9,76.682h-2.8v-.56A1.122,1.122,0,0,0,183.974,75h-3.365a1.122,1.122,0,0,0-1.122,1.122v.56h-2.8A1.683,1.683,0,0,0,175,78.364v1.123h14.583V78.364A1.683,1.683,0,0,0,187.9,76.682Zm-7.292-.56h3.365v.56h-3.365Zm-4.487,3.925V94.07h12.34V80.047Zm3.365,2.244v9.532h0v0a.561.561,0,0,1-1.122,0v0h0V82.292h0a.561.561,0,1,1,1.122,0Zm3.365,0v9.532h0v0a.561.561,0,0,1-1.122,0v0h0V82.292h0a.561.561,0,1,1,1.122,0Zm3.365,0v9.532h0v0a.561.561,0,0,1-1.122,0v0h0V82.292h0a.561.561,0,0,1,1.122,0Z" transform="translate(-175 -75)" fill-rule="evenodd"/>
</svg>
