<svg xmlns="http://www.w3.org/2000/svg" xmlns:xlink="http://www.w3.org/1999/xlink" width="1920" height="861" viewBox="0 0 1920 861">
  <defs>
    <clipPath id="clip-path">
      <rect id="Rectangle_2660" data-name="Rectangle 2660" width="861" height="1920" transform="translate(0 8.001)" fill="#f3f3f3"/>
    </clipPath>
  </defs>
  <g id="Group_13858" data-name="Group 13858" transform="translate(-12229.188 -15515) rotate(90)" opacity="0.574">
    <path id="Path_43078" data-name="Path 43078" d="M0,0H860.651V1920H0Z" transform="translate(15515 -14149.188)" fill="#f5f5f5"/>
    <g id="Group_3035" data-name="Group 3035" transform="translate(15515 -14157.188)">
      <g id="Mask_Group_51" data-name="Mask Group 51" transform="translate(0 0)" opacity="0.5" clip-path="url(#clip-path)">
        <path id="Union_12" data-name="Union 12" d="M1611.373,1877.728l23.056-23.15,51.831,52.109-23.056,23.148Zm9.458-.7,43.08,43.311,12.892-12.945-43.08-43.307Zm-477.725,35.53,23.056-23.15,51.831,52.109-23.056,23.148Zm9.458-.7,43.08,43.31,12.891-12.944-43.08-43.307Zm-477.725,35.53,23.056-23.15,51.831,52.109-23.056,23.149Zm9.458-.7,43.08,43.311,12.891-12.945-43.08-43.307Zm-477.725,35.53,23.056-23.15,51.831,52.109L258.4,2034.315Zm9.458-.7,43.08,43.311L272,2011.87l-43.08-43.307Zm1512.185-94.487,16.979-18.09-15-15.681,41.265-41.135L1822.5,1862.6l-23.032,22.538-14.375-14.485-35.83,36Zm11.374-34.372,14.838,15.514L1737.688,1886l12.124,11.31,36-36.171,14.439,14.559,12.693-12.42-42.17-41.716Zm-479.64,69.2,16.979-18.09-15-15.681,41.265-41.135,51.039,50.489-23.028,22.538-14.375-14.485-35.83,36Zm11.375-34.372,14.836,15.514-16.741,17.839,12.128,11.31,36-36.171,14.439,14.559,12.7-12.42-42.17-41.716Zm-479.642,69.2,16.978-18.09-15-15.682,41.265-41.135,51.039,50.49-23.029,22.537-14.375-14.485-35.83,36Zm11.375-34.372,14.836,15.514-16.741,17.839,12.129,11.31,35.995-36.171,14.439,14.56,12.693-12.42-42.168-41.716Zm-479.642,69.2,16.978-18.091-15-15.681,41.265-41.135,51.039,50.49-23.029,22.537L380.3,1975.132l-35.83,36Zm11.375-34.372,14.838,15.514-16.743,17.838,12.129,11.31,35.995-36.171,14.439,14.56,12.7-12.42-42.17-41.716Zm1510.551-94.569,42.23-42.4,19.85,19.959-42.229,42.4Zm9.46-.7,11.1,11.155,32.059-32.187-11.094-11.161Zm-477.725,35.53,42.229-42.4,19.85,19.959-42.229,42.4Zm20.557,10.452,32.059-32.187-11.094-11.16-32.064,32.192Zm-488.824,24.375,42.224-42.4,19.854,19.959-42.228,42.4Zm20.557,10.452,32.059-32.187-11.1-11.16L918.266,1931.5Zm-488.829,24.375,42.229-42.4,19.85,19.959-42.224,42.4Zm20.562,10.451,32.059-32.187-11.1-11.16L450,1966.331Zm-488.829,24.375,42.229-42.4,19.851,19.959-42.23,42.4Zm20.557,10.452,32.064-32.188-11.1-11.16-32.059,32.192Zm1554-129.9,111.61-112.052,19.834,19.942-111.94,114.014Zm9.228-.463,11.194,12.571,101.6-103.478-11.114-11.177Zm-477.493,35.289,111.609-112.052,19.83,19.942-111.935,114.013Zm9.226-.463,11.194,12.571,101.6-103.477-11.114-11.177Zm-477.493,35.289L721.9,1840.017l19.829,19.942L629.8,1973.972Zm9.227-.463,11.194,12.571,101.6-103.478-11.114-11.177ZM142.024,1986.9l111.609-112.052,19.83,19.942L161.524,2008.8Zm9.227-.463L162.444,1999l101.6-103.478-11.114-11.177Zm1293.915-95.23,59-59.238,35.324,35.515-23.056,23.148-15.474-15.561-35.948,36.095Zm9.463-.7,11.094,11.156,35.947-36.088,15.475,15.556,12.891-12.94-26.573-26.718Zm-477.73,35.53,59-59.238,35.324,35.515-23.056,23.148-15.474-15.561-35.948,36.095Zm9.458-.7,11.1,11.155,35.947-36.088,15.474,15.556,12.891-12.939-26.573-26.718Zm-477.724,35.53,59-59.238,35.325,35.515L579.9,1960.281l-15.474-15.561-35.947,36.095Zm9.458-.7,11.1,11.155,35.947-36.087,15.475,15.556,12.891-12.939-26.573-26.718Zm-477.724,35.53,59-59.238,35.324,35.515-23.056,23.148-15.474-15.561-35.948,36.095Zm9.459-.7,11.1,11.156,35.947-36.088,15.474,15.556,12.891-12.939-26.573-26.718Zm1598.248-152.269,58.7-59.22,36,35.513-24.379,23.152-14.81-15.49-12.362,12.779,30.984,31.154-23.05,23.139Zm9.46-.729,42.317,42.271,12.9-12.95-30.914-31.077L1704.3,1817l15.025,15.71,13.8-13.106-27.009-26.638ZM1179.8,1877.535l58.7-59.22,36,35.513-24.38,23.152-14.81-15.49-12.361,12.779,30.984,31.155-23.05,23.139Zm9.461-.729,42.316,42.271,12.9-12.95-30.914-31.077,22.468-23.225,15.025,15.71,13.8-13.106-27.009-26.638Zm-477.728,35.556,58.7-59.22,36,35.513-24.381,23.152-14.81-15.49L754.689,1909.1l30.984,31.154-23.05,23.139Zm9.46-.729,42.317,42.271,12.9-12.95L745.3,1909.877l22.468-23.225,15.025,15.71,13.8-13.106-27.009-26.638Zm-477.726,35.555,58.7-59.22,36,35.512-24.381,23.153-14.808-15.49-12.363,12.779,30.984,31.155-23.05,23.139Zm9.461-.729,42.316,42.271,12.9-12.95L277.035,1944.7l22.47-23.225,15.023,15.71,13.8-13.106-27.011-26.638Zm1561.984-117.486,42.107-41.1,19.548,21.189-42.358,43.117Zm9.144-.255,11.231,13.51,32.016-32.59-11.229-12.167ZM1346.45,1863.8l42.1-41.1,19.553,21.188-42.36,43.117Zm20.375,13.256,32.016-32.59-11.229-12.167-32.018,31.246Zm-488.641,21.57,42.1-41.1,19.553,21.189-42.358,43.117Zm20.375,13.256,32.016-32.591-11.229-12.166-32.018,31.246Zm-488.641,21.57,42.1-41.1,19.553,21.189-42.358,43.117Zm20.375,13.256,32.016-32.59-11.232-12.166L419.06,1933.2ZM-58.355,1968.28l42.107-41.1L3.3,1948.371l-42.358,43.117Zm20.38,13.255,32.011-32.59-11.227-12.167-32.015,31.246Zm1570.51-146.959,23.056-23.143,19.85,19.952-23.056,23.15Zm9.458-.7,11.1,11.16,12.891-12.944-11.1-11.155Zm-109.8,8.166,76.977-77.281,35.324,35.515-23.056,23.148-15.475-15.556L1452.04,1862Zm9.463-.7,11.094,11.161,53.921-54.133,15.475,15.556,12.891-12.943-26.573-26.713ZM1064.267,1869.4l23.056-23.143,19.85,19.952-23.056,23.15Zm9.458-.7,11.1,11.16,12.892-12.944-11.1-11.155Zm-109.8,8.167,76.977-77.281,35.324,35.515-23.056,23.148-15.474-15.556-53.921,54.133Zm9.463-.7,11.094,11.161,53.921-54.133,15.474,15.556,12.891-12.943-26.573-26.713ZM596,1904.23l23.055-23.143,19.85,19.952-23.056,23.15Zm9.458-.7,11.1,11.16,12.892-12.944-11.1-11.155Zm-109.8,8.166,76.977-77.281,35.324,35.515L584.9,1893.074l-15.475-15.556-53.921,54.133Zm9.459-.7,11.1,11.16,53.921-54.133,15.475,15.556L598.5,1870.63l-26.574-26.713Zm-377.382,28.067,23.055-23.143,19.85,19.952-23.056,23.15Zm9.458-.7,11.1,11.16,12.891-12.945-11.1-11.155Zm-109.8,8.166,76.977-77.281,35.324,35.515L116.634,1927.9l-15.474-15.556-53.921,54.133Zm9.459-.7,11.1,11.16,53.921-54.133,15.474,15.557,12.891-12.943-26.573-26.713ZM1784.727,1798l76.977-77.281,50.8,51.071-23.056,23.15-30.948-31.114-53.921,54.133Zm9.458-.7,11.1,11.16,53.921-54.137,30.948,31.118,12.886-12.944L1861,1730.222Zm-477.724,35.53,76.977-77.281,50.8,51.071-23.056,23.15-30.949-31.114-53.92,54.133Zm20.556,10.457,53.921-54.137,30.949,31.117,12.886-12.944-42.043-42.27-66.812,67.073Zm-488.828,24.37,76.982-77.282,50.8,51.071-23.061,23.15-30.944-31.115-53.921,54.133Zm20.561,10.457,53.921-54.137,30.944,31.118,12.892-12.944-42.043-42.27-66.812,67.072Zm-488.828,24.37L456.9,1825.2l50.8,51.071-23.056,23.15L453.692,1868.3l-53.921,54.133Zm20.557,10.457L454.4,1858.8l30.948,31.118,12.891-12.945L456.191,1834.7l-66.807,67.072ZM-88.345,1937.3l76.977-77.281,50.8,51.071-23.058,23.15-30.949-31.115L-68.5,1957.263Zm20.556,10.457,53.921-54.136,30.949,31.117L29.972,1911.8l-42.048-42.269L-78.883,1936.6Zm1589.847-195.944,23.056-23.148,46.423,46.67,125.815-126.312,66.273,66.629-23.056,23.148-46.423-46.673-30.865,30.988,12.132,12.193,17.973-18.044,19.85,19.958-41.03,41.193-31.981-32.152-71.894,72.178Zm9.458-.7,57.522,57.832,71.895-72.184,31.981,32.152,30.865-30.985-11.1-11.16-17.974,18.049-20.882-21,41.029-41.194,46.423,46.67,12.89-12.939-57.521-57.831L1590.83,1784.844l-46.423-46.675Zm-477.725,35.53,23.056-23.148,46.423,46.67,125.815-126.312,66.273,66.629-23.056,23.148-46.423-46.674-30.865,30.989,12.132,12.193,17.973-18.044,19.85,19.957-41.03,41.194-31.981-32.152-71.894,72.179Zm9.459-.7,57.52,57.833,71.895-72.184,31.981,32.152,30.86-30.984-11.094-11.161-17.974,18.049-20.882-21,41.03-41.194,46.423,46.67,12.891-12.94-57.522-57.83-125.815,126.315L1076.14,1773Zm-477.726,35.53,23.056-23.148L655,1844.992,780.818,1718.68l66.273,66.629-23.056,23.148-46.423-46.674-30.865,30.988,12.131,12.193,17.974-18.044,19.85,19.957-41.029,41.194-31.981-32.152L651.8,1888.1Zm9.458-.7L652.5,1878.6l71.895-72.184,31.981,32.152,30.86-30.984-11.094-11.161-17.974,18.049-20.882-21,41.03-41.194,46.423,46.67,12.891-12.939-57.522-57.83L654.3,1854.5l-46.423-46.675ZM117.257,1856.3l23.056-23.148,46.423,46.67,125.815-126.312,66.273,66.629-23.056,23.148-46.423-46.674L278.481,1827.6l12.128,12.194,17.973-18.044,19.853,19.957L287.4,1882.9l-31.978-32.152-71.894,72.178Zm9.458-.7,57.522,57.832,71.895-72.183,31.978,32.152,30.863-30.985-11.1-11.16L289.9,1849.3l-20.879-21,41.03-41.194,46.423,46.67,12.886-12.939-57.517-57.831L186.03,1889.324l-46.423-46.675Zm1593.5-85.071,23.158-23.252,14.542,15.64,36.878-36.669,19.835,20.329-60.073,57.62Zm9.513-.759,25.6,25.088,49.771-47.74-11.077-11.347-36.984,36.775-14.519-15.616Zm-477.78,35.585,23.158-23.252,14.542,15.64,36.878-36.67,19.836,20.329-60.073,57.62Zm9.515-.759,25.6,25.088,49.766-47.74-11.071-11.347-36.984,36.775-14.518-15.615Zm-477.782,35.585,23.158-23.252,14.542,15.64,36.878-36.67,19.835,20.329-60.073,57.62Zm9.515-.759,25.593,25.089,49.769-47.74-11.072-11.347-36.984,36.775-14.523-15.615ZM315.414,1875l23.161-23.252,14.542,15.64L390,1830.72l19.835,20.329-60.073,57.62Zm9.518-.759,25.593,25.089,49.769-47.74-11.072-11.347-36.984,36.775L337.717,1861.4Zm1534.1-180.9,23.056-23.15,66.273,66.629-23.057,23.148Zm9.458-.7,57.521,57.825,12.888-12.939-57.517-57.831Zm-477.73,35.53,23.061-23.15,66.273,66.629-23.061,23.149Zm66.98,57.122,12.891-12.939-57.517-57.831-12.892,12.945Zm-535.247-22.3,23.056-23.15,66.273,66.629-23.056,23.148Zm66.98,57.122,12.891-12.939-57.522-57.83-12.887,12.944Zm-535.247-22.3,23.056-23.15,66.275,66.629L520.5,1864.448Zm66.98,57.122L534.1,1842l-57.522-57.83-12.89,12.944Zm-535.247-22.3L9.021,1809.5,75.3,1876.126l-23.058,23.148Zm66.98,57.122,12.891-12.939L8.314,1819l-12.89,12.944Zm1419-149.818,78.172-78.485,35.324,35.512-23.056,23.148-15.475-15.556-55.115,55.34Zm9.459-.7,11.1,11.157,55.115-55.337,15.474,15.558,12.891-12.944-26.573-26.713Zm-477.73,35.53,78.176-78.485,35.325,35.511-23.056,23.149-15.475-15.556-55.12,55.341Zm9.463-.7,11.094,11.158,55.12-55.338,15.474,15.558,12.892-12.944-26.573-26.713ZM535.4,1809.6l78.176-78.486L648.9,1766.63l-23.056,23.148-15.475-15.556-55.12,55.341Zm9.463-.7,11.094,11.157,55.12-55.337,15.474,15.558,12.892-12.945-26.573-26.713ZM67.136,1844.43l78.176-78.486,35.324,35.512-23.056,23.149-15.474-15.556-55.12,55.341Zm9.458-.7,11.1,11.157,55.12-55.338,15.474,15.558,12.891-12.945L144.6,1775.447Zm1684.6-176.53,23.056-23.145,66.273,66.629-23.056,23.148Zm66.979,57.127,12.891-12.939-57.522-57.831-12.891,12.939Zm-254.693,6.962,59-59.238,19.85,19.954-59,59.241Zm9.458-.7,11.1,11.155,48.839-49.032-11.1-11.156Zm-290.011-28.559,23.056-23.145,66.273,66.629-23.056,23.148Zm66.98,57.127,12.886-12.939-57.517-57.831-12.891,12.939Zm-254.693,6.962,59-59.238,19.85,19.954-59,59.241Zm9.458-.7,11.1,11.155,48.839-49.032-11.1-11.157ZM824.659,1736.85l23.056-23.145,66.273,66.63-23.056,23.148Zm66.98,57.127,12.886-12.939-57.517-57.831-12.891,12.939Zm-254.693,6.962,59-59.238,19.85,19.954-59,59.241Zm9.458-.7,11.1,11.155,48.839-49.032-11.1-11.156Zm-290.017-28.558,23.061-23.145,66.273,66.629-23.061,23.149Zm66.98,57.127,12.891-12.939-57.517-57.831-12.891,12.939Zm-254.688,6.962,59-59.238,19.85,19.954-59,59.241Zm9.458-.7,11.1,11.155,48.839-49.032-11.1-11.156ZM-111.88,1806.5l23.056-23.145,66.275,66.629-23.058,23.148Zm9.463-.7L-44.9,1863.63l12.891-12.939-57.522-57.83Zm1513.655-129.282,23.061-23.15,50.8,51.073-23.06,23.149Zm9.463-.7,42.042,42.275,12.891-12.945-42.043-42.269Zm-477.73,35.53,23.056-23.15,50.8,51.073-23.056,23.148Zm9.463-.7,42.042,42.275,12.892-12.945L965.32,1697.7ZM474.7,1746.17l23.056-23.15,50.8,51.073L525.5,1797.241Zm9.459-.7,42.046,42.274L539.1,1774.8l-42.048-42.269ZM6.438,1781l23.056-23.15,50.8,51.073-23.058,23.148Zm9.459-.7,42.046,42.274,12.892-12.944-42.048-42.269Zm1781.214-149.157,41.058-41.221,35.289,35.478-17.974,18.563,15.632,15.108-23.143,21.9Zm9.518-.759,42.143,41.281,12.638-11.958-15.4-14.885,18.056-18.645-26.6-26.749Zm-477.785,35.586,41.058-41.221,35.289,35.478-17.974,18.563,15.632,15.108-23.143,21.9Zm51.661,40.522,12.638-11.958-15.4-14.885L1395.8,1661l-26.6-26.749-30.836,30.957Zm-519.931-5.695,41.061-41.221,35.289,35.478L918.95,1713.61l15.632,15.108-23.143,21.9Zm51.664,40.521,12.638-11.958-15.4-14.885,18.056-18.645-26.6-26.749-30.836,30.956Zm-519.931-5.695,41.056-41.221,35.294,35.478-17.974,18.563,15.632,15.108-23.143,21.9Zm51.664,40.521,12.638-11.958-15.4-14.885,18.056-18.645L432.656,1703.9l-30.831,30.956Zm-519.931-5.7,41.056-41.22L.391,1764.7l-17.974,18.563,15.632,15.108-23.143,21.9Zm51.664,40.522,12.638-11.958-15.4-14.885L-9,1765.476l-26.609-26.748-30.831,30.956ZM1645.374,1659.1l23.056-23.15,19.85,19.959-23.056,23.148Zm9.458-.7,11.1,11.16,12.892-12.944-11.1-11.155Zm-122.777-40.992,23.056-23.15,46.423,46.67,35.947-36.087,19.85,19.957-59,59.238Zm9.458-.7,57.522,57.83,48.839-49.034-11.1-11.155-35.947,36.09-46.423-46.676Zm-94.327,23.722,23.056-23.148,30.949,31.112,17.973-18.043,19.85,19.957-41.029,41.194Zm9.463-.7L1498.691,1682l30.865-30.99-11.1-11.156-17.974,18.046-30.949-31.114Zm-279.541,54.206,23.056-23.15,19.85,19.959-23.056,23.148Zm9.458-.7,11.1,11.16,12.892-12.944-11.1-11.155Zm-122.777-40.991,23.056-23.15,46.423,46.67,35.947-36.088,19.85,19.957-59,59.238Zm9.459-.7,57.52,57.831,48.839-49.034-11.1-11.155-35.947,36.089-46.423-46.675Zm-94.329,23.723,23.056-23.148,30.949,31.113,17.974-18.044,19.85,19.957-41.03,41.194Zm9.463-.7,42.042,42.275,30.866-30.99-11.1-11.155-17.974,18.046-30.949-31.114ZM708.84,1728.757l23.056-23.15,19.85,19.959-23.056,23.148Zm9.458-.7,11.1,11.16,12.892-12.944-11.1-11.155Zm-122.777-40.992,23.056-23.15L665,1710.582l35.947-36.088,19.85,19.957-59,59.238Zm9.458-.7,57.522,57.83,48.839-49.034L700.24,1684l-35.947,36.089-46.423-46.675Zm-94.327,23.722,23.056-23.148,30.949,31.112L582.63,1700l19.85,19.957-41.029,41.194Zm9.46-.7,42.046,42.274,30.865-30.99-11.1-11.156-17.974,18.046L533,1696.438Zm-279.537,54.206,23.056-23.15,19.85,19.959-23.056,23.149Zm9.458-.7,11.1,11.16,12.892-12.944-11.1-11.155Zm-122.777-40.992,23.056-23.15,46.423,46.67,35.947-36.088,19.85,19.957-59,59.238Zm9.458-.7,57.522,57.83,48.839-49.034-11.1-11.155-35.947,36.09L149.6,1708.24Zm-94.327,23.722,23.056-23.148,30.949,31.113,17.973-18.044,19.85,19.957-41.03,41.194Zm9.459-.7,42.046,42.275,30.865-30.989-11.1-11.156-17.974,18.046-30.949-31.114Zm1678.4-108.119,76.977-77.283,19.85,19.957-76.977,77.283Zm9.458-.7,11.1,11.159,66.812-67.078-11.1-11.16Zm-477.724,35.53,76.976-77.283,19.85,19.957-76.976,77.283Zm9.457-.7,11.1,11.158,66.811-67.077-11.1-11.16Zm-477.725,35.53,76.977-77.283,19.85,19.957-76.977,77.283Zm9.458-.7,11.1,11.158,66.807-67.077-11.094-11.16Zm-477.724,35.53,76.977-77.283,19.85,19.957-76.977,77.283Zm9.458-.7,11.1,11.159,66.807-67.077-11.094-11.16Zm1304.373-159.12-35.948,36.094-19.85-19.958,59-59.238,81.748,82.185-23.056,23.15Zm62.6,52.726,12.891-12.94-73-73.386-48.839,49.032,11.1,11.157,35.947-36.089Zm-530.871-17.9-35.948,36.094-19.85-19.959,59-59.238,81.747,82.185L1232.9,1677.8Zm62.6,52.726,12.891-12.939-73-73.387L1124.667,1631l11.1,11.157,35.947-36.089Zm-530.871-17.9-35.948,36.094-19.85-19.959,59-59.237,81.748,82.185-23.056,23.15Zm62.6,52.726,12.891-12.94-73-73.386L656.4,1665.825l11.1,11.157,35.947-36.089Zm-530.871-17.9-35.948,36.094-19.85-19.958,59-59.238,81.747,82.185-23.056,23.15Zm62.6,52.726,12.891-12.94-73-73.387-48.839,49.032,11.1,11.157,35.947-36.089Zm1523.034-192.089,23.056-23.145,65.241,65.591-23.056,23.15Zm9.458-.7,56.49,56.794,12.891-12.941-56.489-56.793Zm-477.725,35.53,23.056-23.145,65.241,65.591-23.056,23.15Zm65.947,56.091,12.891-12.941-56.49-56.792L1361.3,1579.98ZM883.573,1615.51l23.061-23.145,65.241,65.591-23.056,23.15Zm65.952,56.09,12.891-12.941-56.49-56.793-12.891,12.939Zm-534.219-21.264,23.056-23.145,65.246,65.591-23.056,23.15Zm65.952,56.09,12.886-12.94-56.49-56.792-12.886,12.939Zm-534.219-21.264,23.056-23.145,65.246,65.591-23.061,23.15Zm65.947,56.091,12.891-12.941-56.49-56.792L-43.5,1684.46ZM1686.32,1555.807l23.056-23.145,30.948,31.114,12.892-12.945-30.949-31.114,23.056-23.148,30.949,31.117,35.947-36.093,19.85,19.957-94.951,95.332Zm9.458-.7,42.047,42.275,84.786-85.123-11.1-11.155-35.947,36.089-30.949-31.114-12.891,12.939,30.949,31.114-23.056,23.149-30.948-31.113Zm-212.645,49.234,17.974-18.044-15.474-15.562,23.056-23.145,35.324,35.515-41.03,41.194Zm11.962-34.309,15.469,15.562-17.968,18.043,11.094,11.157,30.865-30.985-26.573-26.717Zm-277.042,20.6,23.056-23.145,30.949,31.114,12.892-12.945L1254,1554.545l23.056-23.148L1308,1562.514l35.947-36.092,19.85,19.957-94.951,95.332Zm9.458-.7,42.047,42.274,84.786-85.123-11.1-11.155-35.947,36.089-30.949-31.114-12.891,12.939,30.949,31.114-23.056,23.148-30.949-31.113Zm-212.645,49.235,17.973-18.044-15.474-15.562,23.055-23.145,35.324,35.515-41.03,41.194Zm11.957-34.309,15.474,15.562-17.974,18.044,11.1,11.156,30.865-30.985-26.573-26.716Zm-277.037,20.6,23.055-23.145,30.949,31.114,12.892-12.945-30.949-31.114,23.056-23.148,30.949,31.117,35.947-36.093,19.85,19.957-94.95,95.332Zm9.458-.7,42.048,42.274,84.781-85.123-11.094-11.156-35.947,36.089-30.949-31.114-12.891,12.939,30.949,31.114-23.056,23.148-30.949-31.113ZM546.6,1673.992l17.974-18.044L549.1,1640.386l23.056-23.145,35.324,35.515-41.029,41.193Zm11.957-34.309,15.474,15.562-17.973,18.044,11.1,11.157,30.865-30.984-26.573-26.717Zm-277.037,20.6,23.056-23.145,30.949,31.114,12.886-12.944L317.466,1624.2l23.056-23.148,30.949,31.117,35.947-36.093,19.85,19.957-94.951,95.332Zm9.458-.7,42.048,42.274,84.781-85.123-11.094-11.155-35.947,36.089-30.949-31.114-12.891,12.94,30.949,31.114-23.056,23.149-30.949-31.113ZM78.332,1708.818l17.974-18.044-15.474-15.561,23.056-23.145,35.324,35.515-41.03,41.193Zm11.957-34.308,15.474,15.561L87.79,1708.115l11.1,11.157,30.865-30.985L103.18,1661.57Zm1328.447-98.8,57.809-58.036,19.85,19.959-34.748,34.885,15.474,15.562-23.061,23.145Zm9.463-.7,26.568,26.717,12.891-12.94-15.474-15.561,34.753-34.885-11.1-11.157Zm-477.73,35.531,57.809-58.036,19.849,19.959-34.748,34.885,15.469,15.562-23.056,23.145Zm9.463-.7,26.568,26.717,12.891-12.939-15.474-15.561,34.748-34.885-11.094-11.157ZM482.2,1645.361l57.8-58.035,19.854,19.959L525.11,1642.17l15.472,15.561-23.055,23.145Zm9.459-.7,26.572,26.717,12.891-12.939-15.474-15.562,34.748-34.885-11.1-11.157Zm-477.726,35.53,57.8-58.035,19.85,19.959L56.843,1677l15.474,15.561L49.26,1715.7Zm9.459-.7L49.966,1706.2l12.891-12.939L47.383,1677.7l34.748-34.885-11.1-11.157Zm1529.133-113.726,41.03-41.194,19.85,19.959-41.03,41.192Zm9.458-.7,11.1,11.161,30.865-30.989-11.1-11.157Zm-477.724,35.53,41.029-41.193,19.85,19.959-41.029,41.192Zm9.458-.7,11.1,11.161,30.865-30.988-11.1-11.157Zm-477.725,35.53,41.03-41.194,19.85,19.959-41.029,41.192Zm9.458-.7,11.1,11.16,30.865-30.988-11.1-11.157Zm-477.725,35.53,41.029-41.193L208.607,1649,167.577,1690.2Zm9.458-.7,11.1,11.161,30.865-30.989-11.1-11.157Zm1636.976-221.993,23.056-23.15,15.475,15.558,35.947-36.089,35.324,35.515-23.1,23.189-15.4-16.08-12.962,13.386,26.624,26.769,35.865-35.488,19.958,19.294-59.044,59.28Zm9.458-.7,73,73.387,48.792-48.99-11.073-10.7-35.947,35.57-35.274-35.459,23.073-23.826,15.468,16.157,12.85-12.9-26.573-26.718-35.947,36.089-15.474-15.556Zm-148.248,77.856,94.95-95.327,50.8,51.071-23.056,23.15-30.949-31.114-71.895,72.178Zm9.458-.7,11.1,11.16,71.895-72.182,30.949,31.114,12.891-12.941-42.048-42.272Zm-174.2-20.46,23.056-23.148,50.8,51.071-23.056,23.149Zm9.463-.7,42.043,42.275,12.891-12.944-42.048-42.269Zm-174.2-20.458,23.056-23.15,15.474,15.558,35.947-36.089L1435.7,1474.2l-23.1,23.19-15.392-16.08-12.962,13.386,26.624,26.769,35.865-35.487,19.959,19.294-59.044,59.28Zm82.454,72.683,48.792-48.99-11.074-10.7-35.946,35.57-35.274-35.459,23.073-23.826,15.468,16.157,12.845-12.9-26.568-26.718-35.947,36.089-15.475-15.556-12.891,12.944ZM1187.1,1559.52l94.95-95.327,50.8,51.071-23.056,23.15-30.949-31.114-71.894,72.179Zm9.458-.7,11.1,11.16,71.894-72.182,30.949,31.114,12.891-12.941-42.048-42.272Zm-174.2-20.46,23.055-23.148,50.8,51.071-23.056,23.15Zm9.458-.7,42.047,42.274,12.892-12.945-42.048-42.269Zm-174.194-20.459,23.056-23.15,15.474,15.558,35.947-36.089,35.324,35.515-23.1,23.19-15.392-16.08-12.962,13.386,26.624,26.769,35.864-35.488,19.959,19.294-59.044,59.28Zm82.454,72.683,48.793-48.99-11.074-10.7-35.946,35.57L906.58,1530.3l23.073-23.826,15.468,16.157,12.845-12.9L931.4,1483.013,895.451,1519.1l-15.474-15.556-12.891,12.945Zm-221.244,4.469,94.95-95.327,50.8,51.072-23.056,23.15-30.949-31.114-71.894,72.179Zm9.458-.7,11.1,11.16,71.895-72.182,30.949,31.114,12.891-12.941-42.048-42.273Zm-174.2-20.46,23.056-23.148,50.8,51.071-23.056,23.15Zm9.458-.7,42.047,42.274,12.892-12.944-42.048-42.27Zm-174.2-20.458,23.061-23.151,15.469,15.558,35.947-36.089,35.326,35.515-23.1,23.189-15.4-16.08-12.957,13.386,26.624,26.769,35.864-35.488,19.959,19.294L471.1,1634.206ZM471.81,1624.7l48.8-48.991-11.074-10.7-35.947,35.57-35.274-35.459,23.068-23.826,15.473,16.157,12.845-12.9-26.573-26.718-35.947,36.089-15.469-15.556-12.892,12.944Zm-221.239,4.469,94.95-95.327,50.8,51.071-23.056,23.15-30.949-31.114-71.894,72.178Zm9.458-.7,11.1,11.16,71.895-72.182,30.949,31.114,12.886-12.941-42.043-42.273Zm-174.2-20.46,23.056-23.148,50.8,51.071-23.056,23.15Zm9.458-.7,42.048,42.274,12.892-12.944-42.048-42.269Zm-174.2-20.458,23.056-23.15,15.474,15.558,35.947-36.089,35.326,35.515-23.1,23.19-15.4-16.08-12.957,13.386,26.624,26.769,35.864-35.488,19.959,19.294-59.049,59.28Zm82.454,72.683,48.792-48.991-11.069-10.7L5.32,1635.411l-35.274-35.459,23.068-23.826,15.469,16.157,12.848-12.9L-5.14,1552.667l-35.947,36.089L-56.562,1573.2l-12.887,12.944Zm1602.905-147.906,23.056-23.15,19.849,19.959-23.056,23.148Zm9.458-.7,11.1,11.155,12.891-12.939-11.1-11.157Zm-477.725,35.529,23.056-23.15,19.849,19.959-23.056,23.148Zm9.458-.7,11.1,11.155,12.891-12.939-11.1-11.157Zm-477.725,35.53,23.056-23.15,19.85,19.959-23.056,23.148Zm9.458-.7,11.1,11.155,12.891-12.939-11.1-11.157ZM201.648,1616.1l23.056-23.15,19.85,19.959L221.5,1636.062Zm9.458-.7,11.1,11.155,12.891-12.939L224,1602.46Zm1346.42-116.846,76.977-77.281,50.8,51.071-23.056,23.15-30.948-31.119-53.921,54.138Zm9.458-.7,11.1,11.157L1632,1454.875l30.949,31.112,12.891-12.939-42.048-42.274Zm-477.724,35.53,76.977-77.281,50.8,51.071-23.056,23.15L1163.03,1499.2l-53.921,54.138Zm9.458-.7,11.1,11.157,53.921-54.133,30.949,31.112,12.891-12.939L1165.53,1465.6Zm-477.725,35.53,76.976-77.282,50.8,51.071-23.056,23.15-30.948-31.119-53.921,54.138Zm9.458-.7,11.1,11.157,53.921-54.133,30.949,31.112L739.31,1542.7l-42.048-42.274Zm-477.724,35.53,76.976-77.281,50.8,51.071-23.056,23.15L226.5,1568.855l-53.921,54.138Zm9.458-.7,11.1,11.157,53.921-54.133,30.949,31.112,12.891-12.939L229,1535.253ZM1511.1,1451.885l23.056-23.148,15.474,15.556,17.973-18.044,19.85,19.957-41.029,41.194Zm9.458-.7,26.574,26.713L1578,1446.909l-11.1-11.16-17.973,18.046-15.475-15.558Zm-75.321,6.717,23.056-23.15,34.3,34.478-23.061,23.149Zm9.459-.7,25.54,25.675,12.891-12.939-25.541-25.68Zm-411.863,29.517,23.056-23.148,15.474,15.556,17.974-18.043,19.85,19.957-41.029,41.194Zm9.46-.7,26.572,26.713,30.865-30.985-11.1-11.16-17.974,18.046-15.474-15.558Zm-75.323,6.717,23.056-23.15,34.292,34.479-23.056,23.148Zm9.458-.7,25.541,25.675,12.891-12.94-25.541-25.68Zm-411.861,29.516,23.056-23.148,15.475,15.556,17.973-18.044,19.85,19.957-41.03,41.194Zm9.458-.7,26.574,26.713,30.865-30.985-11.1-11.16-17.974,18.045-15.475-15.558Zm-75.321,6.716,23.056-23.15,34.292,34.478L543,1562.028Zm9.459-.7,25.539,25.675,12.891-12.94-25.541-25.68ZM106.3,1556.364l23.056-23.148,15.474,15.556,17.974-18.044,19.85,19.957-41.03,41.194Zm9.459-.7,26.572,26.713,30.865-30.985-11.1-11.16-17.974,18.046-15.474-15.558Zm-75.323,6.717,23.056-23.15,34.293,34.478-23.058,23.149Zm9.459-.7,25.539,25.675,12.891-12.939-25.541-25.68Zm1596.464-154.381,23.056-23.15,51.831,52.113-23.056,23.145ZM1698.9,1449.9l12.891-12.941-43.08-43.311-12.891,12.941Zm-520.8-7.781,23.056-23.15,51.831,52.113-23.056,23.145Zm52.538,42.607,12.891-12.941-43.08-43.311-12.891,12.941Zm-520.8-7.781,23.056-23.15,51.831,52.113-23.056,23.145Zm52.538,42.607,12.891-12.941-43.08-43.311-12.891,12.941Zm-520.8-7.781,23.056-23.15,51.831,52.113-23.056,23.145Zm52.538,42.607,12.891-12.941-43.08-43.311-12.891,12.941Zm1469.1-137.8,16.978-18.086-14.995-15.686,41.265-41.135,51.042,50.493-23.032,22.539-14.375-14.49-35.83,36Zm21.6,10.293,36-36.169,14.44,14.555,12.694-12.42-42.17-41.713-31.183,31.086,14.838,15.514-16.737,17.836Zm-489.864,24.533,16.978-18.085-15-15.686,41.265-41.135,51.038,50.493-23.029,22.539-14.375-14.49-35.83,36Zm21.6,10.293,36-36.169,14.439,14.554,12.7-12.42-42.17-41.713-31.183,31.086,14.836,15.514-16.741,17.836ZM826.67,1486.235l16.978-18.085-15-15.686,41.265-41.135,51.039,50.493-23.029,22.539-14.375-14.49-35.83,36Zm21.6,10.293,35.994-36.168,14.44,14.554,12.694-12.42-42.169-41.713-31.183,31.086,14.836,15.515-16.741,17.837ZM358.4,1521.061l16.978-18.085-15-15.686,41.265-41.135,51.038,50.493-23.029,22.539-14.375-14.49-35.83,36Zm21.6,10.293L416,1495.186l14.439,14.554,12.7-12.42-42.17-41.713-31.183,31.086,14.838,15.515-16.743,17.837ZM1880.33,1392.118l42.23-42.4,19.85,19.959-42.229,42.4Zm20.558,10.457,32.059-32.19-11.094-11.157-32.063,32.187Zm-488.823,24.37,42.228-42.4,19.85,19.959-42.229,42.4Zm20.556,10.457,32.059-32.19-11.094-11.157-32.064,32.188ZM943.8,1461.771l42.224-42.4,19.855,19.958-42.228,42.4Zm20.557,10.457,32.059-32.19-11.1-11.157-32.059,32.187ZM475.526,1496.6l42.229-42.4,19.85,19.959-42.224,42.4Zm20.562,10.457,32.059-32.19-11.1-11.157-32.059,32.187ZM7.259,1531.424l42.229-42.4,19.851,19.959-42.23,42.4Zm20.556,10.457,32.064-32.191-11.1-11.157-32.059,32.187Zm1554-129.9,111.61-112.052,19.835,19.937-111.94,114.013Zm20.422,12.108,101.6-103.482-11.114-11.177L1591.04,1411.518Zm-488.687,22.719,111.609-112.052,19.83,19.937-111.935,114.013Zm20.421,12.108,101.6-103.482-11.114-11.178-101.675,102.084ZM645.28,1481.639l111.609-112.052,19.83,19.938L664.785,1503.537Zm20.421,12.108,101.6-103.482-11.114-11.177L654.506,1481.171Zm-488.687,22.719,111.609-112.052,19.83,19.938L196.513,1538.364Zm20.42,12.108,101.6-103.482-11.114-11.177L186.24,1516Zm1282.721-107.806,59-59.237,35.324,35.515-23.056,23.148-15.475-15.556L1500,1440.724Zm20.556,10.457,35.948-36.093,15.475,15.559,12.891-12.943-26.573-26.713-48.833,49.028Zm-488.823,24.37,59-59.237,35.324,35.515-23.056,23.148-15.474-15.556-35.947,36.088Zm20.556,10.457,35.947-36.092,15.474,15.559,12.891-12.943-26.573-26.713-48.839,49.029Zm-488.823,24.37,59-59.237,35.324,35.515-23.056,23.148-15.475-15.556-35.947,36.088Zm20.556,10.457,35.947-36.092,15.474,15.559L628.49,1467.4l-26.574-26.713-48.838,49.029Zm-488.823,24.37,59-59.237,35.324,35.515-23.056,23.148-15.474-15.556L95.2,1545.2ZM95.91,1535.7l35.947-36.093,15.474,15.559,12.891-12.943-26.573-26.713-48.837,49.029Zm1587.151-163.43,58.7-59.215,36,35.507-24.379,23.152-14.81-15.486-12.362,12.781,30.984,31.149-23.051,23.145Zm51.777,41.542,12.9-12.95-30.914-31.077,22.468-23.225,15.025,15.71,13.8-13.106-27.009-26.634-48.586,49.01Zm-520.044-6.716,58.7-59.215,36,35.508-24.381,23.152-14.81-15.486-12.362,12.781,30.984,31.15-23.05,23.144Zm51.777,41.542,12.9-12.95-30.914-31.077,22.468-23.225,15.025,15.71,13.8-13.106-27.009-26.635-48.584,49.01Zm-520.044-6.716,58.7-59.215,36,35.507-24.381,23.152-14.81-15.486-12.362,12.781,30.984,31.149-23.051,23.145Zm51.777,41.542,12.9-12.95-30.913-31.077,22.468-23.226,15.025,15.71,13.8-13.106-27.009-26.634-48.586,49.01Zm-520.044-6.716,58.7-59.215,36,35.507L348.583,1476.2l-14.808-15.486-12.363,12.781,30.984,31.149-23.051,23.145Zm51.777,41.542,12.9-12.95-30.914-31.077,22.47-23.225,15.023,15.71,13.8-13.106-27.011-26.634-48.584,49.01Zm1519.669-159.757,42.107-41.1,19.548,21.189L1869,1381.748Zm20.375,13.256,32.016-32.588-11.229-12.17-32.018,31.249Zm-488.642,21.57,42.1-41.1,19.553,21.188-42.36,43.118Zm20.375,13.256,32.016-32.588-11.229-12.169-32.019,31.25Zm-488.641,21.57,42.1-41.1,19.553,21.188L932.47,1451.4Zm20.375,13.256,32.016-32.588-11.229-12.169-32.019,31.25Zm-488.641,21.57,42.1-41.1,19.553,21.188L464.2,1486.227Zm20.375,13.256,32.016-32.588-11.232-12.169-32.016,31.249Zm-488.646,21.571,42.107-41.1,19.553,21.189-42.358,43.117Zm20.38,13.256,32.011-32.588L17.8,1466.344l-32.015,31.249Zm1570.509-146.954,23.056-23.15,19.85,19.959-23.056,23.148Zm9.458-.7,11.1,11.155,12.891-12.939-11.1-11.16Zm-109.8,8.166,76.977-77.283,35.324,35.515-23.055,23.145-15.475-15.558-53.921,54.138Zm9.463-.7,11.094,11.155,53.921-54.133,15.475,15.556,12.891-12.939-26.573-26.716Zm-377.385,28.067,23.056-23.15,19.85,19.959-23.056,23.148Zm9.458-.7,11.1,11.155,12.891-12.939-11.1-11.16Zm-109.8,8.167,76.977-77.283,35.324,35.515-23.056,23.145-15.474-15.558-53.921,54.138Zm9.463-.7,11.094,11.155,53.921-54.133,15.474,15.556,12.891-12.939-26.573-26.716ZM630.989,1433.8l23.056-23.15,19.85,19.959-23.056,23.148Zm9.458-.7,11.1,11.155,12.891-12.939-11.1-11.16Zm-109.8,8.166,76.977-77.283,35.324,35.515-23.055,23.145-15.475-15.558L550.5,1461.22Zm9.459-.7,11.1,11.155,53.921-54.133,15.475,15.556,12.891-12.939-26.573-26.716Zm-377.382,28.067,23.056-23.15,19.85,19.959-23.056,23.148Zm9.458-.7,11.1,11.155,12.891-12.939-11.1-11.16Zm-109.8,8.166,76.977-77.283,35.324,35.515-23.056,23.145-15.474-15.558-53.921,54.138Zm9.459-.7,11.1,11.155,53.921-54.133,15.474,15.556,12.891-12.939-26.573-26.716Zm1747.878-147.818,76.977-77.283,50.8,51.071-23.056,23.15-30.948-31.118-53.921,54.136Zm9.458-.7,11.1,11.155,53.921-54.133L1925.142,1315l12.886-12.94-42.042-42.273Zm-477.724,35.53,76.977-77.283,50.8,51.071-23.056,23.15-30.948-31.117-53.921,54.137Zm20.557,10.452,53.921-54.133,30.949,31.114,12.886-12.941-42.043-42.273-66.812,67.078Zm-488.829,24.375,76.982-77.283,50.8,51.071L987.9,1394.16l-30.944-31.118-53.921,54.136Zm20.562,10.452,53.921-54.133,30.944,31.114,12.891-12.941-42.043-42.273-66.812,67.077ZM414.91,1432.048l76.977-77.283,50.8,51.071-23.056,23.15-30.949-31.117-53.921,54.136Zm20.557,10.452,53.921-54.133,30.949,31.114,12.891-12.941-42.048-42.273-66.807,67.077Zm-488.824,24.374,76.977-77.283,50.8,51.071-23.058,23.15-30.949-31.118-53.921,54.136Zm20.557,10.452,53.921-54.133,30.949,31.114,12.891-12.941-42.048-42.273-66.807,67.077Zm1589.847-195.944,23.056-23.148,46.423,46.675,125.815-126.317,66.273,66.629-23.056,23.148-46.423-46.67-30.865,30.985,12.132,12.193,17.973-18.045,19.85,19.958-41.029,41.194-31.981-32.152-71.894,72.179Zm9.458-.7,57.522,57.831,71.894-72.177,31.981,32.151,30.865-30.988-11.1-11.157-17.973,18.045-20.882-21,41.03-41.194,46.423,46.675,12.89-12.944-57.52-57.83-125.815,126.315-46.423-46.67Zm-477.724,35.53,23.055-23.148,46.423,46.675,125.816-126.317,66.273,66.629-23.056,23.148-46.423-46.67L1250,1287.511l12.132,12.193,17.973-18.045,19.85,19.958-41.029,41.194-31.981-32.152-71.894,72.179Zm9.459-.7,57.52,57.831,71.894-72.177,31.982,32.151,30.86-30.988-11.094-11.157-17.973,18.046-20.882-21,41.03-41.193L1328,1293.7l12.891-12.945-57.522-57.83-125.815,126.315-46.423-46.67Zm-477.726,35.53,23.056-23.148,46.423,46.675,125.816-126.317,66.273,66.629-23.056,23.148-46.423-46.67-30.865,30.985,12.131,12.193,17.974-18.045,19.85,19.959-41.029,41.194-31.981-32.152-71.894,72.179Zm9.458-.7,57.522,57.83,71.894-72.177,31.981,32.15,30.86-30.988-11.094-11.157-17.974,18.045-20.882-21,41.03-41.194,46.423,46.675,12.892-12.944-57.522-57.83L689.286,1384.062l-46.423-46.67Zm-477.725,35.53,23.056-23.148,46.423,46.675,125.815-126.317,66.273,66.629-23.056,23.148-46.423-46.67-30.865,30.985,12.128,12.194,17.974-18.046,19.853,19.959-41.033,41.194-31.978-32.153L218.52,1452.49Zm9.458-.7,57.522,57.83,71.894-72.177,31.978,32.151,30.863-30.988-11.1-11.157-17.974,18.045-20.879-21,41.03-41.194,46.423,46.675,12.887-12.944-57.517-57.831L221.019,1418.889l-46.423-46.67Zm1593.5-85.072,23.158-23.252,14.542,15.644,36.878-36.668,19.836,20.322-60.073,57.621Zm9.513-.76,25.6,25.094,49.771-47.74-11.076-11.35-36.984,36.775-14.519-15.616Zm-477.78,35.587,23.158-23.252,14.542,15.644,36.878-36.668,19.836,20.322-60.073,57.621Zm9.515-.761,25.6,25.094,49.766-47.739-11.071-11.351-36.984,36.775-14.518-15.616ZM818.674,1369.74l23.158-23.252,14.542,15.643,36.878-36.668,19.836,20.322-60.073,57.621Zm9.515-.761,25.593,25.094,49.769-47.74-11.071-11.351L855.5,1371.757l-14.523-15.615ZM350.4,1404.566l23.161-23.252,14.542,15.643,36.878-36.668,19.836,20.322-60.073,57.621Zm9.518-.761,25.593,25.094,49.769-47.74-11.071-11.351-36.984,36.775-14.523-15.615Zm1534.1-180.9,23.056-23.148,66.273,66.629-23.058,23.148Zm9.458-.7,57.52,57.83,12.888-12.942-57.517-57.828Zm-477.73,35.53,23.061-23.148,66.273,66.629-23.06,23.149Zm66.98,57.127,12.892-12.943-57.517-57.828-12.891,12.939Zm-535.247-22.3,23.056-23.148,66.273,66.629-23.056,23.148Zm66.98,57.127,12.892-12.943-57.522-57.827-12.886,12.939Zm-535.246-22.3,23.056-23.148,66.275,66.629-23.058,23.148Zm66.98,57.127,12.892-12.943-57.522-57.827L498.68,1326.68Zm-535.246-22.3,23.056-23.148,66.275,66.629-23.058,23.148Zm66.98,57.127,12.891-12.943L43.3,1348.567l-12.89,12.94Zm1419-149.822,78.172-78.485,35.324,35.515-23.056,23.15-15.474-15.558-55.115,55.337Zm9.459-.7,11.1,11.157,55.115-55.337,15.474,15.558,12.891-12.941-26.573-26.716Zm-477.729,35.53,78.175-78.485,35.324,35.515-23.056,23.15-15.474-15.558-55.12,55.337Zm9.462-.7,11.094,11.157,55.12-55.337,15.475,15.558,12.891-12.941-26.573-26.716Zm-477.729,35.53,78.176-78.486,35.324,35.515-23.056,23.15-15.474-15.558-55.12,55.337Zm9.463-.7,11.094,11.157,55.12-55.337,15.474,15.558,12.891-12.941-26.573-26.716ZM102.125,1374,180.3,1295.51l35.324,35.515-23.056,23.15-15.474-15.558-55.12,55.337Zm9.458-.7,11.1,11.157,55.12-55.337,15.474,15.558,12.891-12.941-26.573-26.716Zm1684.6-176.525,23.056-23.15,66.273,66.629-23.056,23.148Zm66.98,57.127,12.891-12.944-57.522-57.83-12.891,12.945Zm-254.693,6.957,59-59.237,19.85,19.957-59,59.237Zm9.458-.7,11.1,11.16,48.839-49.034-11.1-11.16Zm-290.012-28.554,23.056-23.15,66.273,66.629-23.056,23.148Zm66.98,57.127,12.887-12.944-57.517-57.831-12.891,12.944Zm-254.692,6.957,59-59.237,19.85,19.957-59,59.237Zm9.458-.7,11.1,11.16L1209.6,1257.1l-11.1-11.161ZM859.648,1266.42l23.056-23.15,66.273,66.629-23.056,23.148Zm66.98,57.127,12.886-12.944L882,1252.772l-12.891,12.944ZM671.935,1330.5l59-59.237,19.85,19.957-59,59.237Zm9.458-.7,11.1,11.16,48.839-49.034-11.1-11.16Zm-290.017-28.553,23.061-23.15,66.273,66.629-23.061,23.149Zm66.98,57.127,12.892-12.944L413.73,1287.6l-12.892,12.944Zm-254.687,6.956,59-59.238,19.85,19.958-59,59.237Zm9.458-.7,11.1,11.16,48.839-49.034-11.1-11.16Zm-290.017-28.553,23.056-23.15,66.275,66.629L-10.618,1402.7Zm9.463-.7,57.517,57.83L2.98,1380.256l-57.522-57.83Zm1513.656-129.284,23.061-23.149,50.8,51.072-23.061,23.15Zm9.463-.7,42.043,42.27,12.891-12.939-42.042-42.275Zm-477.73,35.531,23.056-23.148,50.8,51.072-23.056,23.15Zm9.463-.7,42.043,42.27,12.891-12.939-42.048-42.274Zm-477.729,35.53,23.056-23.148,50.8,51.071-23.056,23.15Zm9.459-.7L561.2,1317.3l12.891-12.939-42.047-42.274Zm-477.726,35.53,23.056-23.149,50.8,51.071-23.058,23.15Zm9.459-.7,42.046,42.269,12.891-12.939-42.048-42.274ZM1832.1,1160.7l41.058-41.226,35.288,35.485-17.974,18.558,15.631,15.113-23.143,21.891Zm9.518-.763,42.143,41.285,12.638-11.956-15.4-14.885,18.057-18.651-26.6-26.748Zm-477.785,35.589,41.058-41.226,35.288,35.485-17.974,18.558,15.631,15.113-23.143,21.891Zm51.661,40.522,12.637-11.956-15.4-14.885,18.057-18.651-26.6-26.749-30.836,30.956Zm-519.931-5.7,41.062-41.226,35.288,35.485-17.974,18.558,15.632,15.113-23.143,21.891Zm51.664,40.522,12.638-11.956-15.4-14.885,18.057-18.651-26.6-26.749L905.081,1229.6Zm-519.931-5.7,41.057-41.225,35.293,35.484L485.672,1278l15.632,15.113L478.161,1315Zm51.664,40.522L491.6,1293.75l-15.4-14.885,18.057-18.651-26.609-26.748-30.831,30.956Zm-519.931-5.7L.086,1258.785l35.293,35.484-17.974,18.558,15.631,15.113L9.895,1349.831Zm51.664,40.522,12.638-11.956-15.4-14.885,18.057-18.651L-.621,1268.292l-30.831,30.956Zm1669.669-151.861,23.056-23.148,19.85,19.957-23.056,23.145Zm9.458-.7,11.1,11.157,12.891-12.941-11.1-11.158Zm-122.777-40.995,23.056-23.15,46.423,46.675,35.948-36.092,19.85,19.957-59,59.238Zm9.458-.7,57.522,57.831,48.839-49.034-11.1-11.155L1635.816,1180l-46.423-46.672Zm-94.328,23.722,23.056-23.148,30.948,31.117,17.973-18.043L1574,1179.87l-41.03,41.193Zm9.463-.7,42.043,42.275,30.865-30.99-11.1-11.155-17.974,18.046-30.949-31.114ZM1212.1,1223.5l23.056-23.148,19.85,19.957-23.056,23.145Zm9.458-.7,11.1,11.157,12.891-12.941-11.1-11.158ZM1098.777,1181.8l23.056-23.15,46.423,46.675,35.948-36.093,19.85,19.957-59,59.238Zm9.46-.7,57.52,57.831,48.839-49.034-11.1-11.155-35.947,36.089-46.423-46.672Zm-94.329,23.723,23.056-23.148,30.948,31.117,17.974-18.044,19.85,19.952-41.03,41.194Zm9.463-.7,42.043,42.275,30.865-30.99-11.1-11.155-17.974,18.046-30.949-31.114Zm-279.541,54.21,23.056-23.148,19.85,19.957-23.056,23.145Zm9.458-.7,11.1,11.157,12.891-12.942-11.1-11.158ZM630.51,1216.627l23.056-23.15,46.423,46.675,35.947-36.092,19.85,19.957-59,59.238Zm9.458-.7,57.522,57.83,48.839-49.034-11.1-11.155-35.947,36.089-46.423-46.672Zm-94.327,23.723L568.7,1216.5l30.949,31.117,17.973-18.044,19.85,19.952-41.03,41.194Zm9.459-.7,42.046,42.274,30.865-30.99-11.1-11.155-17.973,18.046L567.99,1226Zm-279.538,54.209L298.618,1270l19.85,19.957-23.056,23.145Zm9.458-.7,11.1,11.157,12.891-12.941-11.1-11.159Zm-122.777-40.995L185.3,1228.3l46.423,46.675,35.947-36.092,19.85,19.957-59,59.237Zm9.458-.7,57.522,57.831,48.839-49.034-11.1-11.155-35.947,36.089-46.423-46.672Zm-94.327,23.723,23.056-23.148,30.949,31.117,17.974-18.044,19.85,19.952-41.03,41.194Zm9.459-.7,42.046,42.275,30.865-30.99-11.1-11.155-17.974,18.046L99.723,1260.83Zm1678.4-108.121,76.977-77.281,19.85,19.957-76.977,77.283Zm9.458-.7,11.1,11.16,66.812-67.078-11.1-11.155Zm-477.724,35.53,76.976-77.281,19.85,19.957-76.977,77.283Zm9.458-.7,11.1,11.16,66.81-67.078-11.1-11.155ZM828.7,1235.3l76.977-77.282,19.85,19.957-76.977,77.283Zm9.458-.7,11.1,11.16,66.807-67.077-11.094-11.156Zm-477.724,35.53,76.977-77.281,19.85,19.957-76.977,77.283Zm9.458-.7,11.1,11.16,66.807-67.077L436.7,1202.351ZM1674.263,1110.31l-35.947,36.09-19.85-19.959,59-59.238,81.747,82.185-23.056,23.148Zm62.6,52.726,12.891-12.944-73-73.386-48.838,49.032,11.1,11.157,35.947-36.089ZM1206,1145.136l-35.948,36.09-19.85-19.959,59-59.238,81.748,82.185-23.056,23.149Zm62.6,52.726,12.892-12.944-73-73.386-48.839,49.032,11.1,11.157,35.947-36.089Zm-530.871-17.9-35.947,36.09-19.85-19.959,59-59.237,81.748,82.185-23.056,23.149Zm62.6,52.726,12.892-12.944-73-73.386L691.39,1195.39l11.1,11.157,35.947-36.089Zm-530.871-17.9-35.947,36.089-19.85-19.959,59-59.238,81.747,82.185-23.056,23.148Zm62.6,52.726,12.891-12.944-73-73.386-48.839,49.032,11.1,11.157,35.947-36.09ZM1855.1,1075.427l23.056-23.15,65.241,65.591-23.056,23.15Zm9.458-.7,56.49,56.792,12.891-12.945-56.49-56.792Zm-477.724,35.53,23.056-23.15,65.241,65.59-23.056,23.15Zm65.947,56.088,12.891-12.944-56.49-56.792-12.891,12.944Zm-534.219-21.261,23.061-23.15,65.241,65.591-23.056,23.15Zm65.953,56.088,12.891-12.944-56.49-56.792-12.891,12.944ZM450.3,1179.907l23.056-23.15,65.246,65.591-23.056,23.15ZM516.248,1236l12.886-12.944-56.49-56.792L459.758,1179.2Zm-534.219-21.262,23.056-23.15,65.246,65.591-23.061,23.15Zm65.947,56.088,12.892-12.944-56.49-56.792-12.89,12.944Zm1673.333-185.446,23.056-23.148,30.949,31.114L1788.2,1080.4l-30.949-31.112,23.056-23.15,30.949,31.114,35.947-36.089,19.85,19.959-94.95,95.327Zm9.458-.7,42.048,42.271,84.786-85.118-11.1-11.16-35.947,36.09-30.949-31.114-12.891,12.944,30.949,31.112-23.056,23.15-30.948-31.117ZM1518.122,1133.9l17.974-18.044-15.474-15.558,23.056-23.148L1579,1112.668l-41.03,41.194Zm11.962-34.305,15.469,15.558-17.969,18.043,11.094,11.157,30.864-30.985-26.573-26.716Zm-277.042,20.6,23.056-23.148,30.949,31.114,12.891-12.941-30.948-31.112,23.056-23.15,30.949,31.114,35.947-36.089,19.85,19.959-94.951,95.327Zm9.458-.7,42.048,42.271,84.786-85.118-11.1-11.16-35.947,36.09-30.949-31.114-12.891,12.944,30.949,31.113-23.056,23.15-30.948-31.117Zm-212.645,49.231,17.973-18.044-15.474-15.558,23.056-23.148,35.324,35.515-41.03,41.194Zm11.957-34.3,15.474,15.558-17.974,18.044,11.1,11.157,30.865-30.985-26.573-26.716Zm-277.037,20.6,23.056-23.148,30.949,31.114,12.891-12.941-30.949-31.113,23.056-23.15,30.949,31.114,35.947-36.089,19.85,19.959-94.95,95.327Zm9.458-.7,42.048,42.271,84.78-85.118-11.094-11.16-35.947,36.089-30.949-31.114-12.891,12.944,30.949,31.112-23.056,23.15-30.949-31.117Zm-212.645,49.231,17.974-18.044-15.474-15.558,23.056-23.149,35.324,35.515-41.029,41.194Zm11.957-34.305,15.474,15.558-17.973,18.044,11.1,11.157,30.865-30.985-26.573-26.716Zm-277.037,20.6,23.056-23.148,30.949,31.114,12.886-12.941-30.944-31.113,23.056-23.15,30.949,31.114,35.947-36.09,19.85,19.959-94.95,95.327Zm9.458-.7,42.048,42.271,84.78-85.118-11.094-11.16-35.947,36.089L374.8,1140.12l-12.892,12.944,30.949,31.113-23.056,23.15-30.949-31.117Zm-212.645,49.231,17.974-18.044-15.474-15.558,23.056-23.148,35.324,35.515-41.03,41.194Zm11.957-34.3,15.474,15.557-17.974,18.044,11.1,11.157,30.865-30.985-26.573-26.716Zm1328.447-98.8,57.809-58.033,19.85,19.957-34.748,34.885,15.474,15.558-23.061,23.148Zm9.463-.7,26.568,26.714,12.891-12.939-15.474-15.558,34.753-34.885-11.1-11.16ZM985.458,1140.1l57.809-58.034,19.85,19.957-34.748,34.885,15.469,15.558-23.056,23.148Zm9.463-.7,26.568,26.714,12.891-12.94-15.474-15.558,34.748-34.885-11.094-11.16Zm-477.729,35.53L575,1116.9l19.855,19.957L560.1,1171.739l15.473,15.558-23.056,23.148Zm9.459-.7,26.572,26.713L566.113,1188l-15.474-15.558,34.748-34.885-11.1-11.16Zm-477.726,35.53,57.8-58.033,19.85,19.957-34.746,34.885,15.474,15.558-23.058,23.149Zm9.459-.7,26.572,26.713,12.891-12.939-15.474-15.558,34.748-34.885-11.1-11.16Zm1529.133-113.727,41.03-41.192,19.85,19.957-41.03,41.193Zm9.457-.7,11.1,11.157,30.865-30.985-11.1-11.16Zm-477.724,35.53,41.029-41.192,19.85,19.957-41.03,41.194Zm9.458-.7,11.1,11.157,30.865-30.985-11.1-11.16Zm-477.725,35.53,41.029-41.192,19.85,19.957-41.03,41.193Zm9.458-.7,11.1,11.156,30.865-30.985-11.1-11.16Zm-477.725,35.53,41.029-41.192,19.85,19.957-41.03,41.194Zm9.458-.7,11.1,11.157,30.865-30.985-11.1-11.16Zm1636.977-222,23.056-23.15,15.475,15.558,35.947-36.09,35.324,35.515-23.1,23.189-15.4-16.081L1887.5,989.437l26.624,26.769,35.865-35.488,19.958,19.294-59.044,59.281Zm9.458-.7,73,73.386L1960.4,1000.8l-11.073-10.7-35.947,35.575L1878.1,990.211l23.073-23.823,15.468,16.154,12.85-12.9-26.573-26.713-35.947,36.089L1851.5,963.462Zm-148.248,77.86,94.95-95.332,50.8,51.071-23.056,23.15-30.948-31.114-71.895,72.179Zm9.458-.7,11.1,11.155,71.895-72.182,30.948,31.118,12.892-12.945L1784.6,968.437Zm-174.2-20.465,23.056-23.148,50.8,51.076-23.056,23.145Zm9.463-.7,42.042,42.274,12.891-12.94-42.048-42.274Zm-174.2-20.459,23.056-23.15,15.474,15.558,35.947-36.09,35.324,35.515-23.1,23.19-15.392-16.082-12.963,13.389,26.624,26.769,35.864-35.488,19.959,19.294-59.044,59.281Zm82.454,72.683,48.792-48.987-11.073-10.7L1445.11,1060.5l-35.273-35.462,23.073-23.823,15.468,16.154,12.845-12.9-26.569-26.713-35.947,36.089-15.475-15.558-12.891,12.941Zm-221.245,4.474,94.95-95.332,50.8,51.071-23.056,23.15-30.949-31.114-71.894,72.179Zm9.458-.7,11.1,11.156,71.895-72.182,30.949,31.117,12.891-12.945-42.048-42.269Zm-174.2-20.465,23.056-23.148,50.8,51.076-23.056,23.146Zm9.458-.7,42.047,42.274,12.891-12.94-42.048-42.274Zm-174.194-20.459,23.056-23.15,15.474,15.558,35.947-36.089,35.324,35.515-23.1,23.19L963.924,1045.7l-12.962,13.388,26.624,26.769,35.864-35.488,19.959,19.294-59.044,59.281Zm82.454,72.683,48.792-48.987-11.073-10.7-35.947,35.574-35.274-35.462,23.073-23.823,15.468,16.154,12.845-12.9-26.568-26.713-35.947,36.089-15.474-15.558-12.891,12.941Zm-221.245,4.474,94.951-95.331,50.8,51.071-23.056,23.15-30.949-31.114-71.894,72.179Zm9.458-.7,11.1,11.155,71.895-72.182,30.948,31.117,12.892-12.944L848.07,1038.09Zm-174.2-20.465,23.056-23.149,50.8,51.076-23.056,23.145Zm9.458-.7,42.048,42.274,12.891-12.939-42.048-42.274Zm-174.2-20.458,23.061-23.15,15.469,15.558,35.947-36.09,35.326,35.515-23.1,23.189-15.4-16.081-12.957,13.388,26.624,26.768,35.864-35.487,19.959,19.294-59.049,59.281Zm82.454,72.683,48.8-48.988-11.073-10.7-35.947,35.575L473.3,1094.69l23.068-23.822,15.473,16.153,12.845-12.9-26.574-26.713L462.168,1083.5,446.7,1067.942l-12.891,12.941Zm-221.24,4.473,94.951-95.331,50.8,51.071-23.056,23.15L377.3,1106.518,305.41,1178.7Zm9.458-.7,11.1,11.155,71.895-72.182,30.949,31.118,12.886-12.944L379.8,1072.917Zm-174.2-20.465,23.056-23.148,50.8,51.076-23.056,23.145Zm9.458-.7,42.048,42.274,12.891-12.94-42.048-42.274Zm-174.2-20.458,23.056-23.15,15.474,15.558,35.947-36.089,35.326,35.515-23.1,23.189-15.4-16.082-12.958,13.388,26.624,26.769,35.864-35.487,19.959,19.294L37.826,1198.6ZM38.532,1189.1l48.792-48.987-11.068-10.7-35.947,35.575L5.036,1129.516,28.1,1105.694l15.47,16.154,12.848-12.9-26.573-26.713L-6.1,1118.326l-15.474-15.558-12.886,12.94ZM1641.438,1041.19l23.056-23.145,19.85,19.954-23.056,23.148Zm9.458-.7,11.1,11.16,12.891-12.944-11.1-11.157Zm-477.725,35.53,23.056-23.145,19.85,19.954-23.056,23.148Zm9.458-.7,11.1,11.16,12.891-12.944-11.1-11.157ZM704.9,1110.843,727.96,1087.7l19.85,19.954L724.754,1130.8Zm9.458-.7,11.1,11.16,12.891-12.944-11.1-11.157Zm-477.725,35.53,23.056-23.145,19.85,19.954-23.056,23.148Zm9.458-.7,11.1,11.16,12.892-12.944-11.1-11.157ZM1592.516,1028.12l76.977-77.281,50.8,51.071-23.056,23.148-30.949-31.112-53.921,54.133Zm9.458-.7,11.1,11.16,53.921-54.138,30.948,31.119,12.891-12.944-42.048-42.269Zm-477.724,35.53,76.977-77.281,50.8,51.071-23.056,23.148-30.949-31.112-53.921,54.133Zm9.458-.7,11.1,11.16,53.921-54.138,30.948,31.119,12.891-12.944-42.047-42.269Zm-477.725,35.53,76.977-77.281,50.8,51.071L760.7,1094.711,729.752,1063.6l-53.921,54.133Zm9.458-.7,11.1,11.16,53.921-54.138,30.948,31.119,12.892-12.944L732.251,1030ZM187.715,1132.6l76.977-77.281,50.8,51.071-23.056,23.148-30.949-31.112-53.921,54.133Zm9.458-.7,11.1,11.16,53.921-54.138,30.949,31.119,12.891-12.944-42.048-42.269ZM1546.092,981.45l23.056-23.148,15.475,15.556,17.973-18.044,19.85,19.957-41.029,41.194Zm9.458-.7,26.573,26.713,30.865-30.985-11.1-11.155-17.973,18.044-15.475-15.556Zm-75.321,6.717,23.056-23.15,34.3,34.478-23.061,23.149Zm9.459-.7,25.539,25.675,12.891-12.939-25.541-25.68Zm-411.863,29.517,23.056-23.148,15.474,15.556,17.974-18.044,19.85,19.957-41.03,41.194Zm9.459-.7,26.572,26.713,30.865-30.985-11.1-11.155-17.973,18.044-15.474-15.556Zm-75.323,6.717,23.056-23.15,34.292,34.478-23.056,23.148Zm9.458-.7,25.541,25.675,12.891-12.939-25.541-25.68ZM609.558,1051.1l23.056-23.148,15.475,15.556,17.973-18.044,19.85,19.957-41.029,41.194Zm9.458-.7,26.574,26.713,30.865-30.985-11.1-11.155-17.973,18.044-15.475-15.556Zm-75.321,6.717,23.056-23.15,34.292,34.478-23.056,23.148Zm9.459-.7,25.539,25.675,12.891-12.939-25.541-25.68Zm-411.862,29.516,23.056-23.148,15.474,15.556,17.974-18.044,19.85,19.957-41.03,41.194Zm9.459-.7,26.572,26.713,30.865-30.985-11.1-11.155-17.974,18.044-15.474-15.556Zm-75.323,6.717,23.056-23.15,34.293,34.478-23.058,23.148Zm9.459-.7,25.539,25.675,12.891-12.939-25.541-25.68ZM1681.351,936.861l23.056-23.148,51.831,52.108-23.056,23.15Zm52.538,42.6,12.891-12.94-43.08-43.311-12.891,12.944Zm-520.805-7.776,23.056-23.148,51.831,52.108-23.056,23.15Zm52.538,42.6,12.891-12.939-43.079-43.311-12.892,12.944Zm-520.805-7.776,23.056-23.148,51.831,52.108-23.056,23.15Zm52.538,42.6,12.891-12.939-43.08-43.311-12.891,12.944Zm-520.8-7.776,23.056-23.148,51.831,52.108-23.056,23.15Zm52.538,42.6L341.98,1071l-43.08-43.311-12.892,12.944Zm1469.1-137.791,16.978-18.091-14.995-15.683,41.265-41.138,51.042,50.492-23.032,22.539-14.374-14.492-35.831,36.008Zm21.6,10.288,36-36.169,14.439,14.558,12.694-12.423-42.17-41.712-31.183,31.086,14.838,15.514-16.737,17.836Zm-489.864,24.538,16.978-18.091-15-15.683,41.265-41.138,51.038,50.493L1401.184,979.1l-14.374-14.492-35.831,36.008Zm21.6,10.288,36-36.169,14.439,14.558,12.7-12.423-42.17-41.713L1341.3,946.606l14.836,15.514L1339.4,979.957ZM861.659,1015.8l16.978-18.091-15-15.683,41.265-41.138,51.038,50.493-23.029,22.539-14.375-14.492-35.83,36.008Zm21.6,10.288,35.994-36.169,14.439,14.558,12.694-12.423-42.169-41.712-31.183,31.086,14.836,15.514-16.741,17.836Zm-489.866,24.538,16.978-18.091-15-15.683,41.265-41.138,51.038,50.493-23.029,22.539-14.375-14.492-35.83,36.008Zm21.6,10.288,35.994-36.169,14.439,14.558,12.7-12.424-42.17-41.713-31.183,31.086,14.838,15.514-16.743,17.837Zm572.258-61.109,42.225-42.4,19.855,19.959-42.23,42.391Zm9.459-.7,11.1,11.156,32.06-32.187-11.1-11.16Zm918.61-77.419,42.23-42.4,19.85,19.957-42.228,42.393Zm20.559,10.452,32.059-32.187-11.094-11.16-32.063,32.192Zm-488.824,24.375,42.228-42.4,19.85,19.957L1466.9,976.469Zm20.557,10.452,32.059-32.187-11.093-11.161-32.064,32.192Zm-957.1,59.2,42.229-42.4,19.85,19.957-42.224,42.393Zm20.562,10.451,32.059-32.187-11.1-11.16-32.059,32.192ZM42.248,1060.995l42.228-42.4,19.852,19.957L62.1,1080.949ZM62.8,1071.446l32.064-32.187-11.1-11.16-32.059,32.192Zm1554-129.9L1728.411,829.5l19.834,19.938-111.94,114.017Zm20.422,12.106L1738.818,850.18,1727.7,839,1626.03,941.083Zm-488.687,22.72,111.609-112.054,19.83,19.939L1168.04,998.279Zm20.421,12.106,101.6-103.477-11.114-11.176L1157.763,975.909ZM680.269,1011.2,791.878,899.15l19.83,19.939L699.774,1033.106Zm20.421,12.106,101.6-103.477-11.114-11.176L689.5,1010.736ZM212,1046.03,323.611,933.976l19.83,19.939L231.5,1067.932Zm20.421,12.106,101.6-103.477L322.9,943.484,221.229,1045.562Zm1282.721-107.8,59-59.237,35.324,35.515-23.055,23.145L1570.941,934.2l-35.948,36.094Zm20.556,10.453,35.947-36.089,15.475,15.556,12.891-12.939L1573.44,900.6l-48.834,49.032Zm-488.823,24.373,59-59.237L1141.2,961.44l-23.056,23.145-15.474-15.558-35.948,36.095Zm20.557,10.453,35.947-36.089,15.474,15.556,12.891-12.94-26.573-26.716-48.839,49.032Zm-488.824,24.373,59-59.237,35.324,35.515-23.056,23.145-15.474-15.558-35.948,36.094Zm20.557,10.453,35.947-36.089,15.475,15.556,12.891-12.939-26.573-26.716-48.839,49.032Zm-488.823,24.373,59-59.237,35.324,35.515-23.056,23.145L166.14,1038.68l-35.948,36.094Zm20.557,10.453,35.947-36.089,15.474,15.556,12.891-12.939-26.573-26.716L119.8,1054.112ZM1718.05,901.839l58.7-59.215,36,35.511-24.379,23.152-14.81-15.49L1761.2,898.578l30.984,31.153-23.051,23.141Zm51.777,41.546,12.9-12.95-30.914-31.077,22.468-23.23,15.025,15.71,13.8-13.1L1776.1,852.1l-48.586,49.01Zm-520.043-6.719,58.7-59.215,36,35.511-24.381,23.152-14.81-15.49L1292.934,933.4l30.984,31.153L1300.868,987.7Zm51.776,41.546,12.9-12.95-30.914-31.077,22.468-23.23,15.025,15.71,13.8-13.1-27.009-26.638-48.584,49.01Zm-520.043-6.719,58.7-59.215,36,35.511L851.839,970.94l-14.81-15.49-12.362,12.781,30.984,31.153-23.05,23.141Zm51.776,41.546,12.9-12.95L815.28,969.011l22.468-23.23,15.025,15.71,13.8-13.1-27.009-26.638-48.586,49.01Zm-520.043-6.719,58.7-59.215,36,35.511-24.381,23.152-14.808-15.49L356.4,1003.058l30.984,31.153-23.05,23.141Zm51.777,41.546,12.9-12.95-30.914-31.077,22.47-23.23,15.023,15.71,13.8-13.1L371.3,956.578l-48.584,49.01Zm583.135-90.1,42.1-41.1,34.065,35.706-40.957,41.709Zm10.547-1.661,25.74,28.031,30.614-31.188-25.739-26.684ZM1884.7,888.108l42.107-41.1,19.548,21.189-42.358,43.114Zm20.375,13.255,32.016-32.591-11.229-12.166-32.018,31.246Zm-488.642,21.572,42.1-41.1,19.554,21.188-42.36,43.114Zm20.375,13.255,32.016-32.591-11.229-12.166-32.018,31.246Zm-956.908,56.4,42.1-41.1,19.553,21.188-42.358,43.114Zm20.375,13.255,32.016-32.591-11.232-12.166-32.015,31.246ZM11.623,1027.415l42.107-41.1L73.283,1007.5l-42.358,43.114ZM32,1040.669l32.011-32.591L52.787,995.912l-32.015,31.246Zm1010.363-96.2,76.977-77.281,35.324,35.515-23.056,23.148-15.474-15.556-53.921,54.133Zm9.463-.7,11.094,11.161,53.921-54.138,15.474,15.558,12.891-12.939-26.573-26.713Zm550.683-50.053,23.056-23.15,19.85,19.959-23.056,23.148Zm9.458-.7,11.1,11.16,12.892-12.944-11.1-11.157Zm-109.8,8.166,76.977-77.283,35.324,35.515-23.055,23.148L1575.939,867l-53.92,54.133Zm9.463-.7,11.094,11.16,53.921-54.138,15.475,15.556,12.891-12.94L1578.438,833.4Zm-377.386,28.067,23.056-23.15,19.85,19.959L1154.1,948.5Zm9.458-.7,11.1,11.16,12.892-12.944-11.1-11.157Zm-477.725,35.53,23.056-23.15,19.85,19.959-23.056,23.148Zm9.458-.7,11.1,11.16,12.892-12.944-11.1-11.157Zm-109.8,8.166,76.977-77.283,35.324,35.515L654.88,952.208,639.4,936.652l-53.921,54.133Zm9.459-.7,11.1,11.16,53.921-54.138L655.587,942.7l12.891-12.939L641.9,903.05ZM197.712,998.191l23.056-23.15L240.618,995l-23.056,23.148Zm9.458-.7,11.1,11.16L231.16,995.7l-11.1-11.157Zm-109.8,8.166,76.977-77.283,35.324,35.515-23.056,23.148-15.474-15.556-53.921,54.133Zm9.459-.7,11.1,11.16,53.921-54.138,15.474,15.556,12.891-12.94-26.573-26.713ZM991.942,892.61l-53.921,54.133-19.855-19.957L995.148,849.5l66.518,66.8-23.061,23.15Zm47.37,37.34,12.892-12.944-57.763-58-66.812,67.078,11.1,11.16L992.649,883.1Zm815.393-72.818,76.977-77.283,50.8,51.073-23.056,23.148-30.948-31.114-53.921,54.133Zm9.458-.7,11.1,11.16,53.921-54.138,30.948,31.117,12.886-12.943-42.042-42.274Zm-477.724,35.53,76.977-77.283,50.8,51.073L1491.158,888.9l-30.949-31.114-53.921,54.133Zm20.557,10.457,53.921-54.138,30.948,31.117,12.886-12.942-42.042-42.274L1395.9,891.256Zm-957.1,59.2,76.977-77.283,50.8,51.073-23.056,23.148L523.67,927.437,469.749,981.57Zm20.556,10.457,53.921-54.138,30.949,31.117,12.891-12.943L526.17,893.832l-66.807,67.077Zm-488.823,24.37,76.977-77.283,50.8,51.073L86.352,993.378,55.4,962.264,1.483,1016.4ZM2.189,1006.9,56.11,952.758l30.949,31.117L99.95,970.933,57.9,928.658-8.9,995.736ZM1592.036,810.952l23.056-23.15,46.423,46.67,125.815-126.315L1853.6,774.79l-23.056,23.145-46.423-46.67-30.865,30.988,12.131,12.193,17.973-18.044,19.85,19.957-41.03,41.194L1730.2,805.4l-71.895,72.182Zm9.458-.7,57.522,57.825,71.894-72.177,31.981,32.151,30.865-30.985-11.1-11.16-17.974,18.045L1743.8,782.956l41.029-41.192,46.424,46.67,12.889-12.941-57.52-57.831L1660.808,843.979,1614.385,797.3Zm-477.724,35.53,23.056-23.15,46.423,46.67,125.815-126.315,66.273,66.633-23.056,23.145-46.423-46.67-30.865,30.988,12.132,12.193,17.973-18.044,19.85,19.957-41.03,41.194-31.981-32.156-71.895,72.182Zm9.459-.7L1190.75,902.9l71.894-72.177,31.982,32.151,30.86-30.984-11.094-11.161-17.973,18.046-20.883-20.992,41.03-41.192,46.423,46.67,12.891-12.941-57.522-57.831L1192.542,878.806l-46.423-46.675ZM655.5,880.605l23.056-23.15,46.423,46.67L850.8,777.81l66.273,66.633-23.056,23.145-46.423-46.67-30.865,30.988L828.857,864.1l17.974-18.044,19.85,19.957-41.029,41.194L793.67,875.05l-71.895,72.182Zm9.458-.7,57.522,57.825,71.894-72.177L826.358,897.7l30.86-30.985-11.094-11.161L828.15,873.6l-20.882-20.992L848.3,811.417l46.423,46.67,12.891-12.941-57.522-57.83L724.274,913.632l-46.423-46.675Zm-477.724,35.53,23.056-23.15,46.423,46.67L382.53,812.637,448.8,879.269l-23.056,23.145-46.423-46.67-30.865,30.988,12.128,12.194,17.974-18.044,19.853,19.957-41.033,41.194L325.4,909.877l-71.895,72.182Zm9.458-.7,57.522,57.826,71.894-72.177,31.978,32.151,30.863-30.985-11.1-11.16L359.88,908.428,339,887.436l41.029-41.192,46.423,46.67,12.886-12.941-57.517-57.831L256.008,948.459l-46.423-46.675Zm1593.5-85.073,23.158-23.25,14.542,15.639,36.878-36.668L1884.61,805.7l-60.073,57.616Zm9.513-.759,25.6,25.088,49.771-47.74L1864,794.894l-36.984,36.779L1812.5,816.059Zm-477.78,35.585,23.158-23.25,14.542,15.639,36.878-36.668,19.836,20.327-60.073,57.617Zm9.515-.759,25.6,25.089,49.766-47.74-11.071-11.351L1358.751,866.5l-14.518-15.614ZM853.663,899.308l23.158-23.25L891.363,891.7l36.878-36.668,19.835,20.327L888,932.972Zm9.515-.759,25.593,25.089L938.54,875.9l-11.071-11.351-36.984,36.779-14.523-15.614ZM385.393,934.135l23.161-23.25L423.1,926.523l36.878-36.668,19.835,20.327L419.737,967.8Zm9.518-.759L420.5,958.464l49.769-47.74L459.2,899.373l-36.984,36.779L407.7,920.538ZM992.477,822.122l23.056-23.143,81.993,82.356-23.056,23.148Zm9.463-.7,73.237,73.559,12.891-12.939-73.242-73.559Zm927.076-68.95,23.055-23.143,66.273,66.627-23.058,23.15Zm9.458-.7,57.52,57.83,12.888-12.939-57.517-57.831Zm-477.73,35.53,23.061-23.144,66.273,66.628-23.061,23.15Zm66.98,57.127,12.891-12.939L1483.1,773.653l-12.891,12.939ZM524.21,856.949l23.055-23.143,66.275,66.627-23.058,23.15Zm66.98,57.127,12.891-12.939-57.522-57.83-12.89,12.939Zm-535.247-22.3L79,868.632l66.275,66.627-23.058,23.15Zm66.98,57.127,12.891-12.939L78.292,878.133,65.4,891.072Zm1419-149.817,78.172-78.49,35.324,35.515-23.056,23.148L1616.885,763.7,1561.77,819.04Zm9.459-.7,11.1,11.155,55.115-55.337,15.474,15.558,12.891-12.944L1619.384,730.1Zm-477.73,35.53,78.176-78.491,35.324,35.515-23.056,23.148-15.474-15.556-55.12,55.337Zm9.463-.7,11.094,11.155,55.12-55.337,15.474,15.558,12.891-12.944-26.574-26.713Zm-477.73,35.53,78.176-78.491,35.324,35.515-23.056,23.148-15.475-15.556-55.12,55.337Zm9.463-.7,11.094,11.156,55.12-55.337,15.474,15.558,12.892-12.944L682.85,799.754Zm-477.729,35.53,78.176-78.491,35.324,35.515-23.056,23.148-15.474-15.556-55.12,55.337Zm9.458-.7,11.1,11.155,55.12-55.337,15.474,15.558,12.892-12.944L214.583,834.58Zm1684.6-176.53,23.056-23.15,66.273,66.633-23.056,23.145Zm66.979,57.127,12.891-12.941-57.522-57.831-12.891,12.941Zm-254.693,6.96,59-59.241,19.85,19.957-59,59.237Zm9.458-.7,11.1,11.157,48.839-49.034-11.1-11.155ZM1362.9,761.159l23.056-23.15,66.273,66.632-23.056,23.145Zm66.98,57.127,12.886-12.941-57.517-57.831-12.891,12.941Zm-254.693,6.96,59-59.241,19.85,19.957-59,59.237Zm9.458-.7,11.1,11.157,48.839-49.034-11.1-11.155ZM894.637,795.985l23.056-23.15,66.273,66.633L960.91,862.612Zm66.98,57.127L974.5,840.171l-57.517-57.831-12.891,12.941Zm-254.693,6.96,59-59.241,19.85,19.957-59,59.237Zm9.458-.7,11.1,11.157,48.839-49.034-11.1-11.155ZM426.365,830.812l23.061-23.15L515.7,874.294l-23.061,23.145Zm66.98,57.127L506.236,875l-57.517-57.831-12.891,12.941ZM238.657,894.9l59-59.241,19.85,19.957-59,59.237Zm9.458-.7,11.1,11.157,48.839-49.034-11.1-11.155ZM-41.9,865.638l23.056-23.15,66.274,66.633L24.371,932.266Zm9.463-.7,57.517,57.831,12.891-12.941-57.522-57.83ZM1481.217,735.651l23.06-23.149,50.8,51.071-23.061,23.148Zm9.463-.7,42.042,42.274,12.891-12.944-42.043-42.27Zm-477.73,35.53,23.056-23.148,50.8,51.071-23.056,23.148Zm9.463-.7,42.042,42.274,12.892-12.944L1035.3,756.834ZM544.683,805.3l23.056-23.148,50.8,51.071-23.056,23.148Zm9.459-.7,42.046,42.274,12.891-12.944-42.048-42.269ZM76.416,840.13l23.056-23.148,50.8,51.071L127.215,891.2Zm9.459-.7L127.921,881.7l12.891-12.944L98.765,826.487ZM1867.089,690.27l41.058-41.221,35.289,35.478-17.974,18.563,15.632,15.11-23.143,21.894Zm9.518-.759,42.143,41.281,12.638-11.956-15.4-14.885,18.057-18.647-26.6-26.754ZM1398.823,725.1l41.058-41.221,35.289,35.478L1457.2,737.917l15.632,15.109-23.143,21.894Zm51.661,40.522,12.638-11.956-15.4-14.885,18.057-18.647-26.6-26.754-30.836,30.961Zm-519.931-5.7L971.614,718.7,1006.9,754.18l-17.974,18.563,15.632,15.11-23.143,21.894Zm51.664,40.522,12.638-11.956-15.4-14.885,18.056-18.647-26.6-26.754L940.07,759.164Zm-519.931-5.7,41.056-41.221,35.294,35.478L520.662,807.57l15.632,15.109-23.143,21.894Zm51.664,40.522,12.638-11.956-15.4-14.885,18.056-18.647-26.608-26.753L471.8,793.99Zm-519.931-5.7,41.056-41.221,35.294,35.478L52.395,842.4l15.632,15.109L44.884,879.4ZM45.683,870.1l12.638-11.956-15.4-14.885,18.056-18.647L34.368,797.856,3.537,828.817Zm1669.669-151.86,23.056-23.148,19.85,19.957L1735.2,738.2Zm9.458-.7,11.1,11.157,12.892-12.941-11.1-11.155Zm-122.777-40.992,23.056-23.148,46.423,46.67,35.947-36.089,19.85,19.957-59,59.239Zm9.458-.7,57.522,57.827,48.839-49.03-11.1-11.16-35.948,36.094-46.423-46.675Zm-94.328,23.722,23.056-23.148,30.949,31.114,17.974-18.046,19.85,19.959-41.03,41.194Zm9.463-.7,42.043,42.271,30.864-30.985-11.1-11.157-17.974,18.045-30.948-31.119Zm-279.541,54.206,23.056-23.148,19.85,19.957-23.056,23.15Zm9.458-.7,11.1,11.157,12.891-12.941-11.1-11.155Zm-122.777-40.992,23.056-23.148,46.423,46.67,35.947-36.089,19.85,19.957-59,59.239Zm9.459-.7,57.52,57.827,48.839-49.03-11.1-11.16L1202.538,744.4l-46.423-46.675ZM1048.9,734.388l23.056-23.148,30.949,31.114,17.974-18.045,19.85,19.959L1099.7,785.46Zm9.463-.7,42.043,42.271,30.865-30.985-11.1-11.157-17.974,18.046-30.948-31.119ZM778.819,787.89l23.056-23.148,19.85,19.957-23.056,23.15Zm9.458-.7,11.1,11.157L812.267,785.4l-11.1-11.155ZM665.5,746.2l23.056-23.148,46.423,46.67,35.947-36.089,19.85,19.957-59,59.239Zm9.458-.7,57.522,57.827,48.839-49.031-11.1-11.16-35.947,36.094-46.423-46.675ZM580.63,769.214l23.056-23.148,30.949,31.114,17.974-18.046,19.85,19.959-41.029,41.194Zm9.459-.7,42.046,42.271L663,779.8,651.9,768.64l-17.973,18.046-30.949-31.119ZM310.552,822.717l23.056-23.148,19.85,19.957L330.4,842.675Zm9.458-.7,11.1,11.157L344,820.229l-11.1-11.155ZM197.233,781.022l23.056-23.148,46.423,46.67,35.947-36.089,19.85,19.957-59,59.239Zm9.458-.7,57.522,57.827,48.838-49.03-11.1-11.16L266,814.049l-46.423-46.675Zm-94.327,23.722,23.056-23.148,30.949,31.114,17.974-18.046,19.85,19.959-41.03,41.194Zm9.459-.7,42.046,42.271,30.865-30.985-11.1-11.157-17.974,18.046-30.948-31.119Zm1678.4-108.119,76.976-77.283,19.85,19.959-76.977,77.281Zm9.458-.7,11.1,11.155L1887.59,638.6l-11.1-11.16Zm-477.724,35.53,76.976-77.283,19.85,19.959L1351.805,750Zm9.457-.7,11.1,11.155,66.81-67.072-11.1-11.16Zm-477.725,35.53,76.977-77.283,19.85,19.959-76.977,77.281Zm9.458-.7,11.1,11.155,66.807-67.072L939.958,697.09ZM395.421,799.7,472.4,722.414l19.85,19.959-76.976,77.281Zm9.458-.7,11.1,11.155,66.807-67.072-11.094-11.161ZM1709.252,639.875,1673.3,675.965l-19.85-19.954,59-59.243,81.747,82.19-23.056,23.148Zm62.6,52.726,12.891-12.939-73-73.388-48.839,49.034,11.1,11.155,35.947-36.089Zm-530.871-17.9-35.947,36.09-19.85-19.954,59-59.242,81.747,82.19-23.056,23.148Zm62.6,52.726,12.891-12.94-73-73.388-48.839,49.034,11.1,11.155,35.947-36.089Zm-530.871-17.9-35.947,36.089-19.85-19.954,59-59.242,81.747,82.19-23.056,23.148Zm62.6,52.726,12.891-12.939-73-73.388L726.379,724.96l11.1,11.155,35.947-36.089Zm-530.871-17.9L268.5,780.444l-19.85-19.954,59-59.243,81.747,82.19-23.056,23.148Zm62.6,52.726,12.891-12.939-73-73.388-48.839,49.034,11.1,11.155,35.947-36.089ZM1890.09,604.991l23.056-23.148,65.24,65.6-23.056,23.148Zm9.458-.7,56.49,56.794,12.891-12.939-56.489-56.794Zm-477.724,35.53,23.056-23.148,65.24,65.6-23.056,23.148Zm65.947,56.09,12.891-12.939-56.489-56.794-12.891,12.94ZM953.551,674.644,976.612,651.5l65.24,65.6L1018.8,740.239Zm65.953,56.09,12.891-12.939L975.905,661,963.014,673.94ZM485.285,709.47l23.056-23.148,65.245,65.6L550.53,775.066Zm65.952,56.09,12.886-12.939-56.489-56.794-12.886,12.939ZM17.018,744.3l23.056-23.148,65.245,65.6L82.258,809.893Zm65.947,56.09,12.891-12.939-56.49-56.794L26.477,743.593ZM1756.3,614.941l23.056-23.148L1810.3,622.91l12.891-12.944-30.949-31.112L1815.3,555.7l30.949,31.114,35.947-36.089,19.85,19.959-94.95,95.327Zm9.458-.7,42.047,42.274,84.786-85.121-11.1-11.157-35.947,36.089-30.949-31.114L1801.7,578.15l30.949,31.112-23.056,23.15L1778.647,601.3Zm-212.645,49.236,17.974-18.049-15.475-15.558,23.056-23.148,35.324,35.515-41.03,41.194Zm11.962-34.31,15.469,15.558-17.969,18.048,11.094,11.156,30.865-30.988-26.573-26.713Zm-277.042,20.6,23.056-23.148,30.948,31.118,12.892-12.944-30.949-31.112,23.056-23.15,30.949,31.114,35.947-36.089,19.85,19.959-94.95,95.327Zm9.458-.7,42.047,42.274,84.786-85.121-11.1-11.157-35.947,36.089-30.949-31.114-12.891,12.941,30.949,31.112-23.056,23.15-30.949-31.114ZM1084.844,698.3l17.974-18.049-15.474-15.558,23.056-23.148,35.325,35.515-41.03,41.194Zm11.957-34.31,15.475,15.558L1094.3,697.6l11.1,11.155,30.865-30.988-26.574-26.713Zm-277.037,20.6,23.056-23.148,30.949,31.117,12.891-12.944-30.949-31.112,23.056-23.15,30.949,31.114,35.947-36.089,19.85,19.959-94.95,95.327Zm9.458-.7,42.048,42.274,84.781-85.121-11.094-11.157-35.947,36.089L878.06,634.862,865.169,647.8l30.949,31.112-23.056,23.15-30.949-31.114ZM616.577,733.126l17.974-18.049L619.076,699.52l23.056-23.148,35.324,35.515-41.029,41.194Zm11.957-34.31,15.474,15.558-17.974,18.049,11.1,11.155L668,712.59l-26.573-26.713ZM351.5,719.42l23.056-23.148L405.5,727.39l12.887-12.944-30.944-31.113,23.056-23.15L441.45,691.3,477.4,655.208l19.85,19.959L402.3,770.494Zm9.458-.7L403,760.991l84.781-85.121L476.69,664.713,440.742,700.8l-30.949-31.114L396.9,682.63l30.949,31.112L404.8,736.892l-30.949-31.114ZM148.31,767.953,166.284,749.9,150.81,734.346,173.866,711.2l35.324,35.515-41.03,41.194Zm11.957-34.31L175.742,749.2,157.768,767.25l11.1,11.155,30.865-30.988L173.159,720.7Zm1328.447-98.8,57.809-58.035,19.85,19.957-34.748,34.887,15.474,15.556-23.061,23.149Zm9.463-.7,26.568,26.717,12.892-12.944-15.474-15.556,34.754-34.887-11.1-11.155Zm-477.73,35.53,57.809-58.035,19.85,19.957-34.748,34.887,15.47,15.557-23.056,23.148Zm9.463-.7,26.568,26.717,12.891-12.944L1053.9,667.183l34.748-34.887-11.094-11.156ZM552.18,704.5l57.8-58.035,19.855,19.957-34.751,34.887,15.473,15.556L587.5,740.01Zm9.459-.7,26.572,26.716L601.1,717.565l-15.474-15.556,34.748-34.887-11.1-11.155ZM83.914,739.323l57.8-58.035,19.85,19.957-34.747,34.887L142.3,751.688l-23.058,23.148Zm9.459-.7,26.572,26.716,12.891-12.944-15.474-15.556,34.748-34.887-11.1-11.155ZM1622.506,624.892l41.029-41.192,19.85,19.957-41.03,41.194Zm9.457-.7,11.1,11.16,30.865-30.988-11.1-11.155Zm-477.724,35.53,41.029-41.192,19.85,19.957-41.03,41.194Zm9.458-.7,11.1,11.16,30.865-30.988-11.1-11.155Zm-477.725,35.53L727,653.353l19.85,19.957L705.822,714.5Zm9.458-.7,11.1,11.16,30.865-30.988-11.1-11.155Zm-477.725,35.53,41.029-41.192,19.85,19.957-41.03,41.194Zm9.458-.7,11.1,11.16,30.865-30.988-11.1-11.155Zm1636.976-222,23.055-23.145,15.475,15.558,35.947-36.089,35.325,35.51-23.1,23.191-15.4-16.076L1922.484,519l26.624,26.769,35.865-35.488,19.959,19.291-59.044,59.284Zm9.458-.7,73,73.388,48.792-48.987-11.073-10.7-35.946,35.57-35.274-35.458,23.073-23.828,15.468,16.157,12.851-12.9L1937.91,472.5l-35.947,36.088-15.475-15.556Zm-148.249,77.862L1820.3,488.5l50.8,51.073-23.056,23.148L1817.094,531.6,1745.2,603.786Zm9.458-.7,11.1,11.155L1817.8,522.1l30.949,31.114,12.891-12.939L1819.593,498Zm-174.2-20.46,23.056-23.15,50.8,51.073-23.056,23.148Zm9.463-.7,42.043,42.269,12.891-12.939-42.048-42.274Zm-174.2-20.465,23.056-23.145,15.474,15.558,35.947-36.089,35.325,35.51-23.1,23.191-15.393-16.077-12.963,13.386,26.624,26.769,35.864-35.488,19.959,19.291-59.045,59.284Zm82.454,72.685,48.792-48.987-11.073-10.7-35.946,35.57-35.274-35.458L1467.9,530.78l15.468,16.157,12.845-12.9-26.569-26.712L1433.7,543.41l-15.474-15.556-12.891,12.939Zm-221.245,4.474,94.95-95.328,50.8,51.073-23.056,23.148-30.949-31.117-71.894,72.182Zm9.458-.7,11.1,11.155,71.894-72.178,30.949,31.114,12.891-12.939-42.048-42.274Zm-174.2-20.46,23.056-23.15,50.8,51.073-23.056,23.148Zm9.458-.7,42.048,42.269,12.891-12.939-42.048-42.274ZM927.606,576.323l23.056-23.145,15.474,15.558,35.947-36.089,35.325,35.51-23.1,23.191-15.393-16.077-12.962,13.386,26.624,26.769,35.864-35.488,19.959,19.291-59.044,59.284Zm82.454,72.685,48.792-48.987-11.074-10.7-35.946,35.57-35.274-35.458,23.073-23.828,15.468,16.157,12.845-12.9-26.569-26.712-35.947,36.088L949.955,562.68,937.064,575.62Zm-221.245,4.474,94.95-95.328,50.8,51.073-23.056,23.148L880.56,601.257l-71.895,72.182Zm9.458-.7,11.1,11.155,71.894-72.179,30.949,31.114,12.891-12.939-42.047-42.274Zm-174.2-20.46,23.056-23.15,50.8,51.073-23.056,23.148Zm9.458-.7,42.048,42.269,12.891-12.939L646.424,618.67Zm-174.2-20.465L482.395,588l15.469,15.558,35.947-36.089,35.326,35.51-23.1,23.191-15.4-16.076-12.957,13.386,26.624,26.769,35.864-35.487,19.959,19.291L541.081,693.34Zm82.454,72.685,48.8-48.988-11.073-10.7-35.947,35.57L508.292,624.26l23.068-23.827,15.473,16.157,12.846-12.9L533.1,576.975l-35.947,36.088-15.469-15.557L468.8,610.446Zm-221.24,4.474L415.5,592.98l50.8,51.073L443.242,667.2l-30.949-31.117L340.4,708.265Zm9.458-.7,11.1,11.155L413,626.581,443.949,657.7l12.886-12.939-42.043-42.275Zm-174.2-20.46,23.056-23.15,50.8,51.073-23.056,23.148Zm9.458-.7,42.048,42.269L220.2,695.771,178.157,653.5Zm-174.2-20.465,23.056-23.145L29.6,638.389,65.545,602.3l35.326,35.51L77.772,661l-15.4-16.076L49.417,658.311l26.624,26.769,35.864-35.488,19.959,19.291L72.815,728.166Zm82.454,72.685,48.792-48.987-11.069-10.7L75.3,694.544,40.025,659.087l23.068-23.827,15.469,16.157,12.849-12.9L64.838,611.8,28.891,647.89,13.416,632.333.53,645.272Zm1602.905-147.9,23.056-23.148,19.849,19.957-23.056,23.15Zm9.458-.7,11.1,11.157,12.891-12.941-11.1-11.16Zm-477.725,35.53,23.056-23.148,19.85,19.957-23.056,23.15Zm9.458-.7,11.1,11.157,12.891-12.941-11.1-11.16Zm-477.725,35.53,23.056-23.148L782.8,637.22l-23.056,23.15Zm9.458-.7,11.1,11.157,12.891-12.941-11.1-11.16Zm-477.725,35.53,23.056-23.148,19.85,19.957L291.476,695.2Zm9.458-.7,11.1,11.157,12.891-12.941-11.1-11.16ZM1627.5,557.69l76.977-77.283,50.8,51.071-23.056,23.145-30.949-31.114-53.921,54.138Zm9.458-.7,11.1,11.155,53.921-54.133,30.949,31.114,12.891-12.941-42.047-42.273Zm-477.724,35.53,76.977-77.283,50.8,51.071-23.056,23.145-30.949-31.114-53.921,54.138Zm9.458-.7,11.1,11.155,53.921-54.133,30.949,31.114,12.891-12.941-42.047-42.273Zm-477.725,35.53,76.977-77.283,50.8,51.071L795.69,624.276l-30.949-31.114L710.82,647.3Zm9.458-.7,11.1,11.155,53.921-54.133L796.4,614.776l12.891-12.941-42.048-42.273ZM222.7,662.169l76.977-77.283,50.8,51.071L327.424,659.1l-30.949-31.114-53.921,54.138Zm9.458-.7,11.1,11.155,53.921-54.133L328.13,649.6l12.891-12.941-42.048-42.273Zm1348.92-150.451,23.056-23.145,15.474,15.558,17.973-18.046,19.85,19.954-41.029,41.194Zm9.458-.7,26.573,26.716,30.865-30.988-11.1-11.155-17.973,18.044-15.475-15.556Zm-75.321,6.717,23.056-23.15,34.3,34.476-23.061,23.15Zm9.459-.7L1550.216,542l12.892-12.944-25.541-25.675Zm-411.863,29.516L1135.87,522.7l15.474,15.558,17.974-18.046,19.85,19.954-41.03,41.194Zm9.46-.7,26.571,26.716,30.865-30.988-11.1-11.155-17.974,18.044L1135.164,532.2Zm-75.323,6.717,23.056-23.15,34.292,34.477-23.056,23.15Zm9.458-.7,25.541,25.678,12.892-12.945L1069.3,538.21ZM644.548,580.668,667.6,557.523l15.474,15.558,17.974-18.045,19.85,19.954-41.029,41.194Zm9.458-.7,26.573,26.716,30.865-30.988-11.1-11.155-17.973,18.044L666.9,567.025Zm-75.321,6.717,23.056-23.15,34.292,34.477-23.056,23.15Zm9.459-.7,25.539,25.678,12.892-12.944-25.541-25.675ZM176.281,615.494l23.056-23.145,15.474,15.558,17.974-18.046,19.85,19.954-41.029,41.194Zm9.459-.7,26.571,26.717,30.865-30.988-11.1-11.155L214.1,617.408,198.63,601.851Zm-75.323,6.717,23.056-23.15,34.294,34.477-23.058,23.15Zm9.459-.7,25.539,25.678,12.891-12.945-25.541-25.675ZM1716.34,466.426l23.056-23.15,51.831,52.109-23.056,23.148Zm52.538,42.607,12.892-12.944-43.08-43.307L1725.8,465.723Zm-520.8-7.781,23.056-23.15,51.831,52.109L1299.9,553.36Zm52.538,42.607,12.891-12.944-43.08-43.308-12.891,12.941Zm-520.8-7.781,23.056-23.15,51.831,52.11-23.056,23.148Zm52.538,42.607,12.892-12.944-43.08-43.307-12.891,12.941Zm-520.8-7.781,23.056-23.15,51.831,52.109-23.056,23.148Zm52.538,42.607,12.891-12.944-43.08-43.307L321,570.2Zm1469.1-137.8,16.978-18.086-14.995-15.686,41.265-41.133,51.042,50.487L1904.44,473.84l-14.374-14.49-35.83,36Zm21.6,10.295,36-36.174,14.439,14.558,12.693-12.42-42.17-41.716-31.183,31.09,14.838,15.514-16.737,17.833Zm-489.864,24.532,16.978-18.085-15-15.686,41.265-41.133,51.039,50.487-23.029,22.543-14.375-14.49-35.83,36Zm21.6,10.295,36-36.174,14.439,14.558,12.7-12.42-42.17-41.716-31.183,31.09,14.836,15.514-16.741,17.833ZM896.649,545.368l16.978-18.086-15-15.686L939.9,470.463l51.039,50.488-23.029,22.542L953.531,529l-35.83,36Zm21.6,10.295,35.995-36.174,14.439,14.558,12.694-12.42-42.168-41.716L908.023,511l14.836,15.514-16.741,17.833ZM428.382,580.195l16.978-18.086-15-15.686L471.63,505.29l51.039,50.488L499.639,578.32l-14.375-14.49-35.83,36Zm21.6,10.295,35.995-36.174,14.439,14.558,12.7-12.42-42.17-41.716-31.183,31.09,14.838,15.514-16.742,17.833ZM1950.308,451.254l42.23-42.4,19.85,19.957-42.229,42.4Zm20.558,10.451,32.059-32.187-11.094-11.155-32.063,32.187ZM1482.043,486.08l42.228-42.4,19.85,19.957-42.229,42.4Zm20.557,10.452,32.059-32.187-11.094-11.155L1491.5,485.377Zm-488.824,24.375L1056,478.51l19.855,19.957-42.228,42.4Zm20.557,10.451,32.059-32.187-11.1-11.155L1023.233,520.2ZM545.5,555.733l42.229-42.4,19.85,19.957-42.224,42.4Zm20.562,10.451L598.124,534l-11.1-11.155-32.059,32.187ZM77.237,590.56l42.228-42.4,19.852,19.957-42.23,42.4Zm20.557,10.452,32.064-32.187-11.1-11.155L86.7,589.856Zm1554-129.892L1763.4,359.067,1783.235,379,1671.3,493.018Zm20.422,12.108,101.6-103.482-11.114-11.177L1661.019,470.651Zm-488.687,22.719,111.608-112.052,19.83,19.937L1203.029,527.844Zm20.42,12.108,101.6-103.482-11.114-11.177L1192.752,505.478ZM715.258,540.772,826.867,428.72l19.83,19.937L734.763,562.671Zm20.42,12.108L837.274,449.4,826.16,438.221,724.485,540.3ZM246.991,575.6,358.6,463.547l19.83,19.937L266.492,597.5Zm20.42,12.108,101.6-103.482-11.114-11.177L256.218,575.131ZM1550.133,479.9l59-59.238,35.324,35.515L1621.4,479.327,1605.93,463.77l-35.947,36.089Zm20.556,10.457,35.948-36.093,15.475,15.556L1635,456.882l-26.573-26.716L1559.6,479.2Zm-488.823,24.37,59-59.237L1176.193,491l-23.056,23.148L1137.663,498.6l-35.947,36.089Zm20.556,10.457,35.947-36.093,15.474,15.556,12.891-12.939-26.573-26.716-48.839,49.032ZM613.6,549.554l59-59.238,35.324,35.515L684.87,548.979,669.4,533.423l-35.947,36.089Zm20.557,10.457L670.1,523.918l15.475,15.556,12.891-12.939L671.9,499.818,623.057,548.85ZM145.332,584.38l59-59.237,35.324,35.515L216.6,583.806,201.129,568.25l-35.947,36.089Zm20.556,10.457,35.947-36.093L217.31,574.3l12.891-12.94-26.573-26.716-48.837,49.032Zm1587.151-163.43,58.7-59.215,36,35.508-24.379,23.152-14.81-15.486-12.361,12.778,30.984,31.153-23.05,23.141Zm51.777,41.542,12.9-12.95L1786.8,428.923l22.468-23.225,15.025,15.71,13.8-13.106-27.009-26.638L1762.5,430.679Zm-520.044-6.716,58.7-59.215,36,35.507-24.38,23.152-14.81-15.487-12.362,12.778,30.984,31.153-23.05,23.141Zm51.777,41.542,12.9-12.95-30.914-31.077L1341,440.524l15.025,15.71,13.8-13.106-27.009-26.638-48.584,49.015ZM816.506,501.06l58.7-59.215,36,35.507-24.381,23.152-14.81-15.486L859.657,497.8l30.984,31.153-23.05,23.141ZM868.283,542.6l12.9-12.95-30.913-31.077,22.468-23.225,15.025,15.71,13.8-13.106-27.009-26.638-48.586,49.015Zm-520.044-6.716,58.7-59.215,36,35.507-24.381,23.153-14.808-15.487L391.39,532.623l30.984,31.153-23.05,23.141Zm51.777,41.542,12.9-12.95L382,533.4l22.47-23.225,15.023,15.71,13.8-13.106-27.011-26.638L357.7,535.158ZM1919.685,417.672l42.107-41.1,19.548,21.189-42.358,43.117Zm20.375,13.256,32.016-32.586-11.228-12.171-32.019,31.251ZM1451.418,452.5l42.1-41.1,19.553,21.188-42.36,43.117Zm20.375,13.256,32.016-32.586L1492.58,421l-32.019,31.251Zm-488.641,21.57,42.1-41.1,19.553,21.188-42.358,43.117Zm20.375,13.256,32.016-32.586-11.229-12.171-32.019,31.251Zm-488.642,21.57,42.1-41.1,19.553,21.189-42.358,43.117Zm20.375,13.256,32.016-32.586-11.232-12.171L524.027,521.9ZM46.612,556.978l42.107-41.1,19.553,21.189L65.914,580.187Zm20.38,13.256L99,537.648,87.776,525.477,55.76,556.728ZM1637.5,423.28l23.056-23.148,19.85,19.957-23.056,23.15Zm9.458-.7,11.1,11.155,12.891-12.94-11.1-11.16Zm-109.8,8.166,76.977-77.286,35.324,35.515L1626.4,412.12l-15.475-15.556L1557.007,450.7Zm9.463-.7,11.094,11.156,53.921-54.133,15.475,15.558L1640,389.675l-26.573-26.713Zm-377.386,28.067,23.056-23.148,19.85,19.957-23.056,23.15Zm9.458-.7,11.1,11.155,12.891-12.939-11.1-11.16Zm-109.8,8.166,76.977-77.286,35.324,35.515-23.056,23.148-15.474-15.556-53.921,54.138Zm9.463-.7,11.094,11.156,53.921-54.133,15.474,15.558,12.892-12.944-26.573-26.713ZM700.968,492.933l23.056-23.148,19.85,19.957-23.056,23.15Zm9.458-.7,11.1,11.155,12.891-12.94-11.1-11.16Zm-109.8,8.166L677.6,423.109l35.324,35.515-23.056,23.148-15.475-15.556-53.921,54.138Zm9.459-.7,11.1,11.155L675.1,456.714l15.474,15.558,12.891-12.944-26.574-26.713ZM232.7,527.759l23.056-23.148,19.85,19.957-23.056,23.15Zm9.458-.7,11.1,11.155,12.891-12.939-11.1-11.16Zm-109.8,8.166,76.977-77.286,35.324,35.515L221.6,516.6l-15.474-15.556-53.921,54.138Zm9.459-.7,11.1,11.155,53.921-54.133L222.309,507.1,235.2,494.155l-26.573-26.713ZM1889.694,386.7l76.977-77.286,50.8,51.071-23.056,23.15-30.948-31.114-53.921,54.133Zm9.457-.7,11.1,11.155,53.921-54.133,30.949,31.114,12.887-12.944-42.043-42.27Zm-477.724,35.53,76.977-77.286,50.8,51.071-23.056,23.15L1495.2,387.349l-53.921,54.133Zm20.557,10.452,53.92-54.133,30.949,31.114,12.887-12.944-42.043-42.27-66.812,67.078ZM953.155,456.355l76.982-77.287,50.8,51.071-23.061,23.15-30.944-31.114L973.01,476.308Zm20.562,10.451,53.921-54.133,30.944,31.114,12.892-12.944-42.043-42.27-66.812,67.078ZM484.889,491.181,561.866,413.9l50.8,51.071-23.056,23.15L558.66,457l-53.921,54.133Zm20.557,10.452L559.366,447.5l30.949,31.114,12.891-12.944L561.159,423.4l-66.807,67.077ZM16.622,526.008,93.6,448.722l50.8,51.071-23.058,23.15L90.393,491.829,36.472,545.962ZM37.179,536.46,91.1,482.326l30.949,31.114L134.94,500.5,92.892,458.227,26.085,525.3ZM1627.025,340.517l23.056-23.15,46.423,46.675,125.815-126.315,66.273,66.627-23.056,23.15-46.423-46.675-30.865,30.988,12.131,12.193,17.973-18.044,19.85,19.957-41.029,41.194-31.981-32.151L1693.3,407.145Zm9.458-.7,57.522,57.83,71.894-72.182,31.981,32.154,30.865-30.988-11.1-11.155-17.973,18.044-20.882-21,41.03-41.194L1866.244,318l12.889-12.941-57.52-57.831L1695.8,373.543l-46.423-46.67Zm-477.724,35.53,23.056-23.15,46.423,46.675,125.815-126.315,66.273,66.628-23.056,23.15-46.423-46.675-30.865,30.988,12.132,12.193,17.973-18.044,19.85,19.957-41.03,41.194-31.981-32.151-71.894,72.177Zm9.46-.7,57.52,57.83,71.894-72.182,31.981,32.154,30.86-30.988L1349.38,350.3l-17.973,18.044-20.883-21,41.03-41.194,46.423,46.672,12.891-12.941-57.522-57.83L1227.531,408.369l-46.423-46.67ZM690.492,410.17l23.056-23.15L759.971,433.7,885.786,307.38l66.273,66.627L929,397.158,882.58,350.482l-30.865,30.988,12.131,12.193L881.82,375.62l19.85,19.957L860.64,436.771l-31.981-32.151L756.765,476.8Zm9.458-.7,57.522,57.83,71.895-72.182,31.981,32.154,30.86-30.988-11.094-11.156L863.139,403.17l-20.882-21,41.03-41.194,46.423,46.672L942.6,374.711l-57.522-57.831L759.264,443.2l-46.423-46.67ZM222.225,445l23.056-23.15L291.7,468.522,417.519,342.207l66.273,66.627-23.056,23.15-46.423-46.675L383.448,416.3l12.128,12.194,17.974-18.044L433.4,430.4,392.37,471.6l-31.978-32.151L288.5,511.624Zm9.458-.7,57.522,57.83L361.1,429.942,393.077,462.1l30.863-30.988-11.1-11.155L394.869,438l-20.879-21,41.03-41.194,46.423,46.672,12.886-12.941-57.517-57.831L291,478.022l-46.423-46.67Zm1593.5-85.073,23.157-23.252,14.542,15.64,36.878-36.668,19.835,20.327-60.073,57.62Zm9.513-.759,25.6,25.092,49.771-47.74-11.077-11.349-36.984,36.773-14.519-15.616Zm-477.78,35.585,23.158-23.252,14.542,15.64,36.878-36.668,19.836,20.327-60.074,57.62Zm9.514-.759,25.6,25.092,49.766-47.74-11.072-11.349-36.984,36.773-14.518-15.616ZM888.652,428.873l23.158-23.252,14.542,15.64,36.878-36.668,19.835,20.327-60.073,57.62Zm9.515-.759,25.593,25.092,49.769-47.74-11.071-11.349-36.984,36.773-14.523-15.615ZM420.382,463.7l23.161-23.252,14.542,15.64,36.878-36.668L514.8,439.747l-60.073,57.62Zm9.518-.759,25.593,25.092,49.769-47.74-11.071-11.349-36.984,36.773L442.684,450.1ZM1964,282.039l23.056-23.15,66.273,66.629-23.057,23.148Zm9.458-.7,57.521,57.831,12.888-12.944-57.518-57.831Zm-477.729,35.53,23.061-23.15,66.273,66.629-23.061,23.148Zm66.98,57.127,12.891-12.944-57.517-57.831L1505.2,316.162Zm-535.247-22.3,23.056-23.15,66.273,66.629-23.056,23.148Zm66.98,57.127,12.892-12.944-57.522-57.83-12.887,12.944ZM559.2,386.519l23.056-23.15L648.53,430l-23.057,23.148Zm66.98,57.127L639.07,430.7l-57.522-57.83-12.89,12.944Zm-535.247-22.3,23.056-23.15,66.275,66.629-23.058,23.148Zm66.98,57.127L170.8,465.528,113.281,407.7l-12.89,12.944Zm1419-149.822,78.172-78.485,35.324,35.513-23.056,23.15-15.474-15.561-55.115,55.34Zm9.459-.7,11.1,11.155,55.115-55.337,15.474,15.558,12.891-12.941-26.573-26.716Zm-477.73,35.53,78.176-78.486,35.325,35.513-23.056,23.15-15.474-15.561-55.12,55.341Zm9.463-.7,11.094,11.156,55.12-55.337,15.475,15.558,12.891-12.941-26.573-26.716ZM640.37,398.3l78.176-78.485,35.324,35.513-23.056,23.15L715.34,362.921l-55.12,55.341Zm9.463-.7,11.094,11.156,55.12-55.337,15.474,15.558,12.891-12.941-26.573-26.716ZM172.1,433.131l78.176-78.486L285.6,390.158l-23.056,23.15-15.474-15.561-55.12,55.341Zm9.458-.7,11.1,11.155,55.12-55.337L263.254,403.8l12.891-12.941-26.573-26.716ZM1866.16,255.9l23.056-23.148,66.273,66.627-23.056,23.15Zm66.98,57.124,12.891-12.941-57.522-57.83L1875.618,255.2Zm-254.693,6.96,59-59.238L1757.3,280.7l-59,59.239Zm9.458-.7,11.1,11.157,48.839-49.03-11.1-11.16Zm-290.012-28.554,23.056-23.148,66.273,66.627-23.056,23.15Zm66.98,57.124,12.886-12.941-57.517-57.831-12.891,12.944Zm-254.693,6.96,59-59.237,19.85,19.957-59,59.239Zm9.458-.7,11.1,11.157,48.838-49.03-11.1-11.16ZM929.626,325.553l23.056-23.148,66.273,66.627L995.9,392.182Zm66.98,57.124,12.886-12.941-57.517-57.831L939.084,324.85Zm-254.693,6.96,59-59.237,19.85,19.957-59,59.239Zm9.458-.7,11.1,11.157,48.839-49.03-11.1-11.16ZM461.354,360.38l23.061-23.149,66.273,66.627-23.061,23.15Zm66.98,57.124,12.891-12.941-57.517-57.831-12.892,12.944Zm-254.688,6.96,59-59.238,19.85,19.957-59,59.239Zm9.458-.7,11.1,11.157,48.838-49.03-11.1-11.16ZM-6.913,395.207l23.056-23.148,66.275,66.627L59.36,461.836Zm9.463-.7L60.067,452.33l12.891-12.941-57.522-57.83ZM1516.206,265.216l23.061-23.145,50.8,51.071L1567,316.292Zm9.463-.7,42.043,42.274,12.891-12.941-42.043-42.273Zm-477.729,35.53,23.056-23.145,50.8,51.071-23.056,23.15Zm9.463-.7,42.042,42.275,12.891-12.941L1070.288,286.4Zm-477.729,35.53,23.055-23.145,50.8,51.071-23.056,23.15Zm9.459-.7,42.046,42.274L644.068,363.5l-42.047-42.273ZM111.405,369.7l23.056-23.145,50.8,51.071L162.2,420.771Zm9.459-.7,42.046,42.274L175.8,398.325l-42.048-42.273ZM1902.078,219.84l41.058-41.226,35.289,35.478-17.974,18.563,15.632,15.108-23.143,21.9Zm9.518-.764,42.143,41.281,12.638-11.953-15.4-14.885,18.057-18.651-26.6-26.749Zm-477.785,35.591,41.058-41.226,35.289,35.478-17.974,18.563,15.632,15.108-23.143,21.9Zm51.661,40.517,12.637-11.953-15.4-14.885,18.057-18.651-26.6-26.749L1443.327,253.9Zm-519.932-5.69,41.062-41.226,35.289,35.478-17.974,18.563,15.632,15.108-23.143,21.9Zm51.665,40.517,12.637-11.953-15.4-14.885,18.057-18.651-26.6-26.749L975.06,288.729Zm-519.932-5.69,41.057-41.226,35.294,35.477-17.974,18.563,15.632,15.108-23.143,21.9Zm51.665,40.517,12.637-11.953L546.176,338l18.057-18.65L537.624,292.6l-30.831,30.956Zm-519.932-5.69L70.064,317.92,105.358,353.4,87.384,371.961l15.632,15.108-23.143,21.9Zm51.665,40.517L93.31,387.71l-15.4-14.885,18.057-18.651L69.357,327.426,38.526,358.382ZM1750.342,247.8l23.056-23.145,19.85,19.954-23.056,23.15Zm9.458-.7,11.1,11.16,12.892-12.944-11.1-11.155Zm-122.777-40.992,23.056-23.148,46.423,46.674,35.948-36.093L1762.3,213.5l-59,59.239Zm9.458-.7L1704,263.234l48.839-49.034-11.1-11.155-35.948,36.089-46.423-46.67Zm-94.328,23.723,23.056-23.148,30.949,31.117,17.974-18.049,19.85,19.959-41.03,41.194Zm9.463-.7,42.043,42.275,30.865-30.988-11.1-11.157L1605.451,246.6,1574.5,215.483Zm-279.541,54.206,23.056-23.145,19.85,19.954-23.056,23.15Zm9.458-.7,11.1,11.16,12.891-12.944-11.1-11.155Zm-122.777-40.992,23.056-23.148,46.423,46.674,35.947-36.093,19.85,19.957-59,59.239Zm9.459-.7,57.52,57.831,48.839-49.034-11.1-11.155-35.948,36.089-46.423-46.67Zm-94.329,23.723,23.056-23.148,30.949,31.117,17.974-18.049,19.849,19.959-41.03,41.194Zm9.463-.7,42.043,42.275,30.865-30.988-11.1-11.157-17.974,18.046-30.949-31.114ZM813.808,317.455l23.056-23.145,19.85,19.954-23.056,23.15Zm9.458-.7,11.1,11.16,12.892-12.944-11.1-11.155ZM700.489,275.76l23.056-23.148,46.423,46.674,35.947-36.093,19.85,19.957-59,59.239Zm9.458-.7,57.522,57.83,48.839-49.034-11.1-11.155-35.947,36.089-46.423-46.67Zm-94.327,23.722,23.056-23.148,30.949,31.117L687.6,288.7l19.85,19.959-41.03,41.194Zm9.46-.7,42.046,42.274,30.865-30.988-11.1-11.157L668.917,316.25l-30.949-31.114ZM345.541,352.282,368.6,329.137l19.85,19.954-23.056,23.15Zm9.458-.7,11.1,11.16,12.892-12.944-11.1-11.155ZM232.222,310.587l23.056-23.148L301.7,334.112l35.947-36.093,19.85,19.957-59,59.239Zm9.458-.7,57.522,57.83L348.04,318.68l-11.1-11.155-35.947,36.089-46.423-46.67Zm-94.327,23.722,23.056-23.148,30.949,31.117,17.974-18.049,19.85,19.959-41.03,41.194Zm9.459-.7,42.046,42.274,30.865-30.988-11.1-11.157L200.65,351.077,169.7,319.963Zm1678.4-108.119,76.976-77.283,19.85,19.959-76.977,77.281Zm9.458-.7,11.1,11.16,66.812-67.078-11.1-11.157Zm-477.724,35.53,76.976-77.283,19.85,19.959-76.976,77.281Zm9.457-.7,11.1,11.16,66.811-67.077-11.1-11.157Zm-477.725,35.53,76.977-77.283,19.85,19.959-76.977,77.281Zm9.458-.7,11.1,11.16,66.807-67.077-11.094-11.157Zm-477.724,35.53,76.977-77.283,19.85,19.959L450.26,349.22Zm9.458-.7,11.1,11.16,66.807-67.077L506.68,261.485ZM1744.241,169.444l-35.947,36.089-19.85-19.957,59-59.239,81.747,82.185-23.056,23.15Zm62.6,52.726,12.891-12.944-73-73.387L1697.9,184.872l11.1,11.155,35.948-36.089Zm-530.871-17.9-35.947,36.089-19.85-19.957,59-59.239,81.748,82.185-23.056,23.15Zm62.6,52.726,12.892-12.944-73-73.387L1229.635,219.7l11.1,11.155,35.947-36.089ZM807.707,239.1,771.76,275.186l-19.85-19.957,59-59.239,81.748,82.185L869.6,301.325Zm62.6,52.726L883.2,278.878l-73-73.387-48.839,49.034,11.1,11.155,35.947-36.089Zm-530.871-17.9-35.947,36.089-19.85-19.957,59-59.239L424.394,313l-23.056,23.15Zm62.6,52.726L414.936,313.7l-73-73.387L293.1,289.352l11.1,11.155,35.947-36.089ZM1925.079,134.561l23.056-23.15L2013.375,177l-23.056,23.15Zm9.458-.7,56.49,56.792,12.891-12.944-56.49-56.792Zm-477.725,35.53,23.056-23.15,65.241,65.591-23.056,23.15Zm65.947,56.089,12.891-12.944-56.49-56.792-12.891,12.944ZM988.54,204.214l23.061-23.15,65.241,65.591-23.056,23.15Zm65.953,56.088,12.891-12.944-56.49-56.792L998,203.51ZM520.273,239.04l23.056-23.15,65.246,65.59-23.056,23.15Zm65.952,56.088,12.886-12.944-56.49-56.792-12.887,12.944ZM52.007,273.867l23.056-23.15,65.246,65.59-23.061,23.15Zm65.947,56.089,12.892-12.944-56.49-56.792-12.89,12.944ZM1791.287,144.511l23.056-23.15,30.949,31.114,12.891-12.939-30.949-31.119,23.056-23.145,30.949,31.114L1917.186,80.3l19.85,19.954-94.95,95.332Zm9.458-.7,42.048,42.269,84.786-85.123-11.1-11.155-35.947,36.089-30.948-31.114-12.891,12.939,30.948,31.119-23.056,23.148-30.948-31.117ZM1588.1,193.037l17.974-18.044L1590.6,159.437l23.056-23.15,35.324,35.515L1607.95,213Zm11.962-34.3,15.469,15.556-17.969,18.043,11.094,11.157,30.864-30.985-26.573-26.716Zm-277.042,20.6,23.056-23.15,30.949,31.114,12.891-12.939-30.948-31.119,23.055-23.145,30.949,31.114,35.947-36.089,19.85,19.954-94.951,95.332Zm9.458-.7,42.048,42.269,84.786-85.123-11.1-11.155-35.947,36.089L1381.316,129.6l-12.891,12.939,30.949,31.119-23.056,23.148-30.949-31.117Zm-212.645,49.229,17.973-18.044-15.474-15.556,23.056-23.15,35.324,35.515-41.03,41.194Zm11.957-34.3,15.475,15.556-17.974,18.044,11.1,11.157,30.865-30.985-26.574-26.716Zm-277.037,20.6,23.056-23.15,30.949,31.114,12.891-12.939L890.7,178.07l23.056-23.145,30.949,31.114,35.947-36.089L1000.5,169.9l-94.951,95.332Zm9.458-.7,42.048,42.269,84.781-85.123-11.094-11.156L944,195.541,913.05,164.427l-12.891,12.939,30.948,31.119-23.056,23.148L877.1,200.516ZM651.566,262.69l17.974-18.044L654.065,229.09l23.056-23.15,35.324,35.515-41.029,41.194Zm11.957-34.3L679,243.943l-17.973,18.044,11.1,11.157,30.865-30.985-26.573-26.716Zm-277.037,20.6,23.056-23.15,30.949,31.114,12.886-12.939L422.434,212.9l23.056-23.145,30.949,31.114,35.947-36.089,19.85,19.954-94.95,95.332Zm9.458-.7,42.048,42.269,84.781-85.123-11.094-11.156-35.947,36.089-30.949-31.114-12.891,12.939,30.948,31.119L439.784,266.46l-30.948-31.117ZM183.3,297.516l17.974-18.044L185.8,263.916l23.056-23.15,35.324,35.515-41.03,41.194Zm11.957-34.3,15.474,15.556-17.973,18.044,11.1,11.157,30.865-30.985-26.573-26.716Zm1328.447-98.8,57.809-58.039,19.85,19.957-34.748,34.89,15.474,15.556-23.061,23.15Zm9.463-.7,26.568,26.713,12.891-12.941-15.474-15.556,34.754-34.891-11.1-11.155Zm-477.73,35.53,57.809-58.039,19.85,19.957-34.748,34.89,15.469,15.557-23.056,23.15Zm9.463-.7,26.568,26.713,12.891-12.941-15.474-15.556,34.749-34.89-11.094-11.156ZM587.17,234.065l57.8-58.038,19.855,19.957-34.752,34.89,15.473,15.556-23.056,23.15Zm9.459-.7L623.2,260.075l12.891-12.941-15.474-15.556,34.748-34.89-11.1-11.155ZM118.9,268.892l57.8-58.038,19.85,19.957L161.81,265.7l15.474,15.556-23.058,23.15Zm9.459-.7L154.934,294.9l12.891-12.941L152.351,266.4l34.748-34.89L176,220.359ZM1657.5,154.462l41.03-41.194,19.85,19.957-41.03,41.194Zm9.458-.7,11.1,11.155,30.865-30.985-11.1-11.16Zm-477.725,35.53,41.03-41.194,19.85,19.957-41.03,41.194Zm9.458-.7,11.1,11.155,30.865-30.985-11.1-11.16Zm-477.724,35.53,41.029-41.194,19.85,19.957-41.03,41.194Zm9.458-.7,11.1,11.155,30.865-30.985-11.1-11.16Zm-477.725,35.53,41.03-41.194,19.85,19.957L272.544,278.9Zm9.458-.7,11.1,11.155,30.865-30.985-11.1-11.16Zm1636.977-222,23.056-23.15,15.474,15.558,35.947-36.089,35.324,35.515-23.1,23.191-15.4-16.081L1957.473,48.57,1984.1,75.339l35.865-35.488,19.958,19.294-59.044,59.28Zm9.458-.7,73,73.387,48.792-48.986-11.073-10.7L1983.356,84.8l-35.274-35.458,23.073-23.824,15.468,16.154,12.85-12.9L1972.9,2.061l-35.947,36.093L1921.478,22.6Zm-148.248,77.856,94.95-95.327,50.8,51.073-23.056,23.148-30.949-31.114-71.895,72.179Zm9.458-.7,11.1,11.16,71.895-72.182,30.948,31.119,12.891-12.944-42.048-42.269ZM1595.6,92.23l23.056-23.15,50.8,51.071L1646.4,143.3Zm9.463-.7L1647.1,133.8l12.891-12.944-42.048-42.269Zm-174.2-20.46,23.056-23.15,15.474,15.558,35.947-36.089L1540.664,62.9l-23.1,23.191L1502.169,70.01,1489.206,83.4l26.624,26.769,35.864-35.488,19.959,19.294-59.044,59.28Zm82.454,72.683,48.792-48.986-11.073-10.7-35.947,35.57-35.274-35.458,23.073-23.824L1518.356,76.5,1531.2,63.6l-26.569-26.717L1468.686,72.98l-15.475-15.556L1440.32,70.363Zm-221.245,4.469,94.95-95.327,50.8,51.073-23.056,23.148L1383.816,96l-71.894,72.179Zm9.458-.7,11.1,11.16,71.895-72.182,30.949,31.119,12.891-12.944L1386.315,62.4Zm-174.2-20.458,23.056-23.15,50.8,51.071-23.056,23.15Zm9.458-.7,42.048,42.273,12.892-12.944-42.048-42.269ZM962.6,105.893l23.056-23.15L1001.125,98.3l35.947-36.089L1072.4,97.727l-23.1,23.191L1033.9,104.836l-12.962,13.386,26.624,26.769,35.864-35.488,19.959,19.294-59.044,59.28Zm82.454,72.683,48.792-48.986-11.073-10.7-35.947,35.57L1011.548,119l23.073-23.824,15.468,16.154,12.845-12.9-26.568-26.717-35.947,36.093L984.944,92.25,972.053,105.19ZM823.8,183.045l94.95-95.327,50.8,51.073L946.5,161.939l-30.949-31.114L843.655,203Zm9.458-.7,11.1,11.16,71.895-72.182L947.2,152.439,960.1,139.495,918.048,97.225Zm-174.2-20.458,23.056-23.15,50.8,51.071-23.056,23.15Zm9.458-.7,42.048,42.273,12.891-12.944-42.048-42.269Zm-174.2-20.46,23.061-23.15,15.469,15.558L568.8,97.038l35.326,35.515-23.1,23.191-15.4-16.081-12.957,13.386L579.3,179.818l35.864-35.488,19.959,19.294-59.049,59.281ZM576.777,213.4l48.8-48.986-11.073-10.7-35.947,35.57-35.274-35.458L566.349,130l15.473,16.154,12.845-12.9-26.573-26.716-35.947,36.093-15.469-15.557-12.891,12.939Zm-221.239,4.469,94.95-95.327,50.8,51.073-23.056,23.148-30.949-31.114L375.388,237.83Zm9.458-.7,11.1,11.16,71.895-72.182,30.949,31.119,12.886-12.944-42.043-42.27ZM190.8,196.71l23.056-23.15,50.8,51.071L241.6,247.781Zm9.458-.7L242.3,238.279l12.892-12.944-42.048-42.269Zm-174.2-20.46L49.112,152.4l15.474,15.558,35.947-36.089L135.86,167.38l-23.1,23.191-15.4-16.081L84.406,187.876l26.624,26.769,35.864-35.488,19.959,19.294L107.8,257.732Zm82.454,72.683L157.3,199.244l-11.068-10.7-35.947,35.57L75.014,188.652l23.068-23.824,15.47,16.154,12.848-12.9L99.827,141.367,63.88,177.46,48.405,161.9,35.519,174.843ZM1711.416,100.324l23.056-23.148,19.85,19.957-23.056,23.148Zm9.458-.7,11.1,11.16,12.891-12.944-11.1-11.155Zm-477.725,35.53L1266.205,112l19.85,19.957L1263,155.107Zm9.458-.7,11.1,11.16,12.891-12.944-11.1-11.155Zm-477.725,35.53,23.056-23.148,19.85,19.957-23.056,23.148Zm9.458-.7,11.1,11.16,12.891-12.944-11.1-11.155ZM306.616,204.8l23.056-23.148,19.85,19.957L326.465,224.76Zm9.458-.7,11.1,11.16,12.892-12.944-11.1-11.155ZM1662.494,87.255,1739.47,9.972l50.8,51.071-23.056,23.15-30.949-31.114-53.921,54.133Zm9.458-.7,11.1,11.16,53.921-54.138,30.949,31.114,12.891-12.941-42.047-42.273Zm-477.725,35.53L1271.2,44.8,1322,95.87l-23.055,23.15L1268,87.906l-53.921,54.133Zm9.458-.7,11.1,11.16L1268.7,78.4l30.949,31.114,12.891-12.941L1270.5,54.3ZM725.96,156.908l76.977-77.283,50.8,51.071-23.056,23.15L799.73,122.732,745.81,176.865Zm9.458-.7,11.1,11.16,53.921-54.138,30.949,31.114L844.278,131.4,802.23,89.127Zm-477.725,35.53,76.977-77.283,50.8,51.071-23.056,23.15-30.949-31.114-53.921,54.133Zm9.458-.7,11.1,11.16,53.921-54.138,30.949,31.114,12.891-12.941-42.048-42.273ZM1616.071,40.583l23.056-23.148L1654.6,32.991l17.974-18.044,19.85,19.957L1651.4,76.1Zm9.458-.7L1652.1,66.593l30.865-30.985-11.1-11.16L1653.894,42.5,1638.42,26.935ZM1550.207,46.6l23.056-23.15,34.3,34.478L1584.5,81.074Zm9.459-.7,25.54,25.675L1598.1,58.629l-25.541-25.68ZM1147.8,75.41l23.056-23.148,15.474,15.556,17.974-18.044,19.85,19.957-41.03,41.194Zm9.459-.7,26.572,26.713L1214.7,70.434l-11.1-11.16-17.974,18.049-15.474-15.561Zm-75.323,6.717L1105,58.273l34.292,34.479L1116.232,115.9Zm9.458-.7,25.541,25.675,12.891-12.939-25.541-25.68ZM679.537,110.236l23.056-23.148,15.475,15.556L736.041,84.6l19.85,19.957-41.029,41.194Zm9.458-.7,26.574,26.713,30.865-30.985-11.1-11.16L717.36,112.15,701.886,96.588Zm-75.321,6.717L636.729,93.1l34.292,34.479-23.056,23.148Zm9.459-.7,25.539,25.675,12.891-12.939L636.022,102.6ZM211.27,145.063l23.056-23.148L249.8,137.471l17.974-18.044,19.85,19.957-41.03,41.194Zm9.459-.7L247.3,171.072l30.865-30.985-11.1-11.16-17.974,18.049-15.474-15.561Zm-75.323,6.717,23.056-23.15L202.756,162.4,179.7,185.553Zm9.459-.7,25.539,25.675L193.3,163.108l-25.541-25.68ZM1751.329-4.006l23.056-23.148,51.831,52.109L1803.16,48.1Zm52.538,42.6,12.891-12.939-43.08-43.312L1760.787-4.709Zm-520.8-7.778,23.056-23.148,51.831,52.109L1334.893,82.93Zm52.538,42.6,12.891-12.939-43.08-43.313L1292.52,30.117ZM814.8,65.647,837.851,42.5l51.831,52.109-23.056,23.148Zm52.538,42.6,12.891-12.939L837.145,52,824.253,64.944Zm-520.8-7.778,23.056-23.148,51.831,52.109L398.36,152.583Zm52.538,42.6,12.891-12.939-43.08-43.312L355.986,99.77ZM1868.172,5.28l16.978-18.086-15-15.683,41.265-41.138,51.042,50.492L1939.429,3.405l-14.374-14.49-35.83,36.006Zm21.6,10.293,36-36.169L1940.2-6.041l12.694-12.42-42.17-41.713-31.183,31.086,14.838,15.514L1877.645,4.263ZM1399.905,40.107l16.978-18.086-15-15.683L1443.152-34.8l51.039,50.493-23.029,22.539-14.375-14.49-35.83,36.006ZM1421.5,50.4l36-36.169,14.44,14.555,12.7-12.42-42.17-41.713L1411.28,5.739l14.836,15.514L1409.374,39.09ZM931.638,74.933l16.978-18.086-15-15.683L974.886.027l51.039,50.493L1002.9,73.058l-14.375-14.49L952.69,94.575Zm21.6,10.293,35.995-36.169,14.439,14.555,12.694-12.42L974.2,9.479,943.013,40.566,957.849,56.08,941.107,73.916ZM463.371,109.76l16.978-18.086-15-15.683,41.265-41.138,51.038,50.493-23.029,22.539-14.375-14.49L484.424,129.4Zm21.6,10.293,35.994-36.169L535.4,98.439l12.7-12.42-42.17-41.713L474.746,75.392l14.838,15.514-16.743,17.836ZM1985.3-19.181l42.23-42.393,19.85,19.954L2005.149.776Zm9.46-.7,11.1,11.159,32.059-32.19L2026.82-52.074Zm-477.725,35.53,42.228-42.393,19.85,19.954-42.229,42.4ZM1537.588,26.1l32.059-32.19-11.094-11.157L1526.49,14.942ZM1048.765,50.471l42.223-42.393,19.855,19.953-42.228,42.4Zm20.557,10.455,32.059-32.19-11.1-11.157-32.059,32.189ZM580.493,85.3l42.228-42.393,19.85,19.954-42.223,42.4Zm20.562,10.455,32.059-32.19-11.1-11.157L589.956,84.594ZM112.226,120.125l42.228-42.393,19.852,19.954-42.23,42.4Zm20.557,10.455,32.064-32.191-11.1-11.157-32.059,32.189Zm1554-129.9,111.61-112.052,19.835,19.937L1706.285,22.583ZM1707.2,12.792,1808.8-90.69l-11.114-11.177L1696.008.216ZM1218.514,35.511,1330.123-76.541l19.83,19.937L1238.018,57.409Zm20.421,12.108,101.6-103.482-11.114-11.177L1227.741,35.043ZM750.247,70.337,861.856-41.715l19.83,19.937L769.753,92.236Zm20.421,12.108,101.6-103.482L861.149-32.214,759.474,69.869ZM281.98,105.164,393.589-6.888l19.83,19.937L301.481,127.063Zm20.42,12.108L404,13.789,392.883,2.612,291.207,104.7ZM1585.122,9.471l59-59.243,35.324,35.515L1656.394,8.892,1640.919-6.665l-35.947,36.088Zm20.557,10.452,35.947-36.089L1657.1-.609l12.892-12.944-26.574-26.713L1594.584,8.767ZM1116.855,44.3l59-59.243,35.324,35.515-23.056,23.148-15.474-15.556L1136.705,64.25Zm20.557,10.452,35.947-36.089,15.474,15.558,12.892-12.944L1175.151-5.44l-48.839,49.034ZM648.588,79.124l59-59.243L742.916,55.4,719.86,78.545,704.385,62.988,668.438,99.076Zm20.557,10.452,35.947-36.089,15.474,15.558L733.458,56.1,706.884,29.387,658.046,78.42ZM180.321,113.95l59-59.243,35.324,35.515-23.056,23.148L236.118,97.815,200.171,133.9ZM200.878,124.4l35.947-36.089L252.3,103.871l12.892-12.944L238.617,64.213,189.78,113.247ZM1788.029-39.028l58.7-59.215,36,35.511-24.379,23.149-14.81-15.486L1831.18-42.288l30.984,31.154-23.05,23.14Zm51.777,41.542,12.9-12.945-30.913-31.082,22.468-23.225,15.025,15.71,13.8-13.1-27.009-26.638-48.586,49.012ZM1319.762-4.2l58.7-59.215,36,35.511-24.38,23.149-14.81-15.486L1362.912-7.462,1393.9,23.693l-23.05,23.14Zm51.777,41.542,12.9-12.945L1353.525-6.686l22.468-23.225,15.025,15.71,13.8-13.1-27.009-26.638L1329.223-4.93ZM851.5,30.625l58.7-59.215,36,35.511L921.817,30.07l-14.81-15.487L894.646,27.365l30.984,31.154-23.05,23.14Zm51.777,41.542,12.9-12.945L885.259,28.141,907.727,4.916l15.025,15.71,13.8-13.1L909.54-19.115,860.955,29.9ZM383.228,65.452l58.7-59.215,36,35.511L453.551,64.9,438.742,49.41,426.379,62.191l30.984,31.154-23.05,23.14Zm51.777,41.542,12.9-12.945L416.992,62.967l22.47-23.225,15.023,15.711,13.8-13.1L441.273,15.712,392.689,64.723ZM1954.673-52.758l42.107-41.1,19.548,21.186-42.358,43.117Zm9.144-.257,11.232,13.508,32.016-32.587-11.229-12.17ZM1486.406-17.932l42.1-41.1,19.554,21.185L1505.7,5.273ZM1506.782-4.68,1538.8-37.268l-11.229-12.17L1495.55-18.188ZM1018.14,16.895l42.1-41.1L1079.8-3.018,1037.437,40.1Zm20.375,13.251,32.016-32.588L1059.3-14.611l-32.019,31.249ZM549.873,51.721l42.1-41.1,19.554,21.185L569.17,74.926Zm20.375,13.251,32.016-32.588L591.032,20.216,559.016,51.465ZM81.6,86.548l42.107-41.1,19.553,21.185L100.9,109.752ZM101.981,99.8l32.011-32.587-11.227-12.17L90.75,86.291Z" transform="translate(-462.991 1958.411) rotate(-90)" fill="#fff"/>
      </g>
    </g>
  </g>
</svg>
