<svg xmlns="http://www.w3.org/2000/svg" xmlns:xlink="http://www.w3.org/1999/xlink" width="1920" height="988" viewBox="0 0 1920 988">
  <defs>
    <clipPath id="clip-path">
      <rect id="Rectangle_2660" data-name="Rectangle 2660" width="988" height="1920" fill="#f3f3f3"/>
    </clipPath>
    <clipPath id="clip-path-2">
      <path id="Path_162263" data-name="Path 162263" d="M0,0H987.6V1920H0Z" fill="#f5f5f5"/>
    </clipPath>
  </defs>
  <g id="Group_13863" data-name="Group 13863" transform="translate(-12229.188 -15515) rotate(90)" opacity="0.574">
    <path id="Path_43078" data-name="Path 43078" d="M0,0H988V1920H0Z" transform="translate(15515 -14149.188)" fill="#f5f5f5"/>
    <g id="Group_3035" data-name="Group 3035" transform="translate(15515 -14157.188)">
      <g id="Mask_Group_51" data-name="Mask Group 51" transform="translate(0 8.001)" opacity="0.5" clip-path="url(#clip-path)">
        <g id="Mask_Group_360" data-name="Mask Group 360" transform="translate(0 0)" clip-path="url(#clip-path-2)">
          <path id="Union_12" data-name="Union 12" d="M2014.579,2282.914l23.251-23.362,60.019,60.3-23.251,23.36Zm10.192-.058,49.885,50.122,13-13.063-49.886-50.118Zm-514.816,2.946,23.251-23.362,60.019,60.3-23.251,23.361Zm10.192-.058,49.885,50.122,13-13.063-49.885-50.119Zm-514.815,2.946,23.251-23.362,60.019,60.3-23.251,23.361Zm10.192-.058,49.886,50.122,13-13.063-49.886-50.118Zm-514.815,2.946,23.251-23.362,60.019,60.3-23.251,23.36Zm10.192-.058,49.886,50.122,13-13.063L523.9,2278.459Zm1630.928,10.15,17.044-18.333-17.409-18.1,41.636-41.49,59.044,58.49-23.271,22.7-16.648-16.76-36.131,36.334Zm9.762-36.388,17.226,17.909-16.8,18.078,13.974,13.154,36.3-36.5,16.724,16.846,12.825-12.51-48.781-48.327Zm-514.385,39.275,17.045-18.333-17.409-18.1,41.636-41.49,59.04,58.49-23.267,22.7-16.649-16.76-36.131,36.334Zm9.764-36.388,17.224,17.91-16.807,18.078,13.978,13.154,36.3-36.5,16.723,16.846,12.828-12.51-48.781-48.326Zm-514.387,39.276,17.044-18.333-17.41-18.1,41.636-41.49,59.04,58.49-23.267,22.7-16.648-16.76-36.131,36.334Zm9.764-36.388,17.224,17.909-16.807,18.079,13.98,13.154,36.3-36.5,16.724,16.846,12.825-12.51-48.78-48.326Zm-514.387,39.276L645.006,2292l-17.41-18.1,41.637-41.49,59.04,58.49-23.267,22.7-16.649-16.76-36.131,36.334Zm9.763-36.388,17.226,17.91-16.808,18.078,13.98,13.154,36.3-36.5,16.723,16.846,12.827-12.51-48.781-48.326Zm1629.153,9.94,42.588-42.786,22.986,23.1-42.586,42.785Zm10.194-.058,12.852,12.91,32.33-32.481-12.847-12.915Zm-514.816,2.946,42.586-42.786,22.986,23.1-42.587,42.784Zm23.044,12.851,32.33-32.482-12.847-12.915-32.336,32.487Zm-527.667-9.963,42.581-42.786,22.991,23.1-42.586,42.785Zm23.044,12.852,32.33-32.482-12.852-12.915-32.331,32.487Zm-527.673-9.964,42.586-42.786,22.986,23.1L776,2315.644Zm23.05,12.851,32.33-32.482L795.533,2260,763.2,2292.49Zm-527.673-9.964,42.586-42.786,22.988,23.1-42.588,42.785Zm23.044,12.852,32.336-32.482-12.852-12.915-32.33,32.487Zm1673.583-25.1,112.556-113.078,22.968,23.078-112.767,115.178Zm9.961.185,13.06,14.451,102.346-104.535-12.87-12.935Zm-514.583,2.7L1552.943,2173l22.963,23.078-112.762,115.178Zm9.96.185,13.06,14.451,102.346-104.535-12.87-12.935Zm-514.583,2.7,112.554-113.078,22.963,23.078-112.76,115.178Zm9.959.185,13.06,14.45,102.346-104.534-12.87-12.935Zm-514.583,2.7L543.7,2178.775l22.963,23.078L453.894,2317.031Zm9.96.185,13.06,14.45,102.346-104.535-12.87-12.935Zm1394.449-6.893,59.5-59.78,40.9,41.1-23.251,23.36-17.919-18.008-36.252,36.425Zm10.2-.058,12.847,12.91,36.252-36.418,17.919,18,13-13.058-30.771-30.919Zm-514.821,2.946,59.5-59.78,40.9,41.1-23.251,23.36-17.919-18.008-36.252,36.426Zm10.192-.058,12.852,12.91,36.252-36.418,17.919,18,13-13.058-30.771-30.919ZM826.3,2290.92l59.5-59.78,40.905,41.1-23.251,23.36-17.919-18.008-36.252,36.425Zm10.192-.058,12.852,12.91,36.252-36.418,17.919,18,13-13.057-30.771-30.92Zm-514.815,2.946,59.5-59.78,40.9,41.1-23.251,23.36-17.919-18.008-36.252,36.425Zm10.194-.058,12.85,12.91,36.252-36.418,17.919,18,13-13.058-30.771-30.919Zm1719.85-46.04,59.175-59.783,41.639,41.148-24.684,23.266-17.194-17.881-12.439,12.924,35.879,36.053-23.246,23.351Zm10.192-.085,48.982,48.939,13.01-13.069-35.8-35.964,22.609-23.488,17.443,18.136,13.971-13.171-31.237-30.865ZM1547.1,2250.6l59.175-59.783,41.64,41.148-24.686,23.266-17.194-17.881-12.439,12.923,35.879,36.054-23.246,23.351Zm10.194-.086,48.98,48.939,13.01-13.069-35.8-35.964,22.609-23.488,17.444,18.136,13.971-13.171-31.237-30.865Zm-514.817,2.974,59.175-59.784,41.641,41.148-24.686,23.266-17.194-17.881-12.439,12.923,35.879,36.053-23.246,23.351Zm10.192-.085,48.982,48.938,13.01-13.068-35.8-35.965,22.609-23.487,17.443,18.136,13.971-13.17-31.237-30.865Zm-514.815,2.973,59.175-59.783,41.641,41.148L613.986,2261l-17.192-17.881-12.441,12.923,35.879,36.054-23.246,23.351Zm10.194-.086,48.98,48.939,13.01-13.069-35.8-35.964,22.61-23.487,17.442,18.136,13.973-13.171-31.239-30.865Zm1683.159-11.058,42.551-41.386,22.751,24.407-42.673,43.556Zm9.885.4,13.17,15.471,32.254-32.922-13.068-14.015Zm-514.509,2.483,42.546-41.385,22.756,24.407-42.675,43.555Zm23.056,15.875,32.254-32.922-13.068-14.015-32.357,31.466ZM1221.963,2251l42.546-41.385,22.756,24.407-42.673,43.555Zm23.056,15.876,32.254-32.922-13.068-14.015-32.356,31.466ZM717.34,2253.892l42.546-41.386,22.756,24.408-42.673,43.555Zm23.055,15.875,32.254-32.922-13.072-14.015L727.225,2254.3ZM212.712,2256.78l42.551-41.386,22.756,24.407-42.673,43.555Zm23.061,15.875,32.249-32.922-13.066-14.015L222.6,2257.184Zm1690.2-42.351,23.251-23.355,22.986,23.09-23.251,23.362Zm10.192-.058,12.852,12.915,13-13.063-12.852-12.91Zm-118.327.677,77.629-77.989,40.9,41.1-23.251,23.36-17.919-18-54.378,54.629Zm10.2-.058,12.847,12.915,54.378-54.629,17.919,18,13-13.062-30.771-30.914Zm-406.686,2.327,23.251-23.354,22.986,23.09-23.251,23.362Zm10.192-.058,12.852,12.915,13-13.063-12.852-12.91Zm-118.327.677,77.629-77.989,40.9,41.1-23.251,23.36-17.919-18-54.378,54.629Zm10.2-.059,12.847,12.915,54.378-54.629,17.919,18,13-13.061-30.771-30.914Zm-406.686,2.327,23.251-23.355,22.986,23.09-23.251,23.362Zm10.192-.058,12.852,12.915,13-13.063-12.852-12.91Zm-118.327.677,77.629-77.989,40.9,41.1-23.251,23.36-17.919-18L831.578,2259.8Zm10.194-.058,12.85,12.915,54.378-54.628,17.919,18,13-13.062-30.771-30.914ZM412.1,2238.968l23.251-23.354,22.986,23.09-23.251,23.362Zm10.192-.058,12.852,12.916,13-13.063-12.852-12.91Zm-118.327.677L381.6,2161.6l40.9,41.1-23.251,23.36-17.919-18-54.378,54.629Zm10.194-.058,12.85,12.915,54.378-54.629,17.919,18,13-13.062-30.771-30.914Zm1882.257-30.085,77.629-77.989,58.823,59.1-23.251,23.362-35.838-36.007-54.378,54.628Zm10.192-.058,12.853,12.916,54.378-54.633,35.838,36.011,13-13.063-48.685-48.917Zm-514.815,2.946,77.629-77.989,58.824,59.1L1805,2216.807,1769.16,2180.8l-54.378,54.628Zm23.044,12.857,54.378-54.632,35.838,36.01,13-13.063-48.685-48.917-67.378,67.686Zm-527.673-9.969,77.634-77.989,58.823,59.1L1300.37,2219.7l-35.833-36.007-54.378,54.628Zm23.05,12.857,54.378-54.633,35.833,36.011,13-13.063-48.685-48.917-67.378,67.686Zm-527.673-9.969,77.629-77.989,58.824,59.1-23.251,23.362-35.838-36.007L705.531,2241.2Zm23.044,12.857,54.378-54.633,35.838,36.011,13-13.063-48.69-48.917-67.373,67.686Zm-527.667-9.969,77.629-77.989,58.826,59.1-23.253,23.362-35.838-36.008-54.378,54.628Zm23.044,12.857,54.378-54.633,35.838,36.011,13-13.063-48.69-48.917-67.373,67.686Zm1707.5-93.976,23.251-23.361,53.757,54.01,126.881-127.468,76.743,77.107-23.251,23.36-53.757-54.013-31.127,31.272,14.048,14.111,18.125-18.209,22.986,23.1-41.377,41.571-37.033-37.208-72.5,72.839Zm10.192-.059,66.609,66.927,72.5-72.845,37.034,37.208,31.126-31.268-12.852-12.915-18.126,18.215-24.181-24.3,41.377-41.571,53.757,54.01,13-13.057L2112.3,2053.3l-126.881,127.471-53.757-54.015Zm-514.815,2.946,23.251-23.36,53.757,54.01,126.881-127.468,76.743,77.107-23.252,23.36-53.757-54.014-31.127,31.272,14.048,14.111,18.125-18.209,22.986,23.1-41.377,41.571-37.034-37.208-72.5,72.839Zm10.194-.059,66.607,66.927,72.5-72.845L1590.183,2174l31.121-31.268-12.847-12.916-18.126,18.215-24.181-24.3,41.377-41.571,53.757,54.01,13-13.058-66.609-66.925-126.882,127.472-53.757-54.015Zm-514.817,2.946,23.251-23.36,53.757,54.01,126.882-127.468,76.743,77.107L1156.6,2149.3l-53.757-54.013-31.127,31.272,14.047,14.111,18.126-18.209,22.985,23.1-41.377,41.571-37.033-37.209-72.5,72.839Zm10.192-.059,66.609,66.927,72.5-72.845,37.033,37.209,31.121-31.268-12.847-12.916-18.126,18.215-24.181-24.3,41.377-41.571,53.757,54.01,13-13.058-66.609-66.925L976.171,2186.544l-53.757-54.015ZM394.6,2148.538l23.251-23.36,53.757,54.01L598.488,2051.72l76.743,77.107-23.251,23.36-53.757-54.014L567.1,2129.446l14.044,14.111,18.126-18.209,22.989,23.1-41.381,41.571-37.03-37.208-72.5,72.839Zm10.192-.058,66.609,66.927,72.5-72.844,37.03,37.208,31.125-31.268-12.85-12.915L581.082,2153.8,556.9,2129.5l41.377-41.571,53.757,54.01,13-13.058-66.6-66.925L471.548,2189.432l-53.757-54.015Zm1719.711,26.4,23.354-23.465,16.916,18.024,37.217-36.979,23,23.5-60.782,57.948Zm10.248-.114,29.594,29.082,50.358-48.012-12.842-13.115-37.323,37.085-16.889-18Zm-514.87,3,23.354-23.465,16.916,18.024,37.217-36.979,23,23.5-60.783,57.948Zm10.249-.114,29.592,29.081,50.353-48.012-12.837-13.115-37.323,37.085-16.887-18Zm-514.873,3,23.354-23.465,16.915,18.024,37.217-36.979,23,23.5-60.783,57.947Zm10.25-.114,29.588,29.082,50.357-48.012-12.837-13.116-37.324,37.085-16.892-18Zm-514.876,3,23.357-23.465L650.9,2178.1l37.217-36.979,23,23.5-60.783,57.948Zm10.253-.114,29.588,29.082,50.357-48.012-12.837-13.115-37.324,37.085-16.892-18ZM2269.124,2101.6l23.251-23.363,76.743,77.107-23.253,23.36Zm10.192-.059,66.608,66.919,13-13.058-66.6-66.925Zm-514.821,2.946,23.257-23.362,76.742,77.107-23.256,23.36Zm76.8,66.861,13-13.058-66.6-66.925-13,13.063Zm-581.424-63.974,23.251-23.362,76.742,77.108-23.251,23.36Zm76.8,66.861,13-13.058-66.609-66.925-13,13.063Zm-581.424-63.973L778.5,2086.9l76.744,77.107-23.253,23.36Zm76.8,66.861,13-13.058-66.609-66.925-13,13.063Zm-581.424-63.974,23.251-23.362,76.744,77.107-23.253,23.36Zm76.8,66.861,13-13.058-66.609-66.925-13,13.063Zm1525.871-56.72,78.834-79.2,40.905,41.1-23.251,23.36-17.919-18-55.582,55.847Zm10.194-.059,12.852,12.912,55.582-55.844,17.919,18,13-13.063-30.771-30.914Zm-514.821,2.946,78.838-79.2,40.905,41.1-23.251,23.36-17.919-18-55.587,55.848Zm10.2-.058,12.847,12.912,55.587-55.845,17.919,18.005,13-13.063-30.771-30.915Zm-514.82,2.946,78.838-79.2,40.9,41.1-23.251,23.36-17.919-18-55.587,55.848Zm10.2-.059,12.847,12.912,55.587-55.844,17.919,18,13-13.063L922.828,2060.1Zm-514.82,2.946,78.838-79.2,40.9,41.1-23.251,23.361-17.919-18-55.587,55.848Zm10.192-.058,12.852,12.912,55.587-55.844,17.919,18,13-13.063-30.771-30.914ZM2161.2,2066l23.251-23.357,76.742,77.107-23.251,23.36Zm76.8,66.866,13-13.058-66.609-66.925-13,13.058Zm-275.359-11.408,59.5-59.78,22.986,23.092-59.5,59.784Zm10.192-.058,12.852,12.91,49.253-49.481-12.852-12.911Zm-316.258-52.513,23.251-23.356,76.743,77.107L1733.315,2146Zm76.8,66.867,13-13.058-66.6-66.925-13,13.057Zm-275.359-11.407,59.5-59.78,22.985,23.092-59.5,59.783Zm10.192-.058,12.852,12.91,49.253-49.481-12.852-12.911Zm-316.258-52.513,23.251-23.357,76.743,77.108-23.251,23.36Zm76.8,66.867,13-13.058-66.6-66.925-13,13.058Zm-275.359-11.407,59.5-59.78,22.986,23.092-59.5,59.784Zm10.192-.058,12.852,12.909,49.253-49.481-12.852-12.911Zm-316.263-52.513,23.257-23.357,76.743,77.107-23.257,23.36Zm76.8,66.866,13-13.058-66.6-66.925-13,13.057Zm-275.353-11.407,59.5-59.78,22.986,23.092-59.5,59.784Zm10.192-.058,12.852,12.909,49.252-49.481-12.852-12.911ZM142.7,2077.552l23.251-23.356,76.744,77.107-23.253,23.36Zm10.2-.058,66.6,66.925,13-13.057-66.609-66.925Zm1629.932-27.432,23.256-23.362,58.824,59.1-23.256,23.361Zm10.2-.058,48.685,48.922,13-13.063-48.685-48.917Zm-514.821,2.946,23.251-23.362,58.824,59.1-23.251,23.36Zm10.2-.058,48.685,48.922,13-13.063-48.69-48.917Zm-514.82,2.946,23.251-23.362,58.824,59.1-23.251,23.361Zm10.194-.058,48.688,48.922,13-13.063-48.69-48.917Zm-514.817,2.946,23.251-23.362,58.826,59.1-23.253,23.36Zm10.194-.058,48.688,48.922,13-13.063-48.69-48.917Zm1918.266-29.056,41.406-41.6,40.864,41.057-18.088,18.772,18.056,17.529-23.439,22Zm10.253-.114,48.72,47.854,12.8-12.013-17.788-17.27,18.171-18.855-30.807-30.955Zm-514.876,3,41.406-41.6,40.864,41.057-18.088,18.772,18.056,17.529-23.439,22Zm58.973,47.739,12.8-12.013-17.789-17.271,18.171-18.854-30.807-30.955-31.1,31.24Zm-563.6-44.851,41.41-41.6,40.864,41.057-18.088,18.772,18.056,17.529-23.439,22Zm58.976,47.739,12.8-12.013-17.788-17.27,18.171-18.855-30.807-30.955-31.1,31.24Zm-563.6-44.851,41.4-41.6,40.869,41.057L747.731,2056.5l18.056,17.529-23.439,22Zm58.977,47.739,12.8-12.013-17.789-17.271,18.171-18.854-30.812-30.955-31.092,31.24Zm-563.6-44.852,41.4-41.6L261.2,2040.62l-18.088,18.771,18.056,17.529-23.439,22ZM237.9,2088.9l12.8-12.013-17.789-17.27,18.171-18.855-30.812-30.955-31.092,31.239Zm1797.243-40.283,23.251-23.362,22.986,23.1-23.252,23.36Zm10.192-.058,12.852,12.915,13-13.062-12.853-12.91ZM1909.3,1995.02l23.251-23.362,53.757,54.01,36.252-36.418,22.986,23.1-59.5,59.78Zm10.192-.058,66.609,66.925,49.253-49.483-12.852-12.91-36.252,36.42-53.757-54.016Zm-100.408,18.68,23.251-23.36,35.838,36.005,18.126-18.209,22.986,23.1-41.377,41.571Zm10.2-.058,48.685,48.922,31.126-31.274-12.852-12.91-18.126,18.211-35.838-36.007ZM1530.519,2051.5l23.251-23.362,22.986,23.1L1553.5,2074.6Zm10.192-.058,12.852,12.915,13-13.063-12.852-12.909Zm-136.039-53.539,23.251-23.362,53.757,54.01,36.252-36.418,22.986,23.1-59.5,59.78Zm10.194-.058,66.607,66.925,49.253-49.483-12.852-12.91-36.252,36.42-53.757-54.015Zm-100.409,18.68,23.251-23.36,35.838,36.005,18.126-18.208,22.986,23.1-41.377,41.571Zm10.2-.059,48.684,48.923,31.127-31.274-12.852-12.91-18.126,18.211-35.838-36.008ZM1025.9,2054.393l23.251-23.362,22.986,23.1-23.251,23.361Zm10.192-.058,12.852,12.915,13-13.063-12.852-12.91ZM900.049,2000.8l23.251-23.362,53.757,54.01,36.252-36.418,22.986,23.1-59.5,59.78Zm10.192-.058,66.609,66.925,49.253-49.483-12.852-12.909L977,2041.689l-53.757-54.015Zm-100.408,18.68,23.251-23.36,35.838,36.005,18.126-18.209,22.986,23.1-41.377,41.571Zm10.194-.058,48.688,48.922,31.127-31.274L886.99,2024.1l-18.126,18.211L833.026,2006.3ZM521.273,2057.28l23.251-23.362,22.986,23.1-23.251,23.361Zm10.192-.058,12.852,12.915,13-13.063-12.852-12.91Zm-136.039-53.539,23.251-23.362,53.757,54.01,36.252-36.418,22.986,23.1-59.5,59.78Zm10.192-.058,66.609,66.925,49.253-49.483-12.852-12.91-36.252,36.42-53.757-54.015ZM305.211,2022.3l23.251-23.36L364.3,2034.95l18.126-18.209,22.986,23.1-41.377,41.571Zm10.194-.058,48.688,48.922,31.127-31.273-12.852-12.91L364.241,2045.2,328.4,2009.189ZM2125.358,2030l77.629-77.991,22.986,23.1-77.629,77.99Zm10.192-.058,12.852,12.913,67.378-67.692-12.852-12.915Zm-514.815,2.946,77.629-77.99,22.986,23.1-77.629,77.991Zm10.192-.058,12.852,12.913,67.377-67.691-12.85-12.915Zm-514.815,2.946,77.629-77.99,22.986,23.1-77.629,77.99Zm10.192-.058,12.852,12.913,67.373-67.692-12.847-12.915Zm-514.815,2.946,77.629-77.99,22.986,23.1-77.629,77.991Zm10.192-.058,12.852,12.913,67.373-67.692-12.847-12.915ZM2022.7,1963.275l-36.252,36.425-22.986-23.1,59.5-59.78,94.662,95.11L2094.38,2035.3Zm71.734,61.774,13-13.058-84.528-84.927-49.253,49.481,12.852,12.911,36.252-36.42Zm-576.357-58.886-36.252,36.425-22.986-23.1,59.5-59.78,94.662,95.11-23.252,23.362Zm71.734,61.774,13-13.058-84.528-84.928-49.252,49.481,12.852,12.911,36.252-36.419Zm-576.358-58.886-36.252,36.425-22.986-23.1,59.5-59.78,94.662,95.11-23.251,23.362Zm71.735,61.773,13-13.058-84.528-84.927-49.252,49.481,12.852,12.911,36.252-36.419Zm-576.358-58.886-36.252,36.425-22.986-23.1,59.5-59.78,94.662,95.11-23.251,23.362Zm71.734,61.774,13-13.058-84.528-84.928-49.253,49.481,12.852,12.911,36.252-36.42Zm1635.418-94.771,23.251-23.356,75.547,75.906-23.251,23.362Zm10.192-.058,65.414,65.725,13-13.059-65.414-65.724Zm-514.815,2.946,23.251-23.356,75.547,75.906-23.251,23.362Zm75.606,65.667,13-13.059-65.414-65.724-13,13.057Zm-580.234-62.779,23.257-23.357,75.547,75.906-23.251,23.362Zm75.611,65.667,13-13.059-65.414-65.724-13,13.058ZM702.113,1947.6l23.251-23.356,75.553,75.906-23.251,23.362Zm75.611,65.667,13-13.059-65.414-65.724-13,13.058ZM197.49,1950.493l23.251-23.357,75.553,75.906L273.037,2026.4ZM273.1,2016.16l13-13.059-65.414-65.724-13,13.058Zm1798.712-76.393,23.251-23.356,35.838,36.007,13-13.063-35.838-36.007,23.252-23.36L2167.149,1916l36.252-36.423,22.986,23.1-95.755,96.205Zm10.192-.058,48.69,48.923,85.5-85.9-12.852-12.91-36.252,36.419-35.838-36.007-13,13.058,35.838,36.007-23.251,23.36L2095,1926.651Zm-226.668,37.513,18.126-18.209L1855.539,1941l23.251-23.356,40.9,41.1-41.377,41.571Zm10.4-36.275,17.914,18.008-18.12,18.209,12.847,12.911,31.126-31.268-30.771-30.918Zm-298.551,1.708,23.251-23.356,35.838,36.007,13-13.063-35.838-36.007,23.251-23.36,35.838,36.01,36.252-36.423,22.986,23.1-95.755,96.205Zm10.192-.058,48.69,48.922,85.5-85.9-12.853-12.91-36.252,36.42-35.838-36.007-13,13.057,35.838,36.007-23.251,23.36-35.838-36.006Zm-226.668,37.513,18.125-18.209-17.919-18.008,23.251-23.356,40.9,41.1-41.377,41.571Zm10.4-36.276,17.919,18.008-18.126,18.209,12.852,12.911,31.127-31.268-30.771-30.918Zm-298.546,1.708,23.251-23.356,35.838,36.007,13-13.063-35.838-36.007,23.251-23.36,35.838,36.011,36.252-36.423,22.986,23.1-95.755,96.2Zm10.192-.058,48.69,48.922,85.5-85.9-12.847-12.91-36.252,36.419-35.838-36.007-13,13.058,35.838,36.007-23.251,23.361-35.838-36.006ZM846.085,1983l18.126-18.209-17.919-18.008,23.251-23.357,40.9,41.1-41.377,41.571Zm10.4-36.276L874.4,1964.73l-18.126,18.209,12.852,12.911,31.126-31.268-30.771-30.918Zm-298.546,1.709,23.251-23.357,35.838,36.007,13-13.063L594.19,1912.01l23.251-23.36,35.838,36.011,36.252-36.423,22.986,23.1-95.755,96.2Zm10.192-.059,48.69,48.922,85.5-85.9-12.847-12.909-36.252,36.42-35.838-36.007-13,13.058,35.838,36.007-23.251,23.361-35.838-36.006Zm-226.668,37.513,18.126-18.209-17.919-18.008,23.251-23.356,40.9,41.1-41.377,41.571Zm10.4-36.275,17.919,18.008-18.126,18.209,12.852,12.912,31.127-31.269-30.771-30.918Zm1431.588-8.192,58.3-58.567,22.986,23.1-35.042,35.2,17.919,18.008-23.257,23.356Zm10.2-.059,30.766,30.918,13-13.058-17.919-18.008,35.048-35.2-12.853-12.911Zm-514.82,2.947,58.3-58.567,22.986,23.1-35.043,35.2,17.914,18.008-23.251,23.356Zm10.2-.059,30.766,30.918,13-13.058-17.919-18.008,35.043-35.2-12.847-12.912ZM774.2,1947.193l58.294-58.566,22.991,23.1-35.046,35.2,17.917,18.008-23.251,23.357Zm10.194-.058,30.77,30.918,13-13.058-17.919-18.009,35.043-35.2-12.852-12.911ZM269.58,1950.08l58.294-58.566,22.986,23.1-35.041,35.2,17.919,18.008-23.253,23.357Zm10.194-.058,30.769,30.918,13-13.057-17.919-18.009,35.043-35.2-12.852-12.911Zm1647.855-9.43,41.377-41.571,22.985,23.1-41.377,41.569Zm10.192-.058,12.852,12.915,31.126-31.272-12.852-12.912Zm-514.815,2.946,41.377-41.571,22.986,23.1-41.377,41.569Zm10.192-.058,12.852,12.916,31.126-31.272-12.852-12.911Zm-514.815,2.946,41.377-41.571,22.986,23.1-41.377,41.569Zm10.192-.058,12.852,12.915,31.126-31.272L959.7,1915.041Zm-514.815,2.946,41.377-41.571,22.986,23.1-41.377,41.57Zm10.192-.058,12.852,12.916,31.127-31.272-12.852-12.911ZM2180.563,1830.51l23.251-23.362,17.919,18,36.252-36.42,40.9,41.1-23.293,23.4-17.875-18.564-13.045,13.536,30.83,30.978,36.207-35.774,23.054,22.385-59.544,59.823Zm10.192-.058,84.528,84.928,49.206-49.439-12.791-12.414-36.29,35.857-40.846-41.036,23.219-24.093,17.957,18.653,12.959-13.016-30.771-30.919-36.252,36.419-17.919-18ZM2035.97,1903.76l95.755-96.2,58.824,59.1-23.252,23.362-35.838-36.007-72.5,72.839Zm10.192-.058,12.852,12.915,72.5-72.843,35.838,36.007,13-13.06-48.69-48.92Zm-190.209-35.124,23.251-23.36,58.823,59.1-23.251,23.362Zm10.2-.058,48.685,48.922,13-13.063-48.69-48.917ZM1675.94,1833.4l23.251-23.362,17.919,18,36.252-36.419,40.9,41.1-23.3,23.4-17.869-18.565-13.044,13.536,30.83,30.979,36.207-35.774,23.055,22.386-59.545,59.823Zm94.72,84.869,49.206-49.439-12.791-12.414-36.289,35.857-40.846-41.036,23.219-24.093,17.957,18.653,12.954-13.016-30.766-30.92-36.251,36.42-17.919-18-13,13.063Zm-239.314-11.619,95.755-96.2,58.824,59.1-23.251,23.362-35.838-36.007-72.5,72.839Zm10.192-.058,12.852,12.915,72.5-72.843,35.838,36.007,13-13.06-48.691-48.92Zm-190.209-35.124,23.251-23.361,58.824,59.1-23.251,23.362Zm10.192-.058,48.69,48.922,13-13.063-48.69-48.917Zm-190.2-35.122,23.251-23.362,17.919,18.005,36.252-36.42,40.9,41.1-23.3,23.4-17.869-18.564-13.044,13.536,30.83,30.979,36.207-35.774,23.054,22.385-59.545,59.823Zm94.72,84.869,49.206-49.439-12.791-12.413-36.29,35.857-40.846-41.036,23.219-24.094,17.957,18.653,12.953-13.016-30.766-30.92-36.252,36.42-17.919-18-13,13.063Zm-239.314-11.619,95.755-96.2,58.824,59.1-23.251,23.362-35.838-36.007-72.5,72.839Zm10.192-.059,12.852,12.915,72.5-72.843,35.838,36.007,13-13.06-48.69-48.921Zm-190.21-35.124,23.251-23.36,58.824,59.1-23.251,23.362Zm10.192-.058,48.69,48.922,13-13.063-48.69-48.917Zm-190.21-35.122,23.257-23.363,17.914,18,36.252-36.42,40.907,41.1-23.295,23.4-17.874-18.564-13.039,13.536,30.83,30.978,36.207-35.774L820.9,1874.46l-59.55,59.823Zm94.72,84.869L810.62,1874.6l-12.791-12.414-36.29,35.857-40.846-41.036,23.214-24.093,17.962,18.653,12.954-13.016-30.771-30.92-36.252,36.42-17.914-18-13,13.063ZM522.1,1912.423l95.755-96.2,58.824,59.1-23.251,23.362-35.838-36.007-72.5,72.839Zm10.192-.058,12.852,12.915,72.5-72.843,35.838,36.007,13-13.059L617.8,1826.464Zm-190.21-35.124,23.251-23.36,58.824,59.1-23.251,23.362Zm10.192-.058,48.69,48.922,13-13.063-48.69-48.917Zm-190.21-35.122,23.251-23.362,17.919,18,36.252-36.42,40.906,41.1-23.294,23.4-17.875-18.564-13.039,13.536,30.83,30.978,36.207-35.774,23.054,22.385-59.55,59.823Zm94.72,84.869,49.206-49.439-12.785-12.413-36.29,35.857L216.071,1859.9l23.214-24.093,17.958,18.653,12.957-13.016-30.771-30.92-36.252,36.42-17.919-18-13,13.063Zm1725.22-40.966,23.251-23.362,22.985,23.1-23.251,23.36Zm10.192-.058,12.852,12.91,13-13.058-12.852-12.912Zm-514.815,2.946,23.251-23.362,22.985,23.1-23.251,23.36Zm10.192-.058,12.852,12.91,13-13.058-12.852-12.911Zm-514.815,2.946,23.251-23.362,22.986,23.1-23.251,23.361Zm10.192-.058,12.852,12.91,13-13.058-12.852-12.911Zm-514.815,2.946,23.251-23.362,22.986,23.1-23.251,23.36Zm10.192-.059,12.852,12.91,13-13.058-12.852-12.912Zm1449.714-26.4,77.629-77.989,58.824,59.1-23.251,23.362-35.838-36.013-54.378,54.634Zm10.192-.058,12.852,12.911,54.378-54.629L2041.3,1862.4l13-13.057-48.69-48.922Zm-514.815,2.946,77.629-77.989,58.823,59.1-23.251,23.362-35.838-36.012-54.378,54.635Zm10.192-.059,12.852,12.912,54.378-54.629,35.838,36.005,13-13.057-48.69-48.922ZM918.8,1873.941l77.629-77.989,58.824,59.1L1032,1878.417,996.159,1842.4l-54.378,54.634Zm10.192-.058,12.852,12.911,54.378-54.628,35.838,36.005,13-13.058-48.69-48.922Zm-514.815,2.946L491.8,1798.84l58.824,59.1L527.375,1881.3l-35.838-36.013-54.378,54.634Zm10.192-.058,12.852,12.912,54.378-54.629,35.838,36.005,13-13.057-48.69-48.922Zm1449.92-62.615,23.251-23.36,17.919,18,18.125-18.209,22.986,23.1-41.377,41.571Zm10.192-.058,30.772,30.914,31.126-31.268-12.852-12.915-18.125,18.211-17.919-18Zm-81.086,1.672,23.251-23.362,39.715,39.9-23.256,23.36Zm10.194-.058,29.574,29.713,13-13.058-29.576-29.718Zm-443.923,1.332,23.251-23.36,17.919,18,18.126-18.208,22.986,23.1-41.377,41.571Zm10.194-.058,30.769,30.914,31.126-31.269-12.852-12.915-18.126,18.211-17.919-18Zm-81.088,1.672,23.251-23.362,39.709,39.9-23.251,23.36Zm10.192-.058,29.576,29.713,13-13.058-29.576-29.718Zm-443.921,1.332,23.251-23.36,17.919,18,18.126-18.209,22.986,23.1-41.377,41.571Zm10.192-.058L906,1850.787l31.126-31.268L924.277,1806.6l-18.126,18.211-17.919-18Zm-81.086,1.672,23.251-23.362,39.709,39.9-23.251,23.36Zm10.194-.058,29.574,29.713,13-13.058-29.576-29.718Zm-443.922,1.332,23.251-23.36,17.919,18,18.126-18.209,22.986,23.1-41.377,41.571Zm10.194-.058,30.769,30.914,31.126-31.269-12.852-12.915L401.528,1827.7l-17.919-18Zm-81.088,1.672,23.251-23.362,39.711,39.9-23.253,23.36Zm10.194-.059,29.574,29.713,13-13.058-29.576-29.718Zm1717.761-48.46,23.251-23.362,60.019,60.308-23.251,23.357Zm60.078,50.064,13-13.06-49.886-50.122-13,13.059Zm-564.7-47.176,23.251-23.362,60.019,60.308-23.251,23.356Zm60.078,50.063,13-13.06-49.885-50.122-13,13.06Zm-564.7-47.176,23.251-23.362,60.019,60.308-23.251,23.357Zm60.078,50.063,13-13.059-49.886-50.122-13,13.059Zm-564.7-47.176,23.251-23.362,60.019,60.308-23.251,23.357Zm60.078,50.064,13-13.059L526.8,1771.459l-13,13.06Zm1581.043-39.971,17.045-18.328-17.409-18.108,41.636-41.49,59.044,58.494-23.271,22.7-16.648-16.766-36.132,36.335Zm24.16,12.757,36.3-36.5,16.724,16.841,12.825-12.51-48.781-48.323-31.464,31.355,17.226,17.91-16.8,18.076Zm-528.783-9.87,17.045-18.328-17.409-18.108,41.636-41.49,59.04,58.494-23.267,22.7-16.649-16.766L1664.37,1820.4Zm24.159,12.757,36.3-36.5,16.723,16.84,12.828-12.51-48.782-48.323-31.464,31.355,17.224,17.91-16.807,18.076Zm-528.782-9.869,17.044-18.328-17.41-18.108,41.636-41.49,59.041,58.494-23.267,22.7-16.649-16.766-36.131,36.335Zm24.161,12.757,36.3-36.5,16.724,16.84,12.825-12.51-48.78-48.323-31.464,31.354,17.224,17.91-16.806,18.076Zm-528.784-9.869L647.9,1785,630.494,1766.9l41.636-41.49,59.04,58.494L707.9,1806.6l-16.648-16.766-36.131,36.335Zm24.161,12.757,36.3-36.5,16.723,16.84,12.827-12.51L672.086,1735.6l-31.464,31.354,17.226,17.91-16.808,18.076Zm1614.755-39.207,42.588-42.785,22.986,23.1-42.586,42.784Zm23.046,12.857,32.331-32.485-12.847-12.912-32.335,32.482Zm-527.667-9.969,42.586-42.785,22.986,23.1-42.586,42.784Zm23.044,12.857,32.33-32.485-12.847-12.912-32.336,32.482Zm-527.667-9.969,42.581-42.784,22.991,23.1-42.586,42.785Zm23.045,12.857,32.33-32.485-12.852-12.912-32.331,32.482ZM755.9,1785.546l42.586-42.784,22.986,23.1-42.581,42.784Zm23.05,12.857,32.33-32.485-12.852-12.911-32.33,32.482Zm-527.673-9.969,42.586-42.784,22.988,23.1-42.588,42.784Zm23.044,12.857,32.336-32.486-12.852-12.912-32.33,32.482Zm1673.583-25.1,112.556-113.078,22.968,23.073-112.767,115.178Zm23.021,14.635,102.346-104.54-12.87-12.935-102.536,103.019Zm-527.643-11.748,112.554-113.078,22.963,23.073-112.761,115.178Zm23.02,14.635,102.346-104.539-12.87-12.935-102.536,103.019Zm-527.643-11.747,112.554-113.078,22.963,23.073-112.76,115.178Zm23.02,14.635,102.346-104.54-12.87-12.935L948.622,1782.15Zm-527.643-11.747,112.554-113.078,22.963,23.073L456.791,1810.032Zm23.02,14.635,102.346-104.54-12.87-12.935L444,1785.038Zm1381.388-21.349,59.5-59.78,40.9,41.1-23.251,23.36-17.919-18-36.252,36.418ZM1861.491,1791l36.252-36.423,17.919,18.006,13-13.061-30.771-30.914-49.247,49.477Zm-527.667-9.969,59.5-59.78,40.9,41.1-23.251,23.36-17.919-18-36.252,36.418Zm23.044,12.857,36.251-36.423,17.919,18.006,13-13.061-30.771-30.914-49.253,49.477ZM829.2,1783.92l59.5-59.78,40.9,41.1-23.251,23.36-17.919-18-36.252,36.418Zm23.044,12.857,36.252-36.423,17.919,18.006,13-13.061-30.772-30.914-49.252,49.477Zm-527.667-9.969,59.5-59.779,40.9,41.1-23.251,23.36-17.919-18L347.564,1809.9Zm23.044,12.857,36.252-36.423,17.919,18.006,13-13.061-30.771-30.914-49.251,49.477Zm1707-58.955,59.175-59.778,41.639,41.142-24.684,23.266-17.194-17.877-12.439,12.925L2137,1776.437l-23.246,23.357Zm59.175,48.853,13.01-13.069-35.8-35.964,22.609-23.487,17.444,18.136,13.971-13.17-31.238-30.861-48.98,49.476ZM1550,1743.6l59.175-59.778,41.641,41.143-24.686,23.266-17.194-17.877-12.439,12.925,35.879,36.048-23.246,23.356Zm59.175,48.853,13.01-13.069-35.8-35.964,22.609-23.487,17.443,18.136,13.971-13.17-31.237-30.862-48.979,49.476Zm-563.8-45.966,59.175-59.778,41.641,41.142-24.686,23.266-17.194-17.878-12.439,12.926,35.879,36.048-23.246,23.357Zm59.174,48.853,13.01-13.068-35.8-35.964,22.609-23.488,17.443,18.136,13.971-13.171-31.237-30.861-48.98,49.476Zm-563.8-45.965,59.175-59.778,41.641,41.142L616.883,1754l-17.192-17.877-12.441,12.925,35.879,36.048-23.246,23.357Zm59.174,48.853,13.01-13.068-35.8-35.964,22.611-23.488,17.442,18.136,13.972-13.17-31.239-30.861-48.978,49.476Zm1634.178-60,42.552-41.386,22.75,24.407-42.673,43.556Zm23.056,15.876,32.254-32.919-13.068-14.018-32.356,31.469Zm-527.679-12.988,42.546-41.386,22.756,24.407-42.675,43.556Zm23.056,15.876,32.254-32.919-13.068-14.018-32.357,31.469ZM1224.86,1744l42.546-41.386,22.756,24.407-42.673,43.556Zm23.056,15.876,32.254-32.92-13.068-14.018-32.357,31.469Zm-527.679-12.988,42.546-41.386,22.756,24.407-42.673,43.556Zm23.055,15.875,32.254-32.919-13.072-14.018L730.122,1747.3ZM215.609,1749.78l42.551-41.386,22.756,24.407-42.673,43.556Zm23.061,15.876,32.249-32.919-13.066-14.018L225.5,1750.188Zm1690.2-42.345,23.251-23.362,22.986,23.1-23.251,23.36Zm10.192-.058,12.852,12.909,13-13.057-12.852-12.915Zm-118.327.677,77.629-77.991,40.9,41.1-23.25,23.357-17.92-18.005-54.377,54.634Zm10.2-.058,12.847,12.91,54.378-54.629,17.919,18,13-13.057-30.771-30.918Zm-406.686,2.327,23.251-23.362,22.986,23.1-23.251,23.36Zm10.192-.058,12.852,12.91,13-13.058-12.852-12.915Zm-118.327.677,77.629-77.991,40.9,41.1-23.251,23.357-17.919-18-54.378,54.634Zm10.2-.058,12.847,12.91,54.378-54.629,17.919,18,13-13.057-30.771-30.918Zm-406.686,2.327,23.251-23.362,22.986,23.1-23.251,23.36Zm10.192-.058,12.852,12.909,13-13.057-12.852-12.915Zm-118.327.677,77.629-77.991,40.905,41.1-23.251,23.357-17.919-18L834.475,1752.8Zm10.194-.058,12.851,12.91,54.378-54.629,17.919,18,13-13.057-30.771-30.918ZM415,1731.973l23.251-23.362,22.986,23.1-23.251,23.36Zm10.192-.058,12.852,12.91,13-13.057-12.852-12.915Zm-118.327.677,77.629-77.99,40.9,41.1-23.251,23.357-17.919-18-54.378,54.634Zm10.194-.058,12.85,12.91,54.378-54.629,17.919,18,13-13.058-30.771-30.918Zm1882.257-30.085,77.629-77.99,58.823,59.1-23.251,23.362-35.838-36.011-54.378,54.632Zm10.192-.058,12.853,12.91,54.377-54.629,35.838,36.007,13-13.059-48.685-48.921Zm-514.815,2.946,77.629-77.99,58.824,59.1-23.251,23.362-35.838-36.011-54.378,54.632Zm23.044,12.852,54.378-54.629,35.838,36.007,13-13.059-48.685-48.92-67.378,67.692Zm-527.673-9.964,77.634-77.99,58.823,59.1-23.256,23.362-35.833-36.011-54.378,54.632Zm23.05,12.851,54.378-54.629,35.833,36.007,13-13.059-48.685-48.921-67.378,67.691Zm-527.673-9.964,77.629-77.99,58.824,59.1-23.251,23.362-35.838-36.011-54.378,54.632Zm23.044,12.852,54.378-54.629,35.838,36.007,13-13.06-48.69-48.921-67.373,67.692ZM180.819,1714l77.629-77.99,58.826,59.1-23.253,23.362-35.838-36.011L203.805,1737.1Zm23.044,12.852,54.378-54.629,35.838,36.007,13-13.059-48.69-48.921-67.373,67.692Zm1707.5-93.976,23.251-23.36,53.757,54.015,126.881-127.473L2192,1613.164l-23.251,23.36-53.757-54.01-31.127,31.269,14.048,14.111,18.126-18.21,22.986,23.1-41.377,41.571-37.033-37.209-72.5,72.84Zm10.193-.058,66.609,66.925,72.5-72.838,37.033,37.207,31.126-31.272-12.852-12.911-18.126,18.211-24.181-24.3,41.377-41.571,53.757,54.015,13-13.063L2115.2,1546.3l-126.881,127.471-53.757-54.01Zm-514.815,2.946,23.251-23.36,53.757,54.015,126.882-127.473,76.743,77.107-23.251,23.36-53.757-54.01-31.127,31.269,14.048,14.111,18.125-18.21,22.986,23.1-41.377,41.571-37.034-37.208-72.5,72.84Zm10.194-.059,66.607,66.925,72.5-72.838L1593.08,1667l31.121-31.272-12.847-12.912-18.126,18.211-24.181-24.3,41.377-41.571,53.757,54.015,13-13.063-66.609-66.925-126.882,127.471-53.757-54.01Zm-514.817,2.946,23.251-23.36,53.757,54.015,126.882-127.473,76.743,77.107L1159.5,1642.3l-53.757-54.01-31.127,31.268,14.048,14.111,18.126-18.211,22.986,23.1-41.377,41.571-37.033-37.209-72.5,72.84Zm10.192-.058,66.609,66.925,72.5-72.837,37.033,37.206,31.121-31.271-12.847-12.912-18.126,18.211-24.181-24.3,41.377-41.571,53.757,54.015,13-13.063-66.609-66.925L979.068,1679.545l-53.757-54.01ZM397.5,1641.538l23.251-23.36,53.757,54.015L601.385,1544.72l76.743,77.107-23.251,23.36-53.757-54.01-31.127,31.268,14.044,14.111,18.126-18.211,22.989,23.1-41.381,41.571-37.03-37.209-72.5,72.839Zm10.192-.058L474.3,1708.4l72.5-72.837,37.03,37.207,31.125-31.272-12.85-12.911L583.979,1646.8,559.8,1622.5l41.377-41.571,53.757,54.015,13-13.063-66.6-66.925L474.445,1682.432l-53.757-54.009Zm1719.711,26.4,23.354-23.465,16.916,18.028,37.217-36.977,23,23.49-60.782,57.949Zm10.248-.116,29.594,29.087,50.358-48.012-12.842-13.12-37.323,37.085-16.889-18Zm-514.871,3,23.354-23.465,16.916,18.028,37.217-36.977,23,23.49-60.783,57.949Zm10.25-.116,29.592,29.087,50.353-48.011-12.837-13.12-37.324,37.086-16.887-18Zm-514.873,3,23.354-23.465,16.916,18.028,37.217-36.977,23,23.49-60.783,57.95Zm10.25-.116,29.588,29.088,50.357-48.012-12.837-13.12-37.323,37.085-16.892-18Zm-514.876,3,23.358-23.465,16.915,18.028,37.217-36.977,23,23.49-60.783,57.949Zm10.253-.116,29.588,29.087,50.357-48.012-12.837-13.119-37.324,37.085-16.892-18ZM2272.021,1594.6l23.251-23.36,76.743,77.107-23.253,23.36Zm10.192-.058,66.607,66.925,13-13.061-66.6-66.922Zm-514.821,2.946,23.257-23.36,76.742,77.107-23.256,23.36Zm76.8,66.867,13-13.061-66.6-66.921-13,13.058Zm-581.424-63.979,23.251-23.36,76.742,77.107-23.251,23.36Zm76.8,66.867,13-13.061-66.609-66.921-13,13.058Zm-581.424-63.979L781.4,1579.9l76.745,77.107-23.253,23.36Zm76.8,66.867,13-13.061-66.609-66.922-13,13.058ZM253.523,1606.15l23.251-23.36,76.744,77.107-23.253,23.36Zm76.8,66.866,13-13.061-66.609-66.921-13,13.058ZM1856.2,1616.292l78.834-79.2,40.9,41.1-23.251,23.362-17.919-18-55.582,55.844Zm10.194-.058,12.852,12.911,55.582-55.844,17.919,18,13-13.06-30.771-30.917Zm-514.82,2.946,78.838-79.2,40.905,41.1-23.252,23.362-17.919-18-55.587,55.844Zm10.2-.058,12.847,12.911,55.587-55.844,17.919,18,13-13.059-30.771-30.918Zm-514.82,2.946,78.838-79.2,40.9,41.1-23.251,23.362-17.919-18-55.587,55.844Zm10.2-.058,12.847,12.911,55.587-55.843,17.919,18,13-13.059L925.725,1553.1Zm-514.82,2.946,78.838-79.2,40.9,41.1-23.251,23.362-17.919-18-55.587,55.844Zm10.192-.058,12.852,12.911,55.587-55.844,17.919,18,13-13.059L421.1,1555.992Zm1811.578-65.891,23.251-23.362,76.743,77.107-23.251,23.36Zm76.8,66.867,13-13.063-66.609-66.925-13,13.063Zm-275.359-11.413,59.5-59.78,22.985,23.1-59.5,59.78Zm10.192-.058,12.852,12.915,49.252-49.483-12.852-12.915Zm-316.258-52.508,23.251-23.362,76.742,77.107L1736.213,1639Zm76.8,66.866,13-13.063-66.6-66.925-13,13.063Zm-275.359-11.413,59.5-59.78,22.985,23.1-59.5,59.78Zm10.192-.058,12.852,12.915,49.252-49.482-12.852-12.916Zm-316.258-52.507,23.251-23.362,76.743,77.107-23.251,23.36Zm76.8,66.866,13-13.063-66.6-66.925-13,13.063Zm-275.359-11.413,59.5-59.78,22.986,23.1-59.5,59.78Zm10.192-.058,12.852,12.915,49.253-49.483-12.852-12.915ZM650.218,1567.67l23.257-23.362,76.743,77.107-23.256,23.36Zm76.8,66.866,13-13.063-66.6-66.925-13,13.063Zm-275.353-11.413,59.5-59.78,22.986,23.1-59.5,59.779Zm10.192-.059,12.852,12.915,49.252-49.483-12.852-12.915ZM145.6,1570.557l23.251-23.362,76.744,77.107-23.253,23.36Zm10.2-.058,66.6,66.925,13-13.063-66.609-66.925Zm1629.932-27.435,23.256-23.36,58.824,59.1-23.256,23.362Zm10.2-.058,48.685,48.917,13-13.057-48.685-48.923Zm-514.82,2.946,23.251-23.36,58.824,59.1-23.251,23.362Zm10.2-.059,48.685,48.917,13-13.058-48.69-48.922Zm-514.82,2.946,23.251-23.36,58.824,59.1L835.3,1607.945Zm10.194-.058,48.688,48.917,13-13.058-48.69-48.922Zm-514.817,2.946,23.251-23.36,58.826,59.1-23.253,23.362Zm10.194-.059,48.688,48.917,13-13.057-48.69-48.922Zm1918.266-29.055,41.406-41.6,40.864,41.065-18.088,18.766,18.056,17.534-23.439,21.992Zm10.253-.118,48.72,47.858,12.8-12.012-17.788-17.27,18.171-18.86-30.807-30.954Zm-514.876,3.005,41.406-41.6,40.864,41.064-18.088,18.766,18.056,17.534-23.439,21.991Zm58.973,47.739,12.8-12.011-17.789-17.27,18.171-18.86-30.807-30.955-31.1,31.239Zm-563.6-44.851,41.41-41.6,40.864,41.064-18.088,18.766,18.056,17.534-23.439,21.991Zm58.977,47.739,12.8-12.011-17.789-17.27,18.171-18.86-30.807-30.955-31.1,31.239Zm-563.6-44.852,41.4-41.6,40.869,41.065L750.628,1549.5l18.056,17.534-23.439,21.992Zm58.976,47.739,12.8-12.011-17.789-17.27,18.171-18.86-30.812-30.955L696.7,1531.159Zm-563.6-44.851,41.4-41.6,40.869,41.065-18.088,18.766,18.056,17.534-23.439,21.992ZM240.8,1581.9l12.8-12.012-17.789-17.27,18.171-18.86-30.812-30.955-31.092,31.239Zm1797.243-40.284,23.251-23.36,22.986,23.1-23.251,23.357Zm10.192-.058,12.852,12.912,13-13.06-12.853-12.913Zm-136.039-53.542,23.252-23.362,53.757,54.015,36.252-36.423,22.986,23.1-59.5,59.78Zm10.193-.058,66.609,66.925,49.252-49.483-12.852-12.909-36.252,36.42-53.757-54.011Zm-100.408,18.68,23.251-23.36,35.838,36.01,18.126-18.209,22.986,23.09-41.377,41.571Zm10.2-.058,48.685,48.922,31.126-31.274-12.852-12.91-18.126,18.211-35.838-36.007Zm-298.758,37.925,23.251-23.36,22.986,23.1L1556.4,1567.6Zm10.192-.059,12.852,12.912,13-13.06-12.852-12.913Zm-136.039-53.542,23.251-23.362,53.757,54.015,36.252-36.423,22.986,23.1-59.5,59.78Zm10.194-.058,66.607,66.925,49.252-49.483-12.852-12.909-36.252,36.42-53.757-54.012Zm-100.41,18.68,23.251-23.36,35.838,36.01,18.126-18.208,22.986,23.09-41.377,41.571Zm10.2-.059,48.685,48.923,31.127-31.274-12.852-12.91-18.126,18.211-35.838-36.007ZM1028.793,1547.4l23.251-23.36,22.986,23.1-23.251,23.357Zm10.192-.058,12.852,12.912,13-13.06-12.852-12.913ZM902.946,1493.8l23.251-23.362,53.757,54.015,36.252-36.423,22.986,23.1-59.5,59.78Zm10.192-.058,66.609,66.925L1029,1511.179l-12.852-12.909-36.252,36.42-53.757-54.012Zm-100.408,18.68,23.251-23.36,35.838,36.01,18.126-18.209,22.986,23.09-41.377,41.571Zm10.194-.058,48.689,48.922,31.127-31.274-12.852-12.91-18.126,18.211L835.923,1499.3ZM524.17,1550.284l23.251-23.36,22.986,23.1-23.251,23.357Zm10.192-.058,12.852,12.911,13-13.059-12.852-12.913Zm-136.039-53.543,23.251-23.362,53.757,54.015,36.252-36.423,22.986,23.1-59.5,59.78Zm10.192-.058,66.609,66.925,49.252-49.483-12.852-12.909-36.252,36.419-53.757-54.012ZM308.108,1515.3l23.251-23.36,35.838,36.011,18.126-18.209,22.986,23.09-41.377,41.571Zm10.194-.058,48.688,48.922,31.127-31.274-12.852-12.91L367.138,1538.2,331.3,1502.189Zm1809.953,7.748,77.629-77.989,22.986,23.1-77.629,77.991Zm10.192-.058,12.852,12.915,67.378-67.692-12.852-12.91Zm-514.815,2.946,77.628-77.989,22.986,23.1-77.629,77.991Zm10.192-.058,12.852,12.915,67.376-67.692-12.851-12.91Zm-514.815,2.946,77.629-77.989,22.986,23.1-77.629,77.99Zm10.192-.059,12.852,12.915,67.373-67.692-12.847-12.91Zm-514.815,2.946,77.629-77.989,22.986,23.1-77.629,77.991Zm10.192-.058,12.852,12.915,67.373-67.692-12.847-12.91ZM2025.6,1456.281l-36.252,36.42-22.986-23.1,59.5-59.78,94.662,95.11-23.251,23.36Zm71.734,61.774,13-13.063-84.528-84.927-49.252,49.481,12.852,12.912,36.252-36.42Zm-576.358-58.886-36.252,36.42-22.986-23.1,59.5-59.78,94.662,95.11-23.251,23.361Zm71.734,61.774,13-13.063-84.528-84.927-49.253,49.481,12.852,12.911,36.252-36.42Zm-576.357-58.886-36.252,36.42-22.986-23.1,59.5-59.78,94.662,95.11-23.251,23.361Zm71.735,61.774,13-13.063-84.528-84.927-49.252,49.481,12.852,12.912,36.252-36.42Zm-576.357-58.886-36.252,36.42-22.986-23.1,59.5-59.78,94.662,95.11-23.251,23.36Zm71.734,61.774,13-13.063-84.528-84.927-49.252,49.481,12.852,12.911,36.252-36.42Zm1635.418-94.77,23.251-23.362,75.548,75.906-23.251,23.362Zm10.192-.058,65.414,65.723,13-13.063-65.414-65.723Zm-514.815,2.946,23.251-23.362,75.547,75.905-23.251,23.362Zm75.606,65.665,13-13.063-65.414-65.723-13,13.063Zm-580.234-62.777,23.257-23.362,75.547,75.906-23.251,23.362Zm75.611,65.665,13-13.062-65.414-65.723-13,13.063ZM705.01,1440.611l23.251-23.362,75.553,75.906-23.251,23.362Zm75.611,65.665,13-13.063L728.2,1427.489l-13,13.063ZM200.387,1443.5l23.251-23.362,75.553,75.906L275.934,1519.4Zm75.606,65.665,13-13.063-65.414-65.723-13,13.063Zm1798.713-76.393,23.251-23.36,35.838,36.007,13-13.06-35.838-36.005,23.251-23.362L2170.046,1409l36.252-36.42,22.986,23.1-95.755,96.2Zm10.192-.058,48.69,48.919,85.5-85.9-12.852-12.915-36.252,36.42-35.838-36.007-13,13.063,35.838,36.006-23.251,23.362-35.838-36.01Zm-226.668,37.509,18.126-18.209-17.919-18,23.251-23.36,40.9,41.1-41.377,41.571Zm10.4-36.272,17.914,18-18.121,18.209,12.847,12.912,31.126-31.269-30.771-30.918Zm-298.551,1.708,23.251-23.36,35.838,36.007,13-13.06-35.838-36.005,23.251-23.362,35.838,36.007,36.252-36.42,22.986,23.1-95.755,96.2Zm10.192-.058,48.69,48.919,85.5-85.9-12.853-12.915-36.252,36.42-35.838-36.008-13,13.063,35.837,36.005-23.251,23.362-35.838-36.01Zm-226.668,37.509,18.126-18.209-17.919-18,23.251-23.36,40.9,41.1-41.377,41.572Zm10.4-36.271,17.919,18-18.126,18.209,12.852,12.911,31.127-31.268-30.771-30.918Zm-298.546,1.708,23.251-23.36,35.838,36.007,13-13.059-35.838-36.006,23.251-23.362,35.838,36.007,36.252-36.42,22.986,23.1-95.755,96.2Zm10.192-.058,48.69,48.919,85.5-85.9-12.847-12.915-36.252,36.42-35.838-36.007-13,13.063,35.838,36.005-23.251,23.362-35.838-36.01ZM848.982,1476l18.126-18.209-17.919-18,23.251-23.361,40.9,41.1-41.377,41.571Zm10.4-36.272,17.919,18-18.126,18.209,12.852,12.911,31.127-31.268-30.771-30.917Zm-298.546,1.709,23.251-23.36,35.838,36.007,13-13.059-35.833-36.006,23.251-23.362,35.838,36.008,36.252-36.42,22.986,23.1-95.755,96.2Zm10.192-.059,48.69,48.919,85.5-85.9-12.847-12.915-36.252,36.42-35.838-36.007-13,13.063,35.838,36.005-23.251,23.362-35.838-36.01Zm-226.668,37.509,18.126-18.209-17.919-18,23.251-23.36,40.9,41.1-41.377,41.571Zm10.4-36.271,17.919,18-18.126,18.209,12.852,12.912,31.126-31.269-30.771-30.917Zm1431.587-8.193,58.3-58.564,22.986,23.1-35.043,35.2,17.919,18-23.257,23.36Zm10.2-.058,30.766,30.915,13-13.058-17.919-18,35.048-35.2-12.852-12.915Zm-514.82,2.947,58.3-58.565,22.985,23.1-35.043,35.2,17.914,18-23.251,23.36Zm10.2-.059,30.766,30.914,13-13.058-17.919-18,35.043-35.2-12.847-12.915ZM777.1,1440.2l58.294-58.564,22.991,23.1-35.046,35.2,17.917,18L818,1481.3Zm10.194-.058,30.769,30.914,13-13.058-17.919-18,35.043-35.2-12.852-12.915Zm-514.817,2.946,58.294-58.565,22.986,23.1-35.041,35.2,17.919,18-23.253,23.36Zm10.194-.058,30.769,30.914,13-13.058-17.919-18,35.043-35.2-12.852-12.915Zm1647.855-9.43,41.377-41.569,22.985,23.1-41.377,41.571Zm10.192-.058,12.852,12.912,31.127-31.268-12.852-12.915Zm-514.815,2.946,41.377-41.569,22.986,23.1-41.377,41.571Zm10.192-.058,12.852,12.912,31.127-31.268-12.852-12.915Zm-514.815,2.946,41.377-41.569,22.986,23.1-41.377,41.571Zm10.192-.058,12.852,12.911,31.126-31.268L962.6,1408.041Zm-514.815,2.946,41.377-41.569,22.986,23.1-41.377,41.571Zm10.192-.058,12.852,12.911,31.126-31.268-12.852-12.915ZM2183.46,1323.51l23.251-23.362,17.92,18,36.251-36.42,40.9,41.1-23.293,23.4-17.875-18.566-13.045,13.539,30.83,30.978,36.207-35.774,23.054,22.385-59.544,59.823Zm10.192-.058,84.528,84.927,49.205-49.436-12.79-12.419-36.29,35.863-40.846-41.04,23.219-24.09,17.956,18.65,12.959-13.016-30.771-30.914-36.252,36.42-17.919-18Zm-154.786,73.313,95.755-96.2,58.824,59.1-23.251,23.362-35.838-36.007-72.5,72.84Zm10.192-.058,12.852,12.91,72.5-72.843,35.838,36.011,13-13.063-48.69-48.917Zm-190.209-35.129,23.251-23.36,58.823,59.108-23.251,23.357Zm10.2-.058,48.685,48.922,13-13.058-48.69-48.922ZM1678.838,1326.4l23.251-23.362,17.919,18,36.251-36.42,40.9,41.1-23.3,23.4L1756,1330.556l-13.045,13.539,30.83,30.978,36.207-35.774,23.054,22.385-59.544,59.823Zm94.72,84.869,49.206-49.436-12.791-12.419-36.29,35.862-40.846-41.039,23.219-24.09,17.957,18.65,12.954-13.016-30.766-30.914-36.252,36.419-17.919-18-13,13.059Zm-239.313-11.614,95.755-96.2,58.824,59.1-23.251,23.362-35.838-36.007-72.5,72.84Zm10.192-.059,12.852,12.91,72.5-72.843,35.838,36.011,13-13.063-48.691-48.917Zm-190.209-35.129,23.251-23.36,58.824,59.108-23.252,23.357Zm10.192-.058,48.69,48.922,13-13.058-48.69-48.922Zm-190.2-35.122,23.251-23.362,17.919,18,36.252-36.42,40.9,41.1-23.3,23.4-17.869-18.566-13.044,13.539,30.83,30.979,36.207-35.774,23.055,22.385-59.545,59.823Zm94.72,84.869,49.206-49.436-12.791-12.419-36.29,35.862-40.846-41.039,23.219-24.09,17.957,18.65,12.954-13.017-30.766-30.914-36.252,36.42-17.919-18-13,13.059Zm-239.314-11.614,95.755-96.2,58.824,59.1-23.251,23.362-35.838-36.007-72.5,72.84Zm10.192-.058,12.852,12.91,72.5-72.843,35.838,36.011,13-13.063-48.69-48.917ZM849.6,1367.353l23.251-23.361,58.824,59.108-23.251,23.357Zm10.192-.058,48.69,48.922,13-13.058-48.69-48.922Zm-190.21-35.122,23.257-23.362,17.914,18,36.252-36.42,40.907,41.1-23.294,23.4-17.875-18.566-13.039,13.539,30.83,30.978,36.207-35.774L823.8,1367.46l-59.55,59.823Zm94.72,84.869,49.211-49.436-12.791-12.419-36.29,35.863-40.846-41.04,23.214-24.09,17.962,18.649,12.954-13.016-30.771-30.914L710.7,1337.06l-17.914-18-13,13.059ZM525,1405.428l95.755-96.2,58.824,59.1-23.251,23.362-35.838-36.007-72.5,72.839Zm10.192-.058,12.852,12.91,72.5-72.843,35.838,36.011,13-13.063-48.685-48.917Zm-190.21-35.129,23.251-23.36,58.824,59.108L403.8,1429.346Zm10.192-.058,48.69,48.922,13-13.058-48.69-48.922Zm-190.21-35.122,23.251-23.362,17.919,18,36.252-36.42,40.907,41.1L260,1357.786l-17.875-18.566-13.039,13.539,30.83,30.978,36.207-35.774,23.054,22.385-59.55,59.823Zm94.72,84.869,49.206-49.436L296.1,1358.075l-36.29,35.862-40.846-41.04,23.214-24.089,17.958,18.649,12.957-13.016-30.771-30.914-36.252,36.419-17.919-18-13,13.059Zm1725.22-40.966,23.251-23.357,22.985,23.092-23.251,23.36Zm10.192-.059,12.852,12.915,13-13.063-12.852-12.911Zm-514.815,2.946,23.252-23.357,22.986,23.092-23.251,23.36Zm10.192-.058,12.852,12.915,13-13.063-12.852-12.911Zm-514.816,2.946,23.251-23.357,22.986,23.092-23.251,23.36Zm10.192-.058L998.7,1397.6l13-13.063-12.852-12.911Zm-514.815,2.946,23.251-23.357,22.986,23.092-23.251,23.36Zm10.192-.058,12.852,12.915,13-13.063-12.852-12.911Zm1449.713-26.4,77.629-77.989,58.823,59.1-23.251,23.36-35.838-36.005-54.378,54.629Zm10.192-.058,12.852,12.915,54.378-54.634L2044.2,1355.4l13-13.063-48.69-48.917Zm-514.815,2.946,77.629-77.989,58.823,59.1-23.251,23.36-35.838-36.005L1449.3,1387.15Zm10.192-.058,12.852,12.915,54.378-54.634,35.838,36.012,13-13.063-48.69-48.917Zm-514.815,2.946,77.629-77.989,58.823,59.1-23.251,23.36-35.838-36.005-54.378,54.629Zm10.192-.058,12.852,12.915,54.378-54.634,35.838,36.012,13-13.063-48.69-48.917Zm-514.815,2.946L494.7,1291.84l58.824,59.1-23.251,23.36L494.433,1338.3l-54.378,54.628Zm10.192-.058,12.852,12.915,54.378-54.634,35.838,36.012,13-13.063-48.69-48.917Zm1449.92-62.614,23.251-23.361,17.919,18,18.126-18.209,22.986,23.1-41.377,41.571Zm10.192-.058,30.771,30.914,31.126-31.268-12.852-12.91-18.126,18.209-17.919-18Zm-81.086,1.672,23.251-23.362,39.715,39.9L1846,1348.668Zm10.194-.058,29.574,29.713,13-13.058-29.576-29.718Zm-443.923,1.332,23.252-23.36,17.919,18,18.126-18.209,22.986,23.1-41.377,41.571Zm10.194-.058,30.77,30.914,31.127-31.268-12.853-12.91-18.126,18.209-17.919-18Zm-81.088,1.672,23.251-23.362,39.71,39.9-23.251,23.36Zm10.192-.058,29.575,29.713,13-13.058-29.576-29.718Zm-443.921,1.332,23.251-23.36,17.919,18,18.126-18.209,22.986,23.1-41.377,41.571Zm10.192-.058,30.772,30.914,31.126-31.268-12.852-12.91-18.126,18.209-17.919-18Zm-81.086,1.672,23.251-23.362,39.709,39.9-23.251,23.36Zm10.194-.059,29.574,29.713,13-13.058-29.576-29.718Zm-443.922,1.332,23.251-23.36,17.919,18,18.126-18.209,22.986,23.1-41.377,41.571Zm10.194-.058,30.769,30.914,31.127-31.268-12.852-12.91-18.126,18.209-17.919-18Zm-81.088,1.672,23.251-23.362,39.711,39.9-23.253,23.36Zm10.194-.058,29.574,29.712,13-13.057-29.576-29.718Zm1717.761-48.457,23.251-23.36,60.019,60.3-23.251,23.362Zm60.078,50.058,13-13.058-49.886-50.122-13,13.063Zm-564.7-47.171,23.251-23.36,60.019,60.3-23.251,23.362Zm60.078,50.058,13-13.057-49.885-50.122-13,13.063Zm-564.7-47.17,23.251-23.36,60.019,60.3L1071.146,1335Zm60.078,50.058,13-13.058-49.886-50.122-13,13.063ZM506.5,1277.58l23.251-23.36,60.019,60.3-23.251,23.362Zm60.078,50.058,13-13.058L529.7,1264.459l-13,13.063Zm1581.043-39.964,17.044-18.334-17.409-18.1,41.636-41.493,59.044,58.494-23.271,22.7-16.648-16.768-36.132,36.34Zm24.16,12.752,36.3-36.5,16.723,16.844,12.825-12.513-48.781-48.323-31.464,31.355,17.226,17.91-16.8,18.076ZM1643,1290.563l17.044-18.334-17.409-18.1,41.636-41.493,59.041,58.494-23.267,22.7L1703.4,1277.06l-36.132,36.34Zm24.159,12.752,36.3-36.5,16.723,16.844,12.828-12.513-48.782-48.323-31.464,31.355,17.224,17.91-16.806,18.076Zm-528.782-9.864,17.044-18.333-17.41-18.1,41.637-41.493,59.04,58.494-23.267,22.7-16.648-16.768-36.131,36.34Zm24.161,12.752,36.3-36.5,16.723,16.844,12.825-12.513-48.78-48.323-31.464,31.354,17.224,17.91-16.807,18.076Zm-528.784-9.864L650.8,1278l-17.41-18.1,41.636-41.493,59.04,58.494L710.8,1299.6l-16.649-16.768-36.131,36.34Zm24.161,12.752,36.3-36.5,16.723,16.844,12.827-12.513L674.983,1228.6l-31.464,31.355,17.226,17.91-16.808,18.076Zm615.308-23.622,42.583-42.786,22.991,23.1-42.588,42.779Zm10.194-.058,12.85,12.91,32.332-32.482-12.852-12.915Zm989.253-15.521,42.588-42.784,22.986,23.1-42.586,42.781Zm23.047,12.851,32.33-32.482-12.847-12.915-32.335,32.487Zm-527.667-9.964,42.586-42.784,22.986,23.1-42.586,42.781Zm23.044,12.851,32.33-32.482-12.847-12.915-32.336,32.487Zm-1032.3-7.076,42.586-42.785,22.986,23.1-42.581,42.781Zm23.05,12.851,32.33-32.482-12.852-12.915L769,1278.493Zm-527.673-9.964,42.586-42.784,22.988,23.1-42.588,42.781Zm23.044,12.852,32.336-32.482L296.7,1248.894l-32.33,32.487ZM1950.8,1269.2l112.556-113.08,22.968,23.074-112.767,115.182Zm23.021,14.633,102.346-104.534-12.87-12.933-102.536,103.013Zm-527.643-11.746L1558.737,1159l22.963,23.074L1468.938,1297.26Zm23.02,14.634,102.346-104.534-12.87-12.933-102.536,103.013Zm-527.643-11.746,112.555-113.08,22.963,23.074-112.76,115.182Zm23.02,14.634,102.346-104.534-12.87-12.933L951.519,1275.151Zm-527.643-11.746,112.554-113.08,22.963,23.074L459.688,1303.035Zm23.02,14.634L562.3,1187.958l-12.87-12.933L446.9,1278.038Zm1381.389-21.344,59.5-59.78,40.9,41.1-23.251,23.357-17.919-18-36.252,36.425ZM1864.389,1284l36.252-36.419,17.919,18,13-13.058-30.771-30.918-49.247,49.481Zm-527.667-9.965,59.5-59.78,40.9,41.1-23.251,23.357-17.919-18-36.252,36.425Zm23.044,12.853,36.252-36.42,17.919,18,13-13.058-30.771-30.918-49.253,49.481ZM832.1,1276.924l59.5-59.78,40.9,41.1L909.255,1281.6l-17.919-18-36.252,36.425Zm23.044,12.853,36.252-36.419,17.919,18,13-13.058-30.771-30.918-49.253,49.481Zm-527.667-9.965,59.5-59.78,40.9,41.1-23.251,23.357-17.919-18-36.252,36.425Zm23.044,12.853,36.252-36.42,17.919,18,13-13.058-30.771-30.918-49.251,49.481Zm1707-58.955,59.176-59.778,41.638,41.146-24.684,23.266-17.194-17.881-12.439,12.925,35.879,36.052-23.246,23.353Zm59.175,48.857,13.01-13.068-35.8-35.964,22.609-23.493,17.443,18.136,13.971-13.165-31.237-30.865-48.98,49.476ZM1552.9,1236.6l59.175-59.778,41.641,41.146-24.686,23.266-17.194-17.881-12.439,12.925,35.879,36.052-23.246,23.353Zm59.174,48.857,13.01-13.069-35.8-35.964,22.609-23.493,17.444,18.136,13.971-13.165-31.238-30.865-48.978,49.476Zm-563.8-45.969,59.175-59.778,41.641,41.146L1124.4,1244.12l-17.194-17.881-12.439,12.925,35.879,36.052-23.246,23.353Zm59.174,48.857,13.01-13.069-35.8-35.964,22.609-23.493,17.443,18.136,13.971-13.165-31.237-30.865-48.98,49.476Zm-563.8-45.969,59.175-59.778,41.641,41.146-24.686,23.266-17.192-17.881-12.441,12.925,35.879,36.052-23.246,23.353Zm59.174,48.857,13.01-13.069-35.8-35.964,22.61-23.493,17.442,18.136,13.972-13.166-31.239-30.865-48.978,49.476Zm624.932-54.22,42.546-41.388,39.555,41.214-41.26,42.135Zm11.3-1.015,29.966,32.28,30.839-31.507L1270,1205.947Zm997.945-4.76,42.552-41.388,22.751,24.407-42.673,43.552Zm23.056,15.874,32.254-32.922-13.068-14.014-32.357,31.466Zm-527.679-12.986,42.546-41.388,22.756,24.407-42.675,43.552ZM1755.436,1250l32.254-32.922-13.068-14.014-32.357,31.465Zm-1032.3-10.1,42.546-41.388,22.756,24.407-42.673,43.552Zm23.055,15.874,32.254-32.923-13.072-14.014L733.019,1240.3Zm-527.684-12.986,42.552-41.388,22.756,24.407-42.673,43.552Zm23.061,15.874,32.249-32.922-13.066-14.015L228.4,1243.188Zm1087.241-29.04,77.629-77.989,40.9,41.1-23.251,23.36-17.919-18-54.378,54.629Zm10.2-.058,12.847,12.915,54.378-54.634,17.919,18,13-13.058-30.771-30.914Zm592.761-13.25,23.251-23.362,22.986,23.1-23.251,23.36Zm10.192-.058,12.852,12.915,13-13.063-12.852-12.911Zm-118.327.677,77.629-77.991,40.9,41.1-23.251,23.36-17.92-18-54.377,54.628Zm10.2-.058,12.847,12.915,54.377-54.634,17.919,18,13-13.058-30.771-30.914Zm-406.686,2.327,23.251-23.362,22.986,23.1-23.251,23.36Zm10.192-.058,12.852,12.915,13-13.063-12.852-12.911Zm-514.815,2.946,23.251-23.362,22.986,23.1-23.251,23.36Zm10.192-.058,12.852,12.915,13-13.063-12.852-12.911Zm-118.327.677,77.629-77.99,40.9,41.1-23.251,23.36-17.919-18L837.372,1245.8Zm10.194-.058,12.85,12.915,54.378-54.634,17.919,18,13-13.058-30.771-30.914ZM417.9,1224.973l23.251-23.362,22.986,23.1-23.251,23.36Zm10.192-.058,12.852,12.915,13-13.063-12.852-12.912Zm-118.327.677,77.629-77.99,40.9,41.1-23.251,23.36-17.919-18-54.378,54.628Zm10.194-.058,12.85,12.915,54.378-54.634,17.919,18,13-13.058-30.771-30.914Zm950.374-55.842-54.378,54.629-22.991-23.1,77.635-77.99,77.021,77.31-23.256,23.362Zm54.089,43.974,13-13.063-66.883-67.128-67.378,67.692,12.852,12.915,54.378-54.634Zm877.794-18.216,77.629-77.99,58.823,59.1-23.251,23.36-35.837-36.007-54.378,54.629Zm10.192-.058,12.853,12.915,54.377-54.634,35.838,36.011,13-13.061-48.684-48.922Zm-514.815,2.946,77.629-77.991,58.824,59.1-23.251,23.36-35.838-36.007-54.378,54.629Zm23.044,12.857,54.378-54.634,35.838,36.01,13-13.061-48.685-48.922-67.379,67.692Zm-1032.3-7.081,77.629-77.991,58.824,59.1-23.251,23.36L765.7,1172.579l-54.378,54.629Zm23.044,12.857,54.378-54.634,35.838,36.01,13-13.061-48.69-48.922-67.373,67.691ZM183.716,1207l77.629-77.991,58.825,59.1-23.253,23.36-35.838-36.007L206.7,1230.1Zm23.044,12.857,54.378-54.634,35.838,36.01,13-13.061-48.69-48.922-67.373,67.692Zm1707.5-93.976,23.251-23.362,53.757,54.01,126.881-127.472,76.743,77.111-23.251,23.357-53.757-54.01-31.127,31.272,14.048,14.111,18.126-18.209,22.986,23.1-41.377,41.571-37.034-37.212-72.5,72.843Zm10.192-.058,66.609,66.919,72.5-72.838,37.033,37.207,31.126-31.268-12.852-12.915-18.125,18.211-24.181-24.293,41.377-41.569,53.757,54.01,13-13.059-66.607-66.925-126.881,127.473-53.757-54.015Zm-514.815,2.946,23.251-23.362,53.757,54.01,126.881-127.472,76.743,77.111-23.251,23.357-53.757-54.01-31.127,31.272,14.048,14.111,18.125-18.209,22.986,23.1-41.377,41.571-37.034-37.212-72.5,72.843Zm10.194-.058,66.607,66.92,72.5-72.838L1595.977,1160l31.121-31.268-12.847-12.915-18.126,18.211-24.182-24.293,41.377-41.569,53.757,54.01,13-13.059-66.609-66.925-126.881,127.473-53.757-54.015Zm-514.817,2.946,23.251-23.362,53.757,54.01,126.881-127.471,76.743,77.111L1162.4,1135.3l-53.757-54.01-31.127,31.272,14.048,14.111,18.126-18.209,22.986,23.1-41.377,41.571-37.033-37.212-72.5,72.843Zm10.192-.058,66.609,66.919,72.5-72.838,37.033,37.207,31.121-31.268-12.847-12.915-18.126,18.211-24.181-24.293,41.377-41.569,53.757,54.01,13-13.059-66.609-66.925L981.965,1172.55l-53.757-54.015Zm-514.815,2.946,23.251-23.362,53.757,54.01L604.282,1037.72l76.743,77.111-23.251,23.356-53.757-54.01L572.89,1115.45l14.044,14.111,18.126-18.209,22.989,23.1-41.381,41.571-37.03-37.212-72.5,72.843Zm10.192-.058,66.609,66.92,72.5-72.838,37.03,37.207,31.125-31.268L605,1121.591,586.876,1139.8,562.7,1115.508l41.377-41.569,53.757,54.01,13-13.059-66.6-66.925L477.342,1175.438l-53.757-54.015Zm1719.711,26.4,23.354-23.463,16.916,18.023,37.217-36.977,23,23.5L2170,1199.905Zm10.248-.114,29.594,29.082,50.358-48.012-12.842-13.12-37.323,37.089-16.889-17.994Zm-514.871,3,23.354-23.463,16.915,18.023,37.217-36.977,23,23.5-60.783,57.944Zm10.25-.114,29.592,29.082,50.353-48.012-12.837-13.12-37.324,37.089L1648.82,1150.7Zm-514.873,3L1144.4,1143.2l16.916,18.023,37.217-36.977,23,23.5-60.782,57.944Zm10.25-.114,29.588,29.082,50.357-48.012-12.837-13.12-37.323,37.089-16.892-17.994Zm-514.876,3,23.357-23.463,16.915,18.023,37.217-36.977,23,23.5-60.783,57.944Zm10.253-.114,29.588,29.082,50.357-48.012-12.837-13.12-37.324,37.089-16.892-17.994Zm638.99-76.058,23.251-23.355,94.94,95.313-23.251,23.36Zm10.2-.058,84.8,85.132,13-13.057-84.807-85.132Zm999.054-5.717,23.251-23.354,76.743,77.105-23.253,23.362Zm10.192-.058,66.607,66.925,13-13.057-66.6-66.925Zm-514.821,2.946,23.257-23.355,76.742,77.105-23.256,23.362Zm76.8,66.866,13-13.058-66.6-66.925-13,13.057ZM761.043,1096.262l23.251-23.355,76.744,77.105-23.253,23.362Zm76.8,66.866,13-13.058-66.609-66.925-13,13.058ZM256.42,1099.15l23.251-23.355,76.745,77.105-23.253,23.362Zm76.8,66.866,13-13.057-66.609-66.925-13,13.058ZM1859.092,1109.3l78.835-79.209,40.9,41.1-23.251,23.36-17.919-18-55.582,55.844Zm10.194-.058,12.852,12.91,55.582-55.844,17.919,18,13-13.063-30.771-30.914Zm-514.82,2.946,78.838-79.209,40.9,41.1-23.251,23.36-17.919-18-55.587,55.844Zm10.2-.058,12.847,12.91,55.587-55.844,17.919,18,13-13.063-30.771-30.914Zm-514.82,2.946,78.838-79.209,40.9,41.1-23.251,23.36-17.919-18-55.587,55.844Zm10.2-.058,12.847,12.91,55.587-55.844,17.919,18,13-13.063-30.771-30.915Zm-514.82,2.946,78.838-79.209,40.9,41.1-23.251,23.36-17.919-18-55.587,55.844Zm10.192-.058,12.852,12.91,55.587-55.844,17.919,18,13-13.063L424,1049Zm1811.578-65.9,23.251-23.362,76.743,77.111-23.251,23.356Zm76.8,66.866,13-13.059-66.609-66.925-13,13.06Zm-275.359-11.409,59.5-59.783,22.985,23.1-59.5,59.78Zm10.192-.058,12.852,12.911,49.252-49.483-12.852-12.91Zm-316.258-52.511,23.251-23.362,76.743,77.111L1739.11,1132Zm76.8,66.866,13-13.059-66.6-66.925-13,13.06Zm-275.359-11.409,59.5-59.783,22.986,23.1-59.5,59.78Zm10.192-.058,12.852,12.911,49.252-49.483-12.852-12.91Zm-316.258-52.511,23.251-23.362,76.743,77.111-23.251,23.356Zm76.8,66.866,13-13.059-66.6-66.925-13,13.059Zm-275.359-11.409,59.5-59.783,22.986,23.1-59.5,59.78Zm10.192-.058,12.852,12.911,49.253-49.483-12.852-12.91ZM653.115,1060.67l23.257-23.362,76.743,77.111-23.256,23.357Zm76.8,66.866,13-13.059-66.6-66.925-13,13.06Zm-275.353-11.409,59.5-59.783,22.986,23.1-59.5,59.78Zm10.192-.058,12.852,12.912L526.86,1079.5l-12.852-12.91Zm-316.263-52.511,23.251-23.362,76.744,77.111-23.253,23.356Zm10.2-.058,66.6,66.925,13-13.059-66.609-66.925Zm1629.933-27.434,23.256-23.36,58.824,59.1-23.256,23.36Zm10.2-.058,48.685,48.922,13-13.063-48.685-48.917ZM1284,1038.952l23.251-23.36,58.824,59.1-23.251,23.36Zm10.2-.058,48.685,48.922,13-13.063-48.69-48.917Zm-514.82,2.946,23.251-23.36,58.824,59.1-23.251,23.36Zm10.194-.059,48.688,48.922,13-13.063-48.69-48.917Zm-514.817,2.946L298,1021.368l58.826,59.1-23.253,23.36Zm10.194-.058,48.688,48.922,13-13.063-48.69-48.917Zm1918.267-29.056,41.406-41.6,40.864,41.057-18.088,18.772,18.056,17.531-23.438,22Zm10.253-.114,48.719,47.853,12.8-12.011-17.789-17.27,18.171-18.856-30.807-30.96Zm-514.876,3L1740,976.9l40.864,41.057-18.088,18.772,18.056,17.531-23.439,21.995Zm58.973,47.739,12.8-12.011-17.789-17.27,18.171-18.856-30.807-30.961-31.1,31.245Zm-563.6-44.851,41.41-41.6,40.864,41.057-18.088,18.772,18.056,17.531-23.439,22Zm58.977,47.739,12.8-12.011-17.789-17.27,18.171-18.856-30.807-30.961-31.1,31.245Zm-563.6-44.851,41.4-41.6,40.869,41.057-18.088,18.772,18.056,17.53-23.439,22Zm58.977,47.739,12.8-12.011-17.789-17.27,18.171-18.856-30.812-30.96-31.092,31.245Zm-563.6-44.852,41.4-41.6,40.869,41.057L248.9,1045.4l18.056,17.531-23.439,22Zm58.976,47.739,12.8-12.011-17.789-17.27,18.171-18.856-30.812-30.961L194.97,1027.05Zm1797.243-40.283,23.251-23.36,22.986,23.1-23.251,23.362Zm10.192-.058,12.852,12.912,13-13.06-12.853-12.91Zm-136.039-53.539,23.252-23.36,53.757,54.01,36.252-36.42,22.986,23.1-59.5,59.781Zm10.192-.058,66.609,66.921,49.253-49.479-12.852-12.915-36.252,36.425L1938.282,967.9Zm-100.408,18.68,23.251-23.36,35.838,36.007,18.126-18.211,22.986,23.1L1883.7,1058.75Zm10.2-.058,48.685,48.919,31.126-31.268-12.852-12.911-18.126,18.211-35.838-36.013Zm-298.758,37.922,23.251-23.36,22.986,23.1-23.251,23.362Zm10.192-.058,12.852,12.911,13-13.059-12.852-12.91Zm-136.039-53.539,23.251-23.36,53.757,54.01,36.252-36.42,22.986,23.1-59.5,59.782Zm10.194-.058,66.607,66.921,49.252-49.479-12.852-12.915-36.253,36.425-53.757-54.015Zm-100.41,18.68,23.251-23.36,35.838,36.007,18.126-18.211,22.986,23.1-41.377,41.571Zm10.2-.058,48.685,48.919,31.127-31.268-12.852-12.912-18.126,18.211-35.838-36.013ZM1031.69,1040.4l23.251-23.36,22.986,23.1-23.251,23.362Zm10.192-.058,12.852,12.912,13-13.059-12.852-12.91ZM905.843,986.8l23.251-23.36,53.757,54.01,36.252-36.42,22.986,23.1-59.5,59.782Zm10.192-.058,66.609,66.921,49.253-49.479-12.852-12.915-36.252,36.425-53.757-54.015Zm-100.408,18.68,23.251-23.36,35.838,36.007,18.126-18.211,22.986,23.1-41.377,41.571Zm10.194-.058,48.688,48.919,31.126-31.269L892.784,1010.1l-18.126,18.211L838.82,992.3Zm-298.754,37.922,23.251-23.36,22.986,23.1-23.251,23.362Zm10.192-.058,12.852,12.911,13-13.06-12.852-12.91ZM401.22,989.687l23.251-23.36,53.757,54.01,36.252-36.42,22.986,23.1-59.5,59.782Zm10.192-.058,66.609,66.921,49.252-49.479-12.852-12.915L478.17,1030.58l-53.757-54.015ZM311,1008.308l23.251-23.36,35.838,36.007,18.126-18.211,22.986,23.1-41.377,41.571Zm10.194-.058,48.688,48.919,31.126-31.268-12.852-12.912L370.035,1031.2,334.2,995.187ZM2131.152,1016l77.629-77.99,22.986,23.1-77.629,77.989Zm10.192-.058,12.852,12.91,67.378-67.686-12.852-12.915Zm-514.815,2.946,77.629-77.99,22.986,23.1-77.629,77.989Zm10.191-.058,12.852,12.91,67.377-67.686-12.85-12.915Zm-514.815,2.946,77.629-77.991,22.986,23.1-77.629,77.989Zm10.192-.058,12.852,12.91,67.373-67.686-12.847-12.915Zm-514.815,2.946,77.629-77.991,22.986,23.1-77.629,77.989Zm10.192-.058,12.852,12.91L707.7,969.828l-12.847-12.915ZM2028.5,949.281l-36.252,36.42-22.986-23.092,59.5-59.785,94.662,95.115-23.251,23.36Zm71.734,61.774,13-13.058-84.528-84.929-49.253,49.483,12.852,12.91,36.252-36.42Zm-576.358-58.886-36.252,36.42L1464.637,965.5l59.5-59.785,94.661,95.115-23.251,23.36Zm71.734,61.774,13-13.058-84.528-84.929-49.253,49.483,12.852,12.91,36.252-36.419Zm-576.358-58.886L983,991.476l-22.986-23.092,59.5-59.785,94.662,95.115-23.252,23.36Zm71.734,61.774,13-13.058-84.528-84.929-49.252,49.483,12.852,12.91,36.252-36.42ZM514.629,957.944l-36.252,36.42-22.986-23.092,59.5-59.785,94.662,95.115-23.251,23.36Zm71.734,61.774,13-13.058-84.528-84.929-49.252,49.483,12.852,12.91L514.687,947.7Zm1635.418-94.772,23.251-23.36L2320.58,977.5l-23.251,23.36Zm10.192-.058,65.414,65.725,13-13.058-65.413-65.725Zm-514.815,2.946,23.251-23.36,75.547,75.911-23.251,23.36Zm75.606,65.667,13-13.058-65.413-65.725-13,13.058ZM1212.53,930.721l23.257-23.36,75.547,75.911-23.251,23.36Zm75.612,65.667,13-13.058-65.413-65.725-13,13.058ZM707.907,933.609l23.251-23.36,75.553,75.911-23.251,23.36Zm75.611,65.667,13-13.058L731.1,920.493l-13,13.057ZM203.284,936.5l23.251-23.36,75.553,75.911-23.257,23.36Zm75.606,65.667,13-13.058-65.414-65.725-13,13.058ZM2077.6,925.771l23.251-23.36,35.838,36.011,13-13.063-35.838-36.005,23.251-23.362L2172.943,902l36.251-36.419,22.986,23.1-95.755,96.2Zm10.192-.058,48.69,48.922,85.5-85.9-12.852-12.911-36.252,36.42-35.838-36.007-13,13.059,35.838,36.005-23.251,23.362-35.838-36.007Zm-226.668,37.515,18.126-18.214-17.919-18,23.251-23.36,40.905,41.1-41.377,41.571Zm10.4-36.277,17.914,18-18.121,18.214,12.847,12.91,31.126-31.272-30.771-30.914Zm-298.551,1.708,23.251-23.36,35.838,36.011,13-13.063-35.838-36.005,23.251-23.362,35.838,36.007,36.252-36.42,22.986,23.1-95.755,96.2Zm10.192-.058,48.69,48.922,85.5-85.9-12.852-12.911-36.252,36.419-35.838-36.007-13,13.059,35.838,36.005-23.251,23.362-35.838-36.007ZM1356.5,966.115l18.126-18.214-17.919-18,23.251-23.36,40.9,41.1-41.377,41.571Zm10.4-36.277,17.919,18-18.126,18.214,12.852,12.91,31.127-31.272L1379.9,916.78Zm-298.546,1.709,23.251-23.36,35.838,36.011,13-13.063-35.838-36.005,23.251-23.362,35.838,36.007,36.252-36.42,22.986,23.1-95.755,96.2Zm10.192-.058,48.69,48.922,85.5-85.9L1199.89,881.6l-36.252,36.42L1127.8,882.011l-13,13.059,35.838,36.005-23.251,23.362-35.838-36.007ZM851.879,969l18.126-18.214-17.919-18,23.251-23.36,40.9,41.1-41.377,41.571Zm10.4-36.277,17.919,18-18.126,18.214,12.852,12.91,31.127-31.272-30.771-30.914Zm-298.546,1.708,23.251-23.36,35.838,36.011,13-13.063-35.833-36.005,23.251-23.362,35.838,36.007,36.252-36.42,22.986,23.1-95.755,96.2Zm10.192-.058,48.69,48.922,85.5-85.9-12.847-12.911-36.252,36.42L623.177,884.9l-13,13.059,35.838,36.005-23.251,23.362-35.838-36.007ZM347.256,971.89l18.126-18.214-17.919-18,23.251-23.36,40.9,41.1-41.377,41.571Zm10.4-36.277,17.919,18-18.126,18.214,12.852,12.91,31.126-31.272-30.771-30.914Zm1431.587-8.19,58.3-58.566,22.986,23.1-35.042,35.206,17.919,18-23.257,23.36Zm10.2-.058,30.766,30.918,13-13.063-17.919-18,35.048-35.206-12.852-12.91ZM1284.62,930.31l58.3-58.566,22.985,23.1-35.042,35.206,17.914,18-23.251,23.36Zm10.2-.058,30.766,30.918,13-13.063-17.919-18,35.043-35.206-12.847-12.91ZM780,933.2l58.294-58.566,22.991,23.1-35.046,35.206,17.917,18L820.9,974.3Zm10.194-.058,30.77,30.918,13-13.063-17.919-18,35.043-35.206-12.852-12.91Zm-514.817,2.946,58.294-58.566,22.986,23.1-35.041,35.206,17.919,18-23.253,23.36Zm10.194-.058,30.769,30.918,13-13.063-17.919-18,35.043-35.206-12.852-12.91ZM1933.422,926.6l41.377-41.569,22.986,23.1-41.378,41.571Zm10.192-.058,12.852,12.915,31.127-31.272-12.852-12.91ZM1428.8,929.484l41.377-41.569,22.986,23.1-41.377,41.571Zm10.192-.058,12.852,12.915,31.126-31.272-12.852-12.91Zm-514.815,2.946L965.553,890.8l22.986,23.1-41.377,41.571Zm10.192-.058,12.852,12.915,31.126-31.272-12.852-12.91Zm-514.815,2.946L460.93,893.69l22.986,23.1-41.377,41.571Zm10.192-.058L442.6,948.116l31.126-31.272-12.852-12.91ZM2186.357,816.508l23.251-23.357,17.919,18,36.251-36.42,40.905,41.095-23.293,23.4-17.875-18.56-13.045,13.536,30.83,30.978,36.207-35.774,23.054,22.382-59.544,59.827Zm10.192-.058,84.528,84.929,49.205-49.436-12.79-12.413-36.29,35.857-40.846-41.034,23.22-24.1,17.956,18.653,12.96-13.021-30.771-30.913-36.251,36.418-17.919-18Zm-154.786,73.315,95.755-96.2,58.824,59.1-23.252,23.36-35.838-36.011-72.5,72.843Zm10.192-.058,12.852,12.91,72.5-72.839,35.838,36.007,13-13.058L2137.46,803.8Zm-190.209-35.124L1885,831.221l58.823,59.1-23.251,23.36Zm10.2-.058,48.685,48.917,13-13.058-48.69-48.922ZM1681.734,819.4l23.251-23.357,17.919,18,36.252-36.42,40.9,41.095-23.3,23.4-17.87-18.56L1745.849,837.1l30.83,30.978,36.207-35.774,23.054,22.382L1776.4,914.511Zm94.72,84.871,49.205-49.436-12.791-12.414-36.29,35.857-40.846-41.034,23.219-24.1L1776.91,831.8l12.954-13.022L1759.1,787.865l-36.252,36.418-17.919-18-13,13.058Zm-239.314-11.614,95.755-96.2,58.824,59.1-23.252,23.36-35.838-36.011-72.5,72.843Zm10.192-.058,12.852,12.91,72.5-72.839,35.838,36.007,13-13.058-48.69-48.922Zm-190.21-35.124,23.251-23.362,58.824,59.1-23.251,23.36Zm10.192-.058,48.69,48.917,13-13.058-48.69-48.922Zm-190.2-35.129,23.251-23.356,17.919,18,36.252-36.419,40.9,41.094-23.3,23.4-17.869-18.561-13.044,13.537,30.83,30.978,36.207-35.774,23.054,22.382L1271.773,917.4Zm94.72,84.871,49.206-49.436-12.791-12.414-36.29,35.857-40.846-41.034,23.219-24.095,17.957,18.653,12.954-13.022-30.766-30.912-36.252,36.418-17.919-18-13,13.058Zm-239.314-11.614,95.755-96.2,58.824,59.1-23.251,23.36-35.838-36.011-72.5,72.843Zm10.192-.058,12.852,12.91,72.5-72.839L1163.9,871.56l13-13.058-48.69-48.922ZM852.5,860.359,875.751,837l58.824,59.1-23.251,23.36Zm10.192-.058,48.69,48.917,13-13.058-48.69-48.922Zm-190.21-35.129,23.257-23.357,17.914,18L749.9,783.4l40.907,41.094-23.294,23.4-17.875-18.56L736.6,842.874l30.83,30.978,36.207-35.774,23.055,22.382-59.55,59.827Zm94.72,84.871,49.211-49.436-12.791-12.414-36.29,35.857-40.846-41.034L749.7,818.921l17.962,18.653,12.954-13.021L749.846,793.64l-36.252,36.418-17.914-18-13,13.058ZM527.895,898.428l95.755-96.2,58.824,59.1-23.251,23.36-35.838-36.011-72.5,72.843Zm10.192-.058,12.852,12.91,72.5-72.839,35.838,36.007,13-13.058-48.685-48.922Zm-190.21-35.124,23.251-23.362,58.824,59.1L406.7,922.349Zm10.192-.058,48.69,48.917,13-13.057-48.69-48.922ZM167.86,828.059,191.111,804.7l17.919,18,36.252-36.42,40.907,41.095-23.294,23.4-17.875-18.561L231.98,845.762l30.83,30.978,36.207-35.774,23.054,22.382-59.55,59.827Zm94.72,84.871,49.206-49.436L299,851.081l-36.29,35.857L221.865,845.9l23.214-24.095,17.958,18.653,12.957-13.022-30.771-30.912-36.252,36.418-17.919-18-13,13.058ZM1987.8,871.967l23.251-23.36,22.985,23.1-23.251,23.362Zm10.192-.058,12.852,12.912,13-13.06-12.852-12.915Zm-514.815,2.946,23.252-23.36,22.985,23.1-23.251,23.362Zm10.192-.058,12.853,12.912,13-13.06-12.852-12.915Zm-514.815,2.946,23.251-23.36,22.986,23.1L1001.54,900.84Zm10.192-.058L1001.6,890.6l13-13.06-12.852-12.915ZM473.931,880.63l23.251-23.36,22.986,23.1-23.251,23.362Zm10.192-.058,12.852,12.912,13-13.06-12.852-12.915Zm1449.713-26.4,77.629-77.991,58.824,59.1-23.251,23.357L2011.2,822.632l-54.378,54.634Zm10.192-.058,12.852,12.91,54.378-54.629L2047.1,848.4l13-13.059-48.69-48.921Zm-514.815,2.946,77.629-77.991,58.823,59.1-23.251,23.357-35.838-36.007L1452.2,880.154Zm10.192-.058,12.852,12.91,54.378-54.628,35.838,36.007,13-13.06-48.69-48.92ZM924.59,859.946l77.629-77.991,58.824,59.1-23.251,23.357-35.838-36.007-54.378,54.634Zm10.192-.058,12.852,12.91,54.378-54.629,35.838,36.007,13-13.06L1002.16,792.2Zm-514.815,2.946L497.6,784.843l58.824,59.1L533.168,867.3,497.33,831.3,442.953,885.93Zm10.192-.059,12.852,12.91,54.378-54.628,35.838,36.007,13-13.06-48.69-48.92Zm1449.92-62.62,23.251-23.357,17.919,18,18.126-18.211,22.986,23.092-41.377,41.571Zm10.192-.058,30.771,30.918,31.126-31.272-12.852-12.91-18.126,18.209-17.919-18Zm-81.086,1.672,23.251-23.362,39.715,39.9-23.257,23.362Zm10.194-.058,29.574,29.716,13-13.063-29.576-29.712Zm-443.923,1.332,23.252-23.356,17.919,18,18.126-18.211,22.986,23.092-41.377,41.571Zm10.194-.058,30.769,30.918,31.126-31.272-12.852-12.91-18.126,18.209-17.918-18Zm-81.088,1.672,23.251-23.362,39.709,39.9-23.251,23.362Zm10.192-.058,29.576,29.716,13-13.063-29.576-29.713Zm-443.921,1.332,23.251-23.357,17.919,18,18.126-18.211,22.986,23.092-41.377,41.571Zm10.192-.059L911.8,836.791l31.127-31.272-12.852-12.91-18.126,18.209-17.919-18Zm-81.086,1.672,23.251-23.362,39.709,39.9-23.251,23.362Zm10.194-.058L839.706,837.2l13-13.063-29.576-29.713ZM366.21,808.819l23.251-23.356,17.919,18,18.126-18.211,22.986,23.092-41.377,41.571Zm10.194-.058,30.769,30.918L438.3,808.406,425.448,795.5l-18.126,18.209-17.919-18Zm-81.088,1.672,23.251-23.362,39.711,39.9-23.253,23.362Zm10.194-.058,29.574,29.716,13-13.063-29.576-29.713ZM2023.27,761.918l23.251-23.362,60.019,60.3-23.251,23.36Zm60.078,50.064,13-13.063L2046.463,748.8l-13,13.059Zm-564.7-47.176,23.251-23.362,60.019,60.3-23.251,23.36Zm60.078,50.064,13-13.063-49.885-50.118-13,13.059Zm-564.7-47.176,23.251-23.362,60.019,60.3L1074.043,828Zm60.078,50.064,13-13.063-49.886-50.118-13,13.059ZM509.4,770.581l23.251-23.362,60.019,60.3-23.251,23.36Zm60.078,50.063,13-13.063-49.886-50.118-13,13.06Zm1581.043-39.971,17.044-18.328-17.409-18.108,41.637-41.488,59.044,58.488-23.271,22.706-16.648-16.766-36.132,36.334Zm24.16,12.759,36.3-36.508,16.723,16.844,12.825-12.51-48.781-48.326-31.464,31.358,17.226,17.91-16.8,18.072ZM1645.9,783.561l17.045-18.328-17.409-18.108,41.636-41.488,59.04,58.488-23.267,22.706L1706.3,770.065,1670.164,806.4Zm24.159,12.759,36.3-36.508,16.723,16.844,12.827-12.51-48.781-48.326-31.464,31.358,17.224,17.91-16.806,18.072Zm-528.782-9.871,17.044-18.328-17.41-18.108,41.637-41.488,59.04,58.488-23.267,22.706-16.648-16.766-36.131,36.335Zm24.161,12.759,36.3-36.508,16.723,16.844,12.826-12.51L1182.5,718.708l-31.464,31.358,17.224,17.91-16.807,18.073Zm-528.784-9.871L653.7,771.008,636.288,752.9l41.637-41.488,59.04,58.488L713.7,792.606l-16.648-16.766-36.131,36.335ZM660.814,802.1l36.3-36.508,16.723,16.844,12.827-12.51L677.88,721.6l-31.464,31.358,17.226,17.91-16.808,18.072Zm1614.755-39.207,42.588-42.784,22.986,23.1-42.587,42.784Zm23.046,12.851,32.33-32.482-12.847-12.91-32.335,32.482Zm-527.667-9.964,42.586-42.784,22.986,23.1-42.587,42.785Zm23.044,12.851,32.33-32.482-12.847-12.909-32.336,32.482Zm-527.667-9.964,42.581-42.784,22.991,23.1L1289.31,791.76Zm23.044,12.851,32.33-32.482-12.852-12.909-32.33,32.482ZM761.7,771.552l42.586-42.785,22.986,23.1-42.581,42.784Zm23.05,12.851,32.33-32.482-12.852-12.91-32.33,32.482ZM257.073,774.44l42.586-42.784,22.988,23.1-42.588,42.785Zm23.044,12.851,32.336-32.482L299.6,741.9l-32.33,32.482ZM1953.7,762.2l112.556-113.078,22.968,23.072L1976.458,787.372Zm23.021,14.635,102.346-104.539L2066.2,659.36,1963.662,762.379Zm-527.643-11.747,112.554-113.078,22.963,23.072L1471.835,790.26Zm23.02,14.635,102.346-104.539-12.87-12.935L1459.039,765.266ZM944.456,767.974,1057.011,654.9l22.963,23.073L967.213,793.148Zm23.02,14.635L1069.822,678.07l-12.87-12.935L954.416,768.154ZM439.833,770.862,552.387,657.784l22.963,23.072L462.585,796.035Zm23.02,14.635L565.2,680.958l-12.87-12.935L449.793,771.042Zm1381.389-21.349,59.5-59.78,40.9,41.1-23.251,23.36-17.919-18-36.252,36.419Zm23.044,12.857,36.252-36.423,17.919,18,13-13.058-30.771-30.918-49.247,49.481Zm-527.667-9.969,59.5-59.78,40.9,41.1-23.251,23.361-17.919-18L1362.6,790.134Zm23.044,12.857,36.252-36.423,17.919,18,13-13.058L1399.063,717.5l-49.253,49.481Zm-527.668-9.969,59.5-59.78,40.9,41.1L912.152,774.6l-17.919-18-36.252,36.419Zm23.044,12.857,36.252-36.423,17.919,18,13-13.058L894.44,720.385l-49.253,49.481Zm-527.667-9.969,59.5-59.78,40.9,41.1-23.251,23.36-17.919-18-36.252,36.42Zm23.044,12.857,36.252-36.423,17.919,18,13-13.058-30.771-30.918-49.251,49.481Zm1707-58.955,59.175-59.778,41.639,41.142-24.684,23.266-17.195-17.878-12.438,12.922,35.878,36.052-23.246,23.353Zm59.175,48.853L2132.6,762.5l-35.8-35.964,22.609-23.487,17.443,18.136,13.971-13.171-31.238-30.865-48.98,49.481Zm-563.8-45.965,59.175-59.778,41.641,41.142-24.686,23.266-17.194-17.878-12.439,12.922,35.879,36.052-23.245,23.353Zm59.174,48.853,13.01-13.068-35.8-35.964,22.609-23.487,17.443,18.136L1646.2,710.9l-31.237-30.865-48.978,49.481Zm-563.8-45.966,59.175-59.778,41.641,41.142L1127.3,737.12l-17.194-17.878-12.439,12.922,35.879,36.052L1110.3,791.569Zm59.174,48.853,13.01-13.068-35.8-35.964,22.609-23.487,17.443,18.136,13.971-13.171-31.237-30.865-48.98,49.481Zm-563.8-45.965L605.722,675.6l41.641,41.142-24.686,23.266L605.485,722.13l-12.441,12.922L628.923,771.1l-23.246,23.353Zm59.174,48.853,13.01-13.068-35.8-35.964,22.61-23.488,17.441,18.136,13.973-13.171L605.719,685.81l-48.978,49.481Zm1634.179-60,42.552-41.386,22.751,24.408-42.673,43.556Zm23.055,15.876,32.254-32.917-13.068-14.02-32.357,31.471ZM1735.277,727.12l42.546-41.386,22.756,24.407L1757.9,753.7ZM1758.333,743l32.254-32.917-13.068-14.02-32.357,31.471Zm-527.679-12.988,42.546-41.386,22.756,24.407-42.673,43.556Zm23.056,15.876,32.254-32.917-13.068-14.02-32.357,31.471ZM726.031,732.9l42.546-41.386,22.756,24.407L748.66,759.473Zm23.056,15.876,32.254-32.917-13.072-14.02-32.353,31.471ZM221.4,735.784,263.954,694.4l22.756,24.407-42.673,43.556Zm23.061,15.876,32.249-32.917-13.066-14.02-32.353,31.471Zm1690.2-42.346,23.251-23.36,22.985,23.1-23.251,23.362Zm10.192-.058,12.852,12.91,13-13.058-12.852-12.915Zm-118.327.677,77.629-77.994,40.9,41.1-23.251,23.36-17.919-18-54.378,54.634Zm10.2-.058,12.847,12.91,54.378-54.629,17.919,18,13-13.063L1904.1,642.183ZM1430.041,712.2l23.251-23.36,22.986,23.1L1453.026,735.3Zm10.192-.058,12.852,12.91,13-13.058-12.852-12.915Zm-118.327.677,77.629-77.994,40.9,41.1-23.252,23.36-17.919-18-54.378,54.634Zm10.2-.058,12.847,12.91,54.378-54.629,17.919,18,13-13.063-30.771-30.914Zm-406.686,2.327,23.251-23.36,22.986,23.1L948.4,738.187Zm10.192-.058,12.852,12.91,13-13.058L948.61,701.968Zm-118.327.677,77.629-77.994,40.9,41.1-23.251,23.36-17.919-18-54.378,54.634Zm10.194-.058,12.851,12.91,54.378-54.629,17.919,18,13-13.063-30.771-30.914Zm-406.682,2.327,23.251-23.36,22.986,23.1L443.78,741.074Zm10.192-.058,12.852,12.91,13-13.058-12.852-12.915ZM312.66,718.6,390.289,640.6l40.9,41.1-23.251,23.36-17.919-18-54.378,54.634Zm10.194-.058,12.85,12.91,54.378-54.629,17.919,18,13-13.063L390.23,650.846Zm1882.257-30.085,77.629-77.994,58.823,59.1-23.251,23.362-35.837-36.007L2228.1,711.545Zm10.192-.058,12.853,12.91,54.377-54.629,35.838,36.007,13-13.063L2282.681,620.7Zm-514.815,2.946,77.629-77.994,58.824,59.1-23.251,23.362L1777.851,659.8l-54.378,54.629Zm23.044,12.851,54.378-54.629,35.838,36.007,13-13.063-48.685-48.917-67.378,67.692Zm-527.673-9.964,77.635-77.994,58.823,59.1L1309.061,698.7l-35.833-36.007L1218.85,717.32Zm23.05,12.851,54.378-54.629,35.833,36.007,13-13.063-48.685-48.917-67.379,67.692Zm-527.673-9.964,77.629-77.994,58.824,59.1-23.251,23.362L768.6,665.579l-54.378,54.629Zm23.044,12.851,54.378-54.629L804.5,691.346l13-13.063-48.69-48.917-67.373,67.692ZM186.613,700l77.629-77.994,58.826,59.1-23.253,23.362-35.838-36.007L209.6,723.1Zm23.044,12.851,54.378-54.629,35.838,36.007,13-13.063-48.69-48.917-67.373,67.692Zm1707.5-93.974,23.251-23.362,53.757,54.015,126.881-127.471,76.743,77.105L2174.54,622.53l-53.757-54.015-31.127,31.272L2103.7,613.9l18.126-18.209,22.986,23.1-41.377,41.571-37.033-37.207-72.5,72.837Zm10.192-.058,66.609,66.925,72.5-72.843,37.034,37.21,31.126-31.272-12.852-12.91-18.125,18.209-24.181-24.3,41.377-41.571,53.757,54.012,13-13.059L2120.99,532.3,1994.108,659.773l-53.757-54.01Zm-514.815,2.946,23.251-23.362,53.757,54.015L1616.425,524.95l76.743,77.105-23.251,23.362L1616.16,571.4l-31.127,31.272,14.048,14.111,18.125-18.209,22.986,23.1-41.377,41.571-37.034-37.207-72.5,72.837Zm10.194-.058,66.607,66.925,72.5-72.843L1598.874,653,1630,621.731l-12.847-12.91-18.125,18.209-24.182-24.3,41.377-41.571,53.757,54.012,13-13.059-66.609-66.925L1489.485,662.66l-53.757-54.01Zm-514.817,2.946,23.251-23.362,53.757,54.015L1111.8,527.838l76.743,77.106-23.251,23.362-53.757-54.015-31.127,31.272,14.047,14.111,18.126-18.209,22.986,23.1-41.377,41.571-37.033-37.207-72.5,72.838ZM918.1,624.6l66.609,66.925,72.5-72.843,37.033,37.21,31.121-31.272-12.847-12.91L1094.4,629.917l-24.181-24.3,41.377-41.571,53.757,54.011,13-13.059-66.609-66.925L984.862,665.548l-53.757-54.01ZM403.29,627.544l23.251-23.362L480.3,658.2,607.179,530.726l76.743,77.105-23.251,23.362-53.757-54.015L575.787,608.45l14.044,14.111,18.126-18.209,22.989,23.1-41.381,41.571-37.03-37.207-72.5,72.837Zm10.192-.058,66.609,66.925,72.5-72.843,37.03,37.21,31.125-31.272L607.9,614.6l-18.126,18.209-24.178-24.3,41.377-41.571,53.757,54.011,13-13.059-66.6-66.925L480.239,668.436l-53.757-54.01Zm1719.711,26.4,23.353-23.465,16.916,18.025,37.217-36.977,23,23.5-60.782,57.948Zm10.248-.114,29.594,29.085,50.359-48.012-12.843-13.118-37.323,37.084-16.888-18Zm-514.871,3,23.354-23.465,16.916,18.025,37.217-36.977,23,23.5L1668.271,695.8Zm10.249-.114,29.592,29.085,50.353-48.012-12.837-13.118L1668.6,661.7l-16.887-18Zm-514.873,3,23.354-23.465,16.916,18.025,37.217-36.977,23,23.5-60.783,57.948Zm10.25-.114,29.588,29.085,50.357-48.012L1201.3,627.5l-37.324,37.084-16.892-18Zm-514.876,3,23.357-23.465,16.916,18.025,37.217-36.977,23,23.5-60.783,57.948Zm10.253-.114,29.588,29.085,50.357-48.012-12.837-13.118-37.324,37.084-16.892-18ZM2277.814,580.6l23.251-23.362,76.743,77.107-23.253,23.36Zm10.192-.058,66.608,66.925,13-13.063-66.6-66.925Zm-514.821,2.946,23.257-23.362,76.742,77.107-23.256,23.36Zm76.8,66.867,13-13.063-66.6-66.925-13,13.063ZM1268.563,586.38l23.251-23.362,76.743,77.107-23.251,23.36Zm76.8,66.867,13-13.063-66.609-66.925-13,13.063ZM763.94,589.268l23.251-23.362,76.744,77.107-23.253,23.36Zm76.8,66.867,13-13.063-66.609-66.925-13,13.063ZM259.317,592.156l23.251-23.362L359.313,645.9l-23.253,23.36Zm76.8,66.867,13-13.063L282.51,579.034l-13,13.063ZM1861.989,602.3l78.834-79.2,40.9,41.1-23.251,23.362-17.919-18.008-55.582,55.847Zm10.194-.058,12.852,12.91,55.582-55.844,17.919,18,13-13.059-30.771-30.918Zm-514.821,2.946,78.838-79.2,40.9,41.1-23.251,23.362-17.919-18.008-55.587,55.847Zm10.2-.058,12.847,12.91,55.587-55.844,17.919,18,13-13.059-30.771-30.918Zm-514.82,2.946,78.838-79.2,40.9,41.1-23.251,23.362-17.919-18.008-55.587,55.847Zm10.2-.058,12.847,12.91,55.587-55.844,17.919,18,13-13.059-30.771-30.918Zm-514.82,2.946,78.838-79.2,40.9,41.1-23.251,23.362-17.919-18.008L371.1,634.057Zm10.192-.058,12.852,12.91,55.587-55.844,17.919,18,13-13.059L426.9,542ZM2169.887,545.01l23.251-23.36,76.743,77.105-23.251,23.362Zm76.8,66.863,13-13.059-66.609-66.925-13,13.063Zm-275.359-11.409,59.5-59.78,22.986,23.1-59.5,59.782Zm10.192-.058,12.852,12.911,49.253-49.479-12.852-12.915ZM1665.264,547.9l23.251-23.36,76.743,77.105-23.251,23.362Zm76.8,66.863,13-13.059-66.6-66.925-13,13.063Zm-275.358-11.409,59.5-59.78,22.986,23.1-59.5,59.782Zm10.192-.058,12.852,12.911L1539,566.726l-12.852-12.915Zm-316.258-52.508,23.251-23.36,76.743,77.105-23.251,23.362Zm76.8,66.863,13-13.059-66.6-66.925-13,13.063ZM962.084,606.239l59.5-59.78,22.986,23.1-59.5,59.782Zm10.192-.058,12.852,12.911,49.253-49.479L1021.528,556.7ZM656.012,553.673l23.257-23.36,76.743,77.105L732.755,630.78Zm76.8,66.863,13-13.059-66.6-66.925-13,13.063ZM457.46,609.127l59.5-59.78,22.986,23.1-59.5,59.782Zm10.192-.058L480.5,621.98,529.757,572.5,516.9,559.586ZM151.389,556.561,174.64,533.2l76.744,77.105-23.253,23.362Zm10.2-.058,66.6,66.921,13-13.059L174.582,543.44Zm1629.932-27.438,23.257-23.357,58.824,59.1-23.256,23.362Zm10.2-.058,48.685,48.922,13-13.059-48.685-48.92ZM1286.9,531.953l23.251-23.357,58.823,59.1-23.251,23.362Zm10.2-.058,48.684,48.922,13-13.059-48.69-48.92Zm-514.82,2.946,23.251-23.357,58.824,59.1L841.1,593.948Zm10.194-.058L841.155,583.7l13-13.059-48.69-48.92ZM277.65,537.728,300.9,514.371l58.826,59.1-23.253,23.362Zm10.194-.058,48.688,48.922,13-13.059-48.69-48.92Zm1918.266-29.05,41.406-41.6,40.864,41.057-18.088,18.772,18.056,17.529-23.439,22Zm10.254-.12,48.719,47.854,12.8-12.008-17.789-17.27,18.171-18.86-30.807-30.955Zm-514.876,3.007,41.406-41.6,40.864,41.057-18.088,18.772,18.056,17.529-23.439,22Zm58.973,47.734,12.8-12.008-17.789-17.27,18.171-18.86-30.807-30.955-31.1,31.24Zm-563.6-44.846,41.41-41.6,40.864,41.057-18.088,18.772,18.056,17.529-23.439,22Zm58.977,47.734,12.8-12.008-17.789-17.27,18.171-18.86-30.807-30.955-31.1,31.24Zm-563.6-44.846,41.4-41.6,40.869,41.057-18.088,18.772,18.056,17.529-23.439,22Zm58.977,47.734,12.8-12.008-17.789-17.27,18.171-18.86-30.812-30.955-31.092,31.24Zm-563.6-44.846,41.4-41.6,40.869,41.057L251.8,538.4l18.056,17.529-23.439,22ZM246.59,567.9l12.8-12.008L241.6,538.626l18.171-18.86L228.96,488.811l-31.092,31.24Zm1797.243-40.283,23.251-23.357,22.986,23.092-23.251,23.362Zm10.192-.058,12.852,12.915,13-13.063-12.852-12.91Zm-136.039-53.539,23.251-23.36,53.757,54.013,36.252-36.423,22.985,23.1-59.5,59.782Zm10.193-.058,66.609,66.925,49.252-49.483-12.852-12.91-36.252,36.42-53.757-54.01Zm-100.408,18.68,23.251-23.36L1886.86,505.3l18.125-18.214,22.986,23.1-41.377,41.571Zm10.2-.058,48.685,48.922,31.126-31.272-12.852-12.912L1886.8,515.536l-35.838-36.007ZM1539.21,530.509l23.252-23.357,22.986,23.092L1562.2,553.606Zm10.192-.058,12.852,12.915,13-13.063-12.852-12.91Zm-136.039-53.539,23.251-23.36,53.757,54.013,36.252-36.423,22.986,23.1-59.5,59.782Zm10.194-.058,66.607,66.925,49.252-49.483-12.852-12.91-36.252,36.42-53.757-54.01Zm-100.41,18.68,23.251-23.36,35.838,36.011,18.126-18.214,22.986,23.1-41.377,41.571Zm10.2-.058L1382.03,544.4l31.127-31.272L1400.3,500.213l-18.126,18.211-35.838-36.007ZM1034.587,533.4l23.251-23.357,22.986,23.092-23.251,23.362Zm10.192-.058,12.852,12.915,13-13.063-12.852-12.91ZM908.74,479.8l23.251-23.36,53.757,54.013L1022,474.029l22.986,23.1-59.5,59.782Zm10.192-.058,66.609,66.925,49.252-49.483-12.852-12.91-36.252,36.42-53.757-54.01ZM818.525,498.42l23.251-23.36,35.838,36.011,18.126-18.214,22.986,23.1-41.377,41.571Zm10.194-.058,48.688,48.922,31.127-31.272L895.681,503.1l-18.126,18.211L841.717,485.3ZM529.964,536.284l23.251-23.357L576.2,536.02,552.95,559.381Zm10.192-.058,12.852,12.915,13-13.063-12.852-12.91ZM404.117,482.687l23.251-23.36,53.757,54.013,36.252-36.423,22.986,23.1-59.5,59.782Zm10.192-.058,66.609,66.925,49.252-49.483-12.852-12.91-36.252,36.42-53.757-54.01ZM313.9,501.308l23.251-23.36,35.838,36.011,18.126-18.214,22.986,23.1-41.377,41.571Zm10.194-.058,48.688,48.922L403.91,518.9l-12.852-12.912L372.932,524.2l-35.838-36.007ZM2134.049,509l77.628-77.991,22.986,23.1-77.629,77.989Zm10.192-.058,12.852,12.915,67.378-67.692-12.852-12.911Zm-514.815,2.946,77.629-77.991,22.986,23.1-77.629,77.989Zm10.192-.058,12.852,12.915,67.377-67.692L1707,444.141ZM1124.8,514.775l77.629-77.991,22.986,23.1-77.629,77.989Zm10.192-.058,12.852,12.915,67.373-67.692-12.847-12.911ZM620.18,517.663l77.629-77.991,22.986,23.1-77.629,77.989Zm10.192-.058,12.852,12.915L710.6,462.828,697.75,449.916ZM2031.4,442.284l-36.252,36.42-22.986-23.1,59.5-59.782,94.661,95.11L2103.071,514.3Zm71.735,61.774,13-13.063L2031.6,406.067l-49.252,49.483,12.852,12.91,36.252-36.42Zm-576.358-58.886-36.252,36.42-22.986-23.1,59.5-59.782,94.662,95.11-23.251,23.362Zm71.735,61.774,13-13.063-84.528-84.928-49.252,49.483,12.852,12.91,36.252-36.42ZM1022.149,448.06,985.9,484.479l-22.986-23.1,59.5-59.782,94.662,95.11-23.251,23.362Zm71.734,61.774,13-13.063-84.528-84.928L973.1,461.325l12.852,12.91,36.252-36.42ZM517.526,450.948l-36.252,36.42-22.986-23.1,59.5-59.782,94.662,95.11L589.2,522.962Zm71.734,61.774,13-13.063-84.528-84.928L468.48,464.213l12.852,12.91,36.252-36.42Zm1635.418-94.77,23.251-23.362,75.547,75.906-23.251,23.362Zm10.192-.058,65.413,65.723,13-13.063-65.414-65.723Zm-514.815,2.946,23.251-23.362,75.547,75.906L1795.6,496.745Zm75.606,65.665,13-13.063-65.414-65.723-13,13.063Zm-580.234-62.777,23.257-23.362,75.547,75.906-23.251,23.362Zm75.611,65.665,13-13.063-65.414-65.723-13,13.063ZM710.8,426.614l23.251-23.362,75.553,75.906L786.356,502.52Zm75.611,65.665,13-13.063L734,413.493l-13,13.063ZM206.181,429.5l23.251-23.362,75.553,75.906-23.257,23.362Zm75.606,65.665,13-13.063-65.414-65.723-13,13.063ZM2080.5,418.776l23.251-23.362,35.838,36.007,13-13.058-35.838-36.013L2140,358.995,2175.84,395l36.251-36.42,22.986,23.092-95.754,96.2Zm10.192-.058,48.69,48.917,85.5-85.9-12.852-12.91-36.252,36.42-35.837-36.007-13,13.058,35.838,36.013-23.251,23.36-35.838-36.011Zm-226.668,37.507,18.126-18.209-17.919-18,23.251-23.362,40.9,41.1-41.377,41.571Zm10.4-36.27,17.914,18-18.121,18.209,12.848,12.912,31.126-31.268-30.771-30.918Zm-298.551,1.708,23.251-23.362,35.838,36.007,13-13.058-35.838-36.013,23.251-23.357,35.838,36.007,36.252-36.42,22.986,23.092-95.755,96.2Zm10.192-.058,48.69,48.917,85.5-85.9-12.852-12.91-36.252,36.42-35.838-36.007-13,13.058,35.838,36.013-23.252,23.36-35.838-36.011ZM1359.4,459.113l18.126-18.209-17.919-18,23.251-23.362,40.9,41.1-41.377,41.571Zm10.4-36.27,17.919,18-18.126,18.209,12.852,12.912,31.127-31.268L1382.8,409.78Zm-298.546,1.708L1094.5,401.19l35.838,36.007,13-13.058L1107.5,388.127l23.251-23.357,35.838,36.007,36.252-36.42,22.986,23.092-95.755,96.2Zm10.192-.058,48.69,48.917,85.5-85.9-12.847-12.91-36.252,36.42L1130.7,375.011l-13,13.058,35.838,36.013-23.251,23.36-35.838-36.011ZM854.776,462,872.9,443.792l-17.919-18,23.251-23.362,40.9,41.1L877.762,485.1Zm10.4-36.27,17.919,18-18.126,18.209,12.852,12.912,31.127-31.268-30.771-30.918ZM566.63,427.439l23.251-23.362,35.838,36.007,13-13.058-35.833-36.013,23.251-23.357,35.838,36.007,36.252-36.42,22.986,23.092-95.755,96.2Zm10.192-.058,48.69,48.917,85.5-85.9-12.847-12.91-36.252,36.42L626.074,377.9l-13,13.058,35.838,36.013-23.251,23.36-35.838-36.011ZM350.153,464.888l18.126-18.209-17.919-18,23.251-23.362,40.9,41.1-41.377,41.571Zm10.4-36.27,17.919,18L360.345,464.83,373.2,477.742l31.127-31.268-30.771-30.918Zm1431.588-8.192,58.3-58.57,22.986,23.1-35.043,35.21,17.919,18-23.256,23.362Zm10.2-.058,30.766,30.914,13-13.059-17.919-18,35.048-35.21-12.852-12.91Zm-514.82,2.946,58.3-58.57,22.986,23.1-35.042,35.21,17.913,18-23.251,23.362Zm10.2-.058,30.766,30.914,13-13.059-17.919-18L1358.6,387.9l-12.847-12.91ZM782.894,426.2l58.294-58.57,22.991,23.1-35.046,35.21,17.917,18L823.8,467.3Zm10.194-.058,30.769,30.914,13-13.059-17.919-18,35.042-35.21-12.852-12.91ZM278.271,429.09l58.294-58.57,22.986,23.1-35.041,35.21,17.919,18L319.175,470.19Zm10.194-.058,30.769,30.914,13-13.059-17.919-18,35.043-35.21-12.852-12.91Zm1647.855-9.43L1977.7,378.03l22.986,23.1L1959.3,442.7Zm10.192-.058,12.852,12.91,31.127-31.268-12.852-12.915ZM1431.7,422.489l41.377-41.571,22.986,23.1-41.377,41.571Zm10.192-.058,12.852,12.91,31.126-31.268-12.852-12.915Zm-514.815,2.946,41.377-41.571,22.986,23.1-41.377,41.571Zm10.192-.058,12.852,12.91,31.126-31.268-12.852-12.915ZM422.45,428.264l41.377-41.571,22.986,23.1L445.436,451.36Zm10.192-.058,12.852,12.91,31.126-31.268-12.852-12.915ZM2189.255,309.514l23.251-23.362,17.919,18,36.252-36.42,40.9,41.1-23.293,23.4-17.875-18.566-13.044,13.537,30.83,30.978,36.207-35.774L2343.46,344.8l-59.544,59.823Zm10.192-.058,84.528,84.928,49.205-49.434-12.79-12.419-36.29,35.857-40.846-41.034,23.219-24.091,17.956,18.65,12.959-13.016-30.771-30.918L2230.366,314.4l-17.92-18Zm-154.785,73.308,95.755-96.2,58.824,59.1-23.252,23.36-35.838-36.007-72.5,72.839Zm10.192-.058,12.852,12.915,72.5-72.843,35.838,36.012,13-13.063-48.69-48.917Zm-190.209-35.122,23.251-23.362,58.823,59.1-23.251,23.362Zm10.2-.058,48.685,48.92,13-13.063-48.69-48.917ZM1684.631,312.4l23.251-23.362,17.919,18,36.252-36.42,40.9,41.1-23.3,23.4-17.869-18.566L1748.746,330.1l30.83,30.978,36.207-35.774,23.054,22.385-59.544,59.823Zm94.72,84.869,49.205-49.434-12.791-12.419-36.29,35.857-40.846-41.034,23.219-24.091,17.956,18.65,12.954-13.016-30.766-30.918-36.251,36.423-17.919-18-13,13.058Zm-239.314-11.619,95.755-96.2,58.824,59.1-23.252,23.36-35.838-36.007-72.5,72.839Zm10.192-.058,12.852,12.915,72.5-72.843,35.838,36.013,13-13.063-48.69-48.917Zm-190.21-35.122,23.251-23.362,58.824,59.1-23.251,23.362Zm10.192-.058,48.69,48.92,13-13.063-48.69-48.917Zm-190.2-35.124,23.251-23.362,17.919,18,36.252-36.42,40.9,41.1-23.3,23.4-17.869-18.566-13.044,13.537,30.83,30.978,36.207-35.774,23.054,22.385L1274.67,410.4Zm94.72,84.869,49.206-49.434-12.791-12.419-36.29,35.857-40.846-41.034,23.22-24.091,17.957,18.65,12.954-13.016-30.766-30.918-36.252,36.423-17.919-18-13,13.058Zm-239.313-11.619,95.755-96.2,58.824,59.1-23.251,23.36L1130.9,338.8l-72.5,72.839Zm10.192-.058,12.852,12.915,72.5-72.843,35.838,36.013,13-13.063-48.69-48.917ZM855.4,353.359,878.648,330l58.824,59.1-23.251,23.362Zm10.192-.058,48.69,48.92,13-13.063-48.69-48.917ZM675.38,318.177l23.257-23.362,17.914,18L752.8,276.4l40.907,41.1-23.294,23.4-17.874-18.566L739.5,335.874l30.83,30.978,36.207-35.774,23.055,22.385-59.55,59.823Zm94.72,84.869,49.211-49.434-12.79-12.419L770.23,377.05l-40.846-41.034L752.6,311.925l17.962,18.65,12.954-13.016L752.743,286.64l-36.252,36.423-17.914-18-13,13.058ZM530.792,391.427l95.755-96.2,58.824,59.1-23.251,23.36-35.838-36.007-72.5,72.839Zm10.192-.058,12.852,12.915,72.5-72.843,35.838,36.012,13-13.063-48.685-48.917Zm-190.21-35.122,23.251-23.362,58.824,59.1L409.6,415.349Zm10.192-.058,48.69,48.92,13-13.063-48.69-48.917Zm-190.21-35.124L194.008,297.7l17.919,18,36.252-36.42,40.907,41.1-23.294,23.4-17.875-18.566-13.039,13.537,30.83,30.978,36.207-35.774,23.054,22.385-59.55,59.823Zm94.72,84.869L314.682,356.5,301.9,344.081l-36.29,35.857L224.761,338.9l23.214-24.091,17.958,18.65,12.957-13.016L248.12,289.528l-36.252,36.423-17.919-18-13,13.058ZM1990.7,364.967l23.251-23.36,22.985,23.1-23.251,23.36Zm10.192-.058,12.852,12.915,13-13.063-12.852-12.91Zm-514.815,2.946,23.252-23.36,22.986,23.1-23.251,23.36Zm10.192-.058,12.852,12.915,13-13.063-12.852-12.91Zm-514.815,2.946,23.251-23.36,22.986,23.1-23.251,23.36Zm10.192-.058L1004.5,383.6l13-13.063-12.852-12.91ZM476.828,373.63l23.251-23.36,22.986,23.1-23.251,23.36Zm10.192-.058,12.852,12.915,13-13.063-12.852-12.91Zm1449.713-26.4,77.629-77.991,58.824,59.1-23.251,23.362L2014.1,315.638l-54.378,54.629Zm10.192-.058,12.852,12.915,54.378-54.634,35.838,36.007,13-13.059-48.69-48.92Zm-514.815,2.946,77.629-77.991,58.824,59.1-23.251,23.362-35.838-36.007L1455.1,373.154ZM1442.3,350l12.852,12.915,54.378-54.634,35.838,36.007,13-13.059-48.69-48.92Zm-514.815,2.946,77.629-77.991,58.824,59.1-23.251,23.362-35.838-36.007-54.378,54.629Zm10.192-.058L950.531,365.8l54.378-54.634,35.838,36.007,13-13.059-48.69-48.92Zm-514.815,2.946,77.629-77.991,58.824,59.1-23.251,23.362L500.227,324.3,445.85,378.93Zm10.192-.058,12.852,12.915,54.378-54.634,35.838,36.007,13-13.059-48.69-48.92Zm1449.92-62.616,23.251-23.36,17.919,18,18.126-18.209,22.986,23.1-41.377,41.571Zm10.192-.058,30.771,30.914,31.126-31.268-12.852-12.915-18.126,18.214-17.919-18.008Zm-81.086,1.672,23.251-23.362,39.715,39.9-23.256,23.36Zm10.193-.058,29.574,29.713,13-13.058-29.576-29.718Zm-443.923,1.332,23.251-23.36,17.919,18,18.126-18.209,22.986,23.1-41.377,41.571Zm10.194-.058,30.769,30.914,31.127-31.268-12.852-12.915-18.126,18.214-17.919-18.008Zm-81.088,1.672L1330.71,274.3l39.709,39.9-23.252,23.36Zm10.192-.058,29.576,29.713,13-13.058-29.576-29.718ZM873.73,298.935l23.251-23.36,17.919,18,18.126-18.209,22.986,23.1-41.377,41.571Zm10.192-.058,30.771,30.914,31.126-31.268-12.852-12.915-18.126,18.214-17.919-18.008Zm-81.086,1.672,23.251-23.362,39.709,39.9-23.251,23.36Zm10.194-.058L842.6,330.2l13-13.058-29.576-29.718Zm-443.922,1.332,23.251-23.36,17.919,18L428.4,278.256l22.986,23.1-41.377,41.571Zm10.194-.058,30.769,30.914L441.2,301.41l-12.852-12.915-18.126,18.214L392.3,288.7Zm-81.088,1.672,23.251-23.362,39.711,39.9-23.253,23.36Zm10.194-.058,29.574,29.713,13-13.058-29.576-29.718Zm1717.761-48.457,23.251-23.36,60.019,60.3-23.251,23.36Zm60.078,50.06,13-13.058L2049.36,241.8l-13,13.063Zm-564.7-47.172,23.251-23.36,60.019,60.3-23.251,23.36Zm60.078,50.06,13-13.058-49.885-50.124-13,13.063Zm-564.7-47.172,23.251-23.36,60.019,60.3L1076.94,321ZM1077,310.757l13-13.058-49.885-50.124-13,13.063ZM512.3,263.584l23.251-23.36,60.019,60.3-23.251,23.36Zm60.078,50.06,13-13.058-49.886-50.124-13,13.063Zm1581.043-39.971,17.044-18.328-17.409-18.1,41.636-41.493,59.044,58.494-23.271,22.7-16.648-16.766-36.132,36.338Zm24.16,12.757,36.3-36.5,16.724,16.841,12.825-12.51-48.781-48.323-31.464,31.355,17.226,17.91-16.8,18.076ZM1648.8,276.561l17.044-18.328-17.409-18.1,41.636-41.493,59.041,58.494-23.267,22.7-16.649-16.766L1673.061,299.4Zm24.159,12.757,36.3-36.5,16.724,16.841,12.827-12.51-48.781-48.323-31.464,31.355,17.224,17.91-16.807,18.076Zm-528.782-9.87,17.044-18.328-17.41-18.1,41.637-41.494,59.04,58.494-23.267,22.7-16.649-16.766-36.131,36.338Zm24.161,12.757,36.3-36.5,16.723,16.841,12.825-12.51L1185.4,211.711l-31.464,31.355,17.224,17.91-16.806,18.076ZM639.55,282.336l17.044-18.328-17.409-18.1,41.636-41.494,59.04,58.494-23.267,22.7-16.648-16.766-36.131,36.338Zm24.161,12.757,36.3-36.5,16.723,16.841,12.827-12.51L680.777,214.6l-31.464,31.355,17.226,17.91-16.808,18.076Zm1614.755-39.2,42.588-42.781L2344.04,236.2l-42.587,42.784Zm10.194-.058,12.852,12.913,32.331-32.485L2321,223.347Zm-514.816,2.946L1816.431,216l22.986,23.092-42.586,42.784Zm23.044,12.855,32.33-32.485-12.847-12.912-32.336,32.484Zm-527.667-9.967,42.581-42.781,22.991,23.092-42.586,42.784Zm23.044,12.855,32.33-32.485-12.852-12.911-32.33,32.484Zm-527.673-9.967,42.586-42.781,22.986,23.092-42.581,42.784Zm23.05,12.855,32.33-32.485L807.121,232.01l-32.33,32.484ZM259.97,267.44l42.586-42.781,22.988,23.092-42.588,42.784Zm23.044,12.855,32.336-32.485L302.5,234.9l-32.33,32.484ZM1956.6,255.2l112.556-113.078,22.968,23.072L1979.354,280.372Zm23.021,14.635,102.346-104.54-12.87-12.935L1966.559,255.379Zm-527.643-11.748,112.554-113.078,22.963,23.072L1474.732,283.26ZM1475,272.722l102.346-104.54-12.87-12.935L1461.936,258.267ZM947.353,260.975,1059.907,147.9l22.963,23.072L970.11,286.148Zm23.02,14.635,102.346-104.54-12.87-12.935L957.313,261.154ZM442.73,263.862,555.284,150.785l22.963,23.072L465.482,289.035ZM465.75,278.5,568.1,173.958l-12.87-12.935L452.69,264.042Zm1381.388-21.344,59.5-59.785,40.9,41.1-23.251,23.36-17.919-18-36.252,36.418Zm23.044,12.851,36.252-36.42,17.919,18,13-13.063-30.771-30.914L1857.336,257.1Zm-527.667-9.964,59.5-59.785,40.9,41.1-23.252,23.36-17.919-18L1365.5,283.132Zm23.044,12.851,36.252-36.42,17.919,18,13-13.063L1401.96,210.5l-49.253,49.483Zm-527.667-9.964,59.5-59.785,40.9,41.1L915.049,267.6l-17.919-18L860.878,286.02Zm23.044,12.851,36.252-36.42,17.919,18,13-13.063-30.771-30.914-49.252,49.483Zm-527.667-9.964,59.5-59.785,40.9,41.1-23.251,23.36-17.919-18-36.252,36.418Zm23.044,12.851,36.252-36.42,17.919,18,13-13.063-30.771-30.914-49.251,49.483Zm1707-58.955,59.175-59.778,41.639,41.146-24.684,23.263-17.194-17.878-12.438,12.925,35.879,36.053L2122.444,278.8Zm59.175,48.853L2135.5,255.5l-35.8-35.97,22.609-23.487,17.444,18.136,13.971-13.167-31.238-30.865-48.98,49.478ZM1558.69,222.6l59.175-59.778,41.641,41.146-24.686,23.263-17.194-17.878-12.439,12.925,35.879,36.054-23.246,23.351Zm59.174,48.853,13.01-13.063-35.8-35.97,22.608-23.487,17.443,18.136L1649.1,203.9l-31.237-30.865-48.978,49.478Zm-563.8-45.966,59.175-59.778,41.641,41.146L1130.2,230.12,1113,212.242l-12.439,12.925,35.879,36.054L1113.2,284.572Zm59.174,48.853,13.01-13.063-35.8-35.97,22.609-23.487,17.443,18.136,13.971-13.167-31.237-30.865-48.98,49.478Zm-563.8-45.966L608.619,168.6l41.641,41.146-24.686,23.263L608.382,215.13l-12.441,12.925,35.879,36.053L608.574,287.46Zm59.174,48.853,13.01-13.063-35.8-35.97,22.61-23.487,17.442,18.136,13.972-13.167-31.239-30.865-48.978,49.478ZM2242.8,217.238l42.552-41.388,22.75,24.4-42.673,43.556Zm9.885.4,13.171,15.468,32.254-32.919-13.068-14.018Zm-514.508,2.485,42.546-41.388,22.757,24.4L1760.8,246.7ZM1761.23,236l32.254-32.919-13.068-14.018-32.357,31.469Zm-527.678-12.983,42.546-41.388,22.756,24.4-42.673,43.556Zm23.055,15.87,32.254-32.919-13.068-14.018-32.357,31.469ZM728.928,225.9l42.546-41.388,22.756,24.4-42.673,43.556Zm23.055,15.87,32.254-32.919-13.071-14.018L738.813,226.3ZM224.3,228.789,266.851,187.4l22.756,24.4-42.673,43.556Zm23.061,15.87,32.249-32.919-13.066-14.018L234.19,229.191Z" transform="translate(-1220.466 971.088) rotate(-45)" fill="#fff"/>
        </g>
      </g>
    </g>
  </g>
</svg>
