<svg xmlns="http://www.w3.org/2000/svg" width="119.333" height="82.865" viewBox="0 0 119.333 82.865">
  <path id="Fast_delivery_19371" d="M89.411,269.119a14.962,14.962,0,0,0,10.3-13.429l.021-.369h26.4c.2,1.149.33,2.312.619,3.432a14.825,14.825,0,0,0,12.57,10.987,17.156,17.156,0,0,0,3.269.107,11.635,11.635,0,0,0,3.172-.728,14.872,14.872,0,0,0,10.3-13.429c.006-.109.02-.217.038-.417h13.232V229.157c-.1-.359-.189-.722-.3-1.078a6.625,6.625,0,0,0-6.286-4.621c-3.093-.009-6.185-.017-9.278.012a1.093,1.093,0,0,1-1.085-.626q-9.588-16.018-19.189-32.028a7.287,7.287,0,0,0-5.184-3.729l-.037-.007a6.114,6.114,0,0,0-.9-.082H50v.439a6.638,6.638,0,0,0,.178,1.52c.045.191.092.383.142.573a9.887,9.887,0,0,0,9.536,7.4q18.165.036,36.329.013a3.312,3.312,0,1,1,.435,6.61c-.286.02-.574.012-.862.012H53.245c.133.873.188,1.7.39,2.5a9.86,9.86,0,0,0,9.5,7.438c11.027.027,22.054.01,33.081.013a3.311,3.311,0,0,1,.37,6.612c-.286.017-.574.01-.862.01H56.646a8.97,8.97,0,0,0,.585,3.411,9.864,9.864,0,0,0,9.253,6.527c9.9.024,19.8.009,29.7.012a3.313,3.313,0,0,1,.438,6.611c-.286.02-.574.012-.862.012H69.889v.737q0,8.749,0,17.5a14.892,14.892,0,0,0,13.08,14.79,14.491,14.491,0,0,0,6.441-.621Z" transform="translate(-50 -187)" fill="#ddd" fill-rule="evenodd"/>
</svg>
