<svg xmlns="http://www.w3.org/2000/svg" width="21.047" height="14.615" viewBox="0 0 21.047 14.615">
  <path id="Fast_delivery_19371" d="M56.951,201.484a2.639,2.639,0,0,0,1.817-2.368l0-.065h4.656c.036.2.058.408.109.605a2.615,2.615,0,0,0,2.217,1.938,3.027,3.027,0,0,0,.577.019,2.052,2.052,0,0,0,.559-.128,2.623,2.623,0,0,0,1.817-2.368c0-.019,0-.038.007-.074h2.334v-4.606c-.018-.063-.033-.127-.053-.19a1.168,1.168,0,0,0-1.109-.815c-.545,0-1.091,0-1.636,0a.193.193,0,0,1-.191-.11q-1.691-2.825-3.385-5.649a1.285,1.285,0,0,0-.914-.658h-.006a1.078,1.078,0,0,0-.159-.014H50v.077a1.171,1.171,0,0,0,.031.268c.008.034.016.067.025.1a1.744,1.744,0,0,0,1.682,1.306q3.2.006,6.408,0a.584.584,0,1,1,.077,1.166c-.05,0-.1,0-.152,0h-7.5c.023.154.033.3.069.44a1.739,1.739,0,0,0,1.676,1.312c1.945,0,3.89,0,5.835,0a.584.584,0,0,1,.065,1.166c-.05,0-.1,0-.152,0H51.172a1.582,1.582,0,0,0,.1.6,1.74,1.74,0,0,0,1.632,1.151c1.746,0,3.492,0,5.238,0a.584.584,0,0,1,.077,1.166c-.05,0-.1,0-.152,0H53.508v.13q0,1.543,0,3.086a2.627,2.627,0,0,0,2.307,2.609A2.556,2.556,0,0,0,56.951,201.484Z" transform="translate(-50 -187)" fill-rule="evenodd"/>
</svg>
