<svg xmlns="http://www.w3.org/2000/svg" width="38.521" height="38.521" viewBox="0 0 38.521 38.521">
  <path id="Funnny" d="M94.261,75a19.261,19.261,0,1,0,19.261,19.261A19.261,19.261,0,0,0,94.261,75Zm0,36.256a16.995,16.995,0,1,1,16.995-16.995A16.995,16.995,0,0,1,94.261,111.256ZM89.4,92.327l-2.266-2.266a1.133,1.133,0,0,0-1.6,0l-2.266,2.266a1.133,1.133,0,0,0,1.6,1.6l1.465-1.465,1.465,1.465a1.133,1.133,0,1,0,1.6-1.6Zm15.862,0-2.266-2.266a1.133,1.133,0,0,0-1.6,0l-2.266,2.266a1.133,1.133,0,0,0,1.6,1.6l1.465-1.465,1.465,1.465a1.133,1.133,0,0,0,1.6-1.6Zm-4.62,8.278h0a1.133,1.133,0,0,0-1.5-.091,7.932,7.932,0,0,1-9.724.026,1.133,1.133,0,0,0-1.495.094h0a1.131,1.131,0,0,0,.1,1.693,10.2,10.2,0,0,0,12.516-.032,1.132,1.132,0,0,0,.1-1.691Z" transform="translate(-75 -75)" fill="#fff" fill-rule="evenodd"/>
</svg>
