<svg xmlns="http://www.w3.org/2000/svg" width="16.49" height="16.49" viewBox="0 0 16.49 16.49">
  <path id="Reward_19371" d="M100.515,108.763v6.7a1.031,1.031,0,0,0,1.031,1.031h6.184v-7.73Zm8.245,0v7.73h6.184a1.031,1.031,0,0,0,1.031-1.031v-6.7Zm6.7-4.638H111.4a2.28,2.28,0,0,0,.961-.272,2.061,2.061,0,1,0-2.046-3.578,1.943,1.943,0,0,0-.757.751l-1.311,2.228-1.311-2.227a1.943,1.943,0,0,0-.757-.751,2.061,2.061,0,0,0-2.046,3.578,2.281,2.281,0,0,0,.961.272h-4.061A1.031,1.031,0,0,0,100,105.156v2.577h7.73v-3.6h1.031v3.6h7.73v-2.577A1.031,1.031,0,0,0,115.46,104.125Zm-11.2-2.573a1.034,1.034,0,0,1,.9-.519h0a1.014,1.014,0,0,1,.51.136.923.923,0,0,1,.37.361l.005.009.005.009.912,1.549h-1.735a1.278,1.278,0,0,1-.581-.14A1.032,1.032,0,0,1,104.259,101.553Zm6.186,0,.005-.009.005-.009a.922.922,0,0,1,.37-.361,1.015,1.015,0,0,1,.51-.136,1.031,1.031,0,0,1,.513,1.925,1.278,1.278,0,0,1-.581.14h-1.735Zm1.913,2.809a.052.052,0,0,0,0-.1.052.052,0,0,0,0,.1Z" transform="translate(-100 -100.003)" fill-rule="evenodd"/>
</svg>
