<svg xmlns="http://www.w3.org/2000/svg" width="50.404" height="35" viewBox="0 0 50.404 35">
  <path id="Fast_delivery_19371" d="M66.646,221.685A6.319,6.319,0,0,0,71,216.013l.009-.156h11.15c.086.486.139.976.261,1.449a6.262,6.262,0,0,0,5.309,4.641,7.245,7.245,0,0,0,1.381.045,4.913,4.913,0,0,0,1.34-.307,6.282,6.282,0,0,0,4.351-5.672c0-.046.008-.092.016-.176H100.4V204.806c-.042-.152-.08-.305-.127-.455a2.8,2.8,0,0,0-2.655-1.952c-1.306,0-2.613-.007-3.919.005a.462.462,0,0,1-.458-.264q-4.05-6.766-8.105-13.528a3.078,3.078,0,0,0-2.19-1.575l-.016,0a2.583,2.583,0,0,0-.382-.034H50v.185a2.8,2.8,0,0,0,.075.642c.019.081.039.162.06.242a4.176,4.176,0,0,0,4.028,3.127q7.673.015,15.345.006a1.4,1.4,0,1,1,.184,2.792c-.121.008-.243,0-.364,0H51.37c.056.369.079.719.165,1.054a4.164,4.164,0,0,0,4.013,3.142c4.657.011,9.315,0,13.972.006a1.4,1.4,0,0,1,.156,2.793c-.121.007-.243,0-.364,0H52.807a3.789,3.789,0,0,0,.247,1.441,4.166,4.166,0,0,0,3.908,2.757c4.181.01,8.363,0,12.544,0a1.4,1.4,0,0,1,.185,2.792c-.121.008-.243,0-.364,0H58.4v.311q0,3.7,0,7.391a6.29,6.29,0,0,0,5.525,6.247A6.121,6.121,0,0,0,66.646,221.685Z" transform="translate(-50 -187)" fill="#ff790e" fill-rule="evenodd"/>
</svg>
