<svg xmlns="http://www.w3.org/2000/svg" width="63.476" height="46.415" viewBox="0 0 63.476 46.415">
  <path id="Info_Guide" data-name="Info Guide" d="M121.674,174.974a28.478,28.478,0,0,0-14.936,4.04A28.48,28.48,0,0,0,91.8,174.971H75v37.675a3.376,3.376,0,0,0,3.36,3.4l13.442,0a21.466,21.466,0,0,1,8.366,1.575,38.119,38.119,0,0,1,5.191,3.176c.632.439.837.589,1.379.589s.747-.149,1.379-.589a38.122,38.122,0,0,1,5.191-3.176,21.467,21.467,0,0,1,8.366-1.577l13.442,0a3.374,3.374,0,0,0,3.361-3.393V174.969Zm13.069,35.46a1.875,1.875,0,0,1-1.867,1.876h-11.2a24.34,24.34,0,0,0-9.819,1.869,41.045,41.045,0,0,0-4,2.2,2.136,2.136,0,0,1-2.24,0,41.045,41.045,0,0,0-4-2.2,24.335,24.335,0,0,0-9.819-1.869H80.6a1.875,1.875,0,0,1-1.867-1.876v-1.862H91.8a28.5,28.5,0,0,1,14.94,4.048,28.482,28.482,0,0,1,14.936-4.043h13.069v1.858Zm-54.141-28H95.536a1.871,1.871,0,1,1,0,3.742H80.6a1.871,1.871,0,1,1,0-3.742Zm0,7.475H95.536a1.867,1.867,0,1,1,0,3.734H80.6a1.867,1.867,0,1,1,0-3.734Zm0,7.461h7.468a1.871,1.871,0,0,1,0,3.742H80.6a1.871,1.871,0,1,1,0-3.742Zm42.06-15a2.576,2.576,0,1,1-2.589,2.576A2.576,2.576,0,0,1,122.661,182.364Zm4.315,20.611h-7.766v-.884l.183-.006a1.587,1.587,0,0,0,1.186-.451c.089-.1.24-.45.24-1.62v-7.8c0-1.113-.156-1.532-.287-1.688a1.625,1.625,0,0,0-1.145-.383l-.177-.011v-.893h6.041v10.78a2.479,2.479,0,0,0,.423,1.688,1.55,1.55,0,0,0,1.126.383l.177.01Z" transform="translate(-75 -174.969)" fill-rule="evenodd"/>
</svg>
