<svg xmlns="http://www.w3.org/2000/svg" width="89.411" height="89.411" viewBox="0 0 89.411 89.411">
  <path id="Internet_19371" d="M119.705,75a44.705,44.705,0,1,0,44.705,44.705A44.705,44.705,0,0,0,119.705,75Zm34.9,63.113H141.28a78.362,78.362,0,0,0,2.052-15.778h15.733a39.066,39.066,0,0,1-3.012,12.723Q155.392,136.622,154.6,138.113Zm-71.245-3.056a39.067,39.067,0,0,1-3.011-12.723H96.079a78.361,78.361,0,0,0,2.052,15.778H84.809q-.787-1.492-1.452-3.056ZM84.809,101.3H98.131a78.362,78.362,0,0,0-2.052,15.778H80.345a39.066,39.066,0,0,1,3.012-12.723Q84.019,102.788,84.809,101.3Zm51.571,2.156a73.341,73.341,0,0,1,1.689,13.622H122.335V101.3h13.522Q136.134,102.358,136.381,103.454Zm-14.046-7.416V80.726a11.432,11.432,0,0,1,3.3,1.9,25.34,25.34,0,0,1,6.158,7.933,44.775,44.775,0,0,1,2.426,5.483Zm-8.559-13.416a11.435,11.435,0,0,1,3.3-1.9V96.038H105.192a44.776,44.776,0,0,1,2.427-5.483A25.331,25.331,0,0,1,113.776,82.622Zm3.3,18.675v15.778H101.341a73.342,73.342,0,0,1,1.689-13.622q.246-1.1.523-2.156Zm-14.046,34.66a73.34,73.34,0,0,1-1.689-13.622h15.734v15.778H103.553Q103.277,137.053,103.03,135.957Zm14.046,7.416v15.312a11.435,11.435,0,0,1-3.3-1.9,25.337,25.337,0,0,1-6.158-7.933,44.778,44.778,0,0,1-2.427-5.483Zm8.559,13.416a11.437,11.437,0,0,1-3.3,1.9V143.373h11.884a44.775,44.775,0,0,1-2.426,5.483A25.333,25.333,0,0,1,125.635,156.788Zm-3.3-18.675V122.335h15.734a73.341,73.341,0,0,1-1.689,13.622q-.246,1.1-.523,2.156Zm21-21.038A78.363,78.363,0,0,0,141.28,101.3H154.6q.788,1.492,1.452,3.056a39.067,39.067,0,0,1,3.012,12.723ZM147.6,91.813a39.8,39.8,0,0,1,3.67,4.225h-11.48a44.24,44.24,0,0,0-6.964-13.546q1.127.4,2.233.865a39.321,39.321,0,0,1,12.54,8.456Zm-43.245-8.456q1.106-.468,2.233-.865a44.25,44.25,0,0,0-6.964,13.546H88.143a39.8,39.8,0,0,1,3.67-4.225,39.322,39.322,0,0,1,12.54-8.456ZM91.813,147.6a39.8,39.8,0,0,1-3.67-4.225h11.48a44.243,44.243,0,0,0,6.964,13.546q-1.127-.4-2.234-.865A39.321,39.321,0,0,1,91.813,147.6Zm43.245,8.456q-1.106.468-2.234.865a44.248,44.248,0,0,0,6.964-13.546h11.48a39.8,39.8,0,0,1-3.67,4.225,39.321,39.321,0,0,1-12.54,8.456Z" transform="translate(-75 -75)" fill="#ddd" fill-rule="evenodd"/>
</svg>
