<svg xmlns="http://www.w3.org/2000/svg" xmlns:xlink="http://www.w3.org/1999/xlink" width="1977" height="861" viewBox="0 0 1977 861">
  <defs>
    <clipPath id="clip-path">
      <rect id="Rectangle_2660" data-name="Rectangle 2660" width="861" height="1977" transform="translate(0 0.001)" fill="#f3f3f3"/>
    </clipPath>
  </defs>
  <g id="Group_3936" data-name="Group 3936" transform="translate(-12180.188 -15515) rotate(90)" opacity="0.574">
    <path id="Path_43078" data-name="Path 43078" d="M0,0H860.651V1920H0Z" transform="translate(15515 -14149.188)" fill="#f5f5f5"/>
    <g id="Group_3035" data-name="Group 3035" transform="translate(15515 -14157.188)">
      <g id="Mask_Group_51" data-name="Mask Group 51" transform="translate(0 0)" opacity="0.5" clip-path="url(#clip-path)">
        <path id="Union_12" data-name="Union 12" d="M1438.666,1678.418l20.745-20.83,46.637,46.888L1485.3,1725.3Zm8.51-.633,38.762,38.971,11.6-11.648-38.763-38.968Zm-429.847,31.97,20.745-20.83,46.636,46.888-20.745,20.829Zm8.51-.633,38.762,38.971,11.6-11.647-38.762-38.968Zm-429.847,31.97,20.745-20.83,46.636,46.888-20.745,20.829Zm8.51-.633,38.762,38.971,11.6-11.647L616.1,1728.814Zm-429.847,31.97L195.4,1751.6l46.636,46.888-20.745,20.829Zm8.51-.633,38.762,38.971,11.6-11.647-38.763-38.968ZM1543.8,1686.776l15.277-16.278-13.492-14.11,37.129-37.013,45.927,45.43-20.724,20.279-12.934-13.033-32.239,32.4Zm10.234-30.928,13.351,13.959-15.06,16.051,10.909,10.177,32.388-32.547,12.992,13.1,11.421-11.176-37.944-37.536Zm-431.57,62.265,15.277-16.278-13.493-14.11,37.129-37.013,45.923,45.43-20.72,20.279-12.935-13.033-32.239,32.395Zm10.235-30.928,13.349,13.959-15.064,16.051,10.912,10.177,32.389-32.547,12.992,13.1,11.423-11.175-37.944-37.536ZM701.125,1749.45l15.277-16.278-13.493-14.11,37.129-37.013,45.924,45.431-20.721,20.279-12.935-13.033-32.239,32.4Zm10.235-30.928,13.349,13.959-15.064,16.051,10.914,10.177,32.387-32.546,12.992,13.1,11.421-11.176-37.942-37.536Zm-431.571,62.265,15.277-16.278-13.493-14.11,37.129-37.013,45.924,45.43L343.9,1779.1l-12.935-13.033-32.239,32.395Zm10.235-30.928,13.351,13.959-15.065,16.051,10.914,10.177L331.61,1757.5l12.992,13.1,11.423-11.176-37.944-37.536Zm1359.162-85.093,38-38.149,17.86,17.959-38,38.148Zm8.512-.633,9.986,10.037,28.846-28.962-9.982-10.042ZM1227.85,1696.1l38-38.15,17.86,17.959-38,38.148Zm18.5,9.4,28.846-28.962-9.982-10.042-28.851,28.967Zm-439.833,21.932,37.992-38.149,17.865,17.959-38,38.148Zm18.5,9.4,28.846-28.962-9.986-10.042-28.846,28.966Zm-439.838,21.932,38-38.15,17.86,17.959-37.992,38.148Zm18.5,9.4,28.846-28.962-9.986-10.042-28.846,28.966Zm-439.838,21.933,38-38.15,17.862,17.959-38,38.149Zm18.5,9.4,28.85-28.963L1.2,1760.514-27.65,1789.48Zm1398.253-116.882,100.424-100.824,17.847,17.943-100.721,102.589Zm8.3-.417,10.072,11.311,91.413-93.109-10-10.057Zm-429.638,31.753,100.423-100.824,17.842,17.944L976.8,1733.682Zm8.3-.416,10.072,11.311,91.413-93.109-10-10.057ZM537.914,1745.31l100.423-100.824,17.842,17.944L555.464,1765.019Zm8.3-.416,10.072,11.311L647.7,1663.1l-10-10.057Zm-429.638,31.753L217,1675.822l17.842,17.944L134.123,1796.356Zm8.3-.416,10.072,11.311,91.413-93.109-10-10.057Zm1164.237-85.688,53.09-53.3,31.784,31.956-20.745,20.828-13.923-14-32.345,32.478Zm8.514-.633,9.982,10.038,32.344-32.472,13.924,14,11.6-11.643-23.91-24.041Zm-429.851,31.97,53.09-53.3,31.784,31.956-20.745,20.829-13.923-14-32.345,32.478Zm8.51-.633,9.987,10.037,32.345-32.472,13.923,14,11.6-11.643-23.91-24.041Zm-429.846,31.969,53.089-53.3,31.784,31.957L510.572,1752.7l-13.923-14L464.3,1771.175Zm8.51-.633,9.987,10.037,32.344-32.472,13.924,14,11.6-11.643-23.91-24.041Zm-429.846,31.97,53.09-53.3,31.784,31.956-20.745,20.829-13.923-14-32.345,32.478Zm8.511-.633,9.985,10.038,32.344-32.472,13.924,14,11.6-11.643L77.56,1739.8Zm1438.07-137.012,52.816-53.286,32.394,31.954-21.936,20.832-13.326-13.937-11.123,11.5L1538.393,1672l-20.74,20.821Zm8.512-.656,38.076,38.035,11.607-11.652-27.815-27.963,20.216-20.9,13.519,14.136,12.415-11.793-24.3-23.969Zm-429.848,31.992,52.816-53.286,32.4,31.954-21.937,20.833-13.326-13.938-11.123,11.5,27.878,28.033-20.74,20.821Zm8.513-.656,38.075,38.036,11.608-11.652-27.816-27.963,20.216-20.9,13.519,14.136,12.415-11.793-24.3-23.969Zm-429.85,31.993,52.816-53.286,32.4,31.954-21.937,20.833-13.325-13.938-11.123,11.5,27.879,28.033-20.74,20.821Zm8.511-.656,38.076,38.035,11.607-11.652-27.815-27.963,20.216-20.9,13.519,14.136,12.415-11.793-24.3-23.969Zm-429.848,31.992,52.816-53.286,32.4,31.954-21.937,20.833-13.324-13.938-11.124,11.5,27.879,28.033-20.74,20.821Zm8.513-.656,38.075,38.036,11.607-11.653-27.815-27.963,20.218-20.9,13.517,14.136,12.417-11.793-24.3-23.969Zm1405.441-105.714,37.887-36.979,17.589,19.066-38.113,38.8Zm8.227-.229,10.106,12.157,28.807-29.325-10.1-10.947Zm-429.564,31.566,37.883-36.978,17.594,19.065-38.115,38.8Zm18.333,11.928,28.807-29.325-10.1-10.947-28.809,28.115Zm-439.669,19.409,37.883-36.978,17.594,19.066-38.113,38.8Zm18.333,11.928,28.807-29.325-10.1-10.947-28.809,28.115Zm-439.669,19.409,37.882-36.979,17.594,19.066-38.113,38.8Zm18.333,11.927,28.807-29.325-10.106-10.947-28.807,28.115ZM-63.72,1759.9l37.887-36.979,17.594,19.065-38.113,38.8Zm18.337,11.927,28.8-29.324-10.1-10.948-28.807,28.115Zm1413.111-132.233,20.745-20.824,17.861,17.953-20.745,20.83Zm8.51-.633,9.986,10.042,11.6-11.647-9.987-10.038Zm-98.8,7.348,69.262-69.538,31.784,31.956-20.745,20.829-13.924-14-48.517,48.709Zm8.514-.633,9.982,10.042,48.517-48.709,13.924,14,11.6-11.646-23.91-24.036Zm-339.563,25.255,20.745-20.824L985,1668.056l-20.745,20.83Zm8.51-.633,9.986,10.042,11.6-11.647-9.987-10.037Zm-98.8,7.348,69.262-69.538,31.784,31.956-20.745,20.829-13.923-14L873.965,1695.6Zm8.514-.633,9.982,10.042,48.517-48.709,13.923,14,11.6-11.646-23.91-24.036Zm-339.563,25.255L545.8,1681.44l17.861,17.953-20.745,20.83Zm8.51-.633,9.986,10.042,11.6-11.647-9.987-10.037Zm-98.8,7.348,69.262-69.538,31.784,31.956-20.745,20.829-13.924-14-48.517,48.709Zm8.511-.633,9.985,10.042,48.517-48.709,13.924,14,11.6-11.646-23.91-24.036ZM103.719,1733.6l20.745-20.824,17.861,17.953-20.745,20.83Zm8.51-.633,9.986,10.042,11.6-11.647-9.987-10.037Zm-98.8,7.348,69.262-69.537,31.784,31.956-20.745,20.829-13.924-14-48.517,48.709Zm8.511-.633,9.985,10.042,48.517-48.709,13.924,14,11.6-11.646-23.91-24.036Zm1572.7-133.006,69.262-69.538,45.707,45.954-20.745,20.83-27.847-28-48.517,48.709Zm8.51-.633,9.987,10.042,48.517-48.712,27.847,28,11.595-11.647-37.829-38.034Zm-429.846,31.969,69.262-69.537,45.708,45.954-20.745,20.83-27.847-28-48.517,48.709Zm18.5,9.41,48.517-48.712,27.847,28,11.595-11.647-37.829-38.034-60.116,60.352Zm-439.837,21.928,69.266-69.538,45.707,45.954-20.75,20.831-27.843-28-48.517,48.709Zm18.5,9.409,48.517-48.712,27.842,28,11.6-11.647L820.6,1608.366l-60.116,60.352Zm-439.837,21.928,69.262-69.538L445.6,1677.1l-20.746,20.83-27.847-28-48.517,48.709Zm18.5,9.409,48.517-48.712,27.847,28,11.6-11.647L399.258,1639.7l-60.111,60.351ZM-90.7,1732.025l69.262-69.538,45.709,45.954L3.52,1729.271l-27.847-28-48.517,48.709Zm18.5,9.409,48.517-48.712,27.847,28,11.6-11.647-37.834-38.034-60.111,60.351ZM1358.3,1565.124l20.745-20.829,41.771,41.994,113.206-113.655,59.631,59.953-20.745,20.828-41.77-42-27.772,27.883,10.916,10.972,16.172-16.236,17.861,17.958-36.918,37.066-28.776-28.93-64.689,64.946Zm8.51-.633,51.757,52.037,64.689-64.951,28.776,28.931,27.771-27.88-9.986-10.042-16.173,16.24-18.789-18.892,36.917-37.066,41.771,41.994,11.6-11.643-51.756-52.036-113.206,113.658-41.77-42Zm-429.846,31.97,20.745-20.829,41.771,41.994,113.206-113.655,59.631,59.953-20.746,20.829-41.77-42-27.772,27.883,10.916,10.972,16.172-16.236,17.86,17.958-36.917,37.066-28.776-28.931L996.6,1656.413Zm8.511-.633,51.755,52.038,64.689-64.951,28.776,28.931,27.767-27.88-9.982-10.042-16.172,16.241-18.79-18.892,36.918-37.066,41.77,41.994,11.6-11.643-51.757-52.036L998.846,1626.178l-41.77-42ZM515.63,1627.8l20.745-20.829,41.771,41.994,113.206-113.655,59.631,59.953-20.745,20.829-41.77-42-27.772,27.883,10.916,10.972,16.172-16.236,17.86,17.958-36.917,37.066L639.95,1622.8l-64.689,64.946Zm8.51-.633L575.9,1679.2l64.689-64.951,28.776,28.931,27.767-27.88-9.982-10.042-16.172,16.24-18.789-18.892,36.918-37.066,41.771,41.994,11.6-11.643-51.757-52.036L577.509,1657.515l-41.77-42Zm-429.846,31.97,20.745-20.829,41.771,41.994,113.206-113.655,59.631,59.953L308.9,1647.426l-41.771-42-27.772,27.883,10.913,10.972,16.172-16.236,17.863,17.958-36.92,37.066-28.773-28.931-64.689,64.946Zm8.51-.633,51.757,52.037,64.689-64.951,28.773,28.931,27.77-27.88-9.985-10.042-16.173,16.24-18.786-18.892,36.918-37.066,41.771,41.994,11.595-11.642-51.753-52.036L156.173,1688.852l-41.77-42Zm1433.8-76.547,20.837-20.922,13.085,14.073,33.182-33,17.847,18.292-54.052,51.846Zm8.559-.683,23.033,22.575,44.783-42.957-9.967-10.21-33.277,33.09-13.064-14.051Zm-429.9,32.019,20.837-20.922,13.085,14.073,33.182-33,17.848,18.292-54.053,51.846Zm8.561-.683,23.031,22.574,44.778-42.956-9.962-10.21-33.277,33.09-13.063-14.051Zm-429.9,32.02,20.837-20.922,13.085,14.073,33.182-33,17.847,18.292-54.053,51.846Zm8.561-.683,23.028,22.575,44.781-42.957-9.962-10.21-33.277,33.09-13.067-14.051Zm-429.9,32.02,20.84-20.922,13.085,14.073L339.7,1636.12l17.847,18.292-54.053,51.846Zm8.564-.683,23.028,22.575,44.781-42.957L339,1644.69l-33.277,33.09-13.067-14.051Zm1380.355-162.775,20.745-20.831,59.631,59.953-20.747,20.829Zm8.51-.633,51.756,52.031,11.6-11.643-51.753-52.036Zm-429.851,31.97,20.75-20.831,59.631,59.953L1299.8,1603.8Zm60.267,51.4,11.6-11.643-51.753-52.036-11.6,11.648Zm-481.6-20.061,20.745-20.831,59.631,59.953-20.745,20.828Zm60.267,51.4,11.6-11.643L838.941,1562.9l-11.6,11.647Zm-481.6-20.061,20.745-20.83,59.632,59.953-20.747,20.829Zm60.267,51.4,11.6-11.643L417.6,1594.237l-11.6,11.647Zm-481.6-20.061,20.745-20.83,59.633,59.953L35.79,1697.805Zm60.267,51.4,11.6-11.643-51.757-52.036-11.6,11.647Zm1276.782-134.806,70.338-70.621,31.784,31.953-20.745,20.829-13.924-14-49.592,49.8Zm8.511-.633,9.987,10.039,49.591-49.792,13.923,14,11.6-11.647-23.91-24.036Zm-429.851,31.97,70.341-70.621,31.784,31.953-20.745,20.829-13.924-14-49.6,49.8Zm8.514-.633,9.982,10.04,49.6-49.793,13.923,14,11.6-11.648-23.91-24.036Zm-429.851,31.97,70.341-70.621,31.784,31.953-20.745,20.829-13.924-14-49.6,49.8Zm8.514-.633,9.982,10.039,49.6-49.793,13.923,14,11.6-11.648-23.91-24.036Zm-429.851,31.97,70.341-70.621,31.784,31.953-20.745,20.829-13.924-14-49.6,49.8Zm8.51-.633,9.987,10.039,49.6-49.793,13.924,14,11.6-11.648-23.91-24.036Zm1515.766-158.841,20.745-20.826,59.631,59.953-20.745,20.829Zm60.267,51.4,11.6-11.643-51.757-52.036-11.6,11.643Zm-229.167,6.264,53.09-53.3,17.861,17.954-53.09,53.3Zm8.51-.633,9.987,10.037,43.944-44.119-9.987-10.039Zm-260.946-25.7,20.745-20.826,59.631,59.953-20.745,20.829Zm60.267,51.4L1224,1560.08l-51.753-52.036-11.6,11.643Zm-229.167,6.264,53.09-53.3,17.86,17.955-53.09,53.3Zm8.51-.633,9.987,10.037,43.944-44.119-9.987-10.039Zm-260.946-25.7,20.745-20.826,59.631,59.953-20.745,20.828Zm60.267,51.4,11.595-11.642-51.753-52.036-11.6,11.643ZM561.9,1609.323l53.09-53.3,17.861,17.955-53.09,53.3Zm8.51-.633,9.987,10.037,43.944-44.119-9.987-10.038Zm-260.951-25.7,20.749-20.826,59.631,59.953-20.75,20.829Zm60.267,51.4,11.6-11.643-51.753-52.036-11.6,11.643Zm-229.163,6.264,53.09-53.3,17.861,17.954-53.09,53.3Zm8.51-.633,9.987,10.037L203,1605.945l-9.987-10.038Zm-260.951-25.7,20.745-20.825,59.633,59.953-20.747,20.829Zm8.514-.633,51.753,52.036,11.6-11.643-51.757-52.036ZM1258.59,1497.369l20.75-20.831,45.707,45.955-20.749,20.829Zm8.514-.633,37.829,38.039,11.6-11.648-37.829-38.034Zm-429.851,31.97L858,1507.876l45.707,45.955L882.96,1574.66Zm8.514-.633,37.829,38.039,11.6-11.647-37.834-38.034Zm-429.851,31.97,20.745-20.83,45.708,45.955L461.624,1606Zm8.511-.633,37.832,38.038,11.6-11.647-37.834-38.034ZM-5.42,1591.38l20.745-20.83L61.034,1616.5l-20.747,20.829Zm8.511-.633,37.832,38.038,11.6-11.647L14.689,1579.1Zm1602.7-134.211,36.943-37.09,31.752,31.923-16.173,16.7,14.065,13.594-20.824,19.7Zm8.564-.683L1652.273,1493l11.371-10.76-13.857-13.394,16.247-16.777L1642.1,1428Zm-429.9,32.02,36.943-37.09,31.752,31.923-16.173,16.7L1251.041,1513l-20.824,19.7Zm46.483,36.461,11.371-10.76-13.857-13.394L1244.7,1483.4l-23.938-24.069-27.746,27.855Zm-467.823-5.124,36.946-37.091,31.752,31.923-16.173,16.7,14.065,13.594-20.823,19.7ZM809.6,1555.67l11.371-10.76-13.857-13.394,16.247-16.777-23.938-24.069-27.746,27.855Zm-467.823-5.124,36.942-37.09,31.757,31.923-16.173,16.7,14.065,13.594-20.824,19.7Zm46.487,36.461,11.371-10.76-13.857-13.394,16.247-16.777-23.942-24.068-27.741,27.854Zm-467.823-5.125,36.942-37.09,31.757,31.923-16.173,16.7,14.065,13.594-20.824,19.7Zm46.486,36.462,11.371-10.76-13.857-13.393,16.247-16.777-23.942-24.068L-71,1581.2ZM1469.26,1481.7l20.745-20.83,17.86,17.959-20.745,20.829Zm8.51-.633,9.986,10.042,11.6-11.647-9.987-10.037ZM1367.3,1444.183l20.745-20.83,41.771,41.994,32.344-32.472,17.861,17.957-53.09,53.3Zm8.51-.633,51.757,52.036,43.944-44.121-9.987-10.037-32.345,32.473-41.77-42Zm-84.874,21.345,20.745-20.828,27.847,27.995,16.172-16.236,17.86,17.958-36.917,37.066Zm8.515-.633,37.829,38.039,27.771-27.885-9.986-10.038-16.172,16.238-27.847-28Zm-251.525,48.775,20.745-20.83,17.86,17.959-20.745,20.829Zm8.51-.633,9.986,10.042,11.6-11.647-9.987-10.037ZM945.961,1475.52l20.745-20.83,41.771,41.994,32.345-32.472,17.86,17.957-53.09,53.3Zm8.511-.633,51.755,52.036,43.944-44.12-9.987-10.037-32.345,32.473-41.77-42ZM869.6,1496.233l20.745-20.829L918.19,1503.4l16.172-16.235,17.86,17.957L915.3,1542.187Zm8.514-.633,37.829,38.039,27.772-27.885-9.987-10.038-16.172,16.238-27.847-28Zm-251.525,48.775,20.745-20.83,17.86,17.959-20.745,20.829Zm8.51-.633,9.986,10.042,11.6-11.647L646.7,1532.1Zm-110.472-36.884,20.745-20.83,41.771,41.994,32.344-32.472,17.861,17.957-53.09,53.3Zm8.51-.633,51.757,52.036,43.944-44.121-9.987-10.037L586.5,1536.575l-41.77-42Zm-84.874,21.345,20.745-20.828,27.847,27.995,16.172-16.236,17.86,17.957-36.917,37.066Zm8.511-.633,37.832,38.038,27.772-27.884-9.987-10.038-16.172,16.237-27.847-28ZM205.25,1575.711,226,1554.881l17.86,17.959-20.745,20.829Zm8.51-.633,9.986,10.042,11.6-11.647-9.987-10.038Zm-110.472-36.884,20.745-20.83,41.771,41.994,32.344-32.472,17.861,17.957-53.09,53.3Zm8.51-.633,51.757,52.036,43.944-44.121-9.987-10.037-32.345,32.473-41.77-42Zm-84.874,21.345,20.745-20.829,27.847,28,16.172-16.236,17.86,17.957L72.632,1604.86Zm8.511-.633,37.832,38.039,27.772-27.884-9.987-10.038L74.88,1574.627l-27.847-28Zm1510.188-97.285,69.262-69.539,17.861,17.958-69.262,69.539Zm8.51-.633,9.986,10.04,60.116-60.356L1614.25,1400Zm-429.846,31.969,69.262-69.539,17.861,17.957-69.262,69.539Zm8.51-.633,9.987,10.04,60.115-60.356-9.985-10.042Zm-429.846,31.97,69.262-69.539,17.86,17.958-69.262,69.539Zm8.51-.633,9.987,10.04,60.112-60.356-9.982-10.042ZM281.614,1555l69.262-69.539,17.86,17.957-69.262,69.539Zm8.51-.633,9.986,10.041,60.112-60.356-9.982-10.042Zm1173.647-143.176-32.345,32.477-17.86-17.959,53.09-53.3,73.555,73.95-20.745,20.83Zm56.33,47.443,11.6-11.643-65.681-66.033-43.944,44.119,9.987,10.039,32.345-32.473Zm-477.667-16.106L1010.09,1475l-17.86-17.959,53.09-53.3,73.555,73.95-20.746,20.831Zm56.33,47.443,11.6-11.643-65.681-66.033-43.944,44.119,9.986,10.039,32.345-32.473ZM621.1,1473.863l-32.345,32.478-17.86-17.959,53.09-53.3,73.555,73.95-20.745,20.831Zm56.33,47.443,11.6-11.643-65.681-66.033L579.4,1487.749l9.987,10.039,32.344-32.473ZM199.761,1505.2l-32.345,32.477-17.86-17.959,53.09-53.3,73.555,73.95-20.745,20.83Zm56.33,47.443,11.6-11.643-65.681-66.033-43.944,44.119,9.987,10.039,32.344-32.473ZM1626.485,1379.8l20.745-20.826,58.7,59.019-20.745,20.83Zm8.51-.633,50.828,51.1,11.6-11.644-50.828-51.1Zm-429.847,31.97,20.745-20.826,58.7,59.019-20.745,20.83Zm59.338,50.47,11.6-11.644-50.828-51.1-11.6,11.643Zm-480.679-19.133,20.75-20.826,58.7,59.019-20.745,20.83Zm59.343,50.47,11.6-11.644-50.828-51.1-11.6,11.643Zm-480.679-19.133,20.745-20.826L441.923,1512l-20.745,20.83Zm59.343,50.47,11.595-11.644-50.828-51.1-11.595,11.643Zm-480.679-19.133,20.745-20.826,58.707,59.018-20.75,20.83Zm59.338,50.47,11.6-11.644-50.828-51.1-11.6,11.643ZM1506.1,1388.755l20.745-20.826,27.847,28,11.6-11.648-27.847-28,20.745-20.829,27.847,28,32.344-32.476,17.861,17.957-85.435,85.78Zm8.51-.633,37.833,38.039,76.289-76.594-9.987-10.037L1586.4,1372l-27.847-28-11.6,11.643,27.847,28-20.745,20.829-27.847-27.995Zm-191.333,44.3,16.172-16.236-13.923-14,20.745-20.825,31.784,31.956-36.918,37.066Zm10.763-30.871,13.919,14-16.168,16.235,9.982,10.039,27.771-27.88-23.91-24.04Zm-249.276,18.54,20.745-20.826,27.847,28,11.6-11.648-27.847-28,20.745-20.829,27.847,28,32.345-32.476,17.861,17.957-85.435,85.78Zm8.51-.633,37.833,38.038L1207.4,1380.9l-9.987-10.037-32.344,32.473-27.847-28-11.6,11.643,27.847,28-20.745,20.829-27.847-28Zm-191.333,44.3,16.172-16.236-13.923-14,20.745-20.826,31.784,31.957L919.8,1481.719Zm10.759-30.871,13.923,14-16.172,16.236,9.986,10.039,27.772-27.88-23.91-24.039Zm-249.272,18.539,20.745-20.825,27.847,28,11.6-11.647-27.847-28,20.745-20.829,27.847,28,32.345-32.476,17.86,17.958-85.434,85.779Zm8.51-.633,37.834,38.038,76.284-76.593-9.982-10.038-32.345,32.473-27.847-28-11.6,11.643,27.847,28-20.745,20.829-27.847-28Zm-191.334,44.3,16.172-16.236-13.923-14,20.745-20.826,31.784,31.957-36.917,37.066Zm10.759-30.871,13.923,14-16.172,16.236L499.1,1504.5l27.771-27.88-23.91-24.04Zm-249.272,18.54,20.745-20.826,27.847,28,11.6-11.647-27.843-28,20.745-20.829,27.847,28,32.345-32.476,17.86,17.958L287.8,1528.723Zm8.51-.633,37.833,38.038,76.284-76.594-9.982-10.037-32.344,32.473-27.847-28-11.6,11.643,27.847,28-20.745,20.829-27.847-28Zm-191.334,44.3L75.441,1510.2l-13.923-14,20.745-20.826,31.784,31.956-36.917,37.066Zm10.759-30.871,13.923,14L67.779,1525.8l9.987,10.039,27.771-27.88-23.91-24.04Zm1195.308-88.9,52.015-52.22,17.86,17.959-31.266,31.39,13.923,14-20.75,20.826Zm8.514-.634,23.906,24.04,11.6-11.643-13.923-14,31.27-31.39-9.987-10.039ZM844,1438l52.016-52.22,17.86,17.959-31.266,31.39,13.919,14-20.745,20.826Zm8.515-.634,23.905,24.04,11.6-11.643-13.923-14,31.266-31.39-9.982-10.039Zm-429.851,31.97,52.011-52.22,17.865,17.959-31.268,31.39,13.922,14-20.745,20.826Zm8.511-.633,23.909,24.04,11.6-11.643-13.923-14,31.266-31.39-9.987-10.039ZM1.326,1500.672l52.011-52.22,17.86,17.959L39.933,1497.8l13.923,14L33.11,1532.629Zm8.511-.633,23.908,24.04,11.6-11.643-13.923-14,31.266-31.389L52.7,1457.005Zm1375.882-102.331,36.918-37.066,17.86,17.959-36.917,37.065Zm8.51-.633,9.987,10.042,27.772-27.883L1422,1369.195Zm-429.846,31.97,36.917-37.066,17.86,17.959L982.243,1447Zm8.51-.633,9.986,10.042,27.771-27.883-9.986-10.039Zm-429.846,31.97,36.917-37.066,17.86,17.959-36.917,37.065Zm8.51-.633,9.986,10.042,27.772-27.883-9.986-10.039Zm-429.847,31.969,36.917-37.066,17.86,17.959-36.917,37.065Zm8.51-.633,9.986,10.042,27.772-27.884-9.987-10.039Zm1472.916-199.749,20.745-20.83,13.924,14,32.344-32.473,31.784,31.956-20.782,20.866-13.854-14.469-11.663,12.045,23.955,24.087,32.27-31.932,17.958,17.361-53.126,53.34Zm8.51-.633,65.681,66.033,43.9-44.082-9.964-9.627-32.344,32.006-31.739-31.906,20.761-21.439,13.918,14.538,11.562-11.606-23.91-24.041-32.344,32.473-13.924-14Zm-133.39,70.054,85.434-85.775,45.708,45.954-20.746,20.83-27.847-28-64.689,64.946Zm8.51-.633,9.986,10.042,64.689-64.949,27.847,28,11.6-11.644-37.834-38.037Zm-156.74-18.41,20.745-20.828,45.707,45.954-20.745,20.83Zm8.514-.633,37.829,38.039,11.6-11.647-37.834-38.034Zm-156.74-18.409,20.745-20.83,13.923,14,32.344-32.473,31.784,31.956-20.787,20.866-13.85-14.469-11.663,12.045,23.956,24.087,32.27-31.932,17.958,17.361-53.127,53.34Zm74.191,65.4,43.9-44.081-9.964-9.627-32.344,32.006-31.739-31.906,20.761-21.439,13.918,14.538,11.558-11.606-23.905-24.041-32.344,32.473-13.924-14-11.6,11.647Zm-199.071,4.021,85.434-85.775,45.708,45.954-20.745,20.83-27.847-28-64.689,64.946Zm8.51-.633,9.986,10.042,64.689-64.949,27.847,28,11.6-11.645-37.834-38.037Zm-156.74-18.41,20.745-20.829,45.708,45.954-20.745,20.83Zm8.51-.633,37.833,38.038,11.6-11.648L928.8,1360.777ZM760.462,1354.01l20.745-20.83,13.923,14,32.345-32.473,31.784,31.956-20.787,20.866-13.85-14.469L812.96,1365.1l23.956,24.087,32.27-31.932,17.958,17.361-53.127,53.34Zm74.19,65.4,43.9-44.081-9.964-9.627-32.344,32.005L804.509,1365.8l20.761-21.439,13.918,14.538,11.558-11.605-23.905-24.041L794.5,1355.727l-13.924-14-11.6,11.647Zm-199.071,4.021,85.434-85.775,45.708,45.954-20.745,20.83-27.847-28-64.689,64.946Zm8.51-.633,9.986,10.042,64.689-64.949,27.847,28,11.6-11.644-37.834-38.037Zm-156.74-18.41L508.1,1383.56l45.708,45.954-20.745,20.83Zm8.51-.633,37.833,38.038,11.6-11.647-37.834-38.034Zm-156.74-18.408,20.75-20.831,13.919,14,32.344-32.473L437.92,1378l-20.784,20.866L403.282,1384.4l-11.659,12.045,23.956,24.087,32.27-31.932,17.959,17.361L412.676,1459.3Zm74.191,65.4,43.907-44.082-9.964-9.627-32.344,32.006-31.739-31.906,20.756-21.438,13.922,14.538,11.558-11.606-23.91-24.041-32.345,32.473-13.919-14-11.6,11.647Zm-199.066,4.021,85.434-85.775,45.708,45.954-20.745,20.83-27.847-28-64.689,64.946Zm8.51-.633,9.986,10.042,64.689-64.949,27.847,28,11.595-11.644-37.829-38.037Zm-156.74-18.41L86.76,1414.9l45.708,45.954-20.745,20.83Zm8.51-.633,37.833,38.038,11.6-11.647L86.124,1423.45Zm-156.74-18.408,20.745-20.83,13.923,14L-15.2,1377.38l31.785,31.956L-4.2,1430.2l-13.854-14.469-11.659,12.045,23.956,24.087,32.27-31.932,17.958,17.361-53.131,53.34Zm74.191,65.4L35.878,1438l-9.959-9.627-32.344,32.006-31.739-31.906,20.756-21.438,13.919,14.538,11.561-11.606-23.91-24.041L-48.182,1418.4l-13.924-14-11.6,11.647ZM1434.236,1349l20.745-20.83,17.86,17.959-20.745,20.829Zm8.51-.633,9.987,10.037,11.6-11.643-9.987-10.039ZM1012.9,1380.336l20.746-20.83,17.86,17.959-20.745,20.829Zm8.51-.633,9.987,10.037,11.6-11.643-9.987-10.039Zm-429.847,31.97,20.745-20.83,17.86,17.959-20.745,20.829Zm8.51-.633,9.987,10.037,11.6-11.643-9.987-10.039Zm-429.847,31.97,20.745-20.831,17.86,17.959-20.745,20.829Zm8.51-.633,9.987,10.037,11.6-11.643-9.987-10.039Zm1211.481-105.138,69.262-69.538,45.708,45.954-20.745,20.83-27.847-28-48.517,48.714Zm8.51-.633,9.987,10.039,48.517-48.709,27.847,27.995,11.6-11.643-37.834-38.038Zm-429.846,31.97,69.262-69.538,45.708,45.954-20.745,20.83-27.847-28-48.517,48.714Zm8.51-.633,9.986,10.039,48.517-48.709,27.847,27.995,11.6-11.643-37.833-38.038Zm-429.847,31.97,69.262-69.538,45.707,45.954-20.745,20.83-27.847-28L565.4,1417.871Zm8.51-.633,9.987,10.039,48.517-48.709L642.4,1388.6l11.6-11.643-37.833-38.038Zm-429.846,31.97,69.262-69.537,45.708,45.954-20.745,20.83-27.847-28-48.517,48.714Zm8.51-.633,9.987,10.039,48.517-48.709,27.847,27.995,11.6-11.643-37.833-38.038Zm1213.729-135.371,20.745-20.829,13.924,14,16.172-16.236,17.86,17.958L1380.23,1327.2Zm8.51-.633,23.911,24.036,27.771-27.88-9.986-10.042-16.172,16.237-13.924-14Zm-67.772,6.044,20.745-20.83,30.86,31.023-20.75,20.829Zm8.511-.633,22.98,23.1,11.6-11.643-22.981-23.107Zm-370.585,26.559,20.745-20.829,13.923,14,16.172-16.235,17.861,17.957-36.918,37.066Zm8.512-.633,23.909,24.036L987.3,1322.1l-9.986-10.042L961.142,1328.3l-13.923-14Zm-67.774,6.044,20.745-20.83,30.855,31.024L898.7,1363.015Zm8.51-.633,22.981,23.1,11.6-11.643-22.981-23.106Zm-370.584,26.559,20.745-20.829,13.924,14,16.172-16.236,17.861,17.957-36.918,37.066Zm8.51-.633,23.91,24.036,27.771-27.88-9.986-10.042-16.172,16.237-13.924-14Zm-67.773,6.043,20.745-20.83,30.855,31.024-20.745,20.829Zm8.511-.633L478,1385.8l11.6-11.643-22.981-23.107ZM84.436,1389.255l20.745-20.829,13.924,14,16.172-16.236,17.86,17.957-36.917,37.066Zm8.511-.633,23.909,24.036,27.771-27.88-9.986-10.042-16.172,16.237-13.923-14Zm-67.774,6.044,20.745-20.83,30.857,31.023-20.747,20.829Zm8.511-.633,22.98,23.1,11.6-11.643-22.981-23.107Zm1436.464-138.912,20.745-20.83,46.636,46.891-20.745,20.826Zm47.272,38.338,11.6-11.645-38.763-38.971-11.6,11.644Zm-468.609-7,20.745-20.83,46.636,46.891-20.745,20.825Zm47.272,38.338,11.6-11.644-38.762-38.971-11.6,11.645Zm-468.609-7,20.745-20.83,46.636,46.891-20.745,20.826Zm47.272,38.338,11.6-11.644-38.763-38.971-11.6,11.644Zm-468.609-7,20.745-20.83,46.636,46.891-20.745,20.826Zm47.272,38.338,11.6-11.644-38.762-38.971-11.6,11.644Zm1321.869-123.99,15.277-16.273-13.492-14.114,37.129-37.014,45.926,45.433-20.724,20.281-12.934-13.038-32.239,32.4Zm19.433,9.262L1627.1,1240.2l12.993,13.1,11.421-11.176-37.944-37.533-28.058,27.972,13.35,13.96-15.06,16.049Zm-440.77,22.075,15.277-16.273-13.492-14.115,37.129-37.013,45.923,45.433-20.721,20.281-12.934-13.038-32.239,32.4Zm19.433,9.262,32.389-32.545,12.992,13.1,11.423-11.176-37.944-37.533-28.058,27.971,13.349,13.96-15.063,16.049Zm-440.769,22.075,15.276-16.273-13.492-14.114,37.129-37.013,45.923,45.433-20.721,20.281-12.934-13.038-32.239,32.4Zm19.434,9.262,32.387-32.544,12.992,13.1,11.421-11.176L770.9,1267.258l-28.058,27.971,13.349,13.96-15.063,16.049ZM311.271,1357.49l15.276-16.273L313.055,1327.1l37.129-37.013,45.923,45.433L375.387,1355.8l-12.934-13.038-32.239,32.4Zm19.434,9.262,32.387-32.544,12.992,13.1,11.423-11.176-37.944-37.533-28.058,27.971,13.351,13.96-15.065,16.049Zm1349.963-125.284,38-38.148,17.86,17.959-38,38.148Zm18.5,9.409,28.846-28.965-9.982-10.039-28.85,28.962ZM1259.333,1272.8l38-38.148,17.86,17.959-38,38.148Zm18.5,9.409,28.846-28.965-9.982-10.039-28.85,28.962ZM838,1304.141l37.992-38.148,17.865,17.958-38,38.148Zm18.5,9.409,28.846-28.965-9.986-10.039-28.846,28.962Zm-439.837,21.928,38-38.148,17.86,17.959-37.992,38.148Zm18.5,9.409L464,1315.922l-9.987-10.039-28.846,28.962ZM-4.681,1366.815l38-38.148,17.862,17.959-38,38.148Zm18.5,9.409,28.851-28.965-9.987-10.039L3.833,1366.181Zm1398.253-116.88,100.424-100.825,17.847,17.94-100.721,102.589Zm18.375,10.894,91.413-93.113-10-10.057-91.485,91.855Zm-439.711,20.442,100.423-100.824L1109,1207.8l-100.716,102.589Zm18.374,10.895,91.414-93.113-10-10.058-91.485,91.855ZM569.4,1322.018l100.423-100.825,17.842,17.94L586.947,1341.722Zm18.374,10.895,91.414-93.113-10-10.057L577.7,1321.6ZM148.06,1353.355,248.483,1252.53l17.842,17.94-100.72,102.589Zm18.374,10.895,91.414-93.113-10-10.057-91.485,91.855Zm1154.165-97,53.09-53.3,31.784,31.956-20.745,20.828-13.924-14-32.345,32.472Zm18.5,9.409,32.345-32.476,13.924,14,11.6-11.646-23.91-24.036-43.939,44.116Zm-439.833,21.928,53.09-53.3,31.784,31.956-20.745,20.829-13.924-14-32.344,32.472Zm18.5,9.409,32.345-32.476,13.923,14,11.6-11.646-23.91-24.036-43.944,44.116Zm-439.833,21.928,53.09-53.3,31.784,31.956L542.054,1329.4l-13.924-14-32.344,32.472Zm18.5,9.409,32.345-32.476,13.924,14,11.6-11.646-23.91-24.036-43.944,44.116ZM56.589,1361.256l53.09-53.3,31.784,31.956-20.745,20.829-13.924-14L74.45,1379.214Zm18.5,9.409,32.345-32.476,13.923,14,11.6-11.646-23.91-24.036L65.1,1360.623ZM1503.17,1223.611l52.816-53.282,32.394,31.95-21.936,20.832-13.326-13.934-11.123,11.5,27.879,28.028-20.741,20.825Zm46.588,37.38,11.607-11.652-27.816-27.963,20.216-20.9,13.519,14.136,12.415-11.792-24.3-23.966-43.716,44.1Zm-467.925-6.043,52.816-53.281,32.4,31.95-21.937,20.832-13.326-13.934-11.123,11.5,27.879,28.028-20.74,20.825Zm46.588,37.38,11.608-11.653-27.816-27.963,20.216-20.9,13.519,14.136,12.415-11.792-24.3-23.966-43.715,44.1ZM660.5,1286.285,713.313,1233l32.4,31.949-21.937,20.833-13.326-13.935-11.123,11.5,27.879,28.028-20.74,20.826Zm46.588,37.38,11.607-11.652-27.815-27.963,20.216-20.9,13.519,14.136,12.415-11.792-24.3-23.965-43.716,44.1Zm-467.924-6.043,52.816-53.281,32.4,31.949-21.937,20.833-13.324-13.935-11.124,11.5,27.879,28.028-20.741,20.826ZM285.748,1355l11.607-11.652-27.815-27.963,20.218-20.9,13.517,14.136,12.417-11.793-24.3-23.965-43.715,44.1Zm1367.366-143.749L1691,1174.273l17.589,19.066-38.113,38.8Zm18.333,11.928,28.807-29.322-10.1-10.95-28.81,28.118Zm-439.67,19.409,37.883-36.979,17.594,19.065-38.115,38.8Zm18.333,11.928,28.807-29.323-10.1-10.95L1240,1242.362Zm-439.669,19.409,37.883-36.979,17.594,19.065-38.113,38.8Zm18.333,11.928,28.807-29.323-10.1-10.95-28.81,28.118ZM389.1,1305.263l37.882-36.979,17.594,19.065-38.113,38.8Zm18.333,11.928,28.807-29.322-10.106-10.95-28.807,28.118ZM-32.237,1336.6,5.65,1299.621l17.594,19.065-38.113,38.8Zm18.337,11.927,28.8-29.322-10.1-10.95-28.807,28.118ZM1399.211,1216.3l20.745-20.83,17.86,17.959-20.745,20.829Zm8.51-.633,9.987,10.037,11.6-11.643-9.986-10.042Zm-98.8,7.348,69.262-69.539,31.784,31.957-20.745,20.826-13.924-14-48.517,48.714Zm8.514-.633,9.982,10.038,48.517-48.709,13.924,14,11.6-11.643-23.91-24.039Zm-339.563,25.255,20.745-20.83,17.86,17.959-20.745,20.829Zm8.51-.633,9.987,10.037,11.6-11.643-9.986-10.042Zm-98.8,7.348,69.262-69.539,31.784,31.956-20.745,20.826-13.924-14-48.517,48.714Zm8.514-.633,9.982,10.038,48.517-48.709,13.923,14,11.6-11.643-23.91-24.039Zm-339.563,25.255,20.745-20.83,17.86,17.959L574.4,1296.929Zm8.51-.633,9.987,10.037,11.6-11.643-9.986-10.042Zm-98.8,7.348,69.262-69.539L567.3,1248.1l-20.745,20.826-13.924-14-48.517,48.713Zm8.511-.633,9.985,10.037,48.517-48.709,13.924,14,11.6-11.643-23.91-24.039ZM135.2,1310.309l20.745-20.83,17.86,17.959-20.745,20.829Zm8.51-.633,9.987,10.037,11.6-11.643-9.986-10.042Zm-98.8,7.348,69.262-69.539,31.784,31.957-20.745,20.826-13.923-14-48.517,48.713Zm8.511-.633,9.985,10.037,48.517-48.709,13.924,14,11.6-11.643-23.91-24.039Zm1572.7-133.006,69.262-69.539L1741.1,1159.8l-20.745,20.831-27.847-28-48.517,48.712Zm8.51-.633,9.987,10.038,48.517-48.709,27.847,28,11.595-11.644-37.829-38.037Zm-429.846,31.97,69.262-69.539,45.708,45.954-20.745,20.83-27.847-28-48.517,48.712Zm18.5,9.4,48.517-48.709,27.847,28,11.595-11.644-37.829-38.037-60.116,60.356Zm-439.838,21.933,69.266-69.539,45.707,45.954-20.75,20.831-27.842-28-48.517,48.712Zm18.5,9.4,48.517-48.709,27.843,28,11.6-11.644-37.829-38.037-60.116,60.356ZM362.115,1277.4l69.262-69.539,45.708,45.954-20.745,20.831-27.847-28-48.517,48.712Zm18.5,9.4,48.517-48.709,27.847,28,11.6-11.644-37.833-38.037-60.112,60.356Zm-439.833,21.932,69.262-69.539,45.709,45.954L35,1305.978l-27.847-28-48.517,48.712Zm18.5,9.4,48.517-48.709,27.847,28,11.6-11.644L9.4,1247.743-50.707,1308.1Zm1430.51-176.31L1410.531,1121l41.771,42,113.206-113.66,59.631,59.953-20.745,20.828-41.771-41.994L1534.851,1116l10.916,10.971,16.172-16.237L1579.8,1128.7l-36.917,37.066-28.776-28.931-64.689,64.946Zm8.51-.633,51.757,52.036,64.689-64.945,28.776,28.929,27.772-27.883-9.987-10.039-16.172,16.237-18.789-18.891,36.917-37.066,41.77,42,11.6-11.647-51.755-52.036-113.206,113.658-41.771-41.994Zm-429.846,31.97,20.745-20.829,41.771,42,113.206-113.66,59.631,59.953-20.745,20.829-41.771-41.994-27.772,27.88,10.916,10.971,16.172-16.237,17.86,17.959-36.917,37.066-28.776-28.931-64.689,64.947Zm8.511-.633,51.755,52.036,64.689-64.945,28.776,28.929,27.767-27.883-9.982-10.039-16.172,16.237L1105,1147.974l36.918-37.066,41.77,42,11.6-11.648-51.757-52.036-113.206,113.658-41.771-41.994ZM547.112,1204.5l20.745-20.828,41.77,42L722.834,1112.01l59.631,59.953-20.745,20.828L719.949,1150.8l-27.772,27.88,10.915,10.971,16.172-16.237,17.86,17.959-36.917,37.066-28.776-28.931-64.689,64.947Zm8.51-.633,51.757,52.036,64.689-64.944,28.776,28.929,27.767-27.883-9.982-10.039L702.457,1198.2l-18.789-18.891,36.918-37.066,41.77,42,11.6-11.647L722.2,1120.561,608.992,1234.219l-41.771-41.994Zm-429.846,31.97,20.745-20.829,41.77,42L301.5,1143.347l59.631,59.953-20.745,20.828-41.771-41.994-27.771,27.88,10.913,10.972,16.172-16.237,17.863,17.959-36.92,37.066L250.1,1230.844l-64.689,64.946Zm8.51-.633,51.757,52.036,64.689-64.945,28.773,28.929,27.77-27.883L297.29,1213.3l-16.172,16.237-18.786-18.892,36.918-37.066,41.77,42,11.6-11.647L300.861,1151.9,187.656,1265.555l-41.771-41.994Zm1433.8-76.547,20.837-20.922,13.085,14.076,33.182-32.994,17.848,18.286-54.053,51.847Zm8.56-.684,23.032,22.579,44.783-42.956-9.966-10.213-33.277,33.09-13.064-14.051Zm-429.9,32.021,20.837-20.922,13.085,14.076,33.182-32.994,17.848,18.286-54.053,51.847Zm8.561-.685,23.031,22.579,44.778-42.956-9.962-10.214-33.277,33.09-13.063-14.051Zm-429.9,32.021,20.837-20.922,13.085,14.076,33.182-32.994,17.848,18.286-54.053,51.848Zm8.561-.685L757,1243.226l44.781-42.956-9.962-10.213-33.277,33.09L745.477,1209.1Zm-429.9,32.022,20.84-20.922L338,1245.822l33.182-32.994,17.848,18.286-54.053,51.847Zm8.564-.685,23.028,22.579,44.781-42.956-9.962-10.213-33.277,33.09-13.067-14.051Zm1380.355-162.775,20.745-20.829,59.631,59.953-20.747,20.829Zm8.51-.633,51.756,52.036,11.6-11.645-51.753-52.033Zm-429.851,31.97,20.75-20.829,59.631,59.953-20.749,20.829Zm60.267,51.4,11.6-11.646-51.753-52.033-11.6,11.643Zm-481.6-20.066,20.745-20.829,59.631,59.953-20.745,20.828Zm60.267,51.4,11.6-11.646-51.757-52.033-11.595,11.643Zm-481.6-20.066,20.745-20.829,59.633,59.953-20.747,20.829Zm60.267,51.4,11.6-11.646-51.757-52.033-11.6,11.643Zm-481.6-20.066,20.745-20.829,59.633,59.953-20.747,20.829Zm60.267,51.4,11.6-11.646L27.75,1202.28l-11.6,11.643ZM1344.69,1131.149l70.338-70.621,31.784,31.957-20.745,20.83-13.924-14-49.591,49.792Zm8.511-.633,9.987,10.039,49.591-49.792,13.923,14,11.6-11.644-23.91-24.039Zm-429.851,31.97,70.341-70.621,31.784,31.956-20.746,20.83-13.923-14-49.6,49.793Zm8.514-.633,9.982,10.039,49.6-49.792,13.924,14,11.6-11.644-23.91-24.039Zm-429.851,31.97,70.341-70.621,31.784,31.956-20.745,20.83-13.924-14-49.6,49.792Zm8.514-.633,9.982,10.039,49.6-49.792,13.924,14,11.6-11.644-23.91-24.039ZM80.677,1225.16l70.341-70.621L182.8,1186.5l-20.745,20.83-13.923-14-49.6,49.792Zm8.51-.633,9.987,10.039,49.6-49.792,13.923,14,11.6-11.644-23.91-24.039ZM1604.953,1065.69l20.745-20.83,59.631,59.953-20.745,20.828Zm60.267,51.4,11.6-11.647-51.757-52.036-11.6,11.647Zm-229.167,6.26,53.09-53.3,17.86,17.957-53.09,53.3Zm8.51-.633,9.986,10.042,43.944-44.12-9.986-10.042Zm-260.947-25.693,20.745-20.83,59.631,59.953-20.745,20.829Zm60.267,51.4,11.6-11.647-51.753-52.036-11.6,11.647Zm-229.167,6.26,53.09-53.3,17.86,17.958-53.09,53.3Zm8.51-.633,9.986,10.042,43.944-44.12-9.986-10.042ZM762.28,1128.364l20.745-20.83,59.631,59.953-20.745,20.828Zm60.267,51.4,11.595-11.647-51.753-52.036-11.6,11.647Zm-229.167,6.259,53.09-53.3,17.86,17.957-53.09,53.3Zm8.51-.633,9.986,10.042,43.944-44.12-9.987-10.042ZM340.939,1159.7l20.75-20.831,59.631,59.953-20.75,20.829Zm60.267,51.4,11.6-11.647-51.753-52.036-11.6,11.647Zm-229.162,6.259,53.09-53.3,17.86,17.958-53.09,53.3Zm8.51-.633,9.986,10.042,43.944-44.12L224.5,1172.61ZM-80.4,1191.038l20.745-20.83L-.02,1230.16l-20.747,20.829Zm8.514-.633,51.753,52.036,11.6-11.647-51.757-52.035Zm1361.955-116.33,20.749-20.829,45.708,45.954-20.75,20.831Zm8.514-.633,37.829,38.034,11.6-11.643-37.829-38.039Zm-429.851,31.97,20.745-20.829,45.707,45.954-20.746,20.83Zm8.514-.633,37.829,38.034,11.6-11.643-37.834-38.038ZM447.4,1136.749l20.745-20.829,45.708,45.954L493.106,1182.7Zm8.511-.633,37.832,38.034,11.6-11.643-37.833-38.038Zm-429.848,31.97,20.745-20.829,45.709,45.954-20.747,20.83Zm8.511-.633,37.832,38.034L84,1193.844l-37.833-38.038Zm1602.7-134.211,36.943-37.1,31.752,31.929-16.172,16.7,14.065,13.6-20.823,19.7Zm8.564-.686,37.919,37.148,11.371-10.758-13.857-13.393,16.247-16.782-23.938-24.068Zm-429.9,32.023,36.943-37.095,31.752,31.929-16.172,16.7,14.065,13.6-20.823,19.7Zm46.484,36.462,11.371-10.758-13.857-13.394,16.247-16.782-23.938-24.068-27.746,27.854ZM794.6,1095.915l36.947-37.1,31.752,31.929-16.173,16.7,14.065,13.6-20.823,19.7Zm46.487,36.461,11.371-10.758L838.6,1108.225l16.247-16.782-23.938-24.068-27.746,27.854Zm-467.823-5.125,36.942-37.095,31.756,31.929-16.173,16.7,14.065,13.6-20.823,19.7Zm46.486,36.461,11.371-10.758-13.857-13.393,16.247-16.782-23.942-24.068-27.741,27.854Zm-467.823-5.125,36.942-37.095,31.756,31.929-16.172,16.7,14.065,13.6-20.823,19.7Zm46.486,36.461L9.78,1184.292-4.076,1170.9l16.247-16.782-23.942-24.068L-39.513,1157.9Zm1502.333-136.644,20.745-20.829,17.861,17.958-20.745,20.826Zm8.51-.633,9.986,10.039,11.6-11.645-9.987-10.04Zm-110.472-36.887,20.746-20.83,41.77,42,32.345-32.476,17.86,17.957-53.09,53.3Zm8.51-.633,51.757,52.036,43.944-44.121L1493,1018.131,1460.66,1050.6l-41.77-42Zm-84.874,21.345,20.745-20.828,27.847,28,16.172-16.236,17.861,17.953-36.918,37.066Zm8.515-.633L1368.76,1079l27.772-27.885-9.987-10.038-16.172,16.238-27.847-28Zm-251.525,48.777,20.745-20.829,17.861,17.958-20.745,20.826Zm8.51-.633,9.986,10.039,11.6-11.645-9.986-10.04Zm-110.472-36.887,20.745-20.83,41.77,42,32.345-32.476,17.86,17.958-53.09,53.3Zm8.511-.633,51.755,52.036,43.944-44.121-9.987-10.037-32.345,32.473-41.77-42Zm-84.875,21.346,20.745-20.829,27.847,28,16.173-16.236,17.861,17.953-36.918,37.066Zm8.514-.634,37.829,38.039,27.772-27.885-9.987-10.037-16.173,16.238-27.847-28ZM658.069,1121.08l20.745-20.829,17.86,17.958-20.745,20.826Zm8.51-.633,9.987,10.039,11.6-11.645-9.987-10.04ZM556.107,1083.56l20.745-20.83,41.77,42,32.345-32.476,17.861,17.957-53.09,53.3Zm8.51-.633,51.757,52.036,43.944-44.121-9.987-10.037-32.345,32.473-41.771-42Zm-84.874,21.345,20.745-20.828,27.847,28,16.172-16.236,17.861,17.953-36.917,37.066Zm8.511-.633,37.832,38.038,27.772-27.885-9.987-10.037L527.7,1119.993l-27.847-28Zm-251.522,48.777,20.745-20.829,17.86,17.957-20.745,20.826Zm8.51-.633,9.987,10.039,11.6-11.644-9.987-10.04ZM134.771,1114.9l20.745-20.83,41.77,42,32.345-32.476,17.861,17.957-53.09,53.3Zm8.51-.633,51.757,52.036,43.944-44.12-9.987-10.037-32.344,32.473-41.771-42Zm-84.874,21.345,20.745-20.829,27.847,28,16.172-16.236,17.861,17.953-36.918,37.066Zm8.511-.633,37.832,38.039,27.772-27.885-9.987-10.037-16.172,16.237-27.847-28Zm1510.188-97.287,69.262-69.538,17.861,17.957-69.262,69.539Zm8.51-.633,9.986,10.042,60.116-60.356-9.987-10.037Zm-429.846,31.97,69.261-69.538,17.861,17.957-69.262,69.539Zm8.51-.633,9.986,10.042,60.115-60.356-9.985-10.038Zm-429.846,31.97,69.262-69.538,17.86,17.958-69.262,69.539Zm8.51-.633,9.986,10.042,60.112-60.356-9.982-10.038ZM313.1,1131.7l69.262-69.538,17.86,17.958-69.262,69.539Zm8.51-.633,9.986,10.042,60.112-60.356-9.982-10.038ZM1495.253,987.9l-32.345,32.473-17.86-17.959,53.09-53.3,73.555,73.95-20.745,20.829Zm56.33,47.443,11.6-11.647L1497.5,957.659l-43.944,44.119,9.987,10.039,32.344-32.473Zm-477.667-16.106-32.345,32.474-17.86-17.959,53.09-53.3,73.555,73.95-20.745,20.829Zm56.33,47.443,11.6-11.647L1076.166,989l-43.944,44.119,9.987,10.039,32.344-32.473ZM652.58,1050.57l-32.344,32.473-17.86-17.959,53.09-53.3,73.555,73.95-20.745,20.829Zm56.33,47.443,11.6-11.647-65.681-66.033-43.944,44.119,9.987,10.039,32.344-32.473Zm-477.667-16.106L198.9,1114.38l-17.86-17.959,53.09-53.3,73.555,73.95L286.938,1137.9Zm56.33,47.443,11.6-11.647-65.681-66.033-43.944,44.119,9.987,10.039,32.345-32.473ZM1657.968,956.509l20.745-20.831,58.7,59.019-20.745,20.83Zm8.51-.633,50.828,51.1,11.6-11.647-50.828-51.1Zm-429.846,31.97,20.745-20.83,58.7,59.018-20.745,20.83Zm59.338,50.468,11.6-11.647-50.828-51.1-11.6,11.647ZM815.29,1019.183l20.75-20.831,58.7,59.018L874,1078.2Zm59.343,50.468,11.6-11.647L835.4,1006.9l-11.6,11.647ZM393.953,1050.52l20.745-20.83,58.707,59.018-20.745,20.83Zm59.343,50.468,11.595-11.647-50.828-51.1-11.6,11.647Zm-480.679-19.131,20.745-20.831,58.707,59.018-20.75,20.83Zm59.338,50.468,11.6-11.647-50.828-51.1-11.6,11.647Zm1505.63-166.864,20.745-20.829,27.847,28,11.6-11.645-27.847-27.995,20.745-20.83,27.847,28,32.344-32.473,17.861,17.959-85.434,85.775Zm8.51-.633,37.834,38.035,76.288-76.589-9.986-10.042-32.345,32.474-27.847-28-11.6,11.647,27.847,27.995-20.745,20.83-27.847-28Zm-191.333,44.3,16.172-16.236-13.923-14,20.745-20.829,31.784,31.956-36.918,37.066Zm10.763-30.868,13.919,14-16.168,16.235,9.982,10.039,27.771-27.88-23.91-24.039ZM1116.248,996.8l20.745-20.829,27.847,28,11.6-11.644-27.847-27.995,20.745-20.83,27.847,28,32.344-32.473,17.86,17.959-85.434,85.775Zm8.51-.633,37.834,38.035,76.288-76.589-9.987-10.042-32.344,32.473-27.847-28-11.6,11.647,27.847,28-20.745,20.83-27.847-28Zm-191.333,44.3,16.172-16.236-13.923-14L956.418,989.4l31.784,31.956-36.918,37.067Zm10.758-30.867,13.923,14-16.172,16.236,9.987,10.039,27.772-27.88-23.91-24.039Zm-249.272,18.539,20.745-20.829,27.847,28,11.6-11.644-27.847-28L748,974.833l27.847,28,32.344-32.473,17.86,17.959-85.434,85.775Zm8.51-.633,37.834,38.035,76.284-76.589-9.982-10.042-32.344,32.473-27.847-28-11.6,11.647,27.847,27.995-20.745,20.83-27.847-28Zm-191.333,44.3,16.172-16.236-13.924-14,20.745-20.829,31.784,31.957-36.917,37.066Zm10.759-30.868,13.923,14L520.6,1071.167l9.987,10.039,27.772-27.88-23.91-24.039Zm-249.272,18.54,20.745-20.829,27.847,28,11.595-11.644-27.843-28,20.745-20.83,27.847,28,32.345-32.473,17.86,17.959-85.434,85.775Zm8.51-.633,37.834,38.035,76.284-76.589-9.982-10.042-32.344,32.473-27.847-28-11.6,11.647,27.847,27.995-20.745,20.83-27.847-28Zm-191.333,44.3,16.172-16.236L93,1072.9l20.745-20.829,31.784,31.956L108.612,1121.1Zm10.759-30.867,13.923,14L99.261,1102.5l9.987,10.039,27.771-27.88-23.91-24.039Zm1195.308-88.9,52.016-52.219,17.86,17.957-31.266,31.39,13.923,14-20.75,20.829Zm8.514-.633,23.906,24.037,11.6-11.643-13.923-14,31.27-31.39L1348.2,939.7ZM875.482,1014.7,927.5,962.486l17.86,17.957-31.266,31.389,13.919,14-20.745,20.829Zm8.514-.633,23.906,24.037,11.6-11.643-13.924-14,31.266-31.39-9.982-10.042Zm-429.851,31.97,52.011-52.218,17.865,17.957-31.268,31.39,13.922,14L485.929,1078Zm8.511-.633,23.909,24.036,11.6-11.643-13.923-14,31.266-31.389-9.986-10.042Zm-429.848,31.97,52.011-52.218,17.86,17.958-31.264,31.389,13.924,14-20.747,20.829Zm8.511-.633,23.909,24.036,11.6-11.643-13.923-14,31.266-31.39-9.986-10.042ZM1417.2,974.414l36.917-37.065,17.86,17.958-36.918,37.066Zm8.51-.633,9.987,10.039,27.771-27.88-9.986-10.042Zm-429.846,31.97,36.917-37.065,17.86,17.957-36.917,37.066Zm8.51-.633,9.987,10.039,27.772-27.88-9.986-10.042Zm-429.846,31.97,36.917-37.065,17.86,17.958-36.918,37.066Zm8.51-.633,9.987,10.039,27.771-27.88-9.986-10.042Zm-429.846,31.97,36.917-37.065,17.861,17.958-36.918,37.066Zm8.51-.633,9.987,10.039,27.771-27.88-9.986-10.042ZM1634.618,868.04l20.745-20.83,13.924,14,32.344-32.473,31.784,31.957-20.782,20.866-13.854-14.47-11.664,12.047,23.956,24.086,32.27-31.932L1761.3,888.65l-53.127,53.341Zm8.51-.633,65.681,66.033,43.9-44.078-9.963-9.631-32.344,32.01-31.738-31.909,20.76-21.436,13.918,14.535,11.562-11.606L1701,837.289l-32.344,32.473-13.924-14Zm-133.391,70.059,85.434-85.779,45.708,45.954-20.745,20.83-27.847-28L1527.6,955.421Zm8.51-.633,9.986,10.038,64.689-64.949,27.847,28,11.6-11.647-37.834-38.034Zm-156.74-18.414,20.745-20.829,45.707,45.958-20.745,20.826Zm8.514-.633,37.829,38.038,11.6-11.643-37.833-38.038Zm-156.74-18.409,20.745-20.83,13.924,14,32.344-32.473,31.784,31.956-20.787,20.866-13.85-14.471-11.664,12.047,23.956,24.086L1322,902.626l17.958,17.361-53.127,53.341Zm74.19,65.4,43.9-44.078-9.963-9.631-32.344,32.01-31.738-31.909,20.76-21.436,13.918,14.535,11.558-11.606-23.906-24.036L1247.314,901.1l-13.924-14-11.6,11.644ZM1088.4,968.8l85.434-85.779,45.708,45.954-20.745,20.83-27.847-28-64.689,64.947Zm8.51-.633,9.986,10.038,64.689-64.949,27.847,28,11.6-11.647L1173.2,891.576Zm-156.74-18.414,20.745-20.829,45.707,45.958-20.745,20.826Zm8.51-.633,37.833,38.038,11.6-11.643L960.28,937.48ZM791.945,930.714l20.745-20.83,13.923,14,32.345-32.473,31.784,31.956-20.787,20.866-13.85-14.471-11.663,12.047L868.4,965.895l32.27-31.932,17.959,17.361L865.5,1004.664Zm74.191,65.4,43.9-44.079-9.964-9.631-32.344,32.01L835.992,942.5l20.76-21.436L870.67,935.6,882.228,924l-23.906-24.036-32.344,32.473-13.923-14-11.6,11.644Zm-199.071,4.026L752.5,914.36l45.708,45.954-20.745,20.83-27.847-28-64.689,64.947Zm8.51-.633,9.987,10.037,64.689-64.949,27.847,28,11.6-11.647-37.834-38.034Zm-156.74-18.414,20.745-20.829,45.707,45.958-20.745,20.826Zm8.51-.633,37.834,38.038,11.6-11.643-37.833-38.038ZM370.6,962.051l20.75-20.831,13.919,14,32.344-32.473L469.4,954.7l-20.784,20.866L434.765,961.1l-11.659,12.046,23.956,24.086,32.27-31.932L497.29,982.66,444.159,1036Zm74.191,65.4L488.7,983.372l-9.963-9.631-32.344,32.01-31.738-31.909,20.756-21.435,13.922,14.535,11.558-11.606L436.981,931.3l-32.344,32.473-13.919-14-11.6,11.644Zm-199.067,4.025L331.162,945.7l45.708,45.954-20.745,20.83-27.847-28-64.689,64.946Zm8.51-.633,9.987,10.038,64.689-64.949,27.847,28,11.595-11.647L330.526,954.25ZM97.5,1012.429,118.243,991.6l45.707,45.958-20.745,20.826Zm8.51-.633,37.833,38.038,11.6-11.643-37.833-38.038Zm-156.74-18.408,20.745-20.83,13.923,14,32.344-32.473L48.066,986.04l-20.784,20.866-13.854-14.47L1.769,1004.482l23.956,24.086,32.27-31.932L75.953,1014l-53.131,53.341Zm74.191,65.4,43.9-44.079-9.959-9.632-32.344,32.01-31.738-31.909,20.756-21.435,13.919,14.535,11.561-11.606-23.91-24.036L-16.7,995.109l-13.924-14-11.595,11.644ZM1465.719,925.7l20.745-20.826,17.86,17.954-20.745,20.829Zm8.51-.633,9.986,10.042,11.6-11.647-9.987-10.039Zm-429.847,31.97,20.745-20.826,17.861,17.954L1062.242,975Zm8.51-.633,9.986,10.042,11.6-11.647-9.986-10.039Zm-429.847,31.97L643.79,967.55,661.651,985.5l-20.745,20.829Zm8.51-.633,9.986,10.042,11.6-11.647L643.154,976.1Zm-429.846,31.97,20.745-20.826,17.861,17.955-20.745,20.829Zm8.51-.633,9.986,10.042,11.6-11.647-9.987-10.039ZM1421.7,913.942l69.262-69.538,45.707,45.954-20.745,20.829-27.847-27.995L1439.559,931.9Zm8.51-.633,9.986,10.042,48.517-48.713,27.847,28,11.6-11.647-37.834-38.034Zm-429.846,31.97,69.262-69.538,45.707,45.954-20.745,20.829-27.847-27.995-48.517,48.709Zm8.51-.633,9.986,10.042,48.517-48.714,27.847,28,11.6-11.647-37.833-38.034Zm-429.847,31.97,69.262-69.538L694,953.032,673.25,973.861l-27.847-28-48.517,48.709Zm8.51-.633,9.986,10.042,48.517-48.713,27.847,28,11.6-11.647-37.834-38.034Zm-429.847,31.97,69.262-69.538,45.708,45.954L251.914,1005.2,224.066,977.2l-48.517,48.709Zm8.51-.633,9.986,10.042L224.7,968.648l27.847,28L264.149,985l-37.834-38.034ZM1379.928,871.948l20.745-20.829,13.924,14,16.172-16.236,17.86,17.958L1411.713,903.9Zm8.51-.633,23.91,24.036,27.771-27.88-9.987-10.037-16.172,16.236-13.924-14Zm-67.773,6.044,20.745-20.83,30.859,31.023-20.75,20.829Zm8.511-.633,22.98,23.1,11.6-11.643-22.981-23.107ZM958.592,903.285l20.746-20.829,13.923,14,16.172-16.236,17.86,17.958-36.918,37.066Zm8.511-.633,23.909,24.036,27.772-27.88-9.987-10.037-16.172,16.236-13.924-14ZM899.329,908.7l20.745-20.83,30.855,31.024-20.745,20.829Zm8.51-.633,22.981,23.1,11.6-11.643-22.981-23.107ZM537.255,934.622,558,913.793l13.924,14L588.1,911.555l17.861,17.958-36.917,37.066Zm8.51-.633,23.91,24.036,27.771-27.88-9.987-10.037-16.172,16.236-13.924-14Zm-67.773,6.044,20.745-20.83,30.855,31.024-20.745,20.829Zm8.511-.633,22.98,23.1,11.6-11.643L498.1,927.752ZM115.919,965.958l20.745-20.829,13.924,14,16.172-16.236,17.86,17.958L147.7,997.915Zm8.511-.633,23.909,24.036,27.772-27.88-9.987-10.037L149.951,967.68l-13.924-14ZM56.656,971.37,77.4,950.539l30.857,31.023-20.747,20.829Zm8.511-.633,22.98,23.1,11.6-11.643L76.765,959.089ZM1501.631,831.827,1522.376,811l46.636,46.887-20.745,20.83Zm47.273,38.334,11.6-11.643-38.763-38.971-11.6,11.647Zm-468.609-7,20.745-20.829,46.637,46.887-20.745,20.83Zm47.273,38.333,11.6-11.643L1100.4,850.884l-11.6,11.647Zm-468.609-7L679.7,873.672l46.636,46.887-20.745,20.83Zm47.273,38.334,11.6-11.643-38.762-38.971-11.6,11.647Zm-468.609-7,20.745-20.829L305,951.9l-20.745,20.83Zm47.273,38.334,11.6-11.643-38.762-38.971-11.6,11.647ZM1606.763,840.187l15.277-16.278L1608.548,809.8l37.129-37.016,45.926,45.433L1670.879,838.5l-12.934-13.04-32.24,32.4Zm19.433,9.257,32.388-32.545,12.992,13.1L1683,818.82l-37.944-37.533L1617,809.259l13.351,13.96-15.06,16.049Zm-440.77,22.079,15.277-16.278-13.492-14.112,37.129-37.016,45.923,45.433-20.721,20.281-12.934-13.04-32.24,32.4Zm19.433,9.258,32.389-32.545,12.992,13.1,11.423-11.179-37.944-37.533L1195.662,840.6l13.349,13.96L1193.948,870.6ZM764.09,902.861l15.277-16.278-13.493-14.112L803,835.455l45.923,45.433-20.721,20.281-12.934-13.04-32.239,32.4Zm19.434,9.257,32.387-32.545,12.992,13.1,11.422-11.179-37.942-37.533-28.058,27.971,13.349,13.96-15.063,16.049ZM342.754,934.2,358.03,917.92l-13.493-14.112,37.13-37.016,45.923,45.433L406.87,932.506l-12.934-13.039-32.239,32.4Zm19.435,9.257,32.387-32.545,12.992,13.1,11.423-11.179L381.047,875.3l-28.058,27.972,13.351,13.96-15.065,16.049Zm514.905-54.986,37.993-38.149,17.865,17.959-38,38.144Zm8.511-.633,9.985,10.038,28.847-28.962-9.986-10.042Zm826.546-69.661,38-38.148,17.861,17.958-38,38.145Zm18.5,9.4,28.846-28.962-9.982-10.042-28.85,28.966Zm-439.833,21.932,38-38.148,17.86,17.958-38,38.145Zm18.5,9.4,28.846-28.962-9.982-10.042-28.851,28.967Zm-861.174,53.27,38-38.148,17.861,17.958L466,930.14Zm18.5,9.4,28.846-28.962L485.5,882.586l-28.846,28.966ZM26.8,943.522l38-38.148,17.862,17.957-38,38.145Zm18.5,9.4,28.85-28.962-9.986-10.042L35.315,942.889Zm1398.253-116.88,100.424-100.826,17.847,17.941L1461.1,855.754Zm18.375,10.893,91.413-93.109-10-10.056-91.485,91.85Zm-439.711,20.444,100.423-100.826,17.842,17.941L1039.765,887.091Zm18.374,10.893L1132,785.168l-10-10.056-91.485,91.85ZM600.879,898.721,701.3,797.895l17.842,17.941L618.429,918.428Zm18.374,10.893,91.413-93.109-10-10.056L609.181,898.3ZM179.542,930.058,279.966,829.232l17.842,17.941L197.088,949.765Zm18.374,10.893,91.413-93.109-10-10.056-91.485,91.85Zm1154.165-97,53.09-53.3,31.784,31.956-20.745,20.826-13.924-14-32.345,32.478Zm18.5,9.406,32.345-32.473,13.924,14,11.6-11.643-23.91-24.039L1360.6,843.318ZM930.745,875.288l53.09-53.3,31.784,31.956-20.745,20.826-13.923-14-32.345,32.478Zm18.5,9.406,32.344-32.473,13.924,14,11.6-11.643L983.2,830.536l-43.944,44.119ZM509.408,906.625l53.09-53.3,31.784,31.956-20.745,20.826-13.924-14-32.345,32.478Zm18.5,9.406,32.344-32.473,13.924,14,11.6-11.643-23.91-24.039-43.944,44.119ZM88.071,937.962l53.09-53.3,31.784,31.956L152.2,937.442l-13.923-14-32.345,32.478Zm18.5,9.406L138.912,914.9l13.924,14,11.6-11.643-23.91-24.039L96.583,937.329ZM1534.653,800.314l52.816-53.281,32.394,31.953-21.936,20.833L1584.6,785.88l-11.123,11.5,27.879,28.031-20.74,20.823ZM1581.24,837.7l11.607-11.653-27.815-27.963,20.217-20.9,13.519,14.136,12.415-11.788-24.3-23.968-43.716,44.1Zm-467.924-6.046,52.816-53.282,32.4,31.953-21.937,20.833-13.326-13.938-11.123,11.5,27.879,28.031-20.74,20.823Zm46.587,37.383,11.607-11.653L1143.7,829.419l20.217-20.9,13.519,14.136,12.415-11.788-24.3-23.968-43.715,44.1ZM691.98,862.988,744.8,809.707l32.4,31.953-21.937,20.833-13.326-13.938-11.123,11.5,27.879,28.031-20.74,20.823Zm46.587,37.383,11.607-11.653-27.815-27.963,20.216-20.9,13.519,14.136L768.51,842.2l-24.3-23.968-43.716,44.1Zm-467.924-6.046,52.816-53.282L355.855,873l-21.937,20.833-13.324-13.938-11.124,11.5,27.879,28.031-20.74,20.823Zm46.588,37.383,11.607-11.653-27.815-27.963,20.218-20.9,13.517,14.136,12.417-11.789-24.3-23.968-43.715,44.1Zm524.693-81.074,37.883-36.98,30.651,32.129L873.6,883.312Zm9.49-1.495,23.16,25.222L902.119,846.3l-23.159-24.01ZM1684.6,787.96l37.887-36.98,17.589,19.066-38.113,38.794Zm18.333,11.926,28.807-29.325-10.1-10.947-28.809,28.115ZM1263.26,819.3l37.883-36.98,17.594,19.065-38.114,38.794Zm18.333,11.926L1310.4,801.9l-10.1-10.947-28.809,28.115ZM420.587,881.97l37.883-36.98,17.594,19.065L437.95,902.849ZM438.919,893.9l28.808-29.325L457.62,853.625l-28.807,28.115ZM-.755,913.307l37.887-36.98,17.594,19.065L16.613,934.186Zm18.337,11.926,28.8-29.325-10.1-10.947L7.477,913.076Zm909.1-86.561,69.262-69.538,31.784,31.956-20.745,20.829-13.923-14-48.517,48.709Zm8.514-.633,9.982,10.042L993.7,799.368l13.923,14,11.6-11.643-23.91-24.036ZM1430.694,793l20.745-20.83,17.86,17.959-20.745,20.829Zm8.51-.633,9.987,10.042,11.6-11.647-9.987-10.039Zm-98.8,7.348,69.262-69.539,31.784,31.956-20.745,20.829-13.924-14-48.516,48.709Zm8.514-.633,9.982,10.042,48.517-48.713,13.924,14,11.6-11.643-23.91-24.036Zm-339.564,25.255,20.745-20.83,17.86,17.959L1027.218,842.3Zm8.51-.633,9.986,10.042,11.6-11.647-9.986-10.039Zm-429.846,31.97,20.745-20.83,17.86,17.959-20.745,20.829Zm8.51-.633,9.986,10.042,11.6-11.647L608.13,843.4Zm-98.8,7.348L567,792.851l31.784,31.956-20.745,20.829-13.924-14-48.517,48.709Zm8.511-.633L516.23,871.8l48.517-48.713,13.924,14,11.6-11.643L566.359,801.4ZM166.684,887.012l20.745-20.83,17.86,17.959-20.745,20.829Zm8.51-.633,9.986,10.042,11.6-11.647-9.987-10.039Zm-98.8,7.348,69.262-69.539,31.784,31.956L156.7,876.973l-13.924-14L94.257,911.684Zm8.511-.633,9.985,10.042,48.517-48.713,13.924,14,11.6-11.643-23.91-24.036ZM881.316,792.01,832.8,840.719l-17.865-17.957L884.2,753.223l59.852,60.106L923.3,834.159Zm42.623,33.6,11.6-11.647-51.974-52.189-60.116,60.356,9.986,10.042,48.517-48.713Zm733.673-65.521,69.262-69.539,45.707,45.955-20.745,20.829-27.847-28-48.517,48.709Zm8.51-.633,9.987,10.042,48.517-48.713,27.847,28,11.595-11.646L1726.238,699.1Zm-429.846,31.97,69.262-69.539,45.707,45.955L1330.5,788.67l-27.847-28-48.517,48.709Zm18.5,9.409,48.517-48.713,27.847,28,11.595-11.645L1304.9,730.436l-60.116,60.356ZM393.6,854.1l69.262-69.539,45.708,45.955-20.745,20.829-27.847-28-48.517,48.709Zm18.5,9.409,48.517-48.713,27.847,28,11.6-11.646L462.224,793.11l-60.112,60.356ZM-27.739,885.436,41.523,815.9l45.709,45.955L66.485,882.681l-27.847-28L-9.879,903.393Zm18.5,9.409,48.517-48.714,27.847,28,11.6-11.646L40.887,824.447-19.225,884.8Zm1430.511-176.31,20.745-20.83,41.771,41.994L1596.99,626.04,1656.621,686l-20.745,20.826L1594.1,664.828l-27.772,27.883,10.916,10.972,16.172-16.236,17.861,17.958-36.917,37.066-28.776-28.934L1480.9,778.486Zm8.51-.633,51.757,52.031,64.689-64.945L1575,733.917l27.772-27.88L1592.785,696l-16.172,16.237-18.79-18.889,36.917-37.065,41.771,41.994,11.6-11.644-51.755-52.036-113.206,113.66-41.77-42Zm-429.846,31.97,20.745-20.83,41.771,41.994,113.206-113.658,59.631,59.956-20.745,20.826-41.771-41.994L1145,724.048l10.916,10.972,16.172-16.236,17.861,17.958-36.917,37.066-28.776-28.934-64.689,64.949Zm8.511-.633L1060.2,801.27l64.689-64.945,28.776,28.929,27.767-27.88-9.982-10.042-16.172,16.237-18.79-18.889,36.918-37.065,41.771,41.994,11.6-11.644-51.757-52.036-113.206,113.66-41.771-42Zm-429.848,31.97,20.745-20.83,41.771,41.994L754.316,688.714l59.631,59.956L793.2,769.495,751.432,727.5,723.66,755.385l10.916,10.972,16.172-16.236,17.86,17.958-36.917,37.066L702.915,776.21l-64.689,64.949Zm8.51-.633,51.757,52.031,64.689-64.945,28.776,28.929,27.767-27.88-9.982-10.042L733.94,774.906l-18.79-18.889,36.917-37.065,41.771,41.994,11.6-11.644L753.68,697.267,640.474,810.926l-41.77-42Zm-429.846,31.97L178,791.715l41.771,41.994L332.98,720.05l59.631,59.956-20.745,20.826L330.1,758.838l-27.772,27.883,10.913,10.972,16.172-16.236,17.863,17.957-36.92,37.066-28.773-28.934L216.889,872.5Zm8.51-.633,51.757,52.031L282.214,799l28.773,28.929,27.77-27.88-9.985-10.042L312.6,806.243l-18.787-18.889,36.917-37.065L372.5,792.283,384.1,780.64,332.344,728.6,219.138,842.263l-41.77-42Zm1433.8-76.549,20.837-20.92,13.085,14.072,33.182-32.994,17.848,18.29-54.052,51.843Zm8.56-.683,23.033,22.574,44.783-42.956-9.966-10.213L1632.7,737.179l-13.064-14.049Zm-429.9,32.02,20.837-20.921,13.085,14.072,33.182-32.994,17.848,18.29-54.052,51.843Zm8.561-.683,23.031,22.575,44.778-42.956-9.962-10.214-33.277,33.093-13.063-14.05Zm-429.9,32.02,20.837-20.921,13.085,14.072L824,758.194l17.848,18.29-54.052,51.843Zm8.561-.683,23.028,22.575,44.781-42.956L823.3,766.759l-33.277,33.093L776.959,785.8Zm-429.9,32.02,20.84-20.921,13.085,14.072,33.182-32.994,17.848,18.29-54.052,51.843Zm8.564-.683,23.028,22.575,44.781-42.956L401.967,798.1,368.69,831.189,355.623,817.14ZM881.8,728.586l20.745-20.824,73.775,74.1-20.745,20.829Zm8.515-.633,65.9,66.188,11.6-11.643-65.9-66.188Zm834.163-62.041,20.745-20.824,59.631,59.951-20.747,20.83Zm8.51-.633,51.756,52.036,11.6-11.643-51.753-52.036Zm-429.851,31.97,20.75-20.825,59.631,59.951-20.749,20.83Zm60.267,51.4,11.6-11.643-51.753-52.036-11.6,11.643ZM460.46,759.922,481.205,739.1l59.633,59.951-20.747,20.83Zm60.267,51.4,11.6-11.643L480.57,747.647l-11.6,11.643Zm-481.6-20.066,20.745-20.824L119.5,830.386l-20.747,20.83Zm60.267,51.4,11.6-11.643L59.233,778.983l-11.6,11.643Zm1276.782-134.8,70.338-70.625,31.784,31.956-20.745,20.829-13.924-14-49.591,49.792Zm8.511-.633,9.987,10.037,49.591-49.792,13.923,14,11.6-11.647-23.91-24.036Zm-429.851,31.97,70.341-70.626,31.784,31.956-20.745,20.829-13.924-14-49.6,49.792Zm8.514-.633,9.982,10.038,49.6-49.792,13.924,14,11.6-11.647-23.91-24.036ZM533.5,770.531l70.341-70.626,31.784,31.956-20.745,20.829-13.924-14-49.6,49.792Zm8.514-.633,9.982,10.038,49.6-49.793,13.924,14,11.6-11.647L603.2,708.458ZM112.16,801.868,182.5,731.242,214.285,763.2,193.54,784.027l-13.924-14-49.6,49.792Zm8.51-.633,9.987,10.037,49.6-49.792,13.923,14,11.6-11.647L181.865,739.8ZM1636.436,642.394l20.745-20.83,59.631,59.956-20.745,20.826Zm60.267,51.4,11.6-11.644-51.757-52.036-11.6,11.644Zm-229.167,6.263,53.09-53.3,17.86,17.958-53.09,53.3Zm8.51-.633,9.987,10.039,43.944-44.12-9.987-10.038ZM1215.1,673.73l20.745-20.83,59.631,59.956-20.745,20.826Zm60.267,51.4,11.595-11.644-51.753-52.036-11.6,11.645ZM1046.2,731.4l53.09-53.3,17.86,17.957-53.09,53.3Zm8.51-.633L1064.7,740.8l43.944-44.12-9.987-10.038Zm-260.947-25.7,20.745-20.831,59.631,59.956-20.745,20.825Zm60.267,51.4,11.595-11.644L813.872,692.79l-11.6,11.644Zm-229.167,6.263,53.09-53.3,17.861,17.957-53.09,53.3Zm8.51-.633,9.986,10.039,43.944-44.12-9.987-10.037ZM372.422,736.4l20.75-20.831L452.8,775.529l-20.749,20.826Zm60.267,51.4,11.6-11.644-51.753-52.036-11.6,11.645Zm-229.163,6.262,53.09-53.3,17.861,17.957-53.09,53.3Zm8.51-.633,9.987,10.039,43.944-44.12-9.987-10.037Zm-260.951-25.7,20.745-20.83,59.632,59.956L10.716,827.692Zm8.514-.633,51.753,52.036,11.6-11.644-51.757-52.036Zm1361.955-116.33,20.749-20.829,45.708,45.954-20.749,20.829Zm8.514-.633,37.829,38.038,11.6-11.647L1341.668,638.5Zm-429.851,31.97,20.745-20.829,45.708,45.954-20.745,20.829Zm8.514-.633,37.829,38.039,11.6-11.647-37.834-38.034Zm-429.851,31.97,20.745-20.829,45.708,45.954-20.745,20.829Zm8.511-.633,37.832,38.038,11.6-11.647L498.99,701.176ZM57.545,744.789,78.29,723.96,124,769.914l-20.747,20.829Zm8.511-.633,37.832,38.038,11.6-11.647L77.654,732.513Zm1602.7-134.211,36.943-37.09,31.752,31.923-16.173,16.7,14.065,13.6-20.823,19.7Zm8.564-.683,37.919,37.145,11.371-10.758-13.857-13.394L1729,605.476,1705.062,581.4Zm-429.9,32.02,36.943-37.09,31.752,31.923-16.173,16.7,14.065,13.6-20.824,19.7Zm46.484,36.462,11.371-10.758-13.857-13.394,16.247-16.779-23.937-24.073L1255.98,640.6Zm-467.823-5.125,36.946-37.091,31.752,31.923-16.173,16.7,14.065,13.6-20.823,19.7Zm46.487,36.461,11.371-10.758-13.857-13.394,16.247-16.779-23.937-24.073-27.746,27.859Zm-467.823-5.125,36.942-37.09,31.757,31.923-16.173,16.7,14.065,13.6-20.823,19.7Zm46.486,36.461L462.6,729.659l-13.857-13.394,16.247-16.779-23.942-24.073-27.742,27.859Zm-467.823-5.125L20.347,698.2,52.1,730.125l-16.173,16.7L50,760.423l-20.823,19.7Zm46.486,36.461L41.263,761,27.406,747.6l16.247-16.779L19.711,706.75-8.03,734.609ZM1532.225,635.11l20.745-20.829,17.86,17.957-20.745,20.83Zm8.51-.633,9.986,10.039,11.6-11.645-9.987-10.037Zm-110.472-36.884,20.745-20.829,41.771,41.994,32.344-32.473,17.861,17.958-53.09,53.3Zm8.51-.633,51.757,52.033,43.944-44.117-9.986-10.042-32.345,32.478-41.77-42ZM1353.9,618.305l20.745-20.829,27.847,28,16.172-16.237,17.861,17.959-36.917,37.066Zm8.515-.633,37.829,38.036,27.771-27.88-9.986-10.039-16.172,16.237-27.847-28Zm-251.525,48.775,20.745-20.829,17.86,17.958-20.745,20.83Zm8.51-.633,9.987,10.039,11.6-11.644L1131,654.171Zm-110.472-36.884,20.745-20.829,41.771,41.994,32.345-32.473,17.86,17.958-53.09,53.3Zm8.511-.633,51.756,52.033,43.944-44.117-9.986-10.042-32.345,32.478-41.77-42Zm-84.875,21.346,20.745-20.829,27.847,28,16.173-16.237,17.86,17.959L978.27,695.6Zm8.514-.633,37.829,38.036,27.772-27.88-9.987-10.039-16.172,16.237-27.847-28ZM689.552,697.783,710.3,676.955l17.86,17.957-20.745,20.83Zm8.51-.633,9.987,10.039,11.6-11.644-9.987-10.038ZM587.59,660.266l20.745-20.829,41.771,41.994,32.344-32.473,17.861,17.957-53.09,53.3Zm8.51-.633,51.757,52.033L691.8,667.549l-9.987-10.042-32.345,32.478-41.77-42Zm-84.874,21.345,20.745-20.829,27.847,28,16.172-16.237,17.86,17.959-36.917,37.066Zm8.511-.633,37.832,38.036,27.771-27.88-9.987-10.039L559.182,696.7l-27.847-28ZM268.215,729.12l20.745-20.829,17.86,17.958-20.745,20.83Zm8.51-.633,9.987,10.039,11.6-11.644-9.987-10.037ZM166.253,691.6,187,670.774l41.771,41.994,32.345-32.473,17.86,17.958-53.09,53.3Zm8.51-.633L226.52,743l43.944-44.118-9.986-10.042-32.345,32.478-41.77-42ZM89.889,712.316l20.745-20.829,27.847,28,16.172-16.237,17.86,17.959L135.6,758.271Zm8.511-.633,37.832,38.035L164,721.838,154.018,711.8l-16.172,16.237-27.847-28ZM1608.589,614.4l69.262-69.539,17.86,17.959-69.262,69.538Zm8.51-.633,9.986,10.038L1687.2,563.45l-9.986-10.042Zm-429.846,31.97,69.262-69.539,17.86,17.959-69.262,69.538Zm8.509-.633,9.987,10.037,60.115-60.352-9.985-10.042Zm-429.846,31.97,69.262-69.539,17.86,17.959-69.262,69.538Zm8.51-.633,9.987,10.038,60.111-60.352-9.982-10.042Zm-429.846,31.97,69.262-69.539,17.86,17.959L362.44,726.365Zm8.51-.633,9.987,10.037,60.111-60.351-9.982-10.042ZM1526.736,564.6l-32.344,32.473-17.861-17.954,53.09-53.306,73.554,73.955L1582.43,620.6Zm56.33,47.443,11.6-11.643-65.68-66.035-43.944,44.12,9.987,10.037,32.344-32.473ZM1105.4,595.937l-32.345,32.473-17.861-17.955,53.09-53.306,73.554,73.955-20.745,20.829Zm56.33,47.443,11.6-11.643L1107.648,565.7l-43.944,44.12,9.986,10.037,32.345-32.473ZM684.063,627.273l-32.345,32.473-17.861-17.955,53.09-53.306L760.5,662.44l-20.745,20.829Zm56.33,47.443,11.6-11.643-65.681-66.035-43.944,44.12,9.987,10.037L684.7,618.724ZM262.726,658.61l-32.345,32.473-17.861-17.955,53.09-53.306,73.554,73.955L318.42,714.606Zm56.33,47.443,11.6-11.643-65.681-66.035L221.031,672.5l9.987,10.037,32.344-32.473ZM1689.45,533.211l20.745-20.829,58.7,59.023-20.745,20.829Zm8.51-.633,50.828,51.1,11.6-11.643-50.828-51.1Zm-429.846,31.97,20.745-20.829,58.7,59.023-20.745,20.829Zm59.338,50.47,11.6-11.643-50.828-51.1-11.6,11.643ZM846.773,595.885l20.75-20.829,58.7,59.023-20.745,20.829Zm59.343,50.47,11.6-11.643-50.828-51.1-11.6,11.643ZM425.436,627.221l20.745-20.829,58.706,59.023-20.745,20.829Zm59.342,50.47,11.595-11.642-50.828-51.1L433.95,626.588ZM4.1,658.558l20.745-20.829,58.706,59.023L62.8,717.581Zm59.338,50.47,11.6-11.643-50.828-51.1-11.6,11.643Zm1505.63-166.864,20.745-20.829,27.847,28,11.6-11.647-27.848-27.995,20.746-20.83,27.847,28,32.344-32.473,17.861,17.959-85.434,85.775Zm8.51-.633,37.833,38.038,76.288-76.592-9.986-10.039-32.344,32.473-27.847-28-11.6,11.644,27.847,27.995-20.745,20.83-27.847-28Zm-191.334,44.3,16.173-16.24-13.924-14,20.745-20.829,31.784,31.957L1404.1,603.788Zm10.763-30.872,13.919,14-16.168,16.24,9.982,10.038,27.771-27.883-23.91-24.036ZM1147.731,573.5l20.745-20.829,27.847,28,11.6-11.647-27.847-27.995,20.745-20.83,27.847,28,32.345-32.473,17.86,17.959-85.434,85.775Zm8.51-.633,37.833,38.038,76.289-76.592-9.987-10.039-32.344,32.473-27.847-28-11.6,11.644,27.847,27.995-20.745,20.83-27.847-28Zm-191.334,44.3,16.172-16.24-13.923-14L987.9,566.1l31.784,31.957-36.918,37.066ZM975.666,586.3l13.924,14-16.173,16.24,9.987,10.037,27.772-27.883-23.911-24.036Zm-249.272,18.54,20.745-20.829,27.847,28,11.6-11.647-27.847-27.995,20.745-20.83,27.847,28,32.344-32.473,17.86,17.959L772.1,650.793Zm8.51-.633,37.833,38.038,76.284-76.592-9.982-10.039-32.344,32.473-27.847-28-11.6,11.644L795.1,599.728l-20.745,20.83-27.847-28Zm-191.334,44.3,16.173-16.24-13.924-14,20.745-20.829L598.348,629.4l-36.917,37.066Zm10.759-30.872,13.923,14-16.172,16.24,9.987,10.037,27.772-27.883-23.91-24.036ZM305.057,636.174,325.8,615.346l27.847,28,11.6-11.647-27.843-28,20.745-20.83,27.847,28L418.339,578.4l17.86,17.959L350.765,682.13Zm8.51-.633L351.4,673.58l76.284-76.592L417.7,586.949l-32.345,32.473-27.847-28-11.6,11.644,27.847,27.995L353.014,651.9l-27.847-28Zm-191.334,44.3,16.173-16.24-13.923-14,20.745-20.829,31.784,31.957L140.094,697.8Zm10.759-30.872,13.923,14-16.173,16.24,9.987,10.037L168.5,661.365l-23.91-24.036Zm1195.308-88.9,52.015-52.22,17.861,17.957L1366.911,557.2l13.923,14-20.75,20.829Zm8.514-.633,23.905,24.04,11.6-11.647-13.924-14,31.27-31.391-9.987-10.037Zm-429.851,31.97,52.015-52.22,17.86,17.957-31.266,31.391,13.919,14-20.745,20.829Zm8.514-.633,23.906,24.04,11.6-11.647-13.924-14,31.266-31.391-9.982-10.038Zm-429.851,31.97,52.011-52.22L555.5,588.483l-31.269,31.391,13.922,14L517.412,654.7Zm8.511-.633,23.909,24.039,11.6-11.647-13.924-14,31.266-31.391L537,579.079ZM64.291,654.083l52.011-52.22,17.861,17.957L102.9,651.212l13.924,14L96.075,686.038Zm8.511-.633,23.909,24.039,11.6-11.647-13.924-14,31.266-31.391-9.987-10.037ZM1448.684,551.117l36.917-37.064,17.86,17.957-36.918,37.066Zm8.51-.633,9.987,10.042,27.772-27.883-9.987-10.037Zm-429.846,31.97,36.917-37.065,17.86,17.957-36.918,37.066Zm8.51-.633,9.986,10.042,27.771-27.883-9.987-10.037Zm-429.847,31.97,36.917-37.064,17.861,17.957L623.871,631.75Zm8.51-.633,9.986,10.042,27.772-27.883-9.987-10.037Zm-429.847,31.97,36.917-37.065,17.861,17.957-36.918,37.066Zm8.51-.633,9.986,10.042,27.772-27.883-9.987-10.037ZM1666.1,444.742l20.745-20.826,13.924,14,32.344-32.473,31.784,31.952-20.782,20.867L1730.261,443.8,1718.6,455.84l23.955,24.087L1774.824,448l17.958,17.358L1739.655,518.7Zm8.51-.633,65.681,66.035,43.9-44.078-9.964-9.627-32.344,32.006-31.739-31.9,20.761-21.44,13.917,14.538,11.563-11.61-23.91-24.035-32.344,32.472-13.924-14Zm-133.391,70.06,85.434-85.776,45.708,45.955-20.745,20.829-27.847-28-64.689,64.949Zm8.51-.633,9.987,10.037,64.689-64.946,27.847,28,11.6-11.643-37.833-38.038Zm-156.74-18.41,20.745-20.83,45.707,45.955L1438.7,541.08Zm8.514-.633,37.83,38.034,11.6-11.643L1413.1,482.846Zm-156.74-18.415,20.745-20.826,13.923,14,32.344-32.473,31.784,31.952L1322.775,489.6l-13.85-14.466-11.663,12.045,23.956,24.087,32.27-31.932,17.959,17.358-53.127,53.343Zm74.191,65.4,43.9-44.079-9.964-9.627-32.344,32.006-31.739-31.9,20.761-21.44,13.918,14.538,11.558-11.61-23.906-24.035L1278.8,477.8l-13.924-14-11.6,11.643Zm-199.072,4.026,85.434-85.777,45.708,45.955-20.745,20.829-27.847-28-64.689,64.949Zm8.51-.633,9.987,10.037,64.689-64.946,27.847,28,11.6-11.643-37.834-38.038Zm-156.74-18.41,20.745-20.83,45.708,45.955-20.745,20.829Zm8.51-.633L1018,563.864l11.6-11.643-37.834-38.038ZM823.428,507.415l20.745-20.826,13.923,14,32.344-32.473,31.784,31.952-20.787,20.868-13.85-14.466-11.663,12.045L899.88,542.6l32.27-31.932,17.959,17.358L896.982,581.37Zm74.19,65.4,43.9-44.079-9.964-9.627-32.344,32.006-31.739-31.9,20.761-21.44,13.918,14.538,11.558-11.61L889.8,476.665,857.46,509.137l-13.924-14-11.6,11.643Zm-199.071,4.026,85.434-85.776,45.707,45.955-20.745,20.829-27.847-28L716.407,594.8Zm8.51-.633,9.987,10.037L781.732,521.3l27.847,28,11.6-11.643-37.833-38.038ZM550.316,557.8l20.745-20.83,45.708,45.955-20.745,20.829Zm8.51-.633L596.66,595.2l11.6-11.643L570.426,545.52Zm-156.74-18.414,20.749-20.826,13.919,14L469.1,499.453,500.885,531.4,480.1,552.272l-13.855-14.465-11.659,12.045,23.956,24.087,32.27-31.932,17.959,17.358-53.132,53.344Zm74.19,65.4,43.907-44.079-9.964-9.627-32.344,32.006-31.739-31.9,20.756-21.44,13.922,14.538,11.558-11.61L468.464,508l-32.344,32.472-13.919-14-11.6,11.643ZM277.21,608.18,362.644,522.4l45.707,45.955-20.745,20.829-27.847-28-64.689,64.949Zm8.51-.633,9.987,10.037L360.4,552.638l27.847,28,11.595-11.643-37.829-38.039Zm-156.74-18.41,20.745-20.83,45.707,45.955-20.745,20.829Zm8.51-.633,37.834,38.034,11.6-11.643-37.833-38.038ZM-19.25,570.089,1.495,549.264l13.924,14L47.763,530.79l31.786,31.952L58.765,583.609,44.91,569.143,33.252,581.188l23.956,24.087,32.27-31.932L107.436,590.7,54.3,644.044Zm74.19,65.4,43.9-44.079-9.959-9.627L56.54,613.791,24.8,581.886l20.756-21.44,13.919,14.538,11.561-11.61-23.91-24.035L14.783,571.811l-13.924-14-11.595,11.642ZM1497.2,502.408l20.745-20.829,17.86,17.957-20.745,20.83Zm8.51-.633,9.987,10.039,11.6-11.645-9.986-10.042Zm-429.847,31.97,20.745-20.829,17.86,17.957-20.745,20.83Zm8.51-.633,9.987,10.039,11.6-11.644-9.986-10.042Zm-429.847,31.97,20.745-20.829,17.861,17.957-20.745,20.83Zm8.51-.633,9.986,10.039,11.6-11.644L674.637,552.8Zm-429.847,31.97,20.745-20.829L271.8,593.548l-20.745,20.83Zm8.51-.633,9.987,10.039,11.6-11.645L253.3,584.139ZM1453.181,490.65l69.262-69.539,45.708,45.954-20.745,20.826-27.847-28-48.517,48.713Zm8.51-.633,9.987,10.037,48.517-48.709,27.847,28,11.6-11.644-37.833-38.037Zm-429.846,31.97,69.262-69.539,45.707,45.954-20.745,20.826-27.847-28-48.517,48.713Zm8.51-.633,9.987,10.037,48.517-48.709,27.847,28,11.6-11.644L1100.471,461Zm-429.847,31.97,69.262-69.539,45.707,45.954-20.745,20.826-27.847-28-48.517,48.714Zm8.51-.633L629,562.728l48.517-48.709,27.847,28,11.6-11.644-37.834-38.037ZM189.172,584.66l69.262-69.539,45.708,45.954L283.4,581.9l-27.847-28-48.517,48.714Zm8.51-.633,9.987,10.037,48.517-48.709,27.847,28,11.6-11.644L257.8,523.671Zm1213.73-135.376,20.745-20.826,13.923,14,16.172-16.237,17.861,17.954L1443.2,480.608Zm8.51-.633,23.91,24.039,27.772-27.883-9.987-10.037-16.172,16.236-13.924-14Zm-67.772,6.044,20.745-20.83,30.86,31.022L1383,485.084Zm8.511-.633,22.98,23.105,11.6-11.647-22.981-23.1ZM990.074,479.988l20.745-20.826,13.923,14,16.172-16.237,17.861,17.954-36.918,37.066Zm8.512-.633,23.908,24.039,27.772-27.883-9.987-10.037-16.172,16.236-13.923-14ZM930.812,485.4l20.745-20.83,30.855,31.022-20.745,20.83Zm8.51-.633L962.3,507.871l11.6-11.647-22.981-23.1ZM568.738,511.325,589.483,490.5l13.924,14,16.172-16.237,17.861,17.954-36.917,37.066Zm8.51-.633,23.91,24.039,27.772-27.883-9.987-10.038-16.172,16.236-13.924-14Zm-67.773,6.044,20.745-20.83,30.855,31.022-20.745,20.83Zm8.511-.633,22.98,23.105,11.6-11.647-22.981-23.1ZM147.4,542.662l20.745-20.826,13.923,14L198.242,519.6,216.1,537.552l-36.917,37.066Zm8.511-.633,23.908,24.04,27.772-27.883-9.987-10.037-16.172,16.236-13.924-14Zm-67.774,6.044,20.745-20.83,30.857,31.022-20.747,20.83Zm8.511-.633,22.98,23.105,11.6-11.647-22.981-23.1ZM1533.114,408.53l20.745-20.83,46.636,46.888-20.745,20.829Zm47.272,38.338,11.6-11.647-38.763-38.968-11.6,11.644Zm-468.609-7,20.745-20.83,46.636,46.888-20.745,20.829Zm47.273,38.338,11.6-11.647-38.762-38.968-11.6,11.644Zm-468.609-7,20.745-20.83,46.636,46.888L737.077,518.09Zm47.272,38.338,11.6-11.647L710.55,458.927l-11.6,11.644Zm-468.609-7,20.745-20.83L336.486,528.6l-20.745,20.829Zm47.272,38.338,11.6-11.647-38.763-38.968-11.6,11.644Zm1321.869-123.99,15.276-16.273L1640.03,386.5l37.129-37.012,45.927,45.428L1702.362,415.2l-12.934-13.038-32.239,32.4Zm19.433,9.263,32.389-32.549,12.992,13.1,11.421-11.176-37.944-37.536-28.058,27.974,13.351,13.96-15.06,16.046ZM1216.91,448.226l15.276-16.273-13.492-14.114,37.129-37.012,45.924,45.429-20.721,20.284L1268.091,433.5l-32.239,32.4Zm19.432,9.263,32.389-32.549,12.992,13.1,11.423-11.176L1255.2,389.327,1227.144,417.3l13.349,13.96-15.063,16.046ZM795.573,479.563l15.276-16.273-13.492-14.114,37.129-37.012,45.924,45.429-20.721,20.284-12.934-13.038-32.239,32.4Zm19.434,9.263,32.387-32.549,12.992,13.1L871.808,458.2l-37.942-37.536-28.058,27.974,13.349,13.96-15.063,16.046ZM374.236,510.9l15.276-16.273L376.02,480.512,413.15,443.5l45.924,45.429-20.721,20.284-12.934-13.038-32.239,32.4Zm19.434,9.263,32.387-32.549,12.992,13.1,11.423-11.176L412.529,452l-28.058,27.975,13.351,13.96-15.064,16.046ZM1743.633,394.878l38-38.148,17.861,17.957-38,38.148Zm18.5,9.4,28.846-28.962-9.982-10.038-28.85,28.962ZM1322.3,426.215l38-38.148,17.861,17.957-38,38.148Zm18.5,9.4,28.846-28.962-9.982-10.038-28.85,28.962ZM900.961,457.552,938.953,419.4l17.865,17.957-38,38.148Zm18.5,9.4L948.3,437.994l-9.987-10.037-28.846,28.962ZM479.62,488.889l38-38.148L535.477,468.7l-37.992,38.148Zm18.5,9.4,28.846-28.962-9.987-10.037-28.846,28.962ZM58.284,520.226l38-38.148,17.862,17.957-38,38.148Zm18.5,9.4,28.85-28.962-9.987-10.037L66.8,519.592ZM1475.033,412.753l100.424-100.824,17.847,17.939L1492.584,432.458Zm18.375,10.895,91.413-93.113-10-10.057-91.485,91.855ZM1053.7,444.09l100.423-100.824,17.843,17.939L1071.247,463.794Zm18.374,10.895,91.414-93.113-10-10.057L1062,443.669ZM632.361,475.427,732.784,374.6l17.843,17.939L649.912,495.131Zm18.374,10.895,91.414-93.113-10-10.057-91.485,91.855ZM211.025,506.764,311.448,405.94l17.843,17.939L228.571,526.468ZM229.4,517.658l91.414-93.113-10-10.057-91.485,91.855Zm1154.165-97,53.09-53.3,31.784,31.956-20.745,20.829-13.924-14-32.344,32.473Zm18.5,9.409,32.345-32.476,13.924,14,11.6-11.643-23.91-24.039-43.94,44.119ZM962.227,451.992l53.09-53.3,31.784,31.956-20.745,20.829-13.924-14-32.344,32.473Zm18.5,9.409,32.345-32.476,13.923,14,11.6-11.643-23.91-24.039-43.944,44.119ZM540.891,483.329l53.09-53.3,31.784,31.956-20.745,20.829-13.924-14-32.344,32.473Zm18.5,9.409,32.345-32.476,13.924,14,11.6-11.643-23.91-24.039L549.4,482.7ZM119.554,514.665l53.09-53.3,31.784,31.956-20.745,20.829-13.924-14-32.345,32.473Zm18.5,9.409L170.4,491.6l13.924,14,11.6-11.643-23.91-24.039-43.942,44.119ZM1566.135,377.021l52.816-53.282,32.395,31.95-21.935,20.832-13.326-13.935-11.122,11.5,27.879,28.031-20.74,20.823Zm46.588,37.38,11.607-11.652-27.815-27.963,20.216-20.9,13.519,14.136,12.415-11.793-24.3-23.969-43.717,44.1ZM1144.8,408.357l52.816-53.281,32.4,31.949-21.937,20.833-13.326-13.935-11.123,11.5,27.879,28.031-20.74,20.823Zm46.588,37.38,11.608-11.652-27.815-27.963,20.216-20.9,13.519,14.136,12.415-11.793-24.3-23.969-43.715,44.1Zm-467.924-6.043,52.816-53.281,32.4,31.949-21.937,20.833L773.411,425.26l-11.123,11.5,27.879,28.031-20.74,20.822Zm46.588,37.38,11.607-11.652-27.815-27.963,20.216-20.9L787.577,430.7,799.992,418.9l-24.3-23.969-43.717,44.1Zm-467.924-6.043,52.816-53.281,32.4,31.949L365.4,470.532,352.076,456.6l-11.124,11.5,27.879,28.031-20.74,20.822Zm46.588,37.38,11.607-11.652L332.505,468.8l20.218-20.9,13.517,14.136,12.417-11.793-24.3-23.968-43.715,44.1ZM1716.079,364.661l37.887-36.979,17.589,19.066-38.113,38.8Zm18.333,11.928,28.807-29.321-10.1-10.952-28.81,28.12ZM1294.742,396l37.883-36.979,17.594,19.065-38.115,38.8Zm18.333,11.928,28.807-29.321-10.1-10.952-28.81,28.12ZM873.406,427.335l37.883-36.979,17.594,19.065-38.113,38.8Zm18.333,11.928,28.807-29.321-10.1-10.952-28.81,28.12ZM452.069,458.672l37.883-36.979,17.594,19.065-38.113,38.8ZM470.4,470.6l28.807-29.321L489.1,430.328,460.3,458.447ZM30.728,490.009,68.615,453.03,86.209,472.1,48.1,510.892Zm18.337,11.928,28.8-29.32-10.1-10.952L38.959,489.784ZM1462.176,369.708l20.745-20.829,17.86,17.957-20.745,20.83Zm8.51-.633,9.987,10.038,11.6-11.643-9.986-10.042Zm-98.8,7.348,69.262-69.542,31.784,31.956-20.745,20.829-13.924-14-48.517,48.713Zm8.515-.633,9.982,10.038,48.517-48.709,13.924,14,11.6-11.647-23.91-24.036ZM1040.84,401.044l20.745-20.829,17.861,17.957L1058.7,419Zm8.51-.633,9.987,10.037,11.6-11.643-9.986-10.042Zm-98.8,7.348,69.262-69.542,31.784,31.956L1030.853,391l-13.924-14-48.517,48.713Zm8.514-.633,9.982,10.038,48.517-48.709,13.923,14,11.6-11.647-23.91-24.036ZM619.5,432.381l20.745-20.829,17.861,17.957-20.745,20.83Zm8.51-.633L638,441.786l11.6-11.643L639.613,420.1Zm-98.8,7.348,69.262-69.542,31.784,31.956-20.745,20.829-13.924-14-48.517,48.713Zm8.511-.633,9.985,10.038,48.517-48.709,13.924,14,11.6-11.647-23.91-24.036ZM198.167,463.718l20.745-20.829,17.861,17.957-20.745,20.83Zm8.51-.633,9.987,10.037,11.6-11.643-9.986-10.042Zm-98.8,7.348,69.262-69.542,31.784,31.956L188.18,453.676l-13.924-14L125.74,488.392Zm8.511-.633,9.985,10.038,48.517-48.709,13.923,14,11.6-11.647-23.91-24.036Zm1572.7-133.006,69.262-69.542,45.708,45.954-20.745,20.83-27.847-28-48.517,48.709Zm8.51-.633,9.987,10.037,48.517-48.709,27.847,28,11.6-11.647-37.829-38.034Zm-429.846,31.97,69.262-69.542,45.708,45.954-20.745,20.83-27.847-28-48.517,48.709Zm18.5,9.4,48.516-48.709,27.847,28,11.6-11.647-37.829-38.034L1276.267,367.5ZM846.416,399.468l69.267-69.542,45.707,45.954-20.75,20.831-27.843-28-48.517,48.709Zm18.5,9.4,48.517-48.709,27.843,28,11.6-11.647-37.829-38.034-60.116,60.356ZM425.08,430.805l69.262-69.542,45.708,45.954L519.3,428.047l-27.847-28L442.941,448.76Zm18.5,9.4L492.093,391.5l27.847,28,11.6-11.647-37.834-38.034-60.112,60.356ZM3.743,462.142,73.005,392.6l45.709,45.954-20.747,20.83-27.847-28L21.6,480.1Zm18.5,9.4,48.517-48.709,27.847,28,11.6-11.647L72.369,401.153,12.258,461.509ZM1452.75,295.238l20.745-20.83,41.77,42,113.206-113.658L1688.1,262.7l-20.745,20.83-41.77-42-27.772,27.883,10.916,10.972L1624.9,264.15l17.861,17.957-36.917,37.066-28.776-28.929-64.689,64.945Zm8.51-.633,51.757,52.036,64.689-64.949,28.776,28.932,27.771-27.883-9.987-10.037L1608.1,288.939l-18.789-18.892,36.917-37.066,41.771,42,11.6-11.644L1627.836,211.3,1514.63,324.954,1472.86,282.96Zm-429.846,31.97,20.745-20.83,41.77,42,113.206-113.658,59.631,59.951-20.745,20.83-41.77-42-27.772,27.883,10.916,10.972,16.172-16.236,17.861,17.957L1184.51,350.51l-28.776-28.929-64.689,64.945Zm8.511-.633,51.755,52.036,64.689-64.949,28.776,28.932,27.767-27.883-9.983-10.038-16.172,16.236-18.79-18.892,36.918-37.066,41.771,42,11.6-11.644L1206.5,242.633,1093.294,356.291,1051.523,314.3Zm-429.848,31.97,20.745-20.83,41.77,42L785.8,265.421l59.631,59.951L824.685,346.2l-41.77-42-27.772,27.883,10.915,10.972,16.172-16.236,17.86,17.957-36.917,37.066L734.4,352.918l-64.689,64.945Zm8.51-.633,51.757,52.036,64.689-64.949L763.809,373.3l27.767-27.883-9.982-10.038-16.172,16.236-18.789-18.892,36.918-37.066,41.771,42,11.6-11.644L785.163,273.97,671.957,387.628l-41.771-41.994Zm-429.847,31.97,20.745-20.83,41.77,42L364.462,296.758l59.631,59.951-20.745,20.83-41.77-42-27.772,27.883L344.719,374.4l16.172-16.236,17.863,17.957-36.92,37.066-28.773-28.929L248.372,449.2Zm8.51-.633,51.757,52.036L313.7,375.7l28.773,28.932,27.77-27.883-9.985-10.038-16.172,16.236L325.3,364.057l36.917-37.066,41.771,42,11.595-11.644-51.753-52.036L250.62,418.965,208.85,376.971Zm1433.8-76.549,20.837-20.922,13.085,14.073,33.182-32.994L1716,290.514,1661.95,342.36Zm8.56-.683,23.032,22.577L1707.426,291l-9.967-10.212-33.277,33.089-13.064-14.051Zm-429.9,32.02,20.837-20.922,13.085,14.073,33.182-32.994,17.848,18.29L1240.613,373.7Zm8.561-.683,23.031,22.578,44.778-42.956-9.962-10.212-33.277,33.089-13.063-14.051Zm-429.9,32.02,20.837-20.922L822.3,367.891,855.482,334.9l17.848,18.29-54.053,51.846Zm8.561-.683,23.028,22.578,44.781-42.956-9.962-10.212-33.277,33.089L808.442,362.5Zm-429.9,32.02,20.84-20.922,13.085,14.073,33.182-32.994,17.848,18.29L397.94,436.371Zm8.564-.683,23.028,22.578,44.781-42.956L433.45,374.8l-33.277,33.089-13.067-14.051ZM1755.957,242.619l20.745-20.83,59.631,59.953-20.747,20.829Zm8.51-.633,51.756,52.036,11.6-11.647-51.753-52.036Zm-429.851,31.97,20.75-20.831L1415,313.079l-20.75,20.829Zm60.267,51.4,11.6-11.647-51.753-52.036-11.6,11.647Zm-481.6-20.066,20.745-20.83,59.631,59.953L972.91,365.245Zm60.267,51.4,11.6-11.647-51.757-52.036-11.6,11.647Zm-481.6-20.066,20.745-20.83,59.632,59.953-20.747,20.829Zm60.267,51.4,11.6-11.647L512.052,324.35,500.454,336Zm-481.6-20.066,20.745-20.83,59.633,59.953-20.747,20.829Zm60.267,51.4,11.6-11.647L90.716,355.687l-11.6,11.647ZM1407.655,284.56l70.338-70.621,31.784,31.955-20.745,20.83-13.923-14-49.591,49.8Zm8.511-.633,9.987,10.037,49.591-49.792,13.924,14,11.6-11.644-23.91-24.039ZM986.316,315.9l70.341-70.621,31.784,31.955-20.745,20.83-13.923-14-49.6,49.8Zm8.514-.633,9.982,10.038,49.6-49.792,13.924,14,11.6-11.644-23.91-24.039Zm-429.851,31.97,70.341-70.621L667.1,308.568,646.359,329.4l-13.923-14-49.6,49.8Zm8.514-.633,9.982,10.038,49.6-49.792,13.924,14,11.6-11.644-23.91-24.039Zm-429.851,31.97,70.341-70.621L245.767,339.9l-20.745,20.83-13.923-14-49.6,49.8Zm8.51-.633,9.987,10.037,49.6-49.792,13.923,14,11.6-11.644L213.347,316.5ZM1667.918,219.1l20.745-20.829,59.631,59.951-20.745,20.83Zm60.267,51.4,11.6-11.644-51.757-52.036-11.6,11.647Zm-229.167,6.263,53.09-53.3,17.86,17.957-53.09,53.3Zm8.51-.633,9.987,10.039,43.944-44.117-9.986-10.042Zm-260.947-25.693,20.745-20.829,59.631,59.951-20.745,20.83Zm60.267,51.4,11.595-11.644-51.753-52.036-11.6,11.647ZM1077.682,308.1l53.09-53.3,17.86,17.957-53.09,53.3Zm8.51-.633,9.987,10.039,43.944-44.117-9.986-10.042ZM825.245,281.773l20.745-20.829L905.622,320.9l-20.745,20.83Zm60.267,51.4,11.595-11.644-51.753-52.036-11.6,11.647Zm-229.167,6.263,53.089-53.3L727.3,304.091l-53.09,53.3Zm8.51-.633,9.987,10.039,43.944-44.117L708.8,294.682ZM403.9,313.111l20.75-20.829,59.631,59.951-20.75,20.831Zm60.267,51.4,11.6-11.644L424.018,300.83l-11.6,11.647Zm-229.163,6.262,53.09-53.3,17.86,17.957-53.09,53.3Zm8.51-.633,9.987,10.039,43.944-44.117-9.986-10.042ZM-17.433,344.447,3.313,323.619,62.945,383.57,42.2,404.4Zm8.514-.633,51.753,52.033,11.6-11.644L2.677,332.167ZM1353.037,227.481l20.75-20.826,45.708,45.954-20.75,20.831Zm8.514-.633,37.829,38.038,11.6-11.644-37.829-38.037ZM931.7,258.818l20.745-20.826,45.707,45.954-20.745,20.83Zm8.514-.633,37.829,38.039,11.6-11.644L951.81,246.543Zm-429.851,31.97,20.745-20.826,45.708,45.954-20.745,20.83Zm8.511-.633,37.832,38.038,11.6-11.644-37.833-38.037ZM89.027,321.492l20.745-20.826,45.709,45.954-20.747,20.83Zm8.511-.633L135.371,358.9l11.6-11.644-37.834-38.037Zm1602.7-134.207,36.943-37.095,31.752,31.923-16.172,16.7,14.065,13.594L1746,231.48Zm8.565-.688,37.919,37.145,11.371-10.755-13.857-13.394,16.247-16.782-23.938-24.069Zm-429.9,32.024,36.943-37.095,31.752,31.923-16.173,16.7,14.065,13.594-20.823,19.7Zm46.484,36.457,11.371-10.755L1322.9,230.3l16.247-16.782-23.938-24.069L1287.462,217.3Zm-467.823-5.12,36.947-37.1,31.752,31.923-16.173,16.7,14.065,13.594-20.824,19.7Zm46.487,36.457,11.371-10.755-13.857-13.394,16.247-16.782-23.937-24.069-27.746,27.854Zm-467.823-5.12,36.942-37.095,31.757,31.923-16.173,16.7,14.065,13.594-20.824,19.7Zm46.487,36.457,11.371-10.755-13.857-13.394,16.247-16.782L472.53,252.121l-27.741,27.854ZM14.888,312,51.83,274.905l31.757,31.923-16.173,16.7,14.065,13.594-20.824,19.7Zm46.487,36.457L72.745,337.7,58.889,324.308l16.247-16.782L51.194,283.458,23.452,311.312ZM1563.708,211.813l20.745-20.826,17.861,17.954-20.745,20.83Zm8.51-.633,9.986,10.042,11.6-11.647-9.987-10.037ZM1461.745,174.3l20.745-20.829,41.771,42,32.345-32.476,17.86,17.958-53.09,53.3Zm8.51-.633,51.757,52.036,43.944-44.12-9.987-10.037-32.345,32.473-41.771-41.994Zm-84.874,21.345,20.745-20.829,27.847,28,16.172-16.24,17.861,17.959-36.917,37.066Zm8.515-.633,37.829,38.039,27.771-27.883-9.986-10.039-16.172,16.237-27.847-28ZM1142.371,243.15l20.745-20.826,17.861,17.954-20.745,20.83Zm8.51-.633,9.986,10.042,11.6-11.647-9.987-10.037Zm-110.472-36.884,20.745-20.829,41.771,42,32.345-32.476,17.86,17.957-53.09,53.3Zm8.511-.633,51.755,52.036,43.944-44.12-9.986-10.037-32.345,32.473-41.771-41.994Zm-84.875,21.346,20.745-20.829,27.847,28,16.173-16.24,17.86,17.959L1009.752,272.3Zm8.514-.633,37.829,38.039,27.772-27.883-9.987-10.039L1012,242.066l-27.847-28ZM721.035,274.487l20.745-20.826,17.861,17.955-20.745,20.83Zm8.51-.633,9.986,10.042,11.6-11.647-9.987-10.037ZM619.072,236.969l20.745-20.829,41.77,42,32.345-32.476,17.861,17.957-53.09,53.3Zm8.51-.633,51.757,52.036,43.944-44.12L713.3,234.214l-32.345,32.473-41.771-41.994Zm-84.874,21.345,20.745-20.829,27.847,28,16.172-16.24,17.86,17.959-36.917,37.066Zm8.511-.633,37.832,38.038L616.823,267.2l-9.987-10.039L590.665,273.4l-27.847-28ZM299.7,305.823,320.443,285,338.3,302.952l-20.745,20.83Zm8.51-.633,9.986,10.042,11.6-11.647-9.987-10.037ZM197.736,268.306l20.745-20.829,41.77,42L292.6,257l17.861,17.957-53.09,53.3Zm8.51-.633L258,319.709l43.944-44.12-9.987-10.037-32.344,32.473-41.771-41.994Zm-84.874,21.345,20.745-20.829,27.847,28,16.172-16.24L204,297.908l-36.917,37.066Zm8.511-.633,37.832,38.038,27.772-27.883L185.5,288.5l-16.172,16.237-27.847-28ZM1640.072,191.1l69.262-69.539,17.861,17.959-69.262,69.538Zm8.51-.633,9.986,10.042,60.116-60.356-9.986-10.039Zm-429.846,31.97L1288,152.9l17.86,17.959L1236.6,240.395Zm8.51-.633,9.986,10.042,60.115-60.356-9.985-10.039ZM797.4,253.774l69.262-69.539,17.86,17.959-69.262,69.538Zm8.51-.633,9.987,10.042,60.112-60.356-9.982-10.039Zm-429.846,31.97,69.262-69.539,17.86,17.959-69.262,69.538Zm8.51-.633,9.986,10.042,60.112-60.356-9.982-10.039ZM1558.219,141.306l-32.345,32.473-17.861-17.957,53.09-53.3,73.554,73.95-20.745,20.83Zm56.33,47.443,11.6-11.647-65.68-66.033-43.944,44.12,9.986,10.037,32.345-32.473Zm-477.667-16.106-32.345,32.473-17.86-17.957,53.09-53.3,73.555,73.95-20.745,20.83Zm56.33,47.443,11.6-11.647-65.681-66.033-43.944,44.12,9.987,10.037,32.345-32.473ZM715.545,203.98,683.2,236.453,665.34,218.5l53.09-53.3,73.555,73.95-20.745,20.83Zm56.33,47.443,11.6-11.647-65.681-66.033-43.944,44.12,9.987,10.037,32.345-32.473ZM294.209,235.316,261.864,267.79,244,249.832l53.09-53.3,73.555,73.95L349.9,291.309Zm56.33,47.443,11.6-11.647-65.681-66.033L252.514,249.2l9.987,10.037,32.345-32.473ZM1720.933,109.918l20.745-20.83,58.7,59.019-20.745,20.83Zm8.51-.633,50.828,51.1,11.6-11.647-50.828-51.1ZM1299.6,141.255l20.745-20.83,58.7,59.019-20.745,20.83Zm59.338,50.469,11.6-11.647-50.828-51.1-11.6,11.647ZM878.255,172.592,899,151.762l58.7,59.019-20.745,20.83ZM937.6,223.061l11.6-11.647-50.828-51.1-11.6,11.647ZM456.918,203.929l20.745-20.83,58.707,59.018-20.745,20.83ZM516.261,254.4l11.595-11.647-50.828-51.1-11.6,11.647ZM35.582,235.266l20.745-20.83,58.707,59.018-20.75,20.831ZM94.92,285.735l11.6-11.647-50.828-51.1-11.6,11.647ZM1600.55,118.872l20.745-20.83,27.847,28,11.6-11.643-27.847-28,20.745-20.826,27.847,28,32.344-32.473,17.861,17.954-85.434,85.779Zm8.51-.633,37.834,38.034,76.288-76.594-9.987-10.037-32.344,32.473-27.847-28-11.6,11.643,27.847,28-20.745,20.829-27.847-28Zm-191.333,44.3L1433.9,146.3l-13.924-14,20.745-20.83,31.784,31.956-36.918,37.066Zm10.763-30.866,13.919,14L1426.24,161.9l9.983,10.039,27.771-27.88-23.91-24.039Zm-249.276,18.54,20.745-20.83,27.847,28,11.6-11.643-27.847-28L1232.3,96.905l27.847,28,32.344-32.473,17.861,17.954-85.435,85.78Zm8.51-.633,37.834,38.034,76.289-76.594-9.987-10.037-32.344,32.473-27.847-28-11.6,11.643,27.847,28-20.745,20.829-27.847-28Zm-191.333,44.3,16.172-16.236-13.924-14,20.745-20.83,31.784,31.956-36.918,37.066Zm10.758-30.866,13.924,14L1004.9,193.239l9.987,10.039,27.772-27.88-23.91-24.039ZM757.876,181.545l20.745-20.83,27.847,28,11.6-11.643-27.847-28,20.745-20.826,27.847,28,32.345-32.473,17.861,17.954L803.584,227.5Zm8.51-.633,37.834,38.034L880.5,142.353l-9.982-10.038-32.344,32.473-27.847-28-11.6,11.643,27.847,28-20.745,20.829-27.847-28Zm-191.333,44.3,16.172-16.236-13.924-14,20.745-20.83L629.831,206.1l-36.917,37.066Zm10.759-30.866,13.923,14-16.172,16.236,9.986,10.039,27.772-27.88L597.411,182.7ZM336.54,212.882l20.745-20.83,27.847,28,11.595-11.643-27.842-28,20.745-20.826,27.847,28L449.821,155.1l17.861,17.954-85.434,85.779Zm8.51-.633,37.834,38.034,76.284-76.593-9.982-10.038-32.344,32.473-27.847-28-11.6,11.643,27.847,28L384.5,228.6l-27.847-28Zm-191.333,44.3,16.172-16.236-13.924-14,20.745-20.83,31.784,31.956L171.577,274.5Zm10.758-30.866,13.924,14-16.172,16.236,9.987,10.039,27.771-27.88-23.91-24.039Zm1195.308-88.9L1411.8,84.556l17.86,17.957-31.266,31.394,13.923,14-20.75,20.831Zm8.514-.633,23.906,24.037,11.6-11.644-13.924-14,31.271-31.394-9.987-10.037Zm-429.851,31.97,52.016-52.223,17.86,17.957-31.266,31.394,13.919,14-20.745,20.83Zm8.514-.633,23.906,24.037,11.6-11.644-13.924-14,31.266-31.394-9.982-10.038ZM517.11,199.452l52.011-52.223,17.865,17.957-31.269,31.394,13.922,14-20.745,20.83Zm8.511-.633,23.909,24.036,11.6-11.644-13.924-14,31.266-31.394-9.987-10.037ZM95.773,230.789l52.011-52.223,17.861,17.957-31.264,31.394,13.924,14-20.747,20.83Zm8.511-.633,23.909,24.036,11.6-11.644-13.924-14,31.266-31.394-9.987-10.037ZM1480.166,127.825l36.918-37.066,17.86,17.957-36.918,37.066Zm8.51-.633,9.987,10.037,27.771-27.88-9.986-10.042Zm-429.846,31.97,36.917-37.066,17.861,17.957L1076.69,177.12Zm8.51-.633,9.987,10.037,27.771-27.88-9.986-10.042ZM637.493,190.5l36.917-37.066,17.861,17.957-36.918,37.066Zm8.51-.633L655.99,199.9l27.771-27.88-9.986-10.042Zm-429.847,31.97,36.918-37.066,17.86,17.957-36.918,37.066Zm8.51-.633,9.987,10.037,27.771-27.88-9.986-10.042ZM1697.583,21.45,1718.328.619l13.924,14L1764.6-17.855,1796.38,14.1,1775.6,34.969,1761.744,20.5,1750.08,32.544l23.956,24.087,32.27-31.932,17.958,17.361L1771.138,95.4Zm8.51-.633,65.681,66.033,43.9-44.077-9.963-9.631-32.344,32.006-31.739-31.9,20.761-21.437,13.918,14.535,11.563-11.606L1763.961-9.3l-32.344,32.476-13.924-14ZM1572.7,90.871,1658.137,5.1l45.708,45.955L1683.1,71.88l-27.847-28-64.689,64.946Zm8.51-.633,9.986,10.042,64.689-64.949,27.847,28,11.6-11.647L1657.5,13.65ZM1424.472,71.83,1445.218,51l45.707,45.954-20.745,20.83Zm8.514-.633,37.829,38.037,11.6-11.647-37.834-38.034Zm-156.74-18.41,20.745-20.83,13.923,14,32.345-32.473,31.784,31.956-20.787,20.868-13.85-14.47-11.664,12.045L1352.7,87.967l32.27-31.932L1402.928,73.4l-53.127,53.34Zm74.191,65.4,43.9-44.077-9.963-9.631-32.344,32.006-31.739-31.9,20.761-21.437,13.918,14.535,11.558-11.606-23.906-24.04-32.344,32.476-13.924-14-11.6,11.643Zm-199.071,4.021L1236.8,36.433l45.708,45.955-20.745,20.829-27.847-28-64.689,64.946Zm8.51-.633,9.986,10.042,64.689-64.949,27.847,28L1274,83.021l-37.834-38.034Zm-156.74-18.408,20.745-20.83,45.708,45.954-20.745,20.83Zm8.51-.633,37.834,38.037,11.6-11.647-37.834-38.034ZM854.91,84.123l20.745-20.83,13.923,14,32.344-32.473,31.784,31.956L932.92,97.643l-13.85-14.47L907.407,95.217,931.363,119.3l32.27-31.932,17.959,17.361-53.127,53.34Zm74.191,65.4L973,105.446l-9.963-9.631L930.7,127.821l-31.739-31.9,20.761-21.437,13.918,14.535,11.558-11.606-23.906-24.04L888.943,85.845l-13.923-14L863.42,83.49ZM730.03,153.545,815.464,67.77l45.707,45.955-20.745,20.829-27.847-28L747.89,171.5Zm8.51-.633,9.986,10.042L813.215,98l27.847,28,11.6-11.647L814.828,76.324ZM581.8,134.5l20.745-20.83,45.708,45.954-20.745,20.83Zm8.51-.633,37.834,38.037,11.6-11.647-37.834-38.034Zm-156.74-18.41,20.75-20.831,13.919,14,32.344-32.473,31.785,31.956L511.584,128.98,497.73,114.51l-11.659,12.045,23.956,24.087,32.27-31.932,17.959,17.361-53.131,53.341Zm74.191,65.4,43.907-44.077-9.963-9.631-32.344,32.006-31.738-31.9,20.756-21.437L512.3,120.351l11.558-11.606-23.91-24.039L467.6,117.182l-13.919-14-11.6,11.643Zm-199.067,4.021,85.434-85.775,45.707,45.955-20.745,20.829-27.847-28L326.553,202.84Zm8.51-.633,9.986,10.042,64.689-64.949,27.847,28L431.32,145.7l-37.829-38.034ZM160.463,165.84l20.745-20.83,45.708,45.954-20.745,20.83Zm8.51-.633,37.834,38.037,11.6-11.647-37.834-38.034ZM12.232,146.8l20.745-20.83,13.923,14,32.344-32.473,31.785,31.956L90.247,160.316l-13.854-14.47L64.734,157.891,88.69,181.978l32.27-31.932,17.958,17.361L85.787,220.747Zm74.191,65.4,43.9-44.077-9.959-9.632L88.022,190.494l-31.739-31.9L77.04,137.153l13.919,14.535,11.561-11.606L78.61,116.043,46.265,148.519l-13.924-14L20.747,146.164ZM1528.683,79.112l20.745-20.829,17.86,17.957-20.745,20.829Zm8.51-.633,9.986,10.042,11.6-11.647-9.987-10.037Zm-429.847,31.97,20.746-20.829,17.86,17.957-20.745,20.829Zm8.51-.633,9.987,10.042,11.6-11.647-9.986-10.037ZM686.01,141.786l20.745-20.829,17.86,17.957-20.745,20.829Zm8.51-.633,9.986,10.042,11.6-11.647-9.987-10.037Zm-429.847,31.97,20.745-20.829,17.86,17.957L282.534,191.08Zm8.51-.633,9.986,10.042,11.6-11.647-9.987-10.037ZM1484.664,67.353l69.262-69.539,45.708,45.954L1578.888,64.6l-27.847-28L1502.524,85.31Zm8.51-.633,9.986,10.042,48.517-48.713,27.847,28,11.6-11.644L1553.29,6.364ZM1063.327,98.69l69.262-69.539L1178.3,75.1l-20.745,20.83-27.847-28-48.517,48.709Zm8.51-.633,9.986,10.042,48.517-48.713,27.847,28,11.6-11.644L1131.953,37.7Zm-429.846,31.97,69.262-69.539,45.708,45.954-20.745,20.83-27.847-28-48.517,48.709Zm8.51-.633,9.986,10.042L709,90.722l27.847,28,11.6-11.644L710.617,69.037Zm-429.847,31.97,69.262-69.539,45.708,45.954-20.745,20.83-27.847-28-48.517,48.709Zm8.51-.633,9.986,10.042,48.517-48.713,27.847,28,11.6-11.644L289.28,100.374ZM1442.893,25.358l20.745-20.829,13.924,14L1493.734,2.29l17.86,17.957-36.917,37.066Zm8.51-.633,23.91,24.036,27.771-27.88L1493.1,10.839l-16.172,16.24-13.923-14Zm-67.772,6.044,20.745-20.83,30.86,31.023-20.75,20.829Zm8.511-.633,22.98,23.1,11.6-11.643L1403.74,18.488ZM1021.557,56.694,1042.3,35.866l13.923,14L1072.4,33.627l17.861,17.957-36.918,37.066Zm8.511-.633L1053.977,80.1l27.772-27.88-9.986-10.042-16.173,16.24-13.923-14Zm-67.774,6.044,20.745-20.83L1013.894,72.3,993.149,93.127Zm8.51-.633,22.981,23.1,11.6-11.643L982.4,49.825ZM600.22,88.031,620.965,67.2l13.924,14,16.172-16.236,17.861,17.957L632,119.988Zm8.51-.633,23.91,24.036,27.771-27.88-9.986-10.042-16.172,16.24-13.923-14Zm-67.773,6.044L561.7,72.612l30.855,31.024-20.745,20.829Zm8.511-.633,22.98,23.1,11.6-11.643L561.067,81.162ZM178.884,119.368l20.745-20.829,13.924,14L229.725,96.3l17.861,17.957-36.918,37.066Zm8.511-.633L211.3,142.771l27.771-27.88-9.986-10.042-16.173,16.24-13.923-14Zm-67.774,6.044,20.745-20.83,30.856,31.024L150.476,155.8Zm8.511-.633,22.98,23.1,11.6-11.643L139.73,112.5ZM1564.6-14.763l20.745-20.829L1631.978,11.3l-20.745,20.829Zm47.273,38.335,11.6-11.643-38.762-38.973-11.6,11.647Zm-468.609-7,20.745-20.829,46.636,46.888L1189.9,63.461Zm47.273,38.335,11.6-11.643L1163.369,4.293l-11.6,11.647Zm-468.609-7,20.745-20.829L789.3,73.97,768.559,94.8ZM769.2,86.245l11.6-11.643L742.033,35.63l-11.6,11.647Zm-468.609-7,20.745-20.829,46.636,46.888-20.745,20.829Zm47.273,38.335,11.6-11.643L320.7,66.967,309.1,78.614ZM1669.729-6.408l15.276-16.273-13.493-14.111,37.13-37.016,45.926,45.433L1733.844-8.1l-12.934-13.038-32.239,32.4Zm19.433,9.262,32.388-32.545,12.993,13.1,11.421-11.176L1708.02-65.3l-28.058,27.971,13.35,13.96-15.06,16.049ZM1248.392,24.929l15.276-16.273L1250.176-5.456l37.129-37.016,45.923,45.433-20.721,20.281L1299.574,10.2l-32.239,32.4Zm19.432,9.262,32.389-32.545,12.993,13.1,11.423-11.176-37.944-37.533L1258.627-6l13.349,13.96-15.063,16.049ZM827.056,56.266l15.276-16.273L828.839,25.881l37.13-37.016L911.892,34.3,891.171,54.578,878.237,41.541,846,73.939Zm19.434,9.262,32.387-32.545,12.992,13.1L903.29,34.9,865.348-2.63,837.29,25.342,850.639,39.3,835.576,55.351ZM405.719,87.6,421,71.329,407.5,57.218,444.632,20.2l45.923,45.433L469.835,85.915,456.9,72.877l-32.239,32.4Zm19.434,9.262L457.54,64.32l12.992,13.1L481.956,66.24,444.012,28.707,415.954,56.679,429.3,70.638,414.239,86.688ZM1775.116-28.419l38-38.145,17.861,17.954-38,38.148Zm8.512-.633,9.986,10.04,28.846-28.965-9.982-10.039ZM1353.78,2.918l38-38.145,17.861,17.954-38,38.148Zm18.5,9.407,28.846-28.965-9.982-10.039L1362.29,2.285ZM932.444,34.255,970.436-3.89,988.3,14.064l-38,38.148Zm18.5,9.407L979.786,14.7,969.8,4.659,940.954,33.622ZM511.1,65.592l38-38.145L566.96,45.4,528.968,83.549ZM529.6,75,558.45,46.034,548.463,36,519.617,64.959ZM89.766,96.929l38-38.145,17.862,17.954-38,38.148Zm18.5,9.408,28.851-28.965-9.987-10.039L98.281,96.3ZM1506.516-10.543,1606.94-111.368l17.847,17.939L1524.066,9.161ZM1524.891.351,1616.3-92.762l-10-10.057-91.485,91.855Zm-439.71,20.442L1185.6-80.031l17.843,17.939L1102.73,40.5Zm18.374,10.895,91.413-93.113-10-10.057-91.485,91.855ZM663.844,52.13,764.267-48.694,782.11-30.755,681.394,71.834Zm18.374,10.895,91.413-93.113-10-10.057L672.146,51.709ZM242.507,83.467,342.93-17.357,360.773.582,260.053,103.172Zm18.374,10.895L352.295,1.249l-10-10.057L250.81,83.046Zm1154.165-97,53.09-53.306,31.784,31.956L1479.175-3.159l-13.924-14-32.345,32.472Zm18.5,9.4,32.345-32.473,13.924,14,11.6-11.647L1467.5-47.391l-43.94,44.12ZM993.71,28.7l53.09-53.306L1078.584,7.35l-20.745,20.829-13.923-14L1011.57,46.652Zm18.5,9.4,32.345-32.473,13.923,14,11.6-11.647-23.91-24.036-43.944,44.12ZM572.373,60.036,625.463,6.73l31.784,31.956L636.5,59.515l-13.924-14L590.234,77.989Zm18.5,9.4,32.344-32.473,13.924,14,11.6-11.647-23.91-24.036L580.883,59.4ZM151.036,91.373l53.09-53.306L235.91,70.023,215.165,90.852l-13.924-14L168.9,109.326Zm18.5,9.4L201.877,68.3l13.923,14,11.6-11.647L203.49,46.62,159.548,90.74ZM1597.618-46.276l52.816-53.281L1682.828-67.6l-21.935,20.829L1647.567-60.71l-11.123,11.5,27.878,28.033L1643.582-.356ZM1644.205-8.9l11.607-11.648L1628-48.512l20.216-20.9,13.519,14.136,12.415-11.79-24.3-23.968-43.716,44.1Zm-467.924-6.043L1229.1-68.221l32.4,31.953-21.937,20.83L1226.23-29.373l-11.123,11.5,27.879,28.033-20.74,20.821Zm46.588,37.38,11.607-11.648-27.815-27.967,20.216-20.9L1240.4-23.937l12.415-11.79-24.3-23.968-43.715,44.1ZM754.945,16.4,807.76-36.884l32.4,31.953L818.219,15.9,804.893,1.963l-11.123,11.5L821.649,41.5l-20.74,20.821Zm46.588,37.38,11.607-11.648L785.324,14.162l20.216-20.9L819.059,7.4,831.474-4.39l-24.3-23.968-43.716,44.1ZM333.608,47.734,386.424-5.547l32.4,31.953-21.937,20.83L383.558,33.3,372.434,44.8l27.879,28.033-20.74,20.821ZM380.2,85.114,391.8,73.466,363.988,45.5l20.218-20.9,13.517,14.136,12.417-11.79-24.3-23.968-43.715,44.1ZM1747.561-58.631l37.887-36.98,17.589,19.063-38.113,38.8Zm8.227-.231,10.106,12.154L1794.7-76.03l-10.1-10.95ZM1326.224-27.294l37.883-36.98L1381.7-45.212l-38.115,38.8Zm18.333,11.923,28.807-29.322-10.1-10.95-28.81,28.118ZM904.888,4.043l37.883-36.98,17.594,19.062-38.113,38.8Zm18.333,11.923,28.807-29.322-10.1-10.95L913.115,3.812ZM483.552,35.38,521.434-1.6l17.594,19.062-38.113,38.8ZM501.884,47.3l28.807-29.322L520.585,7.031,491.778,35.149ZM62.21,66.717,100.1,29.736,117.691,48.8,79.578,87.6ZM80.548,78.64l28.8-29.322-10.1-10.95L70.442,66.486Z" transform="translate(-699.555 978.02) rotate(-45)" fill="#fff"/>
      </g>
    </g>
  </g>
</svg>
