<svg xmlns="http://www.w3.org/2000/svg" xmlns:xlink="http://www.w3.org/1999/xlink" width="1921.812" height="989" viewBox="0 0 1921.812 989">
  <defs>
    <clipPath id="clip-path">
      <rect id="Rectangle_2660" data-name="Rectangle 2660" width="989" height="1918" transform="translate(0 -0.339)" fill="#f3f3f3"/>
    </clipPath>
  </defs>
  <g id="Group_13857" data-name="Group 13857" transform="translate(-12239.188 -15515) rotate(90)">
    <path id="Path_43078" data-name="Path 43078" d="M0,0H988.85V1919.813H0Z" transform="translate(15515 -14161)" fill="#f5f5f5"/>
    <g id="Group_3035" data-name="Group 3035" transform="translate(15515 -14156.85)">
      <g id="Mask_Group_51" data-name="Mask Group 51" transform="translate(0 0)" opacity="0.5" clip-path="url(#clip-path)">
        <path id="Union_12" data-name="Union 12" d="M1734.458,1984.19l21.529-21.64,55.644,55.928-21.529,21.638Zm9.443-.048,46.249,46.485,12.038-12.1-46.249-46.481Zm-476.987,2.432,21.529-21.64,55.644,55.928-21.529,21.638Zm9.443-.048,46.249,46.485,12.038-12.1-46.249-46.482Zm-476.987,2.432,21.53-21.64,55.643,55.928-21.529,21.639Zm9.443-.048,46.249,46.485,12.038-12.1-46.249-46.482Zm-476.987,2.432,21.529-21.64L409,2025.63l-21.529,21.638Zm9.443-.048,46.249,46.485,12.038-12.1L353.31,1979.2Zm1511.1,10.353,15.782-16.983-16.14-16.789,38.553-38.431,54.739,54.247-21.548,21.027-15.435-15.544-33.456,33.656Zm9.024-33.721,15.971,16.61-15.558,16.746,12.955,12.2,33.611-33.813,15.5,15.624,11.876-11.587-45.225-44.82Zm-476.567,36.1,15.782-16.983-16.141-16.789,38.553-38.431,54.736,54.246-21.544,21.027-15.435-15.544-33.455,33.656Zm9.026-33.721,15.969,16.61-15.561,16.746,12.958,12.2,33.611-33.814,15.5,15.624,11.878-11.587-45.225-44.82Zm-476.569,36.105,15.782-16.983-16.141-16.789,38.553-38.432,54.736,54.247-21.544,21.027-15.435-15.544L939.779,2027.6Zm9.025-33.721,15.969,16.61-15.561,16.746,12.96,12.2,33.609-33.813,15.5,15.624,11.876-11.588-45.223-44.82Zm-476.568,36.1,15.781-16.983-16.141-16.789,38.553-38.431,54.736,54.247-21.544,21.027-15.435-15.544-33.456,33.656Zm9.025-33.721,15.971,16.609-15.563,16.746,12.96,12.2,33.609-33.813,15.5,15.624,11.878-11.588-45.225-44.82Zm1509.453,10.157,39.434-39.632,21.31,21.421-39.433,39.631Zm9.445-.048,11.915,11.973,29.936-30.087-11.91-11.978Zm-476.987,2.432,39.433-39.632,21.31,21.422-39.433,39.631Zm21.358,11.925,29.936-30.088-11.91-11.978-29.941,30.092Zm-488.9-9.541,39.428-39.632,21.315,21.421-39.432,39.631Zm21.359,11.925,29.936-30.088-11.915-11.978-29.936,30.092Zm-488.907-9.541,39.433-39.632,21.31,21.421L586.9,2013.808Zm21.363,11.925,29.936-30.087-11.915-11.978-29.936,30.092Zm-488.907-9.541,39.433-39.632,21.312,21.421-39.434,39.631ZM119.4,2006.7l29.941-30.088-11.915-11.978-29.936,30.092ZM1670,1984.405l104.221-104.742,21.294,21.4L1691.1,2007.755Zm9.229.177,12.109,13.4,94.766-96.83-11.932-12Zm-476.771,2.207,104.22-104.742,21.288,21.4-104.41,106.689Zm9.228.177,12.109,13.4,94.766-96.83-11.932-12Zm-476.771,2.207,104.22-104.742,21.288,21.4L756.015,2012.523Zm9.228.177,12.109,13.4,94.766-96.83-11.932-12Zm-476.771,2.207,104.22-104.742,21.289,21.4L288.467,2014.907Zm9.228.177,12.109,13.4,94.766-96.83-11.932-12Zm1291.985-5.581,55.1-55.373L1661.6,1968.9l-21.529,21.638-16.613-16.7-33.568,33.741Zm9.448-.048,11.91,11.973,33.567-33.734,16.613,16.7,12.038-12.1-28.528-28.676Zm-476.991,2.432,55.1-55.373,37.923,38.117-21.53,21.638-16.612-16.7-33.568,33.741Zm9.443-.048,11.915,11.973,33.568-33.733,16.612,16.7,12.038-12.1-28.528-28.676ZM633.5,1990.922l55.1-55.373,37.923,38.118L704.989,1995.3l-16.613-16.7-33.567,33.74Zm9.443-.048,11.915,11.973,33.567-33.733,16.613,16.7,12.038-12.095-28.528-28.676Zm-476.986,2.432,55.1-55.373,37.923,38.118-21.529,21.638-16.613-16.7-33.567,33.74Zm9.445-.048,11.914,11.973,33.567-33.733,16.613,16.7,12.038-12.1L221,1947.422Zm1593.455-41.675,54.793-55.377,38.6,38.163-22.857,21.55-15.941-16.583-11.518,11.971,33.263,33.437-21.524,21.63Zm9.443-.073,45.411,45.388,12.046-12.105-33.187-33.355,20.934-21.757,16.172,16.82,12.937-12.2-28.96-28.626Zm-476.987,2.458,54.793-55.377,38.6,38.163-22.859,21.55-15.941-16.583-11.517,11.971,33.263,33.438-21.524,21.63Zm9.445-.073,45.409,45.388,12.047-12.105-33.188-33.355,20.934-21.756,16.172,16.82,12.937-12.2-28.96-28.626Zm-476.988,2.458,54.793-55.377,38.6,38.163-22.859,21.55L888.367,1944.1l-11.518,11.971,33.263,33.437-21.524,21.63Zm9.443-.073,45.411,45.388,12.046-12.1L867.482,1956.2l20.934-21.756,16.172,16.82,12.937-12.2-28.96-28.626Zm-476.986,2.457,54.793-55.377,38.6,38.163-22.859,21.55-15.939-16.583-11.519,11.971,33.263,33.437-21.524,21.63Zm9.445-.073,45.409,45.388,12.046-12.105-33.187-33.355,20.936-21.756,16.17,16.82,12.938-12.2-28.962-28.626Zm1559.479-9.274,39.4-38.334,21.093,22.636-39.513,40.345Zm9.159.38,12.212,14.347,29.865-30.5-12.116-13Zm-476.7,2,39.4-38.334,21.1,22.635-39.515,40.345Zm21.371,14.728,29.865-30.5-12.116-13-29.961,29.146Zm-488.914-12.344,39.4-38.334,21.1,22.636-39.513,40.345Zm21.371,14.728,29.865-30.5-12.116-13-29.961,29.146ZM532.52,1956.539l39.4-38.334,21.1,22.636L553.5,1981.185Zm21.37,14.728,29.865-30.5-12.119-13-29.958,29.146ZM64.971,1958.923l39.4-38.334,21.1,22.636-39.513,40.345Zm21.376,14.728,29.86-30.5-12.114-13L74.135,1959.3Zm1565.985-38.274,21.53-21.633,21.31,21.415-21.529,21.64Zm9.443-.048,11.915,11.978,12.038-12.1-11.915-11.973Zm-109.632.559,71.881-72.24,37.922,38.118-21.529,21.638-16.613-16.7-50.351,50.6Zm9.448-.048,11.911,11.978,50.351-50.6,16.613,16.7,12.037-12.1-28.528-28.671Zm-376.8,1.921,21.529-21.633,21.31,21.414-21.529,21.64Zm9.443-.048,11.915,11.978,12.038-12.1-11.915-11.973Zm-109.632.559,71.88-72.24,37.923,38.118-21.53,21.638-16.612-16.7-50.351,50.6Zm9.448-.048,11.91,11.978,50.351-50.6,16.613,16.7,12.038-12.1-28.528-28.671Zm-376.8,1.922,21.529-21.633,21.31,21.415-21.529,21.64Zm9.443-.048,11.915,11.978,12.038-12.1L738.727,1928Zm-109.632.559,71.88-72.24,37.923,38.118-21.529,21.638-16.613-16.7-50.351,50.6Zm9.445-.048,11.914,11.978,50.351-50.6,16.613,16.7,12.038-12.1-28.528-28.671Zm-376.8,1.921,21.529-21.633,21.31,21.414-21.529,21.64Zm9.443-.048,11.915,11.978,12.038-12.1-11.915-11.973Zm-109.632.559,71.88-72.24,37.923,38.118-21.529,21.638-16.613-16.7-50.351,50.6Zm9.445-.048,11.914,11.978,50.351-50.6,16.613,16.7,12.038-12.1-28.528-28.671ZM1902.9,1916.2l71.88-72.24,54.535,54.814-21.529,21.64-33.225-33.395-50.351,50.6Zm9.443-.048,11.916,11.978,50.351-50.605,33.225,33.4,12.033-12.1-45.135-45.367Zm-476.986,2.432,71.88-72.24,54.535,54.814-21.529,21.64-33.225-33.395-50.351,50.6Zm21.358,11.93,50.351-50.605,33.225,33.4,12.033-12.1-45.136-45.367-62.389,62.7ZM967.8,1920.966l71.885-72.24,54.535,54.814-21.534,21.64-33.22-33.394-50.351,50.6Zm21.363,11.93,50.351-50.605,33.22,33.4,12.038-12.1-45.136-45.367-62.389,62.7Zm-488.907-9.546,71.88-72.24,54.536,54.814-21.53,21.64-33.225-33.395-50.351,50.6Zm21.358,11.93,50.351-50.605,33.225,33.4,12.038-12.1-45.141-45.367-62.384,62.7Zm-488.9-9.546,71.88-72.24,54.537,54.814-21.531,21.64-33.225-33.395-50.351,50.6Zm21.358,11.93,50.351-50.605,33.225,33.4,12.038-12.1-45.141-45.367-62.384,62.7Zm1581.985-86.113,21.529-21.638L1707.429,1880l117.486-118.072,71.148,71.513-21.53,21.638-49.838-50.094-28.822,28.967,13.024,13.087,16.783-16.867,21.31,21.42-38.313,38.506-34.334-34.508-67.135,67.47Zm9.443-.048,61.753,62.071,67.135-67.475,34.334,34.509,28.821-28.963-11.915-11.978-16.784,16.872L1786.431,1834l38.313-38.507,49.838,50.091,12.036-12.1-61.751-62.069L1707.381,1889.5l-49.838-50.1Zm-476.986,2.432,21.529-21.638,49.838,50.091,117.486-118.072,71.148,71.512-21.53,21.638-49.838-50.094-28.822,28.967,13.024,13.087,16.783-16.867,21.31,21.42-38.313,38.506-34.334-34.509-67.135,67.47Zm9.445-.048,61.751,62.071,67.135-67.475,34.334,34.509L1370,1854.027l-11.91-11.978-16.783,16.872-22.419-22.534,38.313-38.507,49.838,50.091,12.038-12.1-61.753-62.069-117.486,118.075-49.838-50.1Zm-476.988,2.432,21.529-21.638,49.838,50.091L889.828,1766.7l71.148,71.512-21.529,21.638-49.838-50.094-28.822,28.967,13.023,13.087,16.784-16.867,21.31,21.42-38.313,38.507-34.333-34.509-67.135,67.47Zm9.443-.048,61.753,62.071,67.135-67.475,34.333,34.509,28.817-28.963-11.91-11.978-16.784,16.872-22.418-22.534,38.313-38.507,49.838,50.091,12.038-12.095-61.753-62.069L772.294,1894.266l-49.838-50.1ZM233.432,1858.7l21.529-21.638,49.838,50.091,117.486-118.072,71.148,71.512L471.9,1862.234l-49.838-50.094-28.822,28.967,13.02,13.088,16.784-16.867,21.313,21.42-38.316,38.506-34.33-34.509-67.135,67.47Zm9.443-.048,61.753,62.071,67.135-67.475,34.33,34.509,28.82-28.963L423,1846.818l-16.784,16.872L383.8,1841.155l38.313-38.507,49.838,50.091,12.033-12.095-61.748-62.069L304.751,1896.65l-49.838-50.1Zm1593.367,25.466,21.624-21.735,15.683,16.716,34.461-34.253,21.321,21.792-56.283,53.674Zm9.495-.1,27.436,26.972,46.631-44.472-11.906-12.164-34.56,34.351-15.658-16.69ZM1368.7,1886.5l21.624-21.735,15.683,16.716,34.461-34.253,21.322,21.792-56.284,53.674Zm9.5-.1,27.434,26.972,46.626-44.471-11.9-12.164-34.56,34.351-15.657-16.689Zm-477.04,2.484,21.625-21.735,15.683,16.716,34.462-34.253,21.321,21.792-56.283,53.674Zm9.5-.1,27.431,26.972,46.629-44.472-11.9-12.164-34.56,34.351-15.661-16.689Zm-477.043,2.484,21.628-21.735,15.683,16.716L505.381,1852l21.321,21.792-56.283,53.674Zm9.5-.1,27.431,26.972,46.629-44.472-11.9-12.164-34.56,34.351-15.661-16.689ZM1970.2,1816.285l21.529-21.64,71.148,71.512-21.531,21.638Zm9.443-.048,61.752,62.064,12.035-12.1-61.748-62.069Zm-476.992,2.432,21.535-21.64,71.148,71.512-21.534,21.638Zm71.2,62.016,12.038-12.1-61.748-62.069-12.038,12.1Zm-538.74-59.631,21.53-21.64,71.148,71.512-21.529,21.638Zm71.2,62.016,12.038-12.1-61.753-62.069-12.033,12.1Zm-538.74-59.631,21.529-21.64,71.15,71.512-21.531,21.638Zm71.2,62.016,12.038-12.1-61.753-62.069-12.036,12.1Zm-538.74-59.631,21.529-21.64,71.15,71.512-21.531,21.638Zm71.2,62.015,12.038-12.1L121.5,1813.673l-12.036,12.1Zm1413.722-51.688,73-73.366,37.923,38.115-21.529,21.638-16.613-16.7-51.466,51.731Zm9.445-.048,11.915,11.975,51.466-51.728,16.613,16.7,12.038-12.1-28.528-28.671Zm-476.991,2.432,73-73.366,37.923,38.114-21.53,21.639-16.613-16.7-51.471,51.731Zm9.448-.048,11.91,11.975,51.471-51.728,16.613,16.7,12.038-12.1-28.528-28.671Zm-476.991,2.432,73-73.366,37.923,38.115L739.24,1827.3l-16.613-16.7-51.471,51.731Zm9.448-.048,11.91,11.975,51.471-51.727,16.613,16.7,12.038-12.1L722.8,1777.043ZM182.3,1843.3l73-73.366,37.923,38.115L271.7,1829.688l-16.613-16.7-51.471,51.731Zm9.443-.048,11.915,11.975,51.471-51.727,16.613,16.7,12.038-12.1-28.528-28.671Zm1678.432-60.026,21.529-21.635,71.148,71.512-21.529,21.638Zm71.2,62.021,12.038-12.095-61.753-62.069-12.038,12.1Zm-255.133-10.733,55.1-55.373,21.31,21.416-55.1,55.377Zm9.443-.048,11.915,11.973,45.605-45.834-11.915-11.974Zm-293.05-48.856,21.53-21.635,71.148,71.512-21.53,21.638Zm71.2,62.021,12.033-12.095-61.749-62.069-12.038,12.095ZM1218.7,1836.9l55.1-55.373,21.31,21.417-55.1,55.377Zm9.443-.048,11.915,11.973,45.605-45.833-11.915-11.974Zm-293.051-48.856,21.529-21.635,71.148,71.513-21.529,21.638Zm71.2,62.021,12.033-12.095-61.748-62.069-12.038,12.1Zm-255.133-10.733,55.1-55.373,21.31,21.417-55.1,55.377Zm9.443-.048,11.915,11.973,45.605-45.833L806.2,1793.4Zm-293.055-48.856,21.534-21.635,71.148,71.512-21.534,21.638Zm71.2,62.021,12.038-12.1-61.748-62.069-12.038,12.095Zm-255.128-10.733,55.1-55.373,21.31,21.417-55.1,55.376Zm9.443-.048,11.915,11.973,45.605-45.833-11.915-11.974ZM0,1792.762l21.529-21.635,71.15,71.512-21.531,21.638Zm9.448-.048L71.2,1854.783l12.038-12.095-61.753-62.069ZM1519.6,1768.233l21.534-21.64,54.535,54.816-21.534,21.638Zm9.448-.048,45.136,45.373,12.038-12.1-45.136-45.367Zm-476.991,2.432,21.53-21.64,54.535,54.816-21.53,21.638Zm9.448-.048,45.135,45.372,12.038-12.1-45.141-45.367ZM584.516,1773l21.529-21.64,54.535,54.816-21.529,21.638Zm9.445-.048,45.139,45.373,12.038-12.1L606,1760.858Zm-476.988,2.432,21.529-21.64,54.537,54.816L171.508,1830.2Zm9.445-.048,45.139,45.372,12.038-12.1-45.141-45.367Zm1777.3-25.819,38.34-38.532,37.885,38.078-16.748,17.388,16.74,16.257-21.7,20.375Zm9.5-.1,45.167,44.382,11.852-11.127-16.491-16.017,16.825-17.465-28.561-28.709Zm-477.043,2.484,38.339-38.532,37.885,38.078-16.748,17.388,16.74,16.257-21.7,20.375Zm54.667,44.282,11.852-11.127-16.491-16.017,16.825-17.465-28.561-28.709-28.795,28.937Zm-522.214-41.9,38.343-38.532,37.885,38.078-16.748,17.388,16.739,16.257-21.7,20.375Zm54.67,44.282,11.852-11.127-16.492-16.017,16.825-17.465-28.561-28.709-28.8,28.937Zm-522.214-41.9,38.338-38.532,37.89,38.078L560.565,1773.6l16.739,16.257-21.7,20.375Zm54.67,44.282,11.852-11.127-16.491-16.018,16.825-17.465-28.566-28.709-28.79,28.937Zm-522.214-41.9,38.338-38.532,37.89,38.078-16.748,17.388,16.739,16.257-21.7,20.375Zm54.67,44.282,11.852-11.127-16.492-16.017,16.825-17.465-28.566-28.709-28.79,28.937Zm1665.164-36.3,21.529-21.64,21.31,21.421-21.53,21.639Zm9.443-.048,11.915,11.978,12.038-12.1-11.916-11.973Zm-126.074-49.7,21.529-21.64,49.838,50.091,33.567-33.733,21.31,21.42-55.1,55.374Zm9.443-.048,61.753,62.069,45.605-45.835-11.915-11.973-33.567,33.735-49.838-50.1Zm-93.02,17.255,21.53-21.638,33.225,33.393,16.783-16.866,21.31,21.42-38.313,38.506Zm9.448-.048,45.135,45.372,28.821-28.968-11.915-11.973-16.784,16.869-33.225-33.395Zm-276.785,34.975,21.529-21.64,21.31,21.422-21.53,21.638Zm9.443-.048,11.915,11.978,12.038-12.1-11.915-11.973Zm-126.074-49.7,21.529-21.64,49.838,50.091,33.568-33.734,21.31,21.42-55.1,55.374Zm9.445-.048,61.751,62.069L1286,1735.86l-11.915-11.973-33.568,33.735-49.838-50.1Zm-93.021,17.255,21.529-21.638,33.225,33.393,16.784-16.866,21.31,21.419-38.313,38.507Zm9.448-.048,45.135,45.373,28.822-28.968-11.915-11.973-16.784,16.869-33.225-33.395ZM818.29,1771.809l21.529-21.64,21.31,21.421L839.6,1793.229Zm9.443-.048,11.915,11.978,12.038-12.1-11.915-11.973Zm-126.074-49.7,21.529-21.64,49.838,50.091,33.567-33.734,21.31,21.42-55.1,55.374Zm9.443-.048,61.753,62.069,45.605-45.835-11.915-11.973-33.567,33.735-49.838-50.1Zm-93.019,17.255,21.529-21.638,33.225,33.393,16.784-16.866,21.31,21.42-38.313,38.507Zm9.445-.048,45.139,45.373,28.822-28.968-11.915-11.973-16.784,16.869-33.225-33.395Zm-276.781,34.975,21.529-21.64,21.31,21.422-21.529,21.638Zm9.443-.048,11.915,11.978,12.038-12.1-11.915-11.973Zm-126.074-49.7,21.529-21.64,49.838,50.091,33.567-33.734,21.31,21.42-55.1,55.374Zm9.443-.048,61.753,62.069,45.605-45.835L339,1728.655l-33.567,33.735-49.838-50.1Zm-93.019,17.255,21.529-21.638,33.225,33.393,16.784-16.866,21.31,21.42-38.313,38.507Zm9.445-.048,45.139,45.373,28.822-28.968-11.915-11.973L205.246,1762.9l-33.225-33.395Zm1676.968,8.232,71.88-72.242,21.31,21.42-71.88,72.241Zm9.443-.048,11.915,11.976,62.389-62.7-11.915-11.978Zm-476.986,2.432,71.88-72.241,21.31,21.42-71.88,72.242Zm9.443-.048,11.915,11.976,62.387-62.7-11.914-11.978ZM901.866,1754.6l71.88-72.242,21.31,21.42-71.88,72.241Zm9.443-.048,11.915,11.976,62.384-62.7L973.7,1691.85Zm-476.986,2.432,71.88-72.241,21.31,21.42-71.88,72.241Zm9.443-.048,11.915,11.977,62.384-62.7-11.91-11.978Zm1298.037-69-33.568,33.74-21.31-21.421,55.1-55.373,87.761,88.209-21.529,21.64Zm66.5,57.3,12.038-12.1-78.366-78.765-45.605,45.834,11.915,11.975,33.567-33.735Zm-534.042-54.913-33.567,33.74-21.31-21.421,55.1-55.374,87.76,88.209-21.53,21.64Zm66.5,57.3,12.038-12.1-78.366-78.765-45.605,45.834,11.915,11.974,33.568-33.735ZM806.717,1692.7l-33.567,33.74-21.31-21.421,55.1-55.373,87.761,88.208-21.53,21.64Zm66.5,57.3,12.038-12.1-78.366-78.765-45.605,45.834,11.915,11.974,33.567-33.735Zm-534.042-54.913-33.567,33.74L284.3,1707.4l55.1-55.374,87.761,88.209-21.529,21.64Zm66.5,57.3,12.038-12.1-78.366-78.765-45.605,45.834,11.915,11.975,33.567-33.735Zm1515.2-86.891,21.529-21.635,70.04,70.4-21.529,21.64Zm9.443-.048,60.645,60.956L2003,1714.3l-60.645-60.955Zm-476.986,2.432,21.529-21.635,70.04,70.4-21.529,21.64Zm70.088,60.908,12.038-12.1-60.645-60.955-12.038,12.095ZM985.779,1670.26l21.534-21.635,70.04,70.4-21.529,21.64Zm70.093,60.908,12.038-12.1-60.645-60.955-12.038,12.1Zm-537.636-58.524,21.529-21.635,70.045,70.4-21.529,21.64Zm70.093,60.908,12.033-12.1L539.717,1660.5,527.684,1672.6ZM50.693,1675.028l21.529-21.635,70.045,70.4-21.534,21.64Zm70.088,60.908,12.038-12.1-60.645-60.955-12.036,12.1Zm1666.5-69.763,21.53-21.635,33.225,33.395,12.038-12.1-33.226-33.394,21.53-21.638,33.225,33.4,33.567-33.738,21.31,21.42-88.664,89.113Zm9.443-.048,45.141,45.373,79.173-79.57-11.915-11.973-33.568,33.735-33.225-33.394-12.038,12.095,33.225,33.394-21.53,21.638-33.225-33.393Zm-209.992,34.638,16.784-16.867-16.613-16.7,21.53-21.635,37.922,38.118-38.313,38.506Zm9.619-33.616,16.608,16.7-16.779,16.867,11.91,11.974,28.821-28.963-28.528-28.675Zm-276.614,1.41,21.529-21.635,33.225,33.395,12.038-12.1-33.225-33.394,21.529-21.638,33.225,33.4,33.567-33.738,21.31,21.42-88.664,89.113Zm9.443-.048,45.141,45.372,79.173-79.57-11.915-11.973-33.567,33.735-33.225-33.395-12.038,12.1,33.225,33.394-21.529,21.638-33.225-33.393Zm-209.992,34.638,16.783-16.867-16.612-16.7,21.529-21.635,37.923,38.118-38.313,38.507Zm9.614-33.616,16.613,16.7-16.784,16.867,11.915,11.974,28.822-28.963-28.528-28.675Zm-276.609,1.41,21.529-21.635,33.225,33.394,12.038-12.1-33.225-33.394,21.53-21.638,33.225,33.4,33.567-33.738,21.31,21.42-88.664,89.113Zm9.443-.048,45.141,45.372,79.167-79.57-11.91-11.973-33.567,33.735-33.225-33.394-12.038,12.1,33.225,33.394-21.529,21.638L873.68,1658.8ZM651.65,1705.531l16.784-16.867-16.613-16.7,21.529-21.635,37.923,38.118-38.313,38.506Zm9.614-33.617,16.612,16.7-16.784,16.867,11.915,11.974,28.821-28.963L673.3,1659.819Zm-276.609,1.411,21.529-21.635,33.225,33.394,12.033-12.1-33.22-33.395,21.529-21.638,33.225,33.4,33.567-33.738,21.31,21.42-88.664,89.113Zm9.443-.048,45.141,45.373,79.168-79.57-11.91-11.973-33.567,33.735L439.7,1627.446l-12.038,12.1,33.225,33.394-21.529,21.639-33.225-33.393Zm-209.992,34.638,16.784-16.866-16.613-16.7,21.529-21.635,37.923,38.118-38.313,38.506Zm9.614-33.616,16.613,16.7-16.784,16.867,11.915,11.975,28.822-28.964L205.759,1662.2Zm1326.394-6.763,53.982-54.249,21.31,21.422-32.448,32.609,16.612,16.7-21.534,21.635Zm9.448-.048,28.523,28.675,12.038-12.1-16.613-16.7,32.453-32.609-11.916-11.974Zm-476.991,2.432,53.982-54.249,21.31,21.422-32.448,32.609,16.608,16.7-21.529,21.635Zm9.448-.048,28.523,28.675,12.038-12.1-16.613-16.7,32.448-32.609-11.91-11.975ZM585.029,1672.3l53.977-54.249,21.315,21.421-32.451,32.609,16.611,16.7-21.529,21.635Zm9.445-.048L623,1700.93l12.038-12.1-16.613-16.7,32.448-32.609-11.915-11.975Zm-476.988,2.432,53.977-54.249,21.31,21.421-32.446,32.609,16.613,16.7L155.408,1712.8Zm9.445-.048,28.526,28.675,12.038-12.095-16.613-16.7,32.448-32.609-11.915-11.975Zm1526.77-7.785,38.313-38.506,21.31,21.421-38.313,38.505Zm9.443-.048,11.915,11.978,28.821-28.967-11.915-11.975Zm-476.986,2.432,38.313-38.506,21.31,21.421-38.313,38.505Zm9.443-.048,11.915,11.978,28.821-28.967-11.915-11.974Zm-476.986,2.432,38.313-38.506,21.31,21.422-38.313,38.5Zm9.443-.048,11.915,11.978,28.821-28.967-11.915-11.975Zm-476.986,2.432,38.313-38.506,21.31,21.421-38.313,38.505Zm9.443-.048,11.915,11.978,28.822-28.967-11.915-11.974Zm1627.473-108.988,21.53-21.64,16.613,16.7,33.567-33.735,37.923,38.118-21.568,21.677-16.572-17.217-12.078,12.539,28.582,28.731L2009.51,1577l21.373,20.762-55.135,55.413Zm9.443-.048,78.366,78.765,45.561-45.8-11.858-11.513-33.6,33.214-37.868-38.058,21.5-22.318,16.648,17.3,12-12.057-28.528-28.676-33.567,33.735-16.613-16.7Zm-143.37,67.857,88.664-89.108,54.536,54.814-21.53,21.64-33.225-33.394-67.135,67.47Zm9.443-.048,11.915,11.978,67.135-67.473,33.225,33.395,12.038-12.1-45.141-45.37Zm-176.254-32.665,21.53-21.638,54.535,54.814-21.529,21.64Zm9.448-.048,45.136,45.372,12.038-12.1-45.141-45.368Zm-176.254-32.664,21.529-21.64,16.613,16.7,33.567-33.735,37.923,38.118-21.573,21.677-16.567-17.217-12.078,12.539,28.583,28.731,33.526-33.136,21.373,20.762-55.135,55.413Zm87.809,78.717,45.562-45.795-11.858-11.513-33.6,33.214-37.868-38.058,21.5-22.318,16.648,17.3,11.994-12.057-28.523-28.676-33.567,33.735-16.613-16.7-12.038,12.1Zm-221.736-10.908,88.664-89.109,54.536,54.814-21.53,21.64-33.225-33.395-67.135,67.47Zm9.443-.048,11.915,11.978,67.134-67.473,33.225,33.394,12.038-12.1-45.141-45.371Zm-176.254-32.665,21.529-21.638,54.536,54.814-21.53,21.64Zm9.443-.048,45.14,45.372,12.038-12.1-45.141-45.367ZM952.9,1569.737l21.529-21.64,16.612,16.7,33.567-33.735,37.923,38.118-21.573,21.677-16.567-17.217-12.078,12.539,28.582,28.731,33.526-33.137,21.373,20.761-55.135,55.413Zm87.809,78.717,45.562-45.795-11.858-11.513-33.6,33.213-37.868-38.058,21.5-22.318,16.648,17.3,11.994-12.057-28.523-28.676-33.567,33.735-16.613-16.7-12.038,12.1Zm-221.736-10.908,88.664-89.109,54.535,54.814-21.529,21.64L907.419,1591.5l-67.135,67.47Zm9.443-.048,11.915,11.978L907.467,1582l33.225,33.395,12.038-12.1L907.59,1557.93Zm-176.254-32.665,21.53-21.638,54.535,54.814-21.529,21.64Zm9.443-.048,45.141,45.372,12.038-12.1-45.141-45.368Zm-176.254-32.663,21.534-21.64,16.608,16.7,33.567-33.735,37.924,38.118-21.57,21.677-16.572-17.217-12.073,12.539,28.582,28.731,33.526-33.136,21.373,20.761-55.14,55.413Zm87.809,78.717,45.567-45.8-11.858-11.513-33.6,33.214L535.4,1588.686l21.495-22.318,16.653,17.3,11.995-12.057-28.528-28.676-33.567,33.735-16.608-16.7-12.038,12.1ZM351.431,1639.93l88.664-89.108,54.535,54.814-21.529,21.64-33.225-33.394-67.135,67.47Zm9.443-.048,11.915,11.978,67.135-67.474,33.225,33.395,12.033-12.1-45.136-45.371ZM184.62,1607.217l21.529-21.638,54.535,54.814-21.529,21.64Zm9.443-.048,45.141,45.372,12.038-12.1L206.1,1595.074ZM17.81,1574.505l21.529-21.64,16.613,16.7,33.567-33.735,37.924,38.118-21.569,21.677L89.3,1578.406l-12.073,12.539,28.582,28.731,33.526-33.136L160.71,1607.3l-55.14,55.413Zm87.809,78.717,45.562-45.8-11.853-11.513-33.6,33.214L67.857,1591.07l21.495-22.318,16.649,17.3,12-12.057-28.528-28.676L55.9,1579.053l-16.613-16.7-12.033,12.1Zm1598.433-36.97,21.53-21.64,21.31,21.422-21.529,21.638Zm9.443-.048,11.915,11.973,12.038-12.1-11.915-11.975Zm-476.987,2.432,21.53-21.64,21.31,21.422-21.529,21.638Zm9.443-.048,11.915,11.973,12.038-12.095-11.915-11.975Zm-476.987,2.432,21.529-21.64L811.8,1620.8l-21.529,21.638Zm9.443-.048,11.915,11.973,12.038-12.1-11.915-11.974ZM301.422,1623.4l21.529-21.64,21.31,21.422-21.529,21.638Zm9.443-.048,11.915,11.973,12.038-12.1L322.9,1611.259Zm1343.178-23.632,71.88-72.24,54.535,54.814-21.529,21.64-33.225-33.4-50.351,50.607Zm9.443-.048,11.915,11.975,50.351-50.6,33.225,33.393,12.038-12.1-45.141-45.372Zm-476.986,2.432,71.88-72.24,54.535,54.814-21.529,21.64-33.225-33.4-50.351,50.607Zm9.443-.048,11.915,11.975,50.351-50.6,33.225,33.393,12.037-12.095-45.14-45.372Zm-476.986,2.432,71.88-72.24,54.535,54.814-21.529,21.64-33.225-33.4-50.351,50.607Zm9.443-.048,11.915,11.975,50.351-50.6,33.225,33.393,12.038-12.095-45.141-45.372Zm-476.986,2.432,71.88-72.24,54.535,54.814-21.529,21.64-33.225-33.4L272.723,1628.3Zm9.443-.048,11.915,11.975,50.351-50.6,33.225,33.393,12.038-12.095-45.14-45.373ZM1604.2,1549.634,1625.734,1528l16.613,16.7,16.783-16.867,21.31,21.42-38.313,38.506Zm9.443-.048,28.528,28.671L1671,1549.293l-11.915-11.978-16.783,16.868-16.613-16.7Zm-75.127,1.5,21.529-21.64,36.819,37.005-21.534,21.638Zm9.445-.048,27.418,27.557,12.038-12.1L1560,1538.94Zm-411.3.978,21.53-21.638,16.612,16.7,16.783-16.866,21.31,21.42-38.313,38.507Zm9.445-.048,28.526,28.671,28.822-28.964-11.915-11.978-16.784,16.868-16.612-16.7Zm-75.129,1.5,21.529-21.64,36.814,37.005-21.529,21.638Zm9.443-.048,27.419,27.557,12.038-12.1-27.42-27.562Zm-411.3.977,21.529-21.638,16.613,16.7,16.784-16.866,21.31,21.42-38.313,38.507Zm9.443-.048,28.528,28.671,28.821-28.963L724,1542.083l-16.784,16.868-16.613-16.7Zm-75.127,1.5,21.529-21.64,36.814,37.005-21.529,21.638Zm9.445-.048,27.418,27.557,12.038-12.1-27.42-27.562Zm-411.3.977,21.529-21.638,16.613,16.7,16.784-16.867,21.31,21.42L239.5,1594.9Zm9.445-.048,28.526,28.671,28.822-28.964-11.915-11.978-16.784,16.868-16.613-16.7Zm-75.129,1.5,21.529-21.64,36.816,37.005L172.7,1595.244Zm9.445-.048,27.418,27.557,12.038-12.1-27.42-27.562Zm1591.517-43.92,21.529-21.64,55.644,55.932L1792.5,1570.2Zm55.692,46.437,12.038-12.1-46.249-46.485-12.038,12.1Zm-523.235-44.053,21.53-21.64,55.643,55.932-21.529,21.635ZM1325,1563.093l12.038-12.1-46.249-46.485-12.038,12.1ZM801.766,1519.04l21.53-21.64,55.644,55.932-21.529,21.635Zm55.692,46.437,12.038-12.1-46.249-46.485-12.038,12.1Zm-523.235-44.053,21.529-21.64,55.644,55.932-21.529,21.635Zm55.692,46.437,12.038-12.1L355.7,1509.279l-12.038,12.1Zm1464.85-36.131,15.782-16.978-16.14-16.794,38.553-38.432,54.739,54.25L1926.15,1534.8l-15.435-15.549-33.456,33.656Zm22.392,11.838,33.611-33.812,15.5,15.618,11.876-11.587-45.225-44.817-29.134,29.043,15.971,16.61-15.558,16.744Zm-489.935-9.454L1403,1517.135l-16.141-16.794,38.553-38.431,54.736,54.25-21.544,21.028-15.435-15.549-33.456,33.656Zm22.391,11.838,33.611-33.811,15.5,15.618,11.878-11.587-45.225-44.817-29.134,29.043,15.969,16.61-15.561,16.744ZM919.678,1536.5l15.782-16.978-16.141-16.793,38.553-38.432,54.736,54.25-21.545,21.028-15.435-15.55-33.456,33.657Zm22.393,11.838,33.609-33.811,15.5,15.618,11.876-11.588-45.223-44.817L928.7,1502.781l15.969,16.61-15.561,16.744Zm-489.936-9.454,15.781-16.978-16.141-16.793,38.553-38.432,54.736,54.25-21.545,21.028-15.435-15.549-33.456,33.656Zm22.393,11.838,33.609-33.811,15.5,15.618,11.878-11.588-45.225-44.817-29.134,29.043,15.971,16.61-15.563,16.744Zm1496.085-35.4,39.434-39.631,21.31,21.422-39.433,39.631Zm21.36,11.93,29.936-30.091L2010,1485.181l-29.941,30.087Zm-488.9-9.546,39.433-39.631,21.31,21.422-39.433,39.63Zm21.358,11.93,29.936-30.091-11.91-11.975-29.941,30.088Zm-488.9-9.546,39.428-39.631,21.315,21.421-39.432,39.631Zm21.359,11.93,29.936-30.091-11.915-11.975-29.937,30.088Zm-488.907-9.546,39.433-39.631,21.31,21.422L589.3,1543.89Zm21.363,11.93,29.936-30.091-11.915-11.975-29.936,30.088Zm-488.907-9.546,39.433-39.631,21.312,21.422-39.434,39.631Zm21.358,11.93,29.941-30.091-11.915-11.975L109.885,1524.8Zm1550.6-22.29,104.221-104.743,21.294,21.4-104.416,106.689Zm21.338,13.578,94.766-96.834-11.932-12-94.943,95.425Zm-488.88-11.194,104.22-104.743,21.289,21.4-104.41,106.689Zm21.337,13.578,94.766-96.834-11.932-12-94.943,95.425Zm-488.88-11.194,104.22-104.743,21.289,21.4L758.409,1542.605Zm21.337,13.578L853.413,1436l-11.932-12-94.943,95.424Zm-488.88-11.194L373.986,1416.9l21.289,21.4L290.861,1544.99Zm21.337,13.578,94.766-96.835-11.932-12-94.943,95.425Zm1279.876-18.987,55.1-55.373L1664,1498.98l-21.529,21.638-16.613-16.7-33.568,33.733Zm21.358,11.93,33.568-33.738,16.613,16.7,12.037-12.1-28.528-28.671-45.6,45.83Zm-488.9-9.546,55.1-55.373,37.923,38.117L1174.926,1523l-16.613-16.7-33.567,33.733Zm21.358,11.93,33.567-33.738,16.613,16.7,12.038-12.1-28.528-28.671-45.605,45.83ZM635.893,1521l55.1-55.373,37.923,38.118-21.529,21.638-16.613-16.7L657.2,1542.423Zm21.358,11.93,33.567-33.738,16.613,16.7,12.038-12.1-28.528-28.671-45.605,45.83Zm-488.9-9.546,55.1-55.373,37.923,38.118-21.529,21.638-16.613-16.7-33.567,33.733Zm21.358,11.93,33.567-33.738,16.613,16.7,12.038-12.1L223.4,1477.51l-45.6,45.83Zm1581.541-53.654,54.793-55.372,38.6,38.157L1841.788,1486l-15.941-16.58-11.517,11.973,33.263,33.432-21.525,21.635Zm54.854,45.314,12.046-12.105-33.187-33.355,20.934-21.757,16.172,16.82,12.937-12.2-28.96-28.622-45.353,45.829Zm-522.4-42.93,54.793-55.372,38.6,38.158-22.859,21.55L1358.3,1471.8l-11.517,11.973,33.263,33.432-21.524,21.635Zm54.854,45.315,12.047-12.105-33.188-33.355,20.934-21.756,16.172,16.82,12.937-12.2-28.96-28.623-45.351,45.829Zm-522.4-42.93,54.793-55.372,38.6,38.157-22.859,21.55-15.941-16.58-11.518,11.973,33.263,33.432-21.524,21.635Zm54.854,45.314,12.046-12.1-33.187-33.355,20.934-21.757,16.172,16.82,12.937-12.2-28.96-28.622-45.353,45.829Zm-522.4-42.93,54.793-55.372,38.6,38.157-22.859,21.55-15.939-16.58L411.7,1488.545l33.263,33.432-21.524,21.635Zm54.854,45.314,12.046-12.105-33.187-33.355,20.936-21.756,16.17,16.82,12.938-12.2-28.961-28.622-45.351,45.829Zm1514.07-54.662,39.4-38.334,21.093,22.635-39.513,40.346Zm21.371,14.728,29.865-30.493-12.116-13-29.961,29.149ZM1470,1481.853l39.4-38.334,21.1,22.635L1490.98,1506.5Zm21.371,14.728,29.865-30.493-12.116-13-29.961,29.149Zm-488.914-12.344,39.4-38.334,21.1,22.635-39.513,40.346Zm21.371,14.728,29.865-30.493-12.116-13-29.961,29.149Zm-488.914-12.344,39.4-38.334,21.1,22.635L555.9,1511.267Zm21.37,14.728,29.865-30.493-12.119-13L544.073,1487ZM67.366,1489l39.4-38.334,21.1,22.635-39.513,40.346Zm21.376,14.728,29.86-30.493-12.114-13-29.958,29.149Zm1565.985-38.269,21.53-21.64,21.31,21.422-21.529,21.638Zm9.443-.048,11.915,11.973,12.038-12.095-11.915-11.978Zm-109.632.559,71.881-72.242,37.922,38.118-21.529,21.635-16.613-16.7-50.351,50.607Zm9.448-.048L1575.9,1477.9l50.351-50.6,16.613,16.7L1654.9,1431.9l-28.528-28.675Zm-376.8,1.921,21.529-21.64,21.31,21.422-21.53,21.638Zm9.443-.048,11.915,11.973,12.038-12.095-11.915-11.978Zm-109.632.559,71.88-72.242,37.922,38.118-21.529,21.635-16.613-16.7-50.351,50.607Zm9.448-.048,11.91,11.973,50.351-50.6,16.613,16.7,12.038-12.095-28.528-28.674Zm-376.8,1.921,21.529-21.64,21.31,21.422-21.53,21.638Zm9.443-.048L741,1482.156l12.038-12.095-11.915-11.978Zm-109.632.559,71.88-72.242,37.923,38.118-21.529,21.635-16.613-16.7-50.351,50.607Zm9.445-.048,11.914,11.973,50.351-50.6,16.613,16.7,12.038-12.095-28.528-28.674Zm-376.8,1.921,21.529-21.64,21.31,21.422-21.529,21.638Zm9.443-.048,11.915,11.973,12.038-12.095-11.915-11.978Zm-109.632.559,71.88-72.242L261.711,1439l-21.529,21.635-16.613-16.7-50.351,50.607Zm9.445-.048,11.914,11.973,50.351-50.6,16.613,16.7,12.038-12.1-28.528-28.674Zm1743.937-26.794,71.88-72.241,54.535,54.814-21.529,21.64-33.225-33.4-50.351,50.6Zm9.443-.048,11.916,11.973,50.351-50.6L2010.225,1441l12.033-12.1-45.135-45.371Zm-476.986,2.432,71.88-72.241,54.535,54.814-21.529,21.64-33.225-33.4-50.351,50.6Zm21.358,11.925,50.351-50.6,33.225,33.394,12.033-12.1-45.135-45.371-62.389,62.7ZM970.2,1451.053l71.885-72.242,54.535,54.814-21.534,21.64-33.22-33.4-50.351,50.6Zm21.363,11.925,50.351-50.6,33.221,33.394,12.038-12.1-45.136-45.371L979.647,1451Zm-488.907-9.541,71.88-72.241,54.536,54.814-21.53,21.64-33.225-33.4-50.351,50.6Zm21.358,11.925,50.351-50.6,33.225,33.394,12.038-12.1-45.141-45.371-62.384,62.7Zm-488.9-9.541,71.88-72.241,54.537,54.814L140,1460.034l-33.225-33.4-50.351,50.6Zm21.358,11.925,50.351-50.6,33.225,33.394,12.038-12.1-45.141-45.371-62.384,62.7Zm1581.985-86.113,21.53-21.638,49.838,50.1,117.485-118.077,71.148,71.512-21.529,21.638-49.838-50.091-28.822,28.964,13.024,13.087,16.783-16.868,21.31,21.421-38.313,38.506-34.334-34.509-67.135,67.47Zm9.443-.048,61.753,62.069,67.135-67.468,34.334,34.507,28.821-28.967-11.915-11.974-16.783,16.868-22.418-22.534,38.313-38.507,49.838,50.1,12.036-12.1-61.751-62.069L1709.775,1419.58l-49.838-50.091Zm-476.986,2.432,21.529-21.638,49.838,50.1L1359.766,1294.4l71.148,71.512-21.53,21.638-49.838-50.091-28.822,28.964,13.024,13.087,16.783-16.868,21.31,21.421-38.313,38.506-34.334-34.509-67.135,67.47Zm9.445-.048,61.752,62.069,67.134-67.468,34.334,34.507,28.817-28.967-11.911-11.975L1343.7,1389l-22.419-22.534,38.313-38.506,49.838,50.1,12.038-12.1-61.753-62.068-117.486,118.075-49.838-50.091ZM703.37,1386.4l21.529-21.638,49.838,50.1,117.486-118.077,71.148,71.512-21.529,21.638L892,1339.842l-28.822,28.964,13.023,13.087,16.784-16.868,21.31,21.421-38.313,38.507-34.333-34.509-67.135,67.471Zm9.443-.048,61.753,62.069,67.135-67.468,34.333,34.507,28.817-28.966-11.91-11.975-16.784,16.868-22.418-22.534,38.313-38.506,49.838,50.1,12.038-12.1-61.753-62.068L774.688,1424.349l-49.838-50.091Zm-476.986,2.432,21.529-21.638,49.838,50.1,117.486-118.077,71.148,71.512L474.3,1392.316l-49.838-50.091-28.822,28.964,13.02,13.087,16.784-16.868,21.313,21.422-38.316,38.506-34.33-34.509-67.135,67.47Zm9.443-.048,61.753,62.069,67.135-67.468,34.33,34.507,28.82-28.967L425.394,1376.9l-16.784,16.868L386.2,1371.237l38.313-38.507,49.838,50.1,12.033-12.1-61.748-62.069L307.145,1426.732l-49.838-50.091ZM1838.636,1414.2l21.624-21.735,15.683,16.719,34.461-34.251,21.321,21.786-56.283,53.676Zm9.495-.1,27.436,26.977,46.631-44.471-11.906-12.168-34.56,34.351-15.658-16.69Zm-477.038,2.486,21.624-21.735,15.683,16.719,34.461-34.251,21.322,21.785-56.283,53.676Zm9.5-.1,27.434,26.977,46.626-44.471-11.9-12.168-34.56,34.352-15.657-16.69Zm-477.04,2.486,21.625-21.735,15.683,16.719,34.461-34.251,21.321,21.785-56.283,53.676Zm9.5-.1,27.431,26.977,46.629-44.471-11.9-12.167-34.56,34.351-15.661-16.689ZM436,1421.355l21.628-21.735,15.683,16.719,34.461-34.251,21.321,21.785-56.283,53.676Zm9.5-.1,27.431,26.977,46.629-44.471-11.9-12.167-34.56,34.351-15.661-16.689Zm1527.087-74.888,21.529-21.638,71.148,71.512-21.531,21.638Zm9.443-.048,61.751,62.069,12.035-12.1-61.748-62.066Zm-476.992,2.432,21.535-21.638,71.148,71.512-21.534,21.638Zm71.2,62.021,12.038-12.1-61.748-62.066-12.038,12.1Zm-538.74-59.636,21.53-21.638,71.148,71.512-21.53,21.638Zm71.2,62.021,12.038-12.1-61.753-62.066-12.033,12.1Zm-538.74-59.637,21.529-21.638,71.15,71.512L641.1,1425.03Zm71.2,62.021,12.038-12.1-61.753-62.066-12.036,12.1ZM102.412,1355.9l21.529-21.638,71.15,71.512-21.531,21.638Zm71.2,62.02,12.038-12.1-61.753-62.066-12.036,12.1Zm1413.722-51.691,73-73.366,37.923,38.118-21.529,21.64-16.613-16.7-51.466,51.727Zm9.445-.048,11.915,11.974,51.466-51.727,16.613,16.7,12.038-12.1-28.528-28.674Zm-476.991,2.432,73-73.365,37.923,38.118-21.53,21.64-16.612-16.7-51.471,51.728Zm9.448-.048,11.91,11.974,51.471-51.727,16.613,16.7,12.038-12.1-28.528-28.674ZM652.241,1371l73-73.366,37.923,38.118-21.529,21.64-16.613-16.7-51.471,51.728Zm9.448-.048,11.91,11.974,51.47-51.727,16.613,16.7,12.038-12.1-28.528-28.674ZM184.7,1373.383l73-73.366,37.923,38.118-21.529,21.64-16.613-16.7L206.008,1394.8Zm9.443-.048,11.915,11.974,51.471-51.727,16.613,16.7,12.038-12.1-28.528-28.674Zm1678.431-60.021,21.529-21.64,71.148,71.512-21.529,21.638Zm71.2,62.021,12.038-12.1-61.753-62.069-12.038,12.1ZM1688.636,1364.6l55.1-55.373,21.31,21.42-55.1,55.373Zm9.443-.048,11.915,11.978,45.6-45.835-11.915-11.978Zm-293.05-48.851,21.53-21.64,71.148,71.512-21.529,21.638Zm71.2,62.021,12.033-12.1-61.748-62.069-12.038,12.1Zm-255.132-10.738,55.1-55.373,21.31,21.42-55.1,55.373Zm9.443-.048,11.915,11.978,45.605-45.835-11.915-11.978Zm-293.05-48.85,21.529-21.64,71.148,71.512-21.529,21.638Zm71.2,62.021,12.033-12.1-61.748-62.069-12.038,12.1Zm-255.133-10.738,55.1-55.373,21.31,21.42-55.1,55.373Zm9.443-.048,11.915,11.978,45.605-45.835L808.6,1323.481Zm-293.055-48.851,21.534-21.64,71.148,71.512-21.534,21.638Zm71.2,62.02,12.038-12.1-61.748-62.069-12.038,12.1Zm-255.128-10.738,55.1-55.373,21.31,21.42-55.1,55.373Zm9.443-.048,11.915,11.978,45.605-45.835-11.915-11.978ZM2.394,1322.849l21.529-21.64,71.15,71.512L73.542,1394.36Zm9.448-.048L73.59,1384.87l12.038-12.1L23.875,1310.7ZM1522,1298.318l21.534-21.638,54.535,54.815-21.534,21.64Zm9.448-.048,45.136,45.367,12.038-12.095-45.135-45.373Zm-476.991,2.432,21.53-21.638,54.535,54.815-21.53,21.64Zm9.448-.048,45.135,45.367,12.038-12.1-45.141-45.372Zm-476.991,2.432,21.529-21.638,54.535,54.814-21.529,21.64Zm9.445-.048,45.139,45.368,12.038-12.1-45.14-45.372Zm-476.988,2.432,21.529-21.639,54.537,54.814-21.531,21.64Zm9.445-.048,45.139,45.367,12.038-12.095-45.141-45.372Zm1777.3-25.819,38.34-38.537,37.885,38.085-16.748,17.383,16.739,16.262-21.7,20.37Zm9.5-.1,45.167,44.385,11.852-11.126-16.491-16.017,16.825-17.47-28.561-28.709Zm-477.043,2.487,38.34-38.537,37.885,38.085-16.748,17.383,16.739,16.262-21.7,20.37Zm54.667,44.282,11.852-11.125-16.491-16.017,16.825-17.47-28.561-28.709-28.795,28.937Zm-522.214-41.9,38.343-38.537,37.885,38.085L1030.5,1301.3l16.74,16.262-21.7,20.37Zm54.67,44.282,11.852-11.125-16.491-16.017,16.825-17.47-28.561-28.709-28.8,28.937Zm-522.214-41.9,38.338-38.536,37.89,38.085-16.748,17.383,16.739,16.262-21.7,20.37Zm54.67,44.282L570,1319.912l-16.491-16.017,16.825-17.47-28.566-28.709-28.79,28.936Zm-522.214-41.9L74.274,1250.6l37.89,38.085-16.748,17.383,16.739,16.262-21.7,20.37Zm54.67,44.282,11.852-11.126-16.492-16.017,16.825-17.47L74.226,1260.1l-28.79,28.937Zm1665.164-36.3,21.529-21.638,21.31,21.42-21.529,21.635Zm9.443-.048,11.915,11.975,12.038-12.1-11.916-11.976Zm-126.074-49.705,21.53-21.64,49.838,50.1,33.568-33.738,21.31,21.42-55.1,55.373Zm9.443-.048,61.753,62.069,45.605-45.835-11.915-11.973-33.568,33.735-49.838-50.093Zm-93.02,17.255,21.53-21.638,33.225,33.4,16.784-16.866,21.31,21.415-38.313,38.506Zm9.448-.048,45.136,45.372,28.821-28.969-11.915-11.973-16.784,16.869-33.225-33.394Zm-276.785,34.978,21.529-21.638,21.31,21.42-21.53,21.635Zm9.443-.048,11.915,11.975,12.038-12.1-11.915-11.976ZM1171.6,1249.756l21.529-21.64,49.838,50.1,33.568-33.738,21.31,21.42-55.1,55.373Zm9.445-.048,61.751,62.069,45.605-45.835-11.915-11.973-33.568,33.735-49.838-50.093Zm-93.021,17.255,21.529-21.638,33.225,33.4,16.784-16.867,21.31,21.415-38.313,38.507Zm9.448-.048,45.136,45.373,28.822-28.969-11.915-11.973-16.784,16.869-33.225-33.394Zm-276.784,34.979,21.529-21.638,21.31,21.42-21.529,21.635Zm9.443-.048,11.915,11.975,12.038-12.1-11.915-11.976Zm-126.074-49.705,21.529-21.64,49.838,50.1,33.567-33.738,21.31,21.419-55.1,55.373Zm9.443-.048,61.753,62.069,45.605-45.835-11.915-11.973-33.567,33.735L725.534,1240Zm-93.019,17.255,21.529-21.638,33.225,33.4,16.784-16.867,21.31,21.415-38.313,38.507Zm9.445-.048,45.139,45.372,28.822-28.969-11.915-11.973L675.184,1290.6,641.958,1257.2Zm-276.781,34.979,21.529-21.638,21.31,21.42-21.529,21.635Zm9.443-.048L374.5,1316.2l12.038-12.1-11.915-11.976ZM236.51,1254.525l21.529-21.64,49.838,50.1,33.567-33.738,21.31,21.42-55.1,55.373Zm9.443-.048,61.753,62.069,45.605-45.835L341.4,1258.737l-33.567,33.735-49.838-50.093Zm-93.019,17.255,21.529-21.638,33.225,33.4,16.784-16.867,21.31,21.415-38.313,38.506Zm9.445-.048,45.139,45.373,28.822-28.969-11.915-11.973-16.784,16.869-33.225-33.394Zm1676.968,8.23,71.88-72.24,21.31,21.42-71.88,72.242Zm9.443-.048,11.915,11.978,62.389-62.7-11.915-11.973ZM1371.8,1282.3l71.88-72.24,21.31,21.42-71.88,72.242Zm9.443-.048,11.915,11.978,62.387-62.7-11.914-11.973Zm-476.987,2.432,71.881-72.24,21.31,21.42L925.57,1306.1Zm9.443-.048,11.915,11.978L988,1233.91l-11.91-11.973Zm-476.986,2.432,71.88-72.24,21.31,21.42-71.88,72.242Zm9.443-.048L458.076,1299l62.384-62.7-11.91-11.973Zm1298.037-69-33.568,33.735-21.31-21.422,55.1-55.373,87.761,88.209-21.529,21.638Zm66.5,57.3,12.038-12.1-78.366-78.765-45.605,45.833,11.915,11.975,33.567-33.735ZM1276.654,1220.4l-33.568,33.736-21.31-21.422,55.1-55.373,87.761,88.209-21.53,21.638Zm66.5,57.3,12.038-12.1-78.366-78.765-45.605,45.833,11.915,11.975,33.567-33.735Zm-534.042-54.913-33.567,33.735-21.31-21.422,55.1-55.373,87.761,88.208-21.529,21.639Zm66.5,57.3,12.038-12.1-78.366-78.765-45.605,45.833,11.915,11.975,33.567-33.735Zm-534.042-54.913L308,1258.907l-21.31-21.422,55.1-55.373,87.761,88.209-21.529,21.638Zm66.5,57.3,12.038-12.1L341.739,1191.6l-45.605,45.833,11.915,11.975,33.567-33.735Zm1515.2-86.891,21.529-21.64,70.04,70.4-21.53,21.64Zm9.443-.048,60.645,60.954,12.038-12.1-60.645-60.954Zm-476.986,2.432,21.529-21.64,70.04,70.4-21.53,21.64Zm70.088,60.906,12.038-12.1-60.645-60.954-12.038,12.1Zm-537.636-58.522,21.535-21.64,70.04,70.4-21.529,21.64Zm70.093,60.906,12.038-12.1L1009.66,1188.2l-12.038,12.1ZM520.63,1202.731l21.529-21.64,70.045,70.4-21.529,21.64Zm70.093,60.906,12.033-12.1-60.645-60.954-12.033,12.1ZM53.087,1205.115l21.529-21.64,70.045,70.4-21.534,21.64Zm70.088,60.906,12.038-12.1-60.645-60.954-12.036,12.1Zm1666.5-69.763,21.529-21.638,33.225,33.394,12.038-12.1-33.225-33.393,21.53-21.64L1878,1174.279l33.567-33.735,21.31,21.422-88.664,89.109Zm9.443-.048,45.141,45.369,79.172-79.565-11.915-11.978-33.567,33.735-33.225-33.395-12.038,12.1,33.225,33.393-21.529,21.64-33.225-33.4Zm-209.992,34.635,16.784-16.867-16.613-16.7,21.529-21.638,37.923,38.118-38.313,38.507Zm9.619-33.613,16.608,16.7-16.779,16.867,11.911,11.975,28.821-28.964-28.528-28.674Zm-276.614,1.41L1343.666,1177l33.225,33.394,12.038-12.1-33.225-33.393,21.529-21.64,33.225,33.394,33.568-33.735,21.31,21.421-88.664,89.109Zm9.443-.048,45.141,45.369,79.173-79.566-11.915-11.978-33.567,33.735-33.225-33.395-12.037,12.1,33.225,33.393-21.529,21.64-33.225-33.4Zm-209.992,34.635,16.783-16.867-16.612-16.7,21.529-21.638,37.923,38.118-38.313,38.507Zm9.614-33.613,16.613,16.7-16.784,16.867,11.915,11.975,28.822-28.964-28.528-28.674Zm-276.609,1.41,21.529-21.638,33.225,33.394,12.038-12.1-33.225-33.393,21.529-21.64,33.225,33.394,33.567-33.735,21.31,21.421-88.664,89.109Zm9.443-.048,45.141,45.369,79.167-79.565-11.91-11.978-33.567,33.735-33.225-33.395-12.038,12.1,33.225,33.393-21.529,21.64-33.225-33.4Zm-209.992,34.635,16.784-16.867-16.613-16.7,21.529-21.638,37.923,38.118-38.313,38.507ZM663.659,1202l16.612,16.7-16.783,16.867,11.915,11.975,28.822-28.964L675.7,1189.9ZM387.05,1203.41l21.529-21.638,33.225,33.394,12.033-12.1-33.22-33.393,21.529-21.64,33.225,33.395,33.567-33.735,21.31,21.422-88.664,89.109Zm9.443-.048,45.141,45.369,79.167-79.566-11.91-11.978-33.567,33.735L442.1,1157.529l-12.038,12.1,33.225,33.393-21.529,21.64-33.225-33.4ZM186.5,1238l16.784-16.866-16.613-16.7,21.529-21.638,37.923,38.118-38.313,38.507Zm9.614-33.613,16.613,16.7-16.784,16.867,11.915,11.975,28.822-28.964-28.528-28.674Zm1326.394-6.763,53.982-54.248,21.31,21.42-32.448,32.609,16.612,16.7-21.534,21.638Zm9.448-.048,28.523,28.671,12.038-12.1-16.613-16.7,32.453-32.609-11.915-11.978ZM1054.966,1200l53.982-54.248,21.31,21.42-32.448,32.609,16.608,16.7-21.529,21.638Zm9.448-.048,28.523,28.671,12.038-12.1-16.613-16.7,32.448-32.609-11.91-11.978Zm-476.991,2.432,53.977-54.248,21.315,21.42-32.451,32.609,16.611,16.7-21.529,21.638Zm9.445-.048,28.526,28.671,12.038-12.1-16.613-16.7,32.448-32.609-11.915-11.978Zm-476.988,2.432,53.977-54.248,21.31,21.42-32.446,32.609,16.613,16.7L157.8,1242.89Zm9.445-.048,28.526,28.671,12.038-12.1-16.613-16.7,32.448-32.609-11.915-11.978Zm1526.77-7.785,38.313-38.5,21.31,21.42-38.313,38.506Zm9.443-.048,11.915,11.974,28.821-28.963-11.915-11.978Zm-476.986,2.432,38.313-38.5,21.31,21.42-38.313,38.506Zm9.443-.048,11.915,11.975,28.822-28.963-11.915-11.978Zm-476.986,2.432,38.313-38.5,21.31,21.42-38.313,38.506Zm9.443-.048,11.915,11.974,28.821-28.963-11.915-11.978Zm-476.986,2.432,38.313-38.505,21.31,21.42-38.313,38.506Zm9.443-.048,11.915,11.975,28.822-28.963-11.915-11.978Zm1627.474-108.992,21.529-21.64,16.613,16.7,33.567-33.735,37.923,38.118-21.568,21.677-16.572-17.219-12.078,12.541,28.582,28.73,33.526-33.136,21.373,20.761-55.135,55.414Zm9.443-.048,78.366,78.765,45.562-45.792-11.858-11.518-33.6,33.219-37.868-38.062,21.5-22.314,16.648,17.3,12-12.057-28.528-28.671-33.567,33.735-16.613-16.7Zm-143.371,67.862,88.664-89.113,54.535,54.814-21.53,21.64-33.225-33.394-67.135,67.47Zm9.443-.048,11.915,11.973,67.135-67.474,33.225,33.4,12.038-12.1-45.141-45.367Zm-176.254-32.67,21.53-21.638,54.535,54.819-21.529,21.635Zm9.448-.048,45.136,45.372,12.038-12.1L1611.125,1118Zm-176.254-32.664,21.529-21.64,16.613,16.7,33.567-33.735,37.923,38.118-21.573,21.677-16.567-17.219-12.078,12.541,28.583,28.73,33.526-33.136,21.373,20.761-55.135,55.413Zm87.809,78.717,45.562-45.792-11.858-11.518-33.6,33.218L1472.881,1114l21.5-22.314,16.648,17.3,11.995-12.057-28.523-28.671-33.567,33.735-16.613-16.7-12.038,12.1Zm-221.736-10.9,88.664-89.113,54.536,54.814-21.53,21.64-33.225-33.394-67.135,67.47Zm9.443-.048,11.915,11.973L1377.4,1109.7l33.226,33.4,12.038-12.1-45.141-45.367Zm-176.254-32.67,21.529-21.638,54.536,54.819-21.53,21.635Zm9.443-.048,45.14,45.372,12.038-12.1-45.141-45.372ZM955.3,1099.819l21.529-21.64,16.612,16.7L1027,1061.143l37.923,38.118-21.573,21.677-16.567-17.219-12.078,12.541,28.582,28.731,33.526-33.137,21.373,20.761-55.135,55.414Zm87.809,78.717,45.562-45.792-11.858-11.518-33.6,33.218-37.868-38.062,21.5-22.314,16.648,17.3,11.995-12.057-28.523-28.671-33.567,33.735-16.613-16.7-12.038,12.1Zm-221.736-10.9,88.664-89.113,54.535,54.814-21.529,21.64-33.225-33.394-67.135,67.47Zm9.443-.048,11.915,11.973,67.135-67.474,33.225,33.4,12.038-12.1-45.141-45.367Zm-176.254-32.67,21.529-21.638,54.535,54.819-21.529,21.635Zm9.443-.048,45.141,45.372,12.038-12.1-45.141-45.373ZM487.747,1102.2l21.534-21.64,16.608,16.7,33.567-33.735,37.924,38.118-21.569,21.677L559.239,1106.1l-12.073,12.541,28.582,28.73,33.526-33.136L630.648,1135l-55.14,55.414Zm87.809,78.717,45.567-45.792-11.858-11.518-33.6,33.219-37.868-38.062,21.495-22.314,16.653,17.3,11.995-12.057-28.528-28.671-33.567,33.735-16.608-16.7-12.038,12.1Zm-221.731-10.9,88.664-89.113,54.535,54.814-21.529,21.64-33.225-33.394-67.135,67.47Zm9.443-.048,11.915,11.973,67.135-67.474,33.225,33.4,12.033-12.1L442.44,1090.4ZM187.014,1137.3l21.529-21.638,54.535,54.819-21.529,21.635Zm9.443-.048,45.141,45.372,12.038-12.1L208.5,1125.156ZM20.2,1104.588l21.529-21.64,16.613,16.7,33.567-33.735,37.924,38.118-21.569,21.677L91.7,1108.487l-12.073,12.541,28.582,28.73,33.526-33.137,21.373,20.762-55.14,55.413Zm87.809,78.717,45.562-45.792-11.853-11.518-33.6,33.218-37.868-38.062,21.495-22.314,16.649,17.3,12-12.057-28.528-28.671L58.3,1109.141l-16.613-16.7-12.033,12.1Zm1598.433-36.97,21.529-21.635,21.31,21.417-21.529,21.638Zm9.443-.048,11.915,11.978,12.038-12.1-11.915-11.974Zm-476.987,2.432,21.53-21.635,21.31,21.416-21.529,21.638Zm9.443-.048,11.915,11.978,12.038-12.1-11.915-11.974ZM771.359,1151.1l21.529-21.635,21.31,21.417-21.529,21.638Zm9.443-.048,11.915,11.978,12.038-12.1-11.915-11.974Zm-476.986,2.432,21.529-21.635,21.31,21.417-21.529,21.638Zm9.443-.048,11.915,11.978,12.038-12.1L325.3,1141.341Zm1343.178-23.631,71.88-72.24,54.535,54.814-21.529,21.638-33.225-33.393-50.351,50.6Zm9.443-.048,11.915,11.978,50.351-50.607,33.225,33.4,12.038-12.1-45.141-45.368Zm-476.986,2.432,71.881-72.24,54.535,54.814L1293.78,1136.4l-33.225-33.393-50.351,50.6Zm9.443-.048,11.915,11.978,50.351-50.607,33.225,33.4,12.037-12.1-45.14-45.367Zm-476.987,2.432,71.88-72.24,54.535,54.814-21.529,21.639-33.225-33.393L742.66,1156Zm9.443-.048,11.915,11.978,50.351-50.607,33.225,33.4,12.038-12.1-45.141-45.367Zm-476.986,2.432,71.88-72.24,54.535,54.815-21.529,21.638-33.225-33.393-50.351,50.6Zm9.443-.048,11.915,11.978,50.351-50.607,33.225,33.4,12.038-12.1-45.141-45.367ZM1606.6,1079.716l21.529-21.638,16.613,16.7,16.783-16.867,21.31,21.42-38.313,38.507Zm9.443-.048,28.528,28.671,28.821-28.964-11.915-11.973-16.783,16.867-16.613-16.7Zm-75.127,1.5,21.529-21.64,36.819,37.005-21.534,21.638Zm9.445-.048,27.418,27.557,12.038-12.1-27.42-27.562Zm-411.3.977,21.53-21.638,16.612,16.7,16.784-16.867,21.31,21.42-38.313,38.507Zm9.445-.048,28.526,28.671,28.822-28.964-11.915-11.973-16.784,16.867-16.612-16.7Zm-75.129,1.5,21.529-21.64,36.815,37.005-21.53,21.638Zm9.443-.048,27.419,27.557,12.038-12.1-27.42-27.562Zm-411.3.977,21.529-21.638,16.613,16.7,16.784-16.867,21.31,21.42L709.435,1122.6Zm9.443-.048,28.528,28.671,28.821-28.963L726.39,1072.17l-16.784,16.867-16.613-16.7Zm-75.127,1.5,21.529-21.64,36.815,37.005-21.53,21.638Zm9.445-.048,27.418,27.557,12.038-12.1-27.42-27.561Zm-411.3.977,21.529-21.638,16.613,16.7,16.784-16.867,21.31,21.42-38.313,38.506Zm9.445-.048,28.526,28.671,28.822-28.964-11.915-11.973-16.784,16.867-16.613-16.7Zm-75.129,1.5,21.529-21.64,36.816,37.005L175.1,1125.326Zm9.445-.048,27.418,27.557,12.038-12.095-27.42-27.562Zm1591.517-43.917,21.529-21.638,55.644,55.927-21.529,21.64Zm55.692,46.432,12.038-12.1-46.249-46.485-12.038,12.1ZM1271.7,1046.741l21.529-21.638,55.644,55.927-21.529,21.64Zm55.692,46.432,12.038-12.095-46.249-46.485-12.038,12.1ZM804.16,1049.125l21.529-21.638,55.644,55.927-21.529,21.64Zm55.692,46.432,12.038-12.1-46.249-46.485-12.038,12.1Zm-523.235-44.048,21.529-21.638L413.79,1085.8l-21.529,21.64Zm55.692,46.432,12.038-12.095L358.1,1039.361l-12.038,12.1Zm1464.85-36.125,15.782-16.983-16.14-16.79,38.553-38.435,54.739,54.25-21.548,21.029-15.434-15.551L1879.654,1083Zm22.392,11.833,33.611-33.812,15.5,15.622,11.876-11.591-45.225-44.817-29.134,29.043,15.971,16.61-15.557,16.744Zm-489.935-9.449,15.781-16.983-16.141-16.79,38.553-38.435,54.736,54.25L1461,1067.271l-15.435-15.551-33.456,33.661Zm22.391,11.833,33.611-33.812,15.5,15.622L1473,1046.253l-45.225-44.817-29.134,29.043,15.969,16.61-15.561,16.744Zm-489.935-9.449,15.782-16.983-16.141-16.79,38.554-38.435,54.736,54.25-21.545,21.028L978.023,1054.1l-33.456,33.661Zm22.393,11.833,33.609-33.812,15.5,15.622,11.876-11.591-45.223-44.817L931.1,1032.864l15.969,16.61-15.561,16.744Zm-489.936-9.449,15.782-16.983L454.17,1035.2l38.553-38.435,54.736,54.25-21.544,21.028-15.435-15.551-33.456,33.661Zm22.393,11.833,33.609-33.812,15.5,15.622,11.878-11.591L492.689,1006.2l-29.134,29.043,15.971,16.61L463.962,1068.6Zm570.083-21.538,39.429-39.632,21.315,21.422-39.435,39.626Zm9.445-.048,11.914,11.973L1098.3,1041.1l-11.915-11.978Zm916.557-13.813,39.434-39.631,21.31,21.42-39.433,39.627Zm21.36,11.925,29.936-30.087-11.91-11.978-29.941,30.092Zm-488.9-9.541,39.432-39.631,21.31,21.42-39.433,39.627Zm21.358,11.925,29.936-30.087-11.91-11.978-29.941,30.092Zm-956.45-7.157,39.433-39.631,21.31,21.42-39.428,39.627Zm21.364,11.925,29.936-30.088-11.915-11.978-29.936,30.092Zm-488.907-9.541,39.433-39.631,21.312,21.42-39.434,39.627Zm21.358,11.925,29.941-30.088L142.216,1024.8l-29.936,30.092Zm1550.6-22.29L1779.01,939.831l21.293,21.4-104.415,106.692Zm21.338,13.577,94.766-96.829-11.932-11.995-94.943,95.42Zm-488.88-11.193,104.22-104.744,21.289,21.4-104.41,106.692Zm21.337,13.577,94.766-96.829-11.932-11.995-94.943,95.42ZM739.7,1049.343,843.924,944.6,865.212,966,760.8,1072.691Zm21.337,13.577,94.766-96.829L843.875,954.1l-94.943,95.42Zm-488.88-11.193L376.38,946.982l21.289,21.4L293.255,1075.075ZM293.5,1065.3l94.766-96.829-11.932-11.995-94.943,95.42Zm1279.876-18.982,55.1-55.373,37.922,38.118-21.529,21.635-16.613-16.7-33.568,33.74Zm21.358,11.927,33.567-33.735,16.613,16.7,12.037-12.1-28.528-28.674-45.6,45.833Zm-488.9-9.542,55.1-55.373,37.923,38.118-21.529,21.635-16.612-16.7-33.568,33.74Zm21.359,11.927,33.567-33.735,16.613,16.7,12.038-12.1-28.528-28.674-45.606,45.833Zm-488.9-9.542,55.1-55.373,37.923,38.118-21.529,21.635-16.613-16.7-33.567,33.74Zm21.358,11.927,33.567-33.735,16.613,16.7,12.038-12.1-28.528-28.674-45.605,45.833Zm-488.9-9.542,55.1-55.373,37.923,38.118-21.529,21.635-16.613-16.7-33.567,33.74ZM192.1,1065.4l33.567-33.735,16.613,16.7,12.038-12.1-28.528-28.674-45.6,45.833Zm1581.541-53.654,54.793-55.372,38.6,38.161-22.857,21.55L1828.241,999.5l-11.517,11.973,33.263,33.436-21.524,21.632Zm54.854,45.318,12.046-12.105-33.187-33.354,20.934-21.762,16.172,16.82,12.937-12.194-28.96-28.626-45.353,45.829Zm-522.4-42.934,54.793-55.372,38.6,38.161-22.859,21.55-15.941-16.583-11.518,11.973,33.263,33.436-21.524,21.632Zm54.854,45.318L1373,1047.343l-33.187-33.355,20.934-21.761,16.172,16.82,12.937-12.195-28.96-28.625-45.351,45.829Zm-522.4-42.934,54.793-55.372,38.6,38.161-22.859,21.55-15.941-16.584-11.518,11.973,33.263,33.436-21.524,21.632Zm54.854,45.318,12.046-12.105-33.187-33.355L893.2,994.611l16.172,16.82,12.937-12.194-28.96-28.626L848,1016.44Zm-522.4-42.934,54.793-55.372,38.6,38.161-22.859,21.55-15.939-16.583-11.519,11.973,33.263,33.436-21.524,21.632Zm54.854,45.318,12.046-12.105-33.187-33.355,20.936-21.761,16.17,16.82,12.938-12.195L425.81,972.995l-45.351,45.829Zm578.983-49.893,39.4-38.336,36.672,38.222-38.2,39.029Zm10.47-.934,27.783,29.936,28.555-29.185-27.688-28.584Zm924.616-3.834,39.4-38.336,21.093,22.636-39.513,40.342Zm21.371,14.726,29.865-30.5-12.116-13-29.961,29.145Zm-488.914-12.342,39.4-38.336,21.1,22.635-39.515,40.342Zm21.371,14.726,29.865-30.5-12.116-13-29.961,29.145Zm-956.457-9.958,39.4-38.336,21.1,22.635-39.513,40.342Zm21.371,14.726,29.865-30.5-12.119-13-29.958,29.145ZM69.76,1019.092l39.4-38.336,21.1,22.636-39.513,40.342Zm21.376,14.726,29.86-30.5-12.114-13L78.923,1019.47Zm1007.338-26.286,71.88-72.24,37.923,38.118-21.53,21.638-16.613-16.7-50.351,50.6Zm9.448-.048,11.91,11.978,50.351-50.607,16.613,16.7,12.038-12.1-28.528-28.671Zm549.2-11.938,21.53-21.64,21.31,21.421-21.529,21.638Zm9.443-.048,11.915,11.978,12.038-12.1L1678.6,983.4Zm-109.632.559,71.88-72.242,37.922,38.118-21.529,21.638-16.613-16.7-50.351,50.6Zm9.448-.048,11.911,11.978,50.351-50.607,16.613,16.7,12.038-12.1-28.528-28.671Zm-376.8,1.921,21.529-21.64,21.31,21.421-21.529,21.638Zm9.443-.048,11.915,11.978,12.038-12.1-11.915-11.975Zm-476.986,2.432,21.529-21.64,21.31,21.421-21.529,21.638Zm9.443-.048,11.915,11.978,12.038-12.1-11.915-11.975Zm-109.632.559,71.88-72.242L731.648,966.7l-21.529,21.638-16.613-16.7-50.351,50.6Zm9.445-.048,11.914,11.978,50.351-50.607,16.613,16.7,12.038-12.1-28.528-28.671Zm-376.8,1.921,21.529-21.64,21.31,21.421L275.8,1024.118Zm9.443-.048,11.915,11.978,12.038-12.1-11.915-11.975Zm-109.632.559,71.88-72.242,37.923,38.118-21.529,21.638-16.613-16.7-50.351,50.6Zm9.445-.048,11.914,11.978,50.351-50.607,16.613,16.7,12.038-12.1-28.528-28.671Zm880.512-51.207-50.351,50.6-21.315-21.42,71.885-72.241,71.406,71.7-21.534,21.64Zm50.139,40.789,12.038-12.1-62.006-62.257-62.389,62.7,11.915,11.978,50.351-50.607Zm813.286-16.375,71.88-72.241,54.535,54.816-21.529,21.638-33.225-33.394-50.351,50.6Zm9.443-.048,11.916,11.978,50.351-50.607,33.225,33.4,12.033-12.1-45.135-45.372Zm-476.986,2.432,71.88-72.242,54.535,54.816-21.529,21.638L1511.8,949.569l-50.351,50.6Zm21.358,11.93,50.351-50.607,33.225,33.4,12.033-12.1L1511.973,916l-62.389,62.7Zm-956.45-7.162,71.88-72.242,54.535,54.816-21.53,21.638L576.71,954.338l-50.351,50.6Zm21.358,11.93,50.351-50.607,33.225,33.4,12.038-12.1L576.881,920.77l-62.384,62.7ZM37.506,985.9l71.88-72.241,54.537,54.816-21.531,21.638-33.225-33.394-50.351,50.6Zm21.358,11.93,50.351-50.607,33.225,33.4,12.038-12.1-45.141-45.372-62.384,62.7ZM1640.85,911.72l21.529-21.64,49.838,50.091L1829.7,822.1l71.148,71.516-21.529,21.635-49.838-50.091-28.822,28.967,13.024,13.087,16.783-16.867,21.31,21.42-38.313,38.507-34.334-34.512L1712,983.231Zm9.443-.048,61.753,62.064,67.135-67.468,34.333,34.507,28.822-28.963-11.915-11.978L1813.637,916.7l-22.418-22.531,38.313-38.5,49.838,50.091,12.036-12.1-61.751-62.069L1712.169,949.668l-49.838-50.1ZM1173.307,914.1l21.529-21.64,49.838,50.091L1362.16,824.48,1433.308,896l-21.53,21.635-49.838-50.091-28.822,28.967,13.024,13.087,16.783-16.867,21.31,21.42-38.313,38.507-34.334-34.512-67.135,67.473Zm9.445-.048L1244.5,976.12l67.134-67.468,34.334,34.507,28.817-28.963-11.911-11.978-16.783,16.868-22.419-22.531,38.313-38.505,49.838,50.091,12.038-12.1-61.753-62.069L1244.626,952.052l-49.838-50.1Zm-476.988,2.432,21.529-21.64,49.838,50.091L894.616,826.864l71.148,71.516-21.529,21.635L894.4,869.924l-28.822,28.967L878.6,911.978l16.784-16.867,21.31,21.42L878.38,955.038l-34.333-34.512L776.911,988Zm9.443-.048L776.96,978.5l67.135-67.468,34.334,34.507,28.817-28.963L895.334,904.6l-16.784,16.868-22.418-22.531,38.313-38.5,49.838,50.091,12.038-12.1-61.753-62.069L777.082,954.436l-49.838-50.1ZM238.22,918.872l21.529-21.64,49.838,50.091L427.073,829.248l71.148,71.516L476.692,922.4l-49.838-50.091-28.822,28.967,13.02,13.087L427.836,897.5l21.313,21.42-38.316,38.507L376.5,922.909l-67.135,67.473Zm9.443-.048,61.753,62.064,67.135-67.469,34.33,34.507,28.82-28.963-11.914-11.978L411,923.854l-22.415-22.531L426.9,862.818l49.838,50.091,12.033-12.1-61.748-62.069L309.539,956.82l-49.838-50.1ZM1841.03,944.288l21.624-21.733,15.683,16.714,34.461-34.251,21.321,21.79-56.283,53.671Zm9.495-.1,27.436,26.972,46.631-44.471-11.906-12.167-34.56,34.355-15.658-16.688Zm-477.038,2.484,21.624-21.734,15.683,16.715,34.461-34.251,21.322,21.79-56.283,53.671Zm9.5-.1,27.434,26.972,46.626-44.471-11.9-12.168-34.56,34.355-15.657-16.688Zm-477.04,2.484,21.625-21.734,15.683,16.715,34.462-34.251,21.321,21.79-56.283,53.671Zm9.5-.1,27.431,26.972L989.5,931.457l-11.9-12.168-34.56,34.355-15.661-16.688ZM438.4,951.44l21.628-21.734,15.683,16.715,34.461-34.251,21.321,21.79-56.283,53.671Zm9.5-.1,27.431,26.972,46.629-44.471-11.9-12.168L475.5,956.029l-15.661-16.688Zm592-70.125,21.529-21.633,88.019,88.4-21.53,21.638Zm9.448-.048,78.619,78.955,12.038-12.1-78.624-78.955Zm925.644-4.72,21.529-21.633,71.148,71.511-21.531,21.64Zm9.443-.048,61.751,62.069,12.035-12.095L1996.465,864.3Zm-476.992,2.432L1528.97,857.2l71.148,71.511-21.534,21.64Zm71.2,62.021,12.038-12.1-61.748-62.069-12.038,12.095ZM572.349,883.6l21.529-21.633,71.15,71.511L643.5,955.117Zm71.2,62.021,12.038-12.1L593.83,871.456l-12.036,12.1ZM104.806,885.984l21.529-21.633,71.15,71.511L175.954,957.5ZM176,948l12.038-12.095L126.287,873.84l-12.036,12.1Zm1413.723-51.686,73-73.371,37.923,38.118L1679.115,882.7l-16.613-16.7-51.466,51.727Zm9.445-.048,11.915,11.973,51.466-51.727,16.613,16.7,12.038-12.1-28.528-28.671ZM1122.178,898.7l73-73.371,37.923,38.118-21.529,21.638-16.613-16.7-51.471,51.727Zm9.448-.048,11.91,11.973,51.471-51.727,16.613,16.7,12.038-12.1-28.528-28.671Zm-476.991,2.432,73-73.371,37.923,38.118-21.529,21.638-16.613-16.7L675.945,922.5Zm9.448-.048,11.91,11.973,51.471-51.727,16.613,16.7,12.038-12.1L727.587,837.21ZM187.092,903.47l73-73.371,37.923,38.118-21.529,21.638-16.613-16.7L208.4,924.887Zm9.443-.048L208.45,915.4l51.471-51.727,16.613,16.7,12.038-12.1-28.528-28.671ZM1874.966,843.4l21.529-21.64,71.148,71.516-21.529,21.635Zm71.2,62.021,12.038-12.1-61.753-62.069-12.038,12.1ZM1691.03,894.682l55.1-55.377,21.31,21.42-55.1,55.373Zm9.443-.048,11.915,11.974,45.605-45.835L1746.079,848.8Zm-293.05-48.854,21.53-21.64,71.148,71.516-21.529,21.635Zm71.2,62.021,12.033-12.1L1428.9,833.634l-12.038,12.1Zm-255.133-10.734,55.1-55.376,21.31,21.42-55.1,55.373Zm9.443-.048,11.915,11.975,45.605-45.835-11.915-11.973ZM939.88,848.164l21.529-21.64,71.148,71.516-21.529,21.635Zm71.2,62.02,12.033-12.1-61.748-62.069-12.038,12.1ZM755.944,899.45l55.1-55.377,21.31,21.42-55.1,55.373Zm9.443-.048L777.3,911.376l45.605-45.835-11.915-11.973ZM472.331,850.548l21.534-21.64,71.148,71.516-21.534,21.635Zm71.2,62.021,12.038-12.1L493.817,838.4,481.78,850.5ZM288.4,901.834l55.1-55.377,21.31,21.42-55.1,55.373Zm9.443-.048,11.915,11.975,45.605-45.835-11.915-11.973ZM4.788,852.932l21.529-21.64,71.15,71.516L75.936,924.442Zm9.448-.048,61.748,62.069,12.038-12.1L26.269,840.787ZM1524.391,828.4l21.534-21.638,54.535,54.814-21.534,21.638Zm9.448-.048,45.135,45.372,12.038-12.1-45.136-45.368Zm-476.992,2.432,21.529-21.638,54.535,54.814L1111.382,885.6Zm9.448-.048,45.135,45.372,12.038-12.1-45.14-45.368ZM589.3,833.168l21.529-21.638,54.535,54.814-21.53,21.638Zm9.445-.048,45.139,45.372,12.038-12.1-45.141-45.368Zm-476.988,2.432,21.529-21.638,54.537,54.814L176.3,890.367Zm9.445-.048,45.139,45.372,12.038-12.1-45.141-45.368Zm1777.3-25.819,38.34-38.532,37.885,38.078-16.748,17.388,16.739,16.259-21.7,20.373Zm9.5-.1,45.167,44.382,11.852-11.125-16.492-16.017,16.825-17.467L1946.8,780.644Zm-477.043,2.484,38.34-38.532,37.885,38.078L1500.44,829l16.74,16.259-21.7,20.373Zm54.667,44.282,11.852-11.125-16.491-16.017,16.825-17.467-28.561-28.714-28.795,28.942Zm-522.214-41.9,38.343-38.532L1049.645,814,1032.9,831.388l16.739,16.259-21.7,20.373Zm54.67,44.282,11.852-11.125-16.491-16.017,16.825-17.467-28.561-28.714-28.8,28.942Zm-522.214-41.9,38.338-38.532,37.89,38.078-16.748,17.388,16.739,16.259-21.7,20.373Zm54.67,44.282L572.4,849.994,555.9,833.977l16.825-17.467L544.163,787.8l-28.79,28.942ZM38.33,819.222,76.669,780.69l37.89,38.078L97.81,836.156l16.739,16.259-21.7,20.373ZM93,863.5l11.852-11.125L88.361,836.361l16.825-17.467L76.62,790.18,47.83,819.122Zm1665.164-36.3,21.529-21.638L1801,826.99l-21.529,21.64Zm9.443-.048,11.915,11.975,12.038-12.1-11.916-11.973Zm-126.074-49.7,21.53-21.638,49.838,50.091,33.567-33.735,21.31,21.42-55.1,55.375Zm9.443-.048,61.753,62.065,45.605-45.832-11.915-11.978-33.568,33.74-49.838-50.1Zm-93.02,17.255,21.53-21.638,33.226,33.395,16.783-16.868,21.31,21.421-38.313,38.507Zm9.448-.048,45.136,45.369,28.821-28.964-11.915-11.975-16.784,16.868-33.225-33.4Zm-276.785,34.975,21.529-21.638,21.31,21.42-21.529,21.64Zm9.443-.048,11.915,11.975,12.038-12.1L1312.1,817.449Zm-126.074-49.7L1195.52,758.2l49.838,50.091,33.568-33.735,21.31,21.42-55.1,55.375Zm9.445-.048,61.751,62.065,45.605-45.832-11.915-11.978-33.568,33.74-49.838-50.1Zm-93.021,17.255,21.529-21.638,33.225,33.394,16.784-16.868,21.31,21.421-38.313,38.507Zm9.448-.048L1145,842.37l28.822-28.964L1161.9,801.432,1145.121,818.3,1111.9,784.9ZM823.078,831.976l21.529-21.638,21.31,21.42L844.388,853.4Zm9.443-.048L844.437,843.9l12.038-12.1-11.915-11.973Zm-126.074-49.7,21.529-21.638,49.838,50.091,33.567-33.735,21.31,21.42-55.1,55.375Zm9.443-.048,61.753,62.065,45.605-45.832-11.915-11.978-33.567,33.74-49.838-50.1Zm-93.019,17.255L644.4,777.795l33.225,33.395,16.784-16.868,21.31,21.421-38.313,38.507Zm9.445-.048,45.139,45.369,28.822-28.964-11.915-11.975-16.784,16.868-33.225-33.4ZM355.535,834.36l21.529-21.638,21.31,21.42-21.529,21.64Zm9.443-.048,11.915,11.975,12.038-12.1-11.915-11.973ZM238.9,784.61l21.529-21.638,49.838,50.091,33.567-33.735,21.31,21.42-55.1,55.375Zm9.443-.048L310.1,846.627,355.706,800.8l-11.915-11.978-33.567,33.74-49.838-50.1Zm-93.019,17.255,21.529-21.638,33.225,33.395,16.784-16.868,21.31,21.421-38.313,38.507Zm9.445-.048,45.139,45.369,28.822-28.964L226.818,806.2l-16.784,16.868-33.225-33.4ZM1841.741,810l71.88-72.241,21.31,21.421-71.88,72.24Zm9.443-.048,11.915,11.973,62.389-62.7-11.915-11.978ZM1374.2,812.385l71.88-72.242,21.31,21.421-71.88,72.24Zm9.443-.048,11.915,11.973,62.387-62.7-11.914-11.978Zm-476.986,2.432,71.881-72.242,21.31,21.421-71.88,72.24Zm9.443-.048,11.915,11.973L990.4,764l-11.91-11.978Zm-476.986,2.432,71.88-72.242,21.31,21.421-71.88,72.24Zm9.443-.048,11.915,11.973,62.384-62.7L510.943,754.4Zm1298.037-69-33.567,33.735-21.31-21.417,55.1-55.378,87.761,88.214-21.529,21.638Zm66.5,57.3,12.038-12.1-78.365-78.767-45.605,45.835,11.915,11.973,33.567-33.735Zm-534.042-54.913-33.567,33.735-21.31-21.417,55.1-55.378,87.761,88.214-21.53,21.638Zm66.5,57.3,12.038-12.1-78.366-78.767-45.605,45.835,11.915,11.973,33.567-33.735ZM811.5,752.87l-33.567,33.735-21.31-21.417,55.1-55.378,87.761,88.214-21.53,21.638Zm66.5,57.3,12.038-12.1-78.366-78.767-45.605,45.835,11.915,11.973,33.567-33.735ZM343.962,755.255,310.394,788.99l-21.31-21.417,55.1-55.378,87.761,88.214-21.529,21.638Zm66.5,57.3,12.038-12.1L344.133,721.69l-45.605,45.835L310.443,779.5l33.567-33.735Zm1515.2-86.893,21.529-21.638,70.04,70.4L1995.7,796.062Zm9.443-.048,60.645,60.956,12.038-12.1-60.645-60.956Zm-476.986,2.432,21.529-21.638,70.04,70.4-21.529,21.638Zm70.088,60.908,12.038-12.095L1479.6,715.9,1467.559,728ZM990.568,730.427l21.535-21.638,70.04,70.4-21.529,21.638Zm70.093,60.908,12.038-12.1-60.645-60.956-12.038,12.1ZM523.024,732.811l21.529-21.638,70.045,70.4-21.529,21.638Zm70.093,60.908,12.033-12.095-60.645-60.956-12.033,12.095ZM55.481,735.2l21.529-21.638,70.045,70.4L125.521,805.6ZM125.569,796.1l12.038-12.1L76.962,723.052l-12.036,12.1Zm1666.5-69.763L1813.6,704.7l33.225,33.4,12.038-12.1-33.226-33.393,21.53-21.64,33.225,33.394,33.567-33.735,21.31,21.421-88.664,89.108Zm9.443-.048,45.14,45.372L1925.83,692.1l-11.915-11.975-33.567,33.735-33.225-33.394-12.038,12.1,33.225,33.393-21.529,21.64L1813.555,714.2Zm-209.992,34.64,16.784-16.872-16.613-16.7,21.529-21.638,37.923,38.118-38.313,38.507Zm9.619-33.618,16.608,16.7-16.779,16.871,11.911,11.973L1641.7,743.89l-28.528-28.671Zm-276.614,1.41,21.53-21.638,33.225,33.4,12.038-12.1L1358.1,694.991l21.529-21.64,33.225,33.394,33.567-33.735,21.31,21.421-88.664,89.108Zm9.443-.048,45.14,45.372,79.173-79.568-11.915-11.975L1412.8,716.241l-33.225-33.394-12.038,12.1,33.225,33.393-21.53,21.64-33.225-33.394Zm-209.992,34.64,16.783-16.872-16.613-16.7,21.529-21.638,37.923,38.118-38.313,38.506ZM1133.6,729.7l16.613,16.7-16.784,16.871,11.915,11.973,28.822-28.967L1145.634,717.6Zm-276.609,1.411,21.529-21.638,33.225,33.4,12.038-12.1-33.225-33.393,21.529-21.64L945.31,709.13l33.567-33.735,21.31,21.421-88.664,89.108Zm9.443-.048,45.141,45.372,79.167-79.568-11.91-11.975-33.567,33.735L912.036,685.23,900,697.327l33.225,33.393-21.529,21.64-33.225-33.394ZM656.439,765.7l16.784-16.872-16.613-16.7,21.529-21.638,37.923,38.118-38.313,38.507Zm9.614-33.618,16.612,16.7-16.784,16.871L677.8,777.625l28.822-28.967-28.528-28.671Zm-276.609,1.41,21.529-21.638,33.225,33.4,12.033-12.1-33.22-33.393,21.529-21.64,33.225,33.394,33.567-33.735,21.31,21.421L443.98,788.309Zm9.443-.048,45.141,45.372L523.2,699.248l-11.91-11.975-33.567,33.735-33.225-33.394-12.038,12.1L465.68,733.1l-21.529,21.64-33.225-33.394ZM188.9,768.084l16.784-16.872-16.613-16.7L210.6,712.876l37.923,38.118L210.205,789.5Zm9.614-33.618,16.613,16.7-16.784,16.872,11.915,11.973,28.822-28.967-28.528-28.671ZM1524.9,727.7l53.982-54.249,21.31,21.42-32.448,32.611,16.612,16.7-21.534,21.638Zm9.448-.048,28.523,28.674,12.038-12.1-16.613-16.7,32.453-32.611-11.915-11.973Zm-476.992,2.432,53.982-54.249,21.31,21.42L1100.2,729.87l16.608,16.7L1095.283,768.2Zm9.448-.048,28.523,28.674,12.038-12.1-16.613-16.7,32.448-32.611-11.91-11.973Zm-476.991,2.432,53.977-54.249,21.315,21.42-32.451,32.611,16.611,16.7L627.74,770.589Zm9.445-.048L627.788,761.1,639.826,749l-16.613-16.7,32.448-32.611-11.915-11.973Zm-476.988,2.432,53.977-54.249,21.31,21.42-32.446,32.611,16.613,16.7L160.2,772.973Zm9.445-.048,28.526,28.674,12.038-12.1-16.613-16.7,32.448-32.611L176.2,690.1Zm1526.77-7.787,38.313-38.5,21.31,21.42L1679.8,748.443Zm9.443-.048,11.916,11.978,28.822-28.967-11.915-11.973Zm-476.986,2.432,38.313-38.5,21.31,21.42-38.313,38.507Zm9.443-.048,11.915,11.978,28.822-28.967L1229.21,700.4ZM723.4,731.79l38.313-38.5,21.31,21.42-38.313,38.507Zm9.443-.048,11.915,11.978,28.821-28.967L761.667,702.78Zm-476.986,2.432,38.313-38.5,21.31,21.42L277.169,755.6Zm9.443-.048L277.217,746.1l28.822-28.967-11.915-11.973ZM1892.776,625.132l21.529-21.635,16.613,16.7,33.567-33.735,37.923,38.113-21.568,21.678-16.572-17.213-12.078,12.539,28.582,28.731,33.526-33.137,21.373,20.758-55.135,55.417Zm9.443-.048,78.366,78.767,45.562-45.792-11.858-11.513-33.6,33.213L1942.818,641.7l21.5-22.319,16.648,17.3,12-12.062-28.528-28.669-33.567,33.733-16.613-16.7Zm-143.37,67.864,88.664-89.11,54.535,54.816-21.53,21.638-33.225-33.4-67.135,67.473Zm9.443-.048,11.915,11.973,67.135-67.47,33.225,33.394,12.038-12.1-45.14-45.373Zm-176.254-32.665,21.53-21.64L1668.1,693.41l-21.529,21.638Zm9.448-.048,45.136,45.367,12.038-12.1-45.141-45.372Zm-176.254-32.67,21.53-21.635,16.613,16.7,33.567-33.735,37.923,38.113-21.573,21.678-16.567-17.213-12.079,12.539,28.583,28.731,33.526-33.137,21.373,20.758-55.135,55.417Zm87.809,78.719,45.562-45.792-11.858-11.513-33.6,33.213-37.868-38.057,21.5-22.319,16.648,17.3,11.995-12.062-28.523-28.669-33.567,33.733-16.613-16.7-12.038,12.1Zm-221.736-10.9,88.664-89.11,54.536,54.816-21.53,21.638-33.225-33.4-67.135,67.473Zm9.443-.048,11.915,11.973,67.134-67.47,33.225,33.394,12.038-12.1-45.141-45.372Zm-176.254-32.665,21.529-21.64,54.536,54.816-21.53,21.638Zm9.443-.048,45.141,45.367,12.038-12.1-45.141-45.372ZM957.689,629.9l21.529-21.635,16.612,16.7,33.567-33.735,37.923,38.113-21.573,21.678-16.567-17.213L1017.1,646.345l28.582,28.731,33.526-33.137,21.373,20.758-55.135,55.417Zm87.809,78.719,45.562-45.792L1079.2,651.314l-33.6,33.213-37.868-38.057,21.5-22.319,16.648,17.3,11.995-12.062L1029.35,600.72l-33.567,33.733-16.613-16.7-12.038,12.1Zm-221.736-10.9,88.664-89.11,54.535,54.816L945.432,685.06l-33.225-33.4-67.135,67.473Zm9.443-.048,11.915,11.973,67.135-67.47,33.225,33.394,12.038-12.1L912.378,618.1ZM656.951,665l21.53-21.64,54.535,54.816-21.529,21.638Zm9.443-.048,45.141,45.367,12.038-12.1-45.141-45.372Zm-176.254-32.67,21.534-21.635,16.608,16.7,33.567-33.735,37.924,38.113L578.205,653.4,561.634,636.19,549.56,648.729l28.582,28.731,33.526-33.137,21.373,20.758L577.9,720.5ZM577.95,711l45.567-45.792L611.659,653.7l-33.6,33.213-37.868-38.057,21.495-22.319,16.653,17.3,11.995-12.062L561.8,603.1l-33.567,33.733-16.608-16.7-12.038,12.1ZM356.219,700.1l88.664-89.11,54.535,54.816-21.529,21.638-33.225-33.4-67.135,67.473Zm9.443-.048,11.915,11.973,67.135-67.47,33.225,33.394,12.033-12.1-45.136-45.372ZM189.408,667.387l21.529-21.64,54.535,54.816L243.944,722.2Zm9.443-.048,45.141,45.367,12.038-12.1-45.141-45.372ZM22.6,634.668l21.529-21.635,16.613,16.7L94.307,596l37.924,38.113-21.569,21.678L94.09,638.574,82.017,651.113,110.6,679.844l33.526-33.137L165.5,667.465l-55.14,55.417Zm87.809,78.719L155.969,667.6l-11.853-11.513-33.6,33.213L72.645,651.239l21.495-22.319,16.649,17.3,12-12.062L94.259,605.488,60.692,639.221l-16.613-16.7-12.033,12.1ZM1708.84,676.42l21.529-21.638,21.31,21.42-21.529,21.64Zm9.443-.048,11.915,11.975,12.038-12.1-11.915-11.978ZM1241.3,678.8l21.53-21.638,21.31,21.42-21.529,21.64Zm9.443-.048,11.915,11.975,12.038-12.1-11.915-11.978Zm-476.987,2.432,21.529-21.638,21.31,21.42-21.529,21.64Zm9.443-.048,11.915,11.975,12.038-12.1L795.234,669.04ZM306.21,683.572l21.529-21.638,21.31,21.42-21.529,21.64Zm9.443-.048L327.568,695.5l12.038-12.1-11.915-11.978Zm1343.178-23.63,71.88-72.242,54.535,54.814-21.53,21.635-33.225-33.394-50.351,50.607Zm9.443-.048,11.915,11.973,50.351-50.6,33.225,33.394,12.038-12.1-45.141-45.371Zm-476.986,2.432,71.88-72.242L1317.7,644.85l-21.529,21.635-33.225-33.395L1212.6,683.7Zm9.443-.048,11.915,11.973L1263,623.6,1296.222,657l12.037-12.1-45.14-45.371Zm-476.987,2.432,71.88-72.242,54.535,54.814L828.63,668.869l-33.225-33.395-50.351,50.607Zm9.443-.048L745.1,676.587l50.351-50.6,33.225,33.394,12.038-12.1-45.141-45.371ZM256.2,667.046l71.88-72.242,54.535,54.814-21.529,21.635-33.225-33.394-50.351,50.607Zm9.443-.048,11.915,11.973,50.351-50.6,33.225,33.395,12.038-12.1L328.033,604.3Zm1343.349-57.2,21.53-21.635,16.613,16.7,16.784-16.868,21.31,21.416-38.313,38.507Zm9.443-.048,28.528,28.674,28.821-28.967-11.915-11.973-16.783,16.867-16.613-16.7Zm-75.127,1.5,21.529-21.64,36.82,37-21.534,21.64Zm9.444-.048,27.418,27.56,12.038-12.1-27.42-27.557Zm-411.3.977,21.53-21.635,16.613,16.7,16.784-16.868,21.31,21.416L1179.372,650.3Zm9.445-.048,28.526,28.674,28.822-28.967-11.915-11.973-16.784,16.867-16.612-16.7Zm-75.129,1.5L1097.295,592l36.814,37-21.529,21.64Zm9.443-.048,27.42,27.56,12.038-12.1-27.42-27.557Zm-411.3.977,21.529-21.635,16.613,16.7,16.784-16.868,21.31,21.416-38.313,38.507Zm9.443-.048,28.528,28.674L740.7,614.225l-11.915-11.973L712,619.119l-16.613-16.7Zm-75.127,1.5,21.529-21.64,36.815,37-21.53,21.64Zm9.445-.048,27.418,27.56,12.038-12.1L629.7,603.876Zm-411.3.977,21.529-21.635,16.613,16.7,16.784-16.868,21.31,21.416-38.313,38.507Zm9.445-.048,28.526,28.674,28.822-28.967L261.24,604.636,244.457,621.5l-16.613-16.7Zm-75.129,1.5,21.529-21.64,36.816,37-21.531,21.64Zm9.445-.048,27.418,27.56,12.038-12.1L162.16,606.26ZM1741.641,574.44l21.529-21.64,55.644,55.929-21.529,21.638Zm55.692,46.437,12.038-12.1-46.249-46.482-12.038,12.1ZM1274.1,576.823l21.53-21.64,55.644,55.928-21.529,21.638Zm55.692,46.437,12.038-12.1-46.249-46.482-12.038,12.1ZM806.554,579.208l21.529-21.64L883.727,613.5,862.2,635.134Zm55.692,46.437,12.038-12.1-46.249-46.482L816,579.159ZM339.011,581.592l21.529-21.64,55.644,55.928-21.529,21.638ZM394.7,628.028l12.038-12.1-46.249-46.482-12.038,12.1ZM1859.553,591.9l15.782-16.978-16.141-16.794,38.554-38.43,54.739,54.245-21.548,21.032L1915.5,579.424l-33.456,33.656Zm22.392,11.84,33.611-33.817,15.5,15.622,11.876-11.587-45.225-44.82-29.134,29.046,15.971,16.61-15.557,16.741Zm-489.935-9.456,15.781-16.978-16.141-16.794,38.553-38.43,54.736,54.245L1463.4,597.357l-15.435-15.549L1414.5,615.464Zm22.391,11.84,33.611-33.817,15.5,15.622,11.878-11.587-45.225-44.82-29.134,29.046L1417,577.175l-15.561,16.741Zm-489.935-9.456,15.782-16.978-16.141-16.794,38.553-38.43,54.736,54.245-21.545,21.032-15.435-15.549-33.456,33.656ZM946.86,608.5l33.609-33.817,15.5,15.622,11.876-11.587L962.626,533.9l-29.134,29.047,15.969,16.61L933.9,596.3Zm-489.936-9.456L472.7,582.071l-16.141-16.794,38.553-38.43,54.736,54.245-21.545,21.032-15.435-15.549-33.456,33.656Zm22.393,11.84,33.609-33.817,15.5,15.622,11.878-11.588-45.225-44.82-29.134,29.047,15.971,16.61-15.563,16.741Zm1496.085-35.4,39.434-39.631,21.31,21.42-39.433,39.631Zm21.36,11.925,29.936-30.087-11.91-11.973-29.941,30.088Zm-488.9-9.541,39.433-39.631,21.31,21.42L1529.17,599.29Zm21.358,11.925,29.936-30.088-11.91-11.973L1517.3,577.822Zm-488.9-9.541,39.428-39.631,21.315,21.42-39.433,39.631Zm21.358,11.925,29.936-30.087L1079.7,550.118l-29.936,30.087Zm-488.907-9.541L612.2,543.007l21.31,21.42-39.428,39.631Zm21.363,11.925,29.936-30.087L612.153,552.5,582.217,582.59Zm-488.907-9.541,39.433-39.631,21.312,21.42-39.434,39.631Zm21.358,11.925,29.941-30.088L144.61,554.886l-29.936,30.087Zm1550.6-22.287L1781.4,469.918l21.293,21.4L1698.282,598.005Zm21.338,13.578,94.766-96.834-11.932-12-94.943,95.425Zm-488.88-11.194L1313.861,472.3l21.289,21.4-104.41,106.689Zm21.337,13.578,94.766-96.835-11.932-12-94.943,95.425ZM742.1,579.428l104.22-104.742,21.289,21.4L763.2,602.773Zm21.337,13.578L858.2,496.172l-11.932-12L751.326,579.6Zm-488.88-11.194L378.774,477.07l21.289,21.4L295.649,605.157Zm21.337,13.578,94.766-96.835-11.932-12-94.943,95.425ZM1575.768,576.4l55.1-55.373,37.922,38.118-21.529,21.638-16.613-16.7-33.567,33.735Zm21.358,11.93,33.567-33.738,16.613,16.7,12.038-12.1-28.528-28.674-45.6,45.834Zm-488.9-9.546,55.1-55.373,37.923,38.118-21.53,21.638-16.613-16.7-33.567,33.735Zm21.358,11.93,33.567-33.738,16.612,16.7,12.038-12.1-28.528-28.674-45.605,45.833Zm-488.9-9.546,55.1-55.373L733.7,563.916l-21.529,21.638-16.613-16.7-33.567,33.735Zm21.358,11.93,33.567-33.738,16.613,16.7,12.038-12.095L695.729,535.29l-45.605,45.833Zm-488.9-9.546,55.1-55.373L266.157,566.3l-21.529,21.638-16.613-16.7-33.567,33.735Zm21.358,11.93,33.567-33.738,16.613,16.7,12.038-12.1-28.528-28.674-45.6,45.833Zm1581.541-53.654,54.793-55.372,38.6,38.157-22.857,21.55-15.941-16.58-11.517,11.97,33.263,33.436-21.524,21.632Zm54.854,45.314,12.046-12.1-33.187-33.355,20.934-21.757,16.172,16.82,12.937-12.2-28.96-28.626-45.353,45.834Zm-522.4-42.93,54.793-55.372,38.6,38.157-22.859,21.55-15.941-16.58-11.518,11.969,33.263,33.436-21.524,21.632Zm54.854,45.314,12.046-12.1-33.187-33.355,20.934-21.757,16.172,16.82,12.937-12.2-28.96-28.626-45.351,45.834Zm-522.4-42.93,54.793-55.372,38.6,38.157-22.859,21.55-15.941-16.58-11.518,11.969,33.263,33.436L895.77,601.393Zm54.854,45.315,12.046-12.1-33.187-33.355L895.6,524.7l16.172,16.82,12.937-12.2-28.96-28.626-45.353,45.834Zm-522.4-42.93L428.2,493.612l38.6,38.157-22.859,21.55-15.939-16.58-11.519,11.97,33.263,33.436-21.524,21.632ZM428.262,594.3l12.046-12.105-33.187-33.355,20.936-21.757,16.17,16.82,12.938-12.2L428.2,503.077l-45.351,45.834Zm1514.07-54.662,39.4-38.334,21.093,22.636-39.513,40.345Zm21.371,14.728,29.865-30.491-12.116-13-29.961,29.15ZM1474.788,542.02l39.4-38.334,21.1,22.635-39.515,40.346Zm21.371,14.728,29.865-30.491-12.116-13-29.961,29.15ZM1007.245,544.4l39.4-38.334,21.1,22.635-39.513,40.346Zm21.371,14.728,29.865-30.491-12.116-13-29.961,29.15ZM539.7,546.788l39.4-38.334,21.1,22.636-39.513,40.345Zm21.371,14.728,29.865-30.491-12.119-13-29.958,29.15ZM72.154,549.172l39.4-38.334,21.1,22.636L93.14,573.819ZM93.529,563.9l29.86-30.491-12.114-13-29.958,29.15Zm1565.985-38.269,21.53-21.638,21.31,21.42-21.529,21.64Zm9.443-.048,11.915,11.973,12.038-12.1L1681,513.483Zm-109.632.559,71.88-72.245,37.923,38.118L1647.6,513.654l-16.613-16.7-50.351,50.607Zm9.448-.048,11.91,11.973,50.351-50.6,16.613,16.7,12.038-12.1-28.528-28.671Zm-376.8,1.921,21.529-21.638,21.31,21.42-21.53,21.64Zm9.443-.048,11.915,11.973,12.038-12.1-11.915-11.978Zm-109.632.559,71.88-72.245,37.923,38.118-21.53,21.638-16.613-16.7-50.351,50.607Zm9.448-.048,11.91,11.973,50.351-50.6,16.612,16.7,12.038-12.1-28.528-28.671Zm-376.8,1.921,21.529-21.638,21.31,21.42-21.529,21.64Zm9.443-.048,11.915,11.973,12.038-12.1-11.915-11.978Zm-109.632.559,71.88-72.245,37.923,38.118-21.529,21.638-16.613-16.7-50.351,50.607Zm9.445-.048L645.6,542.835l50.351-50.6,16.613,16.7,12.038-12.1L696.071,468.16Zm-376.8,1.921,21.529-21.638,21.31,21.42L278.2,554.205Zm9.443-.048,11.915,11.973,12.038-12.1-11.915-11.978Zm-109.632.559,71.88-72.245L266.5,499.167,244.97,520.806l-16.613-16.7-50.351,50.607Zm9.445-.048,11.914,11.973,50.351-50.6,16.613,16.7,12.038-12.1-28.528-28.671Zm1743.937-26.793,71.881-72.245,54.535,54.814-21.53,21.64-33.225-33.394-50.351,50.6Zm9.443-.048,11.916,11.973,50.351-50.6,33.225,33.394,12.033-12.1L1981.911,443.7Zm-476.986,2.432,71.88-72.245,54.535,54.814-21.53,21.64L1514.2,479.652l-50.351,50.6Zm21.359,11.925,50.351-50.6,33.225,33.394,12.033-12.1-45.136-45.367-62.389,62.7Zm-488.907-9.541,71.885-72.245,54.535,54.814-21.534,21.64-33.22-33.394-50.351,50.6Zm21.363,11.925,50.351-50.6,33.22,33.394,12.038-12.1-45.135-45.367-62.389,62.7ZM507.444,513.6l71.88-72.245,54.535,54.814-21.53,21.64L579.1,484.42l-50.351,50.6ZM528.8,525.53l50.351-50.6,33.225,33.394,12.038-12.1-45.141-45.367-62.384,62.7ZM39.9,515.989l71.88-72.245,54.537,54.814L144.787,520.2,111.561,486.8l-50.351,50.6Zm21.358,11.925,50.351-50.6,33.225,33.394,12.038-12.1-45.141-45.367-62.384,62.7ZM1643.244,441.8l21.529-21.64,49.838,50.1L1832.1,352.183l71.148,71.511-21.529,21.64-49.838-50.1L1803.056,424.2l13.024,13.087,16.783-16.867,21.31,21.42-38.313,38.507-34.334-34.507-67.135,67.468Zm9.443-.048,61.753,62.069,67.135-67.473,34.334,34.51,28.821-28.967-11.915-11.973-16.783,16.867-22.418-22.534,38.313-38.507,49.838,50.092,12.036-12.1-61.752-62.069L1714.563,479.748l-49.838-50.091ZM1175.7,444.187l21.529-21.64,49.838,50.1,117.486-118.075,71.148,71.511-21.53,21.64-49.838-50.1-28.822,28.967,13.024,13.087,16.783-16.867,21.31,21.42-38.313,38.507-34.334-34.507L1246.849,515.7Zm9.445-.048,61.751,62.069,67.134-67.473,34.334,34.51,28.816-28.967L1365.272,432.3l-16.783,16.867-22.419-22.534,38.313-38.507,49.838,50.092,12.038-12.1-61.753-62.069L1247.02,482.132l-49.838-50.091ZM708.158,446.57l21.529-21.64,49.838,50.1L897.011,356.951l71.148,71.511L946.629,450.1l-49.838-50.1L867.97,428.973l13.023,13.087,16.784-16.867,21.31,21.42L880.774,485.12,846.44,450.613l-67.135,67.468Zm9.443-.048,61.753,62.069,67.135-67.473,34.333,34.51,28.817-28.967-11.91-11.973-16.784,16.867-22.418-22.534,38.313-38.507,49.838,50.092,12.038-12.1-61.753-62.069L779.477,484.516l-49.838-50.091Zm-476.986,2.432,21.529-21.64,49.838,50.1L429.467,359.335l71.148,71.511-21.529,21.64-49.838-50.1-28.822,28.967,13.02,13.087,16.784-16.867L451.544,449,413.227,487.5,378.9,453l-67.135,67.468Zm9.443-.048,61.753,62.069L378.945,443.5l34.33,34.51,28.82-28.967-11.914-11.973L413.4,453.939,390.983,431.4,429.3,392.9l49.838,50.092,12.033-12.1-61.748-62.069L311.933,486.9,262.1,436.81Zm1593.367,25.464,21.624-21.735,15.683,16.716,34.462-34.251,21.321,21.79-56.283,53.674Zm9.495-.1,27.436,26.975,46.631-44.471-11.906-12.166-34.56,34.35-15.658-16.69Zm-477.038,2.484,21.624-21.735,15.683,16.716,34.461-34.251,21.322,21.79-56.283,53.674Zm9.5-.1,27.434,26.975,46.626-44.471-11.9-12.166-34.56,34.35-15.656-16.69Zm-477.04,2.484L929.962,457.4l15.683,16.716,34.461-34.251,21.321,21.79-56.283,53.674Zm9.5-.1,27.431,26.975,46.629-44.471-11.9-12.166-34.56,34.35-15.661-16.69Zm-477.043,2.484,21.628-21.735L478.1,476.5l34.461-34.251,21.321,21.79L477.6,517.717Zm9.5-.1L477.722,508.4l46.629-44.471-11.9-12.166-34.56,34.35-15.661-16.69Zm1527.087-74.888,21.529-21.64,71.148,71.512-21.531,21.638Zm9.443-.048,61.751,62.069,12.035-12.1-61.749-62.069Zm-476.992,2.432,21.535-21.64,71.148,71.512-21.534,21.638Zm71.2,62.021,12.038-12.1-61.748-62.069-12.038,12.1ZM1042.287,411.3l21.53-21.64,71.148,71.512-21.53,21.638Zm71.2,62.021,12.038-12.1-61.753-62.069-12.033,12.1Zm-538.74-59.637,21.53-21.64,71.15,71.512L645.891,485.2Zm71.2,62.021,12.038-12.1-61.753-62.069-12.036,12.1ZM107.2,416.071l21.529-21.64,71.15,71.512-21.531,21.638Zm71.2,62.021,12.038-12.1-61.753-62.069-12.036,12.1ZM1592.119,426.4l73-73.366,37.923,38.116-21.529,21.64-16.613-16.7-51.466,51.731Zm9.445-.048,11.915,11.973,51.466-51.727,16.613,16.7,12.038-12.1-28.528-28.674Zm-476.991,2.432,73-73.366,37.923,38.116-21.529,21.64-16.613-16.7L1145.882,450.2Zm9.448-.048,11.91,11.973,51.471-51.727,16.613,16.7,12.038-12.1-28.528-28.674Zm-476.991,2.432,73-73.366,37.923,38.116-21.529,21.64-16.613-16.7-51.471,51.731Zm9.448-.048,11.911,11.973,51.471-51.727,16.613,16.7,12.038-12.1-28.528-28.674Zm-476.991,2.432,73-73.366L300.409,398.3l-21.529,21.64-16.613-16.7L210.8,454.972Zm9.443-.048,11.915,11.973,51.471-51.727,16.613,16.7,12.038-12.1-28.528-28.674ZM1877.36,373.481l21.529-21.638,71.148,71.511-21.529,21.64Zm71.2,62.017,12.038-12.1-61.753-62.069-12.038,12.1Zm-255.133-10.734,55.1-55.373,21.31,21.42-55.1,55.375Zm9.443-.048,11.915,11.975,45.605-45.832-11.915-11.978Zm-293.05-48.851,21.529-21.638,71.148,71.511-21.529,21.64Zm71.2,62.017,12.033-12.1L1431.3,363.717l-12.038,12.1Zm-255.133-10.734,55.1-55.373,21.31,21.42-55.1,55.375Zm9.443-.048,11.915,11.975,45.605-45.832-11.915-11.978Zm-293.05-48.851L963.8,356.611l71.148,71.511-21.529,21.64Zm71.2,62.017,12.033-12.1L963.755,366.1l-12.038,12.1ZM758.338,429.532l55.1-55.373,21.31,21.42-55.1,55.375Zm9.443-.048L779.7,441.458,825.3,395.627l-11.915-11.978ZM474.725,380.633l21.534-21.638,71.148,71.511-21.534,21.64Zm71.2,62.017,12.038-12.1-61.748-62.069-12.038,12.1ZM290.794,431.916l55.1-55.373,21.31,21.42-55.1,55.375Zm9.443-.048,11.915,11.975,45.605-45.832-11.915-11.978ZM7.182,383.017l21.529-21.638,71.15,71.511L78.33,454.529Zm9.448-.048,61.748,62.065,12.038-12.1L28.663,370.869Zm1510.154-24.486,21.534-21.635,54.535,54.814L1581.32,413.3Zm9.448-.048,45.136,45.372,12.038-12.1-45.136-45.371Zm-476.991,2.432,21.529-21.635,54.535,54.814-21.529,21.64Zm9.448-.048,45.135,45.372,12.038-12.1-45.14-45.371ZM591.7,363.251l21.529-21.635,54.535,54.814-21.53,21.64Zm9.445-.048,45.139,45.372,12.038-12.1-45.141-45.371Zm-476.988,2.432L145.684,344l54.537,54.814-21.531,21.64Zm9.445-.048,45.139,45.372,12.038-12.1-45.141-45.371Zm1777.3-25.814,38.34-38.537,37.885,38.078L1970.377,356.7l16.739,16.257-21.7,20.375Zm9.5-.1,45.167,44.382,11.852-11.122-16.492-16.017,16.825-17.47-28.561-28.709Zm-477.043,2.489,38.34-38.537,37.885,38.078-16.748,17.388,16.739,16.257-21.7,20.375Zm54.667,44.277,11.852-11.122-16.491-16.017,16.825-17.47-28.561-28.709-28.795,28.937ZM975.811,344.541,1014.154,306l37.885,38.078-16.748,17.388,16.74,16.257-21.7,20.375Zm54.67,44.277,11.852-11.122-16.492-16.017,16.825-17.47L1014.106,315.5l-28.795,28.937ZM508.268,346.925l38.338-38.537,37.89,38.078-16.748,17.388,16.74,16.257-21.7,20.375Zm54.67,44.277L574.79,380.08,558.3,364.062l16.825-17.47-28.566-28.709-28.79,28.937ZM40.725,349.309l38.338-38.537,37.89,38.078L100.2,366.239,116.944,382.5,95.24,402.87Zm54.67,44.277,11.852-11.122L90.755,366.446l16.825-17.47L79.014,320.267,50.224,349.2Zm1665.164-36.3,21.529-21.635,21.31,21.417-21.53,21.64Zm9.443-.048,11.915,11.978,12.038-12.1-11.915-11.973Zm-126.074-49.7,21.529-21.638L1715.3,336l33.567-33.738,21.31,21.42-55.1,55.375Zm9.443-.048,61.753,62.069,45.605-45.835-11.915-11.973-33.568,33.735L1665.409,295.4Zm-93.02,17.255,21.53-21.638,33.225,33.4,16.783-16.872,21.31,21.421-38.313,38.507Zm9.448-.048,45.136,45.372,28.821-28.967-11.915-11.975L1615.058,346,1581.833,312.6Zm-276.785,34.975,21.53-21.635,21.31,21.417-21.529,21.64Zm9.443-.048,11.915,11.978,12.038-12.1L1314.5,347.531Zm-126.073-49.7,21.529-21.638,49.838,50.094,33.567-33.738,21.31,21.42-55.1,55.375Zm9.445-.048,61.751,62.069,45.605-45.835-11.915-11.973L1247.7,347.872l-49.838-50.091Zm-93.021,17.255,21.529-21.638,33.225,33.4,16.784-16.872,21.31,21.421-38.313,38.507Zm9.448-.048,45.136,45.372,28.822-28.967L1164.3,331.514l-16.784,16.868-33.225-33.394ZM825.472,362.059,847,340.424l21.31,21.417-21.529,21.64Zm9.443-.048,11.915,11.978,12.038-12.1-11.915-11.973Zm-126.074-49.7,21.529-21.638,49.838,50.094,33.567-33.738,21.31,21.42-55.1,55.375Zm9.443-.048,61.753,62.069,45.605-45.835-11.915-11.973-33.567,33.735-49.838-50.091Zm-93.019,17.255,21.53-21.638,33.225,33.4L696.8,324.4l21.31,21.421L679.8,384.331Zm9.445-.048,45.139,45.372,28.822-28.967L696.755,333.9l-16.784,16.868-33.225-33.394ZM357.929,364.443l21.529-21.635,21.31,21.417-21.529,21.64Zm9.443-.048,11.915,11.978,12.038-12.1L379.41,352.3ZM241.3,314.692l21.529-21.638,49.838,50.094,33.567-33.738,21.31,21.42-55.1,55.375Zm9.443-.048,61.753,62.069L358.1,330.878,346.185,318.9,312.617,352.64l-49.838-50.091ZM157.722,331.9l21.529-21.638,33.225,33.4,16.784-16.872,21.31,21.421-38.313,38.507Zm9.445-.048,45.139,45.372,28.822-28.967-11.915-11.975-16.784,16.868L179.2,319.756Zm1676.968,8.232,71.88-72.242,21.31,21.421-71.88,72.24Zm9.443-.048,11.915,11.978,62.389-62.7-11.915-11.975Zm-476.986,2.432,71.88-72.242,21.31,21.421-71.88,72.24Zm9.443-.048L1397.95,354.4l62.387-62.7-11.914-11.975Zm-476.986,2.432,71.88-72.242,21.31,21.421-71.88,72.24Zm9.443-.048,11.915,11.978,62.384-62.7L980.881,282.1Zm-476.986,2.432,71.88-72.242,21.31,21.421-71.88,72.24Zm9.443-.048,11.915,11.978,62.384-62.7-11.91-11.975Zm1298.037-69-33.568,33.735-21.31-21.42,55.1-55.375,87.761,88.209-21.529,21.64Zm66.5,57.3,12.037-12.1-78.365-78.765-45.605,45.835,11.915,11.973,33.568-33.735Zm-534.042-54.913-33.567,33.735-21.31-21.42,55.1-55.375,87.761,88.209-21.529,21.64Zm66.5,57.3,12.038-12.1L1281.613,247l-45.605,45.835,11.915,11.973,33.568-33.735ZM813.9,282.956l-33.567,33.735-21.31-21.42,55.1-55.375,87.761,88.209-21.529,21.64Zm66.5,57.3,12.038-12.1L814.07,249.388l-45.605,45.835L780.38,307.2l33.567-33.735ZM346.356,285.34l-33.567,33.735-21.31-21.42,55.1-55.375,87.761,88.209-21.529,21.64Zm66.5,57.3,12.038-12.1-78.366-78.765-45.605,45.835,11.915,11.973L346.4,275.845Zm1515.2-86.891,21.53-21.64,70.04,70.4-21.529,21.64Zm9.443-.048,60.645,60.954,12.038-12.1L1949.534,243.6Zm-476.987,2.432,21.529-21.64,70.04,70.4-21.529,21.64Zm70.088,60.906,12.038-12.1-60.645-60.954-12.038,12.1ZM992.962,260.515l21.535-21.64,70.04,70.4-21.529,21.64Zm70.093,60.906,12.038-12.1-60.645-60.954-12.038,12.1ZM525.418,262.9l21.529-21.64,70.045,70.4L595.463,333.3ZM595.512,323.8l12.033-12.1L546.9,250.75l-12.033,12.1ZM57.875,265.283,79.4,243.643l70.045,70.4-21.534,21.64Zm70.088,60.906L140,314.089,79.356,253.134l-12.036,12.1Zm1666.5-69.761L1816,234.788l33.225,33.394,12.038-12.1-33.226-33.4,21.53-21.635,33.225,33.394,33.567-33.735,21.31,21.416L1849,311.242Zm9.443-.048,45.141,45.367,79.172-79.57L1916.309,210.2l-33.567,33.735-33.225-33.394-12.038,12.1,33.225,33.4-21.529,21.638-33.225-33.4Zm-209.992,34.633,16.784-16.867-16.613-16.7,21.529-21.64,37.923,38.118-38.313,38.507Zm9.619-33.611,16.608,16.7-16.779,16.867,11.911,11.975,28.821-28.963L1615.571,245.3Zm-276.614,1.41,21.529-21.64,33.225,33.394,12.038-12.1-33.225-33.4,21.529-21.635,33.225,33.394,33.567-33.735,21.31,21.416-88.664,89.113Zm9.443-.048,45.14,45.367,79.173-79.57-11.915-11.973L1415.2,246.323l-33.225-33.394-12.038,12.1,33.225,33.4-21.53,21.638-33.225-33.4ZM1126.376,293.4l16.783-16.867-16.612-16.7,21.529-21.64L1186,276.311l-38.313,38.507Zm9.614-33.611,16.613,16.7-16.784,16.867,11.915,11.975,28.822-28.963-28.528-28.674ZM859.382,261.2l21.529-21.64,33.225,33.394,12.038-12.1-33.225-33.4,21.529-21.635L947.7,239.215l33.567-33.735,21.31,21.416L913.917,316.01Zm9.443-.048,45.141,45.367,79.167-79.57-11.91-11.973-33.567,33.735L914.43,215.312l-12.038,12.1,33.225,33.4-21.529,21.638-33.225-33.4ZM658.833,295.78l16.784-16.867L659,262.217l21.529-21.64L718.456,278.7,680.143,317.2Zm9.614-33.611,16.612,16.7-16.783,16.867,11.915,11.975,28.822-28.963-28.528-28.674Zm-276.609,1.41,21.529-21.64,33.225,33.394,12.033-12.1-33.22-33.4L446.935,208.2,480.16,241.6l33.567-33.735,21.31,21.416-88.664,89.113Zm9.443-.048L446.422,308.9l79.168-79.57-11.91-11.973-33.567,33.735L446.887,217.7l-12.038,12.1,33.225,33.4-21.529,21.638-33.225-33.4ZM191.289,298.164,208.073,281.3,191.46,264.6l21.529-21.64,37.923,38.118L212.6,319.586Zm9.614-33.611,16.613,16.7-16.784,16.867,11.915,11.975,28.822-28.963-28.528-28.674ZM1527.3,257.79l53.982-54.253,21.31,21.42-32.448,32.614,16.612,16.7-21.534,21.64Zm9.448-.048,28.523,28.671,12.038-12.1-16.613-16.7,32.453-32.614-11.915-11.973Zm-476.991,2.432,53.982-54.253,21.31,21.42L1102.6,259.956l16.608,16.7-21.529,21.64Zm9.448-.048,28.523,28.671,12.038-12.1L1093.151,260l32.448-32.614-11.91-11.973Zm-476.991,2.432,53.977-54.253,21.315,21.42L635.052,262.34l16.611,16.7-21.529,21.64Zm9.445-.048,28.526,28.671,12.038-12.1-16.613-16.7,32.448-32.614L646.14,217.8Zm-476.988,2.432,53.977-54.253,21.31,21.42-32.446,32.614,16.613,16.7-21.531,21.64Zm9.445-.048,28.526,28.671,12.038-12.1-16.613-16.7,32.448-32.614L178.6,220.184Zm1526.77-7.785L1699.2,218.6l21.31,21.42-38.313,38.507Zm9.443-.048,11.915,11.973,28.822-28.963-11.915-11.978Zm-476.986,2.432,38.313-38.507,21.31,21.42-38.313,38.507Zm9.443-.048,11.915,11.973,28.821-28.963L1231.6,230.476ZM725.8,261.877l38.313-38.507,21.31,21.42L747.106,283.3Zm9.443-.048L747.155,273.8l28.822-28.963L764.061,232.86Zm-476.987,2.432,38.313-38.507,21.31,21.42-38.313,38.507Zm9.443-.048,11.915,11.973,28.822-28.963-11.915-11.978ZM1895.17,155.219l21.529-21.64,16.613,16.7,33.567-33.735L2004.8,154.66l-21.568,21.678-16.572-17.218-12.078,12.539,28.582,28.731,33.526-33.137,21.373,20.761-55.135,55.413Zm9.443-.048,78.366,78.765,45.562-45.79-11.858-11.518-33.6,33.213-37.868-38.057,21.5-22.316,16.647,17.3,12-12.057-28.528-28.674-33.567,33.738-16.613-16.7Zm-143.37,67.857,88.664-89.108,54.536,54.816-21.53,21.638-33.225-33.394-67.135,67.47Zm9.443-.048,11.915,11.978,67.135-67.473,33.225,33.4,12.038-12.1-45.14-45.367Zm-176.254-32.663,21.529-21.64,54.535,54.814-21.529,21.64Zm9.448-.048,45.136,45.371,12.038-12.1-45.141-45.367ZM1427.627,157.6l21.529-21.64,16.613,16.7,33.567-33.735,37.923,38.118-21.573,21.678L1499.119,161.5l-12.079,12.539,28.583,28.731,33.526-33.137,21.373,20.761-55.135,55.413Zm87.809,78.717L1561,190.53l-11.858-11.518-33.6,33.213-37.868-38.057,21.5-22.316,16.648,17.3,11.995-12.057-28.523-28.674-33.567,33.738-16.613-16.7-12.038,12.1ZM1293.7,225.412l88.664-89.108L1436.9,191.12l-21.53,21.638-33.225-33.394-67.135,67.47Zm9.443-.048,11.915,11.978,67.135-67.473,33.225,33.4,12.038-12.1L1382.315,145.8ZM1126.889,192.7l21.529-21.64,54.536,54.814-21.53,21.64Zm9.443-.048,45.141,45.371,12.038-12.1-45.141-45.367ZM960.083,159.987l21.529-21.64,16.612,16.7,33.567-33.735,37.923,38.118-21.573,21.678-16.567-17.218L1019.5,176.427l28.582,28.731,33.526-33.137,21.373,20.761L1047.844,248.2Zm87.809,78.717,45.562-45.79L1081.6,181.4l-33.6,33.213-37.868-38.057,21.5-22.316,16.648,17.3,11.995-12.057L1031.744,130.8,998.177,164.54l-16.612-16.7-12.038,12.1ZM826.156,227.8l88.664-89.108L969.356,193.5l-21.529,21.638L914.6,181.748l-67.135,67.47Zm9.443-.048,11.915,11.978,67.135-67.473,33.225,33.4,12.038-12.1-45.141-45.367ZM659.346,195.085l21.53-21.64,54.535,54.814L713.881,249.9Zm9.443-.048,45.141,45.371,12.038-12.1L680.827,182.94ZM492.535,162.371l21.534-21.64,16.608,16.7,33.567-33.735,37.924,38.118L580.6,183.491l-16.572-17.218-12.073,12.539,28.582,28.731,33.526-33.137,21.373,20.761L580.3,250.58Zm87.809,78.717,45.567-45.79L614.053,183.78l-33.6,33.213-37.868-38.057,21.495-22.316,16.653,17.3,11.995-12.057L564.2,133.186l-33.567,33.738-16.608-16.7-12.038,12.1ZM358.613,230.18l88.664-89.108,54.535,54.816-21.529,21.638-33.225-33.394L379.923,251.6Zm9.443-.048,11.915,11.978,67.135-67.473,33.225,33.4,12.033-12.1-45.136-45.367ZM191.8,197.469l21.529-21.64,54.535,54.814-21.529,21.64Zm9.443-.048,45.141,45.371,12.038-12.1-45.141-45.367ZM24.992,164.755l21.529-21.64,16.613,16.7L96.7,126.079,134.626,164.2l-21.569,21.678L96.484,168.656,84.411,181.2l28.582,28.731,33.526-33.137,21.373,20.761-55.14,55.413ZM112.8,243.472l45.562-45.79L146.51,186.164l-33.6,33.213L75.039,181.321l21.495-22.316,16.649,17.3,12-12.057L96.653,135.57,63.086,169.309l-16.613-16.7-12.033,12.1ZM1711.234,206.5l21.529-21.638,21.31,21.42-21.529,21.638Zm9.443-.048,11.915,11.978,12.038-12.1-11.915-11.973Zm-476.987,2.432,21.53-21.638,21.31,21.42L1265,230.306Zm9.443-.048,11.916,11.978,12.037-12.1-11.915-11.973ZM776.147,211.27l21.53-21.638,21.31,21.42L797.457,232.69Zm9.443-.048L797.506,223.2l12.038-12.1-11.915-11.973ZM308.6,213.654l21.529-21.638,21.31,21.42-21.529,21.638Zm9.443-.048,11.915,11.978L342,213.484l-11.915-11.973Zm1343.178-23.63,71.88-72.242,54.535,54.814-21.529,21.64-33.225-33.394-50.351,50.6Zm9.443-.048,11.915,11.978,50.351-50.607,33.225,33.394,12.038-12.1-45.141-45.371Zm-476.986,2.432,71.88-72.242,54.535,54.814-21.529,21.64-33.225-33.394-50.351,50.6Zm9.443-.048,11.915,11.978,50.351-50.607,33.225,33.394,12.038-12.1-45.14-45.371Zm-476.987,2.432,71.88-72.242,54.535,54.814-21.529,21.64L797.8,165.562l-50.351,50.6Zm9.443-.048L747.5,206.674l50.351-50.607,33.225,33.394,12.038-12.1L797.97,131.994ZM258.6,197.128l71.88-72.242L385.011,179.7l-21.529,21.64-33.225-33.394-50.351,50.6Zm9.443-.048,11.915,11.978L330.3,158.451l33.225,33.394,12.038-12.1-45.141-45.371Zm1343.349-57.2,21.529-21.638,16.613,16.7,16.784-16.867,21.31,21.42L1649.31,178Zm9.443-.048,28.528,28.671,28.821-28.963-11.915-11.978-16.783,16.872-16.613-16.7Zm-75.127,1.5,21.529-21.64,36.82,37.005-21.534,21.638Zm9.444-.048,27.418,27.557,12.038-12.1-27.42-27.562Zm-411.3.977,21.53-21.638,16.612,16.7,16.784-16.867,21.31,21.42-38.313,38.507Zm9.445-.048,28.526,28.671,28.822-28.963-11.915-11.978-16.784,16.872-16.612-16.7Zm-75.129,1.5,21.529-21.64,36.814,37.005-21.53,21.638Zm9.443-.048,27.419,27.557,12.038-12.1-27.419-27.562Zm-411.3.977,21.529-21.638,16.613,16.7,16.784-16.867,21.31,21.42-38.313,38.507Zm9.443-.048,28.528,28.671,28.821-28.963-11.915-11.978L714.394,149.2l-16.613-16.7Zm-75.127,1.5,21.529-21.64,36.815,37.005L647.43,183.11Zm9.445-.048,27.418,27.557,12.038-12.1L632.1,133.958Zm-411.3.977L230.287,125.4l16.613,16.7,16.784-16.867,21.31,21.42L246.68,185.153Zm9.445-.048,28.526,28.671L275.55,146.7l-11.915-11.978-16.784,16.872-16.613-16.7Zm-75.129,1.5,21.529-21.64,36.816,37.005-21.531,21.638Zm9.445-.048L179.936,176l12.038-12.1-27.42-27.562Zm1591.517-43.917,21.529-21.638,55.644,55.929-21.529,21.638Zm55.692,46.434,12.038-12.1-46.249-46.487-12.038,12.1Zm-523.235-44.05,21.53-21.638,55.643,55.929-21.529,21.638Zm55.692,46.434,12.038-12.1-46.249-46.487-12.038,12.1Zm-523.235-44.05,21.529-21.638,55.644,55.929-21.529,21.638Zm55.692,46.434,12.038-12.1L830.429,97.145l-12.038,12.1Zm-523.235-44.05,21.529-21.638,55.644,55.929-21.529,21.638ZM397.1,158.111l12.038-12.1L362.886,99.529l-12.038,12.1Zm1464.85-36.131L1877.729,105l-16.141-16.79,38.553-38.435,54.739,54.25-21.548,21.029L1917.9,109.506l-33.456,33.66Zm22.392,11.838,33.611-33.812,15.5,15.619,11.876-11.587L1900.1,59.22l-29.134,29.043,15.971,16.61-15.557,16.744ZM1394.4,124.363l15.781-16.978L1394.045,90.6,1432.6,52.161l54.736,54.25-21.545,21.028-15.435-15.549L1416.9,145.55ZM1416.8,136.2l33.611-33.812,15.5,15.619,11.878-11.587L1432.563,61.6l-29.134,29.043,15.969,16.61L1403.837,124Zm-489.935-9.454,15.782-16.978L926.5,92.979l38.553-38.435,54.736,54.25-21.545,21.028-15.435-15.549-33.456,33.66Zm22.393,11.838,33.609-33.812,15.5,15.619,11.876-11.587L965.02,63.988,935.886,93.031l15.969,16.61-15.561,16.744Zm-489.936-9.454L475.1,112.154l-16.141-16.79,38.553-38.435,54.736,54.25L530.7,132.207l-15.435-15.549-33.456,33.66Zm22.393,11.838,33.609-33.812,15.5,15.619L542.7,111.189,497.477,66.372,468.343,95.415l15.971,16.61-15.563,16.744Zm1496.085-35.4,39.434-39.627,21.31,21.416-39.433,39.631Zm9.445-.048,11.915,11.976,29.936-30.091-11.91-11.975Zm-476.987,2.432,39.433-39.627L1571,89.741l-39.433,39.631Zm21.358,11.928,29.936-30.091-11.91-11.975L1519.7,107.9Zm-488.9-9.544,39.428-39.627,21.315,21.416-39.432,39.631Zm21.358,11.928,29.936-30.091L1082.09,80.2l-29.936,30.089ZM575.163,112.72,614.6,73.093l21.31,21.416L596.478,134.14Zm21.363,11.928,29.936-30.091L614.547,82.583l-29.936,30.089ZM107.62,115.1l39.433-39.627,21.312,21.416L128.93,136.524Zm21.358,11.928,29.941-30.091L147,84.967l-29.936,30.089Zm1550.6-22.29L1783.8,0l21.294,21.4L1700.676,128.087Zm21.338,13.578,94.766-96.834-11.932-12-94.943,95.425Zm-488.88-11.194L1316.255,2.384l21.288,21.4-104.41,106.689Zm21.337,13.578,94.766-96.834-11.932-12L1221.263,107.3ZM744.492,109.51,848.712,4.768,870,26.166,765.591,132.855Zm21.337,13.578,94.766-96.834-11.932-12L753.72,109.683Zm-488.88-11.194L381.168,7.152l21.289,21.4L298.043,135.24Zm21.337,13.578,94.766-96.835-11.932-12-94.943,95.425Zm1279.876-18.982,55.1-55.378,37.922,38.118-21.529,21.638-16.613-16.7-33.568,33.733Zm21.358,11.925,33.567-33.735,16.613,16.7,12.038-12.1L1633.21,60.608l-45.6,45.835Zm-488.9-9.541,55.1-55.378,37.923,38.118-21.53,21.638-16.613-16.7-33.567,33.733Zm21.358,11.925,33.568-33.735,16.612,16.7,12.038-12.1-28.528-28.671-45.605,45.835Zm-488.9-9.541,55.1-55.378L736.095,94l-21.529,21.638-16.613-16.7-33.567,33.733Zm21.358,11.925L698,89.449l16.613,16.7,12.038-12.1L698.123,65.376l-45.605,45.835Zm-488.9-9.541,55.1-55.378,37.923,38.118-21.529,21.638-16.613-16.7-33.567,33.733Zm21.358,11.925,33.567-33.735,16.613,16.7,12.038-12.1L230.58,67.76l-45.6,45.835ZM1778.431,71.914l54.793-55.372,38.6,38.161L1848.971,76.25l-15.941-16.58-11.517,11.973,33.263,33.437-21.524,21.63Zm54.854,45.315,12.046-12.1-33.187-33.36,20.934-21.757,16.172,16.82,12.937-12.2-28.96-28.626-45.353,45.83ZM1310.888,74.3l54.793-55.372,38.6,38.161-22.859,21.547-15.941-16.58-11.518,11.973,33.263,33.437-21.524,21.63Zm54.854,45.315,12.046-12.1L1344.6,74.153,1365.535,52.4l16.172,16.82,12.937-12.2-28.96-28.626-45.351,45.83Zm-522.4-42.931L898.138,21.31l38.6,38.161L913.884,81.018l-15.941-16.58L886.425,76.411l33.263,33.437-21.524,21.63ZM898.2,122l12.046-12.1-33.187-33.36L897.992,54.78,914.164,71.6,927.1,59.4l-28.96-28.626-45.353,45.83ZM375.8,79.066l54.793-55.372,38.6,38.161L446.341,83.4,430.4,66.822,418.882,78.795l33.263,33.437-21.524,21.63Zm54.854,45.315,12.046-12.1-33.187-33.36,20.936-21.757,16.17,16.82,12.938-12.2L430.6,33.163l-45.351,45.83Zm1514.07-54.657,39.4-38.336L2005.22,54.02l-39.513,40.345Zm9.159.379L1966.1,84.446l29.865-30.493-12.116-13Zm-476.7,2.005,39.4-38.336,21.1,22.632-39.515,40.345Zm21.371,14.723,29.865-30.493-12.116-13-29.961,29.149ZM1009.639,74.492l39.4-38.336,21.1,22.632-39.513,40.345Zm21.371,14.723,29.865-30.493-12.116-13L1018.8,74.87ZM542.1,76.876l39.4-38.336,21.1,22.632-39.513,40.345ZM563.467,91.6l29.865-30.493-12.119-13L551.255,77.254ZM74.548,79.26l39.4-38.336,21.1,22.632L95.534,103.9ZM95.924,93.983l29.86-30.492-12.114-13L83.712,79.638Z" transform="translate(-425.42 1984.652) rotate(-90)" fill="#fff"/>
      </g>
    </g>
  </g>
</svg>
