<svg xmlns="http://www.w3.org/2000/svg" width="40.032" height="32.775" viewBox="0 0 40.032 32.775">
  <path id="Online_information_19371" d="M99.915,227.937a1.338,1.338,0,0,1-1.305,1.369H93.39a1.338,1.338,0,0,1-1.305-1.369H76l.032,3.468a1.338,1.338,0,0,0,1.305,1.369h37.39a1.338,1.338,0,0,0,1.305-1.369L116,227.937Zm13.972-25.2a2.677,2.677,0,0,0-2.61-2.739H80.5a2.677,2.677,0,0,0-2.61,2.739v19.667c0,.018,0,.036,0,.055h0v4.108h36V222.46h0c0-.018,0-.036,0-.055Zm-32.667,0V223.83h29.559V202.739Zm13.151,2.877a1.773,1.773,0,0,1,2.6,0,1.99,1.99,0,0,1-.005,2.715,1.772,1.772,0,0,1-2.588,0A1.99,1.99,0,0,1,94.371,205.616ZM98.752,221.1H92.885v-.641l.126,0a1.659,1.659,0,0,0,.6-.12.926.926,0,0,0,.323-.228c.068-.077.207-.347.207-1.247v-6c0-.856-.142-1.179-.244-1.3a.689.689,0,0,0-.281-.183,2.114,2.114,0,0,0-.611-.111l-.121-.008v-.738H97.5v8.343c0,.859.123,1.18.223,1.3a1.267,1.267,0,0,0,.9.3l.136.008Z" transform="translate(-76 -200)" fill="#ff7900" fill-rule="evenodd"/>
</svg>
