<svg xmlns="http://www.w3.org/2000/svg" width="20.487" height="20.487" viewBox="0 0 20.487 20.487">
  <path id="clock" d="M85.244,75A10.243,10.243,0,1,0,95.487,85.243,10.244,10.244,0,0,0,85.244,75ZM89.4,89.233a.9.9,0,0,1-1.278,0L84.592,85.7v0l-.029-.031-.014-.016-.014-.017-.017-.021-.01-.013-.017-.024-.008-.012-.016-.025-.008-.012-.014-.025-.008-.014-.012-.024-.008-.016-.01-.022-.008-.019-.008-.02-.008-.022-.006-.017-.008-.025,0-.015-.007-.027,0-.014-.006-.029,0-.015c0-.009,0-.019,0-.028s0-.011,0-.017,0-.018,0-.027,0-.015,0-.023,0-.014,0-.021,0-.03,0-.045V78.435a.9.9,0,0,1,1.808,0v6.254L89.4,87.955A.9.9,0,0,1,89.4,89.233Z" transform="translate(-75 -75)" fill="#8d8d8d" fill-rule="evenodd"/>
</svg>
