<svg xmlns="http://www.w3.org/2000/svg" width="23.746" height="15.365" viewBox="0 0 23.746 15.365">
  <path id="Payment_card" data-name="Payment card" d="M96.651,240.365H77.1a2.1,2.1,0,0,1-2.1-2.1V227.1a2.1,2.1,0,0,1,2.1-2.1H96.651a2.1,2.1,0,0,1,2.1,2.1V238.27a2.1,2.1,0,0,1-2.1,2.1Zm-19.556-1.4H96.651a.7.7,0,0,0,.7-.7v-6.286H76.4v6.286A.7.7,0,0,0,77.1,238.968ZM96.651,226.4H77.1a.7.7,0,0,0-.7.7v2.1H97.349v-2.1A.7.7,0,0,0,96.651,226.4Zm-17.81,9.079h1.4a1.048,1.048,0,1,1,0,2.1h-1.4a1.048,1.048,0,1,1,0-2.1Zm4.889,0h1.4a1.048,1.048,0,1,1,0,2.1h-1.4a1.048,1.048,0,1,1,0-2.1Zm4.889,0h1.4a1.048,1.048,0,1,1,0,2.1h-1.4a1.048,1.048,0,1,1,0-2.1Z" transform="translate(-75 -225)" fill="#8d8d8d" fill-rule="evenodd"/>
</svg>
