<svg xmlns="http://www.w3.org/2000/svg" width="22.383" height="18.648" viewBox="0 0 22.383 18.648">
  <path id="Track_Your_order_19371" d="M145.891,194.207h-2.238l-4.454-7.424a1.578,1.578,0,0,0-1.365-.783H126.492A1.492,1.492,0,0,0,125,187.492V201.37h0a3.357,3.357,0,0,0,6.713,0h5.971a3.357,3.357,0,0,0,6.713,0h2.985V195.7A1.492,1.492,0,0,0,145.891,194.207Zm-10.292-.076-2.765,4.553h0l-2.774-4.553a3.513,3.513,0,0,1-.582-1.789,3.357,3.357,0,1,1,6.715,0A3.527,3.527,0,0,1,135.6,194.131Zm-1.5-1.64a1.268,1.268,0,1,1-1.268-1.268A1.268,1.268,0,0,1,134.1,192.491Z" transform="translate(-125 -186)" fill="#8d8d8d" fill-rule="evenodd"/>
</svg>
