<svg xmlns="http://www.w3.org/2000/svg" width="18.85" height="18.849" viewBox="0 0 18.85 18.849">
  <path id="calendar_day_19371" d="M117.025,101.824h-2.432V100.9a.9.9,0,0,0-.912-.9.912.912,0,0,0-.912.912v.912h-6.688v-.912a.912.912,0,0,0-1.824,0v.912H100v15.2a1.824,1.824,0,0,0,1.824,1.824H118.85v-15.2A1.824,1.824,0,0,0,117.025,101.824Zm.608,15.809H102.128a.912.912,0,0,1-.912-.912V107.3h15.505a.912.912,0,0,1,.912.912Zm-13.985-13.681a1.518,1.518,0,0,1,.608-1.216v1.216a.912.912,0,0,0,1.824,0v-.3h0v-.912a1.52,1.52,0,1,1-2.432,1.216Zm8.513,0a1.518,1.518,0,0,1,.608-1.216v1.216a.912.912,0,0,0,1.824,0v-.3h0v-.9a1.5,1.5,0,0,1,.608,1.2,1.52,1.52,0,0,1-3.04,0Z" transform="translate(-100 -100)" fill="#8b8b8b" fill-rule="evenodd"/>
</svg>
