<svg xmlns="http://www.w3.org/2000/svg" width="16.024" height="21.57" viewBox="0 0 16.024 21.57">
  <path id="voucher" d="M184.853,63.827a2.465,2.465,0,0,0-3.595-.093h0l0,0q-.042.043-.082.088L175,70.4v11.71a2.465,2.465,0,0,0,2.465,2.465h11.093a2.465,2.465,0,0,0,2.465-2.465V70.4Zm-1.841,1.947a1.541,1.541,0,1,1-1.541,1.541A1.541,1.541,0,0,1,183.012,65.774ZM189.3,77.138l-2.172,1.025,1.333,1.9-2.429-.128.137,2.271-2.035-1.247-1.1,2.031-1.1-2.031-2.035,1.247.137-2.271-2.429.128,1.333-1.9-2.172-1.025,2.172-1.025-1.333-1.9,2.429.128-.137-2.271,2.035,1.247,1.1-2.031,1.1,2.031,2.035-1.247-.137,2.271,2.429-.128-1.333,1.9Z" transform="translate(-175 -63)" fill-rule="evenodd"/>
</svg>
