<svg xmlns="http://www.w3.org/2000/svg" width="61.457" height="85.098" viewBox="0 0 61.457 85.098">
  <path id="Path_128685" data-name="Path 128685" d="M-2028.1,6111.872l29.916-27.294h3.644l27.9,27.391-.023,51.842-5.469,5.779-49.423.086-3.54-3.174-3-2.691Z" transform="translate(2028.104 -6084.578)" fill="#d3d3d3"/>
  <path id="Path_128689" data-name="Path 128689" d="M10.122,0A10.122,10.122,0,1,1,0,10.122,10.122,10.122,0,0,1,10.122,0Z" transform="translate(20.726 44.684)" fill="#fff"/>
  <g id="medal" transform="translate(14.894 39.989)">
    <path id="Path_128687" data-name="Path 128687" d="M108.011,11.546l-2.958-2.477-.673-3.8a2.635,2.635,0,0,0-2.6-2.179h0l-3.859,0L94.962.617a2.635,2.635,0,0,0-3.393,0L88.616,3.1l-3.859,0a2.635,2.635,0,0,0-2.6,2.183l-.667,3.8L78.54,11.574a2.635,2.635,0,0,0-.586,3.342l1.932,3.34-.666,3.8a2.635,2.635,0,0,0,1.7,2.937l3.627,1.316,1.932,3.34a2.635,2.635,0,0,0,3.189,1.158l3.625-1.323L96.919,30.8a2.636,2.636,0,0,0,3.187-1.163l1.926-3.343,3.625-1.323a2.636,2.636,0,0,0,1.694-2.94l-.674-3.8,1.926-3.343a2.635,2.635,0,0,0-.592-3.341ZM93.277,23.427a7.61,7.61,0,1,1,7.61-7.61A7.618,7.618,0,0,1,93.277,23.427Z" transform="translate(-77.598 0)" fill="#fff"/>
  </g>
  <circle id="Ellipse_217" data-name="Ellipse 217" cx="6.222" cy="6.222" r="6.222" transform="translate(24.449 9.316)" fill="#fff"/>
</svg>
