<svg xmlns="http://www.w3.org/2000/svg" width="28.7" height="28.7" viewBox="0 0 28.7 28.7">
  <g id="_4" data-name="4" transform="translate(-1836.65 -325.649)" fill="#fff">
    <path d="M 1864.09423828125 354.1742553710938 C 1863.80615234375 354.1742553710938 1863.535034179688 354.0637817382813 1863.330810546875 353.8632507324219 L 1856.182983398438 346.8291931152344 C 1854.080688476563 348.4627380371094 1851.45849609375 349.3604736328125 1848.780883789063 349.3604736328125 C 1845.587890625 349.3604736328125 1842.5859375 348.1367492675781 1840.327880859375 345.9146728515625 C 1838.069213867188 343.6919250488281 1836.8251953125 340.7364807128906 1836.8251953125 337.5927429199219 C 1836.8251953125 334.4488220214844 1838.069213867188 331.4931945800781 1840.327880859375 329.2702941894531 C 1842.5859375 327.0480651855469 1845.587890625 325.8242492675781 1848.780883789063 325.8242492675781 C 1851.973876953125 325.8242492675781 1854.975830078125 327.0480651855469 1857.23388671875 329.2702941894531 C 1859.492553710938 331.4931945800781 1860.736572265625 334.4488220214844 1860.736572265625 337.5927429199219 C 1860.736572265625 340.4503173828125 1859.676635742188 343.2002868652344 1857.748168945313 345.3558044433594 L 1864.857788085938 352.3520202636719 C 1865.062744140625 352.5538635253906 1865.175537109375 352.8222961425781 1865.175537109375 353.1079711914063 C 1865.175415039063 353.3934631347656 1865.062622070313 353.6616516113281 1864.857788085938 353.8631591796875 C 1864.653564453125 354.0637817382813 1864.382446289063 354.1742553710938 1864.09423828125 354.1742553710938 Z M 1848.780883789063 327.9580993652344 C 1843.380737304688 327.9580993652344 1838.987548828125 332.2801818847656 1838.987548828125 337.5927429199219 C 1838.987548828125 342.9051208496094 1843.380737304688 347.22705078125 1848.780883789063 347.22705078125 C 1854.181030273438 347.22705078125 1858.574340820313 342.9051208496094 1858.574340820313 337.5927429199219 C 1858.574340820313 332.2801818847656 1854.181030273438 327.9580993652344 1848.780883789063 327.9580993652344 Z" stroke="none"/>
    <path d="M 1864.094360351563 353.9992370605469 C 1864.326171875 353.9992370605469 1864.55810546875 353.9122924804688 1864.735107421875 353.7384033203125 C 1865.088989257813 353.3902282714844 1865.088989257813 352.8252868652344 1864.735107421875 352.4767761230469 L 1857.505615234375 345.3626708984375 C 1859.3984375 343.305908203125 1860.5615234375 340.5862426757813 1860.5615234375 337.5927429199219 C 1860.5615234375 331.1901550292969 1855.287353515625 325.9992370605469 1848.780883789063 325.9992370605469 C 1842.2744140625 325.9992370605469 1837.000244140625 331.1901550292969 1837.000244140625 337.5927429199219 C 1837.000244140625 343.9949645996094 1842.2744140625 349.1854858398438 1848.780883789063 349.1854858398438 C 1851.591918945313 349.1854858398438 1854.170288085938 348.2133178710938 1856.19580078125 346.5963134765625 L 1863.453491210938 353.7384033203125 C 1863.630493164063 353.9122924804688 1863.862426757813 353.9992370605469 1864.094360351563 353.9992370605469 M 1848.780883789063 327.7831115722656 C 1854.286254882813 327.7831115722656 1858.749389648438 332.1749572753906 1858.749389648438 337.5927429199219 C 1858.749389648438 343.0101318359375 1854.286254882813 347.4020690917969 1848.780883789063 347.4020690917969 C 1843.275634765625 347.4020690917969 1838.8125 343.0101318359375 1838.8125 337.5927429199219 C 1838.8125 332.1749572753906 1843.275634765625 327.7831115722656 1848.780883789063 327.7831115722656 M 1864.09423828125 354.3492431640625 C 1863.760009765625 354.3492431640625 1863.4453125 354.2209777832031 1863.208251953125 353.9880981445313 L 1856.168701171875 347.0606689453125 C 1854.056762695313 348.6586608886719 1851.44580078125 349.5354919433594 1848.780883789063 349.5354919433594 C 1845.541748046875 349.5354919433594 1842.49609375 348.2938842773438 1840.205200195313 346.0394287109375 C 1837.912719726563 343.7835083007813 1836.650268554688 340.7837524414063 1836.650268554688 337.5927429199219 C 1836.650268554688 334.4015502929688 1837.912719726563 331.401611328125 1840.205078125 329.1455688476563 C 1842.49609375 326.8909301757813 1845.541748046875 325.6492309570313 1848.780883789063 325.6492309570313 C 1852.02001953125 325.6492309570313 1855.065673828125 326.8909301757813 1857.356689453125 329.1455688476563 C 1859.649047851563 331.401611328125 1860.911499023438 334.4015502929688 1860.911499023438 337.5927429199219 C 1860.911499023438 340.4384460449219 1859.876220703125 343.1788635253906 1857.989013671875 345.3473205566406 L 1864.980590820313 352.227294921875 C 1865.21923828125 352.4623413085938 1865.3505859375 352.7750854492188 1865.350463867188 353.1080017089844 C 1865.350463867188 353.4407653808594 1865.219116210938 353.7532653808594 1864.980590820313 353.9878845214844 C 1864.743286132813 354.2209777832031 1864.428588867188 354.3492431640625 1864.09423828125 354.3492431640625 Z M 1848.780883789063 328.1331176757813 C 1843.477294921875 328.1331176757813 1839.162475585938 332.3766784667969 1839.162475585938 337.5927429199219 C 1839.162475585938 342.8086242675781 1843.477294921875 347.0520629882813 1848.780883789063 347.0520629882813 C 1854.084594726563 347.0520629882813 1858.3994140625 342.8086242675781 1858.3994140625 337.5927429199219 C 1858.3994140625 332.3766784667969 1854.084594726563 328.1331176757813 1848.780883789063 328.1331176757813 Z" stroke="none" fill="#fff"/>
  </g>
</svg>
