<svg xmlns="http://www.w3.org/2000/svg" width="78.175" height="89.922" viewBox="0 0 78.175 89.922">
  <path id="Path_128681" data-name="Path 128681" d="M-1547.1,5478.614h20.676l18.377-8.5,17.527,8.5h21.6v39.295s-6.15,28.242-30.614,40.331a17.1,17.1,0,0,1-8.51,1.781,18.841,18.841,0,0,1-6.457-1.471c-20.943-7.545-32.595-40.641-32.595-40.641Z" transform="translate(1547.098 -5470.111)" fill="#ddd"/>
  <path id="check" d="M15.585,31.4a2.077,2.077,0,0,1-2.938,0L.913,19.665a3.116,3.116,0,0,1,0-4.408l1.469-1.47a3.116,3.116,0,0,1,4.408,0l7.325,7.326L33.91,1.319a3.116,3.116,0,0,1,4.408,0l1.469,1.47a3.116,3.116,0,0,1,0,4.408Zm0,0" transform="translate(18.501 28.546)" fill="#fff"/>
</svg>
