<svg xmlns="http://www.w3.org/2000/svg" width="35.387" height="24.212" viewBox="0 0 35.387 24.212">
  <path id="Sim_19371" d="M271.906,114.387h-19.6A2.3,2.3,0,0,1,250,112.094v-30.8A2.3,2.3,0,0,1,252.306,79h13.835l8.071,8.024h0v25.07A2.3,2.3,0,0,1,271.906,114.387Zm-19.6-17.943v3.688h5.765V95.3h-4.612A1.15,1.15,0,0,0,252.306,96.444ZM264.988,95.3h-5.765v5.981h-6.918v4.835h12.682Zm6.918,1.146a1.15,1.15,0,0,0-1.153-1.146h-4.612v4.835h5.765Zm0,4.835h-5.765v4.835h5.765Zm0,5.981h-5.765v4.835h-1.153V107.26h-5.765v4.835h-1.153V107.26h-5.765v3.688a1.15,1.15,0,0,0,1.153,1.146h17.294a1.15,1.15,0,0,0,1.153-1.146Z" transform="translate(114.387 -250) rotate(90)" fill="#fff" fill-rule="evenodd"/>
</svg>
