<svg id="Group_3843" data-name="Group 3843" xmlns="http://www.w3.org/2000/svg" width="23.813" height="44.313" viewBox="0 0 23.813 44.313">
  <circle id="Ellipse_206" data-name="Ellipse 206" cx="4.255" cy="4.255" r="4.255" transform="translate(6.654)" fill="#ff790e"/>
  <path id="Path_126422" data-name="Path 126422" d="M37.4,23.227a29.494,29.494,0,0,1-8.8-7.991c-1.521-2.138-5.541-2.027-7.175-.067a46.929,46.929,0,0,0-6.266,7.4,2.224,2.224,0,1,0,3.7,2.478,37.586,37.586,0,0,1,2.489-3.283c-.035,2.311.08,6.481.139,8.355a3.6,3.6,0,0,1-.413,1.788,71.037,71.037,0,0,0-5.25,13.595A2.336,2.336,0,1,0,20.3,46.824a66.945,66.945,0,0,1,4.773-12.468c.105,0,.211,0,.318,0q1.983,5.918,3.97,11.838c.962,2.876,5.424,1.382,4.459-1.494q-2.171-6.47-4.334-12.938a11.984,11.984,0,0,1-.315-1.533c-.239-2.657-.325-5.306-.3-7.958a35.382,35.382,0,0,0,6.783,5.081C38.15,28.8,39.859,24.654,37.4,23.227Z" transform="translate(-14.782 -4.19)" fill="#ff790e"/>
</svg>
