<svg xmlns="http://www.w3.org/2000/svg" width="106.094" height="74.89" viewBox="0 0 106.094 74.89">
  <path id="Streaming_games" data-name="Streaming games" d="M174.087,241.564A34.327,34.327,0,0,0,113.8,212.786,14.052,14.052,0,0,0,96.91,225.149a24.964,24.964,0,0,0,3.053,49.741h62.409a18.723,18.723,0,0,0,11.714-33.326ZM150.3,262.409a8.95,8.95,0,0,1-8.224-5.766l-.223-.532c-.855-2.058-2.8-3.915-5.16-3.915H123.84a6.051,6.051,0,0,0-5.228,3.91l-.223.538a8.959,8.959,0,0,1-8.224,5.766c-4.879,0-8.829-4.376-8.829-9.265a8.838,8.838,0,0,1,.743-3.56l7.887-18.989a8.836,8.836,0,0,1,8.227-5.632H142.27a8.83,8.83,0,0,1,8.224,5.632l7.89,18.989a8.838,8.838,0,0,1,.744,3.56C159.127,258.032,155.172,262.409,150.3,262.409Zm-8.947-31.454a2.552,2.552,0,1,0,2.546,2.552,2.552,2.552,0,0,0-2.546-2.552Zm0,11.846a2.553,2.553,0,1,0,2.546,2.551A2.553,2.553,0,0,0,141.35,242.8Zm-5.984-5.925a2.554,2.554,0,1,0,2.547,2.555A2.554,2.554,0,0,0,135.367,236.876Zm-10.167,0h-3.4v-3.4a2.55,2.55,0,1,0-5.1,0v3.4h-3.4a2.553,2.553,0,1,0,0,5.107h3.4v3.4a2.55,2.55,0,1,0,5.1,0v-3.4h3.4a2.553,2.553,0,0,0,0-5.107Zm22.06,0a2.551,2.551,0,1,0,1.807.748,2.554,2.554,0,0,0-1.807-.748Z" transform="translate(-75 -200)" fill="#d3d3d3" fill-rule="evenodd"/>
</svg>
