<svg xmlns="http://www.w3.org/2000/svg" width="97.735" height="91.991" viewBox="0 0 97.735 91.991">
  <path id="Surveillance_camera_19371" d="M139.982,148.75a4.313,4.313,0,0,1-3.288-.285L87.478,122.892a4.318,4.318,0,0,1-1.163-.88l-2.764,5.319a2.875,2.875,0,0,0,1.225,3.876l19.106,9.928a11.576,11.576,0,0,0-.134,1.757,11.454,11.454,0,0,0,2.875,7.605l-8.415,16.83H86.234c-1.128-9.042-5.729-15.811-11.234-15.811v40.246c5.505,0,10.106-6.77,11.234-15.811H100.87c.03,0,.059,0,.089,0,.056,0,.111,0,.166-.006l.1-.008q.094-.008.186-.019l.068-.009a4.274,4.274,0,0,0,.548-.115l.01,0a4.282,4.282,0,0,0,.8-.312l.031-.016a4.328,4.328,0,0,0,.455-.275l.08-.058q.064-.047.126-.1c.03-.023.06-.046.089-.07q.084-.069.164-.143c.033-.03.065-.062.1-.093l.088-.088c.029-.03.061-.063.091-.1q.077-.084.149-.172c.021-.026.041-.052.062-.079q.057-.074.113-.151l.045-.063q.079-.114.15-.234l.008-.014q.076-.128.143-.261l0,0,.007-.013c.01-.019.019-.038.029-.057l9.572-19.14q.451.035.91.036a11.461,11.461,0,0,0,7.97-3.21L146,163.02a2.875,2.875,0,0,0,3.877-1.225l10.056-19.351Zm29.857-2.97h-8.162l-6.6,12.741,5.4,6.755a2.884,2.884,0,0,0,4.877-.478l7.066-14.7A3,3,0,0,0,169.839,145.78ZM88.8,120.34l49.216,25.574a1.438,1.438,0,0,0,1.1.1l27.136-8.578a1.437,1.437,0,0,0,.23-2.646L99.408,99.934a1.437,1.437,0,0,0-1.938.613L88.191,118.4A1.437,1.437,0,0,0,88.8,120.34Z" transform="translate(-75 -99.771)" fill="#d3d3d3" fill-rule="evenodd"/>
</svg>
