<svg xmlns="http://www.w3.org/2000/svg" width="32.727" height="27" viewBox="0 0 32.727 27">
  <path id="Track_Your_order_19371" d="M155.545,197.883h-3.273l-6.513-10.748a2.311,2.311,0,0,0-2-1.134H127.182A2.171,2.171,0,0,0,125,188.16v20.093h0a4.91,4.91,0,0,0,9.815,0h8.73a4.91,4.91,0,0,0,9.815,0h4.365v-8.21A2.171,2.171,0,0,0,155.545,197.883Zm-15.049-.11-4.042,6.592h0l-4.055-6.592a5.052,5.052,0,0,1-.851-2.59,4.83,4.83,0,0,1,1.436-3.439,4.922,4.922,0,0,1,8.382,3.439A5.073,5.073,0,0,1,140.5,197.772Zm-2.188-2.374a1.855,1.855,0,1,1-1.855-1.836A1.846,1.846,0,0,1,138.309,195.4Z" transform="translate(-125 -186)" fill="#fff" fill-rule="evenodd"/>
</svg>
