<svg xmlns="http://www.w3.org/2000/svg" width="18.534" height="24.95" viewBox="0 0 18.534 24.95">
  <path id="voucher" d="M186.4,63.956a2.851,2.851,0,0,0-4.158-.108h0l0,0q-.049.05-.1.1L175,71.555V85.1a2.851,2.851,0,0,0,2.851,2.851h12.832a2.851,2.851,0,0,0,2.851-2.851V71.555Zm-2.13,2.252a1.782,1.782,0,1,1-1.782,1.782A1.782,1.782,0,0,1,184.267,66.208Zm7.271,13.145-2.512,1.185,1.542,2.2-2.81-.148.159,2.627-2.354-1.442L184.3,86.125l-1.268-2.349-2.354,1.442.159-2.627-2.81.148,1.542-2.2-2.512-1.185,2.512-1.185-1.542-2.2,2.81.148-.159-2.627,2.354,1.442,1.268-2.349,1.267,2.349,2.354-1.442-.159,2.627,2.81-.148-1.542,2.2Z" transform="translate(-175 -63)" fill="#fff" fill-rule="evenodd"/>
</svg>
