<?xml version="1.0" standalone="no"?>
<!DOCTYPE svg PUBLIC "-//W3C//DTD SVG 1.1//EN" "http://www.w3.org/Graphics/SVG/1.1/DTD/svg11.dtd" >
<svg xmlns="http://www.w3.org/2000/svg" xmlns:xlink="http://www.w3.org/1999/xlink" version="1.1">
<metadata>
Created by FontForge 20160405 at Sun May 29 03:57:58 2016
 By www-data
Copyright 2015 Samsung Electronics Co., Ltd. All Rights Reserved.
</metadata>
<defs>
<font id="SamsungOneArabic-600" horiz-adv-x="0" >
  <font-face 
    font-family="SamsungOneArabic 600"
    font-weight="600"
    font-stretch="normal"
    units-per-em="1024"
    panose-1="2 11 7 3 3 3 3 2 2 4"
    ascent="794"
    descent="-230"
    x-height="539"
    cap-height="724"
    bbox="-452 -471 1432 1126"
    underline-thickness="35"
    underline-position="-171"
    unicode-range="U+000D-FEFC"
  />
<missing-glyph horiz-adv-x="692" 
d="M601 0h-86h-376h-49v724h86h425v-724zM515 644h-299l299 -493v493zM176 80h301l-301 497v-497z" />
    <glyph glyph-name="fi" unicode="fi" horiz-adv-x="637" 
d="M104 456h-89v83h89v57q0 87 52 135.5t145 48.5q32 0 54 -5v-85q-34 4 -54 4q-49 0 -74.5 -25t-25.5 -73v-57h135v-83h-135v-456h-97v456zM452 539h97v-539h-97v539zM454.5 641.5q-16.5 16.5 -16.5 45.5q0 30 16.5 46.5t46.5 16.5t47 -16.5t17 -45.5q0 -30 -17 -46.5
t-47 -16.5t-46.5 16.5z" />
    <glyph glyph-name="fl" unicode="fl" horiz-adv-x="678" 
d="M104 456h-89v83h89v57q0 87 52 135.5t145 48.5q32 0 54 -5v-85q-34 4 -54 4q-49 0 -74.5 -25t-25.5 -73v-57h135v-83h-135v-456h-97v456zM448 121v649h97v-636q0 -28 12.5 -41t39.5 -13q18 0 38 4l8 -82q-35 -8 -69 -8q-126 0 -126 127z" />
    <glyph glyph-name="uniFC43" unicode="&#xfedf;&#xfef0;" horiz-adv-x="741" arabic-form="isolated" 
d="M686 -53q0 -45 -43.5 -83.5t-118.5 -60.5t-165 -22q-152 0 -230.5 59t-78.5 173q0 55 23 133h80q-23 -72 -23 -127q0 -73 58.5 -110.5t170.5 -37.5q104 0 174.5 21t70.5 56q0 22 -50.5 40.5t-138.5 35.5l-25 5v90l26 -4q47 -7 70 -7q50 0 75 17.5t25 56.5v588h85l-1 -586
q0 -53 -24 -85.5t-73 -45.5q113 -38 113 -106z" />
    <glyph glyph-name="uniFC86" unicode="&#xfee0;&#xfef0;" horiz-adv-x="922" arabic-form="final" 
d="M937 78q5 -12 5 -33t-5 -33t-15 -12q-111 0 -158 62q-42 -47 -116 -51q38 -30 38 -64q0 -45 -43.5 -83.5t-118.5 -60.5t-165 -22q-152 0 -230.5 59t-78.5 173q0 55 23 133h80q-23 -72 -23 -127q0 -73 60 -110.5t179 -37.5q98 0 166.5 21.5t68.5 55.5q0 42 -120 74l-26 7
v90l26 -5q76 -14 144 -14q70 0 108 29q-4 20 -4 48v593h85l-1 -573q0 -56 24.5 -81.5t81.5 -25.5q10 0 15 -12z" />
    <glyph glyph-name="uniFDF2" unicode="&#x627;&#xfedf;&#xfee0;&#xfeea;" horiz-adv-x="1212" arabic-form="isolated" 
d="M621 894l-62 -16v181l62 16v-181zM478.5 686.5q-18.5 28.5 -18.5 77.5q0 10 2 36l53 13q-3 -24 -3 -49q0 -21 6 -32.5t17 -11.5q31 0 31 105l52 13q1 -48 8.5 -68t22.5 -20q11 0 17.5 11.5t6.5 32.5q0 23 -8 55l50 13q10 -42 10 -78q0 -44 -20 -70t-53 -26q-38 0 -57 38
q-5 -34 -22 -51t-42 -17q-34 0 -52.5 28.5zM1142 770v-770h-85v770h85zM813 689h85l-1 -515q0 -174 -170 -174q-103 0 -145 57q-39 -57 -114 -57q-111 0 -151 67q-51 -24 -123 -24q-73 0 -119.5 37t-46.5 97q0 51 41 99.5t133 108.5l93 60v59h85l-1 -327q0 -43 22.5 -65
t66.5 -22q58 0 89 31q-3 17 -3 36v439h85l-1 -419q0 -43 22.5 -65t66.5 -22q86 0 86 82v517zM295 147v10v204l-68 -43q-61 -38 -87.5 -65t-26.5 -56t26 -46.5t72 -17.5q47 0 84 14z" />
    <glyph glyph-name="uniFEF5" unicode="&#xfedf;&#xfe82;" horiz-adv-x="566" arabic-form="isolated" 
d="M496 724l-1 -450q0 -93 -46 -151t-144 -90.5t-263 -47.5v95q136 12 210 29q-7 40 -45 129l-128 311l83 35l127 -311q21 -50 31 -81.5t12 -55.5q43 22 61 58.5t18 97.5v432h85zM246 661q-11 -3 -27 -3q-33 0 -83 10q-8 1 -26.5 4t-31.5 3q-18 0 -28.5 -9t-10.5 -24h-55
q0 43 24 69t65 26q31 0 76 -9q46 -8 70 -8q26 0 50 11v-59q-12 -8 -23 -11z" />
    <glyph glyph-name="uniFEF6" unicode="&#xfee0;&#xfe82;" horiz-adv-x="615" arabic-form="final" 
d="M630 78q5 -12 5 -33t-5 -33t-15 -12h-5q-80 0 -125 24t-62 78q-49 -48 -141.5 -75.5t-239.5 -41.5v95q136 12 210 29q-7 40 -45 129l-128 311l83 35l127 -311q21 -50 31 -81.5t12 -55.5q43 22 61 58.5t18 97.5v432h85l-1 -532q0 -55 26.5 -78.5t88.5 -23.5h5q10 0 15 -12
zM246 661q-11 -3 -27 -3q-33 0 -83 10q-8 1 -26.5 4t-31.5 3q-18 0 -28.5 -9t-10.5 -24h-55q0 43 24 69t65 26q31 0 76 -9q46 -8 70 -8q26 0 50 11v-59q-12 -8 -23 -11z" />
    <glyph glyph-name="uniFEF7" unicode="&#xfedf;&#xfe84;" horiz-adv-x="566" arabic-form="isolated" 
d="M496 724l-1 -450q0 -93 -46 -151t-144 -90.5t-263 -47.5v95q136 12 210 29q-7 40 -45 129l-128 311l83 35l127 -311q21 -50 31 -81.5t12 -55.5q43 22 61 58.5t18 97.5v432h85zM237 699v-62h-195l10 62h27q-13 21 -13 45q0 38 30.5 64t75.5 26q28 0 54 -10v-62
q-28 10 -59 10q-46 0 -46 -37q0 -10 5.5 -19.5t15.5 -16.5h95z" />
    <glyph glyph-name="uniFEF8" unicode="&#xfee0;&#xfe84;" horiz-adv-x="615" arabic-form="final" 
d="M630 78q5 -12 5 -33t-5 -33t-15 -12h-5q-80 0 -125 24t-62 78q-49 -48 -141.5 -75.5t-239.5 -41.5v95q136 12 210 29q-7 40 -45 129l-128 311l83 35l127 -311q21 -50 31 -81.5t12 -55.5q43 22 61 58.5t18 97.5v432h85l-1 -532q0 -55 26.5 -78.5t88.5 -23.5h5q10 0 15 -12
zM237 699v-62h-195l10 62h27q-13 21 -13 45q0 38 30.5 64t75.5 26q28 0 54 -10v-62q-28 10 -59 10q-46 0 -46 -37q0 -10 5.5 -19.5t15.5 -16.5h95z" />
    <glyph glyph-name="uniFEF9" unicode="&#xfedf;&#xfe88;" horiz-adv-x="566" arabic-form="isolated" 
d="M496 724l-1 -450q0 -93 -46 -151t-144 -90.5t-263 -47.5v95q136 12 210 29q-7 40 -45 129l-128 311l83 35l127 -311q21 -50 31 -81.5t12 -55.5q43 22 61 58.5t18 97.5v432h85zM271 -179v-62h-195l10 62h27q-13 21 -13 45q0 38 30.5 64t75.5 26q28 0 54 -10v-62
q-28 10 -59 10q-46 0 -46 -37q0 -10 5.5 -19.5t15.5 -16.5h95z" />
    <glyph glyph-name="uniFEFA" unicode="&#xfee0;&#xfe88;" horiz-adv-x="615" arabic-form="final" 
d="M630 78q5 -12 5 -33t-5 -33t-15 -12h-5q-80 0 -125 24t-62 78q-49 -48 -141.5 -75.5t-239.5 -41.5v95q136 12 210 29q-7 40 -45 129l-128 311l83 35l127 -311q21 -50 31 -81.5t12 -55.5q43 22 61 58.5t18 97.5v432h85l-1 -532q0 -55 26.5 -78.5t88.5 -23.5h5q10 0 15 -12
zM271 -179v-62h-195l10 62h27q-13 21 -13 45q0 38 30.5 64t75.5 26q28 0 54 -10v-62q-28 10 -59 10q-46 0 -46 -37q0 -10 5.5 -19.5t15.5 -16.5h95z" />
    <glyph glyph-name="uniFEFB" unicode="&#xfedf;&#xfe8e;" horiz-adv-x="566" arabic-form="isolated" 
d="M496 724l-1 -450q0 -93 -46 -151t-144 -90.5t-263 -47.5v95q136 12 210 29q-7 40 -45 129l-128 311l83 35l127 -311q21 -50 31 -81.5t12 -55.5q43 22 61 58.5t18 97.5v432h85z" />
    <glyph glyph-name="uniFEFC" unicode="&#xfee0;&#xfe8e;" horiz-adv-x="615" arabic-form="final" 
d="M630 78q5 -12 5 -33t-5 -33t-15 -12h-5q-80 0 -125 24t-62 78q-49 -48 -141.5 -75.5t-239.5 -41.5v95q136 12 210 29q-7 40 -45 129l-128 311l83 35l127 -311q21 -50 31 -81.5t12 -55.5q43 22 61 58.5t18 97.5v432h85l-1 -532q0 -55 26.5 -78.5t88.5 -23.5h5q10 0 15 -12
z" />
    <glyph glyph-name="uni06440671" unicode="&#xfedf;&#xfb51;" horiz-adv-x="566" 
d="M496 724l-1 -450q0 -93 -46 -151t-144 -90.5t-263 -47.5v95q136 12 210 29q-7 40 -45 129l-128 311l83 35l127 -311q21 -50 31 -81.5t12 -55.5q43 22 61 58.5t18 97.5v432h85zM239 790q24 -27 24 -70q0 -42 -26 -69.5t-70 -27.5q-27 0 -65 9q-28 6 -40 6q-27 0 -27 -24
h-55q0 36 19.5 59t52.5 26q51 118 126 118q37 0 61 -27zM196 694q12 9 12 24q0 17 -11.5 26.5t-28.5 9.5q-37 0 -68 -59q6 -1 24.5 -5.5t38.5 -4.5q21 0 33 9z" />
    <glyph glyph-name="uni06440671.fina" unicode="&#xfee0;&#xfb51;" horiz-adv-x="615" 
d="M630 78q5 -12 5 -33t-5 -33t-15 -12h-5q-80 0 -125 24t-62 78q-49 -48 -141.5 -75.5t-239.5 -41.5v95q136 12 210 29q-7 40 -45 129l-128 311l83 35l127 -311q21 -50 31 -81.5t12 -55.5q43 22 61 58.5t18 97.5v432h85l-1 -532q0 -55 26.5 -78.5t88.5 -23.5h5q10 0 15 -12
zM239 790q24 -27 24 -70q0 -42 -26 -69.5t-70 -27.5q-27 0 -65 9q-28 6 -40 6q-27 0 -27 -24h-55q0 36 19.5 59t52.5 26q51 118 126 118q37 0 61 -27zM196 694q12 9 12 24q0 17 -11.5 26.5t-28.5 9.5q-37 0 -68 -59q6 -1 24.5 -5.5t38.5 -4.5q21 0 33 9z" />
    <glyph glyph-name="uni066E.init" unicode="&#x66e;" horiz-adv-x="262" 
d="M-20 45q0 45 20 45h30q102 0 102 64q0 61 -28 184h85q23 -110 23 -198q0 -64 -49.5 -102t-132.5 -38h-30q-20 0 -20 45z" />
    <glyph glyph-name="uni066E.medi" unicode="&#x66e;" horiz-adv-x="320" 
d="M334.5 78q5.5 -12 5.5 -33t-5.5 -33t-15.5 -12q-115 0 -161 66q-22 -31 -63 -48.5t-94 -17.5q-10 0 -15.5 12t-5.5 33t5.5 33t15.5 12q45 0 79.5 10.5t52.5 28.5q-2 8 -4 24l-10 115h82l9 -105q8 -73 109 -73q10 0 15.5 -12z" />
    <glyph glyph-name="uni066E.fina" unicode="&#x66e;" horiz-adv-x="861" 
d="M875.5 78q5.5 -12 5.5 -33t-5.5 -33t-15.5 -12q-128 0 -160 102q-131 -114 -346 -114q-155 0 -229.5 52.5t-74.5 155.5q0 53 16 107h80q-14 -51 -14 -92q0 -66 54 -99.5t168 -33.5q133 0 232 47t157 138l51 -40q-19 -36 -41 -64q16 -69 107 -69q10 0 15.5 -12z" />
    <glyph glyph-name="uni066F.fina" unicode="&#x66f;" horiz-adv-x="726" 
d="M741 78q5 -12 5 -33t-5 -33t-15 -12h-51q-7 -104 -90 -161.5t-219 -57.5q-141 0 -223.5 60.5t-82.5 171.5q0 63 23 153h80q-23 -83 -23 -147q0 -72 61 -110t165 -38q106 0 163 31.5t66 97.5h-87q-88 0 -140 39t-52 113q0 56 25.5 108.5t66 85t84.5 32.5q74 0 122 -77.5
t59 -210.5h53q10 0 15 -12zM593 90q-8 92 -36 145t-68 53q-23 0 -44.5 -19.5t-35 -51t-13.5 -65.5q0 -32 30.5 -47t80.5 -15h86z" />
    <glyph glyph-name="uni06A1.init" unicode="&#x6a1;" horiz-adv-x="470" 
d="M335.5 495q41.5 -44 64.5 -125.5t23 -188.5q0 -96 -62.5 -138.5t-202.5 -42.5h-158q-10 0 -15 12t-5 33t5 33t15 12h158q70 0 108.5 7t55.5 24t20 49q-43 -9 -87 -9q-88 0 -140 39t-52 113q0 56 25.5 108.5t66 85t84.5 32.5q55 0 96.5 -44zM339 259q-9 88 -36.5 139
t-66.5 51q-23 0 -44.5 -19.5t-35 -51t-13.5 -65.5q0 -32 30.5 -47t80.5 -15q42 0 85 8z" />
    <glyph glyph-name="uni06A1.medi" unicode="&#x6a1;" horiz-adv-x="452" 
d="M467 78q5 -12 5 -33t-5 -33t-15 -12h-12q-114 0 -214 39q-97 -39 -208 -39h-18q-10 0 -15 12t-5 33t5 33t15 12h18q59 0 104 7q-39 30 -60.5 66t-21.5 75q0 55 26 104.5t69.5 80t92.5 30.5q50 0 91.5 -29.5t65.5 -79t24 -106.5q0 -39 -21 -75t-59 -66q46 -7 108 -7h15
q10 0 15 -12zM147 171.5q27 -29.5 78 -49.5q50 20 77 49.5t27 66.5q0 33 -14 62t-37 46t-50 17q-46 0 -77 -37t-31 -88q0 -37 27 -66.5z" />
    <glyph glyph-name="uni06A1.fina" unicode="&#x6a1;" horiz-adv-x="863" 
d="M878 78q5 -12 5 -33t-5 -33t-15 -12h-12q-108 0 -205 38q-123 -50 -286 -50q-310 0 -310 208q0 57 16 117h80q-14 -58 -14 -102q0 -133 228 -133q102 0 183 14q-44 32 -68 69.5t-24 76.5q0 55 26 104.5t69.5 80t92.5 30.5q50 0 91.5 -29.5t65.5 -79t24 -106.5
q0 -79 -72 -141q54 -7 100 -7h15q10 0 15 -12zM562 173.5q31 -30.5 85 -50.5q93 40 93 115q0 33 -14 62t-37 46t-50 17q-46 0 -77 -37t-31 -88q0 -34 31 -64.5z" />
    <glyph glyph-name="uni06C2.fina" unicode="&#x6c2;" horiz-adv-x="499" 
d="M514 78q5 -12 5 -33t-5 -33t-15 -12h-5q-68 0 -111 16t-64 52q-50 -25 -125 -25q-73 0 -119.5 37t-46.5 97q0 51 41 99.5t133 108.5l93 60v59h85l-1 -312q0 -57 26 -79.5t89 -22.5h5q10 0 15 -12zM296 148q-1 10 -1 34v179l-68 -43q-61 -38 -87.5 -65t-26.5 -56t26 -46.5
t72 -17.5q49 0 85 15zM345 636v-62h-195l10 62h27q-13 21 -13 45q0 38 30.5 64t75.5 26q28 0 54 -10v-62q-28 10 -59 10q-46 0 -46 -37q0 -10 5.5 -19.5t15.5 -16.5h95z" />
    <glyph glyph-name="uni06C3.fina" unicode="&#x6c3;" horiz-adv-x="564" 
d="M188.5 280q76.5 33 130.5 33q35 0 57.5 -12t36.5 -41t25 -82q7 -35 20 -54t36.5 -26.5t64.5 -7.5h5q10 0 15 -12t5 -33t-5 -33t-15 -12h-5q-66 0 -104 15t-59.5 50.5t-36.5 101.5q-8 32 -18.5 44t-31.5 12q-41 0 -119.5 -35.5t-179.5 -98.5v95q102 63 178.5 96z
M283.5 514.5q14.5 -15.5 14.5 -43.5t-14.5 -43t-40.5 -15t-40.5 15t-14.5 43t14.5 43.5t40.5 15.5t40.5 -15.5zM423.5 514.5q14.5 -15.5 14.5 -43.5t-14.5 -43t-40.5 -15t-40.5 15t-14.5 43t14.5 43.5t40.5 15.5t40.5 -15.5z" />
    <glyph glyph-name="uniFB51" unicode="&#x671;" horiz-adv-x="274" arabic-form="final" 
d="M116 48q-46 48 -46 159v435h85l-1 -425q0 -69 26.5 -98t88.5 -29h5q10 0 15 -12t5 -33t-5 -33t-15 -12h-5q-107 0 -153 48zM217 857q24 -27 24 -70q0 -42 -26 -69.5t-70 -27.5q-27 0 -65 9q-28 6 -40 6q-27 0 -27 -24h-55q0 36 19.5 59t52.5 26q51 118 126 118
q37 0 61 -27zM174 761q12 9 12 24q0 17 -11.5 26.5t-28.5 9.5q-37 0 -68 -59q6 -1 24.5 -5.5t38.5 -4.5q21 0 33 9z" />
    <glyph glyph-name="uniFB57" unicode="&#x67e;" horiz-adv-x="861" arabic-form="final" 
d="M875.5 78q5.5 -12 5.5 -33t-5.5 -33t-15.5 -12q-128 0 -160 102q-131 -114 -346 -114q-155 0 -229.5 52.5t-74.5 155.5q0 53 16 107h80q-14 -51 -14 -92q0 -66 54 -99.5t168 -33.5q133 0 232 47t157 138l51 -40q-19 -36 -41 -64q16 -69 107 -69q10 0 15.5 -12z
M311.5 -229.5q-14.5 15.5 -14.5 43.5t14.5 43t40.5 15t40.5 -15t14.5 -43t-14.5 -43.5t-40.5 -15.5t-40.5 15.5zM451.5 -229.5q-14.5 15.5 -14.5 43.5t14.5 43t40.5 15t40.5 -15t14.5 -43t-14.5 -43.5t-40.5 -15.5t-40.5 15.5zM381.5 -359.5q-14.5 15.5 -14.5 43.5t14.5 43
t40.5 15t40.5 -15t14.5 -43t-14.5 -43.5t-40.5 -15.5t-40.5 15.5z" />
    <glyph glyph-name="uniFB58" unicode="&#x67e;" horiz-adv-x="262" arabic-form="initial" 
d="M-20 45q0 45 20 45h30q102 0 102 64q0 61 -28 184h85q23 -110 23 -198q0 -64 -49.5 -102t-132.5 -38h-30q-20 0 -20 45zM4.5 -229.5q-14.5 15.5 -14.5 43.5t14.5 43t40.5 15t40.5 -15t14.5 -43t-14.5 -43.5t-40.5 -15.5t-40.5 15.5zM144.5 -229.5q-14.5 15.5 -14.5 43.5
t14.5 43t40.5 15t40.5 -15t14.5 -43t-14.5 -43.5t-40.5 -15.5t-40.5 15.5zM74.5 -359.5q-14.5 15.5 -14.5 43.5t14.5 43t40.5 15t40.5 -15t14.5 -43t-14.5 -43.5t-40.5 -15.5t-40.5 15.5z" />
    <glyph glyph-name="uniFB59" unicode="&#x67e;" horiz-adv-x="320" arabic-form="medial" 
d="M334.5 78q5.5 -12 5.5 -33t-5.5 -33t-15.5 -12q-115 0 -161 66q-22 -31 -63 -48.5t-94 -17.5q-10 0 -15.5 12t-5.5 33t5.5 33t15.5 12q45 0 79.5 10.5t52.5 28.5q-2 8 -4 24l-10 115h82l9 -105q8 -73 109 -73q10 0 15.5 -12zM51.5 -229.5q-14.5 15.5 -14.5 43.5t14.5 43
t40.5 15t40.5 -15t14.5 -43t-14.5 -43.5t-40.5 -15.5t-40.5 15.5zM191.5 -229.5q-14.5 15.5 -14.5 43.5t14.5 43t40.5 15t40.5 -15t14.5 -43t-14.5 -43.5t-40.5 -15.5t-40.5 15.5zM121.5 -359.5q-14.5 15.5 -14.5 43.5t14.5 43t40.5 15t40.5 -15t14.5 -43t-14.5 -43.5
t-40.5 -15.5t-40.5 15.5z" />
    <glyph glyph-name="uniFB67" unicode="&#x679;" horiz-adv-x="861" arabic-form="final" 
d="M875.5 78q5.5 -12 5.5 -33t-5.5 -33t-15.5 -12q-128 0 -160 102q-131 -114 -346 -114q-155 0 -229.5 52.5t-74.5 155.5q0 53 16 107h80q-14 -51 -14 -92q0 -66 54 -99.5t168 -33.5q133 0 232 47t157 138l51 -40q-19 -36 -41 -64q16 -69 107 -69q10 0 15.5 -12zM523 546
q24 -26 24 -65q0 -46 -26 -74.5t-70 -28.5h-181l12 62h34v217h55v-151q16 32 39.5 49t51.5 17q37 0 61 -26zM480 449q12 9 12 24q0 17 -11.5 26.5t-28.5 9.5q-23 0 -43.5 -18.5t-36.5 -50.5h75q21 0 33 9z" />
    <glyph glyph-name="uniFB68" unicode="&#x679;" horiz-adv-x="262" arabic-form="initial" 
d="M-20 45q0 45 20 45h30q102 0 102 64q0 61 -28 184h85q23 -110 23 -198q0 -64 -49.5 -102t-132.5 -38h-30q-20 0 -20 45zM239 581q24 -26 24 -65q0 -46 -26 -74.5t-70 -28.5h-181l12 62h34v217h55v-151q16 32 39.5 49t51.5 17q37 0 61 -26zM196 484q12 9 12 24
q0 17 -11.5 26.5t-28.5 9.5q-23 0 -43.5 -18.5t-36.5 -50.5h75q21 0 33 9z" />
    <glyph glyph-name="uniFB69" unicode="&#x679;" horiz-adv-x="320" arabic-form="medial" 
d="M334.5 78q5.5 -12 5.5 -33t-5.5 -33t-15.5 -12q-115 0 -161 66q-22 -31 -63 -48.5t-94 -17.5q-10 0 -15.5 12t-5.5 33t5.5 33t15.5 12q45 0 79.5 10.5t52.5 28.5q-2 8 -4 24l-10 115h82l9 -105q8 -73 109 -73q10 0 15.5 -12zM256 511q24 -26 24 -65q0 -46 -26 -74.5
t-70 -28.5h-181l12 62h34v217h55v-151q16 32 39.5 49t51.5 17q37 0 61 -26zM213 414q12 9 12 24q0 17 -11.5 26.5t-28.5 9.5q-23 0 -43.5 -18.5t-36.5 -50.5h75q21 0 33 9z" />
    <glyph glyph-name="uniFB6B" unicode="&#x6a4;" horiz-adv-x="863" arabic-form="final" 
d="M878 78q5 -12 5 -33t-5 -33t-15 -12h-12q-108 0 -205 38q-123 -50 -286 -50q-310 0 -310 208q0 57 16 117h80q-14 -58 -14 -102q0 -133 228 -133q102 0 183 14q-44 32 -68 69.5t-24 76.5q0 55 26 104.5t69.5 80t92.5 30.5q50 0 91.5 -29.5t65.5 -79t24 -106.5
q0 -79 -72 -141q54 -7 100 -7h15q10 0 15 -12zM562 173.5q31 -30.5 85 -50.5q93 40 93 115q0 33 -14 62t-37 46t-50 17q-46 0 -77 -37t-31 -88q0 -34 31 -64.5zM683.5 746.5q14.5 -15.5 14.5 -43.5t-14.5 -43t-40.5 -15t-40.5 15t-14.5 43t14.5 43.5t40.5 15.5t40.5 -15.5z
M613.5 616.5q14.5 -15.5 14.5 -43.5t-14.5 -43t-40.5 -15t-40.5 15t-14.5 43t14.5 43.5t40.5 15.5t40.5 -15.5zM753.5 616.5q14.5 -15.5 14.5 -43.5t-14.5 -43t-40.5 -15t-40.5 15t-14.5 43t14.5 43.5t40.5 15.5t40.5 -15.5z" />
    <glyph glyph-name="uniFB6C" unicode="&#x6a4;" horiz-adv-x="470" arabic-form="initial" 
d="M335.5 495q41.5 -44 64.5 -125.5t23 -188.5q0 -96 -62.5 -138.5t-202.5 -42.5h-158q-10 0 -15 12t-5 33t5 33t15 12h158q70 0 108.5 7t55.5 24t20 49q-43 -9 -87 -9q-88 0 -140 39t-52 113q0 56 25.5 108.5t66 85t84.5 32.5q55 0 96.5 -44zM339 259q-9 88 -36.5 139
t-66.5 51q-23 0 -44.5 -19.5t-35 -51t-13.5 -65.5q0 -32 30.5 -47t80.5 -15q42 0 85 8zM276.5 810.5q14.5 -15.5 14.5 -43.5t-14.5 -43t-40.5 -15t-40.5 15t-14.5 43t14.5 43.5t40.5 15.5t40.5 -15.5zM206.5 680.5q14.5 -15.5 14.5 -43.5t-14.5 -43t-40.5 -15t-40.5 15
t-14.5 43t14.5 43.5t40.5 15.5t40.5 -15.5zM346.5 680.5q14.5 -15.5 14.5 -43.5t-14.5 -43t-40.5 -15t-40.5 15t-14.5 43t14.5 43.5t40.5 15.5t40.5 -15.5z" />
    <glyph glyph-name="uniFB6D" unicode="&#x6a4;" horiz-adv-x="452" arabic-form="medial" 
d="M467 78q5 -12 5 -33t-5 -33t-15 -12h-12q-114 0 -214 39q-97 -39 -208 -39h-18q-10 0 -15 12t-5 33t5 33t15 12h18q59 0 104 7q-39 30 -60.5 66t-21.5 75q0 55 26 104.5t69.5 80t92.5 30.5q50 0 91.5 -29.5t65.5 -79t24 -106.5q0 -39 -21 -75t-59 -66q46 -7 108 -7h15
q10 0 15 -12zM147 171.5q27 -29.5 78 -49.5q50 20 77 49.5t27 66.5q0 33 -14 62t-37 46t-50 17q-46 0 -77 -37t-31 -88q0 -37 27 -66.5zM272.5 746.5q14.5 -15.5 14.5 -43.5t-14.5 -43t-40.5 -15t-40.5 15t-14.5 43t14.5 43.5t40.5 15.5t40.5 -15.5zM202.5 616.5
q14.5 -15.5 14.5 -43.5t-14.5 -43t-40.5 -15t-40.5 15t-14.5 43t14.5 43.5t40.5 15.5t40.5 -15.5zM342.5 616.5q14.5 -15.5 14.5 -43.5t-14.5 -43t-40.5 -15t-40.5 15t-14.5 43t14.5 43.5t40.5 15.5t40.5 -15.5z" />
    <glyph glyph-name="uniFB7B" unicode="&#x686;" horiz-adv-x="600" arabic-form="final" 
d="M614.5 78q5.5 -12 5.5 -33t-5.5 -33t-15.5 -12q-93 0 -139.5 39t-53.5 124q-90 -8 -163 -42.5t-114.5 -87.5t-41.5 -114q0 -69 63 -110t168 -41q64 0 128 13.5t107 35.5v-92q-48 -21 -112 -34t-123 -13q-93 0 -163.5 30t-109 84.5t-38.5 126.5q0 78 48 145.5t132.5 113
t190.5 59.5q-31 15 -64 33q-55 30 -90 44t-73 14q-21 0 -39.5 -3.5t-46.5 -12.5v88q46 18 86 18q51 0 97.5 -21t112.5 -62q67 -41 110.5 -60.5t90.5 -19.5v-90h-81q7 -41 33.5 -58t84.5 -17q10 0 15.5 -12zM189.5 -46.5q-14.5 15.5 -14.5 43.5t14.5 43t40.5 15t40.5 -15
t14.5 -43t-14.5 -43.5t-40.5 -15.5t-40.5 15.5zM329.5 -46.5q-14.5 15.5 -14.5 43.5t14.5 43t40.5 15t40.5 -15t14.5 -43t-14.5 -43.5t-40.5 -15.5t-40.5 15.5zM259.5 -176.5q-14.5 15.5 -14.5 43.5t14.5 43t40.5 15t40.5 -15t14.5 -43t-14.5 -43.5t-40.5 -15.5t-40.5 15.5z
" />
    <glyph glyph-name="uniFB7C" unicode="&#x686;" horiz-adv-x="600" arabic-form="initial" 
d="M248.5 364.5q46.5 -18.5 112.5 -54.5q67 -36 110.5 -53t90.5 -17v-90h-13q-54 0 -106 -17.5t-132 -52.5q-91 -40 -154.5 -60t-133.5 -20h-23q-10 0 -15 12t-5 33t5 33t15 12h23q59 0 120.5 18t145.5 51q8 3 50 19t75 24q-40 14 -100 42q-56 26 -90.5 37.5t-72.5 11.5
q-21 0 -39.5 -3.5t-46.5 -12.5v88q46 18 86 18q51 0 97.5 -18.5zM180.5 -169.5q-14.5 15.5 -14.5 43.5t14.5 43t40.5 15t40.5 -15t14.5 -43t-14.5 -43.5t-40.5 -15.5t-40.5 15.5zM320.5 -169.5q-14.5 15.5 -14.5 43.5t14.5 43t40.5 15t40.5 -15t14.5 -43t-14.5 -43.5
t-40.5 -15.5t-40.5 15.5zM250.5 -299.5q-14.5 15.5 -14.5 43.5t14.5 43t40.5 15t40.5 -15t14.5 -43t-14.5 -43.5t-40.5 -15.5t-40.5 15.5z" />
    <glyph glyph-name="uniFB7D" unicode="&#x686;" horiz-adv-x="600" arabic-form="medial" 
d="M614.5 78q5.5 -12 5.5 -33t-5.5 -33t-15.5 -12q-82 0 -125 31.5t-56 101.5q-35 -13 -107 -47q-89 -42 -153 -64t-135 -22h-23q-10 0 -15 12t-5 33t5 33t15 12h23q58 0 117.5 19t146.5 55q34 14 67.5 27t58.5 20q-45 15 -99 38q-57 23 -91.5 33.5t-71.5 10.5
q-21 0 -39.5 -3.5t-46.5 -12.5v88q46 18 86 18q51 0 98 -17.5t112 -50.5q66 -33 110 -49t91 -16v-90h-13q-29 0 -58 -6q7 -34 32.5 -49t75.5 -15q10 0 15.5 -12zM180.5 -169.5q-14.5 15.5 -14.5 43.5t14.5 43t40.5 15t40.5 -15t14.5 -43t-14.5 -43.5t-40.5 -15.5t-40.5 15.5
zM320.5 -169.5q-14.5 15.5 -14.5 43.5t14.5 43t40.5 15t40.5 -15t14.5 -43t-14.5 -43.5t-40.5 -15.5t-40.5 15.5zM250.5 -299.5q-14.5 15.5 -14.5 43.5t14.5 43t40.5 15t40.5 -15t14.5 -43t-14.5 -43.5t-40.5 -15.5t-40.5 15.5z" />
    <glyph glyph-name="uniFB89" unicode="&#x688;" horiz-adv-x="500" arabic-form="final" 
d="M514.5 78q5.5 -12 5.5 -33t-5.5 -33t-15.5 -12h-14q-78 0 -120 41q-36 -25 -88 -39t-109 -14q-75 0 -131 22v92q59 -24 136 -24q92 0 148 28q-8 16 -14 34l-99 278h94l90 -255q14 -42 36 -57.5t57 -15.5h14q10 0 15.5 -12zM352 676q24 -26 24 -65q0 -46 -26 -74.5
t-70 -28.5h-181l12 62h34v217h55v-151q16 32 39.5 49t51.5 17q37 0 61 -26zM309 579q12 9 12 24q0 17 -11.5 26.5t-28.5 9.5q-23 0 -43.5 -18.5t-36.5 -50.5h75q21 0 33 9z" />
    <glyph glyph-name="uniFB8B" unicode="&#x698;" horiz-adv-x="412" arabic-form="final" 
d="M426.5 78q5.5 -12 5.5 -33t-5.5 -33t-15.5 -12q-66 0 -100 37v-12q0 -73 -24 -128.5t-69 -85.5t-104 -30q-42 0 -88 10l-1 92q51 -12 89 -12q65 0 94.5 36t29.5 115q0 43 -12 131l-15 115h82l10 -75q7 -58 31.5 -80.5t76.5 -22.5q10 0 15.5 -12zM281.5 582.5
q14.5 -15.5 14.5 -43.5t-14.5 -43t-40.5 -15t-40.5 15t-14.5 43t14.5 43.5t40.5 15.5t40.5 -15.5zM211.5 452.5q14.5 -15.5 14.5 -43.5t-14.5 -43t-40.5 -15t-40.5 15t-14.5 43t14.5 43.5t40.5 15.5t40.5 -15.5zM351.5 452.5q14.5 -15.5 14.5 -43.5t-14.5 -43t-40.5 -15
t-40.5 15t-14.5 43t14.5 43.5t40.5 15.5t40.5 -15.5z" />
    <glyph glyph-name="uniFB8D" unicode="&#x691;" horiz-adv-x="412" arabic-form="final" 
d="M426.5 78q5.5 -12 5.5 -33t-5.5 -33t-15.5 -12q-66 0 -100 37v-12q0 -73 -24 -128.5t-69 -85.5t-104 -30q-42 0 -88 10l-1 92q51 -12 89 -12q65 0 94.5 36t29.5 115q0 43 -12 131l-15 115h82l10 -75q7 -58 31.5 -80.5t76.5 -22.5q10 0 15.5 -12zM343 511q24 -26 24 -65
q0 -46 -26 -74.5t-70 -28.5h-181l12 62h34v217h55v-151q16 32 39.5 49t51.5 17q37 0 61 -26zM300 414q12 9 12 24q0 17 -11.5 26.5t-28.5 9.5q-23 0 -43.5 -18.5t-36.5 -50.5h75q21 0 33 9z" />
    <glyph glyph-name="uniFB8F" unicode="&#x6a9;" horiz-adv-x="894" arabic-form="final" 
d="M909 78q5 -12 5 -33t-5 -33t-15 -12h-34q-53 0 -93.5 22.5t-80.5 71.5q-63 -51 -147.5 -78.5t-184.5 -27.5q-155 0 -229.5 52.5t-74.5 155.5q0 53 16 107h80q-14 -51 -14 -92q0 -66 54 -99.5t168 -33.5q170 0 286 80l-183 265v88l398 235l-1 -99l-324 -186l185 -269
q38 -55 74 -78.5t79 -23.5h26q10 0 15 -12z" />
    <glyph glyph-name="uniFB90" unicode="&#x6a9;" horiz-adv-x="460" arabic-form="initial" 
d="M440 647l-316 -182l86 -81q70 -66 105.5 -105.5t49.5 -69t14 -61.5q0 -66 -48.5 -107t-128.5 -41h-202q-10 0 -15 12t-5 33q0 45 20 45h202q47 0 72 15t25 42t-24.5 57.5t-100.5 98.5l-131 120v88l398 235z" />
    <glyph glyph-name="uniFB91" unicode="&#x6a9;" horiz-adv-x="490" arabic-form="medial" 
d="M495 78q5 -12 5 -33t-5 -33t-15 -12h-34q-52 0 -93.5 22.5t-81.5 72.5q-47 -95 -183 -95h-87q-10 0 -15.5 12t-5.5 33t5.5 33t15.5 12h87q100 0 146 56l-191 277v88l398 235l-1 -99l-324 -186l185 -269q38 -55 74 -78.5t79 -23.5h26q10 0 15 -12z" />
    <glyph glyph-name="uniFB93" unicode="&#x6af;" horiz-adv-x="893" arabic-form="final" 
d="M826 752l-342 -200v51l342 202v-53zM908 78q5 -12 5 -33t-5 -33t-15 -12h-34q-51 0 -89 22.5t-82 72.5q-64 -52 -148.5 -79.5t-185.5 -27.5q-155 0 -229.5 52.5t-74.5 155.5q0 53 16 107h80q-14 -51 -14 -92q0 -66 54 -99.5t168 -33.5q167 0 283 78l-181 227v88l398 235
l-1 -99l-321 -184l182 -231q44 -56 77.5 -79t75.5 -23h26q10 0 15 -12z" />
    <glyph glyph-name="uniFB94" unicode="&#x6af;" horiz-adv-x="460" arabic-form="initial" 
d="M413 752l-342 -200v61l342 202v-63zM440 607l-313 -180l83 -63q95 -72 132 -119.5t37 -100.5q0 -68 -47 -106t-130 -38h-202q-10 0 -15 12t-5 33t5 33t15 12h202q48 0 72.5 11.5t24.5 33.5q0 29 -28 62.5t-97 85.5l-131 100v88l398 235z" />
    <glyph glyph-name="uniFB95" unicode="&#x6af;" horiz-adv-x="480" arabic-form="medial" 
d="M413 752l-342 -200v61l342 202v-63zM495 78q5 -12 5 -33t-5 -33t-15 -12h-34q-52 0 -91 23t-83 75q-46 -98 -184 -98h-87q-10 0 -15.5 12t-5.5 33t5.5 33t15.5 12h87q98 0 145 55l-190 238v88l398 235l-1 -99l-321 -184l182 -231q43 -55 77 -78.5t76 -23.5h26
q10 0 15 -12z" />
    <glyph glyph-name="uniFB9F" unicode="&#x6ba;" horiz-adv-x="721" arabic-form="final" 
d="M735.5 78q5.5 -12 5.5 -33t-5.5 -33t-15.5 -12q-71 0 -107 37q1 -9 1 -29q0 -68 -34 -119.5t-96 -79.5t-145 -28q-129 0 -204 60.5t-75 171.5q0 55 23 133h80q-23 -72 -23 -127q0 -73 53.5 -110.5t145.5 -37.5q95 0 151.5 34.5t56.5 92.5q0 36 -2 66.5t-11 88.5l-17 115
h85l14 -105q5 -37 29.5 -55t74.5 -18q10 0 15.5 -12z" />
    <glyph glyph-name="uniFBA7" unicode="&#x6c1;" horiz-adv-x="564" arabic-form="final" 
d="M188.5 280q76.5 33 130.5 33q35 0 57.5 -12t36.5 -41t25 -82q7 -35 20 -54t36.5 -26.5t64.5 -7.5h5q10 0 15 -12t5 -33t-5 -33t-15 -12h-5q-66 0 -104 15t-59.5 50.5t-36.5 101.5q-8 32 -18.5 44t-31.5 12q-41 0 -119.5 -35.5t-179.5 -98.5v95q102 63 178.5 96z" />
    <glyph glyph-name="uniFBA8" unicode="&#x6c1;" horiz-adv-x="461" arabic-form="initial" 
d="M394.5 231q6.5 -55 6.5 -96q0 -67 -40 -107t-107 -40q-74 0 -123 53q-40 -41 -112 -41h-19q-10 0 -15 12t-5 33t5 33t15 12h21q33 0 50.5 15.5t24.5 54.5l7 38h86l-7 -38q-4 -22 -13 -50q37 -32 80 -32q35 0 53.5 18.5t18.5 54.5q0 31 -7.5 81.5t-20.5 105.5h85
q10 -52 16.5 -107zM208.5 -175q14.5 -17 26.5 -28l-55 -49q-21 15 -36.5 38.5t-15.5 42.5q0 16 12.5 55t31.5 79l50 -18q-28 -88 -28 -101q0 -2 14.5 -19z" />
    <glyph glyph-name="uniFBA9" unicode="&#x6c1;" horiz-adv-x="450" arabic-form="medial" 
d="M464.5 78q5.5 -12 5.5 -33t-5.5 -33t-15.5 -12h-17q-74 0 -74 -68q0 -39 21 -104l-64 -79q-91 25 -145 100.5t-54 176.5v7q-39 -33 -97 -33h-19q-10 0 -15 12t-5 33t5 33t15 12h21q39 0 61 23t34 82l8 38h86l-8 -38q-16 -78 -16 -135q0 -74 30.5 -130t83.5 -81
q-25 46 -25 89q0 68 40.5 110t116.5 42h17q10 0 15.5 -12zM70.5 -175q14.5 -17 26.5 -28l-55 -49q-21 15 -36.5 38.5t-15.5 42.5q0 16 12.5 55t31.5 79l50 -18q-10 -30 -19 -62.5t-9 -38.5q0 -2 14.5 -19z" />
    <glyph glyph-name="uniFBAB" unicode="&#x6be;" horiz-adv-x="469" arabic-form="final" 
d="M484 78q5 -12 5 -33t-5 -33t-15 -12h-103q33 -16 51 -43.5t18 -62.5q0 -56 -40.5 -89.5t-107.5 -33.5q-99 0 -161 62t-68 167h-16q-60 0 -104 11v84q60 -5 104 -5h18q9 84 36 150.5t69 104.5t93 38q58 0 96 -47.5t38 -124.5q0 -40 -16 -70.5t-46 -50.5h139q10 0 15 -12z
M180.5 236q-29.5 -57 -37.5 -148q22 -2 32 -2q68 0 101.5 32t33.5 81q0 42 -17 68t-42 26q-41 0 -70.5 -57zM338 -126q17 13 17 39q0 20 -15 42t-49 37t-88 15q-24 0 -62 -5q6 -65 46.5 -103t104.5 -38q29 0 46 13z" />
    <glyph glyph-name="uniFBAC" unicode="&#x6be;" horiz-adv-x="600" arabic-form="initial" 
d="M449 296q56 -42 80.5 -81t24.5 -84q0 -65 -47.5 -104t-127.5 -39q-92 0 -171 38q-61 -26 -130 -26h-78q-10 0 -15 12t-5 33t5 33t15 12h78q23 0 34 1q-33 32 -51 70t-18 76q1 47 27 87.5t68 61.5l-51 29l43 75l162 -94q101 -58 157 -100zM149 170.5q22 -31.5 61 -54.5
q74 38 74 126q0 40 -21.5 66t-53.5 26q-35 0 -58.5 -28t-23.5 -69q0 -35 22 -66.5zM448 88q26 16 26 42q0 29 -24.5 56.5t-85.5 67.5v-12q0 -46 -18.5 -87t-51.5 -73q45 -10 85 -10q43 0 69 16z" />
    <glyph glyph-name="uniFBAD" unicode="&#x6be;" horiz-adv-x="469" arabic-form="medial" 
d="M484 78q5 -12 5 -33t-5 -33t-15 -12h-93q33 -16 51 -43.5t18 -62.5q0 -56 -40.5 -89.5t-107.5 -33.5q-99 0 -161 62t-68 167h-68q-10 0 -15 12t-5 33t5 33t15 12h70q9 84 36 150.5t69 104.5t93 38q58 0 96 -47.5t38 -124.5q0 -40 -16 -70.5t-46 -50.5h129q10 0 15 -12z
M190.5 236q-29.5 -57 -37.5 -148q22 -2 32 -2q68 0 101.5 32t33.5 81q0 42 -17 68t-42 26q-41 0 -70.5 -57zM348 -126q17 13 17 39q0 20 -15 42t-49 37t-88 15q-24 0 -62 -5q6 -65 46.5 -103t104.5 -38q29 0 46 13z" />
    <glyph glyph-name="uniFBAF" unicode="&#x6d2;" horiz-adv-x="550" arabic-form="final" 
d="M578 -249q-28 -4 -83.5 -6.5t-106.5 -2.5q-171 0 -260 33.5t-89 97.5q0 65 46 114t130 76t195 27h140q10 0 15.5 -12t5.5 -33t-5.5 -33t-15.5 -12h-145q-130 0 -207.5 -28.5t-77.5 -76.5q0 -31 68 -46.5t200 -15.5q121 0 190 8v-90z" />
    <glyph glyph-name="uniFBB1" unicode="&#x6d3;" horiz-adv-x="550" arabic-form="final" 
d="M578 -249q-28 -4 -83.5 -6.5t-106.5 -2.5q-171 0 -260 33.5t-89 97.5q0 65 46 114t130 76t195 27h140q10 0 15.5 -12t5.5 -33t-5.5 -33t-15.5 -12h-145q-130 0 -207.5 -28.5t-77.5 -76.5q0 -31 68 -46.5t200 -15.5q121 0 190 8v-90zM443 222v-62h-195l10 62h27
q-13 21 -13 45q0 38 30.5 64t75.5 26q28 0 54 -10v-62q-28 10 -59 10q-46 0 -46 -37q0 -10 5.5 -19.5t15.5 -16.5h95z" />
    <glyph glyph-name="uniFBFD" unicode="&#x6cc;" horiz-adv-x="728" arabic-form="final" 
d="M748 45q0 -21 -5 -33t-15 -12h-8q-32 0 -69 11q35 -32 35 -64q0 -45 -43.5 -83.5t-118.5 -60.5t-165 -22q-152 0 -230.5 59t-78.5 173q0 55 23 133h80q-23 -72 -23 -127q0 -73 58.5 -110.5t170.5 -37.5q104 0 174.5 21t70.5 56q0 42 -120 74l-26 7v90l26 -5
q49 -9 123 -16.5t103 -7.5h18q20 0 20 -45z" />
    <glyph glyph-name="uniFBFE" unicode="&#x6cc;" horiz-adv-x="262" arabic-form="initial" 
d="M-20 45q0 45 20 45h30q102 0 102 64q0 61 -28 184h85q23 -110 23 -198q0 -64 -49.5 -102t-132.5 -38h-30q-20 0 -20 45zM84.5 -143.5q14.5 -15.5 14.5 -43.5t-14.5 -43t-40.5 -15t-40.5 15t-14.5 43t14.5 43.5t40.5 15.5t40.5 -15.5zM224.5 -143.5q14.5 -15.5 14.5 -43.5
t-14.5 -43t-40.5 -15t-40.5 15t-14.5 43t14.5 43.5t40.5 15.5t40.5 -15.5z" />
    <glyph glyph-name="uniFBFF" unicode="&#x6cc;" horiz-adv-x="320" arabic-form="medial" 
d="M334.5 78q5.5 -12 5.5 -33t-5.5 -33t-15.5 -12q-115 0 -161 66q-22 -31 -63 -48.5t-94 -17.5q-10 0 -15.5 12t-5.5 33t5.5 33t15.5 12q45 0 79.5 10.5t52.5 28.5q-2 8 -4 24l-10 115h82l9 -105q8 -73 109 -73q10 0 15.5 -12zM131.5 -143.5q14.5 -15.5 14.5 -43.5
t-14.5 -43t-40.5 -15t-40.5 15t-14.5 43t14.5 43.5t40.5 15.5t40.5 -15.5zM271.5 -143.5q14.5 -15.5 14.5 -43.5t-14.5 -43t-40.5 -15t-40.5 15t-14.5 43t14.5 43.5t40.5 15.5t40.5 -15.5z" />
    <glyph glyph-name="uniFC03" unicode="&#xfc03;" horiz-adv-x="727" arabic-form="isolated" 
d="M699 530v-62h-195l10 62h27q-13 21 -13 45q0 38 30.5 64t75.5 26q28 0 54 -10v-62q-28 10 -59 10q-46 0 -46 -37q0 -10 5.5 -19.5t15.5 -16.5h95zM686 -53q0 -45 -45.5 -83t-120.5 -60.5t-161 -22.5q-152 0 -230.5 59t-78.5 173q0 55 23 133h80q-23 -72 -23 -127
q0 -73 58.5 -110.5t170.5 -37.5q104 0 174.5 21t70.5 56q0 22 -50.5 40.5t-138.5 35.5l-25 5v90l26 -4q47 -7 70 -7q57 0 84.5 17t27.5 57q0 64 -28 184h85q23 -112 23 -190q0 -51 -25 -81t-77 -42q110 -38 110 -106z" />
    <glyph glyph-name="uniFC04" unicode="&#xfc04;" horiz-adv-x="727" arabic-form="isolated" 
d="M699 530v-62h-195l10 62h27q-13 21 -13 45q0 38 30.5 64t75.5 26q28 0 54 -10v-62q-28 10 -59 10q-46 0 -46 -37q0 -10 5.5 -19.5t15.5 -16.5h95zM686 -53q0 -45 -45.5 -83t-120.5 -60.5t-161 -22.5q-152 0 -230.5 59t-78.5 173q0 55 23 133h80q-23 -72 -23 -127
q0 -73 58.5 -110.5t170.5 -37.5q104 0 174.5 21t70.5 56q0 22 -50.5 40.5t-138.5 35.5l-25 5v90l26 -4q47 -7 70 -7q57 0 84.5 17t27.5 57q0 64 -28 184h85q23 -112 23 -190q0 -51 -25 -81t-77 -42q110 -38 110 -106zM338.5 -310.5q14.5 -15.5 14.5 -43.5t-14.5 -43
t-40.5 -15t-40.5 15t-14.5 43t14.5 43.5t40.5 15.5t40.5 -15.5zM478.5 -310.5q14.5 -15.5 14.5 -43.5t-14.5 -43t-40.5 -15t-40.5 15t-14.5 43t14.5 43.5t40.5 15.5t40.5 -15.5z" />
    <glyph glyph-name="uniFC09" unicode="&#xfc09;" horiz-adv-x="735" arabic-form="isolated" 
d="M658.5 -265.5q14.5 -15.5 14.5 -43.5t-14.5 -43t-40.5 -15t-40.5 15t-14.5 43t14.5 43.5t40.5 15.5t40.5 -15.5zM686 -53q0 -45 -45.5 -83t-120.5 -60.5t-161 -22.5q-152 0 -230.5 59t-78.5 173q0 55 23 133h80q-23 -72 -23 -127q0 -73 58.5 -110.5t170.5 -37.5
q104 0 174.5 21t70.5 56q0 22 -50.5 40.5t-138.5 35.5l-25 5v90l26 -4q47 -7 70 -7q57 0 84.5 17t27.5 57q0 64 -28 184h85q23 -112 23 -190q0 -51 -25 -81t-77 -42q110 -38 110 -106z" />
    <glyph glyph-name="uniFC0A" unicode="&#xfc0a;" horiz-adv-x="736" arabic-form="isolated" 
d="M658.5 -265.5q14.5 -15.5 14.5 -43.5t-14.5 -43t-40.5 -15t-40.5 15t-14.5 43t14.5 43.5t40.5 15.5t40.5 -15.5zM686 -53q0 -45 -45.5 -83t-120.5 -60.5t-161 -22.5q-152 0 -230.5 59t-78.5 173q0 55 23 133h80q-23 -72 -23 -127q0 -73 58.5 -110.5t170.5 -37.5
q104 0 174.5 21t70.5 56q0 22 -50.5 40.5t-138.5 35.5l-25 5v90l26 -4q47 -7 70 -7q57 0 84.5 17t27.5 57q0 64 -28 184h85q23 -112 23 -190q0 -51 -25 -81t-77 -42q110 -38 110 -106zM348.5 -310.5q14.5 -15.5 14.5 -43.5t-14.5 -43t-40.5 -15t-40.5 15t-14.5 43t14.5 43.5
t40.5 15.5t40.5 -15.5zM488.5 -310.5q14.5 -15.5 14.5 -43.5t-14.5 -43t-40.5 -15t-40.5 15t-14.5 43t14.5 43.5t40.5 15.5t40.5 -15.5z" />
    <glyph glyph-name="uniFC0F" unicode="&#xfc0f;" horiz-adv-x="748" arabic-form="isolated" 
d="M581.5 570.5q14.5 -15.5 14.5 -43.5t-14.5 -43t-40.5 -15t-40.5 15t-14.5 43t14.5 43.5t40.5 15.5t40.5 -15.5zM721.5 570.5q14.5 -15.5 14.5 -43.5t-14.5 -43t-40.5 -15t-40.5 15t-14.5 43t14.5 43.5t40.5 15.5t40.5 -15.5zM686 -53q0 -45 -45.5 -83t-120.5 -60.5
t-161 -22.5q-152 0 -230.5 59t-78.5 173q0 55 23 133h80q-23 -72 -23 -127q0 -73 58.5 -110.5t170.5 -37.5q104 0 174.5 21t70.5 56q0 22 -50.5 40.5t-138.5 35.5l-25 5v90l26 -4q47 -7 70 -7q57 0 84.5 17t27.5 57q0 64 -28 184h85q23 -112 23 -190q0 -51 -25 -81t-77 -42
q110 -38 110 -106z" />
    <glyph glyph-name="uniFC10" unicode="&#xfc10;" horiz-adv-x="748" arabic-form="isolated" 
d="M581.5 570.5q14.5 -15.5 14.5 -43.5t-14.5 -43t-40.5 -15t-40.5 15t-14.5 43t14.5 43.5t40.5 15.5t40.5 -15.5zM721.5 570.5q14.5 -15.5 14.5 -43.5t-14.5 -43t-40.5 -15t-40.5 15t-14.5 43t14.5 43.5t40.5 15.5t40.5 -15.5zM686 -53q0 -45 -45.5 -83t-120.5 -60.5
t-161 -22.5q-152 0 -230.5 59t-78.5 173q0 55 23 133h80q-23 -72 -23 -127q0 -73 58.5 -110.5t170.5 -37.5q104 0 174.5 21t70.5 56q0 22 -50.5 40.5t-138.5 35.5l-25 5v90l26 -4q47 -7 70 -7q57 0 84.5 17t27.5 57q0 64 -28 184h85q23 -112 23 -190q0 -51 -25 -81t-77 -42
q110 -38 110 -106zM348.5 -310.5q14.5 -15.5 14.5 -43.5t-14.5 -43t-40.5 -15t-40.5 15t-14.5 43t14.5 43.5t40.5 15.5t40.5 -15.5zM488.5 -310.5q14.5 -15.5 14.5 -43.5t-14.5 -43t-40.5 -15t-40.5 15t-14.5 43t14.5 43.5t40.5 15.5t40.5 -15.5z" />
    <glyph glyph-name="uniFC13" unicode="&#xfc13;" horiz-adv-x="748" arabic-form="isolated" 
d="M651.5 700.5q14.5 -15.5 14.5 -43.5t-14.5 -43t-40.5 -15t-40.5 15t-14.5 43t14.5 43.5t40.5 15.5t40.5 -15.5zM581.5 570.5q14.5 -15.5 14.5 -43.5t-14.5 -43t-40.5 -15t-40.5 15t-14.5 43t14.5 43.5t40.5 15.5t40.5 -15.5zM721.5 570.5q14.5 -15.5 14.5 -43.5
t-14.5 -43t-40.5 -15t-40.5 15t-14.5 43t14.5 43.5t40.5 15.5t40.5 -15.5zM686 -53q0 -45 -45.5 -83t-120.5 -60.5t-161 -22.5q-152 0 -230.5 59t-78.5 173q0 55 23 133h80q-23 -72 -23 -127q0 -73 58.5 -110.5t170.5 -37.5q104 0 174.5 21t70.5 56q0 22 -50.5 40.5
t-138.5 35.5l-25 5v90l26 -4q47 -7 70 -7q57 0 84.5 17t27.5 57q0 64 -28 184h85q23 -112 23 -190q0 -51 -25 -81t-77 -42q110 -38 110 -106z" />
    <glyph glyph-name="uniFC14" unicode="&#xfc14;" horiz-adv-x="748" arabic-form="isolated" 
d="M651.5 700.5q14.5 -15.5 14.5 -43.5t-14.5 -43t-40.5 -15t-40.5 15t-14.5 43t14.5 43.5t40.5 15.5t40.5 -15.5zM581.5 570.5q14.5 -15.5 14.5 -43.5t-14.5 -43t-40.5 -15t-40.5 15t-14.5 43t14.5 43.5t40.5 15.5t40.5 -15.5zM721.5 570.5q14.5 -15.5 14.5 -43.5
t-14.5 -43t-40.5 -15t-40.5 15t-14.5 43t14.5 43.5t40.5 15.5t40.5 -15.5zM686 -53q0 -45 -45.5 -83t-120.5 -60.5t-161 -22.5q-152 0 -230.5 59t-78.5 173q0 55 23 133h80q-23 -72 -23 -127q0 -73 58.5 -110.5t170.5 -37.5q104 0 174.5 21t70.5 56q0 22 -50.5 40.5
t-138.5 35.5l-25 5v90l26 -4q47 -7 70 -7q57 0 84.5 17t27.5 57q0 64 -28 184h85q23 -112 23 -190q0 -51 -25 -81t-77 -42q110 -38 110 -106zM339.5 -310.5q14.5 -15.5 14.5 -43.5t-14.5 -43t-40.5 -15t-40.5 15t-14.5 43t14.5 43.5t40.5 15.5t40.5 -15.5zM479.5 -310.5
q14.5 -15.5 14.5 -43.5t-14.5 -43t-40.5 -15t-40.5 15t-14.5 43t14.5 43.5t40.5 15.5t40.5 -15.5z" />
    <glyph glyph-name="uniFC31" unicode="&#xfc31;" horiz-adv-x="733" arabic-form="isolated" 
d="M461.5 660q-14.5 15 -14.5 43t14.5 43.5t40.5 15.5t40.5 -15.5t14.5 -43.5t-14.5 -43t-40.5 -15t-40.5 15zM686 -53q0 -45 -45.5 -83t-120.5 -60.5t-161 -22.5q-152 0 -230.5 59t-78.5 173q0 55 23 133h80q-23 -72 -23 -127q0 -73 58.5 -110.5t170.5 -37.5
q104 0 174.5 21t70.5 56q0 22 -50.5 40.5t-138.5 35.5l-25 5v90l26 -4q47 -7 70 -7q54 0 81.5 24t31.5 79q-45 -9 -88 -9q-88 0 -140 39t-52 113q0 56 25.5 108.5t66 85t84.5 32.5q55 0 96.5 -44.5t64.5 -125.5t23 -189q0 -70 -26.5 -110.5t-81.5 -56.5q115 -38 115 -107z
M595 300q-9 88 -36.5 139t-66.5 51q-23 0 -44.5 -19.5t-35 -51t-13.5 -65.5q0 -32 30.5 -47t80.5 -15q42 0 85 8z" />
    <glyph glyph-name="uniFC32" unicode="&#xfc32;" horiz-adv-x="733" arabic-form="isolated" 
d="M461.5 660q-14.5 15 -14.5 43t14.5 43.5t40.5 15.5t40.5 -15.5t14.5 -43.5t-14.5 -43t-40.5 -15t-40.5 15zM686 -53q0 -45 -45.5 -83t-120.5 -60.5t-161 -22.5q-152 0 -230.5 59t-78.5 173q0 55 23 133h80q-23 -72 -23 -127q0 -73 58.5 -110.5t170.5 -37.5
q104 0 174.5 21t70.5 56q0 22 -50.5 40.5t-138.5 35.5l-25 5v90l26 -4q47 -7 70 -7q54 0 81.5 24t31.5 79q-45 -9 -88 -9q-88 0 -140 39t-52 113q0 56 25.5 108.5t66 85t84.5 32.5q55 0 96.5 -44.5t64.5 -125.5t23 -189q0 -70 -26.5 -110.5t-81.5 -56.5q115 -38 115 -107z
M595 300q-9 88 -36.5 139t-66.5 51q-23 0 -44.5 -19.5t-35 -51t-13.5 -65.5q0 -32 30.5 -47t80.5 -15q42 0 85 8zM348.5 -310.5q14.5 -15.5 14.5 -43.5t-14.5 -43t-40.5 -15t-40.5 15t-14.5 43t14.5 43.5t40.5 15.5t40.5 -15.5zM488.5 -310.5q14.5 -15.5 14.5 -43.5
t-14.5 -43t-40.5 -15t-40.5 15t-14.5 43t14.5 43.5t40.5 15.5t40.5 -15.5z" />
    <glyph glyph-name="uniFC35" unicode="&#xfc35;" horiz-adv-x="733" arabic-form="isolated" 
d="M391.5 657q-14.5 15 -14.5 43t14.5 43.5t40.5 15.5t40.5 -15.5t14.5 -43.5t-14.5 -43t-40.5 -15t-40.5 15zM531.5 657q-14.5 15 -14.5 43t14.5 43.5t40.5 15.5t40.5 -15.5t14.5 -43.5t-14.5 -43t-40.5 -15t-40.5 15zM686 -53q0 -45 -45.5 -83t-120.5 -60.5t-161 -22.5
q-152 0 -230.5 59t-78.5 173q0 55 23 133h80q-23 -72 -23 -127q0 -73 58.5 -110.5t170.5 -37.5q104 0 174.5 21t70.5 56q0 22 -50.5 40.5t-138.5 35.5l-25 5v90l26 -4q47 -7 70 -7q54 0 81.5 24t31.5 79q-45 -9 -88 -9q-88 0 -140 39t-52 113q0 56 25.5 108.5t66 85
t84.5 32.5q55 0 96.5 -44.5t64.5 -125.5t23 -189q0 -70 -26.5 -110.5t-81.5 -56.5q115 -38 115 -107zM595 300q-9 88 -36.5 139t-66.5 51q-23 0 -44.5 -19.5t-35 -51t-13.5 -65.5q0 -32 30.5 -47t80.5 -15q42 0 85 8z" />
    <glyph glyph-name="uniFC36" unicode="&#xfc36;" horiz-adv-x="733" arabic-form="isolated" 
d="M391.5 657q-14.5 15 -14.5 43t14.5 43.5t40.5 15.5t40.5 -15.5t14.5 -43.5t-14.5 -43t-40.5 -15t-40.5 15zM531.5 657q-14.5 15 -14.5 43t14.5 43.5t40.5 15.5t40.5 -15.5t14.5 -43.5t-14.5 -43t-40.5 -15t-40.5 15zM686 -53q0 -45 -45.5 -83t-120.5 -60.5t-161 -22.5
q-152 0 -230.5 59t-78.5 173q0 55 23 133h80q-23 -72 -23 -127q0 -73 58.5 -110.5t170.5 -37.5q104 0 174.5 21t70.5 56q0 22 -50.5 40.5t-138.5 35.5l-25 5v90l26 -4q47 -7 70 -7q54 0 81.5 24t31.5 79q-45 -9 -88 -9q-88 0 -140 39t-52 113q0 56 25.5 108.5t66 85
t84.5 32.5q55 0 96.5 -44.5t64.5 -125.5t23 -189q0 -70 -26.5 -110.5t-81.5 -56.5q115 -38 115 -107zM595 300q-9 88 -36.5 139t-66.5 51q-23 0 -44.5 -19.5t-35 -51t-13.5 -65.5q0 -32 30.5 -47t80.5 -15q42 0 85 8zM348.5 -310.5q14.5 -15.5 14.5 -43.5t-14.5 -43
t-40.5 -15t-40.5 15t-14.5 43t14.5 43.5t40.5 15.5t40.5 -15.5zM488.5 -310.5q14.5 -15.5 14.5 -43.5t-14.5 -43t-40.5 -15t-40.5 15t-14.5 43t14.5 43.5t40.5 15.5t40.5 -15.5z" />
    <glyph glyph-name="uniFC3D" unicode="&#xfc3d;" horiz-adv-x="968" arabic-form="isolated" 
d="M948 647l-316 -182l86 -81q70 -66 105.5 -105.5t49.5 -69t14 -61.5q0 -65 -44.5 -106.5t-112.5 -41.5q-41 0 -78 10q34 -31 34 -63q0 -45 -43.5 -83.5t-118.5 -60.5t-165 -22q-152 0 -230.5 59t-78.5 173q0 55 23 133h80q-23 -72 -23 -127q0 -73 58.5 -110.5t170.5 -37.5
q104 0 174.5 21t70.5 56q0 42 -120 74l-26 7v90l26 -5q49 -9 123 -16.5t103 -7.5q47 0 72 15t25 42t-24.5 57.5t-100.5 98.5l-131 120v88l398 235z" />
    <glyph glyph-name="uniFC3E" unicode="&#xfc3e;" horiz-adv-x="968" arabic-form="isolated" 
d="M948 647l-316 -182l86 -81q70 -66 105.5 -105.5t49.5 -69t14 -61.5q0 -65 -44.5 -106.5t-112.5 -41.5q-41 0 -78 10q34 -31 34 -63q0 -45 -43.5 -83.5t-118.5 -60.5t-165 -22q-152 0 -230.5 59t-78.5 173q0 55 23 133h80q-23 -72 -23 -127q0 -73 58.5 -110.5t170.5 -37.5
q104 0 174.5 21t70.5 56q0 42 -120 74l-26 7v90l26 -5q49 -9 123 -16.5t103 -7.5q47 0 72 15t25 42t-24.5 57.5t-100.5 98.5l-131 120v88l398 235zM319.5 -310.5q14.5 -15.5 14.5 -43.5t-14.5 -43t-40.5 -15t-40.5 15t-14.5 43t14.5 43.5t40.5 15.5t40.5 -15.5z
M459.5 -310.5q14.5 -15.5 14.5 -43.5t-14.5 -43t-40.5 -15t-40.5 15t-14.5 43t14.5 43.5t40.5 15.5t40.5 -15.5z" />
    <glyph glyph-name="uniFC44" unicode="&#xfc44;" horiz-adv-x="741" arabic-form="isolated" 
d="M686 -53q0 -45 -43.5 -83.5t-118.5 -60.5t-165 -22q-152 0 -230.5 59t-78.5 173q0 55 23 133h80q-23 -72 -23 -127q0 -73 58.5 -110.5t170.5 -37.5q104 0 174.5 21t70.5 56q0 22 -50.5 40.5t-138.5 35.5l-25 5v90l26 -4q47 -7 70 -7q50 0 75 17.5t25 56.5v588h85l-1 -586
q0 -53 -24 -85.5t-73 -45.5q113 -38 113 -106zM349.5 -310.5q14.5 -15.5 14.5 -43.5t-14.5 -43t-40.5 -15t-40.5 15t-14.5 43t14.5 43.5t40.5 15.5t40.5 -15.5zM489.5 -310.5q14.5 -15.5 14.5 -43.5t-14.5 -43t-40.5 -15t-40.5 15t-14.5 43t14.5 43.5t40.5 15.5t40.5 -15.5z
" />
    <glyph glyph-name="uniFC4F" unicode="&#xfc4f;" horiz-adv-x="736" arabic-form="isolated" 
d="M641.5 580.5q14.5 -15.5 14.5 -43.5t-14.5 -43t-40.5 -15t-40.5 15t-14.5 43t14.5 43.5t40.5 15.5t40.5 -15.5zM686 -53q0 -45 -45.5 -83t-120.5 -60.5t-161 -22.5q-152 0 -230.5 59t-78.5 173q0 55 23 133h80q-23 -72 -23 -127q0 -73 58.5 -110.5t170.5 -37.5
q104 0 174.5 21t70.5 56q0 22 -50.5 40.5t-138.5 35.5l-25 5v90l26 -4q47 -7 70 -7q57 0 84.5 17t27.5 57q0 64 -28 184h85q23 -112 23 -190q0 -51 -25 -81t-77 -42q110 -38 110 -106z" />
    <glyph glyph-name="uniFC50" unicode="&#xfc50;" horiz-adv-x="736" arabic-form="isolated" 
d="M641.5 580.5q14.5 -15.5 14.5 -43.5t-14.5 -43t-40.5 -15t-40.5 15t-14.5 43t14.5 43.5t40.5 15.5t40.5 -15.5zM686 -53q0 -45 -45.5 -83t-120.5 -60.5t-161 -22.5q-152 0 -230.5 59t-78.5 173q0 55 23 133h80q-23 -72 -23 -127q0 -73 58.5 -110.5t170.5 -37.5
q104 0 174.5 21t70.5 56q0 22 -50.5 40.5t-138.5 35.5l-25 5v90l26 -4q47 -7 70 -7q57 0 84.5 17t27.5 57q0 64 -28 184h85q23 -112 23 -190q0 -51 -25 -81t-77 -42q110 -38 110 -106zM348.5 -310.5q14.5 -15.5 14.5 -43.5t-14.5 -43t-40.5 -15t-40.5 15t-14.5 43t14.5 43.5
t40.5 15.5t40.5 -15.5zM488.5 -310.5q14.5 -15.5 14.5 -43.5t-14.5 -43t-40.5 -15t-40.5 15t-14.5 43t14.5 43.5t40.5 15.5t40.5 -15.5z" />
    <glyph glyph-name="uniFC64" unicode="&#xfc64;" horiz-adv-x="712" arabic-form="final" 
d="M726.5 78q5.5 -12 5.5 -33t-5.5 -33t-15.5 -12q-88 0 -135.5 37t-54.5 116l-2 27q-21 -23 -52 -36t-67 -13q-58 0 -90 27q8 -78 8 -133q0 -73 -25 -128.5t-71.5 -85.5t-107.5 -30q-42 0 -88 10l-1 92q51 -12 89 -12q65 0 94.5 36t29.5 115q0 80 -19 201l-13 80h85
q11 -82 109 -82q37 0 66 10t46 28l-7 79h82l14 -165q4 -47 30.5 -65t79.5 -18q10 0 15.5 -12zM630 481v-62h-195l10 62h27q-13 21 -13 45q0 38 30.5 64t75.5 26q28 0 54 -10v-62q-28 10 -59 10q-46 0 -46 -37q0 -10 5.5 -19.5t15.5 -16.5h95z" />
    <glyph glyph-name="uniFC65" unicode="&#xfc65;" horiz-adv-x="712" arabic-form="final" 
d="M726.5 78q5.5 -12 5.5 -33t-5.5 -33t-15.5 -12q-88 0 -135.5 37t-54.5 116l-2 27q-21 -23 -52 -36t-67 -13q-58 0 -90 27q8 -78 8 -133q0 -73 -25 -128.5t-71.5 -85.5t-107.5 -30q-42 0 -88 10l-1 92q51 -12 89 -12q65 0 94.5 36t29.5 115q0 80 -19 201l-13 80h85
q11 -82 109 -82q37 0 66 10t46 28l-7 79h82l14 -165q4 -47 30.5 -65t79.5 -18q10 0 15.5 -12zM269.5 532.5q14.5 -15.5 14.5 -43.5t-14.5 -43t-40.5 -15t-40.5 15t-14.5 43t14.5 43.5t40.5 15.5t40.5 -15.5zM630 481v-62h-195l10 62h27q-13 21 -13 45q0 38 30.5 64t75.5 26
q28 0 54 -10v-62q-28 10 -59 10q-46 0 -46 -37q0 -10 5.5 -19.5t15.5 -16.5h95z" />
    <glyph glyph-name="uniFC67" unicode="&#xfc67;" horiz-adv-x="1019" arabic-form="final" 
d="M295.5 306q-14.5 15 -14.5 43t14.5 43.5t40.5 15.5t40.5 -15.5t14.5 -43.5t-14.5 -43t-40.5 -15t-40.5 15zM1033.5 78q5.5 -12 5.5 -33t-5.5 -33t-15.5 -12q-88 0 -135.5 37t-54.5 116l-2 27q-21 -23 -52 -36t-67 -13q-60 0 -92 28q14 -109 14 -161q0 -104 -78 -160.5
t-212 -56.5q-129 0 -204 60.5t-75 171.5q0 55 23 133h80q-23 -72 -23 -127q0 -73 53.5 -110.5t145.5 -37.5q98 0 153 32t55 95q0 45 -14 155l-20 150h85q11 -82 109 -82q37 0 66 10t46 28l-7 79h82l14 -165q4 -47 30.5 -65t79.5 -18q10 0 15.5 -12zM932 481v-62h-195l10 62
h27q-13 21 -13 45q0 38 30.5 64t75.5 26q28 0 54 -10v-62q-28 10 -59 10q-46 0 -46 -37q0 -10 5.5 -19.5t15.5 -16.5h95z" />
    <glyph glyph-name="uniFC68" unicode="&#xfc68;" horiz-adv-x="864" arabic-form="final" 
d="M699 490v-62h-195l10 62h27q-13 21 -13 45q0 38 30.5 64t75.5 26q28 0 54 -10v-62q-28 10 -59 10q-46 0 -46 -37q0 -10 5.5 -19.5t15.5 -16.5h95zM378.5 245.5q37.5 46.5 96 74.5t117.5 28q53 0 83.5 -14t48.5 -48t31 -98l5 -25q7 -37 30.5 -55t72.5 -18q10 0 15.5 -12
t5.5 -33t-5.5 -33t-15.5 -12q-87 0 -127.5 37t-56.5 116l-7 35q-8 42 -27 56t-65 14q-31 0 -67.5 -12.5t-61.5 -34.5t-25 -49q0 -17 12.5 -27t44.5 -20l43 -13q87 -26 121.5 -56.5t34.5 -81.5q0 -57 -42 -98.5t-117 -63t-172 -21.5q-140 0 -220.5 60.5t-80.5 171.5
q0 55 23 133h80q-23 -72 -23 -127q0 -73 61.5 -110.5t169.5 -37.5q62 0 117 9.5t88.5 26t33.5 37.5t-23.5 38t-80.5 33l-40 11q-63 17 -89 46t-26 74q0 53 37.5 99.5z" />
    <glyph glyph-name="uniFC69" unicode="&#xfc69;" horiz-adv-x="864" arabic-form="final" 
d="M699 490v-62h-195l10 62h27q-13 21 -13 45q0 38 30.5 64t75.5 26q28 0 54 -10v-62q-28 10 -59 10q-46 0 -46 -37q0 -10 5.5 -19.5t15.5 -16.5h95zM378.5 245.5q37.5 46.5 96 74.5t117.5 28q53 0 83.5 -14t48.5 -48t31 -98l5 -25q7 -37 30.5 -55t72.5 -18q10 0 15.5 -12
t5.5 -33t-5.5 -33t-15.5 -12q-87 0 -127.5 37t-56.5 116l-7 35q-8 42 -27 56t-65 14q-31 0 -67.5 -12.5t-61.5 -34.5t-25 -49q0 -17 12.5 -27t44.5 -20l43 -13q87 -26 121.5 -56.5t34.5 -81.5q0 -57 -42 -98.5t-117 -63t-172 -21.5q-140 0 -220.5 60.5t-80.5 171.5
q0 55 23 133h80q-23 -72 -23 -127q0 -73 61.5 -110.5t169.5 -37.5q62 0 117 9.5t88.5 26t33.5 37.5t-23.5 38t-80.5 33l-40 11q-63 17 -89 46t-26 74q0 53 37.5 99.5zM338.5 -310.5q14.5 -15.5 14.5 -43.5t-14.5 -43t-40.5 -15t-40.5 15t-14.5 43t14.5 43.5t40.5 15.5
t40.5 -15.5zM478.5 -310.5q14.5 -15.5 14.5 -43.5t-14.5 -43t-40.5 -15t-40.5 15t-14.5 43t14.5 43.5t40.5 15.5t40.5 -15.5z" />
    <glyph glyph-name="uniFC6A" unicode="&#xfc6a;" horiz-adv-x="712" arabic-form="final" 
d="M726.5 78q5.5 -12 5.5 -33t-5.5 -33t-15.5 -12q-88 0 -135.5 37t-54.5 116l-2 27q-21 -23 -52 -36t-67 -13q-58 0 -90 27q8 -78 8 -133q0 -73 -25 -128.5t-71.5 -85.5t-107.5 -30q-42 0 -88 10l-1 92q51 -12 89 -12q65 0 94.5 36t29.5 115q0 80 -19 201l-13 80h85
q11 -82 109 -82q37 0 66 10t46 28l-7 79h82l14 -165q4 -47 30.5 -65t79.5 -18q10 0 15.5 -12zM617.5 -83.5q14.5 -15.5 14.5 -43.5t-14.5 -43t-40.5 -15t-40.5 15t-14.5 43t14.5 43.5t40.5 15.5t40.5 -15.5z" />
    <glyph glyph-name="uniFC6B" unicode="&#xfc6b;" horiz-adv-x="712" arabic-form="final" 
d="M726.5 78q5.5 -12 5.5 -33t-5.5 -33t-15.5 -12q-88 0 -135.5 37t-54.5 116l-2 27q-21 -23 -52 -36t-67 -13q-58 0 -90 27q8 -78 8 -133q0 -73 -25 -128.5t-71.5 -85.5t-107.5 -30q-42 0 -88 10l-1 92q51 -12 89 -12q65 0 94.5 36t29.5 115q0 80 -19 201l-13 80h85
q11 -82 109 -82q37 0 66 10t46 28l-7 79h82l14 -165q4 -47 30.5 -65t79.5 -18q10 0 15.5 -12zM269.5 532.5q14.5 -15.5 14.5 -43.5t-14.5 -43t-40.5 -15t-40.5 15t-14.5 43t14.5 43.5t40.5 15.5t40.5 -15.5zM617.5 -83.5q14.5 -15.5 14.5 -43.5t-14.5 -43t-40.5 -15
t-40.5 15t-14.5 43t14.5 43.5t40.5 15.5t40.5 -15.5z" />
    <glyph glyph-name="uniFC6D" unicode="&#xfc6d;" horiz-adv-x="1019" arabic-form="final" 
d="M295.5 306q-14.5 15 -14.5 43t14.5 43.5t40.5 15.5t40.5 -15.5t14.5 -43.5t-14.5 -43t-40.5 -15t-40.5 15zM1033.5 78q5.5 -12 5.5 -33t-5.5 -33t-15.5 -12q-88 0 -135.5 37t-54.5 116l-2 27q-21 -23 -52 -36t-67 -13q-60 0 -92 28q14 -109 14 -161q0 -104 -78 -160.5
t-212 -56.5q-129 0 -204 60.5t-75 171.5q0 55 23 133h80q-23 -72 -23 -127q0 -73 53.5 -110.5t145.5 -37.5q98 0 153 32t55 95q0 45 -14 155l-20 150h85q11 -82 109 -82q37 0 66 10t46 28l-7 79h82l14 -165q4 -47 30.5 -65t79.5 -18q10 0 15.5 -12zM927.5 -83.5
q14.5 -15.5 14.5 -43.5t-14.5 -43t-40.5 -15t-40.5 15t-14.5 43t14.5 43.5t40.5 15.5t40.5 -15.5z" />
    <glyph glyph-name="uniFC6E" unicode="&#xfc6e;" horiz-adv-x="864" arabic-form="final" 
d="M678.5 -265.5q14.5 -15.5 14.5 -43.5t-14.5 -43t-40.5 -15t-40.5 15t-14.5 43t14.5 43.5t40.5 15.5t40.5 -15.5zM378.5 245.5q37.5 46.5 96 74.5t117.5 28q53 0 83.5 -14t48.5 -48t31 -98l5 -25q7 -37 30.5 -55t72.5 -18q10 0 15.5 -12t5.5 -33t-5.5 -33t-15.5 -12
q-87 0 -127.5 37t-56.5 116l-7 35q-8 42 -27 56t-65 14q-31 0 -67.5 -12.5t-61.5 -34.5t-25 -49q0 -17 12.5 -27t44.5 -20l43 -13q87 -26 121.5 -56.5t34.5 -81.5q0 -57 -42 -98.5t-117 -63t-172 -21.5q-140 0 -220.5 60.5t-80.5 171.5q0 55 23 133h80q-23 -72 -23 -127
q0 -73 61.5 -110.5t169.5 -37.5q62 0 117 9.5t88.5 26t33.5 37.5t-23.5 38t-80.5 33l-40 11q-63 17 -89 46t-26 74q0 53 37.5 99.5z" />
    <glyph glyph-name="uniFC6F" unicode="&#xfc6f;" horiz-adv-x="864" arabic-form="final" 
d="M678.5 -265.5q14.5 -15.5 14.5 -43.5t-14.5 -43t-40.5 -15t-40.5 15t-14.5 43t14.5 43.5t40.5 15.5t40.5 -15.5zM378.5 245.5q37.5 46.5 96 74.5t117.5 28q53 0 83.5 -14t48.5 -48t31 -98l5 -25q7 -37 30.5 -55t72.5 -18q10 0 15.5 -12t5.5 -33t-5.5 -33t-15.5 -12
q-87 0 -127.5 37t-56.5 116l-7 35q-8 42 -27 56t-65 14q-31 0 -67.5 -12.5t-61.5 -34.5t-25 -49q0 -17 12.5 -27t44.5 -20l43 -13q87 -26 121.5 -56.5t34.5 -81.5q0 -57 -42 -98.5t-117 -63t-172 -21.5q-140 0 -220.5 60.5t-80.5 171.5q0 55 23 133h80q-23 -72 -23 -127
q0 -73 61.5 -110.5t169.5 -37.5q62 0 117 9.5t88.5 26t33.5 37.5t-23.5 38t-80.5 33l-40 11q-63 17 -89 46t-26 74q0 53 37.5 99.5zM338.5 -310.5q14.5 -15.5 14.5 -43.5t-14.5 -43t-40.5 -15t-40.5 15t-14.5 43t14.5 43.5t40.5 15.5t40.5 -15.5zM478.5 -310.5
q14.5 -15.5 14.5 -43.5t-14.5 -43t-40.5 -15t-40.5 15t-14.5 43t14.5 43.5t40.5 15.5t40.5 -15.5z" />
    <glyph glyph-name="uniFC70" unicode="&#xfc70;" horiz-adv-x="712" arabic-form="final" 
d="M726.5 78q5.5 -12 5.5 -33t-5.5 -33t-15.5 -12q-88 0 -135.5 37t-54.5 116l-2 27q-21 -23 -52 -36t-67 -13q-58 0 -90 27q8 -78 8 -133q0 -73 -25 -128.5t-71.5 -85.5t-107.5 -30q-42 0 -88 10l-1 92q51 -12 89 -12q65 0 94.5 36t29.5 115q0 80 -19 201l-13 80h85
q11 -82 109 -82q37 0 66 10t46 28l-7 79h82l14 -165q4 -47 30.5 -65t79.5 -18q10 0 15.5 -12zM507.5 558.5q14.5 -15.5 14.5 -43.5t-14.5 -43t-40.5 -15t-40.5 15t-14.5 43t14.5 43.5t40.5 15.5t40.5 -15.5zM647.5 558.5q14.5 -15.5 14.5 -43.5t-14.5 -43t-40.5 -15
t-40.5 15t-14.5 43t14.5 43.5t40.5 15.5t40.5 -15.5z" />
    <glyph glyph-name="uniFC71" unicode="&#xfc71;" horiz-adv-x="712" arabic-form="final" 
d="M726.5 78q5.5 -12 5.5 -33t-5.5 -33t-15.5 -12q-88 0 -135.5 37t-54.5 116l-2 27q-21 -23 -52 -36t-67 -13q-58 0 -90 27q8 -78 8 -133q0 -73 -25 -128.5t-71.5 -85.5t-107.5 -30q-42 0 -88 10l-1 92q51 -12 89 -12q65 0 94.5 36t29.5 115q0 80 -19 201l-13 80h85
q11 -82 109 -82q37 0 66 10t46 28l-7 79h82l14 -165q4 -47 30.5 -65t79.5 -18q10 0 15.5 -12zM269.5 532.5q14.5 -15.5 14.5 -43.5t-14.5 -43t-40.5 -15t-40.5 15t-14.5 43t14.5 43.5t40.5 15.5t40.5 -15.5zM507.5 558.5q14.5 -15.5 14.5 -43.5t-14.5 -43t-40.5 -15
t-40.5 15t-14.5 43t14.5 43.5t40.5 15.5t40.5 -15.5zM647.5 558.5q14.5 -15.5 14.5 -43.5t-14.5 -43t-40.5 -15t-40.5 15t-14.5 43t14.5 43.5t40.5 15.5t40.5 -15.5z" />
    <glyph glyph-name="uniFC73" unicode="&#xfc73;" horiz-adv-x="1019" arabic-form="final" 
d="M295.5 306q-14.5 15 -14.5 43t14.5 43.5t40.5 15.5t40.5 -15.5t14.5 -43.5t-14.5 -43t-40.5 -15t-40.5 15zM1033.5 78q5.5 -12 5.5 -33t-5.5 -33t-15.5 -12q-88 0 -135.5 37t-54.5 116l-2 27q-21 -23 -52 -36t-67 -13q-60 0 -92 28q14 -109 14 -161q0 -104 -78 -160.5
t-212 -56.5q-129 0 -204 60.5t-75 171.5q0 55 23 133h80q-23 -72 -23 -127q0 -73 53.5 -110.5t145.5 -37.5q98 0 153 32t55 95q0 45 -14 155l-20 150h85q11 -82 109 -82q37 0 66 10t46 28l-7 79h82l14 -165q4 -47 30.5 -65t79.5 -18q10 0 15.5 -12zM808.5 558.5
q14.5 -15.5 14.5 -43.5t-14.5 -43t-40.5 -15t-40.5 15t-14.5 43t14.5 43.5t40.5 15.5t40.5 -15.5zM948.5 558.5q14.5 -15.5 14.5 -43.5t-14.5 -43t-40.5 -15t-40.5 15t-14.5 43t14.5 43.5t40.5 15.5t40.5 -15.5z" />
    <glyph glyph-name="uniFC74" unicode="&#xfc74;" horiz-adv-x="864" arabic-form="final" 
d="M573.5 522.5q14.5 -15.5 14.5 -43.5t-14.5 -43t-40.5 -15t-40.5 15t-14.5 43t14.5 43.5t40.5 15.5t40.5 -15.5zM713.5 522.5q14.5 -15.5 14.5 -43.5t-14.5 -43t-40.5 -15t-40.5 15t-14.5 43t14.5 43.5t40.5 15.5t40.5 -15.5zM378.5 245.5q37.5 46.5 96 74.5t117.5 28
q53 0 83.5 -14t48.5 -48t31 -98l5 -25q7 -37 30.5 -55t72.5 -18q10 0 15.5 -12t5.5 -33t-5.5 -33t-15.5 -12q-87 0 -127.5 37t-56.5 116l-7 35q-8 42 -27 56t-65 14q-31 0 -67.5 -12.5t-61.5 -34.5t-25 -49q0 -17 12.5 -27t44.5 -20l43 -13q87 -26 121.5 -56.5t34.5 -81.5
q0 -57 -42 -98.5t-117 -63t-172 -21.5q-140 0 -220.5 60.5t-80.5 171.5q0 55 23 133h80q-23 -72 -23 -127q0 -73 61.5 -110.5t169.5 -37.5q62 0 117 9.5t88.5 26t33.5 37.5t-23.5 38t-80.5 33l-40 11q-63 17 -89 46t-26 74q0 53 37.5 99.5z" />
    <glyph glyph-name="uniFC75" unicode="&#xfc75;" horiz-adv-x="864" arabic-form="final" 
d="M573.5 522.5q14.5 -15.5 14.5 -43.5t-14.5 -43t-40.5 -15t-40.5 15t-14.5 43t14.5 43.5t40.5 15.5t40.5 -15.5zM713.5 522.5q14.5 -15.5 14.5 -43.5t-14.5 -43t-40.5 -15t-40.5 15t-14.5 43t14.5 43.5t40.5 15.5t40.5 -15.5zM378.5 245.5q37.5 46.5 96 74.5t117.5 28
q53 0 83.5 -14t48.5 -48t31 -98l5 -25q7 -37 30.5 -55t72.5 -18q10 0 15.5 -12t5.5 -33t-5.5 -33t-15.5 -12q-87 0 -127.5 37t-56.5 116l-7 35q-8 42 -27 56t-65 14q-31 0 -67.5 -12.5t-61.5 -34.5t-25 -49q0 -17 12.5 -27t44.5 -20l43 -13q87 -26 121.5 -56.5t34.5 -81.5
q0 -57 -42 -98.5t-117 -63t-172 -21.5q-140 0 -220.5 60.5t-80.5 171.5q0 55 23 133h80q-23 -72 -23 -127q0 -73 61.5 -110.5t169.5 -37.5q62 0 117 9.5t88.5 26t33.5 37.5t-23.5 38t-80.5 33l-40 11q-63 17 -89 46t-26 74q0 53 37.5 99.5zM338.5 -310.5
q14.5 -15.5 14.5 -43.5t-14.5 -43t-40.5 -15t-40.5 15t-14.5 43t14.5 43.5t40.5 15.5t40.5 -15.5zM478.5 -310.5q14.5 -15.5 14.5 -43.5t-14.5 -43t-40.5 -15t-40.5 15t-14.5 43t14.5 43.5t40.5 15.5t40.5 -15.5z" />
    <glyph glyph-name="uniFC76" unicode="&#xfc76;" horiz-adv-x="712" arabic-form="final" 
d="M726.5 78q5.5 -12 5.5 -33t-5.5 -33t-15.5 -12q-88 0 -135.5 37t-54.5 116l-2 27q-21 -23 -52 -36t-67 -13q-58 0 -90 27q8 -78 8 -133q0 -73 -25 -128.5t-71.5 -85.5t-107.5 -30q-42 0 -88 10l-1 92q51 -12 89 -12q65 0 94.5 36t29.5 115q0 80 -19 201l-13 80h85
q11 -82 109 -82q37 0 66 10t46 28l-7 79h82l14 -165q4 -47 30.5 -65t79.5 -18q10 0 15.5 -12zM577.5 688.5q14.5 -15.5 14.5 -43.5t-14.5 -43t-40.5 -15t-40.5 15t-14.5 43t14.5 43.5t40.5 15.5t40.5 -15.5zM507.5 558.5q14.5 -15.5 14.5 -43.5t-14.5 -43t-40.5 -15
t-40.5 15t-14.5 43t14.5 43.5t40.5 15.5t40.5 -15.5zM647.5 558.5q14.5 -15.5 14.5 -43.5t-14.5 -43t-40.5 -15t-40.5 15t-14.5 43t14.5 43.5t40.5 15.5t40.5 -15.5z" />
    <glyph glyph-name="uniFC77" unicode="&#xfc77;" horiz-adv-x="712" arabic-form="final" 
d="M726.5 78q5.5 -12 5.5 -33t-5.5 -33t-15.5 -12q-88 0 -135.5 37t-54.5 116l-2 27q-21 -23 -52 -36t-67 -13q-58 0 -90 27q8 -78 8 -133q0 -73 -25 -128.5t-71.5 -85.5t-107.5 -30q-42 0 -88 10l-1 92q51 -12 89 -12q65 0 94.5 36t29.5 115q0 80 -19 201l-13 80h85
q11 -82 109 -82q37 0 66 10t46 28l-7 79h82l14 -165q4 -47 30.5 -65t79.5 -18q10 0 15.5 -12zM269.5 532.5q14.5 -15.5 14.5 -43.5t-14.5 -43t-40.5 -15t-40.5 15t-14.5 43t14.5 43.5t40.5 15.5t40.5 -15.5zM577.5 688.5q14.5 -15.5 14.5 -43.5t-14.5 -43t-40.5 -15
t-40.5 15t-14.5 43t14.5 43.5t40.5 15.5t40.5 -15.5zM507.5 558.5q14.5 -15.5 14.5 -43.5t-14.5 -43t-40.5 -15t-40.5 15t-14.5 43t14.5 43.5t40.5 15.5t40.5 -15.5zM647.5 558.5q14.5 -15.5 14.5 -43.5t-14.5 -43t-40.5 -15t-40.5 15t-14.5 43t14.5 43.5t40.5 15.5
t40.5 -15.5z" />
    <glyph glyph-name="uniFC79" unicode="&#xfc79;" horiz-adv-x="1019" arabic-form="final" 
d="M295.5 306q-14.5 15 -14.5 43t14.5 43.5t40.5 15.5t40.5 -15.5t14.5 -43.5t-14.5 -43t-40.5 -15t-40.5 15zM1033.5 78q5.5 -12 5.5 -33t-5.5 -33t-15.5 -12q-88 0 -135.5 37t-54.5 116l-2 27q-21 -23 -52 -36t-67 -13q-60 0 -92 28q14 -109 14 -161q0 -104 -78 -160.5
t-212 -56.5q-129 0 -204 60.5t-75 171.5q0 55 23 133h80q-23 -72 -23 -127q0 -73 53.5 -110.5t145.5 -37.5q98 0 153 32t55 95q0 45 -14 155l-20 150h85q11 -82 109 -82q37 0 66 10t46 28l-7 79h82l14 -165q4 -47 30.5 -65t79.5 -18q10 0 15.5 -12zM877.5 688.5
q14.5 -15.5 14.5 -43.5t-14.5 -43t-40.5 -15t-40.5 15t-14.5 43t14.5 43.5t40.5 15.5t40.5 -15.5zM807.5 558.5q14.5 -15.5 14.5 -43.5t-14.5 -43t-40.5 -15t-40.5 15t-14.5 43t14.5 43.5t40.5 15.5t40.5 -15.5zM947.5 558.5q14.5 -15.5 14.5 -43.5t-14.5 -43t-40.5 -15
t-40.5 15t-14.5 43t14.5 43.5t40.5 15.5t40.5 -15.5z" />
    <glyph glyph-name="uniFC7A" unicode="&#xfc7a;" horiz-adv-x="864" arabic-form="final" 
d="M643.5 652.5q14.5 -15.5 14.5 -43.5t-14.5 -43t-40.5 -15t-40.5 15t-14.5 43t14.5 43.5t40.5 15.5t40.5 -15.5zM573.5 522.5q14.5 -15.5 14.5 -43.5t-14.5 -43t-40.5 -15t-40.5 15t-14.5 43t14.5 43.5t40.5 15.5t40.5 -15.5zM713.5 522.5q14.5 -15.5 14.5 -43.5
t-14.5 -43t-40.5 -15t-40.5 15t-14.5 43t14.5 43.5t40.5 15.5t40.5 -15.5zM378.5 245.5q37.5 46.5 96 74.5t117.5 28q53 0 83.5 -14t48.5 -48t31 -98l5 -25q7 -37 30.5 -55t72.5 -18q10 0 15.5 -12t5.5 -33t-5.5 -33t-15.5 -12q-87 0 -127.5 37t-56.5 116l-7 35
q-8 42 -27 56t-65 14q-31 0 -67.5 -12.5t-61.5 -34.5t-25 -49q0 -17 12.5 -27t44.5 -20l43 -13q87 -26 121.5 -56.5t34.5 -81.5q0 -57 -42 -98.5t-117 -63t-172 -21.5q-140 0 -220.5 60.5t-80.5 171.5q0 55 23 133h80q-23 -72 -23 -127q0 -73 61.5 -110.5t169.5 -37.5
q62 0 117 9.5t88.5 26t33.5 37.5t-23.5 38t-80.5 33l-40 11q-63 17 -89 46t-26 74q0 53 37.5 99.5z" />
    <glyph glyph-name="uniFC7B" unicode="&#xfc7b;" horiz-adv-x="864" arabic-form="final" 
d="M643.5 652.5q14.5 -15.5 14.5 -43.5t-14.5 -43t-40.5 -15t-40.5 15t-14.5 43t14.5 43.5t40.5 15.5t40.5 -15.5zM573.5 522.5q14.5 -15.5 14.5 -43.5t-14.5 -43t-40.5 -15t-40.5 15t-14.5 43t14.5 43.5t40.5 15.5t40.5 -15.5zM713.5 522.5q14.5 -15.5 14.5 -43.5
t-14.5 -43t-40.5 -15t-40.5 15t-14.5 43t14.5 43.5t40.5 15.5t40.5 -15.5zM378.5 245.5q37.5 46.5 96 74.5t117.5 28q53 0 83.5 -14t48.5 -48t31 -98l5 -25q7 -37 30.5 -55t72.5 -18q10 0 15.5 -12t5.5 -33t-5.5 -33t-15.5 -12q-87 0 -127.5 37t-56.5 116l-7 35
q-8 42 -27 56t-65 14q-31 0 -67.5 -12.5t-61.5 -34.5t-25 -49q0 -17 12.5 -27t44.5 -20l43 -13q87 -26 121.5 -56.5t34.5 -81.5q0 -57 -42 -98.5t-117 -63t-172 -21.5q-140 0 -220.5 60.5t-80.5 171.5q0 55 23 133h80q-23 -72 -23 -127q0 -73 61.5 -110.5t169.5 -37.5
q62 0 117 9.5t88.5 26t33.5 37.5t-23.5 38t-80.5 33l-40 11q-63 17 -89 46t-26 74q0 53 37.5 99.5zM319.5 -310.5q14.5 -15.5 14.5 -43.5t-14.5 -43t-40.5 -15t-40.5 15t-14.5 43t14.5 43.5t40.5 15.5t40.5 -15.5zM459.5 -310.5q14.5 -15.5 14.5 -43.5t-14.5 -43t-40.5 -15
t-40.5 15t-14.5 43t14.5 43.5t40.5 15.5t40.5 -15.5z" />
    <glyph glyph-name="uniFC83" unicode="&#xfc83;" horiz-adv-x="1005" arabic-form="final" 
d="M1010 78q5 -12 5 -33t-5 -33t-15 -12h-34q-53 0 -94 22.5t-81 72.5q-39 -76 -138 -84q38 -30 38 -64q0 -45 -43.5 -83.5t-118.5 -60.5t-165 -22q-152 0 -230.5 59t-78.5 173q0 55 23 133h80q-23 -72 -23 -127q0 -73 58.5 -110.5t170.5 -37.5q104 0 174.5 21t70.5 56
q0 23 -29 38.5t-91 32.5l-26 8v90l26 -6q90 -21 144 -21q86 0 120 57l-190 276v88l398 235l-1 -99l-324 -186l185 -269q38 -55 74 -78.5t79 -23.5h26q10 0 15 -12z" />
    <glyph glyph-name="uniFC84" unicode="&#xfc84;" horiz-adv-x="1005" arabic-form="final" 
d="M1010 78q5 -12 5 -33t-5 -33t-15 -12h-34q-53 0 -94 22.5t-81 72.5q-39 -76 -138 -84q38 -30 38 -64q0 -45 -43.5 -83.5t-118.5 -60.5t-165 -22q-152 0 -230.5 59t-78.5 173q0 55 23 133h80q-23 -72 -23 -127q0 -73 58.5 -110.5t170.5 -37.5q104 0 174.5 21t70.5 56
q0 23 -29 38.5t-91 32.5l-26 8v90l26 -6q90 -21 144 -21q86 0 120 57l-190 276v88l398 235l-1 -99l-324 -186l185 -269q38 -55 74 -78.5t79 -23.5h26q10 0 15 -12zM319.5 -310.5q14.5 -15.5 14.5 -43.5t-14.5 -43t-40.5 -15t-40.5 15t-14.5 43t14.5 43.5t40.5 15.5
t40.5 -15.5zM459.5 -310.5q14.5 -15.5 14.5 -43.5t-14.5 -43t-40.5 -15t-40.5 15t-14.5 43t14.5 43.5t40.5 15.5t40.5 -15.5z" />
    <glyph glyph-name="uniFC87" unicode="&#xfc87;" horiz-adv-x="922" arabic-form="final" 
d="M937 78q5 -12 5 -33t-5 -33t-15 -12q-111 0 -158 62q-42 -47 -116 -51q38 -30 38 -64q0 -45 -43.5 -83.5t-118.5 -60.5t-165 -22q-152 0 -230.5 59t-78.5 173q0 55 23 133h80q-23 -72 -23 -127q0 -73 60 -110.5t179 -37.5q98 0 166.5 21.5t68.5 55.5q0 42 -120 74l-26 7
v90l26 -5q76 -14 144 -14q70 0 108 29q-4 20 -4 48v593h85l-1 -573q0 -56 24.5 -81.5t81.5 -25.5q10 0 15 -12zM329.5 -310.5q14.5 -15.5 14.5 -43.5t-14.5 -43t-40.5 -15t-40.5 15t-14.5 43t14.5 43.5t40.5 15.5t40.5 -15.5zM469.5 -310.5q14.5 -15.5 14.5 -43.5t-14.5 -43
t-40.5 -15t-40.5 15t-14.5 43t14.5 43.5t40.5 15.5t40.5 -15.5z" />
    <glyph glyph-name="uniFC8A" unicode="&#xfc8a;" horiz-adv-x="712" arabic-form="final" 
d="M726.5 78q5.5 -12 5.5 -33t-5.5 -33t-15.5 -12q-88 0 -135.5 37t-54.5 116l-2 27q-21 -23 -52 -36t-67 -13q-58 0 -90 27q8 -78 8 -133q0 -73 -25 -128.5t-71.5 -85.5t-107.5 -30q-42 0 -88 10l-1 92q51 -12 89 -12q65 0 94.5 36t29.5 115q0 80 -19 201l-13 80h85
q11 -82 109 -82q37 0 66 10t46 28l-7 79h82l14 -165q4 -47 30.5 -65t79.5 -18q10 0 15.5 -12zM575.5 568.5q14.5 -15.5 14.5 -43.5t-14.5 -43t-40.5 -15t-40.5 15t-14.5 43t14.5 43.5t40.5 15.5t40.5 -15.5z" />
    <glyph glyph-name="uniFC8B" unicode="&#xfc8b;" horiz-adv-x="712" arabic-form="final" 
d="M726.5 78q5.5 -12 5.5 -33t-5.5 -33t-15.5 -12q-88 0 -135.5 37t-54.5 116l-2 27q-21 -23 -52 -36t-67 -13q-58 0 -90 27q8 -78 8 -133q0 -73 -25 -128.5t-71.5 -85.5t-107.5 -30q-42 0 -88 10l-1 92q51 -12 89 -12q65 0 94.5 36t29.5 115q0 80 -19 201l-13 80h85
q11 -82 109 -82q37 0 66 10t46 28l-7 79h82l14 -165q4 -47 30.5 -65t79.5 -18q10 0 15.5 -12zM269.5 532.5q14.5 -15.5 14.5 -43.5t-14.5 -43t-40.5 -15t-40.5 15t-14.5 43t14.5 43.5t40.5 15.5t40.5 -15.5zM580.5 568.5q14.5 -15.5 14.5 -43.5t-14.5 -43t-40.5 -15
t-40.5 15t-14.5 43t14.5 43.5t40.5 15.5t40.5 -15.5z" />
    <glyph glyph-name="uniFC8D" unicode="&#xfc8d;" horiz-adv-x="1019" arabic-form="final" 
d="M295.5 306q-14.5 15 -14.5 43t14.5 43.5t40.5 15.5t40.5 -15.5t14.5 -43.5t-14.5 -43t-40.5 -15t-40.5 15zM1033.5 78q5.5 -12 5.5 -33t-5.5 -33t-15.5 -12q-88 0 -135.5 37t-54.5 116l-2 27q-21 -23 -52 -36t-67 -13q-60 0 -92 28q14 -109 14 -161q0 -104 -78 -160.5
t-212 -56.5q-129 0 -204 60.5t-75 171.5q0 55 23 133h80q-23 -72 -23 -127q0 -73 53.5 -110.5t145.5 -37.5q98 0 153 32t55 95q0 45 -14 155l-20 150h85q11 -82 109 -82q37 0 66 10t46 28l-7 79h82l14 -165q4 -47 30.5 -65t79.5 -18q10 0 15.5 -12zM808.5 558.5
q14.5 -15.5 14.5 -43.5t-14.5 -43t-40.5 -15t-40.5 15t-14.5 43t14.5 43.5t40.5 15.5t40.5 -15.5zM948.5 558.5q14.5 -15.5 14.5 -43.5t-14.5 -43t-40.5 -15t-40.5 15t-14.5 43t14.5 43.5t40.5 15.5t40.5 -15.5z" />
    <glyph glyph-name="uniFC8E" unicode="&#xfc8e;" horiz-adv-x="864" arabic-form="final" 
d="M654.5 532.5q14.5 -15.5 14.5 -43.5t-14.5 -43t-40.5 -15t-40.5 15t-14.5 43t14.5 43.5t40.5 15.5t40.5 -15.5zM378.5 245.5q37.5 46.5 96 74.5t117.5 28q53 0 83.5 -14t48.5 -48t31 -98l5 -25q7 -37 30.5 -55t72.5 -18q10 0 15.5 -12t5.5 -33t-5.5 -33t-15.5 -12
q-87 0 -127.5 37t-56.5 116l-7 35q-8 42 -27 56t-65 14q-31 0 -67.5 -12.5t-61.5 -34.5t-25 -49q0 -17 12.5 -27t44.5 -20l43 -13q87 -26 121.5 -56.5t34.5 -81.5q0 -57 -42 -98.5t-117 -63t-172 -21.5q-140 0 -220.5 60.5t-80.5 171.5q0 55 23 133h80q-23 -72 -23 -127
q0 -73 61.5 -110.5t169.5 -37.5q62 0 117 9.5t88.5 26t33.5 37.5t-23.5 38t-80.5 33l-40 11q-63 17 -89 46t-26 74q0 53 37.5 99.5z" />
    <glyph glyph-name="uniFC8F" unicode="&#xfc8f;" horiz-adv-x="864" arabic-form="final" 
d="M654.5 532.5q14.5 -15.5 14.5 -43.5t-14.5 -43t-40.5 -15t-40.5 15t-14.5 43t14.5 43.5t40.5 15.5t40.5 -15.5zM378.5 245.5q37.5 46.5 96 74.5t117.5 28q53 0 83.5 -14t48.5 -48t31 -98l5 -25q7 -37 30.5 -55t72.5 -18q10 0 15.5 -12t5.5 -33t-5.5 -33t-15.5 -12
q-87 0 -127.5 37t-56.5 116l-7 35q-8 42 -27 56t-65 14q-31 0 -67.5 -12.5t-61.5 -34.5t-25 -49q0 -17 12.5 -27t44.5 -20l43 -13q87 -26 121.5 -56.5t34.5 -81.5q0 -57 -42 -98.5t-117 -63t-172 -21.5q-140 0 -220.5 60.5t-80.5 171.5q0 55 23 133h80q-23 -72 -23 -127
q0 -73 61.5 -110.5t169.5 -37.5q62 0 117 9.5t88.5 26t33.5 37.5t-23.5 38t-80.5 33l-40 11q-63 17 -89 46t-26 74q0 53 37.5 99.5zM338.5 -310.5q14.5 -15.5 14.5 -43.5t-14.5 -43t-40.5 -15t-40.5 15t-14.5 43t14.5 43.5t40.5 15.5t40.5 -15.5zM478.5 -310.5
q14.5 -15.5 14.5 -43.5t-14.5 -43t-40.5 -15t-40.5 15t-14.5 43t14.5 43.5t40.5 15.5t40.5 -15.5z" />
    <glyph glyph-name="uniFC91" unicode="&#xfc91;" horiz-adv-x="712" arabic-form="final" 
d="M726.5 78q5.5 -12 5.5 -33t-5.5 -33t-15.5 -12q-88 0 -135.5 37t-54.5 116l-2 27q-21 -23 -52 -36t-67 -13q-58 0 -90 27q8 -78 8 -133q0 -73 -25 -128.5t-71.5 -85.5t-107.5 -30q-42 0 -88 10l-1 92q51 -12 89 -12q65 0 94.5 36t29.5 115q0 80 -19 201l-13 80h85
q11 -82 109 -82q37 0 66 10t46 28l-7 79h82l14 -165q4 -47 30.5 -65t79.5 -18q10 0 15.5 -12zM502.5 -143.5q14.5 -15.5 14.5 -43.5t-14.5 -43t-40.5 -15t-40.5 15t-14.5 43t14.5 43.5t40.5 15.5t40.5 -15.5zM642.5 -143.5q14.5 -15.5 14.5 -43.5t-14.5 -43t-40.5 -15
t-40.5 15t-14.5 43t14.5 43.5t40.5 15.5t40.5 -15.5z" />
    <glyph glyph-name="uniFC92" unicode="&#xfc92;" horiz-adv-x="712" arabic-form="final" 
d="M726.5 78q5.5 -12 5.5 -33t-5.5 -33t-15.5 -12q-88 0 -135.5 37t-54.5 116l-2 27q-21 -23 -52 -36t-67 -13q-58 0 -90 27q8 -78 8 -133q0 -73 -25 -128.5t-71.5 -85.5t-107.5 -30q-42 0 -88 10l-1 92q51 -12 89 -12q65 0 94.5 36t29.5 115q0 80 -19 201l-13 80h85
q11 -82 109 -82q37 0 66 10t46 28l-7 79h82l14 -165q4 -47 30.5 -65t79.5 -18q10 0 15.5 -12zM269.5 532.5q14.5 -15.5 14.5 -43.5t-14.5 -43t-40.5 -15t-40.5 15t-14.5 43t14.5 43.5t40.5 15.5t40.5 -15.5zM502.5 -143.5q14.5 -15.5 14.5 -43.5t-14.5 -43t-40.5 -15
t-40.5 15t-14.5 43t14.5 43.5t40.5 15.5t40.5 -15.5zM642.5 -143.5q14.5 -15.5 14.5 -43.5t-14.5 -43t-40.5 -15t-40.5 15t-14.5 43t14.5 43.5t40.5 15.5t40.5 -15.5z" />
    <glyph glyph-name="uniFC94" unicode="&#xfc94;" horiz-adv-x="1019" arabic-form="final" 
d="M295.5 306q-14.5 15 -14.5 43t14.5 43.5t40.5 15.5t40.5 -15.5t14.5 -43.5t-14.5 -43t-40.5 -15t-40.5 15zM1033.5 78q5.5 -12 5.5 -33t-5.5 -33t-15.5 -12q-88 0 -135.5 37t-54.5 116l-2 27q-21 -23 -52 -36t-67 -13q-60 0 -92 28q14 -109 14 -161q0 -104 -78 -160.5
t-212 -56.5q-129 0 -204 60.5t-75 171.5q0 55 23 133h80q-23 -72 -23 -127q0 -73 53.5 -110.5t145.5 -37.5q98 0 153 32t55 95q0 45 -14 155l-20 150h85q11 -82 109 -82q37 0 66 10t46 28l-7 79h82l14 -165q4 -47 30.5 -65t79.5 -18q10 0 15.5 -12zM784.5 -143.5
q14.5 -15.5 14.5 -43.5t-14.5 -43t-40.5 -15t-40.5 15t-14.5 43t14.5 43.5t40.5 15.5t40.5 -15.5zM924.5 -143.5q14.5 -15.5 14.5 -43.5t-14.5 -43t-40.5 -15t-40.5 15t-14.5 43t14.5 43.5t40.5 15.5t40.5 -15.5z" />
    <glyph glyph-name="uniFCCC" unicode="&#xfccc;" horiz-adv-x="352" arabic-form="initial" 
d="M342 17l-53 -95l-75 38q-45 23 -78 31.5t-96 8.5h-40q-10 0 -15 12t-5 33q0 45 26 45h24q55 0 85 -5q-6 24 -6 57v628h85l-1 -674z" />
    <glyph glyph-name="uniFCFB" unicode="&#xfcfb;" horiz-adv-x="1341" arabic-form="isolated" 
d="M1270.5 226q6.5 -58 6.5 -101q0 -62 -43 -99.5t-114 -37.5q-80 0 -133 54q-42 -42 -124 -42q-87 0 -127.5 37t-56.5 116l-7 35q-8 42 -27 56t-65 14q-31 0 -67.5 -12.5t-61.5 -34.5t-25 -49q0 -17 12.5 -27t44.5 -20l43 -13q87 -26 121.5 -56.5t34.5 -81.5
q0 -57 -42 -98.5t-117 -63t-172 -21.5q-140 0 -220.5 60.5t-80.5 171.5q0 55 23 133h80q-23 -72 -23 -127q0 -73 61.5 -110.5t169.5 -37.5q62 0 117 9.5t88.5 26t33.5 37.5t-23.5 38t-80.5 33l-40 11q-63 17 -89 46t-26 74q0 53 37.5 99.5t96 74.5t117.5 28q53 0 83.5 -14
t48.5 -48t31 -98l5 -25q7 -37 30.5 -55t72.5 -18q43 0 63.5 15t30.5 55l13 73h83l-13 -73q-5 -29 -17 -59q48 -23 97 -23q38 0 57.5 16t19.5 47q0 32 -7.5 85.5t-20.5 111.5h85q10 -54 16.5 -112z" />
    <glyph glyph-name="uniFCFC" unicode="&#xfcfc;" horiz-adv-x="1341" arabic-form="isolated" 
d="M1270.5 226q6.5 -58 6.5 -101q0 -62 -43 -99.5t-114 -37.5q-80 0 -133 54q-42 -42 -124 -42q-87 0 -127.5 37t-56.5 116l-7 35q-8 42 -27 56t-65 14q-31 0 -67.5 -12.5t-61.5 -34.5t-25 -49q0 -17 12.5 -27t44.5 -20l43 -13q87 -26 121.5 -56.5t34.5 -81.5
q0 -57 -42 -98.5t-117 -63t-172 -21.5q-140 0 -220.5 60.5t-80.5 171.5q0 55 23 133h80q-23 -72 -23 -127q0 -73 61.5 -110.5t169.5 -37.5q62 0 117 9.5t88.5 26t33.5 37.5t-23.5 38t-80.5 33l-40 11q-63 17 -89 46t-26 74q0 53 37.5 99.5t96 74.5t117.5 28q53 0 83.5 -14
t48.5 -48t31 -98l5 -25q7 -37 30.5 -55t72.5 -18q43 0 63.5 15t30.5 55l13 73h83l-13 -73q-5 -29 -17 -59q48 -23 97 -23q38 0 57.5 16t19.5 47q0 32 -7.5 85.5t-20.5 111.5h85q10 -54 16.5 -112zM319.5 -310.5q14.5 -15.5 14.5 -43.5t-14.5 -43t-40.5 -15t-40.5 15
t-14.5 43t14.5 43.5t40.5 15.5t40.5 -15.5zM459.5 -310.5q14.5 -15.5 14.5 -43.5t-14.5 -43t-40.5 -15t-40.5 15t-14.5 43t14.5 43.5t40.5 15.5t40.5 -15.5z" />
    <glyph glyph-name="uniFCFD" unicode="&#xfcfd;" horiz-adv-x="1341" arabic-form="isolated" 
d="M1270.5 226q6.5 -58 6.5 -101q0 -62 -43 -99.5t-114 -37.5q-80 0 -133 54q-42 -42 -124 -42q-87 0 -127.5 37t-56.5 116l-7 35q-8 42 -27 56t-65 14q-31 0 -67.5 -12.5t-61.5 -34.5t-25 -49q0 -17 12.5 -27t44.5 -20l43 -13q87 -26 121.5 -56.5t34.5 -81.5
q0 -57 -42 -98.5t-117 -63t-172 -21.5q-140 0 -220.5 60.5t-80.5 171.5q0 55 23 133h80q-23 -72 -23 -127q0 -73 61.5 -110.5t169.5 -37.5q62 0 117 9.5t88.5 26t33.5 37.5t-23.5 38t-80.5 33l-40 11q-63 17 -89 46t-26 74q0 53 37.5 99.5t96 74.5t117.5 28q53 0 83.5 -14
t48.5 -48t31 -98l5 -25q7 -37 30.5 -55t72.5 -18q43 0 63.5 15t30.5 55l13 73h83l-13 -73q-5 -29 -17 -59q48 -23 97 -23q38 0 57.5 16t19.5 47q0 32 -7.5 85.5t-20.5 111.5h85q10 -54 16.5 -112zM1049.5 589.5q14.5 -15.5 14.5 -43.5t-14.5 -43t-40.5 -15t-40.5 15
t-14.5 43t14.5 43.5t40.5 15.5t40.5 -15.5zM979.5 459.5q14.5 -15.5 14.5 -43.5t-14.5 -43t-40.5 -15t-40.5 15t-14.5 43t14.5 43.5t40.5 15.5t40.5 -15.5zM1119.5 459.5q14.5 -15.5 14.5 -43.5t-14.5 -43t-40.5 -15t-40.5 15t-14.5 43t14.5 43.5t40.5 15.5t40.5 -15.5z" />
    <glyph glyph-name="uniFCFE" unicode="&#xfcfe;" horiz-adv-x="1341" arabic-form="isolated" 
d="M1270.5 226q6.5 -58 6.5 -101q0 -62 -43 -99.5t-114 -37.5q-80 0 -133 54q-42 -42 -124 -42q-87 0 -127.5 37t-56.5 116l-7 35q-8 42 -27 56t-65 14q-31 0 -67.5 -12.5t-61.5 -34.5t-25 -49q0 -17 12.5 -27t44.5 -20l43 -13q87 -26 121.5 -56.5t34.5 -81.5
q0 -57 -42 -98.5t-117 -63t-172 -21.5q-140 0 -220.5 60.5t-80.5 171.5q0 55 23 133h80q-23 -72 -23 -127q0 -73 61.5 -110.5t169.5 -37.5q62 0 117 9.5t88.5 26t33.5 37.5t-23.5 38t-80.5 33l-40 11q-63 17 -89 46t-26 74q0 53 37.5 99.5t96 74.5t117.5 28q53 0 83.5 -14
t48.5 -48t31 -98l5 -25q7 -37 30.5 -55t72.5 -18q43 0 63.5 15t30.5 55l13 73h83l-13 -73q-5 -29 -17 -59q48 -23 97 -23q38 0 57.5 16t19.5 47q0 32 -7.5 85.5t-20.5 111.5h85q10 -54 16.5 -112zM1049.5 589.5q14.5 -15.5 14.5 -43.5t-14.5 -43t-40.5 -15t-40.5 15
t-14.5 43t14.5 43.5t40.5 15.5t40.5 -15.5zM979.5 459.5q14.5 -15.5 14.5 -43.5t-14.5 -43t-40.5 -15t-40.5 15t-14.5 43t14.5 43.5t40.5 15.5t40.5 -15.5zM1119.5 459.5q14.5 -15.5 14.5 -43.5t-14.5 -43t-40.5 -15t-40.5 15t-14.5 43t14.5 43.5t40.5 15.5t40.5 -15.5z
M319.5 -310.5q14.5 -15.5 14.5 -43.5t-14.5 -43t-40.5 -15t-40.5 15t-14.5 43t14.5 43.5t40.5 15.5t40.5 -15.5zM459.5 -310.5q14.5 -15.5 14.5 -43.5t-14.5 -43t-40.5 -15t-40.5 15t-14.5 43t14.5 43.5t40.5 15.5t40.5 -15.5z" />
    <glyph glyph-name="uniFD05" unicode="&#xfd05;" horiz-adv-x="1391" arabic-form="isolated" 
d="M1252.5 355q42.5 -28 67 -75t24.5 -101q0 -179 -312 -179h-169q-87 0 -127.5 37t-56.5 116l-7 35q-8 42 -27 56t-65 14q-31 0 -67.5 -12.5t-61.5 -34.5t-25 -49q0 -17 12.5 -27t44.5 -20l43 -13q87 -26 121.5 -56.5t34.5 -81.5q0 -57 -42 -98.5t-117 -63t-172 -21.5
q-140 0 -220.5 60.5t-80.5 171.5q0 55 23 133h80q-23 -72 -23 -127q0 -73 61.5 -110.5t169.5 -37.5q62 0 117 9.5t88.5 26t33.5 37.5t-23.5 38t-80.5 33l-40 11q-63 17 -89 46t-26 74q0 53 37.5 99.5t96 74.5t117.5 28q53 0 83.5 -14t48.5 -48t31 -98l5 -25q9 -48 48 -65
q97 150 180 217.5t171 67.5q51 0 93.5 -28zM1264 169q0 32 -16.5 60.5t-44.5 46t-61 17.5q-64 0 -126 -48.5t-134 -154.5h150q232 0 232 79z" />
    <glyph glyph-name="uniFD06" unicode="&#xfd06;" horiz-adv-x="1391" arabic-form="isolated" 
d="M1252.5 355q42.5 -28 67 -75t24.5 -101q0 -179 -312 -179h-169q-87 0 -127.5 37t-56.5 116l-7 35q-8 42 -27 56t-65 14q-31 0 -67.5 -12.5t-61.5 -34.5t-25 -49q0 -17 12.5 -27t44.5 -20l43 -13q87 -26 121.5 -56.5t34.5 -81.5q0 -57 -42 -98.5t-117 -63t-172 -21.5
q-140 0 -220.5 60.5t-80.5 171.5q0 55 23 133h80q-23 -72 -23 -127q0 -73 61.5 -110.5t169.5 -37.5q62 0 117 9.5t88.5 26t33.5 37.5t-23.5 38t-80.5 33l-40 11q-63 17 -89 46t-26 74q0 53 37.5 99.5t96 74.5t117.5 28q53 0 83.5 -14t48.5 -48t31 -98l5 -25q9 -48 48 -65
q97 150 180 217.5t171 67.5q51 0 93.5 -28zM1264 169q0 32 -16.5 60.5t-44.5 46t-61 17.5q-64 0 -126 -48.5t-134 -154.5h150q232 0 232 79zM319.5 -310.5q14.5 -15.5 14.5 -43.5t-14.5 -43t-40.5 -15t-40.5 15t-14.5 43t14.5 43.5t40.5 15.5t40.5 -15.5zM459.5 -310.5
q14.5 -15.5 14.5 -43.5t-14.5 -43t-40.5 -15t-40.5 15t-14.5 43t14.5 43.5t40.5 15.5t40.5 -15.5z" />
    <glyph glyph-name="uniFD07" unicode="&#xfd07;" horiz-adv-x="1391" arabic-form="isolated" 
d="M1172.5 567.5q14.5 -15.5 14.5 -43.5t-14.5 -43t-40.5 -15t-40.5 15t-14.5 43t14.5 43.5t40.5 15.5t40.5 -15.5zM1252.5 355q42.5 -28 67 -75t24.5 -101q0 -179 -312 -179h-169q-87 0 -127.5 37t-56.5 116l-7 35q-8 42 -27 56t-65 14q-31 0 -67.5 -12.5t-61.5 -34.5
t-25 -49q0 -17 12.5 -27t44.5 -20l43 -13q87 -26 121.5 -56.5t34.5 -81.5q0 -57 -42 -98.5t-117 -63t-172 -21.5q-140 0 -220.5 60.5t-80.5 171.5q0 55 23 133h80q-23 -72 -23 -127q0 -73 61.5 -110.5t169.5 -37.5q62 0 117 9.5t88.5 26t33.5 37.5t-23.5 38t-80.5 33l-40 11
q-63 17 -89 46t-26 74q0 53 37.5 99.5t96 74.5t117.5 28q53 0 83.5 -14t48.5 -48t31 -98l5 -25q9 -48 48 -65q97 150 180 217.5t171 67.5q51 0 93.5 -28zM1264 169q0 32 -16.5 60.5t-44.5 46t-61 17.5q-64 0 -126 -48.5t-134 -154.5h150q232 0 232 79z" />
    <glyph glyph-name="uniFD08" unicode="&#xfd08;" horiz-adv-x="1391" arabic-form="isolated" 
d="M1252.5 355q42.5 -28 67 -75t24.5 -101q0 -179 -312 -179h-169q-87 0 -127.5 37t-56.5 116l-7 35q-8 42 -27 56t-65 14q-31 0 -67.5 -12.5t-61.5 -34.5t-25 -49q0 -17 12.5 -27t44.5 -20l43 -13q87 -26 121.5 -56.5t34.5 -81.5q0 -57 -42 -98.5t-117 -63t-172 -21.5
q-140 0 -220.5 60.5t-80.5 171.5q0 55 23 133h80q-23 -72 -23 -127q0 -73 61.5 -110.5t169.5 -37.5q62 0 117 9.5t88.5 26t33.5 37.5t-23.5 38t-80.5 33l-40 11q-63 17 -89 46t-26 74q0 53 37.5 99.5t96 74.5t117.5 28q53 0 83.5 -14t48.5 -48t31 -98l5 -25q9 -48 48 -65
q97 150 180 217.5t171 67.5q51 0 93.5 -28zM1264 169q0 32 -16.5 60.5t-44.5 46t-61 17.5q-64 0 -126 -48.5t-134 -154.5h150q232 0 232 79zM319.5 -310.5q14.5 -15.5 14.5 -43.5t-14.5 -43t-40.5 -15t-40.5 15t-14.5 43t14.5 43.5t40.5 15.5t40.5 -15.5zM459.5 -310.5
q14.5 -15.5 14.5 -43.5t-14.5 -43t-40.5 -15t-40.5 15t-14.5 43t14.5 43.5t40.5 15.5t40.5 -15.5zM1172.5 567.5q14.5 -15.5 14.5 -43.5t-14.5 -43t-40.5 -15t-40.5 15t-14.5 43t14.5 43.5t40.5 15.5t40.5 -15.5z" />
    <glyph glyph-name="uniFD0D" unicode="&#xfd0d;" horiz-adv-x="1109" arabic-form="isolated" 
d="M1038.5 226q6.5 -58 6.5 -101q0 -62 -43 -99.5t-114 -37.5q-77 0 -129 50q-43 -50 -129 -50q-80 0 -119.5 40.5t-49.5 134.5l-3 28l-151 -26v-2q11 -78 11 -148q0 -106 -53 -170t-151 -64q-42 0 -88 10l-1 82q51 -12 89 -12q65 0 94.5 36.5t29.5 114.5q0 33 -2.5 63
t-9.5 78l-13 87l316 50l12 -117q5 -52 25.5 -73.5t63.5 -21.5q44 0 64.5 17.5t30.5 64.5l13 73h83l-13 -73q-6 -34 -15 -59q44 -23 95 -23q38 0 57.5 16t19.5 47q0 32 -7.5 85.5t-20.5 111.5h85q10 -54 16.5 -112zM823.5 589.5q14.5 -15.5 14.5 -43.5t-14.5 -43t-40.5 -15
t-40.5 15t-14.5 43t14.5 43.5t40.5 15.5t40.5 -15.5zM753.5 459.5q14.5 -15.5 14.5 -43.5t-14.5 -43t-40.5 -15t-40.5 15t-14.5 43t14.5 43.5t40.5 15.5t40.5 -15.5zM893.5 459.5q14.5 -15.5 14.5 -43.5t-14.5 -43t-40.5 -15t-40.5 15t-14.5 43t14.5 43.5t40.5 15.5
t40.5 -15.5z" />
    <glyph glyph-name="uniFD0E" unicode="&#xfd0e;" horiz-adv-x="1109" arabic-form="isolated" 
d="M1038.5 226q6.5 -58 6.5 -101q0 -62 -43 -99.5t-114 -37.5q-77 0 -129 50q-43 -50 -129 -50q-80 0 -119.5 40.5t-49.5 134.5l-3 28l-151 -26v-2q11 -78 11 -148q0 -106 -53 -170t-151 -64q-42 0 -88 10l-1 82q51 -12 89 -12q65 0 94.5 36.5t29.5 114.5q0 33 -2.5 63
t-9.5 78l-13 87l316 50l12 -117q5 -52 25.5 -73.5t63.5 -21.5q44 0 64.5 17.5t30.5 64.5l13 73h83l-13 -73q-6 -34 -15 -59q44 -23 95 -23q38 0 57.5 16t19.5 47q0 32 -7.5 85.5t-20.5 111.5h85q10 -54 16.5 -112z" />
    <glyph glyph-name="uniFD0F" unicode="&#xfd0f;" horiz-adv-x="1159" arabic-form="isolated" 
d="M1020.5 355q42.5 -28 67 -75t24.5 -101q0 -179 -312 -179h-170q-80 0 -119.5 38t-49.5 125l-3 28l-151 -26v-2q11 -78 11 -148q0 -106 -53 -170t-151 -64q-42 0 -88 10l-1 82q51 -12 89 -12q65 0 94.5 36.5t29.5 114.5q0 33 -2.5 63t-9.5 78l-13 87l316 50l12 -117
q6 -55 37 -72q96 148 178.5 215t170.5 67q51 0 93.5 -28zM1032 169q0 32 -16.5 60.5t-44.5 46t-61 17.5q-64 0 -126 -48.5t-134 -154.5h150q232 0 232 79z" />
    <glyph glyph-name="uniFD10" unicode="&#xfd10;" horiz-adv-x="1159" arabic-form="isolated" 
d="M1020.5 355q42.5 -28 67 -75t24.5 -101q0 -179 -312 -179h-170q-80 0 -119.5 38t-49.5 125l-3 28l-151 -26v-2q11 -78 11 -148q0 -106 -53 -170t-151 -64q-42 0 -88 10l-1 82q51 -12 89 -12q65 0 94.5 36.5t29.5 114.5q0 33 -2.5 63t-9.5 78l-13 87l316 50l12 -117
q6 -55 37 -72q96 148 178.5 215t170.5 67q51 0 93.5 -28zM1032 169q0 32 -16.5 60.5t-44.5 46t-61 17.5q-64 0 -126 -48.5t-134 -154.5h150q232 0 232 79zM952.5 568.5q14.5 -15.5 14.5 -43.5t-14.5 -43t-40.5 -15t-40.5 15t-14.5 43t14.5 43.5t40.5 15.5t40.5 -15.5z" />
    <glyph glyph-name="uniFD17" unicode="&#xfd17;" horiz-adv-x="1377" arabic-form="final" 
d="M1391.5 78q5.5 -12 5.5 -33t-5.5 -33t-15.5 -12q-102 0 -147 59q-17 -34 -47.5 -52.5t-70.5 -18.5q-77 0 -118 61q-43 -49 -130 -49t-127.5 37t-56.5 116l-7 35q-8 42 -27 56t-65 14q-31 0 -67.5 -12.5t-61.5 -34.5t-25 -49q0 -17 12.5 -27t44.5 -20l43 -13
q87 -26 121.5 -56.5t34.5 -81.5q0 -57 -42 -98.5t-117 -63t-172 -21.5q-140 0 -220.5 60.5t-80.5 171.5q0 55 23 133h80q-23 -72 -23 -127q0 -73 61.5 -110.5t169.5 -37.5q62 0 117 9.5t88.5 26t33.5 37.5t-23.5 38t-80.5 33l-40 11q-63 17 -89 46t-26 74q0 53 37.5 99.5
t96 74.5t117.5 28q53 0 83.5 -14t48.5 -48t31 -98l5 -25q7 -37 30.5 -55t72.5 -18q43 0 63.5 15t30.5 55l13 73h83l-13 -73q-4 -24 -12 -45q34 -37 83 -37q61 0 89 49q-2 10 -4 26l-10 115h82l9 -105q3 -36 29 -54.5t70 -18.5q10 0 15.5 -12z" />
    <glyph glyph-name="uniFD18" unicode="&#xfd18;" horiz-adv-x="1377" arabic-form="final" 
d="M1391.5 78q5.5 -12 5.5 -33t-5.5 -33t-15.5 -12q-102 0 -147 59q-17 -34 -47.5 -52.5t-70.5 -18.5q-77 0 -118 61q-43 -49 -130 -49t-127.5 37t-56.5 116l-7 35q-8 42 -27 56t-65 14q-31 0 -67.5 -12.5t-61.5 -34.5t-25 -49q0 -17 12.5 -27t44.5 -20l43 -13
q87 -26 121.5 -56.5t34.5 -81.5q0 -57 -42 -98.5t-117 -63t-172 -21.5q-140 0 -220.5 60.5t-80.5 171.5q0 55 23 133h80q-23 -72 -23 -127q0 -73 61.5 -110.5t169.5 -37.5q62 0 117 9.5t88.5 26t33.5 37.5t-23.5 38t-80.5 33l-40 11q-63 17 -89 46t-26 74q0 53 37.5 99.5
t96 74.5t117.5 28q53 0 83.5 -14t48.5 -48t31 -98l5 -25q7 -37 30.5 -55t72.5 -18q43 0 63.5 15t30.5 55l13 73h83l-13 -73q-4 -24 -12 -45q34 -37 83 -37q61 0 89 49q-2 10 -4 26l-10 115h82l9 -105q3 -36 29 -54.5t70 -18.5q10 0 15.5 -12zM319.5 -310.5
q14.5 -15.5 14.5 -43.5t-14.5 -43t-40.5 -15t-40.5 15t-14.5 43t14.5 43.5t40.5 15.5t40.5 -15.5zM459.5 -310.5q14.5 -15.5 14.5 -43.5t-14.5 -43t-40.5 -15t-40.5 15t-14.5 43t14.5 43.5t40.5 15.5t40.5 -15.5z" />
    <glyph glyph-name="uniFD19" unicode="&#xfd19;" horiz-adv-x="1377" arabic-form="final" 
d="M1391.5 78q5.5 -12 5.5 -33t-5.5 -33t-15.5 -12q-102 0 -147 59q-17 -34 -47.5 -52.5t-70.5 -18.5q-77 0 -118 61q-43 -49 -130 -49t-127.5 37t-56.5 116l-7 35q-8 42 -27 56t-65 14q-31 0 -67.5 -12.5t-61.5 -34.5t-25 -49q0 -17 12.5 -27t44.5 -20l43 -13
q87 -26 121.5 -56.5t34.5 -81.5q0 -57 -42 -98.5t-117 -63t-172 -21.5q-140 0 -220.5 60.5t-80.5 171.5q0 55 23 133h80q-23 -72 -23 -127q0 -73 61.5 -110.5t169.5 -37.5q62 0 117 9.5t88.5 26t33.5 37.5t-23.5 38t-80.5 33l-40 11q-63 17 -89 46t-26 74q0 53 37.5 99.5
t96 74.5t117.5 28q53 0 83.5 -14t48.5 -48t31 -98l5 -25q7 -37 30.5 -55t72.5 -18q43 0 63.5 15t30.5 55l13 73h83l-13 -73q-4 -24 -12 -45q34 -37 83 -37q61 0 89 49q-2 10 -4 26l-10 115h82l9 -105q3 -36 29 -54.5t70 -18.5q10 0 15.5 -12zM1049.5 589.5
q14.5 -15.5 14.5 -43.5t-14.5 -43t-40.5 -15t-40.5 15t-14.5 43t14.5 43.5t40.5 15.5t40.5 -15.5zM979.5 459.5q14.5 -15.5 14.5 -43.5t-14.5 -43t-40.5 -15t-40.5 15t-14.5 43t14.5 43.5t40.5 15.5t40.5 -15.5zM1119.5 459.5q14.5 -15.5 14.5 -43.5t-14.5 -43t-40.5 -15
t-40.5 15t-14.5 43t14.5 43.5t40.5 15.5t40.5 -15.5z" />
    <glyph glyph-name="uniFD1A" unicode="&#xfd1a;" horiz-adv-x="1377" arabic-form="final" 
d="M1391.5 78q5.5 -12 5.5 -33t-5.5 -33t-15.5 -12q-102 0 -147 59q-17 -34 -47.5 -52.5t-70.5 -18.5q-77 0 -118 61q-43 -49 -130 -49t-127.5 37t-56.5 116l-7 35q-8 42 -27 56t-65 14q-31 0 -67.5 -12.5t-61.5 -34.5t-25 -49q0 -17 12.5 -27t44.5 -20l43 -13
q87 -26 121.5 -56.5t34.5 -81.5q0 -57 -42 -98.5t-117 -63t-172 -21.5q-140 0 -220.5 60.5t-80.5 171.5q0 55 23 133h80q-23 -72 -23 -127q0 -73 61.5 -110.5t169.5 -37.5q62 0 117 9.5t88.5 26t33.5 37.5t-23.5 38t-80.5 33l-40 11q-63 17 -89 46t-26 74q0 53 37.5 99.5
t96 74.5t117.5 28q53 0 83.5 -14t48.5 -48t31 -98l5 -25q7 -37 30.5 -55t72.5 -18q43 0 63.5 15t30.5 55l13 73h83l-13 -73q-4 -24 -12 -45q34 -37 83 -37q61 0 89 49q-2 10 -4 26l-10 115h82l9 -105q3 -36 29 -54.5t70 -18.5q10 0 15.5 -12zM1049.5 589.5
q14.5 -15.5 14.5 -43.5t-14.5 -43t-40.5 -15t-40.5 15t-14.5 43t14.5 43.5t40.5 15.5t40.5 -15.5zM979.5 459.5q14.5 -15.5 14.5 -43.5t-14.5 -43t-40.5 -15t-40.5 15t-14.5 43t14.5 43.5t40.5 15.5t40.5 -15.5zM1119.5 459.5q14.5 -15.5 14.5 -43.5t-14.5 -43t-40.5 -15
t-40.5 15t-14.5 43t14.5 43.5t40.5 15.5t40.5 -15.5zM319.5 -310.5q14.5 -15.5 14.5 -43.5t-14.5 -43t-40.5 -15t-40.5 15t-14.5 43t14.5 43.5t40.5 15.5t40.5 -15.5zM459.5 -310.5q14.5 -15.5 14.5 -43.5t-14.5 -43t-40.5 -15t-40.5 15t-14.5 43t14.5 43.5t40.5 15.5
t40.5 -15.5z" />
    <glyph glyph-name="uniFD21" unicode="&#xfd21;" horiz-adv-x="1408" arabic-form="final" 
d="M1426.5 78q5.5 -12 5.5 -33t-5.5 -33t-15.5 -12q-88 0 -135 51q-78 -51 -244 -51h-169q-87 0 -127.5 37t-56.5 116l-7 35q-8 42 -27 56t-65 14q-31 0 -67.5 -12.5t-61.5 -34.5t-25 -49q0 -17 12.5 -27t44.5 -20l43 -13q87 -26 121.5 -56.5t34.5 -81.5q0 -57 -42 -98.5
t-117 -63t-172 -21.5q-140 0 -220.5 60.5t-80.5 171.5q0 55 23 133h80q-23 -72 -23 -127q0 -73 61.5 -110.5t169.5 -37.5q62 0 117 9.5t88.5 26t33.5 37.5t-23.5 38t-80.5 33l-40 11q-63 17 -89 46t-26 74q0 53 37.5 99.5t96 74.5t117.5 28q53 0 83.5 -14t48.5 -48t31 -98
l5 -25q9 -48 48 -65q97 150 180 217.5t171 67.5q51 0 93.5 -28t67 -75t24.5 -101q0 -43 -18 -76q32 -13 85 -13q10 0 15.5 -12zM1264 169q0 32 -16.5 60.5t-44.5 46t-61 17.5q-64 0 -126 -48.5t-134 -154.5h150q232 0 232 79z" />
    <glyph glyph-name="uniFD22" unicode="&#xfd22;" horiz-adv-x="1408" arabic-form="final" 
d="M1426.5 78q5.5 -12 5.5 -33t-5.5 -33t-15.5 -12q-88 0 -135 51q-78 -51 -244 -51h-169q-87 0 -127.5 37t-56.5 116l-7 35q-8 42 -27 56t-65 14q-31 0 -67.5 -12.5t-61.5 -34.5t-25 -49q0 -17 12.5 -27t44.5 -20l43 -13q87 -26 121.5 -56.5t34.5 -81.5q0 -57 -42 -98.5
t-117 -63t-172 -21.5q-140 0 -220.5 60.5t-80.5 171.5q0 55 23 133h80q-23 -72 -23 -127q0 -73 61.5 -110.5t169.5 -37.5q62 0 117 9.5t88.5 26t33.5 37.5t-23.5 38t-80.5 33l-40 11q-63 17 -89 46t-26 74q0 53 37.5 99.5t96 74.5t117.5 28q53 0 83.5 -14t48.5 -48t31 -98
l5 -25q9 -48 48 -65q97 150 180 217.5t171 67.5q51 0 93.5 -28t67 -75t24.5 -101q0 -43 -18 -76q32 -13 85 -13q10 0 15.5 -12zM1264 169q0 32 -16.5 60.5t-44.5 46t-61 17.5q-64 0 -126 -48.5t-134 -154.5h150q232 0 232 79zM319.5 -310.5q14.5 -15.5 14.5 -43.5t-14.5 -43
t-40.5 -15t-40.5 15t-14.5 43t14.5 43.5t40.5 15.5t40.5 -15.5zM459.5 -310.5q14.5 -15.5 14.5 -43.5t-14.5 -43t-40.5 -15t-40.5 15t-14.5 43t14.5 43.5t40.5 15.5t40.5 -15.5z" />
    <glyph glyph-name="uniFD23" unicode="&#xfd23;" horiz-adv-x="1408" arabic-form="final" 
d="M1172.5 567.5q14.5 -15.5 14.5 -43.5t-14.5 -43t-40.5 -15t-40.5 15t-14.5 43t14.5 43.5t40.5 15.5t40.5 -15.5zM1426.5 78q5.5 -12 5.5 -33t-5.5 -33t-15.5 -12q-88 0 -135 51q-78 -51 -244 -51h-169q-87 0 -127.5 37t-56.5 116l-7 35q-8 42 -27 56t-65 14
q-31 0 -67.5 -12.5t-61.5 -34.5t-25 -49q0 -17 12.5 -27t44.5 -20l43 -13q87 -26 121.5 -56.5t34.5 -81.5q0 -57 -42 -98.5t-117 -63t-172 -21.5q-140 0 -220.5 60.5t-80.5 171.5q0 55 23 133h80q-23 -72 -23 -127q0 -73 61.5 -110.5t169.5 -37.5q62 0 117 9.5t88.5 26
t33.5 37.5t-23.5 38t-80.5 33l-40 11q-63 17 -89 46t-26 74q0 53 37.5 99.5t96 74.5t117.5 28q53 0 83.5 -14t48.5 -48t31 -98l5 -25q9 -48 48 -65q97 150 180 217.5t171 67.5q51 0 93.5 -28t67 -75t24.5 -101q0 -43 -18 -76q32 -13 85 -13q10 0 15.5 -12zM1264 169
q0 32 -16.5 60.5t-44.5 46t-61 17.5q-64 0 -126 -48.5t-134 -154.5h150q232 0 232 79z" />
    <glyph glyph-name="uniFD24" unicode="&#xfd24;" horiz-adv-x="1408" arabic-form="final" 
d="M1426.5 78q5.5 -12 5.5 -33t-5.5 -33t-15.5 -12q-88 0 -135 51q-78 -51 -244 -51h-169q-87 0 -127.5 37t-56.5 116l-7 35q-8 42 -27 56t-65 14q-31 0 -67.5 -12.5t-61.5 -34.5t-25 -49q0 -17 12.5 -27t44.5 -20l43 -13q87 -26 121.5 -56.5t34.5 -81.5q0 -57 -42 -98.5
t-117 -63t-172 -21.5q-140 0 -220.5 60.5t-80.5 171.5q0 55 23 133h80q-23 -72 -23 -127q0 -73 61.5 -110.5t169.5 -37.5q62 0 117 9.5t88.5 26t33.5 37.5t-23.5 38t-80.5 33l-40 11q-63 17 -89 46t-26 74q0 53 37.5 99.5t96 74.5t117.5 28q53 0 83.5 -14t48.5 -48t31 -98
l5 -25q9 -48 48 -65q97 150 180 217.5t171 67.5q51 0 93.5 -28t67 -75t24.5 -101q0 -43 -18 -76q32 -13 85 -13q10 0 15.5 -12zM1264 169q0 32 -16.5 60.5t-44.5 46t-61 17.5q-64 0 -126 -48.5t-134 -154.5h150q232 0 232 79zM319.5 -310.5q14.5 -15.5 14.5 -43.5t-14.5 -43
t-40.5 -15t-40.5 15t-14.5 43t14.5 43.5t40.5 15.5t40.5 -15.5zM459.5 -310.5q14.5 -15.5 14.5 -43.5t-14.5 -43t-40.5 -15t-40.5 15t-14.5 43t14.5 43.5t40.5 15.5t40.5 -15.5zM1172.5 567.5q14.5 -15.5 14.5 -43.5t-14.5 -43t-40.5 -15t-40.5 15t-14.5 43t14.5 43.5
t40.5 15.5t40.5 -15.5z" />
    <glyph glyph-name="uniFD29" unicode="&#xfd29;" horiz-adv-x="1145" arabic-form="final" 
d="M1159.5 78q5.5 -12 5.5 -33t-5.5 -33t-15.5 -12q-102 0 -147 59q-17 -34 -47.5 -52.5t-70.5 -18.5q-76 0 -115 57q-22 -29 -54.5 -43t-79.5 -14q-80 0 -119.5 40.5t-49.5 134.5l-3 28l-151 -26v-2q11 -78 11 -148q0 -106 -53 -170t-151 -64q-42 0 -88 10l-1 82
q51 -12 89 -12q65 0 94.5 36.5t29.5 114.5q0 33 -2.5 63t-9.5 78l-13 87l316 50l12 -117q5 -52 25.5 -73.5t63.5 -21.5q44 0 64.5 17.5t30.5 64.5l13 73h83l-13 -73q-3 -20 -11 -46q33 -36 82 -36q61 0 89 49q-2 10 -4 26l-10 115h82l9 -105q3 -36 29 -54.5t70 -18.5
q10 0 15.5 -12zM823.5 589.5q14.5 -15.5 14.5 -43.5t-14.5 -43t-40.5 -15t-40.5 15t-14.5 43t14.5 43.5t40.5 15.5t40.5 -15.5zM753.5 459.5q14.5 -15.5 14.5 -43.5t-14.5 -43t-40.5 -15t-40.5 15t-14.5 43t14.5 43.5t40.5 15.5t40.5 -15.5zM893.5 459.5
q14.5 -15.5 14.5 -43.5t-14.5 -43t-40.5 -15t-40.5 15t-14.5 43t14.5 43.5t40.5 15.5t40.5 -15.5z" />
    <glyph glyph-name="uniFD2A" unicode="&#xfd2a;" horiz-adv-x="1145" arabic-form="final" 
d="M1159.5 78q5.5 -12 5.5 -33t-5.5 -33t-15.5 -12q-102 0 -147 59q-17 -34 -47.5 -52.5t-70.5 -18.5q-76 0 -115 57q-22 -29 -54.5 -43t-79.5 -14q-80 0 -119.5 40.5t-49.5 134.5l-3 28l-151 -26v-2q11 -78 11 -148q0 -106 -53 -170t-151 -64q-42 0 -88 10l-1 82
q51 -12 89 -12q65 0 94.5 36.5t29.5 114.5q0 33 -2.5 63t-9.5 78l-13 87l316 50l12 -117q5 -52 25.5 -73.5t63.5 -21.5q44 0 64.5 17.5t30.5 64.5l13 73h83l-13 -73q-3 -20 -11 -46q33 -36 82 -36q61 0 89 49q-2 10 -4 26l-10 115h82l9 -105q3 -36 29 -54.5t70 -18.5
q10 0 15.5 -12z" />
    <glyph glyph-name="uniFD2B" unicode="&#xfd2b;" horiz-adv-x="1178" arabic-form="final" 
d="M1196.5 78q5.5 -12 5.5 -33t-5.5 -33t-15.5 -12q-89 0 -136 52q-77 -52 -245 -52h-170q-80 0 -119.5 38t-49.5 125l-3 28l-151 -26v-2q11 -78 11 -148q0 -106 -53 -170t-151 -64q-42 0 -88 10l-1 82q51 -12 89 -12q65 0 94.5 36.5t29.5 114.5q0 33 -2.5 63t-9.5 78
l-13 87l316 50l12 -117q6 -55 37 -72q96 148 178.5 215t170.5 67q51 0 93.5 -28t67 -75t24.5 -101q0 -43 -18 -76q33 -13 87 -13q10 0 15.5 -12zM1032 169q0 32 -16.5 60.5t-44.5 46t-61 17.5q-64 0 -126 -48.5t-134 -154.5h150q232 0 232 79z" />
    <glyph glyph-name="uniFD2C" unicode="&#xfd2c;" horiz-adv-x="1178" arabic-form="final" 
d="M1196.5 78q5.5 -12 5.5 -33t-5.5 -33t-15.5 -12q-89 0 -136 52q-77 -52 -245 -52h-170q-80 0 -119.5 38t-49.5 125l-3 28l-151 -26v-2q11 -78 11 -148q0 -106 -53 -170t-151 -64q-42 0 -88 10l-1 82q51 -12 89 -12q65 0 94.5 36.5t29.5 114.5q0 33 -2.5 63t-9.5 78
l-13 87l316 50l12 -117q6 -55 37 -72q96 148 178.5 215t170.5 67q51 0 93.5 -28t67 -75t24.5 -101q0 -43 -18 -76q33 -13 87 -13q10 0 15.5 -12zM1032 169q0 32 -16.5 60.5t-44.5 46t-61 17.5q-64 0 -126 -48.5t-134 -154.5h150q232 0 232 79zM952.5 568.5
q14.5 -15.5 14.5 -43.5t-14.5 -43t-40.5 -15t-40.5 15t-14.5 43t14.5 43.5t40.5 15.5t40.5 -15.5z" />
    <glyph glyph-name="uniFE82" unicode="&#x622;" horiz-adv-x="274" arabic-form="final" 
d="M116 48q-46 48 -46 159v435h85l-1 -425q0 -69 26.5 -98t88.5 -29h5q10 0 15 -12t5 -33t-5 -33t-15 -12h-5q-107 0 -153 48zM222 718q-11 -3 -27 -3q-33 0 -83 10q-8 1 -26.5 4t-31.5 3q-18 0 -28.5 -9t-10.5 -24h-55q0 43 24 69t65 26q31 0 76 -9q46 -8 70 -8q26 0 50 11
v-59q-12 -8 -23 -11z" />
    <glyph glyph-name="uniFE84" unicode="&#x623;" horiz-adv-x="274" arabic-form="final" 
d="M116 48q-46 48 -46 159v435h85l-1 -425q0 -69 26.5 -98t88.5 -29h5q10 0 15 -12t5 -33t-5 -33t-15 -12h-5q-107 0 -153 48zM210 754v-62h-195l10 62h27q-13 21 -13 45q0 38 30.5 64t75.5 26q28 0 54 -10v-62q-28 10 -59 10q-46 0 -46 -37q0 -10 5.5 -19.5t15.5 -16.5h95z
" />
    <glyph glyph-name="uniFE86" unicode="&#x624;" horiz-adv-x="447" arabic-form="final" 
d="M462 78q5 -12 5 -33t-5 -33t-15 -12h-54q-13 -106 -81.5 -162.5t-175.5 -56.5q-49 0 -106 12l-1 92q59 -14 103 -14q77 0 122.5 32.5t56.5 96.5h-73q-99 0 -150.5 41.5t-51.5 120.5q0 55 25.5 106t66 83t84.5 32q51 0 90.5 -37.5t63.5 -104t29 -151.5h52q10 0 15 -12z
M313 90q-6 90 -34.5 146.5t-69.5 56.5q-23 0 -44.5 -17.5t-35 -45.5t-13.5 -58q0 -40 31 -61t90 -21h76zM291 525v-62h-195l10 62h27q-13 21 -13 45q0 38 30.5 64t75.5 26q28 0 54 -10v-62q-28 10 -59 10q-46 0 -46 -37q0 -10 5.5 -19.5t15.5 -16.5h95z" />
    <glyph glyph-name="uniFE88" unicode="&#x625;" horiz-adv-x="274" arabic-form="final" 
d="M180.5 113.5q26.5 -23.5 88.5 -23.5h5q10 0 15 -12t5 -33t-5 -33t-15 -12h-5q-106 0 -152.5 44.5t-46.5 147.5v579h85l-1 -579q0 -55 26.5 -78.5zM240 -165v-62h-195l10 62h27q-13 21 -13 45q0 38 30.5 64t75.5 26q28 0 54 -10v-62q-28 10 -59 10q-46 0 -46 -37
q0 -10 5.5 -19.5t15.5 -16.5h95z" />
    <glyph glyph-name="uniFE8A" unicode="&#x626;" horiz-adv-x="728" arabic-form="final" 
d="M748 45q0 -21 -5 -33t-15 -12h-8q-32 0 -69 11q35 -32 35 -64q0 -45 -43.5 -83.5t-118.5 -60.5t-165 -22q-152 0 -230.5 59t-78.5 173q0 55 23 133h80q-23 -72 -23 -127q0 -73 58.5 -110.5t170.5 -37.5q104 0 174.5 21t70.5 56q0 42 -120 74l-26 7v90l26 -5
q49 -9 123 -16.5t103 -7.5h18q20 0 20 -45zM252 340v-62h-195l10 62h27q-13 21 -13 45q0 38 30.5 64t75.5 26q28 0 54 -10v-62q-28 10 -59 10q-46 0 -46 -37q0 -10 5.5 -19.5t15.5 -16.5h95z" />
    <glyph glyph-name="uniFE8B" unicode="&#x626;" horiz-adv-x="262" arabic-form="initial" 
d="M-20 45q0 45 20 45h30q102 0 102 64q0 61 -28 184h85q23 -110 23 -198q0 -64 -49.5 -102t-132.5 -38h-30q-20 0 -20 45zM234 480v-62h-195l10 62h27q-13 21 -13 45q0 38 30.5 64t75.5 26q28 0 54 -10v-62q-28 10 -59 10q-46 0 -46 -37q0 -10 5.5 -19.5t15.5 -16.5h95z
" />
    <glyph glyph-name="uniFE8C" unicode="&#x626;" horiz-adv-x="320" arabic-form="medial" 
d="M334.5 78q5.5 -12 5.5 -33t-5.5 -33t-15.5 -12q-115 0 -161 66q-22 -31 -63 -48.5t-94 -17.5q-10 0 -15.5 12t-5.5 33t5.5 33t15.5 12q45 0 79.5 10.5t52.5 28.5q-2 8 -4 24l-10 115h82l9 -105q8 -73 109 -73q10 0 15.5 -12zM251 410v-62h-195l10 62h27q-13 21 -13 45
q0 38 30.5 64t75.5 26q28 0 54 -10v-62q-28 10 -59 10q-46 0 -46 -37q0 -10 5.5 -19.5t15.5 -16.5h95z" />
    <glyph glyph-name="uniFE8E" unicode="&#x627;" horiz-adv-x="274" arabic-form="final" 
d="M180.5 113.5q26.5 -23.5 88.5 -23.5h5q10 0 15 -12t5 -33t-5 -33t-15 -12h-5q-106 0 -152.5 44.5t-46.5 147.5v579h85l-1 -579q0 -55 26.5 -78.5z" />
    <glyph glyph-name="uniFE90" unicode="&#x628;" horiz-adv-x="861" arabic-form="final" 
d="M875.5 78q5.5 -12 5.5 -33t-5.5 -33t-15.5 -12q-128 0 -160 102q-131 -114 -346 -114q-155 0 -229.5 52.5t-74.5 155.5q0 53 16 107h80q-14 -51 -14 -92q0 -66 54 -99.5t168 -33.5q133 0 232 47t157 138l51 -40q-19 -36 -41 -64q16 -69 107 -69q10 0 15.5 -12z
M461.5 -131.5q14.5 -15.5 14.5 -43.5t-14.5 -43t-40.5 -15t-40.5 15t-14.5 43t14.5 43.5t40.5 15.5t40.5 -15.5z" />
    <glyph glyph-name="uniFE91" unicode="&#x628;" horiz-adv-x="262" arabic-form="initial" 
d="M-20 45q0 45 20 45h30q102 0 102 64q0 61 -28 184h85q23 -110 23 -198q0 -64 -49.5 -102t-132.5 -38h-30q-20 0 -20 45zM154.5 -131.5q14.5 -15.5 14.5 -43.5t-14.5 -43t-40.5 -15t-40.5 15t-14.5 43t14.5 43.5t40.5 15.5t40.5 -15.5z" />
    <glyph glyph-name="uniFE92" unicode="&#x628;" horiz-adv-x="320" arabic-form="medial" 
d="M334.5 78q5.5 -12 5.5 -33t-5.5 -33t-15.5 -12q-115 0 -161 66q-22 -31 -63 -48.5t-94 -17.5q-10 0 -15.5 12t-5.5 33t5.5 33t15.5 12q45 0 79.5 10.5t52.5 28.5q-2 8 -4 24l-10 115h82l9 -105q8 -73 109 -73q10 0 15.5 -12zM201.5 -131.5q14.5 -15.5 14.5 -43.5
t-14.5 -43t-40.5 -15t-40.5 15t-14.5 43t14.5 43.5t40.5 15.5t40.5 -15.5z" />
    <glyph glyph-name="uniFE94" unicode="&#x629;" horiz-adv-x="499" arabic-form="final" 
d="M514 78q5 -12 5 -33t-5 -33t-15 -12h-5q-68 0 -111 16t-64 52q-50 -25 -125 -25q-73 0 -119.5 37t-46.5 97q0 51 41 99.5t133 108.5l93 60v59h85l-1 -312q0 -57 26 -79.5t89 -22.5h5q10 0 15 -12zM296 148q-1 10 -1 34v179l-68 -43q-61 -38 -87.5 -65t-26.5 -56t26 -46.5
t72 -17.5q49 0 85 15zM218.5 678.5q14.5 -15.5 14.5 -43.5t-14.5 -43t-40.5 -15t-40.5 15t-14.5 43t14.5 43.5t40.5 15.5t40.5 -15.5zM358.5 678.5q14.5 -15.5 14.5 -43.5t-14.5 -43t-40.5 -15t-40.5 15t-14.5 43t14.5 43.5t40.5 15.5t40.5 -15.5z" />
    <glyph glyph-name="uniFE96" unicode="&#x62a;" horiz-adv-x="861" arabic-form="final" 
d="M875.5 78q5.5 -12 5.5 -33t-5.5 -33t-15.5 -12q-128 0 -160 102q-131 -114 -346 -114q-155 0 -229.5 52.5t-74.5 155.5q0 53 16 107h80q-14 -51 -14 -92q0 -66 54 -99.5t168 -33.5q133 0 232 47t157 138l51 -40q-19 -36 -41 -64q16 -69 107 -69q10 0 15.5 -12z
M391.5 487.5q14.5 -15.5 14.5 -43.5t-14.5 -43t-40.5 -15t-40.5 15t-14.5 43t14.5 43.5t40.5 15.5t40.5 -15.5zM531.5 487.5q14.5 -15.5 14.5 -43.5t-14.5 -43t-40.5 -15t-40.5 15t-14.5 43t14.5 43.5t40.5 15.5t40.5 -15.5z" />
    <glyph glyph-name="uniFE97" unicode="&#x62a;" horiz-adv-x="262" arabic-form="initial" 
d="M-20 45q0 45 20 45h30q102 0 102 64q0 61 -28 184h85q23 -110 23 -198q0 -64 -49.5 -102t-132.5 -38h-30q-20 0 -20 45zM107.5 522.5q14.5 -15.5 14.5 -43.5t-14.5 -43t-40.5 -15t-40.5 15t-14.5 43t14.5 43.5t40.5 15.5t40.5 -15.5zM247.5 522.5q14.5 -15.5 14.5 -43.5
t-14.5 -43t-40.5 -15t-40.5 15t-14.5 43t14.5 43.5t40.5 15.5t40.5 -15.5z" />
    <glyph glyph-name="uniFE98" unicode="&#x62a;" horiz-adv-x="320" arabic-form="medial" 
d="M334.5 78q5.5 -12 5.5 -33t-5.5 -33t-15.5 -12q-115 0 -161 66q-22 -31 -63 -48.5t-94 -17.5q-10 0 -15.5 12t-5.5 33t5.5 33t15.5 12q45 0 79.5 10.5t52.5 28.5q-2 8 -4 24l-10 115h82l9 -105q8 -73 109 -73q10 0 15.5 -12zM124.5 452.5q14.5 -15.5 14.5 -43.5
t-14.5 -43t-40.5 -15t-40.5 15t-14.5 43t14.5 43.5t40.5 15.5t40.5 -15.5zM264.5 452.5q14.5 -15.5 14.5 -43.5t-14.5 -43t-40.5 -15t-40.5 15t-14.5 43t14.5 43.5t40.5 15.5t40.5 -15.5z" />
    <glyph glyph-name="uniFE9A" unicode="&#x62b;" horiz-adv-x="861" arabic-form="final" 
d="M875.5 78q5.5 -12 5.5 -33t-5.5 -33t-15.5 -12q-128 0 -160 102q-131 -114 -346 -114q-155 0 -229.5 52.5t-74.5 155.5q0 53 16 107h80q-14 -51 -14 -92q0 -66 54 -99.5t168 -33.5q133 0 232 47t157 138l51 -40q-19 -36 -41 -64q16 -69 107 -69q10 0 15.5 -12z
M461.5 617.5q14.5 -15.5 14.5 -43.5t-14.5 -43t-40.5 -15t-40.5 15t-14.5 43t14.5 43.5t40.5 15.5t40.5 -15.5zM391.5 487.5q14.5 -15.5 14.5 -43.5t-14.5 -43t-40.5 -15t-40.5 15t-14.5 43t14.5 43.5t40.5 15.5t40.5 -15.5zM531.5 487.5q14.5 -15.5 14.5 -43.5t-14.5 -43
t-40.5 -15t-40.5 15t-14.5 43t14.5 43.5t40.5 15.5t40.5 -15.5z" />
    <glyph glyph-name="uniFE9B" unicode="&#x62b;" horiz-adv-x="262" arabic-form="initial" 
d="M-20 45q0 45 20 45h30q102 0 102 64q0 61 -28 184h85q23 -110 23 -198q0 -64 -49.5 -102t-132.5 -38h-30q-20 0 -20 45zM177.5 652.5q14.5 -15.5 14.5 -43.5t-14.5 -43t-40.5 -15t-40.5 15t-14.5 43t14.5 43.5t40.5 15.5t40.5 -15.5zM107.5 522.5q14.5 -15.5 14.5 -43.5
t-14.5 -43t-40.5 -15t-40.5 15t-14.5 43t14.5 43.5t40.5 15.5t40.5 -15.5zM247.5 522.5q14.5 -15.5 14.5 -43.5t-14.5 -43t-40.5 -15t-40.5 15t-14.5 43t14.5 43.5t40.5 15.5t40.5 -15.5z" />
    <glyph glyph-name="uniFE9C" unicode="&#x62b;" horiz-adv-x="320" arabic-form="medial" 
d="M334.5 78q5.5 -12 5.5 -33t-5.5 -33t-15.5 -12q-115 0 -161 66q-22 -31 -63 -48.5t-94 -17.5q-10 0 -15.5 12t-5.5 33t5.5 33t15.5 12q45 0 79.5 10.5t52.5 28.5q-2 8 -4 24l-10 115h82l9 -105q8 -73 109 -73q10 0 15.5 -12zM194.5 582.5q14.5 -15.5 14.5 -43.5
t-14.5 -43t-40.5 -15t-40.5 15t-14.5 43t14.5 43.5t40.5 15.5t40.5 -15.5zM124.5 452.5q14.5 -15.5 14.5 -43.5t-14.5 -43t-40.5 -15t-40.5 15t-14.5 43t14.5 43.5t40.5 15.5t40.5 -15.5zM264.5 452.5q14.5 -15.5 14.5 -43.5t-14.5 -43t-40.5 -15t-40.5 15t-14.5 43
t14.5 43.5t40.5 15.5t40.5 -15.5z" />
    <glyph glyph-name="uniFE9E" unicode="&#x62c;" horiz-adv-x="600" arabic-form="final" 
d="M614.5 78q5.5 -12 5.5 -33t-5.5 -33t-15.5 -12q-93 0 -139.5 39t-53.5 124q-90 -8 -163 -42.5t-114.5 -87.5t-41.5 -114q0 -69 63 -110t168 -41q64 0 128 13.5t107 35.5v-92q-48 -21 -112 -34t-123 -13q-93 0 -163.5 30t-109 84.5t-38.5 126.5q0 78 48 145.5t132.5 113
t190.5 59.5q-31 15 -64 33q-55 30 -90 44t-73 14q-21 0 -39.5 -3.5t-46.5 -12.5v88q46 18 86 18q51 0 97.5 -21t112.5 -62q67 -41 110.5 -60.5t90.5 -19.5v-90h-81q7 -41 33.5 -58t84.5 -17q10 0 15.5 -12zM339.5 -12.5q14.5 -15.5 14.5 -43.5t-14.5 -43t-40.5 -15t-40.5 15
t-14.5 43t14.5 43.5t40.5 15.5t40.5 -15.5z" />
    <glyph glyph-name="uniFE9F" unicode="&#x62c;" horiz-adv-x="600" arabic-form="initial" 
d="M248.5 364.5q46.5 -18.5 112.5 -54.5q67 -36 110.5 -53t90.5 -17v-90h-13q-54 0 -106 -17.5t-132 -52.5q-91 -40 -154.5 -60t-133.5 -20h-23q-10 0 -15 12t-5 33t5 33t15 12h23q59 0 120.5 18t145.5 51q8 3 50 19t75 24q-40 14 -100 42q-56 26 -90.5 37.5t-72.5 11.5
q-21 0 -39.5 -3.5t-46.5 -12.5v88q46 18 86 18q51 0 97.5 -18.5zM330.5 -71.5q14.5 -15.5 14.5 -43.5t-14.5 -43t-40.5 -15t-40.5 15t-14.5 43t14.5 43.5t40.5 15.5t40.5 -15.5z" />
    <glyph glyph-name="uniFEA0" unicode="&#x62c;" horiz-adv-x="600" arabic-form="medial" 
d="M614.5 78q5.5 -12 5.5 -33t-5.5 -33t-15.5 -12q-82 0 -125 31.5t-56 101.5q-35 -13 -107 -47q-89 -42 -153 -64t-135 -22h-23q-10 0 -15 12t-5 33t5 33t15 12h23q58 0 117.5 19t146.5 55q34 14 67.5 27t58.5 20q-45 15 -99 38q-57 23 -91.5 33.5t-71.5 10.5
q-21 0 -39.5 -3.5t-46.5 -12.5v88q46 18 86 18q51 0 98 -17.5t112 -50.5q66 -33 110 -49t91 -16v-90h-13q-29 0 -58 -6q7 -34 32.5 -49t75.5 -15q10 0 15.5 -12zM330.5 -71.5q14.5 -15.5 14.5 -43.5t-14.5 -43t-40.5 -15t-40.5 15t-14.5 43t14.5 43.5t40.5 15.5t40.5 -15.5z
" />
    <glyph glyph-name="uniFEA2" unicode="&#x62d;" horiz-adv-x="600" arabic-form="final" 
d="M614.5 78q5.5 -12 5.5 -33t-5.5 -33t-15.5 -12q-93 0 -139.5 39t-53.5 124q-90 -8 -163 -42.5t-114.5 -87.5t-41.5 -114q0 -69 63 -110t168 -41q64 0 128 13.5t107 35.5v-92q-48 -21 -112 -34t-123 -13q-93 0 -163.5 30t-109 84.5t-38.5 126.5q0 78 48 145.5t132.5 113
t190.5 59.5q-31 15 -64 33q-55 30 -90 44t-73 14q-21 0 -39.5 -3.5t-46.5 -12.5v88q46 18 86 18q51 0 97.5 -21t112.5 -62q67 -41 110.5 -60.5t90.5 -19.5v-90h-81q7 -41 33.5 -58t84.5 -17q10 0 15.5 -12z" />
    <glyph glyph-name="uniFEA3" unicode="&#x62d;" horiz-adv-x="600" arabic-form="initial" 
d="M248.5 364.5q46.5 -18.5 112.5 -54.5q67 -36 110.5 -53t90.5 -17v-90h-13q-54 0 -106 -17.5t-132 -52.5q-91 -40 -154.5 -60t-133.5 -20h-23q-10 0 -15 12t-5 33t5 33t15 12h23q59 0 120.5 18t145.5 51q8 3 50 19t75 24q-40 14 -100 42q-56 26 -90.5 37.5t-72.5 11.5
q-21 0 -39.5 -3.5t-46.5 -12.5v88q46 18 86 18q51 0 97.5 -18.5z" />
    <glyph glyph-name="uniFEA4" unicode="&#x62d;" horiz-adv-x="600" arabic-form="medial" 
d="M614.5 78q5.5 -12 5.5 -33t-5.5 -33t-15.5 -12q-82 0 -125 31.5t-56 101.5q-35 -13 -107 -47q-89 -42 -153 -64t-135 -22h-23q-10 0 -15 12t-5 33t5 33t15 12h23q58 0 117.5 19t146.5 55q34 14 67.5 27t58.5 20q-45 15 -99 38q-57 23 -91.5 33.5t-71.5 10.5
q-21 0 -39.5 -3.5t-46.5 -12.5v88q46 18 86 18q51 0 98 -17.5t112 -50.5q66 -33 110 -49t91 -16v-90h-13q-29 0 -58 -6q7 -34 32.5 -49t75.5 -15q10 0 15.5 -12z" />
    <glyph glyph-name="uniFEA6" unicode="&#x62e;" horiz-adv-x="600" arabic-form="final" 
d="M614.5 78q5.5 -12 5.5 -33t-5.5 -33t-15.5 -12q-93 0 -139.5 39t-53.5 124q-90 -8 -163 -42.5t-114.5 -87.5t-41.5 -114q0 -69 63 -110t168 -41q64 0 128 13.5t107 35.5v-92q-48 -21 -112 -34t-123 -13q-93 0 -163.5 30t-109 84.5t-38.5 126.5q0 78 48 145.5t132.5 113
t190.5 59.5q-31 15 -64 33q-55 30 -90 44t-73 14q-21 0 -39.5 -3.5t-46.5 -12.5v88q46 18 86 18q51 0 97.5 -21t112.5 -62q67 -41 110.5 -60.5t90.5 -19.5v-90h-81q7 -41 33.5 -58t84.5 -17q10 0 15.5 -12zM332.5 602.5q14.5 -15.5 14.5 -43.5t-14.5 -43t-40.5 -15t-40.5 15
t-14.5 43t14.5 43.5t40.5 15.5t40.5 -15.5z" />
    <glyph glyph-name="uniFEA7" unicode="&#x62e;" horiz-adv-x="600" arabic-form="initial" 
d="M248.5 364.5q46.5 -18.5 112.5 -54.5q67 -36 110.5 -53t90.5 -17v-90h-13q-54 0 -106 -17.5t-132 -52.5q-91 -40 -154.5 -60t-133.5 -20h-23q-10 0 -15 12t-5 33t5 33t15 12h23q59 0 120.5 18t145.5 51q8 3 50 19t75 24q-40 14 -100 42q-56 26 -90.5 37.5t-72.5 11.5
q-21 0 -39.5 -3.5t-46.5 -12.5v88q46 18 86 18q51 0 97.5 -18.5zM330.5 582.5q14.5 -15.5 14.5 -43.5t-14.5 -43t-40.5 -15t-40.5 15t-14.5 43t14.5 43.5t40.5 15.5t40.5 -15.5z" />
    <glyph glyph-name="uniFEA8" unicode="&#x62e;" horiz-adv-x="600" arabic-form="medial" 
d="M614.5 78q5.5 -12 5.5 -33t-5.5 -33t-15.5 -12q-82 0 -125 31.5t-56 101.5q-35 -13 -107 -47q-89 -42 -153 -64t-135 -22h-23q-10 0 -15 12t-5 33t5 33t15 12h23q58 0 117.5 19t146.5 55q34 14 67.5 27t58.5 20q-45 15 -99 38q-57 23 -91.5 33.5t-71.5 10.5
q-21 0 -39.5 -3.5t-46.5 -12.5v88q46 18 86 18q51 0 98 -17.5t112 -50.5q66 -33 110 -49t91 -16v-90h-13q-29 0 -58 -6q7 -34 32.5 -49t75.5 -15q10 0 15.5 -12zM330.5 582.5q14.5 -15.5 14.5 -43.5t-14.5 -43t-40.5 -15t-40.5 15t-14.5 43t14.5 43.5t40.5 15.5t40.5 -15.5z
" />
    <glyph glyph-name="uniFEAA" unicode="&#x62f;" horiz-adv-x="500" arabic-form="final" 
d="M514.5 78q5.5 -12 5.5 -33t-5.5 -33t-15.5 -12h-14q-78 0 -120 41q-36 -25 -88 -39t-109 -14q-75 0 -131 22v92q59 -24 136 -24q92 0 148 28q-8 16 -14 34l-99 278h94l90 -255q14 -42 36 -57.5t57 -15.5h14q10 0 15.5 -12z" />
    <glyph glyph-name="uniFEAC" unicode="&#x630;" horiz-adv-x="500" arabic-form="final" 
d="M514.5 78q5.5 -12 5.5 -33t-5.5 -33t-15.5 -12h-14q-78 0 -120 41q-36 -25 -88 -39t-109 -14q-75 0 -131 22v92q59 -24 136 -24q92 0 148 28q-8 16 -14 34l-99 278h94l90 -255q14 -42 36 -57.5t57 -15.5h14q10 0 15.5 -12zM290.5 627.5q14.5 -15.5 14.5 -43.5t-14.5 -43
t-40.5 -15t-40.5 15t-14.5 43t14.5 43.5t40.5 15.5t40.5 -15.5z" />
    <glyph glyph-name="uniFEAE" unicode="&#x631;" horiz-adv-x="412" arabic-form="final" 
d="M426.5 78q5.5 -12 5.5 -33t-5.5 -33t-15.5 -12q-66 0 -100 37v-12q0 -73 -24 -128.5t-69 -85.5t-104 -30q-42 0 -88 10l-1 92q51 -12 89 -12q65 0 94.5 36t29.5 115q0 43 -12 131l-15 115h82l10 -75q7 -58 31.5 -80.5t76.5 -22.5q10 0 15.5 -12z" />
    <glyph glyph-name="uniFEB0" unicode="&#x632;" horiz-adv-x="412" arabic-form="final" 
d="M426.5 78q5.5 -12 5.5 -33t-5.5 -33t-15.5 -12q-66 0 -100 37v-12q0 -73 -24 -128.5t-69 -85.5t-104 -30q-42 0 -88 10l-1 92q51 -12 89 -12q65 0 94.5 36t29.5 115q0 43 -12 131l-15 115h82l10 -75q7 -58 31.5 -80.5t76.5 -22.5q10 0 15.5 -12zM281.5 462.5
q14.5 -15.5 14.5 -43.5t-14.5 -43t-40.5 -15t-40.5 15t-14.5 43t14.5 43.5t40.5 15.5t40.5 -15.5z" />
    <glyph glyph-name="uniFEB2" unicode="&#x633;" horiz-adv-x="1235" arabic-form="final" 
d="M1249.5 78q5.5 -12 5.5 -33t-5.5 -33t-15.5 -12q-102 0 -147 59q-17 -34 -47.5 -52.5t-70.5 -18.5q-74 0 -115 56q-43 -56 -134 -56q-62 0 -96 31v-21q0 -65 -35 -114t-99.5 -76t-150.5 -27q-129 0 -204 60.5t-75 171.5q0 55 23 133h80q-23 -72 -23 -127
q0 -73 53.5 -110.5t145.5 -37.5q95 0 151.5 34.5t56.5 92.5q0 59 -21 200h85l7 -46q5 -37 29.5 -55.5t72.5 -18.5q44 0 65.5 18t29.5 64l13 73h83l-13 -73q-5 -30 -11 -46q35 -36 82 -36q61 0 89 49q-2 10 -4 26l-10 115h82l9 -105q3 -36 29 -54.5t70 -18.5q10 0 15.5 -12z
" />
    <glyph glyph-name="uniFEB3" unicode="&#x633;" horiz-adv-x="765" arabic-form="initial" 
d="M694.5 226q6.5 -58 6.5 -101q0 -62 -43 -99.5t-114 -37.5q-77 0 -129 50q-43 -50 -127 -50q-41 0 -80.5 17t-67.5 47q-39 -52 -121 -52h-19q-10 0 -15 12t-5 33t5 33t15 12h21q33 0 50.5 15.5t24.5 54.5l7 38h86l-7 -38q-5 -27 -10 -41q23 -19 53.5 -30t62.5 -11
q43 0 63.5 18t28.5 64l13 73h83l-13 -73q-4 -23 -11 -48q43 -34 92 -34q38 0 57.5 16t19.5 47q0 32 -7.5 85.5t-20.5 111.5h85q10 -54 16.5 -112z" />
    <glyph glyph-name="uniFEB4" unicode="&#x633;" horiz-adv-x="800" arabic-form="medial" 
d="M814.5 78q5.5 -12 5.5 -33t-5.5 -33t-15.5 -12q-102 0 -147 59q-17 -34 -47.5 -52.5t-70.5 -18.5q-74 0 -115 56q-43 -56 -131 -56q-41 0 -80.5 17t-67.5 47q-39 -52 -121 -52h-19q-10 0 -15 12t-5 33t5 33t15 12h21q33 0 50.5 15.5t24.5 54.5l7 38h86l-7 -38
q-5 -27 -10 -41q23 -19 53.5 -30t62.5 -11q43 0 63.5 18t28.5 64l13 73h83l-13 -73q-5 -30 -11 -46q35 -36 82 -36q61 0 89 49q-2 10 -4 26l-10 115h82l9 -105q3 -36 29 -54.5t70 -18.5q10 0 15.5 -12z" />
    <glyph glyph-name="uniFEB6" unicode="&#x634;" horiz-adv-x="1235" arabic-form="final" 
d="M1249.5 78q5.5 -12 5.5 -33t-5.5 -33t-15.5 -12q-102 0 -147 59q-17 -34 -47.5 -52.5t-70.5 -18.5q-74 0 -115 56q-43 -56 -134 -56q-62 0 -96 31v-21q0 -65 -35 -114t-99.5 -76t-150.5 -27q-129 0 -204 60.5t-75 171.5q0 55 23 133h80q-23 -72 -23 -127
q0 -73 53.5 -110.5t145.5 -37.5q95 0 151.5 34.5t56.5 92.5q0 59 -21 200h85l7 -46q5 -37 29.5 -55.5t72.5 -18.5q44 0 65.5 18t29.5 64l13 73h83l-13 -73q-5 -30 -11 -46q35 -36 82 -36q61 0 89 49q-2 10 -4 26l-10 115h82l9 -105q3 -36 29 -54.5t70 -18.5q10 0 15.5 -12z
M907.5 582.5q14.5 -15.5 14.5 -43.5t-14.5 -43t-40.5 -15t-40.5 15t-14.5 43t14.5 43.5t40.5 15.5t40.5 -15.5zM837.5 452.5q14.5 -15.5 14.5 -43.5t-14.5 -43t-40.5 -15t-40.5 15t-14.5 43t14.5 43.5t40.5 15.5t40.5 -15.5zM977.5 452.5q14.5 -15.5 14.5 -43.5t-14.5 -43
t-40.5 -15t-40.5 15t-14.5 43t14.5 43.5t40.5 15.5t40.5 -15.5z" />
    <glyph glyph-name="uniFEB7" unicode="&#x634;" horiz-adv-x="765" arabic-form="initial" 
d="M694.5 226q6.5 -58 6.5 -101q0 -62 -43 -99.5t-114 -37.5q-77 0 -129 50q-43 -50 -127 -50q-41 0 -80.5 17t-67.5 47q-39 -52 -121 -52h-19q-10 0 -15 12t-5 33t5 33t15 12h21q33 0 50.5 15.5t24.5 54.5l7 38h86l-7 -38q-5 -27 -10 -41q23 -19 53.5 -30t62.5 -11
q43 0 63.5 18t28.5 64l13 73h83l-13 -73q-4 -23 -11 -48q43 -34 92 -34q38 0 57.5 16t19.5 47q0 32 -7.5 85.5t-20.5 111.5h85q10 -54 16.5 -112zM462.5 582.5q14.5 -15.5 14.5 -43.5t-14.5 -43t-40.5 -15t-40.5 15t-14.5 43t14.5 43.5t40.5 15.5t40.5 -15.5zM392.5 452.5
q14.5 -15.5 14.5 -43.5t-14.5 -43t-40.5 -15t-40.5 15t-14.5 43t14.5 43.5t40.5 15.5t40.5 -15.5zM532.5 452.5q14.5 -15.5 14.5 -43.5t-14.5 -43t-40.5 -15t-40.5 15t-14.5 43t14.5 43.5t40.5 15.5t40.5 -15.5z" />
    <glyph glyph-name="uniFEB8" unicode="&#x634;" horiz-adv-x="800" arabic-form="medial" 
d="M814.5 78q5.5 -12 5.5 -33t-5.5 -33t-15.5 -12q-102 0 -147 59q-17 -34 -47.5 -52.5t-70.5 -18.5q-74 0 -115 56q-43 -56 -131 -56q-41 0 -80.5 17t-67.5 47q-39 -52 -121 -52h-19q-10 0 -15 12t-5 33t5 33t15 12h21q33 0 50.5 15.5t24.5 54.5l7 38h86l-7 -38
q-5 -27 -10 -41q23 -19 53.5 -30t62.5 -11q43 0 63.5 18t28.5 64l13 73h83l-13 -73q-5 -30 -11 -46q35 -36 82 -36q61 0 89 49q-2 10 -4 26l-10 115h82l9 -105q3 -36 29 -54.5t70 -18.5q10 0 15.5 -12zM472.5 582.5q14.5 -15.5 14.5 -43.5t-14.5 -43t-40.5 -15t-40.5 15
t-14.5 43t14.5 43.5t40.5 15.5t40.5 -15.5zM402.5 452.5q14.5 -15.5 14.5 -43.5t-14.5 -43t-40.5 -15t-40.5 15t-14.5 43t14.5 43.5t40.5 15.5t40.5 -15.5zM542.5 452.5q14.5 -15.5 14.5 -43.5t-14.5 -43t-40.5 -15t-40.5 15t-14.5 43t14.5 43.5t40.5 15.5t40.5 -15.5z" />
    <glyph glyph-name="uniFEBA" unicode="&#x635;" horiz-adv-x="1268" arabic-form="final" 
d="M1282.5 78q5.5 -12 5.5 -33t-5.5 -33t-15.5 -12q-86 0 -131 47q-78 -57 -247 -57q-105 0 -169 14.5t-96 45.5v-52q0 -65 -35 -114t-99.5 -76t-150.5 -27q-129 0 -204 60.5t-75 171.5q0 55 23 133h80q-23 -72 -23 -127q0 -73 53.5 -110.5t145.5 -37.5q95 0 151.5 34.5
t56.5 92.5q0 59 -21 200h85l3 -16q9 -45 57 -70q94 142 175 206.5t167 64.5q51 0 93.5 -28t67 -75t24.5 -101q0 -44 -16 -76q32 -13 85 -13q10 0 15.5 -12zM1118 169q0 32 -16.5 60.5t-44.5 46t-61 17.5q-64 0 -125.5 -48t-133.5 -154q63 -11 152 -11q229 0 229 89z" />
    <glyph glyph-name="uniFEBB" unicode="&#x635;" horiz-adv-x="823" arabic-form="initial" 
d="M684.5 355q42.5 -28 67 -75t24.5 -101q0 -179 -312 -179h-101q-150 0 -215 64q-20 -33 -51.5 -48.5t-77.5 -15.5h-19q-10 0 -15 12t-5 33t5 33t15 12h21q33 0 50.5 15.5t24.5 54.5l7 38h86l-7 -38l-4 -19q28 -25 66 -36q95 146 177.5 212t169.5 66q51 0 93.5 -28z
M696 169q0 32 -16.5 60.5t-44.5 46t-61 17.5q-64 0 -125.5 -48t-132.5 -153q28 -2 47 -2h101q232 0 232 79z" />
    <glyph glyph-name="uniFEBC" unicode="&#x635;" horiz-adv-x="843" arabic-form="medial" 
d="M861.5 78q5.5 -12 5.5 -33t-5.5 -33t-15.5 -12q-89 0 -136 52q-77 -52 -246 -52h-101q-150 0 -215 64q-20 -33 -51.5 -48.5t-77.5 -15.5h-19q-10 0 -15 12t-5 33t5 33t15 12h21q33 0 50.5 15.5t24.5 54.5l7 38h86l-7 -38l-4 -19q28 -25 66 -36q95 146 177.5 212t169.5 66
q51 0 93.5 -28t67 -75t24.5 -101q0 -43 -18 -75q32 -14 88 -14q10 0 15.5 -12zM696 169q0 32 -16.5 60.5t-44.5 46t-61 17.5q-64 0 -125.5 -48t-132.5 -153q28 -2 47 -2h101q232 0 232 79z" />
    <glyph glyph-name="uniFEBE" unicode="&#x636;" horiz-adv-x="1268" arabic-form="final" 
d="M1282.5 78q5.5 -12 5.5 -33t-5.5 -33t-15.5 -12q-86 0 -131 47q-78 -57 -247 -57q-105 0 -169 14.5t-96 45.5v-52q0 -65 -35 -114t-99.5 -76t-150.5 -27q-129 0 -204 60.5t-75 171.5q0 55 23 133h80q-23 -72 -23 -127q0 -73 53.5 -110.5t145.5 -37.5q95 0 151.5 34.5
t56.5 92.5q0 59 -21 200h85l3 -16q9 -45 57 -70q94 142 175 206.5t167 64.5q51 0 93.5 -28t67 -75t24.5 -101q0 -44 -16 -76q32 -13 85 -13q10 0 15.5 -12zM1118 169q0 32 -16.5 60.5t-44.5 46t-61 17.5q-64 0 -125.5 -48t-133.5 -154q63 -11 152 -11q229 0 229 89z
M1039.5 567.5q14.5 -15.5 14.5 -43.5t-14.5 -43t-40.5 -15t-40.5 15t-14.5 43t14.5 43.5t40.5 15.5t40.5 -15.5z" />
    <glyph glyph-name="uniFEBF" unicode="&#x636;" horiz-adv-x="823" arabic-form="initial" 
d="M684.5 355q42.5 -28 67 -75t24.5 -101q0 -179 -312 -179h-101q-150 0 -215 64q-20 -33 -51.5 -48.5t-77.5 -15.5h-19q-10 0 -15 12t-5 33t5 33t15 12h21q33 0 50.5 15.5t24.5 54.5l7 38h86l-7 -38l-4 -19q28 -25 66 -36q95 146 177.5 212t169.5 66q51 0 93.5 -28z
M696 169q0 32 -16.5 60.5t-44.5 46t-61 17.5q-64 0 -125.5 -48t-132.5 -153q28 -2 47 -2h101q232 0 232 79zM620.5 567.5q14.5 -15.5 14.5 -43.5t-14.5 -43t-40.5 -15t-40.5 15t-14.5 43t14.5 43.5t40.5 15.5t40.5 -15.5z" />
    <glyph glyph-name="uniFEC0" unicode="&#x636;" horiz-adv-x="843" arabic-form="medial" 
d="M861.5 78q5.5 -12 5.5 -33t-5.5 -33t-15.5 -12q-89 0 -136 52q-77 -52 -246 -52h-101q-150 0 -215 64q-20 -33 -51.5 -48.5t-77.5 -15.5h-19q-10 0 -15 12t-5 33t5 33t15 12h21q33 0 50.5 15.5t24.5 54.5l7 38h86l-7 -38l-4 -19q28 -25 66 -36q95 146 177.5 212t169.5 66
q51 0 93.5 -28t67 -75t24.5 -101q0 -43 -18 -75q32 -14 88 -14q10 0 15.5 -12zM696 169q0 32 -16.5 60.5t-44.5 46t-61 17.5q-64 0 -125.5 -48t-132.5 -153q28 -2 47 -2h101q232 0 232 79zM620.5 567.5q14.5 -15.5 14.5 -43.5t-14.5 -43t-40.5 -15t-40.5 15t-14.5 43
t14.5 43.5t40.5 15.5t40.5 -15.5z" />
    <glyph glyph-name="uniFEC2" unicode="&#x637;" horiz-adv-x="755" arabic-form="final" 
d="M769.5 78q5.5 -12 5.5 -33t-5.5 -33t-15.5 -12q-86 0 -131 47q-73 -47 -247 -47h-250h-126l30 90h96v680h85v-568q71 98 134 139.5t133 41.5q57 0 104.5 -27.5t75 -74t27.5 -102.5q0 -44 -15 -77q33 -12 84 -12q10 0 15.5 -12zM552 107.5q53 17.5 53 61.5q0 33 -18 61.5
t-49 45.5t-67 17q-62 0 -121 -46t-134 -157h160q123 0 176 17.5z" />
    <glyph glyph-name="uniFEC3" unicode="&#x637;" horiz-adv-x="735" arabic-form="initial" 
d="M582.5 355.5q47.5 -27.5 75 -74t27.5 -102.5q0 -66 -33 -105t-100.5 -56.5t-175.5 -17.5h-250h-126q-9 0 -14.5 13.5t-5.5 31.5q0 21 5 33t15 12h88h38v680h85v-568q71 98 134 139.5t133 41.5q57 0 104.5 -27.5zM552 107.5q53 17.5 53 61.5q0 33 -18 61.5t-49 45.5
t-67 17q-62 0 -121 -46t-134 -157h160q123 0 176 17.5z" />
    <glyph glyph-name="uniFEC4" unicode="&#x637;" horiz-adv-x="755" arabic-form="medial" 
d="M769.5 78q5.5 -12 5.5 -33t-5.5 -33t-15.5 -12q-86 0 -131 47q-73 -47 -247 -47h-250h-126q-9 0 -14.5 13.5t-5.5 31.5q0 21 5 33t15 12h88h38v680h85v-568q71 98 134 139.5t133 41.5q57 0 104.5 -27.5t75 -74t27.5 -102.5q0 -44 -15 -77q33 -12 84 -12q10 0 15.5 -12z
M552 107.5q53 17.5 53 61.5q0 33 -18 61.5t-49 45.5t-67 17q-62 0 -121 -46t-134 -157h160q123 0 176 17.5z" />
    <glyph glyph-name="uniFEC6" unicode="&#x638;" horiz-adv-x="755" arabic-form="final" 
d="M769.5 78q5.5 -12 5.5 -33t-5.5 -33t-15.5 -12q-86 0 -131 47q-73 -47 -247 -47h-250h-126l30 90h96v680h85v-568q71 98 134 139.5t133 41.5q57 0 104.5 -27.5t75 -74t27.5 -102.5q0 -44 -15 -77q33 -12 84 -12q10 0 15.5 -12zM552 107.5q53 17.5 53 61.5q0 33 -18 61.5
t-49 45.5t-67 17q-62 0 -121 -46t-134 -157h160q123 0 176 17.5zM504.5 567.5q14.5 -15.5 14.5 -43.5t-14.5 -43t-40.5 -15t-40.5 15t-14.5 43t14.5 43.5t40.5 15.5t40.5 -15.5z" />
    <glyph glyph-name="uniFEC7" unicode="&#x638;" horiz-adv-x="735" arabic-form="initial" 
d="M582.5 355.5q47.5 -27.5 75 -74t27.5 -102.5q0 -66 -33 -105t-100.5 -56.5t-175.5 -17.5h-250h-126q-9 0 -14.5 13.5t-5.5 31.5q0 21 5 33t15 12h88h38v680h85v-568q71 98 134 139.5t133 41.5q57 0 104.5 -27.5zM552 107.5q53 17.5 53 61.5q0 33 -18 61.5t-49 45.5
t-67 17q-62 0 -121 -46t-134 -157h160q123 0 176 17.5zM504.5 567.5q14.5 -15.5 14.5 -43.5t-14.5 -43t-40.5 -15t-40.5 15t-14.5 43t14.5 43.5t40.5 15.5t40.5 -15.5z" />
    <glyph glyph-name="uniFEC8" unicode="&#x638;" horiz-adv-x="755" arabic-form="medial" 
d="M769.5 78q5.5 -12 5.5 -33t-5.5 -33t-15.5 -12q-86 0 -131 47q-73 -47 -247 -47h-250h-126q-9 0 -14.5 13.5t-5.5 31.5q0 21 5 33t15 12h88h38v680h85v-568q71 98 134 139.5t133 41.5q57 0 104.5 -27.5t75 -74t27.5 -102.5q0 -44 -15 -77q33 -12 84 -12q10 0 15.5 -12z
M552 107.5q53 17.5 53 61.5q0 33 -18 61.5t-49 45.5t-67 17q-62 0 -121 -46t-134 -157h160q123 0 176 17.5zM504.5 567.5q14.5 -15.5 14.5 -43.5t-14.5 -43t-40.5 -15t-40.5 15t-14.5 43t14.5 43.5t40.5 15.5t40.5 -15.5z" />
    <glyph glyph-name="uniFECA" unicode="&#x639;" horiz-adv-x="562" arabic-form="final" 
d="M577 78q5 -12 5 -33t-5 -33t-15 -12h-15q-150 0 -258 58l-29 -15q-87 -47 -125 -87t-38 -89q0 -47 49 -73t132 -26q65 0 123.5 13t101.5 36v-92q-47 -23 -105.5 -35t-119.5 -12q-78 0 -137 22.5t-91.5 64t-32.5 95.5q0 65 51.5 123.5t156.5 116.5q-76 59 -136 162
q-27 -6 -57 -15v90q151 46 282 46q128 0 200 -36v-90q-29 -49 -59 -82.5t-73 -62.5q74 -22 165 -22h15q10 0 15 -12zM306 146q53 31 85.5 61t56.5 69q-63 17 -134 17t-144 -14q58 -88 136 -133z" />
    <glyph glyph-name="uniFECB" unicode="&#x639;" horiz-adv-x="511" arabic-form="initial" 
d="M451 162v-90q-119 -38 -225.5 -55t-225.5 -17q-10 0 -15 12t-5 33t5 33t15 12q54 0 121 5q-25 32 -39 70t-14 77q0 63 25.5 110.5t73 74t109.5 26.5q72 0 133 -33v-92q-60 35 -133 35q-58 0 -93 -33.5t-35 -87.5q0 -40 20 -76t55 -59q105 18 228 55z" />
    <glyph glyph-name="uniFECC" unicode="&#x639;" horiz-adv-x="552" arabic-form="medial" 
d="M567 78q5 -12 5 -33t-5 -33t-15 -12h-15q-138 0 -245 51q-112 -51 -274 -51h-18q-11 0 -15.5 8t-4.5 37q0 45 20 45h18q102 0 184 21q-68 57 -123 151q-27 -6 -57 -15v90q151 46 282 46q128 0 200 -36v-90q-48 -91 -119 -148q64 -19 152 -19h15q10 0 15 -12zM296 146
q93 48 137 131q-56 16 -129 16q-71 0 -144 -14q58 -88 136 -133z" />
    <glyph glyph-name="uniFECE" unicode="&#x63a;" horiz-adv-x="562" arabic-form="final" 
d="M577 78q5 -12 5 -33t-5 -33t-15 -12h-15q-150 0 -258 58l-29 -15q-87 -47 -125 -87t-38 -89q0 -47 49 -73t132 -26q65 0 123.5 13t101.5 36v-92q-47 -23 -105.5 -35t-119.5 -12q-78 0 -137 22.5t-91.5 64t-32.5 95.5q0 65 51.5 123.5t156.5 116.5q-76 59 -136 162
q-27 -6 -57 -15v90q151 46 282 46q128 0 200 -36v-90q-29 -49 -59 -82.5t-73 -62.5q74 -22 165 -22h15q10 0 15 -12zM306 146q53 31 85.5 61t56.5 69q-63 17 -134 17t-144 -14q58 -88 136 -133zM341.5 587.5q14.5 -15.5 14.5 -43.5t-14.5 -43t-40.5 -15t-40.5 15t-14.5 43
t14.5 43.5t40.5 15.5t40.5 -15.5z" />
    <glyph glyph-name="uniFECF" unicode="&#x63a;" horiz-adv-x="511" arabic-form="initial" 
d="M451 162v-90q-119 -38 -225.5 -55t-225.5 -17q-10 0 -15 12t-5 33t5 33t15 12q54 0 121 5q-25 32 -39 70t-14 77q0 63 25.5 110.5t73 74t109.5 26.5q72 0 133 -33v-92q-60 35 -133 35q-58 0 -93 -33.5t-35 -87.5q0 -40 20 -76t55 -59q105 18 228 55zM316.5 647.5
q14.5 -15.5 14.5 -43.5t-14.5 -43t-40.5 -15t-40.5 15t-14.5 43t14.5 43.5t40.5 15.5t40.5 -15.5z" />
    <glyph glyph-name="uniFED0" unicode="&#x63a;" horiz-adv-x="552" arabic-form="medial" 
d="M567 78q5 -12 5 -33t-5 -33t-15 -12h-15q-138 0 -245 51q-112 -51 -274 -51h-18q-11 0 -15.5 8t-4.5 37q0 45 20 45h18q102 0 184 21q-68 57 -123 151q-27 -6 -57 -15v90q151 46 282 46q128 0 200 -36v-90q-48 -91 -119 -148q64 -19 152 -19h15q10 0 15 -12zM296 146
q93 48 137 131q-56 16 -129 16q-71 0 -144 -14q58 -88 136 -133zM326.5 587.5q14.5 -15.5 14.5 -43.5t-14.5 -43t-40.5 -15t-40.5 15t-14.5 43t14.5 43.5t40.5 15.5t40.5 -15.5z" />
    <glyph glyph-name="uniFED2" unicode="&#x641;" horiz-adv-x="863" arabic-form="final" 
d="M878 78q5 -12 5 -33t-5 -33t-15 -12h-12q-108 0 -205 38q-123 -50 -286 -50q-310 0 -310 208q0 57 16 117h80q-14 -58 -14 -102q0 -133 228 -133q102 0 183 14q-44 32 -68 69.5t-24 76.5q0 55 26 104.5t69.5 80t92.5 30.5q50 0 91.5 -29.5t65.5 -79t24 -106.5
q0 -79 -72 -141q54 -7 100 -7h15q10 0 15 -12zM562 173.5q31 -30.5 85 -50.5q93 40 93 115q0 33 -14 62t-37 46t-50 17q-46 0 -77 -37t-31 -88q0 -34 31 -64.5zM683.5 626.5q14.5 -15.5 14.5 -43.5t-14.5 -43t-40.5 -15t-40.5 15t-14.5 43t14.5 43.5t40.5 15.5t40.5 -15.5z
" />
    <glyph glyph-name="uniFED3" unicode="&#x641;" horiz-adv-x="470" arabic-form="initial" 
d="M335.5 495q41.5 -44 64.5 -125.5t23 -188.5q0 -96 -62.5 -138.5t-202.5 -42.5h-158q-10 0 -15 12t-5 33t5 33t15 12h158q70 0 108.5 7t55.5 24t20 49q-43 -9 -87 -9q-88 0 -140 39t-52 113q0 56 25.5 108.5t66 85t84.5 32.5q55 0 96.5 -44zM339 259q-9 88 -36.5 139
t-66.5 51q-23 0 -44.5 -19.5t-35 -51t-13.5 -65.5q0 -32 30.5 -47t80.5 -15q42 0 85 8zM276.5 690.5q14.5 -15.5 14.5 -43.5t-14.5 -43t-40.5 -15t-40.5 15t-14.5 43t14.5 43.5t40.5 15.5t40.5 -15.5z" />
    <glyph glyph-name="uniFED4" unicode="&#x641;" horiz-adv-x="452" arabic-form="medial" 
d="M467 78q5 -12 5 -33t-5 -33t-15 -12h-12q-114 0 -214 39q-97 -39 -208 -39h-18q-10 0 -15 12t-5 33t5 33t15 12h18q59 0 104 7q-39 30 -60.5 66t-21.5 75q0 55 26 104.5t69.5 80t92.5 30.5q50 0 91.5 -29.5t65.5 -79t24 -106.5q0 -39 -21 -75t-59 -66q46 -7 108 -7h15
q10 0 15 -12zM147 171.5q27 -29.5 78 -49.5q50 20 77 49.5t27 66.5q0 33 -14 62t-37 46t-50 17q-46 0 -77 -37t-31 -88q0 -37 27 -66.5zM272.5 626.5q14.5 -15.5 14.5 -43.5t-14.5 -43t-40.5 -15t-40.5 15t-14.5 43t14.5 43.5t40.5 15.5t40.5 -15.5z" />
    <glyph glyph-name="uniFED6" unicode="&#x642;" horiz-adv-x="726" arabic-form="final" 
d="M741 78q5 -12 5 -33t-5 -33t-15 -12h-51q-7 -104 -90 -161.5t-219 -57.5q-141 0 -223.5 60.5t-82.5 171.5q0 63 23 153h80q-23 -83 -23 -147q0 -72 61 -110t165 -38q106 0 163 31.5t66 97.5h-87q-88 0 -140 39t-52 113q0 56 25.5 108.5t66 85t84.5 32.5q74 0 122 -77.5
t59 -210.5h53q10 0 15 -12zM593 90q-8 92 -36 145t-68 53q-23 0 -44.5 -19.5t-35 -51t-13.5 -65.5q0 -32 30.5 -47t80.5 -15h86zM457.5 539.5q14.5 -15.5 14.5 -43.5t-14.5 -43t-40.5 -15t-40.5 15t-14.5 43t14.5 43.5t40.5 15.5t40.5 -15.5zM597.5 539.5
q14.5 -15.5 14.5 -43.5t-14.5 -43t-40.5 -15t-40.5 15t-14.5 43t14.5 43.5t40.5 15.5t40.5 -15.5z" />
    <glyph glyph-name="uniFED7" unicode="&#x642;" horiz-adv-x="470" arabic-form="initial" 
d="M335.5 495q41.5 -44 64.5 -125.5t23 -188.5q0 -96 -62.5 -138.5t-202.5 -42.5h-158q-10 0 -15 12t-5 33t5 33t15 12h158q70 0 108.5 7t55.5 24t20 49q-43 -9 -87 -9q-88 0 -140 39t-52 113q0 56 25.5 108.5t66 85t84.5 32.5q55 0 96.5 -44zM339 259q-9 88 -36.5 139
t-66.5 51q-23 0 -44.5 -19.5t-35 -51t-13.5 -65.5q0 -32 30.5 -47t80.5 -15q42 0 85 8zM206.5 680.5q14.5 -15.5 14.5 -43.5t-14.5 -43t-40.5 -15t-40.5 15t-14.5 43t14.5 43.5t40.5 15.5t40.5 -15.5zM346.5 680.5q14.5 -15.5 14.5 -43.5t-14.5 -43t-40.5 -15t-40.5 15
t-14.5 43t14.5 43.5t40.5 15.5t40.5 -15.5z" />
    <glyph glyph-name="uniFED8" unicode="&#x642;" horiz-adv-x="452" arabic-form="medial" 
d="M467 78q5 -12 5 -33t-5 -33t-15 -12h-12q-114 0 -214 39q-97 -39 -208 -39h-18q-10 0 -15 12t-5 33t5 33t15 12h18q59 0 104 7q-39 30 -60.5 66t-21.5 75q0 55 26 104.5t69.5 80t92.5 30.5q50 0 91.5 -29.5t65.5 -79t24 -106.5q0 -39 -21 -75t-59 -66q46 -7 108 -7h15
q10 0 15 -12zM147 171.5q27 -29.5 78 -49.5q50 20 77 49.5t27 66.5q0 33 -14 62t-37 46t-50 17q-46 0 -77 -37t-31 -88q0 -37 27 -66.5zM202.5 616.5q14.5 -15.5 14.5 -43.5t-14.5 -43t-40.5 -15t-40.5 15t-14.5 43t14.5 43.5t40.5 15.5t40.5 -15.5zM342.5 616.5
q14.5 -15.5 14.5 -43.5t-14.5 -43t-40.5 -15t-40.5 15t-14.5 43t14.5 43.5t40.5 15.5t40.5 -15.5z" />
    <glyph glyph-name="uniFEDA" unicode="&#x643;" horiz-adv-x="827" arabic-form="final" 
d="M842 78q5 -12 5 -33t-5 -33t-15 -12q-124 0 -168 78q-134 -90 -319 -90q-290 0 -290 208q0 57 16 117h80q-14 -58 -14 -102q0 -133 208 -133q173 0 298 78q-1 7 -1 21v593h85l-1 -573q0 -56 24.5 -81.5t81.5 -25.5q10 0 15 -12zM448 314.5q-47 -24.5 -155 -37.5v67
q53 3 97 13.5t44 19.5q0 3 -8 4.5t-19 2.5q-41 5 -65 15.5t-24 42.5q0 25 22 52.5t56.5 48.5t70.5 27v-67q-26 -4 -57 -21.5t-31 -27.5q0 -3 7 -4.5t17 -2.5q41 -6 66.5 -18.5t25.5 -48.5q0 -41 -47 -65.5z" />
    <glyph glyph-name="uniFEDB" unicode="&#x643;" horiz-adv-x="460" arabic-form="initial" 
d="M440 647l-316 -182l86 -81q70 -66 105.5 -105.5t49.5 -69t14 -61.5q0 -66 -48.5 -107t-128.5 -41h-202q-10 0 -15 12t-5 33q0 45 20 45h202q47 0 72 15t25 42t-24.5 57.5t-100.5 98.5l-131 120v88l398 235z" />
    <glyph glyph-name="uniFEDC" unicode="&#x643;" horiz-adv-x="490" arabic-form="medial" 
d="M495 78q5 -12 5 -33t-5 -33t-15 -12h-34q-52 0 -93.5 22.5t-81.5 72.5q-47 -95 -183 -95h-87q-10 0 -15.5 12t-5.5 33t5.5 33t15.5 12h87q100 0 146 56l-191 277v88l398 235l-1 -99l-324 -186l185 -269q38 -55 74 -78.5t79 -23.5h26q10 0 15 -12z" />
    <glyph glyph-name="uniFEDE" unicode="&#x644;" horiz-adv-x="708" arabic-form="final" 
d="M723 78q5 -12 5 -33t-5 -33t-15 -12h-18q-62 0 -102 31q-7 -119 -78 -184.5t-190 -65.5q-118 0 -189 60.5t-71 171.5q0 55 23 133h80q-23 -72 -23 -127q0 -72 49 -110t131 -38q88 0 136 46.5t48 140.5v712h85l-1 -563q0 -63 26.5 -90t88.5 -27h5q10 0 15 -12z" />
    <glyph glyph-name="uniFEDF" unicode="&#x644;" horiz-adv-x="249" arabic-form="initial" 
d="M147.5 45q-45.5 -45 -127.5 -45h-20q-10 0 -15 12t-5 33t5 33t15 12h20q51 0 70 17t19 65v598h85l-1 -596q0 -84 -45.5 -129z" />
    <glyph glyph-name="uniFEE0" unicode="&#x644;" horiz-adv-x="299" arabic-form="medial" 
d="M314 78q5 -12 5 -33t-5 -33t-15 -12q-111 0 -157 61q-50 -61 -142 -61q-10 0 -15.5 12t-5.5 33t5.5 33t15.5 12q73 0 114 36q-5 25 -5 51v593h85l-1 -573q0 -56 24.5 -81.5t81.5 -25.5q10 0 15 -12z" />
    <glyph glyph-name="uniFEE2" unicode="&#x645;" horiz-adv-x="717" arabic-form="final" 
d="M737 45q0 -45 -18 -45h-8q-96 0 -130 104q-11 -55 -51.5 -85.5t-94.5 -30.5q-86 0 -151 50q-41 -86 -85.5 -130t-121.5 -71l-32 -11l-30 79l27 12q61 27 97 60.5t61 79t64 135.5l10 24q38 91 76 129t95 38q46 0 76.5 -23.5t48.5 -57.5t38 -87q16 -43 28.5 -67.5t30.5 -41
t44 -16.5h8q18 0 18 -45zM500.5 101q25.5 23 25.5 69q0 51 -24 87t-58 36q-30 0 -51 -21.5t-42 -73.5l-10 -24l-23 -58q50 -38 113 -38q44 0 69.5 23z" />
    <glyph glyph-name="uniFEE3" unicode="&#x645;" horiz-adv-x="505" arabic-form="initial" 
d="M369.5 355.5q37.5 -27.5 59 -74.5t21.5 -104q0 -90 -47 -139.5t-126 -49.5q-93 0 -163 59q-22 -25 -47.5 -36t-61.5 -11h-7q-18 0 -18 45t18 45h7q35 0 55.5 21.5t45.5 80.5l10 24q38 91 76 129t95 38q45 0 82.5 -27.5zM342.5 101q25.5 23 25.5 69q0 51 -24 87t-58 36
q-30 0 -51 -21.5t-42 -73.5l-10 -24l-25 -57q51 -39 115 -39q44 0 69.5 23z" />
    <glyph glyph-name="uniFEE4" unicode="&#x645;" horiz-adv-x="579" arabic-form="medial" 
d="M599 45q0 -45 -18 -45h-8q-60 0 -96 25.5t-54 79.5q-11 -55 -51.5 -86t-94.5 -31q-93 0 -163 59q-22 -25 -47.5 -36t-61.5 -11h-7q-18 0 -18 45t18 45h7q35 0 55.5 21.5t45.5 80.5l10 24q38 91 76 129t95 38q43 0 71.5 -21t45 -51t36.5 -81q18 -47 32.5 -74.5t39 -46.5
t61.5 -19h8q18 0 18 -45zM342.5 101q25.5 23 25.5 69q0 51 -24 87t-58 36q-30 0 -51 -21.5t-42 -73.5l-10 -24l-25 -57q51 -39 115 -39q44 0 69.5 23z" />
    <glyph glyph-name="uniFEE6" unicode="&#x646;" horiz-adv-x="721" arabic-form="final" 
d="M735.5 78q5.5 -12 5.5 -33t-5.5 -33t-15.5 -12q-71 0 -107 37q1 -9 1 -29q0 -68 -34 -119.5t-96 -79.5t-145 -28q-129 0 -204 60.5t-75 171.5q0 55 23 133h80q-23 -72 -23 -127q0 -73 53.5 -110.5t145.5 -37.5q95 0 151.5 34.5t56.5 92.5q0 36 -2 66.5t-11 88.5l-17 115
h85l14 -105q5 -37 29.5 -55t74.5 -18q10 0 15.5 -12zM376.5 392.5q14.5 -15.5 14.5 -43.5t-14.5 -43t-40.5 -15t-40.5 15t-14.5 43t14.5 43.5t40.5 15.5t40.5 -15.5z" />
    <glyph glyph-name="uniFEE7" unicode="&#x646;" horiz-adv-x="262" arabic-form="initial" 
d="M-20 45q0 45 20 45h30q102 0 102 64q0 61 -28 184h85q23 -110 23 -198q0 -64 -49.5 -102t-132.5 -38h-30q-20 0 -20 45zM177.5 532.5q14.5 -15.5 14.5 -43.5t-14.5 -43t-40.5 -15t-40.5 15t-14.5 43t14.5 43.5t40.5 15.5t40.5 -15.5z" />
    <glyph glyph-name="uniFEE8" unicode="&#x646;" horiz-adv-x="320" arabic-form="medial" 
d="M334.5 78q5.5 -12 5.5 -33t-5.5 -33t-15.5 -12q-115 0 -161 66q-22 -31 -63 -48.5t-94 -17.5q-10 0 -15.5 12t-5.5 33t5.5 33t15.5 12q45 0 79.5 10.5t52.5 28.5q-2 8 -4 24l-10 115h82l9 -105q8 -73 109 -73q10 0 15.5 -12zM194.5 462.5q14.5 -15.5 14.5 -43.5
t-14.5 -43t-40.5 -15t-40.5 15t-14.5 43t14.5 43.5t40.5 15.5t40.5 -15.5z" />
    <glyph glyph-name="uniFEEA" unicode="&#x647;" horiz-adv-x="499" arabic-form="final" 
d="M514 78q5 -12 5 -33t-5 -33t-15 -12h-5q-68 0 -111 16t-64 52q-50 -25 -125 -25q-73 0 -119.5 37t-46.5 97q0 51 41 99.5t133 108.5l93 60v59h85l-1 -312q0 -57 26 -79.5t89 -22.5h5q10 0 15 -12zM296 148q-1 10 -1 34v179l-68 -43q-61 -38 -87.5 -65t-26.5 -56t26 -46.5
t72 -17.5q49 0 85 15z" />
    <glyph glyph-name="uniFEEB" unicode="&#x647;" horiz-adv-x="600" arabic-form="initial" 
d="M449 296q56 -42 80.5 -81t24.5 -84q0 -65 -47.5 -104t-127.5 -39q-92 0 -171 38q-61 -26 -130 -26h-78q-10 0 -15 12t-5 33t5 33t15 12h78q23 0 34 1q-33 32 -51 70t-18 76q1 47 27 87.5t68 61.5l-51 29l43 75l162 -94q101 -58 157 -100zM149 170.5q22 -31.5 61 -54.5
q74 38 74 126q0 40 -21.5 66t-53.5 26q-35 0 -58.5 -28t-23.5 -69q0 -35 22 -66.5zM448 88q26 16 26 42q0 29 -24.5 56.5t-85.5 67.5v-12q0 -46 -18.5 -87t-51.5 -73q45 -10 85 -10q43 0 69 16z" />
    <glyph glyph-name="uniFEEC" unicode="&#x647;" horiz-adv-x="469" arabic-form="medial" 
d="M484 78q5 -12 5 -33t-5 -33t-15 -12h-93q33 -16 51 -43.5t18 -62.5q0 -56 -40.5 -89.5t-107.5 -33.5q-99 0 -161 62t-68 167h-68q-10 0 -15 12t-5 33t5 33t15 12h70q9 84 36 150.5t69 104.5t93 38q58 0 96 -47.5t38 -124.5q0 -40 -16 -70.5t-46 -50.5h129q10 0 15 -12z
M190.5 236q-29.5 -57 -37.5 -148q22 -2 32 -2q68 0 101.5 32t33.5 81q0 42 -17 68t-42 26q-41 0 -70.5 -57zM348 -126q17 13 17 39q0 20 -15 42t-49 37t-88 15q-24 0 -62 -5q6 -65 46.5 -103t104.5 -38q29 0 46 13z" />
    <glyph glyph-name="uniFEEE" unicode="&#x648;" horiz-adv-x="447" arabic-form="final" 
d="M462 78q5 -12 5 -33t-5 -33t-15 -12h-54q-13 -106 -81.5 -162.5t-175.5 -56.5q-49 0 -106 12l-1 92q59 -14 103 -14q77 0 122.5 32.5t56.5 96.5h-73q-99 0 -150.5 41.5t-51.5 120.5q0 55 25.5 106t66 83t84.5 32q51 0 90.5 -37.5t63.5 -104t29 -151.5h52q10 0 15 -12z
M313 90q-6 90 -34.5 146.5t-69.5 56.5q-23 0 -44.5 -17.5t-35 -45.5t-13.5 -58q0 -40 31 -61t90 -21h76z" />
    <glyph glyph-name="uniFEF0" unicode="&#x649;" horiz-adv-x="728" arabic-form="final" 
d="M748 45q0 -21 -5 -33t-15 -12h-8q-32 0 -69 11q35 -32 35 -64q0 -45 -43.5 -83.5t-118.5 -60.5t-165 -22q-152 0 -230.5 59t-78.5 173q0 55 23 133h80q-23 -72 -23 -127q0 -73 58.5 -110.5t170.5 -37.5q104 0 174.5 21t70.5 56q0 42 -120 74l-26 7v90l26 -5
q49 -9 123 -16.5t103 -7.5h18q20 0 20 -45z" />
    <glyph glyph-name="uniFEF2" unicode="&#x64a;" horiz-adv-x="728" arabic-form="final" 
d="M748 45q0 -21 -5 -33t-15 -12h-8q-32 0 -69 11q35 -32 35 -64q0 -45 -43.5 -83.5t-118.5 -60.5t-165 -22q-152 0 -230.5 59t-78.5 173q0 55 23 133h80q-23 -72 -23 -127q0 -73 58.5 -110.5t170.5 -37.5q104 0 174.5 21t70.5 56q0 42 -120 74l-26 7v90l26 -5
q49 -9 123 -16.5t103 -7.5h18q20 0 20 -45zM321.5 -310.5q14.5 -15.5 14.5 -43.5t-14.5 -43t-40.5 -15t-40.5 15t-14.5 43t14.5 43.5t40.5 15.5t40.5 -15.5zM461.5 -310.5q14.5 -15.5 14.5 -43.5t-14.5 -43t-40.5 -15t-40.5 15t-14.5 43t14.5 43.5t40.5 15.5t40.5 -15.5z
" />
    <glyph glyph-name="uniFEF3" unicode="&#x64a;" horiz-adv-x="262" arabic-form="initial" 
d="M-20 45q0 45 20 45h30q102 0 102 64q0 61 -28 184h85q23 -110 23 -198q0 -64 -49.5 -102t-132.5 -38h-30q-20 0 -20 45zM84.5 -143.5q14.5 -15.5 14.5 -43.5t-14.5 -43t-40.5 -15t-40.5 15t-14.5 43t14.5 43.5t40.5 15.5t40.5 -15.5zM224.5 -143.5q14.5 -15.5 14.5 -43.5
t-14.5 -43t-40.5 -15t-40.5 15t-14.5 43t14.5 43.5t40.5 15.5t40.5 -15.5z" />
    <glyph glyph-name="uniFEF4" unicode="&#x64a;" horiz-adv-x="320" arabic-form="medial" 
d="M334.5 78q5.5 -12 5.5 -33t-5.5 -33t-15.5 -12q-115 0 -161 66q-22 -31 -63 -48.5t-94 -17.5q-10 0 -15.5 12t-5.5 33t5.5 33t15.5 12q45 0 79.5 10.5t52.5 28.5q-2 8 -4 24l-10 115h82l9 -105q8 -73 109 -73q10 0 15.5 -12zM131.5 -143.5q14.5 -15.5 14.5 -43.5
t-14.5 -43t-40.5 -15t-40.5 15t-14.5 43t14.5 43.5t40.5 15.5t40.5 -15.5zM271.5 -143.5q14.5 -15.5 14.5 -43.5t-14.5 -43t-40.5 -15t-40.5 15t-14.5 43t14.5 43.5t40.5 15.5t40.5 -15.5z" />
    <glyph glyph-name=".notdef" horiz-adv-x="692" 
d="M601 0h-86h-376h-49v724h86h425v-724zM515 644h-299l299 -493v493zM176 80h301l-301 497v-497z" />
    <glyph glyph-name=".null" 
 />
    <glyph glyph-name="nonmarkingreturn" unicode="&#xd;" 
 />
    <glyph glyph-name="space" unicode=" " horiz-adv-x="220" 
 />
    <glyph glyph-name="exclam" unicode="!" horiz-adv-x="353" 
d="M120 724h111l-17 -520h-77zM128.5 4.5q-17.5 17.5 -17.5 47.5q0 32 17.5 49t48.5 17t49 -17.5t18 -47.5q0 -31 -18 -48.5t-49 -17.5t-48.5 17.5z" />
    <glyph glyph-name="quotedbl" unicode="&#x22;" horiz-adv-x="381" 
d="M219 724h98l-19 -247h-60zM63 724h98l-19 -247h-60z" />
    <glyph glyph-name="numbersign" unicode="#" horiz-adv-x="672" 
d="M499 455l-31 -186h127v-71h-138l-32 -198h-80l32 198h-133l-32 -198h-80l32 198h-131v71h142l31 186h-131v71h142l32 198h80l-32 -198h133l32 198h80l-32 -198h129v-71h-140zM419 455h-133l-31 -186h133z" />
    <glyph glyph-name="dollar" unicode="$" horiz-adv-x="549" 
d="M447.5 73q-48.5 -53 -137.5 -64v-94h-73v92q-52 3 -102.5 17.5t-90.5 38.5l32 77q82 -45 162 -49v235l-19 5q-86 23 -126.5 68.5t-40.5 119.5q0 85 48.5 136.5t136.5 60.5v93h73v-93q83 -6 167 -40l-32 -78q-76 28 -136 34v-225l20 -6q86 -24 126.5 -69.5t40.5 -119.5
q0 -86 -48.5 -139zM167 466.5q21 -24.5 71 -39.5v205q-47 -6 -69.5 -30t-22.5 -68q0 -43 21 -67.5zM379.5 126.5q22.5 25.5 22.5 71.5q0 43 -21.5 68t-71.5 40v-213q48 8 70.5 33.5z" />
    <glyph glyph-name="percent" unicode="%" horiz-adv-x="933" 
d="M95 350.5q-39 55.5 -39 165.5t39 165.5t116 55.5t116 -55.5t39 -165.5t-39 -165.5t-116 -55.5t-116 55.5zM607 724h88l-368 -724h-88zM264 402q17 36 17 114t-17 114t-53 36t-53 -36t-17 -114t17 -114t53 -36t53 36zM607 42.5q-39 55.5 -39 165.5t39 165.5t116 55.5
t116 -55.5t39 -165.5t-39 -165.5t-116 -55.5t-116 55.5zM776 94q17 36 17 114t-17 114t-53 36t-53 -36t-17 -114t17 -114t53 -36t53 36z" />
    <glyph glyph-name="ampersand" unicode="&#x26;" horiz-adv-x="652" 
d="M553 -14l-84 97q-41 -49 -92 -72.5t-117 -23.5q-96 0 -149 46.5t-53 131.5q0 51 21.5 89.5t69.5 76.5l62 48l-31 35q-40 46 -56 81.5t-16 76.5q0 79 50 122t142 43q90 0 140 -41.5t50 -115.5q0 -49 -26.5 -89.5t-92.5 -93.5l-32 -25l120 -138l64 137h95l-85 -183l-12 -25
l101 -117zM284 436l37 29q45 35 60 56.5t15 49.5q0 81 -96 81q-95 0 -95 -79q0 -27 13 -51t49 -66zM411 149l-145 166l-43 -34q-35 -28 -49 -52t-14 -56q0 -98 108 -98q89 0 143 74z" />
    <glyph glyph-name="quotesingle" unicode="'" horiz-adv-x="224" 
d="M63 724h98l-19 -247h-60z" />
    <glyph glyph-name="parenleft" unicode="(" horiz-adv-x="331" 
d="M96 101.5q-40 117.5 -40 239.5q0 123 40 241t115 216l70 -52q-129 -173 -129 -404t129 -404l-70 -52q-75 98 -115 215.5z" />
    <glyph glyph-name="parenright" unicode=")" horiz-adv-x="331" 
d="M50 -62q129 173 129 404t-129 404l70 52q75 -98 115 -216t40 -241q0 -122 -40 -239.5t-115 -215.5z" />
    <glyph glyph-name="asterisk" unicode="*" horiz-adv-x="538" 
d="M322 496l101 -126l-67 -53l-87 136l-88 -136l-67 53l101 126l-155 42l27 82l149 -58l-10 162h85l-10 -162l149 58l27 -82z" />
    <glyph glyph-name="plus" unicode="+" horiz-adv-x="574" 
d="M523 324h-191v-208h-91v208h-190v89h190v208h91v-208h191v-89z" />
    <glyph glyph-name="comma" unicode="," horiz-adv-x="240" 
d="M7 -135q39 42 55.5 82.5t16.5 93.5q0 34 -5 67h101q5 -33 5 -65q0 -67 -31 -121t-98 -104z" />
    <glyph glyph-name="hyphen" unicode="-" horiz-adv-x="408" 
d="M50 338h308v-80h-308v80z" />
    <glyph glyph-name="period" unicode="." horiz-adv-x="254" 
d="M78.5 4.5q-17.5 17.5 -17.5 47.5q0 32 17.5 49t48.5 17t49 -17.5t18 -47.5q0 -31 -18 -48.5t-49 -17.5t-48.5 17.5z" />
    <glyph glyph-name="slash" unicode="/" horiz-adv-x="445" 
d="M344 742h83l-322 -828h-83z" />
    <glyph glyph-name="zero" unicode="0" horiz-adv-x="623" 
d="M127 78q-61 91 -61 284t61 284t185 91t185 -91t61 -284t-61 -284t-185 -91t-185 91zM422 144.5q35 69.5 35 217.5t-35 217.5t-110 69.5t-110 -69.5t-35 -217.5t35 -217.5t110 -69.5t110 69.5z" />
    <glyph glyph-name="one" unicode="1" horiz-adv-x="449" 
d="M322 724v-724h-98v619l-163 -56l-29 82l206 79h84z" />
    <glyph glyph-name="two" unicode="2" horiz-adv-x="532" 
d="M474 85v-85h-436v86l247 296q47 55 65.5 90t18.5 68q0 50 -32.5 78t-90.5 28q-42 0 -85.5 -14.5t-80.5 -40.5l-46 76q40 32 101 51t119 19q97 0 155.5 -52t58.5 -137q0 -50 -24.5 -100.5t-83.5 -119.5l-207 -243h321z" />
    <glyph glyph-name="three" unicode="3" horiz-adv-x="562" 
d="M438.5 376.5q54.5 -59.5 54.5 -153.5q0 -70 -30.5 -123.5t-86.5 -83t-129 -29.5q-56 0 -114 16.5t-99 43.5l38 83q43 -25 88.5 -38.5t86.5 -13.5q68 0 106.5 38.5t38.5 106.5q0 65 -37 101.5t-102 36.5q-36 0 -66 -9l-38 48l214 239h-315v85h423v-85l-179 -197
q92 -6 146.5 -65.5z" />
    <glyph glyph-name="four" unicode="4" horiz-adv-x="580" 
d="M532 237v-86h-91v-151h-95v151h-318v86l275 487h138v-487h91zM346 237v398l-215 -398h215z" />
    <glyph glyph-name="five" unicode="5" horiz-adv-x="553" 
d="M385 431.5q50 -28.5 77.5 -80.5t27.5 -121q0 -72 -31 -127t-87 -85.5t-130 -30.5q-54 0 -108.5 15.5t-91.5 40.5l38 82q39 -22 81.5 -34.5t80.5 -12.5q69 0 108 40t39 111q0 68 -36.5 105.5t-101.5 37.5q-31 0 -62.5 -9t-55.5 -25l-60 33l20 353h366v-85h-279l-15 -198
q48 19 104 19q66 0 116 -28.5z" />
    <glyph glyph-name="six" unicode="6" horiz-adv-x="566" 
d="M422 426.5q49 -28.5 76 -80t27 -120.5q0 -71 -29 -125t-82.5 -84t-124.5 -30t-125.5 31t-84 87t-29.5 129q0 76 30.5 147.5t102.5 163.5l152 192l79 -59l-154 -185l-43 -55q40 17 92 17q64 0 113 -28.5zM388.5 113q35.5 40 35.5 110q0 72 -37.5 113t-104.5 41
q-57 0 -108 -28q-25 -47 -25 -113q0 -77 37 -120t103 -43q64 0 99.5 40z" />
    <glyph glyph-name="seven" unicode="7" horiz-adv-x="494" 
d="M462 724v-85l-285 -649l-91 38l275 611h-344v85h445z" />
    <glyph glyph-name="eight" unicode="8" horiz-adv-x="586" 
d="M165 11.5q-55 24.5 -85 69t-30 103.5q0 62 41.5 114.5t110.5 78.5q-55 20 -89 68.5t-34 107.5q0 55 26.5 96.5t75 64.5t112.5 23t113 -23t75.5 -64.5t26.5 -96.5q0 -59 -34 -106.5t-90 -66.5q69 -20 111 -72.5t42 -118.5q0 -60 -30.5 -106t-85.5 -71t-128 -25t-128 24.5z
M379.5 466.5q29.5 34.5 29.5 77.5q0 51 -31 80t-86 29q-53 0 -84 -29t-31 -79q0 -43 32.5 -78t88.5 -53q52 18 81.5 52.5zM398.5 104q38.5 32 38.5 88q0 46 -39.5 86t-108.5 65q-66 -22 -103 -62t-37 -88q0 -57 38 -89t106 -32q67 0 105.5 32z" />
    <glyph glyph-name="nine" unicode="9" horiz-adv-x="566" 
d="M402.5 706q54.5 -31 84 -87t29.5 -129q0 -76 -30.5 -147.5t-102.5 -163.5l-152 -192l-79 59l154 185l43 55q-40 -17 -92 -17q-64 0 -113 28.5t-76 80t-27 120.5q0 71 29 125t82.5 84t124.5 30t125.5 -31zM179.5 388q37.5 -41 104.5 -41q57 0 108 28q25 47 25 113
q0 77 -37 120t-103 43q-64 0 -99.5 -40t-35.5 -110q0 -72 37.5 -113z" />
    <glyph glyph-name="colon" unicode=":" horiz-adv-x="294" 
d="M98.5 345.5q-17.5 17.5 -17.5 47.5q0 32 17.5 49t48.5 17t49 -17.5t18 -47.5q0 -31 -18 -48.5t-49 -17.5t-48.5 17.5zM98.5 4.5q-17.5 17.5 -17.5 47.5q0 32 17.5 49t48.5 17t49 -17.5t18 -47.5q0 -31 -18 -48.5t-49 -17.5t-48.5 17.5z" />
    <glyph glyph-name="semicolon" unicode=";" horiz-adv-x="294" 
d="M98.5 345.5q-17.5 17.5 -17.5 47.5q0 32 17.5 49t48.5 17t49 -17.5t18 -47.5q0 -31 -18 -48.5t-49 -17.5t-48.5 17.5zM32 -135q39 42 55.5 82.5t16.5 93.5q0 34 -5 67h101q5 -33 5 -65q0 -67 -31 -121t-98 -104z" />
    <glyph glyph-name="less" unicode="&#x3c;" horiz-adv-x="430" 
d="M47 365l266 299l71 -66l-211 -233l211 -233l-71 -66z" />
    <glyph glyph-name="equal" unicode="=" horiz-adv-x="574" 
d="M74 526h426v-90h-426v90zM74 294h426v-90h-426v90z" />
    <glyph glyph-name="greater" unicode="&#x3e;" horiz-adv-x="430" 
d="M46 132l211 233l-211 233l71 66l266 -299l-266 -299z" />
    <glyph glyph-name="question" unicode="?" horiz-adv-x="517" 
d="M180 261q0 57 22.5 95.5t84.5 87.5q40 32 54.5 54t14.5 52q0 46 -27.5 70t-80.5 24q-77 0 -159 -51l-40 82q44 30 96.5 46t107.5 16q98 0 152 -48t54 -134q0 -50 -22.5 -86t-79.5 -81q-50 -38 -67 -64.5t-17 -65.5q0 -19 3 -54h-93q-3 38 -3 57zM181.5 4.5
q-17.5 17.5 -17.5 47.5q0 32 17.5 49t48.5 17t49 -17.5t18 -47.5q0 -31 -18 -48.5t-49 -17.5t-48.5 17.5z" />
    <glyph glyph-name="at" unicode="@" horiz-adv-x="808" 
d="M537 511v-205q0 -60 50 -60q40 0 62 39t22 110q0 128 -68.5 200t-192.5 72t-193 -80.5t-69 -224.5q0 -145 71.5 -226t200.5 -81q85 0 151 37l30 -64q-35 -21 -82.5 -33t-98.5 -12q-106 0 -185.5 47t-123 133t-43.5 199t42.5 199t120 133t179.5 47q100 0 176 -43
t118 -121.5t42 -181.5q0 -96 -42 -154.5t-110 -58.5q-28 0 -50 10.5t-35 29.5q-17 -23 -42 -33.5t-58 -10.5q-70 0 -109.5 48.5t-39.5 135.5q0 88 43 136t120 48q65 0 114 -35zM467 472q-24 9 -47 9q-86 0 -86 -119t85 -119q25 0 48 13v216z" />
    <glyph glyph-name="A" unicode="A" horiz-adv-x="668" 
d="M477 182h-288l-59 -182h-105l254 724h109l254 -724h-106zM448 269l-116 355l-115 -355h231z" />
    <glyph glyph-name="B" unicode="B" horiz-adv-x="646" 
d="M598 209q0 -99 -59.5 -154t-166.5 -55h-229h-53v724h99h148q104 0 162 -53t58 -148q0 -109 -94 -141q135 -38 135 -173zM189 636v-222h148q58 0 88 27.5t30 80.5q0 56 -31 85t-92 29h-143zM465 118.5q30 30.5 30 89.5q0 120 -123 120h-183v-240h188q58 0 88 30.5z" />
    <glyph glyph-name="C" unicode="C" horiz-adv-x="601" 
d="M133.5 83q-85.5 95 -85.5 265q0 117 39.5 205t111.5 136t169 48q51 0 101 -13.5t90 -37.5l-35 -78q-81 39 -158 39q-101 0 -158 -76.5t-57 -214.5q0 -136 57.5 -206t170.5 -70q90 0 151 35l35 -77q-32 -24 -82.5 -37t-109.5 -13q-154 0 -239.5 95z" />
    <glyph glyph-name="D" unicode="D" horiz-adv-x="691" 
d="M548 632.5q85 -91.5 85 -270.5t-86 -270.5t-248 -91.5h-209v724h211q162 0 247 -91.5zM472 158q58 69 58 204q0 136 -58.5 204.5t-173.5 68.5h-109v-546h111q114 0 172 69z" />
    <glyph glyph-name="E" unicode="E" horiz-adv-x="576" 
d="M536 89v-89h-446v724h433v-89h-334v-220h248v-90h-248v-236h347z" />
    <glyph glyph-name="F" unicode="F" horiz-adv-x="538" 
d="M189 635v-235h266v-90h-266v-310h-99v724h426v-89h-327z" />
    <glyph glyph-name="G" unicode="G" horiz-adv-x="668" 
d="M598 392v-352q-38 -25 -93.5 -39t-116.5 -14q-103 0 -177.5 44.5t-113.5 128.5t-39 202t39 202t113.5 128.5t177.5 44.5q56 0 108 -13.5t89 -36.5l-30 -81q-89 42 -169 42q-112 0 -168.5 -72t-56.5 -214t57 -214t170 -72q60 0 111 16v212h-128v88h227z" />
    <glyph glyph-name="H" unicode="H" horiz-adv-x="702" 
d="M611 724v-724h-99v323h-323v-323h-99v724h99v-312h323v312h99z" />
    <glyph glyph-name="I" unicode="I" horiz-adv-x="283" 
d="M92 724h99v-724h-99v724z" />
    <glyph glyph-name="J" unicode="J" horiz-adv-x="460" 
d="M78 0q-43 13 -72 36l37 78q61 -37 124 -37q109 0 109 110v537h99v-541q0 -93 -54 -144.5t-151 -51.5q-49 0 -92 13z" />
    <glyph glyph-name="K" unicode="K" horiz-adv-x="624" 
d="M278 322l-89 -108v-214h-99v724h99v-383l302 383h119l-268 -325l283 -399h-119z" />
    <glyph glyph-name="L" unicode="L" horiz-adv-x="529" 
d="M501 90v-90h-411v724h99v-634h312z" />
    <glyph glyph-name="M" unicode="M" horiz-adv-x="848" 
d="M757 724v-724h-96v567l-186 -420h-104l-186 420v-567h-95v724h119l216 -484l212 484h120z" />
    <glyph glyph-name="N" unicode="N" horiz-adv-x="724" 
d="M633 724v-724h-94l-352 557v-557h-97v724h94l352 -555v555h97z" />
    <glyph glyph-name="O" unicode="O" horiz-adv-x="714" 
d="M135 82q-77 95 -77 280t77 280t222 95t222 -95t77 -280t-77 -280t-222 -95t-222 95zM503.5 148q49.5 72 49.5 214t-49.5 214t-146.5 72t-146.5 -72t-49.5 -214t49.5 -214t146.5 -72t146.5 72z" />
    <glyph glyph-name="P" unicode="P" horiz-adv-x="597" 
d="M516.5 661.5q60.5 -62.5 60.5 -174.5q0 -113 -62 -176t-174 -63h-152v-248h-99v724h99h157q110 0 170.5 -62.5zM442 374.5q32 37.5 32 111.5t-33.5 111.5t-99.5 37.5h-152v-298h157q64 0 96 37.5z" />
    <glyph glyph-name="Q" unicode="Q" horiz-adv-x="714" 
d="M602 -157l-137 160q-48 -16 -108 -16q-145 0 -222 95t-77 280t77 280t222 95t222 -95t77 -280q0 -226 -114 -317l126 -135zM210.5 148q49.5 -72 146.5 -72t146.5 72t49.5 214t-49.5 214t-146.5 72t-146.5 -72t-49.5 -214t49.5 -214z" />
    <glyph glyph-name="R" unicode="R" horiz-adv-x="633" 
d="M313 269h-124v-269h-99v724h99h148q109 0 169 -60t60 -167q0 -85 -38 -141t-110 -76l186 -280h-120zM189 356h148q126 0 126 140q0 69 -33 104.5t-97 35.5h-144v-280z" />
    <glyph glyph-name="S" unicode="S" horiz-adv-x="562" 
d="M145 4q-60 16 -106 45l34 81q94 -54 194 -54q72 0 110 29t38 83q0 45 -26.5 73.5t-81.5 43.5l-82 23q-93 25 -135.5 73t-42.5 127q0 97 62 152.5t171 55.5q53 0 109.5 -12t104.5 -34l-34 -82q-103 40 -182 40q-64 0 -98.5 -27.5t-34.5 -77.5q0 -45 26 -73t82 -43l82 -23
q92 -26 135 -74t43 -127q0 -100 -65.5 -157.5t-180.5 -57.5q-62 0 -122 16z" />
    <glyph glyph-name="T" unicode="T" horiz-adv-x="528" 
d="M502 634h-189v-634h-99v634h-188v90h287h189v-90z" />
    <glyph glyph-name="U" unicode="U" horiz-adv-x="686" 
d="M152.5 57q-67.5 70 -67.5 197v470h99v-466q0 -90 40 -136t118 -46q79 0 119 46t40 136v466h99v-470q0 -127 -68 -197t-190 -70t-189.5 70z" />
    <glyph glyph-name="V" unicode="V" horiz-adv-x="632" 
d="M602 724l-232 -724h-109l-232 724h106l182 -617l180 617h105z" />
    <glyph glyph-name="W" unicode="W" horiz-adv-x="896" 
d="M864 724l-181 -724h-109l-128 580l-126 -580h-109l-180 724h104l132 -609l127 608h107l130 -606l130 607h103z" />
    <glyph glyph-name="X" unicode="X" horiz-adv-x="608" 
d="M466 0l-164 286l-164 -286h-112l222 366l-215 358h115l158 -275l160 275h113l-219 -355l221 -369h-115z" />
    <glyph glyph-name="Y" unicode="Y" horiz-adv-x="588" 
d="M566 724l-224 -472v-252h-99v252l-222 472h108l165 -362l165 362h107z" />
    <glyph glyph-name="Z" unicode="Z" horiz-adv-x="553" 
d="M510 87v-87h-469v88l353 549h-340v87h451v-87l-353 -550h358z" />
    <glyph glyph-name="bracketleft" unicode="[" horiz-adv-x="353" 
d="M180 707v-730h146v-77h-236v884h236v-77h-146z" />
    <glyph glyph-name="backslash" unicode="\" horiz-adv-x="445" 
d="M340 -86l-322 828h83l322 -828h-83z" />
    <glyph glyph-name="bracketright" unicode="]" horiz-adv-x="353" 
d="M263 784v-884h-236v77h146v730h-146v77h236z" />
    <glyph glyph-name="asciicircum" unicode="^" horiz-adv-x="425" 
d="M164 724h95l148 -205h-103l-92 139l-93 -139h-102z" />
    <glyph glyph-name="underscore" unicode="_" horiz-adv-x="599" 
d="M90 -68h418v-86h-418v86z" />
    <glyph glyph-name="grave" unicode="`" horiz-adv-x="500" 
d="M115 774v10h107l92 -159v-10h-75z" />
    <glyph glyph-name="a" unicode="a" horiz-adv-x="531" 
d="M399.5 507.5q53.5 -44.5 53.5 -128.5v-379h-88v70q-51 -81 -161 -81q-79 0 -122.5 42.5t-43.5 118.5q0 96 77 142t241 47v30q0 46 -29.5 70t-87.5 24q-66 0 -126 -28l-25 78q79 39 166 39q92 0 145.5 -44.5zM356 133v134q-116 -2 -169.5 -28.5t-53.5 -81.5q0 -83 94 -83
q76 0 129 59z" />
    <glyph glyph-name="b" unicode="b" horiz-adv-x="577" 
d="M474.5 477q52.5 -75 52.5 -210q0 -132 -54.5 -206t-152.5 -74q-46 0 -84 18.5t-62 52.5v-58h-89v501v269h97v-293q53 75 146 75q94 0 146.5 -75zM427 265q0 97 -32 146t-95 49q-34 0 -62.5 -14t-55.5 -44v-271q23 -27 55 -41.5t68 -14.5q122 0 122 190z" />
    <glyph glyph-name="c" unicode="c" horiz-adv-x="481" 
d="M111 61.5q-65 73.5 -65 205.5q0 85 30 149.5t85 100t127 35.5q41 0 82.5 -12.5t74.5 -33.5l-36 -77q-67 34 -123 34q-66 0 -103 -50t-37 -139q0 -97 38.5 -146.5t114.5 -49.5q61 0 117 32l35 -76q-30 -22 -70.5 -34t-87.5 -12q-117 0 -182 73.5z" />
    <glyph glyph-name="d" unicode="d" horiz-adv-x="577" 
d="M492 38h-1v-38h-89v73q-53 -86 -153 -86q-94 0 -146.5 75t-52.5 210q0 132 54.5 206t152.5 74q42 0 77 -15.5t60 -44.5v278h97v-294h1v-438zM339.5 92.5q28.5 13.5 54.5 43.5v273q-23 26 -55 40.5t-67 14.5q-122 0 -122 -190q0 -97 32 -146t95 -49q34 0 62.5 13.5z" />
    <glyph glyph-name="e" unicode="e" horiz-adv-x="541" 
d="M493 241h-347q12 -164 156 -164q72 0 136 38l35 -75q-34 -25 -81 -38.5t-98 -13.5q-117 0 -181.5 74t-64.5 207q0 134 60 208.5t168 74.5q105 0 163 -68.5t58 -191.5q0 -31 -4 -51zM186 427.5q-32 -38.5 -39 -113.5h253q-2 72 -35 112t-91 40q-56 0 -88 -38.5z" />
    <glyph glyph-name="f" unicode="f" horiz-adv-x="365" 
d="M104 456h-89v83h89v57q0 87 52 135.5t145 48.5q32 0 54 -5v-85q-34 4 -54 4q-49 0 -74.5 -25t-25.5 -73v-57h135v-83h-135v-456h-97v456z" />
    <glyph glyph-name="g" unicode="g" horiz-adv-x="579" 
d="M494 539v-533q0 -107 -63 -166.5t-176 -59.5q-43 0 -85 9t-74 25l28 82q60 -29 125 -29q73 0 110.5 35t37.5 104v84q-53 -73 -146 -73q-95 0 -148 71t-53 198q0 126 55 196t154 70q46 0 84 -19t62 -53v59h89zM342.5 122.5q28.5 13.5 54.5 43.5v241q-23 27 -55 42t-68 15
q-124 0 -124 -176q0 -89 33 -134t97 -45q34 0 62.5 13.5z" />
    <glyph glyph-name="h" unicode="h" horiz-adv-x="585" 
d="M461 506.5q43 -45.5 43 -127.5v-379h-97v368q0 92 -100 92q-36 0 -65.5 -11.5t-59.5 -35.5v-413h-97v770h97v-284q63 66 157 66q79 0 122 -45.5z" />
    <glyph glyph-name="i" unicode="i" horiz-adv-x="272" 
d="M87 539h97v-539h-97v539zM89.5 641.5q-16.5 16.5 -16.5 45.5q0 30 16.5 46.5t46.5 16.5t47 -16.5t17 -45.5q0 -30 -17 -46.5t-47 -16.5t-46.5 16.5z" />
    <glyph glyph-name="j" unicode="j" horiz-adv-x="272" 
d="M-52 -141q56 20 85.5 41.5t41.5 53t12 83.5v502h97v-504q0 -74 -18 -120t-61.5 -77.5t-123.5 -58.5zM89.5 641.5q-16.5 16.5 -16.5 45.5q0 30 16.5 46.5t46.5 16.5t47 -16.5t17 -45.5q0 -30 -17 -46.5t-47 -16.5t-46.5 16.5z" />
    <glyph glyph-name="k" unicode="k" horiz-adv-x="547" 
d="M252 239l-70 -80v-159h-97v770h97v-491l218 260h115l-199 -227l211 -312h-114z" />
    <glyph glyph-name="l" unicode="l" horiz-adv-x="313" 
d="M83 121v649h97v-636q0 -28 12.5 -41t39.5 -13q18 0 38 4l8 -82q-35 -8 -69 -8q-126 0 -126 127z" />
    <glyph glyph-name="m" unicode="m" horiz-adv-x="885" 
d="M762 506.5q42 -45.5 42 -127.5v-379h-97v368q0 92 -94 92q-63 0 -121 -49q2 -20 2 -32v-379h-97v368q0 92 -95 92q-33 0 -62 -11.5t-58 -35.5v-413h-97v539h89v-61q66 74 160 74q52 0 88.5 -21.5t54.5 -62.5q71 84 168 84q75 0 117 -45.5z" />
    <glyph glyph-name="n" unicode="n" horiz-adv-x="583" 
d="M459 506.5q43 -45.5 43 -127.5v-379h-97v368q0 92 -99 92q-35 0 -64.5 -11.5t-59.5 -35.5v-413h-97v539h89v-61q66 74 164 74q78 0 121 -45.5z" />
    <glyph glyph-name="o" unicode="o" horiz-adv-x="558" 
d="M109.5 59q-59.5 72 -59.5 210q0 139 59.5 211t170.5 72q110 0 169 -72t59 -211q0 -138 -59.5 -210t-169.5 -72t-169.5 72zM375.5 123q32.5 49 32.5 146t-32.5 146.5t-95.5 49.5q-64 0 -97 -49.5t-33 -146.5t32.5 -146t96.5 -49t96.5 49z" />
    <glyph glyph-name="p" unicode="p" horiz-adv-x="577" 
d="M474.5 477q52.5 -75 52.5 -210q0 -132 -54.5 -206t-152.5 -74q-42 0 -77.5 16t-60.5 45v-255h-97v708v38h89v-74q53 87 154 87q94 0 146.5 -75zM427 265q0 97 -32 146t-95 49q-34 0 -62.5 -14t-55.5 -44v-271q23 -27 55 -41.5t68 -14.5q122 0 122 190z" />
    <glyph glyph-name="q" unicode="q" horiz-adv-x="577" 
d="M492 38h-1v-245h-97v268q-53 -74 -145 -74q-94 0 -146.5 75t-52.5 210q0 132 54.5 206t152.5 74q46 0 83 -18t62 -52v57h89v-63h1v-438zM339.5 92.5q28.5 13.5 54.5 43.5v273q-23 26 -55 40.5t-67 14.5q-122 0 -122 -190q0 -97 32 -146t95 -49q34 0 62.5 13.5z" />
    <glyph glyph-name="r" unicode="r" horiz-adv-x="401" 
d="M383 537l-21 -93q-37 10 -67 10q-38 0 -64.5 -14.5t-48.5 -47.5v-392h-97v539h89v-80q55 91 145 91q34 0 64 -13z" />
    <glyph glyph-name="s" unicode="s" horiz-adv-x="466" 
d="M119 1q-50 13 -86 37l34 81q74 -45 154 -45q108 0 108 73q0 29 -18 46.5t-56 26.5l-71 17q-74 17 -108.5 53.5t-34.5 97.5q0 77 51 120t142 43q46 0 92 -11t82 -31l-37 -80q-72 36 -139 36q-48 0 -72.5 -17.5t-24.5 -50.5q0 -27 18 -44t56 -26l71 -17q74 -17 109 -54.5
t35 -99.5q0 -79 -53.5 -123.5t-149.5 -44.5q-52 0 -102 13z" />
    <glyph glyph-name="t" unicode="t" horiz-adv-x="391" 
d="M149.5 37q-43.5 44 -43.5 132v287h-89v83h89v155h97v-155h156v-83h-156v-271q0 -55 22.5 -80.5t69.5 -25.5q28 0 56 9l15 -83q-39 -12 -87 -12q-86 0 -129.5 44z" />
    <glyph glyph-name="u" unicode="u" horiz-adv-x="575" 
d="M490 539v-539h-89v70q-59 -83 -162 -83q-76 0 -118.5 45.5t-42.5 127.5v379h97v-368q0 -92 97 -92q36 0 65.5 13.5t55.5 42.5v404h97z" />
    <glyph glyph-name="v" unicode="v" horiz-adv-x="522" 
d="M497 539l-183 -539h-105l-184 539h102l136 -439l134 439h100z" />
    <glyph glyph-name="w" unicode="w" horiz-adv-x="784" 
d="M757 539l-155 -539h-106l-105 413l-104 -413h-106l-154 539h101l108 -438l106 438h100l108 -436l107 436h100z" />
    <glyph glyph-name="x" unicode="x" horiz-adv-x="509" 
d="M372 0l-119 198l-118 -198h-108l175 274l-168 265h111l112 -187l115 187h109l-173 -264l175 -275h-111z" />
    <glyph glyph-name="y" unicode="y" horiz-adv-x="518" 
d="M493 539l-180 -532q-27 -81 -89 -136.5t-162 -89.5l-34 83q71 26 114 57t68 76l-185 542h102l133 -431l133 431h100z" />
    <glyph glyph-name="z" unicode="z" horiz-adv-x="467" 
d="M428 82v-82h-390v82l276 375h-267v82h376v-82l-275 -375h280z" />
    <glyph glyph-name="braceleft" unicode="{" horiz-adv-x="376" 
d="M208.5 -74q-40.5 26 -58.5 69t-18 113v116q0 40 -27.5 59t-84.5 20v78q57 1 84.5 20t27.5 59v117q0 69 18 112t58.5 69t113.5 42l21 -76q-49 -12 -75 -28.5t-36.5 -44t-10.5 -74.5v-117q0 -49 -19.5 -77.5t-60.5 -39.5q41 -11 60.5 -40t19.5 -79v-116q0 -48 10.5 -75.5
t36.5 -44t75 -28.5l-21 -76q-73 16 -113.5 42z" />
    <glyph glyph-name="bar" unicode="|" horiz-adv-x="255" 
d="M90 816h74v-1066h-74v1066z" />
    <glyph glyph-name="braceright" unicode="}" horiz-adv-x="376" 
d="M33 -40q49 12 75 28.5t36.5 44t10.5 75.5v116q0 50 19.5 79t60.5 40q-41 11 -60.5 39.5t-19.5 77.5v117q0 47 -10.5 74.5t-36.5 44t-75 28.5l21 76q73 -16 113.5 -42t58.5 -69t18 -112v-117q0 -40 27.5 -59t84.5 -20v-78q-57 -1 -84.5 -20t-27.5 -59v-116q0 -70 -18 -113
t-58.5 -69t-113.5 -42z" />
    <glyph glyph-name="asciitilde" unicode="~" horiz-adv-x="574" 
d="M325 294.5q-21 8.5 -47 24.5q-22 15 -38.5 22t-36.5 7q-25 0 -47.5 -13.5t-46.5 -42.5l-58 60q71 84 150 84q27 0 48 -8.5t47 -24.5q24 -15 40 -22t36 -7q24 0 46.5 13.5t46.5 42.5l58 -60q-70 -84 -150 -84q-27 0 -48 8.5z" />
    <glyph glyph-name="uni00A0" unicode="&#xa0;" horiz-adv-x="220" 
 />
    <glyph glyph-name="exclamdown" unicode="&#xa1;" horiz-adv-x="353" 
d="M224.5 529.5q17.5 -17.5 17.5 -47.5q0 -31 -17 -48.5t-49 -17.5q-31 0 -49 17.5t-18 47.5q0 31 18 48.5t49 17.5t48.5 -17.5zM233 -190h-111l17 520h77z" />
    <glyph glyph-name="cent" unicode="&#xa2;" horiz-adv-x="479" 
d="M312 27v-112h-73v115q-92 14 -142.5 80t-50.5 172q0 102 52 169.5t141 81.5v115h73v-112q73 -6 123 -40l-35 -73q-43 21 -88 27v-337q48 3 96 30l33 -72q-55 -38 -129 -44zM166.5 173q23.5 -41 72.5 -54v328q-96 -24 -96 -161q0 -72 23.5 -113z" />
    <glyph glyph-name="sterling" unicode="&#xa3;" horiz-adv-x="532" 
d="M157 87h318v-87h-412v87l32 36q34 38 50 81.5t16 96.5q0 15 -1 22h-106v83h88l-15 34q-15 35 -22.5 59.5t-7.5 58.5q0 85 52.5 132t147.5 47q55 0 101 -16t79 -47l-48 -80q-59 50 -132 50q-99 0 -99 -88q0 -23 6 -43t19 -52q17 -40 21 -55h168v-83h-155v-9
q0 -131 -100 -227z" />
    <glyph glyph-name="currency" unicode="&#xa4;" horiz-adv-x="593" 
d="M474 138l69 -87l-60 -47l-68 84q-50 -26 -118 -26q-70 0 -118 27l-69 -85l-60 47l69 87q-51 66 -51 175q0 108 51 174l-69 87l60 47l69 -85q48 27 118 27q68 0 118 -26l68 84l60 -47l-69 -87q52 -64 52 -174q0 -111 -52 -175zM394 190.5q33 41.5 33 122.5q0 163 -130 163
t-130 -163q0 -81 33 -122.5t97 -41.5t97 41.5z" />
    <glyph glyph-name="yen" unicode="&#xa5;" horiz-adv-x="538" 
d="M349 336h108v-72h-140v-75h140v-72h-140v-117h-97v117h-140v72h140v75h-140v72h109l-169 388h106l145 -376l143 376h105z" />
    <glyph glyph-name="brokenbar" unicode="&#xa6;" horiz-adv-x="255" 
d="M90 816h74v-447h-74v447zM90 198h74v-448h-74v448z" />
    <glyph glyph-name="section" unicode="&#xa7;" horiz-adv-x="533" 
d="M469 -23q0 -90 -54 -140t-151 -50q-49 0 -102.5 13.5t-98.5 37.5l35 83q97 -46 166 -46q55 0 82 23.5t27 72.5q0 40 -20 63.5t-68 36.5l-62 18q-83 23 -121.5 67t-38.5 116q0 84 53 145q-48 45 -48 126q0 92 55 142.5t155 50.5q44 0 89.5 -10t83.5 -28l-35 -82
q-78 32 -140 32q-57 0 -84.5 -24t-27.5 -74q0 -40 20 -63t67 -37l62 -17q81 -23 119 -67.5t38 -116.5q0 -83 -51 -143q50 -46 50 -129zM314 160l36 -12q30 38 30 87q0 43 -22 68t-74 40l-62 18q-22 6 -38 13q-31 -37 -31 -86q0 -43 23 -68.5t76 -41.5z" />
    <glyph glyph-name="dieresis" unicode="&#xa8;" horiz-adv-x="500" 
d="M112.5 639q-15.5 16 -15.5 43q0 28 15.5 43.5t43.5 15.5t43.5 -15.5t15.5 -42.5q0 -28 -15.5 -44t-43.5 -16t-43.5 16zM301.5 639q-15.5 16 -15.5 43q0 28 15.5 43.5t43.5 15.5t43.5 -15.5t15.5 -42.5q0 -28 -15.5 -44t-43.5 -16t-43.5 16z" />
    <glyph glyph-name="copyright" unicode="&#xa9;" horiz-adv-x="833" 
d="M240.5 31q-74.5 44 -114.5 128.5t-40 202.5t40 202.5t114.5 128.5t176.5 44t176.5 -44.5t114.5 -128.5t40 -202t-40 -202t-114.5 -128.5t-176.5 -44.5t-176.5 44zM612 132.5q69 81.5 69 229.5t-69 229.5t-195 81.5q-127 0 -196 -81t-69 -230t69 -230t196 -81
q126 0 195 81.5zM313.5 226q-42.5 48 -42.5 135q0 88 41.5 136.5t115.5 48.5q30 0 58 -7.5t48 -21.5l-28 -59q-43 22 -79 22q-41 0 -62 -29t-21 -86q0 -121 91 -121q40 0 78 22l25 -58q-20 -14 -48 -22t-59 -8q-75 0 -117.5 48z" />
    <glyph glyph-name="ordfeminine" unicode="&#xaa;" horiz-adv-x="518" 
d="M375.5 695.5q43.5 -34.5 43.5 -95.5v-272q-36 -19 -81.5 -29t-91.5 -10q-85 0 -131.5 35t-46.5 98q0 76 62 109t204 33v22q0 66 -92 66q-54 0 -112 -24l-23 68q67 34 147 34q78 0 121.5 -34.5zM246 364q53 0 88 13v124q-96 0 -138 -17.5t-42 -58.5q0 -61 92 -61zM92 191
h323v-73h-323v73z" />
    <glyph glyph-name="guillemotleft" unicode="&#xab;" horiz-adv-x="591" 
d="M383 288l172 -196l-63 -59l-220 254l221 255l62 -59zM144 288l172 -196l-63 -59l-220 254l221 255l62 -59z" />
    <glyph glyph-name="logicalnot" unicode="&#xac;" horiz-adv-x="574" 
d="M509 497v-90v-169h-91v169h-353v90h444z" />
    <glyph glyph-name="uni00AD" unicode="&#xad;" horiz-adv-x="408" 
d="M50 338h308v-80h-308v80z" />
    <glyph glyph-name="registered" unicode="&#xae;" horiz-adv-x="833" 
d="M593.5 692.5q74.5 -44.5 114.5 -128.5t40 -202t-40 -202t-114.5 -128.5t-176.5 -44.5t-176.5 44t-114.5 128.5t-40 202.5t40 202.5t114.5 128.5t176.5 44t176.5 -44.5zM612 132.5q69 81.5 69 229.5t-69 229.5t-195 81.5q-127 0 -196 -81t-69 -230t69 -230t196 -81
q126 0 195 81.5zM527 351q-15 -28 -44 -42l74 -125h-80l-62 113h-45v-113h-68v356h123q55 0 86 -32t31 -89q0 -40 -15 -68zM370 357h54q46 0 46 59q0 61 -49 61h-51v-120z" />
    <glyph glyph-name="macron" unicode="&#xaf;" horiz-adv-x="500" 
d="M99 710h301v-71h-301v71z" />
    <glyph glyph-name="degree" unicode="&#xb0;" horiz-adv-x="451" 
d="M98 429.5q-49 49.5 -49 128.5t49 128.5t128 49.5q78 0 127 -49.5t49 -128.5t-49 -128.5t-127 -49.5q-79 0 -128 49.5zM290.5 490q24.5 26 24.5 68t-24.5 68t-64.5 26t-64.5 -26t-24.5 -68t24.5 -68t64.5 -26t64.5 26z" />
    <glyph glyph-name="plusminus" unicode="&#xb1;" horiz-adv-x="574" 
d="M523 495v-88h-191v-181h-91v181h-190v88h190v181h91v-181h191zM51 163h472v-86h-472v86z" />
    <glyph glyph-name="uni00B2" unicode="&#xb2;" horiz-adv-x="378" 
d="M329 397v-70h-299v70l161 164q28 28 37.5 45.5t9.5 38.5q0 28 -16 42.5t-47 14.5q-53 0 -113 -40l-36 62q73 53 156 53q66 0 103 -33t37 -93q0 -35 -16 -64.5t-58 -71.5l-119 -118h200z" />
    <glyph glyph-name="uni00B3" unicode="&#xb3;" horiz-adv-x="402" 
d="M309.5 558.5q33.5 -34.5 33.5 -93.5q0 -69 -45.5 -107t-127.5 -38q-85 0 -144 42l30 66q54 -33 114 -33q88 0 88 71q0 67 -82 67q-26 0 -49 -6l-29 41l131 132h-191v70h286v-70l-109 -102q61 -5 94.5 -39.5z" />
    <glyph glyph-name="acute" unicode="&#xb4;" horiz-adv-x="500" 
d="M191 625l100 159h107v-10l-132 -159h-75v10z" />
    <glyph glyph-name="uni00B5" unicode="&#xb5;" horiz-adv-x="588" 
d="M503 539v-539h-88v71q-56 -81 -155 -81q-49 0 -78 23v-220h-97v510v236h97v-362q0 -49 25.5 -74t73.5 -25q39 0 69 14t56 43v404h97z" />
    <glyph glyph-name="paragraph" unicode="&#xb6;" horiz-adv-x="574" 
d="M484 0h-78v648h-76v-648h-76v316q-107 1 -166.5 54.5t-59.5 148.5q0 97 61.5 151t171.5 54h223v-724z" />
    <glyph glyph-name="periodcentered" unicode="&#xb7;" horiz-adv-x="254" 
d="M78.5 287.5q-17.5 17.5 -17.5 47.5q0 32 17.5 49t48.5 17t49 -17.5t18 -47.5q0 -31 -18 -48.5t-49 -17.5t-48.5 17.5z" />
    <glyph glyph-name="cedilla" unicode="&#xb8;" horiz-adv-x="500" 
d="M340 -77.5q28 -21.5 28 -60.5q0 -45 -32.5 -69.5t-91.5 -24.5t-107 24l17 51q52 -18 85 -18q52 0 52 36q0 35 -48 35q-20 0 -42 -8l-24 28l44 104l69 -6l-50 -72q14 2 21 2q51 0 79 -21.5z" />
    <glyph glyph-name="uni00B9" unicode="&#xb9;" horiz-adv-x="342" 
d="M223 770v-443h-81v360l-97 -33l-22 65l134 51h66z" />
    <glyph glyph-name="ordmasculine" unicode="&#xba;" horiz-adv-x="524" 
d="M120 344.5q-50 56.5 -50 165.5q0 108 50 164.5t143 56.5q92 0 141.5 -56.5t49.5 -164.5q0 -109 -50 -165.5t-142 -56.5t-142 56.5zM340 401q26 37 26 109q0 145 -103 145q-52 0 -78.5 -36.5t-26.5 -108.5t26 -109t78 -37t78 37zM101 191h323v-73h-323v73z" />
    <glyph glyph-name="guillemotright" unicode="&#xbb;" horiz-adv-x="591" 
d="M319 288l-221 -255l-62 59l172 195l-172 196l63 59zM558 288l-221 -255l-62 59l172 195l-172 196l63 59z" />
    <glyph glyph-name="onequarter" unicode="&#xbc;" horiz-adv-x="906" 
d="M677 702l-417 -718l-67 38l417 718zM142 281v360l-97 -33l-22 65l134 51h66v-443h-81zM876 150v-68h-55v-82h-79v82h-206v68l170 293h115v-293h55zM742 150v223l-122 -223h122z" />
    <glyph glyph-name="onehalf" unicode="&#xbd;" horiz-adv-x="944" 
d="M677 702l-417 -718l-67 38l417 718zM142 281v360l-97 -33l-22 65l134 51h66v-443h-81zM897 70v-70h-299v70l161 164q28 28 37.5 45.5t9.5 38.5q0 28 -16 42.5t-47 14.5q-53 0 -113 -40l-36 62q73 53 156 53q66 0 103 -33t37 -93q0 -35 -16 -64.5t-58 -71.5l-119 -118h200
z" />
    <glyph glyph-name="threequarters" unicode="&#xbe;" horiz-adv-x="984" 
d="M755 702l-417 -718l-67 38l417 718zM297.5 312q-45.5 -38 -127.5 -38q-85 0 -144 42l30 66q54 -33 114 -33q88 0 88 71q0 67 -82 67q-26 0 -49 -6l-29 41l131 132h-191v70h286v-70l-109 -102q61 -5 94.5 -39.5t33.5 -93.5q0 -69 -45.5 -107zM954 150v-68h-55v-82h-79v82
h-206v68l170 293h115v-293h55zM820 150v223l-122 -223h122z" />
    <glyph glyph-name="questiondown" unicode="&#xbf;" horiz-adv-x="467" 
d="M335.5 529.5q17.5 -17.5 17.5 -47.5q0 -31 -17 -48.5t-49 -17.5q-31 0 -49 17.5t-18 47.5q0 31 18 48.5t49 17.5t48.5 -17.5zM337 273q0 -57 -22.5 -95.5t-84.5 -87.5q-40 -32 -54.5 -54t-14.5 -52q0 -46 27.5 -70t80.5 -24q77 0 159 51l40 -82q-44 -30 -96.5 -46
t-107.5 -16q-98 0 -152 48t-54 134q0 50 22.5 86t79.5 81q50 38 67 64.5t17 65.5q0 20 -3 54h93q3 -37 3 -57z" />
    <glyph glyph-name="Agrave" unicode="&#xc0;" horiz-adv-x="668" 
d="M320 781l-173 133v12h117l141 -133v-12h-85zM477 182h-288l-59 -182h-105l254 724h109l254 -724h-106zM448 269l-116 355l-115 -355h231z" />
    <glyph glyph-name="Aacute" unicode="&#xc1;" horiz-adv-x="668" 
d="M348 781h-85v12l150 133h117v-12zM477 182h-288l-59 -182h-105l254 724h109l254 -724h-106zM448 269l-116 355l-115 -355h231z" />
    <glyph glyph-name="Acircumflex" unicode="&#xc2;" horiz-adv-x="668" 
d="M240 781h-74v12l117 133h101l117 -133v-12h-77l-92 86zM477 182h-288l-59 -182h-105l254 724h109l254 -724h-106zM448 269l-116 355l-115 -355h231z" />
    <glyph glyph-name="Atilde" unicode="&#xc3;" horiz-adv-x="668" 
d="M221 790h-59q2 63 28.5 99t72.5 36q27 0 46.5 -10t44.5 -28q18 -13 29 -19t22 -6q35 0 42 61h58q-2 -64 -28 -99.5t-73 -35.5q-27 0 -47 10t-43 28q-18 13 -29 19t-23 6q-35 0 -41 -61zM477 182h-288l-59 -182h-105l254 724h109l254 -724h-106zM448 269l-116 355
l-115 -355h231z" />
    <glyph glyph-name="Adieresis" unicode="&#xc4;" horiz-adv-x="668" 
d="M191.5 804q-15.5 16 -15.5 43q0 28 15.5 43.5t43.5 15.5t43.5 -15.5t15.5 -42.5q0 -28 -15.5 -44t-43.5 -16t-43.5 16zM390.5 804q-15.5 16 -15.5 43q0 28 15.5 43.5t43.5 15.5t43.5 -15.5t15.5 -42.5q0 -28 -15.5 -44t-43.5 -16t-43.5 16zM477 182h-288l-59 -182h-105
l254 724h109l254 -724h-106zM448 269l-116 355l-115 -355h231z" />
    <glyph glyph-name="Aring" unicode="&#xc5;" horiz-adv-x="668" 
d="M242.5 796.5q-32.5 29.5 -32.5 82.5q0 52 32.5 81.5t91.5 29.5t91.5 -29t32.5 -82t-32.5 -82.5t-91.5 -29.5t-91.5 29.5zM276 879q0 -58 58 -58t58 58t-58 58t-58 -58zM477 182h-288l-59 -182h-105l254 724h109l254 -724h-106zM448 269l-116 355l-115 -355h231z" />
    <glyph glyph-name="AE" unicode="&#xc6;" horiz-adv-x="911" 
d="M872 89v-89h-429v173h-249l-90 -173h-107l384 724h100h378v-89h-320v-220h235v-90h-235v-236h333zM443 260v391l-204 -391h204z" />
    <glyph glyph-name="Ccedilla" unicode="&#xc7;" horiz-adv-x="601" 
d="M441 -77.5q28 -21.5 28 -60.5q0 -45 -32.5 -69.5t-91.5 -24.5t-107 24l17 51q52 -18 85 -18q52 0 52 36q0 35 -48 35q-20 0 -42 -8l-24 28l32 76q-125 19 -193.5 111.5t-68.5 244.5q0 117 39.5 205t111.5 136t169 48q51 0 101 -13.5t90 -37.5l-35 -78q-81 39 -158 39
q-101 0 -158 -76.5t-57 -214.5q0 -136 57.5 -206t170.5 -70q90 0 151 35l35 -77q-32 -24 -82.5 -37t-109.5 -13l-32 -46q14 2 21 2q51 0 79 -21.5z" />
    <glyph glyph-name="Egrave" unicode="&#xc8;" horiz-adv-x="576" 
d="M296 781l-173 133v12h117l141 -133v-12h-85zM536 89v-89h-446v724h433v-89h-334v-220h248v-90h-248v-236h347z" />
    <glyph glyph-name="Eacute" unicode="&#xc9;" horiz-adv-x="576" 
d="M324 781h-85v12l150 133h117v-12zM536 89v-89h-446v724h433v-89h-334v-220h248v-90h-248v-236h347z" />
    <glyph glyph-name="Ecircumflex" unicode="&#xca;" horiz-adv-x="576" 
d="M216 781h-74v12l117 133h101l117 -133v-12h-77l-92 86zM536 89v-89h-446v724h433v-89h-334v-220h248v-90h-248v-236h347z" />
    <glyph glyph-name="Edieresis" unicode="&#xcb;" horiz-adv-x="576" 
d="M167.5 804q-15.5 16 -15.5 43q0 28 15.5 43.5t43.5 15.5t43.5 -15.5t15.5 -42.5q0 -28 -15.5 -44t-43.5 -16t-43.5 16zM366.5 804q-15.5 16 -15.5 43q0 28 15.5 43.5t43.5 15.5t43.5 -15.5t15.5 -42.5q0 -28 -15.5 -44t-43.5 -16t-43.5 16zM536 89v-89h-446v724h433v-89
h-334v-220h248v-90h-248v-236h347z" />
    <glyph glyph-name="Igrave" unicode="&#xcc;" horiz-adv-x="283" 
d="M-45 914v12h117l141 -133v-12h-85zM92 724h99v-724h-99v724z" />
    <glyph glyph-name="Iacute" unicode="&#xcd;" horiz-adv-x="283" 
d="M71 793l150 133h117v-12l-182 -133h-85v12zM92 724h99v-724h-99v724z" />
    <glyph glyph-name="Icircumflex" unicode="&#xce;" horiz-adv-x="283" 
d="M309 793v-12h-77l-92 86l-92 -86h-74v12l117 133h101zM92 724h99v-724h-99v724z" />
    <glyph glyph-name="Idieresis" unicode="&#xcf;" horiz-adv-x="283" 
d="M-0.5 804q-15.5 16 -15.5 43q0 28 15.5 43.5t43.5 15.5t43.5 -15.5t15.5 -42.5q0 -28 -15.5 -44t-43.5 -16t-43.5 16zM198.5 804q-15.5 16 -15.5 43q0 28 15.5 43.5t43.5 15.5t43.5 -15.5t15.5 -42.5q0 -28 -15.5 -44t-43.5 -16t-43.5 16zM92 724h99v-724h-99v724z" />
    <glyph glyph-name="Eth" unicode="&#xd0;" horiz-adv-x="690" 
d="M548 632.5q85 -91.5 85 -270.5t-86 -270.5t-248 -91.5h-209v326h-66v81h66v317h211q162 0 247 -91.5zM472 158q58 69 58 204q0 136 -58.5 204.5t-173.5 68.5h-109v-228h177v-81h-177v-237h111q114 0 172 69z" />
    <glyph glyph-name="Ntilde" unicode="&#xd1;" horiz-adv-x="724" 
d="M249 790h-59q2 63 28.5 99t72.5 36q27 0 46.5 -10t44.5 -28q18 -13 29 -19t22 -6q35 0 42 61h58q-2 -64 -28 -99.5t-73 -35.5q-27 0 -47 10t-43 28q-18 13 -29 19t-23 6q-35 0 -41 -61zM633 724v-724h-94l-352 557v-557h-97v724h94l352 -555v555h97z" />
    <glyph glyph-name="Ograve" unicode="&#xd2;" horiz-adv-x="714" 
d="M170 914v12h117l141 -133v-12h-85zM135 82q-77 95 -77 280t77 280t222 95t222 -95t77 -280t-77 -280t-222 -95t-222 95zM503.5 148q49.5 72 49.5 214t-49.5 214t-146.5 72t-146.5 -72t-49.5 -214t49.5 -214t146.5 -72t146.5 72z" />
    <glyph glyph-name="Oacute" unicode="&#xd3;" horiz-adv-x="714" 
d="M286 793l150 133h117v-12l-182 -133h-85v12zM135 82q-77 95 -77 280t77 280t222 95t222 -95t77 -280t-77 -280t-222 -95t-222 95zM503.5 148q49.5 72 49.5 214t-49.5 214t-146.5 72t-146.5 -72t-49.5 -214t49.5 -214t146.5 -72t146.5 72z" />
    <glyph glyph-name="Ocircumflex" unicode="&#xd4;" horiz-adv-x="714" 
d="M263 781h-74v12l117 133h101l117 -133v-12h-77l-92 86zM579 642q77 -95 77 -280t-77 -280t-222 -95t-222 95t-77 280t77 280t222 95t222 -95zM503.5 148q49.5 72 49.5 214t-49.5 214t-146.5 72t-146.5 -72t-49.5 -214t49.5 -214t146.5 -72t146.5 72z" />
    <glyph glyph-name="Otilde" unicode="&#xd5;" horiz-adv-x="714" 
d="M380 798q-20 10 -43 28q-18 13 -29 19t-23 6q-35 0 -41 -61h-59q2 63 28.5 99t72.5 36q27 0 46.5 -10t44.5 -28q18 -13 29 -19t22 -6q35 0 42 61h58q-2 -64 -28 -99.5t-73 -35.5q-27 0 -47 10zM135 82q-77 95 -77 280t77 280t222 95t222 -95t77 -280t-77 -280t-222 -95
t-222 95zM503.5 148q49.5 72 49.5 214t-49.5 214t-146.5 72t-146.5 -72t-49.5 -214t49.5 -214t146.5 -72t146.5 72z" />
    <glyph glyph-name="Odieresis" unicode="&#xd6;" horiz-adv-x="714" 
d="M214.5 804q-15.5 16 -15.5 43q0 28 15.5 43.5t43.5 15.5t43.5 -15.5t15.5 -42.5q0 -28 -15.5 -44t-43.5 -16t-43.5 16zM413.5 804q-15.5 16 -15.5 43q0 28 15.5 43.5t43.5 15.5t43.5 -15.5t15.5 -42.5q0 -28 -15.5 -44t-43.5 -16t-43.5 16zM135 82q-77 95 -77 280t77 280
t222 95t222 -95t77 -280t-77 -280t-222 -95t-222 95zM503.5 148q49.5 72 49.5 214t-49.5 214t-146.5 72t-146.5 -72t-49.5 -214t49.5 -214t146.5 -72t146.5 72z" />
    <glyph glyph-name="multiply" unicode="&#xd7;" horiz-adv-x="574" 
d="M348 368l156 -164l-62 -63l-155 163l-155 -163l-62 63l156 164l-156 164l62 63l155 -163l155 163l62 -63z" />
    <glyph glyph-name="Oslash" unicode="&#xd8;" horiz-adv-x="714" 
d="M686 723l-88 -110q58 -95 58 -251q0 -185 -77 -280t-222 -95q-121 0 -195 69l-50 -66h-84v11l88 110q-58 95 -58 251q0 185 77 280t222 95q122 0 196 -69l49 66h84v-11zM208 578q-50 -73 -50 -216q0 -107 23 -169l316 403q-49 55 -140 55q-99 0 -149 -73zM505.5 146
q50.5 73 50.5 216q0 106 -23 169l-316 -403q48 -55 140 -55q98 0 148.5 73z" />
    <glyph glyph-name="Ugrave" unicode="&#xd9;" horiz-adv-x="686" 
d="M156 914v12h117l141 -133v-12h-85zM152.5 57q-67.5 70 -67.5 197v470h99v-466q0 -90 40 -136t118 -46q79 0 119 46t40 136v466h99v-470q0 -127 -68 -197t-190 -70t-189.5 70z" />
    <glyph glyph-name="Uacute" unicode="&#xda;" horiz-adv-x="686" 
d="M272 793l150 133h117v-12l-182 -133h-85v12zM152.5 57q-67.5 70 -67.5 197v470h99v-466q0 -90 40 -136t118 -46q79 0 119 46t40 136v466h99v-470q0 -127 -68 -197t-190 -70t-189.5 70z" />
    <glyph glyph-name="Ucircumflex" unicode="&#xdb;" horiz-adv-x="686" 
d="M249 781h-74v12l117 133h101l117 -133v-12h-77l-92 86zM600 724v-470q0 -127 -68 -197t-190 -70t-189.5 70t-67.5 197v470h99v-466q0 -90 40 -136t118 -46q79 0 119 46t40 136v466h99z" />
    <glyph glyph-name="Udieresis" unicode="&#xdc;" horiz-adv-x="686" 
d="M200.5 804q-15.5 16 -15.5 43q0 28 15.5 43.5t43.5 15.5t43.5 -15.5t15.5 -42.5q0 -28 -15.5 -44t-43.5 -16t-43.5 16zM399.5 804q-15.5 16 -15.5 43q0 28 15.5 43.5t43.5 15.5t43.5 -15.5t15.5 -42.5q0 -28 -15.5 -44t-43.5 -16t-43.5 16zM152.5 57q-67.5 70 -67.5 197
v470h99v-466q0 -90 40 -136t118 -46q79 0 119 46t40 136v466h99v-470q0 -127 -68 -197t-190 -70t-189.5 70z" />
    <glyph glyph-name="Yacute" unicode="&#xdd;" horiz-adv-x="588" 
d="M307 781h-85v12l150 133h117v-12zM566 724l-224 -472v-252h-99v252l-222 472h108l165 -362l165 362h107z" />
    <glyph glyph-name="Thorn" unicode="&#xde;" horiz-adv-x="615" 
d="M511.5 543q60.5 -61 60.5 -172q0 -112 -62 -173.5t-173 -61.5h-148v-136h-99v724h99v-120h152q110 0 170.5 -61zM469 370q0 72 -33.5 108.5t-98.5 36.5h-148v-290h152q128 0 128 145z" />
    <glyph glyph-name="germandbls" unicode="&#xdf;" horiz-adv-x="599" 
d="M512 345.5q47 -56.5 47 -145.5q0 -98 -56.5 -152.5t-157.5 -54.5q-52 0 -103 14l20 82q41 -12 83 -12q120 0 120 118q0 75 -49.5 116.5t-146.5 46.5v78q64 29 93.5 67t29.5 92q0 99 -96 99q-56 0 -85 -35t-29 -103v-556h-97v556q0 106 55 165t154 59q90 0 140 -47
t50 -132q0 -123 -108 -180q89 -19 136 -75.5z" />
    <glyph glyph-name="agrave" unicode="&#xe0;" horiz-adv-x="531" 
d="M399.5 507.5q53.5 -44.5 53.5 -128.5v-379h-88v70q-51 -81 -161 -81q-79 0 -122.5 42.5t-43.5 118.5q0 96 77 142t241 47v30q0 46 -29.5 70t-87.5 24q-66 0 -126 -28l-25 78q79 39 166 39q92 0 145.5 -44.5zM356 133v134q-116 -2 -169.5 -28.5t-53.5 -81.5q0 -83 94 -83
q76 0 129 59zM119 774v10h107l92 -159v-10h-75z" />
    <glyph glyph-name="aacute" unicode="&#xe1;" horiz-adv-x="531" 
d="M399.5 507.5q53.5 -44.5 53.5 -128.5v-379h-88v70q-51 -81 -161 -81q-79 0 -122.5 42.5t-43.5 118.5q0 96 77 142t241 47v30q0 46 -29.5 70t-87.5 24q-66 0 -126 -28l-25 78q79 39 166 39q92 0 145.5 -44.5zM356 133v134q-116 -2 -169.5 -28.5t-53.5 -81.5q0 -83 94 -83
q76 0 129 59zM195 625l100 159h107v-10l-132 -159h-75v10z" />
    <glyph glyph-name="acircumflex" unicode="&#xe2;" horiz-adv-x="531" 
d="M399.5 507.5q53.5 -44.5 53.5 -128.5v-379h-88v70q-51 -81 -161 -81q-79 0 -122.5 42.5t-43.5 118.5q0 96 77 142t241 47v30q0 46 -29.5 70t-87.5 24q-66 0 -126 -28l-25 78q79 39 166 39q92 0 145.5 -44.5zM356 133v134q-116 -2 -169.5 -28.5t-53.5 -81.5q0 -83 94 -83
q76 0 129 59zM403 625v-10h-71l-80 103l-80 -103h-68v10l102 159h95z" />
    <glyph glyph-name="atilde" unicode="&#xe3;" horiz-adv-x="531" 
d="M399.5 507.5q53.5 -44.5 53.5 -128.5v-379h-88v70q-51 -81 -161 -81q-79 0 -122.5 42.5t-43.5 118.5q0 96 77 142t241 47v30q0 46 -29.5 70t-87.5 24q-66 0 -126 -28l-25 78q79 39 166 39q92 0 145.5 -44.5zM356 133v134q-116 -2 -169.5 -28.5t-53.5 -81.5q0 -83 94 -83
q76 0 129 59zM277 628q-20 10 -43 28q-18 13 -29 19t-23 6q-35 0 -41 -61h-59q2 63 28.5 99t72.5 36q27 0 46.5 -10t44.5 -28q18 -13 29 -19t22 -6q35 0 42 61h58q-2 -64 -28 -99.5t-73 -35.5q-27 0 -47 10z" />
    <glyph glyph-name="adieresis" unicode="&#xe4;" horiz-adv-x="531" 
d="M399.5 507.5q53.5 -44.5 53.5 -128.5v-379h-88v70q-51 -81 -161 -81q-79 0 -122.5 42.5t-43.5 118.5q0 96 77 142t241 47v30q0 46 -29.5 70t-87.5 24q-66 0 -126 -28l-25 78q79 39 166 39q92 0 145.5 -44.5zM356 133v134q-116 -2 -169.5 -28.5t-53.5 -81.5q0 -83 94 -83
q76 0 129 59zM116.5 639q-15.5 16 -15.5 43q0 28 15.5 43.5t43.5 15.5t43.5 -15.5t15.5 -42.5q0 -28 -15.5 -44t-43.5 -16t-43.5 16zM305.5 639q-15.5 16 -15.5 43q0 28 15.5 43.5t43.5 15.5t43.5 -15.5t15.5 -42.5q0 -28 -15.5 -44t-43.5 -16t-43.5 16z" />
    <glyph glyph-name="aring" unicode="&#xe5;" horiz-adv-x="531" 
d="M399.5 507.5q53.5 -44.5 53.5 -128.5v-379h-88v70q-51 -81 -161 -81q-79 0 -122.5 42.5t-43.5 118.5q0 96 77 142t241 47v30q0 46 -29.5 70t-87.5 24q-66 0 -126 -28l-25 78q79 39 166 39q92 0 145.5 -44.5zM356 133v134q-116 -2 -169.5 -28.5t-53.5 -81.5q0 -83 94 -83
q76 0 129 59zM163.5 631.5q-32.5 29.5 -32.5 82.5q0 52 32.5 81.5t90.5 29.5t90.5 -29t32.5 -82t-32.5 -82.5t-90.5 -29.5t-90.5 29.5zM312 714q0 59 -58 59t-58 -59t58 -59t58 59z" />
    <glyph glyph-name="ae" unicode="&#xe6;" horiz-adv-x="828" 
d="M780 241h-339q5 -81 43.5 -122.5t108.5 -41.5q67 0 131 38l36 -75q-34 -25 -80 -38.5t-95 -13.5q-65 0 -114.5 25.5t-80.5 73.5q-41 -51 -87 -74.5t-103 -23.5q-77 0 -119.5 42t-42.5 118q0 93 75 137.5t235 45.5v37q0 94 -113 94q-63 0 -122 -28l-25 78q79 39 162 39
q55 0 95.5 -20t61.5 -58q26 38 67 58t93 20q103 0 160 -68.5t57 -191.5q0 -32 -4 -51zM480 427.5q-31 -38.5 -38 -113.5h245q-2 72 -33.5 112t-88.5 40q-54 0 -85 -38.5zM362 151q-14 46 -16 109q-110 -2 -161.5 -27t-51.5 -77q0 -82 90 -82q81 0 139 77z" />
    <glyph glyph-name="ccedilla" unicode="&#xe7;" horiz-adv-x="481" 
d="M356 -77.5q28 -21.5 28 -60.5q0 -45 -32.5 -69.5t-91.5 -24.5t-107 24l17 51q52 -18 85 -18q52 0 52 36q0 35 -48 35q-20 0 -42 -8l-24 28l33 79q-86 20 -133 90t-47 182q0 85 30 149.5t85 100t127 35.5q41 0 82.5 -12.5t74.5 -33.5l-36 -77q-67 34 -123 34
q-66 0 -103 -50t-37 -139q0 -97 38.5 -146.5t114.5 -49.5q61 0 117 32l35 -76q-30 -22 -70.5 -34t-87.5 -12h-5l-32 -46q14 2 21 2q51 0 79 -21.5z" />
    <glyph glyph-name="egrave" unicode="&#xe8;" horiz-adv-x="541" 
d="M493 241h-347q12 -164 156 -164q72 0 136 38l35 -75q-34 -25 -81 -38.5t-98 -13.5q-117 0 -181.5 74t-64.5 207q0 134 60 208.5t168 74.5q105 0 163 -68.5t58 -191.5q0 -31 -4 -51zM186 427.5q-32 -38.5 -39 -113.5h253q-2 72 -35 112t-91 40q-56 0 -88 -38.5zM141 774
v10h107l92 -159v-10h-75z" />
    <glyph glyph-name="eacute" unicode="&#xe9;" horiz-adv-x="541" 
d="M493 241h-347q12 -164 156 -164q72 0 136 38l35 -75q-34 -25 -81 -38.5t-98 -13.5q-117 0 -181.5 74t-64.5 207q0 134 60 208.5t168 74.5q105 0 163 -68.5t58 -191.5q0 -31 -4 -51zM186 427.5q-32 -38.5 -39 -113.5h253q-2 72 -35 112t-91 40q-56 0 -88 -38.5zM217 625
l100 159h107v-10l-132 -159h-75v10z" />
    <glyph glyph-name="ecircumflex" unicode="&#xea;" horiz-adv-x="541" 
d="M493 241h-347q12 -164 156 -164q72 0 136 38l35 -75q-34 -25 -81 -38.5t-98 -13.5q-117 0 -181.5 74t-64.5 207q0 134 60 208.5t168 74.5q105 0 163 -68.5t58 -191.5q0 -31 -4 -51zM186 427.5q-32 -38.5 -39 -113.5h253q-2 72 -35 112t-91 40q-56 0 -88 -38.5zM425 625
v-10h-71l-80 103l-80 -103h-68v10l102 159h95z" />
    <glyph glyph-name="edieresis" unicode="&#xeb;" horiz-adv-x="541" 
d="M138.5 639q-15.5 16 -15.5 43q0 28 15.5 43.5t43.5 15.5t43.5 -15.5t15.5 -42.5q0 -28 -15.5 -44t-43.5 -16t-43.5 16zM327.5 639q-15.5 16 -15.5 43q0 28 15.5 43.5t43.5 15.5t43.5 -15.5t15.5 -42.5q0 -28 -15.5 -44t-43.5 -16t-43.5 16zM493 241h-347
q12 -164 156 -164q72 0 136 38l35 -75q-34 -25 -81 -38.5t-98 -13.5q-117 0 -181.5 74t-64.5 207q0 134 60 208.5t168 74.5q105 0 163 -68.5t58 -191.5q0 -31 -4 -51zM186 427.5q-32 -38.5 -39 -113.5h253q-2 72 -35 112t-91 40q-56 0 -88 -38.5z" />
    <glyph glyph-name="igrave" unicode="&#xec;" horiz-adv-x="272" 
d="M87 539h97v-539h-97v539zM1 774v10h107l92 -159v-10h-75z" />
    <glyph glyph-name="iacute" unicode="&#xed;" horiz-adv-x="272" 
d="M87 539h97v-539h-97v539zM77 625l100 159h107v-10l-132 -159h-75v10z" />
    <glyph glyph-name="icircumflex" unicode="&#xee;" horiz-adv-x="272" 
d="M87 539h97v-539h-97v539zM285 625v-10h-71l-80 103l-80 -103h-68v10l102 159h95z" />
    <glyph glyph-name="idieresis" unicode="&#xef;" horiz-adv-x="272" 
d="M7 639q-15 16 -15 43q0 28 15 43.5t42 15.5q28 0 43.5 -15.5t15.5 -42.5q0 -28 -15.5 -44t-43.5 -16q-27 0 -42 16zM181 639q-15 16 -15 43q0 28 15 43.5t42 15.5q28 0 43.5 -15.5t15.5 -42.5q0 -28 -15.5 -44t-43.5 -16q-27 0 -42 16zM87 539h97v-539h-97v539z" />
    <glyph glyph-name="eth" unicode="&#xf0;" horiz-adv-x="558" 
d="M468.5 516.5q39.5 -95.5 39.5 -226.5q0 -150 -58.5 -226.5t-172.5 -76.5q-112 0 -172 69.5t-60 203.5q0 131 57 200.5t162 69.5q86 0 132 -64q-37 106 -121 171l-120 -74l-32 54l99 55q-39 23 -80 37l-28 10l24 66l28 -10q71 -25 127 -60l102 63l32 -54l-82 -46
q84 -66 123.5 -161.5zM375.5 122q33.5 48 33.5 142q0 86 -35 134.5t-97 48.5q-65 0 -98.5 -47.5t-33.5 -139.5t33.5 -139t98.5 -47t98.5 48z" />
    <glyph glyph-name="ntilde" unicode="&#xf1;" horiz-adv-x="583" 
d="M459 506.5q43 -45.5 43 -127.5v-379h-97v368q0 92 -99 92q-35 0 -64.5 -11.5t-59.5 -35.5v-413h-97v539h89v-61q66 74 164 74q78 0 121 -45.5zM318 628q-20 10 -43 28q-18 13 -29 19t-23 6q-35 0 -41 -61h-59q2 63 28.5 99t72.5 36q27 0 46.5 -10t44.5 -28q18 -13 29 -19
t22 -6q35 0 42 61h58q-2 -64 -28 -99.5t-73 -35.5q-27 0 -47 10z" />
    <glyph glyph-name="ograve" unicode="&#xf2;" horiz-adv-x="558" 
d="M109.5 59q-59.5 72 -59.5 210q0 139 59.5 211t170.5 72q110 0 169 -72t59 -211q0 -138 -59.5 -210t-169.5 -72t-169.5 72zM375.5 123q32.5 49 32.5 146t-32.5 146.5t-95.5 49.5q-64 0 -97 -49.5t-33 -146.5t32.5 -146t96.5 -49t96.5 49zM145 774v10h107l92 -159v-10h-75z
" />
    <glyph glyph-name="oacute" unicode="&#xf3;" horiz-adv-x="558" 
d="M109.5 59q-59.5 72 -59.5 210q0 139 59.5 211t170.5 72q110 0 169 -72t59 -211q0 -138 -59.5 -210t-169.5 -72t-169.5 72zM375.5 123q32.5 49 32.5 146t-32.5 146.5t-95.5 49.5q-64 0 -97 -49.5t-33 -146.5t32.5 -146t96.5 -49t96.5 49zM221 625l100 159h107v-10
l-132 -159h-75v10z" />
    <glyph glyph-name="ocircumflex" unicode="&#xf4;" horiz-adv-x="558" 
d="M109.5 59q-59.5 72 -59.5 210q0 139 59.5 211t170.5 72q110 0 169 -72t59 -211q0 -138 -59.5 -210t-169.5 -72t-169.5 72zM375.5 123q32.5 49 32.5 146t-32.5 146.5t-95.5 49.5q-64 0 -97 -49.5t-33 -146.5t32.5 -146t96.5 -49t96.5 49zM429 625v-10h-71l-80 103
l-80 -103h-68v10l102 159h95z" />
    <glyph glyph-name="otilde" unicode="&#xf5;" horiz-adv-x="558" 
d="M109.5 59q-59.5 72 -59.5 210q0 139 59.5 211t170.5 72q110 0 169 -72t59 -211q0 -138 -59.5 -210t-169.5 -72t-169.5 72zM375.5 123q32.5 49 32.5 146t-32.5 146.5t-95.5 49.5q-64 0 -97 -49.5t-33 -146.5t32.5 -146t96.5 -49t96.5 49zM303 628q-20 10 -43 28
q-18 13 -29 19t-23 6q-35 0 -41 -61h-59q2 63 28.5 99t72.5 36q27 0 46.5 -10t44.5 -28q18 -13 29 -19t22 -6q35 0 42 61h58q-2 -64 -28 -99.5t-73 -35.5q-27 0 -47 10z" />
    <glyph glyph-name="odieresis" unicode="&#xf6;" horiz-adv-x="558" 
d="M142.5 639q-15.5 16 -15.5 43q0 28 15.5 43.5t43.5 15.5t43.5 -15.5t15.5 -42.5q0 -28 -15.5 -44t-43.5 -16t-43.5 16zM331.5 639q-15.5 16 -15.5 43q0 28 15.5 43.5t43.5 15.5t43.5 -15.5t15.5 -42.5q0 -28 -15.5 -44t-43.5 -16t-43.5 16zM109.5 59q-59.5 72 -59.5 210
q0 139 59.5 211t170.5 72q110 0 169 -72t59 -211q0 -138 -59.5 -210t-169.5 -72t-169.5 72zM375.5 123q32.5 49 32.5 146t-32.5 146.5t-95.5 49.5q-64 0 -97 -49.5t-33 -146.5t32.5 -146t96.5 -49t96.5 49z" />
    <glyph glyph-name="divide" unicode="&#xf7;" horiz-adv-x="574" 
d="M243 509q-17 17 -17 45t17 45t44 17t44.5 -17t17.5 -45t-17.5 -45t-44.5 -17t-44 17zM65 412h444v-87h-444v87zM243 137q-17 17 -17 45t17 45t44 17t44.5 -17t17.5 -45t-17.5 -45t-44.5 -17t-44 17z" />
    <glyph glyph-name="oslash" unicode="&#xf8;" horiz-adv-x="558" 
d="M538 539l-72 -87q42 -69 42 -183q0 -138 -59.5 -210t-169.5 -72q-88 0 -145 48l-34 -45h-80v10l71 87q-41 70 -41 182q0 139 59.5 211t170.5 72q87 0 144 -48l34 45h80v-10zM146 269q0 -59 11 -101l212 265q-31 35 -90 35q-133 0 -133 -199zM377.5 120.5
q33.5 50.5 33.5 148.5q0 64 -11 101l-212 -265q31 -35 90 -35q66 0 99.5 50.5z" />
    <glyph glyph-name="ugrave" unicode="&#xf9;" horiz-adv-x="575" 
d="M490 539v-539h-89v70q-59 -83 -162 -83q-76 0 -118.5 45.5t-42.5 127.5v379h97v-368q0 -92 97 -92q36 0 65.5 13.5t55.5 42.5v404h97zM150 774v10h107l92 -159v-10h-75z" />
    <glyph glyph-name="uacute" unicode="&#xfa;" horiz-adv-x="575" 
d="M490 539v-539h-89v70q-59 -83 -162 -83q-76 0 -118.5 45.5t-42.5 127.5v379h97v-368q0 -92 97 -92q36 0 65.5 13.5t55.5 42.5v404h97zM226 625l100 159h107v-10l-132 -159h-75v10z" />
    <glyph glyph-name="ucircumflex" unicode="&#xfb;" horiz-adv-x="575" 
d="M490 539v-539h-89v70q-59 -83 -162 -83q-76 0 -118.5 45.5t-42.5 127.5v379h97v-368q0 -92 97 -92q36 0 65.5 13.5t55.5 42.5v404h97zM434 625v-10h-71l-80 103l-80 -103h-68v10l102 159h95z" />
    <glyph glyph-name="udieresis" unicode="&#xfc;" horiz-adv-x="575" 
d="M147.5 639q-15.5 16 -15.5 43q0 28 15.5 43.5t43.5 15.5t43.5 -15.5t15.5 -42.5q0 -28 -15.5 -44t-43.5 -16t-43.5 16zM336.5 639q-15.5 16 -15.5 43q0 28 15.5 43.5t43.5 15.5t43.5 -15.5t15.5 -42.5q0 -28 -15.5 -44t-43.5 -16t-43.5 16zM490 539v-539h-89v70
q-59 -83 -162 -83q-76 0 -118.5 45.5t-42.5 127.5v379h97v-368q0 -92 97 -92q36 0 65.5 13.5t55.5 42.5v404h97z" />
    <glyph glyph-name="yacute" unicode="&#xfd;" horiz-adv-x="518" 
d="M493 539l-180 -532q-27 -81 -89 -136.5t-162 -89.5l-34 83q71 26 114 57t68 76l-185 542h102l133 -431l133 431h100zM202 625l100 159h107v-10l-132 -159h-75v10z" />
    <glyph glyph-name="thorn" unicode="&#xfe;" horiz-adv-x="577" 
d="M474.5 477q52.5 -75 52.5 -210q0 -132 -54.5 -206t-152.5 -74q-42 0 -77.5 16t-60.5 45v-255h-97v708v269h97v-293q53 75 146 75q94 0 146.5 -75zM427 265q0 97 -32 146t-95 49q-34 0 -62.5 -14t-55.5 -44v-271q23 -27 55 -41.5t68 -14.5q122 0 122 190z" />
    <glyph glyph-name="ydieresis" unicode="&#xff;" horiz-adv-x="518" 
d="M123.5 639q-15.5 16 -15.5 43q0 28 15.5 43.5t43.5 15.5t43.5 -15.5t15.5 -42.5q0 -28 -15.5 -44t-43.5 -16t-43.5 16zM312.5 639q-15.5 16 -15.5 43q0 28 15.5 43.5t43.5 15.5t43.5 -15.5t15.5 -42.5q0 -28 -15.5 -44t-43.5 -16t-43.5 16zM493 539l-180 -532
q-27 -81 -89 -136.5t-162 -89.5l-34 83q71 26 114 57t68 76l-185 542h102l133 -431l133 431h100z" />
    <glyph glyph-name="Amacron" unicode="&#x100;" horiz-adv-x="668" 
d="M484 809h-301v71h301v-71zM477 182h-288l-59 -182h-105l254 724h109l254 -724h-106zM448 269l-116 355l-115 -355h231z" />
    <glyph glyph-name="amacron" unicode="&#x101;" horiz-adv-x="531" 
d="M399.5 507.5q53.5 -44.5 53.5 -128.5v-379h-88v70q-51 -81 -161 -81q-79 0 -122.5 42.5t-43.5 118.5q0 96 77 142t241 47v30q0 46 -29.5 70t-87.5 24q-66 0 -126 -28l-25 78q79 39 166 39q92 0 145.5 -44.5zM356 133v134q-116 -2 -169.5 -28.5t-53.5 -81.5q0 -83 94 -83
q76 0 129 59zM103 710h301v-71h-301v71z" />
    <glyph glyph-name="Abreve" unicode="&#x102;" horiz-adv-x="668" 
d="M227 823.5q-39 40.5 -42 114.5h62q10 -79 88 -79q77 0 89 79h58q-3 -74 -42 -114.5t-106 -40.5q-68 0 -107 40.5zM477 182h-288l-59 -182h-105l254 724h109l254 -724h-106zM448 269l-116 355l-115 -355h231z" />
    <glyph glyph-name="abreve" unicode="&#x103;" horiz-adv-x="531" 
d="M399.5 507.5q53.5 -44.5 53.5 -128.5v-379h-88v70q-51 -81 -161 -81q-79 0 -122.5 42.5t-43.5 118.5q0 96 77 142t241 47v30q0 46 -29.5 70t-87.5 24q-66 0 -126 -28l-25 78q79 39 166 39q92 0 145.5 -44.5zM356 133v134q-116 -2 -169.5 -28.5t-53.5 -81.5q0 -83 94 -83
q76 0 129 59zM147 653.5q-39 40.5 -42 114.5h62q10 -79 88 -79q77 0 89 79h58q-3 -74 -42 -114.5t-106 -40.5q-68 0 -107 40.5z" />
    <glyph glyph-name="Aogonek" unicode="&#x104;" horiz-adv-x="668" 
d="M689 -192q-21 -14 -49 -22t-58 -8q-52 0 -81 25t-29 69q0 38 22.5 72t62.5 56h-21l-59 182h-288l-59 -182h-105l254 724h109l254 -724h-1q-86 -50 -86 -110q0 -42 47 -42q31 0 63 16zM448 269l-116 355l-115 -355h231z" />
    <glyph glyph-name="aogonek" unicode="&#x105;" horiz-adv-x="531" 
d="M500 -192q-21 -14 -49 -22t-58 -8q-52 0 -81 25t-29 69q0 38 22.5 72t62.5 56h-2v73q-31 -43 -70.5 -63.5t-91.5 -20.5q-79 0 -122.5 42.5t-43.5 118.5q0 96 77 142t241 47v30q0 46 -29.5 70t-87.5 24q-66 0 -126 -28l-25 78q79 39 166 39q92 0 145.5 -44.5t53.5 -128.5
v-379h-1q-86 -50 -86 -110q0 -42 47 -42q31 0 63 16zM356 133v134q-116 -2 -169.5 -28.5t-53.5 -81.5q0 -83 94 -83q76 0 129 59z" />
    <glyph glyph-name="Cacute" unicode="&#x106;" horiz-adv-x="601" 
d="M280 793l150 133h117v-12l-182 -133h-85v12zM133.5 83q-85.5 95 -85.5 265q0 117 39.5 205t111.5 136t169 48q51 0 101 -13.5t90 -37.5l-35 -78q-81 39 -158 39q-101 0 -158 -76.5t-57 -214.5q0 -136 57.5 -206t170.5 -70q90 0 151 35l35 -77q-32 -24 -82.5 -37
t-109.5 -13q-154 0 -239.5 95z" />
    <glyph glyph-name="cacute" unicode="&#x107;" horiz-adv-x="481" 
d="M111 61.5q-65 73.5 -65 205.5q0 85 30 149.5t85 100t127 35.5q41 0 82.5 -12.5t74.5 -33.5l-36 -77q-67 34 -123 34q-66 0 -103 -50t-37 -139q0 -97 38.5 -146.5t114.5 -49.5q61 0 117 32l35 -76q-30 -22 -70.5 -34t-87.5 -12q-117 0 -182 73.5zM206 625l100 159h107v-10
l-132 -159h-75v10z" />
    <glyph glyph-name="Ccircumflex" unicode="&#x108;" horiz-adv-x="601" 
d="M257 781h-74v12l117 133h101l117 -133v-12h-77l-92 86zM565 38q-32 -24 -82.5 -37t-109.5 -13q-154 0 -239.5 95t-85.5 265q0 117 39.5 205t111.5 136t169 48q51 0 101 -13.5t90 -37.5l-35 -78q-81 39 -158 39q-101 0 -158 -76.5t-57 -214.5q0 -136 57.5 -206t170.5 -70
q90 0 151 35z" />
    <glyph glyph-name="ccircumflex" unicode="&#x109;" horiz-adv-x="481" 
d="M111 61.5q-65 73.5 -65 205.5q0 85 30 149.5t85 100t127 35.5q41 0 82.5 -12.5t74.5 -33.5l-36 -77q-67 34 -123 34q-66 0 -103 -50t-37 -139q0 -97 38.5 -146.5t114.5 -49.5q61 0 117 32l35 -76q-30 -22 -70.5 -34t-87.5 -12q-117 0 -182 73.5zM414 625v-10h-71l-80 103
l-80 -103h-68v10l102 159h95z" />
    <glyph glyph-name="Cdotaccent" unicode="&#x10a;" horiz-adv-x="601" 
d="M304.5 807.5q-16.5 16.5 -16.5 45.5q0 30 16.5 46.5t46.5 16.5t47 -16.5t17 -45.5q0 -30 -17 -46.5t-47 -16.5t-46.5 16.5zM133.5 83q-85.5 95 -85.5 265q0 117 39.5 205t111.5 136t169 48q51 0 101 -13.5t90 -37.5l-35 -78q-81 39 -158 39q-101 0 -158 -76.5t-57 -214.5
q0 -136 57.5 -206t170.5 -70q90 0 151 35l35 -77q-32 -24 -82.5 -37t-109.5 -13q-154 0 -239.5 95z" />
    <glyph glyph-name="cdotaccent" unicode="&#x10b;" horiz-adv-x="481" 
d="M111 61.5q-65 73.5 -65 205.5q0 85 30 149.5t85 100t127 35.5q41 0 82.5 -12.5t74.5 -33.5l-36 -77q-67 34 -123 34q-66 0 -103 -50t-37 -139q0 -97 38.5 -146.5t114.5 -49.5q61 0 117 32l35 -76q-30 -22 -70.5 -34t-87.5 -12q-117 0 -182 73.5zM218.5 641.5
q-16.5 16.5 -16.5 45.5q0 30 16.5 46.5t46.5 16.5t47 -16.5t17 -45.5q0 -30 -17 -46.5t-47 -16.5t-46.5 16.5z" />
    <glyph glyph-name="Ccaron" unicode="&#x10c;" horiz-adv-x="601" 
d="M301 781l-117 133v12h77l92 -86l92 86h74v-12l-117 -133h-101zM565 38q-32 -24 -82.5 -37t-109.5 -13q-154 0 -239.5 95t-85.5 265q0 117 39.5 205t111.5 136t169 48q51 0 101 -13.5t90 -37.5l-35 -78q-81 39 -158 39q-101 0 -158 -76.5t-57 -214.5q0 -136 57.5 -206
t170.5 -70q90 0 151 35z" />
    <glyph glyph-name="ccaron" unicode="&#x10d;" horiz-adv-x="481" 
d="M111 61.5q-65 73.5 -65 205.5q0 85 30 149.5t85 100t127 35.5q41 0 82.5 -12.5t74.5 -33.5l-36 -77q-67 34 -123 34q-66 0 -103 -50t-37 -139q0 -97 38.5 -146.5t114.5 -49.5q61 0 117 32l35 -76q-30 -22 -70.5 -34t-87.5 -12q-117 0 -182 73.5zM415 784v-10l-102 -159
h-95l-102 159v10h71l80 -103l80 103h68z" />
    <glyph glyph-name="Dcaron" unicode="&#x10e;" horiz-adv-x="691" 
d="M289 781l-117 133v12h77l92 -86l92 86h74v-12l-117 -133h-101zM548 632.5q85 -91.5 85 -270.5t-86 -270.5t-248 -91.5h-209v724h211q162 0 247 -91.5zM472 158q58 69 58 204q0 136 -58.5 204.5t-173.5 68.5h-109v-546h111q114 0 172 69z" />
    <glyph glyph-name="dcaron" unicode="&#x10f;" horiz-adv-x="577" 
d="M491 476h1v-438h-1v-38h-89v73q-53 -86 -153 -86q-94 0 -146.5 75t-52.5 210q0 132 54.5 206t152.5 74q42 0 77 -15.5t60 -44.5v278h97v-294zM646 770v-10l-30 -208h-58v218h88zM339.5 92.5q28.5 13.5 54.5 43.5v273q-23 26 -55 40.5t-67 14.5q-122 0 -122 -190
q0 -97 32 -146t95 -49q34 0 62.5 13.5z" />
    <glyph glyph-name="Dcroat" unicode="&#x110;" horiz-adv-x="690" 
d="M548 632.5q85 -91.5 85 -270.5t-86 -270.5t-248 -91.5h-209v326h-66v81h66v317h211q162 0 247 -91.5zM472 158q58 69 58 204q0 136 -58.5 204.5t-173.5 68.5h-109v-228h177v-81h-177v-237h111q114 0 172 69z" />
    <glyph glyph-name="dcroat" unicode="&#x111;" horiz-adv-x="579" 
d="M559 616h-66v-616h-89v72q-53 -85 -153 -85q-95 0 -148 72.5t-53 203.5q0 128 55 199.5t154 71.5q42 0 77 -15t60 -44v141h-215v66h215v88h97v-88h66v-66zM341.5 92.5q28.5 13.5 54.5 43.5v255q-23 26 -55.5 41t-66.5 15q-61 0 -92.5 -46t-31.5 -136q0 -92 33 -139
t97 -47q33 0 61.5 13.5z" />
    <glyph glyph-name="Emacron" unicode="&#x112;" horiz-adv-x="576" 
d="M460 809h-301v71h301v-71zM536 89v-89h-446v724h433v-89h-334v-220h248v-90h-248v-236h347z" />
    <glyph glyph-name="emacron" unicode="&#x113;" horiz-adv-x="541" 
d="M493 241h-347q12 -164 156 -164q72 0 136 38l35 -75q-34 -25 -81 -38.5t-98 -13.5q-117 0 -181.5 74t-64.5 207q0 134 60 208.5t168 74.5q105 0 163 -68.5t58 -191.5q0 -31 -4 -51zM186 427.5q-32 -38.5 -39 -113.5h253q-2 72 -35 112t-91 40q-56 0 -88 -38.5zM125 710
h301v-71h-301v71z" />
    <glyph glyph-name="Ebreve" unicode="&#x114;" horiz-adv-x="576" 
d="M203 823.5q-39 40.5 -42 114.5h62q10 -79 88 -79q77 0 89 79h58q-3 -74 -42 -114.5t-106 -40.5q-68 0 -107 40.5zM536 89v-89h-446v724h433v-89h-334v-220h248v-90h-248v-236h347z" />
    <glyph glyph-name="ebreve" unicode="&#x115;" horiz-adv-x="541" 
d="M493 241h-347q12 -164 156 -164q72 0 136 38l35 -75q-34 -25 -81 -38.5t-98 -13.5q-117 0 -181.5 74t-64.5 207q0 134 60 208.5t168 74.5q105 0 163 -68.5t58 -191.5q0 -31 -4 -51zM186 427.5q-32 -38.5 -39 -113.5h253q-2 72 -35 112t-91 40q-56 0 -88 -38.5zM169 653.5
q-39 40.5 -42 114.5h62q10 -79 88 -79q77 0 89 79h58q-3 -74 -42 -114.5t-106 -40.5q-68 0 -107 40.5z" />
    <glyph glyph-name="Edotaccent" unicode="&#x116;" horiz-adv-x="576" 
d="M263.5 807.5q-16.5 16.5 -16.5 45.5q0 30 16.5 46.5t46.5 16.5t47 -16.5t17 -45.5q0 -30 -17 -46.5t-47 -16.5t-46.5 16.5zM536 89v-89h-446v724h433v-89h-334v-220h248v-90h-248v-236h347z" />
    <glyph glyph-name="edotaccent" unicode="&#x117;" horiz-adv-x="541" 
d="M493 241h-347q12 -164 156 -164q72 0 136 38l35 -75q-34 -25 -81 -38.5t-98 -13.5q-117 0 -181.5 74t-64.5 207q0 134 60 208.5t168 74.5q105 0 163 -68.5t58 -191.5q0 -31 -4 -51zM186 427.5q-32 -38.5 -39 -113.5h253q-2 72 -35 112t-91 40q-56 0 -88 -38.5z
M229.5 641.5q-16.5 16.5 -16.5 45.5q0 30 16.5 46.5t46.5 16.5t47 -16.5t17 -45.5q0 -30 -17 -46.5t-47 -16.5t-46.5 16.5z" />
    <glyph glyph-name="Eogonek" unicode="&#x118;" horiz-adv-x="576" 
d="M583 -192q-21 -14 -49 -22t-58 -8q-52 0 -81 25t-29 69q0 38 22.5 72t62.5 56h-361v724h433v-89h-334v-220h248v-90h-248v-236h347v-89h-1q-86 -50 -86 -110q0 -42 47 -42q31 0 63 16z" />
    <glyph glyph-name="eogonek" unicode="&#x119;" horiz-adv-x="541" 
d="M493 241h-347q12 -164 156 -164q72 0 136 38l35 -75q-4 -2 -14.5 -8.5t-21.5 -11.5q-46 -26 -73.5 -61t-27.5 -69q0 -42 47 -42q31 0 63 16l24 -56q-21 -14 -49 -22t-58 -8q-52 0 -81 25t-29 69q0 33 16.5 63t47.5 54q-9 -1 -23 -1q-117 0 -181.5 73.5t-64.5 207.5
t60 208.5t168 74.5q105 0 163 -68.5t58 -191.5q0 -31 -4 -51zM186 427.5q-32 -38.5 -39 -113.5h253q-2 72 -35 112t-91 40q-56 0 -88 -38.5z" />
    <glyph glyph-name="Ecaron" unicode="&#x11a;" horiz-adv-x="576" 
d="M260 781l-117 133v12h77l92 -86l92 86h74v-12l-117 -133h-101zM536 89v-89h-446v724h433v-89h-334v-220h248v-90h-248v-236h347z" />
    <glyph glyph-name="ecaron" unicode="&#x11b;" horiz-adv-x="541" 
d="M493 241h-347q12 -164 156 -164q72 0 136 38l35 -75q-34 -25 -81 -38.5t-98 -13.5q-117 0 -181.5 74t-64.5 207q0 134 60 208.5t168 74.5q105 0 163 -68.5t58 -191.5q0 -31 -4 -51zM186 427.5q-32 -38.5 -39 -113.5h253q-2 72 -35 112t-91 40q-56 0 -88 -38.5zM426 784
v-10l-102 -159h-95l-102 159v10h71l80 -103l80 103h68z" />
    <glyph glyph-name="Gcircumflex" unicode="&#x11c;" horiz-adv-x="668" 
d="M266 781h-74v12l117 133h101l117 -133v-12h-77l-92 86zM598 392v-352q-38 -25 -93.5 -39t-116.5 -14q-103 0 -177.5 44.5t-113.5 128.5t-39 202t39 202t113.5 128.5t177.5 44.5q56 0 108 -13.5t89 -36.5l-30 -81q-89 42 -169 42q-112 0 -168.5 -72t-56.5 -214t57 -214
t170 -72q60 0 111 16v212h-128v88h227z" />
    <glyph glyph-name="gcircumflex" unicode="&#x11d;" horiz-adv-x="579" 
d="M494 539v-533q0 -107 -63 -166.5t-176 -59.5q-43 0 -85 9t-74 25l28 82q60 -29 125 -29q73 0 110.5 35t37.5 104v84q-53 -73 -146 -73q-95 0 -148 71t-53 198q0 126 55 196t154 70q46 0 84 -19t62 -53v59h89zM342.5 122.5q28.5 13.5 54.5 43.5v241q-23 27 -55 42t-68 15
q-124 0 -124 -176q0 -89 33 -134t97 -45q34 0 62.5 13.5zM435 625v-10h-71l-80 103l-80 -103h-68v10l102 159h95z" />
    <glyph glyph-name="Gbreve" unicode="&#x11e;" horiz-adv-x="668" 
d="M253 823.5q-39 40.5 -42 114.5h62q10 -79 88 -79q77 0 89 79h58q-3 -74 -42 -114.5t-106 -40.5q-68 0 -107 40.5zM598 392v-352q-38 -25 -93.5 -39t-116.5 -14q-103 0 -177.5 44.5t-113.5 128.5t-39 202t39 202t113.5 128.5t177.5 44.5q56 0 108 -13.5t89 -36.5l-30 -81
q-89 42 -169 42q-112 0 -168.5 -72t-56.5 -214t57 -214t170 -72q60 0 111 16v212h-128v88h227z" />
    <glyph glyph-name="gbreve" unicode="&#x11f;" horiz-adv-x="579" 
d="M494 539v-533q0 -107 -63 -166.5t-176 -59.5q-43 0 -85 9t-74 25l28 82q60 -29 125 -29q73 0 110.5 35t37.5 104v84q-53 -73 -146 -73q-95 0 -148 71t-53 198q0 126 55 196t154 70q46 0 84 -19t62 -53v59h89zM342.5 122.5q28.5 13.5 54.5 43.5v241q-23 27 -55 42t-68 15
q-124 0 -124 -176q0 -89 33 -134t97 -45q34 0 62.5 13.5zM179 653.5q-39 40.5 -42 114.5h62q10 -79 88 -79q77 0 89 79h58q-3 -74 -42 -114.5t-106 -40.5q-68 0 -107 40.5z" />
    <glyph glyph-name="Gdotaccent" unicode="&#x120;" horiz-adv-x="668" 
d="M313.5 807.5q-16.5 16.5 -16.5 45.5q0 30 16.5 46.5t46.5 16.5t47 -16.5t17 -45.5q0 -30 -17 -46.5t-47 -16.5t-46.5 16.5zM598 392v-352q-38 -25 -93.5 -39t-116.5 -14q-103 0 -177.5 44.5t-113.5 128.5t-39 202t39 202t113.5 128.5t177.5 44.5q56 0 108 -13.5t89 -36.5
l-30 -81q-89 42 -169 42q-112 0 -168.5 -72t-56.5 -214t57 -214t170 -72q60 0 111 16v212h-128v88h227z" />
    <glyph glyph-name="gdotaccent" unicode="&#x121;" horiz-adv-x="579" 
d="M494 539v-533q0 -107 -63 -166.5t-176 -59.5q-43 0 -85 9t-74 25l28 82q60 -29 125 -29q73 0 110.5 35t37.5 104v84q-53 -73 -146 -73q-95 0 -148 71t-53 198q0 126 55 196t154 70q46 0 84 -19t62 -53v59h89zM342.5 122.5q28.5 13.5 54.5 43.5v241q-23 27 -55 42t-68 15
q-124 0 -124 -176q0 -89 33 -134t97 -45q34 0 62.5 13.5zM239.5 641.5q-16.5 16.5 -16.5 45.5q0 30 16.5 46.5t46.5 16.5t47 -16.5t17 -45.5q0 -30 -17 -46.5t-47 -16.5t-46.5 16.5z" />
    <glyph glyph-name="Gcommaaccent" unicode="&#x122;" horiz-adv-x="668" 
d="M598 392v-352q-38 -25 -93.5 -39t-116.5 -14q-103 0 -177.5 44.5t-113.5 128.5t-39 202t39 202t113.5 128.5t177.5 44.5q56 0 108 -13.5t89 -36.5l-30 -81q-89 42 -169 42q-112 0 -168.5 -72t-56.5 -214t57 -214t170 -72q60 0 111 16v212h-128v88h227zM269 -238
q26 28 36 55t10 67q0 18 -2 40h92q3 -33 3 -39q0 -46 -24 -84t-78 -79z" />
    <glyph glyph-name="gcommaaccent" unicode="&#x123;" horiz-adv-x="579" 
d="M494 539v-533q0 -107 -63 -166.5t-176 -59.5q-43 0 -85 9t-74 25l28 82q60 -29 125 -29q73 0 110.5 35t37.5 104v84q-53 -73 -146 -73q-95 0 -148 71t-53 198q0 126 55 196t154 70q46 0 84 -19t62 -53v59h89zM342.5 122.5q28.5 13.5 54.5 43.5v241q-23 27 -55 42t-68 15
q-124 0 -124 -176q0 -89 33 -134t97 -45q34 0 62.5 13.5zM374 774q-26 -28 -36 -55t-10 -67q0 -18 2 -40h-92q-3 33 -3 39q0 46 24 84t78 79z" />
    <glyph glyph-name="Hcircumflex" unicode="&#x124;" horiz-adv-x="702" 
d="M257 781h-74v12l117 133h101l117 -133v-12h-77l-92 86zM611 724v-724h-99v323h-323v-323h-99v724h99v-312h323v312h99z" />
    <glyph glyph-name="hcircumflex" unicode="&#x125;" horiz-adv-x="585" 
d="M132 913l-92 -86h-74v12l117 133h101l117 -133v-12h-77zM461 506.5q43 -45.5 43 -127.5v-379h-97v368q0 92 -100 92q-36 0 -65.5 -11.5t-59.5 -35.5v-413h-97v770h97v-284q63 66 157 66q79 0 122 -45.5z" />
    <glyph glyph-name="Hbar" unicode="&#x126;" horiz-adv-x="702" 
d="M679 526h-68v-526h-99v323h-323v-323h-99v526h-66v78h66v120h99v-120h323v120h99v-120h68v-78zM512 526h-323v-114h323v114z" />
    <glyph glyph-name="hbar" unicode="&#x127;" horiz-adv-x="587" 
d="M462.5 488.5q43.5 -45.5 43.5 -127.5v-361h-97v350q0 92 -101 92q-36 0 -66 -11.5t-60 -35.5v-395h-97v615h-65v68h65v87h97v-87h218v-68h-218v-147q63 66 158 66q79 0 122.5 -45.5z" />
    <glyph glyph-name="Itilde" unicode="&#x128;" horiz-adv-x="283" 
d="M158 798q-16 10 -33 28q-13 14 -21.5 20t-20.5 6q-35 0 -39 -62h-58q0 64 26 99.5t72 35.5q26 0 42 -10t33 -28q14 -14 22.5 -20t20.5 -6q17 0 26.5 15t12.5 47h57q0 -64 -26 -99.5t-72 -35.5q-26 0 -42 10zM92 724h99v-724h-99v724z" />
    <glyph glyph-name="itilde" unicode="&#x129;" horiz-adv-x="272" 
d="M152 628q-16 10 -33 28q-13 14 -21.5 20t-20.5 6q-35 0 -39 -62h-58q0 64 26 99.5t72 35.5q26 0 42 -10t33 -28q14 -14 22.5 -20t20.5 -6q17 0 26.5 15t12.5 47h57q0 -64 -26 -99.5t-72 -35.5q-26 0 -42 10zM87 539h97v-539h-97v539z" />
    <glyph glyph-name="Imacron" unicode="&#x12a;" horiz-adv-x="283" 
d="M-9 880h301v-71h-301v71zM92 724h99v-724h-99v724z" />
    <glyph glyph-name="imacron" unicode="&#x12b;" horiz-adv-x="272" 
d="M17 710h238v-71h-238v71zM87 539h97v-539h-97v539z" />
    <glyph glyph-name="Iogonek" unicode="&#x12e;" horiz-adv-x="283" 
d="M257 -192q-21 -14 -49 -22t-58 -8q-52 0 -81 25t-29 69q0 36 19 69.5t53 58.5h-20v724h99v-724h1q-69 -55 -69 -110q0 -42 47 -42q31 0 63 16z" />
    <glyph glyph-name="iogonek" unicode="&#x12f;" horiz-adv-x="272" 
d="M89.5 641.5q-16.5 16.5 -16.5 45.5q0 30 16.5 46.5t46.5 16.5t47 -16.5t17 -45.5q0 -30 -17 -46.5t-47 -16.5t-46.5 16.5zM250 -192q-21 -14 -49 -22t-58 -8q-52 0 -81 25t-29 69q0 36 19 69.5t53 58.5h-18v539h97v-539h1q-69 -55 -69 -110q0 -42 47 -42q31 0 63 16z" />
    <glyph glyph-name="Idotaccent" unicode="&#x130;" horiz-adv-x="283" 
d="M95.5 807.5q-16.5 16.5 -16.5 45.5q0 30 16.5 46.5t46.5 16.5t47 -16.5t17 -45.5q0 -30 -17 -46.5t-47 -16.5t-46.5 16.5zM92 724h99v-724h-99v724z" />
    <glyph glyph-name="dotlessi" unicode="&#x131;" horiz-adv-x="272" 
d="M87 539h97v-539h-97v539z" />
    <glyph glyph-name="IJ" unicode="&#x132;" horiz-adv-x="661" 
d="M90 724h99v-724h-99v724zM327 -4.5q-36 8.5 -65 23.5l32 83q57 -25 102 -25q93 0 93 110v537h99v-541q0 -93 -50 -144.5t-139 -51.5q-36 0 -72 8.5z" />
    <glyph glyph-name="ij" unicode="&#x133;" horiz-adv-x="544" 
d="M87 539h97v-539h-97v539zM89.5 641.5q-16.5 16.5 -16.5 45.5q0 30 16.5 46.5t46.5 16.5t47 -16.5t17 -45.5q0 -30 -17 -46.5t-47 -16.5t-46.5 16.5zM220 -141q56 20 85.5 41.5t41.5 53t12 83.5v502h97v-504q0 -74 -18 -120t-61.5 -77.5t-123.5 -58.5zM361.5 641.5
q-16.5 16.5 -16.5 45.5q0 30 16.5 46.5t46.5 16.5t47 -16.5t17 -45.5q0 -30 -17 -46.5t-47 -16.5t-46.5 16.5z" />
    <glyph glyph-name="Jcircumflex" unicode="&#x134;" horiz-adv-x="460" 
d="M492 793v-12h-77l-92 86l-92 -86h-74v12l117 133h101zM276 724h99v-541q0 -93 -54 -144.5t-151 -51.5q-49 0 -92 13t-72 36l37 78q61 -37 124 -37q109 0 109 110v537z" />
    <glyph glyph-name="jcircumflex" unicode="&#x135;" horiz-adv-x="272" 
d="M-52 -141q56 20 85.5 41.5t41.5 53t12 83.5v502h97v-504q0 -74 -18 -120t-61.5 -77.5t-123.5 -58.5zM285 625v-10h-71l-80 103l-80 -103h-68v10l102 159h95z" />
    <glyph glyph-name="Kcommaaccent" unicode="&#x136;" horiz-adv-x="624" 
d="M278 322l-89 -108v-214h-99v724h99v-383l302 383h119l-268 -325l283 -399h-119zM249 -238q26 28 36 55t10 67q0 18 -2 40h92q3 -33 3 -39q0 -46 -24 -84t-78 -79z" />
    <glyph glyph-name="kcommaaccent" unicode="&#x137;" horiz-adv-x="547" 
d="M252 239l-70 -80v-159h-97v770h97v-491l218 260h115l-199 -227l211 -312h-114zM199 -238q26 28 36 55t10 67q0 18 -2 40h92q3 -33 3 -39q0 -46 -24 -84t-78 -79z" />
    <glyph glyph-name="kgreenlandic" unicode="&#x138;" horiz-adv-x="547" 
d="M252 239l-70 -80v-159h-97v539h97v-260l218 260h115l-199 -227l211 -312h-114z" />
    <glyph glyph-name="Lacute" unicode="&#x139;" horiz-adv-x="529" 
d="M177 781h-85v12l150 133h117v-12zM501 90v-90h-411v724h99v-634h312z" />
    <glyph glyph-name="lacute" unicode="&#x13a;" horiz-adv-x="313" 
d="M61 839l150 133h117v-12l-182 -133h-85v12zM83 121v649h97v-636q0 -28 12.5 -41t39.5 -13q18 0 38 4l8 -82q-35 -8 -69 -8q-126 0 -126 127z" />
    <glyph glyph-name="Lcommaaccent" unicode="&#x13b;" horiz-adv-x="529" 
d="M501 90v-90h-411v724h99v-634h312zM209 -238q26 28 36 55t10 67q0 18 -2 40h92q3 -33 3 -39q0 -46 -24 -84t-78 -79z" />
    <glyph glyph-name="lcommaaccent" unicode="&#x13c;" horiz-adv-x="313" 
d="M83 121v649h97v-636q0 -28 12.5 -41t39.5 -13q18 0 38 4l8 -82q-35 -8 -69 -8q-126 0 -126 127zM85 -238q26 28 36 55t10 67q0 18 -2 40h92q3 -33 3 -39q0 -46 -24 -84t-78 -79z" />
    <glyph glyph-name="Lcaron" unicode="&#x13d;" horiz-adv-x="529" 
d="M364 552h-58v218h88v-10zM501 90v-90h-411v724h99v-634h312z" />
    <glyph glyph-name="lcaron" unicode="&#x13e;" horiz-adv-x="315" 
d="M83 121v649h97v-636q0 -28 12.5 -41t39.5 -13q18 0 38 4l8 -82q-35 -8 -69 -8q-126 0 -126 127zM256 770h88v-10l-30 -208h-58v218z" />
    <glyph glyph-name="Ldot" unicode="&#x13f;" horiz-adv-x="529" 
d="M501 90v-90h-411v724h99v-634h312zM350.5 353.5q-16.5 16.5 -16.5 45.5q0 30 16.5 46.5t46.5 16.5t47 -16.5t17 -45.5q0 -30 -17 -46.5t-47 -16.5t-46.5 16.5z" />
    <glyph glyph-name="ldot" unicode="&#x140;" horiz-adv-x="382" 
d="M83 121v649h97v-636q0 -28 12.5 -41t39.5 -13q18 0 38 4l8 -82q-35 -8 -69 -8q-126 0 -126 127zM276.5 347.5q-16.5 16.5 -16.5 45.5q0 30 16.5 46.5t46.5 16.5t47 -16.5t17 -45.5q0 -30 -17 -46.5t-47 -16.5t-46.5 16.5z" />
    <glyph glyph-name="Lslash" unicode="&#x141;" horiz-adv-x="533" 
d="M505 90v-90h-411v253l-51 -32h-10v83l61 35v385h99v-329l207 124h10v-83l-217 -125v-221h312z" />
    <glyph glyph-name="lslash" unicode="&#x142;" horiz-adv-x="350" 
d="M204 391v-257q0 -28 12.5 -41t39.5 -13q18 0 38 4l8 -82q-35 -8 -69 -8q-126 0 -126 127v207l-72 -49h-10v81l82 52v358h97v-294l93 63h10v-81z" />
    <glyph glyph-name="Nacute" unicode="&#x143;" horiz-adv-x="724" 
d="M376 781h-85v12l150 133h117v-12zM633 724v-724h-94l-352 557v-557h-97v724h94l352 -555v555h97z" />
    <glyph glyph-name="nacute" unicode="&#x144;" horiz-adv-x="583" 
d="M459 506.5q43 -45.5 43 -127.5v-379h-97v368q0 92 -99 92q-35 0 -64.5 -11.5t-59.5 -35.5v-413h-97v539h89v-61q66 74 164 74q78 0 121 -45.5zM236 625l100 159h107v-10l-132 -159h-75v10z" />
    <glyph glyph-name="Ncommaaccent" unicode="&#x145;" horiz-adv-x="724" 
d="M633 724v-724h-94l-352 557v-557h-97v724h94l352 -555v555h97zM271 -238q26 28 36 55t10 67q0 18 -2 40h92q3 -33 3 -39q0 -46 -24 -84t-78 -79z" />
    <glyph glyph-name="ncommaaccent" unicode="&#x146;" horiz-adv-x="583" 
d="M459 506.5q43 -45.5 43 -127.5v-379h-97v368q0 92 -99 92q-35 0 -64.5 -11.5t-59.5 -35.5v-413h-97v539h89v-61q66 74 164 74q78 0 121 -45.5zM205 -238q26 28 36 55t10 67q0 18 -2 40h92q3 -33 3 -39q0 -46 -24 -84t-78 -79z" />
    <glyph glyph-name="Ncaron" unicode="&#x147;" horiz-adv-x="724" 
d="M312 781l-117 133v12h77l92 -86l92 86h74v-12l-117 -133h-101zM633 724v-724h-94l-352 557v-557h-97v724h94l352 -555v555h97z" />
    <glyph glyph-name="ncaron" unicode="&#x148;" horiz-adv-x="583" 
d="M459 506.5q43 -45.5 43 -127.5v-379h-97v368q0 92 -99 92q-35 0 -64.5 -11.5t-59.5 -35.5v-413h-97v539h89v-61q66 74 164 74q78 0 121 -45.5zM445 784v-10l-102 -159h-95l-102 159v10h71l80 -103l80 103h68z" />
    <glyph glyph-name="napostrophe" unicode="&#x149;" horiz-adv-x="583" 
d="M459 506.5q43 -45.5 43 -127.5v-379h-97v368q0 92 -99 92q-35 0 -64.5 -11.5t-59.5 -35.5v-413h-97v539h89v-61q66 74 164 74q78 0 121 -45.5zM-70 574q32 34 45.5 68t13.5 80q0 26 -2 48h91q2 -22 2 -47q0 -53 -27.5 -98t-86.5 -89z" />
    <glyph glyph-name="Omacron" unicode="&#x14c;" horiz-adv-x="714" 
d="M206 880h301v-71h-301v71zM135 82q-77 95 -77 280t77 280t222 95t222 -95t77 -280t-77 -280t-222 -95t-222 95zM503.5 148q49.5 72 49.5 214t-49.5 214t-146.5 72t-146.5 -72t-49.5 -214t49.5 -214t146.5 -72t146.5 72z" />
    <glyph glyph-name="omacron" unicode="&#x14d;" horiz-adv-x="558" 
d="M109.5 59q-59.5 72 -59.5 210q0 139 59.5 211t170.5 72q110 0 169 -72t59 -211q0 -138 -59.5 -210t-169.5 -72t-169.5 72zM375.5 123q32.5 49 32.5 146t-32.5 146.5t-95.5 49.5q-64 0 -97 -49.5t-33 -146.5t32.5 -146t96.5 -49t96.5 49zM129 710h301v-71h-301v71z" />
    <glyph glyph-name="Ohungarumlaut" unicode="&#x150;" horiz-adv-x="714" 
d="M221 793l98 133h99v-12l-129 -133h-68v12zM382 793l98 133h100v-12l-129 -133h-69v12zM135 82q-77 95 -77 280t77 280t222 95t222 -95t77 -280t-77 -280t-222 -95t-222 95zM503.5 148q49.5 72 49.5 214t-49.5 214t-146.5 72t-146.5 -72t-49.5 -214t49.5 -214t146.5 -72
t146.5 72z" />
    <glyph glyph-name="ohungarumlaut" unicode="&#x151;" horiz-adv-x="558" 
d="M109.5 59q-59.5 72 -59.5 210q0 139 59.5 211t170.5 72q110 0 169 -72t59 -211q0 -138 -59.5 -210t-169.5 -72t-169.5 72zM375.5 123q32.5 49 32.5 146t-32.5 146.5t-95.5 49.5q-64 0 -97 -49.5t-33 -146.5t32.5 -146t96.5 -49t96.5 49zM163 625l59 159h94v-10l-90 -159
h-63v10zM309 625l60 159h94v-10l-91 -159h-63v10z" />
    <glyph glyph-name="OE" unicode="&#x152;" horiz-adv-x="962" 
d="M922 89v-89h-429h-136q-145 0 -222 91.5t-77 270.5t77 270.5t222 91.5h174h378v-89h-320v-220h235v-90h-235v-236h333zM493 89v546h-136q-97 0 -146.5 -68.5t-49.5 -204.5q0 -135 49.5 -204t146.5 -69h136z" />
    <glyph glyph-name="oe" unicode="&#x153;" horiz-adv-x="881" 
d="M833 241h-338q5 -81 43 -122.5t108 -41.5q67 0 132 38l35 -75q-34 -25 -80 -38.5t-95 -13.5q-127 0 -189 94q-28 -47 -72.5 -71t-102.5 -24q-107 0 -165.5 72t-58.5 210q0 139 58.5 211t166.5 72q58 0 102.5 -24.5t72.5 -71.5q24 46 68 71t102 25q103 0 160 -68.5
t57 -191.5q0 -32 -4 -51zM496 314h244q-2 72 -33.5 112t-88.5 40q-108 0 -122 -152zM400 269q0 97 -31.5 146.5t-93.5 49.5t-93.5 -49.5t-31.5 -146.5t31 -146t93 -49q126 0 126 195z" />
    <glyph glyph-name="Racute" unicode="&#x154;" horiz-adv-x="633" 
d="M331 781h-85v12l150 133h117v-12zM313 269h-124v-269h-99v724h99h148q109 0 169 -60t60 -167q0 -85 -38 -141t-110 -76l186 -280h-120zM189 356h148q126 0 126 140q0 69 -33 104.5t-97 35.5h-144v-280z" />
    <glyph glyph-name="racute" unicode="&#x155;" horiz-adv-x="401" 
d="M383 537l-21 -93q-37 10 -67 10q-38 0 -64.5 -14.5t-48.5 -47.5v-392h-97v539h89v-80q55 91 145 91q34 0 64 -13zM174 625l100 159h107v-10l-132 -159h-75v10z" />
    <glyph glyph-name="Rcommaaccent" unicode="&#x156;" horiz-adv-x="633" 
d="M313 269h-124v-269h-99v724h99h148q109 0 169 -60t60 -167q0 -85 -38 -141t-110 -76l186 -280h-120zM189 356h148q126 0 126 140q0 69 -33 104.5t-97 35.5h-144v-280zM245 -238q26 28 36 55t10 67q0 18 -2 40h92q3 -33 3 -39q0 -46 -24 -84t-78 -79z" />
    <glyph glyph-name="rcommaaccent" unicode="&#x157;" horiz-adv-x="401" 
d="M383 537l-21 -93q-37 10 -67 10q-38 0 -64.5 -14.5t-48.5 -47.5v-392h-97v539h89v-80q55 91 145 91q34 0 64 -13zM43 -238q26 28 36 55t10 67q0 18 -2 40h92q3 -33 3 -39q0 -46 -24 -84t-78 -79z" />
    <glyph glyph-name="Rcaron" unicode="&#x158;" horiz-adv-x="633" 
d="M267 781l-117 133v12h77l92 -86l92 86h74v-12l-117 -133h-101zM313 269h-124v-269h-99v724h99h148q109 0 169 -60t60 -167q0 -85 -38 -141t-110 -76l186 -280h-120zM189 356h148q126 0 126 140q0 69 -33 104.5t-97 35.5h-144v-280z" />
    </font>
</defs>
</svg>
