<svg xmlns="http://www.w3.org/2000/svg" width="37.685" height="24.765" viewBox="0 0 37.685 24.765" fill="#FF7900">
  <path id="Currency_money_19371" d="M36.988,7.6v19.38H3.611v2.153H39.141V7.6Zm-18.3,1.077a6.46,6.46,0,1,0,6.46,6.46A6.46,6.46,0,0,0,18.684,8.678ZM8.456,13.523a1.615,1.615,0,1,0,1.615,1.615A1.615,1.615,0,0,0,8.456,13.523Zm20.457,0a1.615,1.615,0,1,0,1.615,1.615A1.615,1.615,0,0,0,28.913,13.523Zm7-9.152H1.457V25.905H35.911Zm-2.153,16.15a3.23,3.23,0,0,0-3.23,3.23H6.841a3.23,3.23,0,0,0-3.23-3.23V9.755a3.23,3.23,0,0,0,3.23-3.23H30.528a3.23,3.23,0,0,0,3.23,3.23Z" transform="translate(-1.457 -4.371)" fill-rule="evenodd"/>
</svg>
