<svg xmlns="http://www.w3.org/2000/svg" width="16" height="17.861" viewBox="0 0 16 17.861">
    <defs>
        <style>
            .cls-1{fill:#fff}
        </style>
    </defs>
    <g id="noun_sun" transform="translate(-441.017 -211.714)">
        <g id="Group_573" data-name="Group 573" transform="translate(441.017 211.714)">
            <g id="Group_572" data-name="Group 572">
                <path id="Path_1018" d="M30.463 25.266a5.144 5.144 0 1 0 5.2 5.143 5.176 5.176 0 0 0-5.2-5.143zm0 9.146a4 4 0 1 1 4.044-4 4.027 4.027 0 0 1-4.044 4z" class="cls-1" data-name="Path 1018" transform="translate(-22.463 -21.479)"/>
                <path id="Path_1019" d="M46.369 10.479c.029.145.061.263.088.43 0 .012.005.019.007.033a.456.456 0 0 0 .441.369l.478.01a.457.457 0 0 0 .335-.136.444.444 0 0 0 .129-.334 5.273 5.273 0 0 0-.505-1.891.438.438 0 0 0-.409-.247l-.476.014a.438.438 0 0 0-.425.437.408.408 0 0 0 .031.159 8.323 8.323 0 0 1 .306 1.156z" class="cls-1" data-name="Path 1019" transform="translate(-38.94 -8.714)"/>
                <path id="Path_1020" d="M47.507 80.726c-.029-.146-.061-.263-.088-.429 0-.012-.005-.02-.007-.033a.455.455 0 0 0-.442-.37l-.478-.011a.456.456 0 0 0-.335.137.441.441 0 0 0-.13.332 5.286 5.286 0 0 0 .506 1.892.438.438 0 0 0 .409.247l.476-.014a.439.439 0 0 0 .351-.2.425.425 0 0 0 .074-.242.447.447 0 0 0-.03-.159 7.883 7.883 0 0 1-.306-1.15z" class="cls-1" data-name="Path 1020" transform="translate(-38.936 -64.631)"/>
                <path id="Path_1021" d="M15.829 29.155a.45.45 0 0 0-.226-.278 5.293 5.293 0 0 0-1.891-.507.433.433 0 0 0-.416.231l-.227.419a.443.443 0 0 0-.005.4.437.437 0 0 0 .326.237 7.828 7.828 0 0 1 1.154.31c.14.048.258.079.415.138.011.005.02.006.031.011a.457.457 0 0 0 .543-.2l.247-.408a.465.465 0 0 0 .049-.353z" class="cls-1" data-name="Path 1021" transform="translate(-13.017 -24.142)"/>
                <path id="Path_1022" d="M77.23 64.4a.458.458 0 0 0-.152-.054 8.072 8.072 0 0 1-1.155-.312c-.14-.048-.259-.079-.416-.138l-.031-.011a.459.459 0 0 0-.542.2l-.248.409a.46.46 0 0 0-.051.359.449.449 0 0 0 .226.278 5.3 5.3 0 0 0 1.891.509.446.446 0 0 0 .419-.231l.225-.421a.439.439 0 0 0-.167-.585z" class="cls-1" data-name="Path 1022" transform="translate(-61.449 -51.998)"/>
                <path id="Path_1023" d="M16.071 62.464a.463.463 0 0 0-.286-.223.44.44 0 0 0-.352.055 5.3 5.3 0 0 0-1.387 1.384.441.441 0 0 0-.009.478l.251.405a.435.435 0 0 0 .345.206.455.455 0 0 0 .247-.057.412.412 0 0 0 .12-.105 8.072 8.072 0 0 1 .847-.843c.112-.1.2-.185.327-.291a.225.225 0 0 1 .025-.021.461.461 0 0 0 .1-.568z" class="cls-1" data-name="Path 1023" transform="translate(-13.753 -50.756)"/>
                <path id="Path_1024" d="M75.885 28.956a.459.459 0 0 0 .287.222.439.439 0 0 0 .353-.056 5.266 5.266 0 0 0 1.385-1.384.439.439 0 0 0 .01-.476l-.252-.407a.442.442 0 0 0-.345-.206.429.429 0 0 0-.368.163 8 8 0 0 1-.847.844c-.112.1-.2.186-.327.291l-.024.021a.459.459 0 0 0-.1.567z" class="cls-1" data-name="Path 1024" transform="translate(-62.204 -22.804)"/>
            </g>
        </g>
    </g>
</svg>
