<svg xmlns="http://www.w3.org/2000/svg" width="54.267" height="28.25" viewBox="0 0 54.267 28.25">
  <g id="Group_14363" data-name="Group 14363" transform="translate(-703.77 -890.124)">
    <path id="Path_1" data-name="Path 1" d="M69.95,598.885H53.75a3.295,3.295,0,0,0,0,6.59h8.26l-13.3,13.32a3.292,3.292,0,1,0,4.651,4.66l13.3-13.32v8.274a3.289,3.289,0,1,0,6.578,0V602.18a3.292,3.292,0,0,0-3.289-3.295" transform="translate(656.02 293.955)"/>
    <path id="Path_2" data-name="Path 2" d="M109.5,618.9h16.2a3.295,3.295,0,0,0,0-6.59h-8.26l13.3-13.32a3.292,3.292,0,1,0-4.651-4.66l-13.3,13.32v-8.275a3.289,3.289,0,1,0-6.578,0v16.229A3.292,3.292,0,0,0,109.5,618.9" transform="translate(626.335 296.757)"/>
  </g>
</svg>
