<svg xmlns="http://www.w3.org/2000/svg" width="37.292" height="24.13" viewBox="0 0 37.292 24.13">
  <path id="Payment_card" data-name="Payment card" d="M109,249.13H78.29a3.29,3.29,0,0,1-3.29-3.29V228.29A3.29,3.29,0,0,1,78.29,225H109a3.29,3.29,0,0,1,3.29,3.29v17.549a3.29,3.29,0,0,1-3.29,3.29ZM78.29,246.936H109a1.1,1.1,0,0,0,1.1-1.1v-9.871h-32.9v9.871A1.1,1.1,0,0,0,78.29,246.936ZM109,227.194H78.29a1.1,1.1,0,0,0-1.1,1.1v3.29h32.9v-3.29A1.1,1.1,0,0,0,109,227.194ZM81.032,241.452h2.194a1.645,1.645,0,0,1,0,3.29H81.032a1.645,1.645,0,0,1,0-3.29Zm7.678,0H90.9a1.645,1.645,0,0,1,0,3.29H88.71a1.645,1.645,0,0,1,0-3.29Zm7.678,0h2.194a1.645,1.645,0,0,1,0,3.29H96.388a1.645,1.645,0,0,1,0-3.29Z" transform="translate(-75 -225)" fill-rule="evenodd"/>
</svg>
