<svg xmlns="http://www.w3.org/2000/svg" xmlns:xlink="http://www.w3.org/1999/xlink" width="371.894" height="272.472" viewBox="0 0 371.894 272.472">
  <defs>
    <clipPath id="clip-path">
      <path id="Path_210597" data-name="Path 210597" d="M9-16H380.894V245.236H208.813l-13.284,11.236-13.269-11.236H9Z" transform="translate(-129.576 16)" fill="#fff"/>
    </clipPath>
  </defs>
  <g id="Mask_Group_371" data-name="Mask Group 371" transform="translate(120.576)" opacity="0.24" clip-path="url(#clip-path)">
    <path id="Union_141" data-name="Union 141" d="M577.408,686.672l7.333-8.318,35.892,37.653-7.4,7.629Zm35.83,33.6,4.144-4.276-32.575-34.175L580.6,686.6Zm-197.384-33.6,7.332-8.318,35.891,37.653-7.394,7.629Zm35.828,33.6,4.144-4.276L423.25,681.818l-4.208,4.778ZM254.3,686.672l7.332-8.318,35.891,37.653-7.394,7.629Zm35.828,33.6,4.144-4.276-32.575-34.175-4.208,4.778Zm-197.384-33.6,7.33-8.318,35.892,37.653-7.393,7.629Zm35.829,33.6,4.144-4.276-32.577-34.175L95.93,686.6Zm482.94-22.131L630.549,678.6l7.4,7.633L626.4,698.156l3.959,4.227,5.537-5.911,7.861,7.6-13.407,13.605Zm18.853,16.181,10.058-10.2-4.449-4.3-5.617,5.995-7.2-7.679,11.526-11.893-4.142-4.269-15.772,16.18ZM449.954,698.138,468.993,678.6l7.4,7.633-11.553,11.92,3.959,4.227,5.537-5.911,7.861,7.6L468.79,717.679Zm18.854,16.181,10.057-10.2-4.449-4.3-5.617,5.995-7.2-7.679,11.526-11.893-4.141-4.269-15.771,16.18ZM288.4,698.138,307.438,678.6l7.4,7.633-11.553,11.92,3.959,4.227,5.538-5.911,7.859,7.6-13.407,13.605Zm18.854,16.181,10.057-10.2-4.448-4.3-5.618,5.995-7.2-7.679,11.526-11.893-4.142-4.269-15.771,16.18Zm-180.41-16.181L145.881,678.6l7.4,7.633-11.553,11.92,3.959,4.227,5.538-5.911,7.861,7.6-13.408,13.605ZM145.7,714.32l10.058-10.2-4.449-4.3-5.618,5.995-7.2-7.679,11.526-11.893-4.142-4.269-15.771,16.18ZM668.97,698.614l7.293-8.778,13.583,14.24-7.329,8.066Zm3.165-.151,10.3,10.285,4.209-4.633L676.38,693.352Zm-164.721.151,7.293-8.778,13.583,14.24-7.33,8.066Zm13.467,10.134,4.209-4.633-10.266-10.763-4.245,5.11ZM345.857,698.614l7.293-8.778,13.583,14.24-7.33,8.066Zm13.467,10.134,4.21-4.633-10.266-10.763-4.246,5.11ZM184.3,698.614l7.293-8.778,13.584,14.24-7.332,8.066Zm13.465,10.134,4.211-4.633-10.266-10.763-4.245,5.11ZM22.744,698.614l7.294-8.778,13.584,14.24-7.33,8.066Zm13.468,10.134,4.208-4.633L30.155,693.352l-4.244,5.11Zm506.156-22.513,7.4-7.634,11.54,11.9,5.77-5.952,7.4,7.637-13.172,13.589Zm18.941,16.176,9.909-10.221-4.139-4.27-5.77,5.952-11.54-11.9-4.136,4.268Zm-180.5-16.176,7.4-7.634,11.54,11.9,5.77-5.952,7.4,7.637-13.172,13.589Zm18.941,16.176,9.909-10.221-4.139-4.27-5.77,5.952-11.54-11.9-4.138,4.268Zm-180.5-16.176,7.4-7.634,11.54,11.9,5.77-5.952,7.4,7.637L238.2,705.779ZM238.2,702.411,248.1,692.19l-4.139-4.27-5.77,5.952-11.54-11.9-4.138,4.268ZM57.7,686.235l7.4-7.634,11.54,11.9,5.77-5.952,7.4,7.637L76.641,705.779Zm18.942,16.176,9.907-10.221-4.138-4.27-5.77,5.952-11.54-11.9-4.139,4.268Zm563.632-10.2,5.607-5.985-5.423-5.993,7.81-7.556,11.5,11.88,5.361-5.544,7.409,7.419-19.01,19.342Zm13.259,10.213,15.707-15.978-4.084-4.088-5.385,5.567-11.555-11.932-4.5,4.35,5.346,5.912-5.549,5.919ZM478.717,692.207l5.607-5.985-5.423-5.993,7.81-7.556,11.5,11.88,5.362-5.544,7.406,7.419-19.009,19.342Zm13.259,10.213,15.707-15.978-4.084-4.088-5.385,5.567-11.555-11.932-4.5,4.35,5.347,5.912-5.547,5.919ZM317.161,692.207l5.607-5.985-5.423-5.993,7.81-7.556,11.5,11.88,5.362-5.544,7.408,7.419-19.01,19.342Zm13.259,10.213,15.707-15.978-4.083-4.088-5.386,5.567L325.1,675.989l-4.5,4.35,5.348,5.912-5.547,5.919ZM155.605,692.207l5.607-5.985-5.423-5.993,7.81-7.556,11.5,11.88,5.362-5.544,7.408,7.419-19.01,19.342Zm13.259,10.213,15.707-15.978-4.083-4.088-5.385,5.567-11.556-11.932-4.5,4.35,5.348,5.912-5.547,5.919Zm511.6-16.579,7.4-7.637,13.557,13.986-7.4,7.634Zm3.263,0,10.293,10.617,4.138-4.268-10.293-10.62Zm-164.82,0,7.4-7.637,13.557,13.986-7.4,7.634Zm13.556,10.617,4.137-4.268-10.292-10.62-4.138,4.27ZM357.348,685.841l7.4-7.637,13.556,13.986-7.4,7.634ZM370.9,696.458l4.139-4.268-10.291-10.62-4.139,4.27ZM195.79,685.841l7.4-7.637,13.555,13.986-7.4,7.634Zm13.556,10.617,4.139-4.268-10.291-10.62-4.139,4.27ZM34.234,685.841l7.4-7.637L55.193,692.19l-7.4,7.634Zm13.557,10.617,4.138-4.268-10.293-10.62-4.138,4.27Zm551.89-9.825,19.326-19.938,7.4,7.637-19.327,19.938Zm7.4,4.27,16.064-16.572-4.139-4.269-16.062,16.571Zm-168.957-4.27,19.326-19.938,7.4,7.637-19.327,19.938Zm7.4,4.27,16.064-16.572-4.139-4.269-16.063,16.571Zm-168.957-4.27L295.9,666.694l7.4,7.637-19.326,19.938Zm7.4,4.27,16.063-16.572-4.139-4.269-16.063,16.571Zm-168.958-4.27,19.327-19.938,7.4,7.637-19.326,19.938Zm7.4,4.27,16.062-16.572-4.138-4.269-16.064,16.571Zm542.751-20.841-5.77,5.954-7.4-7.637,30.481-31.447,18.955,19.555-7.422,7.4L682.483,652.2l-9.927,10.243,4.151,4.426,5.757-6.138,7.416,7.65-13.172,13.589Zm11.54,8.54,9.909-10.223-4.126-4.255-5.783,6.165-7.389-7.876,13.152-13.568,11.553,11.72,4.117-4.107L682.477,640.3l-27.217,28.08,4.138,4.268,5.77-5.952ZM571.217,656.473l7.4-7.635,17.31,17.856,11.54-11.9,7.4,7.637-18.942,19.541Zm3.263,0L595.928,678.6l15.679-16.175-4.139-4.269-11.54,11.9L578.618,652.2Zm-7.4,19.542-5.77,5.952-7.4-7.636,13.171-13.589,13.172,13.589-7.4,7.636Zm5.77,2.586,4.139-4.27-9.909-10.221-9.907,10.221,4.138,4.27,5.77-5.955Zm-69.238-8.54-5.77,5.954-7.4-7.637,30.48-31.447,18.955,19.555-7.422,7.4L520.927,652.2,511,662.44l4.151,4.426,5.755-6.138,7.417,7.65L515.15,681.968Zm11.54,8.54,9.908-10.223-4.124-4.255-5.783,6.165-7.389-7.876,13.152-13.568,11.553,11.72,4.118-4.107L520.92,640.3,493.7,668.379l4.137,4.268,5.77-5.952ZM409.661,656.473l7.4-7.635,17.31,17.856,11.54-11.9,7.4,7.637-18.942,19.541Zm3.263,0L434.372,678.6l15.679-16.175-4.139-4.269-11.54,11.9L417.062,652.2Zm-7.4,19.542-5.77,5.952-7.4-7.636,13.171-13.589,13.172,13.589-7.4,7.636Zm5.77,2.586,4.139-4.27-9.909-10.221-9.908,10.221,4.138,4.27,5.77-5.955Zm-69.238-8.54-5.77,5.954-7.4-7.637,30.481-31.447,18.956,19.555-7.422,7.4L359.371,652.2l-9.927,10.243,4.151,4.426,5.755-6.138,7.417,7.65-13.172,13.589Zm11.54,8.54,9.907-10.223-4.124-4.255-5.783,6.165-7.389-7.876,13.152-13.568,11.553,11.72,4.118-4.107L359.364,640.3l-27.217,28.08,4.138,4.268,5.77-5.952ZM248.1,656.473l7.4-7.635,17.31,17.856,11.54-11.9,7.4,7.637-18.942,19.541Zm3.263,0L272.815,678.6l15.679-16.175-4.139-4.269-11.54,11.9L255.506,652.2Zm-7.4,19.542-5.77,5.952-7.4-7.636,13.171-13.589,13.172,13.589-7.4,7.636Zm5.77,2.586,4.139-4.27-9.909-10.221-9.907,10.221,4.138,4.27,5.77-5.955Zm-69.239-8.54-5.767,5.954-7.4-7.637,30.481-31.447,18.957,19.555-7.422,7.4L197.815,652.2l-9.927,10.243,4.15,4.426,5.757-6.138,7.416,7.65-13.172,13.589Zm11.54,8.54,9.909-10.223-4.123-4.255-5.786,6.165-7.388-7.876L197.8,648.845l11.553,11.72,4.117-4.107L197.807,640.3l-27.216,28.08,4.139,4.268,5.767-5.952ZM86.549,656.473l7.4-7.635,17.31,17.856,11.54-11.9,7.4,7.637-18.941,19.541Zm3.263,0L111.261,678.6l15.677-16.175-4.138-4.269-11.54,11.9L93.951,652.2Zm-7.4,19.542-5.77,5.952-7.4-7.636,13.172-13.589,13.171,13.589-7.4,7.636Zm5.77,2.586,4.138-4.27L82.411,664.11,72.5,674.331l4.139,4.27,5.77-5.955Zm-69.239-8.54-5.77,5.954-7.4-7.637,30.482-31.447,18.955,19.555-7.422,7.4L36.258,652.2,26.331,662.44l4.151,4.426,5.757-6.138,7.414,7.65L30.482,681.968Zm11.54,8.54,9.907-10.223-4.124-4.255-5.783,6.165-7.389-7.876,13.152-13.568L47.8,660.565l4.116-4.107L36.252,640.3,9.035,668.379l4.138,4.268,5.77-5.952Zm500.731-4.668L544,660.742l7.4,7.636-12.788,13.192Zm3.263,0,4.137,4.27,9.524-9.826L544,664.11Zm-164.82,0,12.786-13.192,7.4,7.636-12.787,13.192Zm3.263,0,4.138,4.27,9.524-9.826-4.139-4.269Zm-164.82,0,12.786-13.192,7.4,7.636L215.5,681.571Zm3.263,0,4.138,4.27,9.524-9.826-4.139-4.269Zm-164.819,0,12.787-13.192,7.4,7.636L53.945,681.571Zm3.263,0,4.138,4.27,9.524-9.826-4.138-4.269Zm556.029-29.365,7.4-7.637,23.08,23.81,11.54-11.9,7.4,7.635-18.942,19.542Zm3.263,0,27.217,28.078L652,656.473l-4.139-4.269-11.54,11.906L613.238,640.3Zm-164.82,0,7.4-7.637,23.08,23.81,11.54-11.9,7.4,7.635-18.942,19.542Zm3.263,0,27.217,28.078,15.679-16.173L486.3,652.2l-11.54,11.906L451.681,640.3Zm-164.82,0,7.4-7.637,23.08,23.81,11.54-11.9,7.4,7.635L313.2,676.016Zm3.263,0L313.2,672.646l15.679-16.173-4.139-4.269L313.2,664.11,290.125,640.3Zm-164.82,0,7.4-7.637,23.08,23.81,11.54-11.9,7.4,7.635L151.65,676.016Zm3.263,0,27.219,28.078,15.676-16.173L163.19,652.2,151.65,664.11,128.57,640.3Zm423.706,11.9,18.941-19.541,7.4,7.637L555.538,664.11Zm3.265,0,4.136,4.269,15.679-16.174-4.139-4.27Zm-164.821,0,18.941-19.541,7.4,7.637L393.982,664.11Zm3.263,0,4.138,4.269,15.679-16.174-4.139-4.27Zm-164.82,0,18.941-19.541,7.4,7.637L232.426,664.11Zm3.263,0,4.138,4.269L248.1,644.569l-4.139-4.27Zm-164.819,0,18.942-19.541,7.4,7.637L70.871,664.11Zm3.263,0,4.139,4.269,15.677-16.174-4.138-4.27Zm521.795-5.952,7.4-7.637,7.4,7.637-7.4,7.636Zm3.263,0,4.138,4.269,4.139-4.269-4.139-4.271Zm-164.819,0,7.4-7.637,7.4,7.637-7.4,7.636Zm3.263,0,4.138,4.269,4.139-4.269-4.139-4.271Zm-164.819,0,7.4-7.637,7.4,7.637-7.4,7.636Zm3.263,0,4.138,4.269,4.139-4.269-4.139-4.271Zm-164.819,0,7.4-7.637,7.4,7.637-7.4,7.636Zm3.263,0,4.139,4.269,4.138-4.269-4.138-4.271ZM647.857,640.3,636.317,652.2l-7.4-7.635,11.54-11.907-4.139-4.268-11.54,11.9-7.4-7.637,18.941-19.541L666.8,644.569l-7.4,7.635Zm11.54,8.539,4.139-4.269-27.219-28.08L620.64,632.662l4.137,4.27,11.54-11.906,7.4,7.635-11.54,11.907,4.137,4.269,11.54-11.906ZM486.3,640.3,474.761,652.2l-7.4-7.635,11.54-11.907-4.139-4.268-11.54,11.9-7.4-7.637,18.941-19.541,30.482,31.448-7.4,7.635Zm11.54,8.539,4.139-4.269-27.219-28.08-15.677,16.173,4.137,4.27,11.54-11.906,7.4,7.635-11.54,11.907,4.138,4.269,11.54-11.906Zm-173.1-8.539L313.2,652.2l-7.4-7.635,11.54-11.907-4.139-4.268-11.54,11.9-7.4-7.637L313.2,613.121l30.482,31.448-7.4,7.635Zm11.54,8.539,4.138-4.269L313.2,616.489l-15.677,16.173,4.138,4.27,11.54-11.906,7.4,7.635-11.54,11.907,4.138,4.269,11.54-11.906ZM163.19,640.3,151.65,652.2l-7.4-7.635,11.538-11.907-4.136-4.268-11.54,11.9-7.4-7.637,18.942-19.541,30.481,31.448-7.4,7.635Zm11.54,8.539,4.136-4.269-27.216-28.08-15.679,16.173,4.139,4.27,11.54-11.906,7.4,7.635-11.54,11.907,4.139,4.269,11.54-11.906Zm350.328-16.176,13.171-13.589,7.4,7.637-5.77,5.952,11.155,11.51-7.4,7.637Zm3.265,0,15.292,15.779,4.139-4.269L536.6,632.662l5.77-5.952-4.139-4.269Zm-164.821,0,13.171-13.589,7.4,7.637-5.769,5.952,11.155,11.51-7.4,7.637Zm3.265,0,15.294,15.779,4.136-4.269-11.155-11.51,5.77-5.952-4.139-4.269Zm-164.821,0,13.171-13.589,7.4,7.637-5.77,5.952,11.156,11.51-7.4,7.637Zm3.263,0L220.5,648.441l4.138-4.269-11.155-11.51,5.77-5.952-4.139-4.269Zm-164.82,0,13.172-13.589,7.4,7.637-5.77,5.952,11.155,11.51-7.4,7.637Zm3.263,0,15.294,15.779,4.138-4.269-11.155-11.51,5.77-5.952-4.138-4.269Zm527.564,0,7.4-7.635,13.172,13.589-7.4,7.635Zm3.263,0,9.907,10.223,4.139-4.269-9.909-10.221Zm-164.82,0,7.4-7.635,13.172,13.589-7.4,7.635Zm3.263,0,9.907,10.223,4.139-4.269-9.909-10.221Zm-164.82,0,7.4-7.635,13.172,13.589-7.4,7.635Zm3.263,0,9.907,10.223,4.139-4.269-9.909-10.221Zm-164.82,0,7.4-7.635,13.171,13.589-7.4,7.635Zm3.263,0,9.909,10.223,4.138-4.269-9.907-10.221Zm573.724,0,24.326-25.1,7.4,7.637-24.327,25.1Zm3.263,0,4.138,4.27L692,615.2l-4.139-4.27Zm-84.042-11.9,7.4-7.637,11.54,11.906,23.079-23.81,7.4,7.635L601.7,640.3Zm3.263,0L601.7,636.932l27.218-28.08-4.139-4.269L601.7,628.394l-11.54-11.905Zm-37.883,11.9,5.77-5.952-5.77-5.952,7.4-7.637,13.172,13.589L555.538,640.3Zm3.265-11.9,5.769,5.952-5.769,5.952,4.136,4.27,9.909-10.222-9.909-10.221Zm-49.422,11.9,24.326-25.1,7.4,7.637L509.38,640.3Zm7.4,4.27,21.064-21.73-4.139-4.27-21.062,21.73ZM421.2,620.758l7.4-7.637,11.54,11.906,23.08-23.81,7.4,7.635L440.142,640.3Zm3.263,0,15.677,16.174,27.219-28.08-4.139-4.269-23.08,23.811L428.6,616.489Zm-37.883,11.9,5.77-5.952-5.77-5.952,7.4-7.637,13.172,13.589L393.982,640.3Zm3.263-11.9,5.77,5.952-5.77,5.952,4.138,4.27,9.909-10.222-9.909-10.221Zm-49.423,11.9,24.328-25.1,7.4,7.637-24.327,25.1Zm7.4,4.27,21.064-21.73-4.137-4.27-21.064,21.73Zm-88.18-16.174,7.4-7.637,11.54,11.906,23.08-23.81,7.4,7.635L278.585,640.3Zm3.263,0,15.677,16.174,27.219-28.08-4.139-4.269-23.08,23.811-11.54-11.905Zm-37.883,11.9,5.77-5.952-5.77-5.952,7.4-7.637L245.6,626.71,232.426,640.3Zm3.263-11.9,5.77,5.952-5.77,5.952,4.138,4.27,9.909-10.222-9.909-10.221Zm-49.423,11.9,24.328-25.1,7.4,7.637-24.328,25.1Zm7.4,4.27L207.33,615.2l-4.136-4.27-21.064,21.73ZM98.088,620.758l7.4-7.637,11.54,11.906,23.08-23.81,7.4,7.635L117.031,640.3Zm3.263,0,15.679,16.174,27.217-28.08-4.138-4.269-23.08,23.811-11.54-11.905Zm-37.883,11.9,5.77-5.952-5.77-5.952,7.4-7.637L84.042,626.71,70.871,640.3Zm3.263-11.9,5.77,5.952-5.77,5.952,4.139,4.27,9.908-10.222-9.908-10.221Zm-49.423,11.9,24.327-25.1,7.4,7.637L24.712,640.3Zm7.4,4.27L45.774,615.2l-4.138-4.27-21.064,21.73ZM634.686,602.9l7.4-7.637L666.8,620.758l-7.4,7.636Zm3.263,0L659.4,625.027l4.139-4.269-21.449-22.128Zm-164.82,0,7.4-7.637,24.712,25.495-7.4,7.636Zm3.263,0,21.447,22.127,4.139-4.269-21.449-22.128Zm-164.82,0,7.4-7.637,24.712,25.495-7.4,7.636Zm3.263,0,21.447,22.127,4.138-4.269-21.447-22.128Zm-164.82,0,7.4-7.637,24.711,25.495-7.4,7.636Zm3.263,0,21.449,22.127,4.136-4.269L157.42,598.629Zm412.166,11.906,24.711-25.495L609.1,608.852l-7.4,7.637-11.54-11.906-17.31,17.858Zm3.263,0,4.138,4.268,17.31-17.856,11.54,11.9,4.139-4.269-15.679-16.175Zm-164.82,0L428.6,589.311l18.942,19.541-7.4,7.637L428.6,604.583l-17.31,17.858Zm3.263,0,4.138,4.268,17.31-17.856,11.54,11.9,4.139-4.269L428.6,592.677Zm-164.82,0,24.711-25.495,18.942,19.541-7.4,7.637-11.54-11.906-17.31,17.858Zm3.263,0,4.138,4.268,17.31-17.856,11.54,11.9,4.139-4.269-15.679-16.175Zm-164.82,0,24.712-25.495,18.941,19.541-7.4,7.637-11.54-11.906-17.31,17.858Zm3.263,0,4.139,4.268,17.31-17.856,11.54,11.9,4.138-4.269-15.677-16.175Zm573.714-11.917,18.932-19.1,7.464,7.187-5.813,5.8,5.757,6.136-13.159,13.575Zm3.282.021,9.9,10.212,9.921-10.235-5.783-6.167,5.726-5.71-4.075-3.924ZM536.6,608.852l18.941-19.541L568.711,602.9l-7.4,7.637-5.77-5.954L544,616.489Zm3.265,0L544,613.121l11.54-11.9,5.77,5.952,4.139-4.269-9.909-10.223ZM496.2,602.889l18.931-19.1,7.464,7.187-5.812,5.8,5.756,6.136L509.38,616.489Zm13.18,10.232,9.921-10.235-5.783-6.167,5.727-5.71-4.076-3.924-15.688,15.824Zm-134.339-4.269,18.941-19.541L407.154,602.9l-7.4,7.637-5.77-5.954-11.54,11.906Zm3.265,0,4.136,4.269,11.54-11.9,5.77,5.952,4.139-4.269-9.909-10.223Zm-43.663-5.963,18.933-19.1,7.464,7.187-5.812,5.8,5.756,6.136-13.159,13.575Zm13.181,10.232,9.921-10.235-5.783-6.167,5.727-5.71-4.076-3.924-15.687,15.824Zm-134.339-4.269,18.941-19.541L245.6,602.9l-7.4,7.637-5.77-5.954-11.54,11.906Zm3.263,0,4.138,4.269,11.54-11.9,5.77,5.952,4.139-4.269-9.909-10.223Zm-43.662-5.963,18.933-19.1,7.464,7.187-5.813,5.8,5.757,6.136-13.16,13.575Zm13.18,10.232,9.922-10.235-5.783-6.167,5.727-5.71-4.076-3.924L176.37,602.909ZM51.929,608.852l18.942-19.541L84.042,602.9l-7.4,7.637-5.77-5.954-11.54,11.906Zm3.263,0,4.139,4.269,11.54-11.9,5.77,5.952,4.138-4.269-9.908-10.223ZM11.53,602.889l18.933-19.1,7.464,7.187-5.813,5.8,5.757,6.136L24.712,616.489Zm13.182,10.232,9.921-10.235L28.85,596.72l5.727-5.71L30.5,587.085,14.814,602.909Zm581.125-16.173,7.4-7.637,7.4,7.637-7.4,7.635Zm3.263,0,4.138,4.269,4.139-4.269-4.139-4.27Zm-84.042,0L544,577.405l7.4,7.635L532.46,604.583Zm3.265,0,4.138,4.269,15.677-16.176L544,580.773Zm-84.042,0,7.4-7.637,7.4,7.637-7.4,7.635Zm3.263,0,4.138,4.269,4.139-4.269-4.139-4.27Zm-84.042,0,18.941-19.542,7.4,7.635L370.9,604.583Zm3.265,0,4.136,4.269,15.679-16.176-4.139-4.268Zm-84.042,0,7.4-7.637,7.4,7.637-7.4,7.635Zm3.263,0,4.138,4.269,4.139-4.269-4.139-4.27Zm-84.042,0,18.941-19.542,7.4,7.635-18.942,19.542Zm3.263,0,4.138,4.269,15.679-16.176-4.139-4.268Zm-84.041,0,7.4-7.637,7.4,7.637-7.4,7.635Zm3.263,0,4.139,4.269,4.138-4.269-4.138-4.27Zm-84.042,0,18.942-19.542,7.4,7.635L47.792,604.583Zm3.263,0,4.139,4.269,15.677-16.176-4.138-4.268Zm602.573-5.953L670.937,565.5l7.4,7.637-24.712,25.493Zm7.4,4.269,21.448-22.127-4.139-4.269L649.49,590.994Zm-63.469-38.3-17.31,17.859-7.4-7.637,24.711-25.495,23.08,23.81,11.925-12.3,13.172,13.589-7.4,7.637-5.77-5.954-4.522,4.666,9.907,10.222,17.31-17.859,7.4,7.637-24.712,25.493Zm40.389,38.3L652,573.136l-4.139-4.269-17.31,17.858-13.171-13.589,7.786-8.034,5.77,5.953,4.139-4.269-9.909-10.223-11.925,12.3-23.08-23.811-21.447,22.128,4.138,4.268,17.31-17.856Zm-82.794-22.524,7.4-7.636,17.693,18.256,5.77-5.953,7.4,7.635-13.172,13.589Zm3.264,0,21.831,22.524,9.909-10.222-4.139-4.268-5.77,5.952L555.155,568.47ZM484.67,590.994,509.38,565.5l7.4,7.637-24.712,25.493Zm7.4,4.269,21.447-22.127-4.138-4.269-21.447,22.127Zm-63.469-38.3-17.31,17.859-7.4-7.637L428.6,541.69l23.08,23.81,11.925-12.3,13.172,13.589-7.4,7.637-5.77-5.954-4.523,4.666,9.907,10.222L486.3,565.5l7.4,7.637-24.712,25.493Zm40.389,38.3,21.449-22.127-4.139-4.269-17.31,17.858L455.82,573.136l7.786-8.034,5.77,5.953,4.138-4.269-9.908-10.223-11.925,12.3L428.6,545.056l-21.447,22.128,4.138,4.268L428.6,553.6ZM386.2,572.739l7.4-7.636,17.695,18.256,5.77-5.953,7.4,7.635-13.172,13.589Zm3.265,0,21.831,22.524,9.909-10.222-4.139-4.268-5.77,5.952L393.6,568.47Zm-66.347,18.255L347.824,565.5l7.4,7.637-24.712,25.493Zm7.4,4.269,21.447-22.127-4.138-4.269-21.447,22.127Zm-63.469-38.3-17.31,17.859-7.4-7.637,24.711-25.495,23.08,23.81,11.925-12.3,13.172,13.589-7.4,7.637-5.77-5.954-4.523,4.666,9.907,10.222,17.31-17.859,7.4,7.637-24.712,25.493Zm40.389,38.3,21.449-22.127-4.139-4.269-17.31,17.858-13.171-13.589,7.786-8.034,5.77,5.953,4.138-4.269-9.907-10.223-11.925,12.3-23.08-23.811L245.6,567.184l4.138,4.268,17.31-17.856ZM224.64,572.739l7.4-7.636,17.694,18.256,5.77-5.953,7.4,7.635-13.172,13.589Zm3.265,0,21.831,22.524,9.909-10.222-4.139-4.268-5.77,5.952L232.042,568.47Zm-66.349,18.255L186.267,565.5l7.4,7.637L168.96,598.629Zm7.4,4.269,21.446-22.127-4.139-4.269-21.446,22.127Zm-63.469-38.3-17.31,17.859-7.4-7.637,24.712-25.495,23.08,23.81,11.922-12.3,13.174,13.589-7.4,7.637-5.77-5.954-4.521,4.666,9.909,10.222L163.19,565.5l7.4,7.637L145.88,598.629Zm40.389,38.3,21.446-22.127-4.136-4.269-17.31,17.858-13.172-13.589,7.785-8.034,5.77,5.953,4.139-4.269-9.909-10.223-11.922,12.3-23.08-23.811L84.042,567.184l4.139,4.268,17.31-17.856Zm-82.8-22.524,7.4-7.636,17.695,18.256,5.77-5.953,7.4,7.635L88.181,598.629Zm3.263,0,21.834,22.524,9.907-10.222-4.138-4.268-5.77,5.952L70.486,568.47ZM0,590.994,24.712,565.5l7.4,7.637L7.4,598.629Zm3.265,0L7.4,595.263,28.85,573.136l-4.138-4.269Zm579.492-17.858,7.4-7.637L609.1,585.041l-7.4,7.636Zm3.263,0L601.7,589.311l4.139-4.27-15.679-16.174Zm-164.82,0,7.4-7.637,18.942,19.541-7.4,7.636Zm3.263,0,15.677,16.175,4.139-4.27L428.6,568.867Zm-164.819,0,7.4-7.637,18.942,19.541-7.4,7.636Zm3.263,0,15.677,16.175,4.139-4.27-15.679-16.174Zm-164.819,0,7.4-7.637,18.941,19.541-7.4,7.636Zm3.263,0,15.679,16.175,4.138-4.27-15.677-16.174Zm579.494,5.952L705.556,553.6l7.4,7.637-24.712,25.493Zm3.263,0,4.138,4.27,21.447-22.127-4.138-4.271Zm-164.821,0L544,553.6l7.4,7.637L526.69,586.725Zm7.4,4.27,21.447-22.127L544,556.962l-21.446,22.127Zm-168.958-4.27L382.442,553.6l7.4,7.637-24.712,25.493Zm7.4,4.27,21.449-22.127-4.139-4.271L361,579.088Zm-168.957-4.27L220.886,553.6l7.4,7.637-24.712,25.493Zm7.4,4.27,21.449-22.127-4.139-4.271-21.447,22.127Zm-168.957-4.27L59.331,553.6l7.4,7.637L42.022,586.725Zm7.4,4.27,21.447-22.127-4.138-4.271L37.883,579.088ZM657.766,543.77l7.4-7.635,17.31,17.858,11.54-11.906,7.4,7.637-18.942,19.541Zm3.263,0L682.477,565.9l15.677-16.173-4.138-4.271-11.54,11.906L665.167,539.5Zm-164.82,0,7.4-7.635,17.31,17.858,11.54-11.906,7.4,7.637L520.92,569.264ZM520.92,565.9,536.6,549.724l-4.137-4.271-11.54,11.906L503.611,539.5l-4.138,4.269ZM334.652,543.77l7.4-7.635,17.31,17.858L370.9,542.087l7.4,7.637-18.942,19.541ZM359.364,565.9l15.677-16.173-4.139-4.271-11.538,11.906L342.054,539.5l-4.137,4.269ZM173.1,543.77l7.4-7.635,17.31,17.858,11.54-11.906,7.4,7.637-18.942,19.541ZM197.807,565.9l15.679-16.173-4.139-4.271-11.54,11.906L180.5,539.5l-4.136,4.269ZM11.54,543.77l7.4-7.635,17.31,17.858,11.54-11.906,7.4,7.637L36.252,569.264ZM36.252,565.9l15.677-16.173-4.138-4.271-11.54,11.906L18.942,539.5,14.8,543.77Zm611.308-8.914-5.449,5.958-7.434-7.67,12.781-12.906L666.814,561.3l-7.406,7.767Zm11.825,8.715,4.136-4.338-16.036-15.69-9.528,9.618,4.106,4.235,5.441-5.948ZM486,556.982l-5.449,5.958-7.434-7.67L485.9,542.365,505.258,561.3l-7.406,7.767Zm11.825,8.715,4.135-4.338-16.034-15.69-9.528,9.618,4.107,4.235,5.44-5.948Zm-173.381-8.715L319,562.94l-7.434-7.67,12.783-12.906L343.7,561.3l-7.406,7.767Zm11.826,8.715,4.134-4.338-16.036-15.69-9.525,9.618,4.1,4.235,5.441-5.948Zm-173.382-8.715-5.449,5.958-7.435-7.67,12.784-12.906L182.145,561.3l-7.406,7.767Zm11.826,8.715,4.134-4.338-16.034-15.69-9.526,9.618,4.1,4.235,5.441-5.948ZM536.6,537.421l7.4-7.636,17.31,17.859,5.77-5.954,7.4,7.637-13.172,13.589Zm3.265,0,21.446,22.127,9.909-10.221-4.139-4.27-5.77,5.953L544,533.152Zm-164.821,0,7.4-7.636,17.31,17.859,5.77-5.954,7.4,7.637-13.172,13.589Zm3.265,0,21.446,22.127,9.909-10.221-4.139-4.27-5.77,5.953-17.31-17.858Zm-164.821,0,7.4-7.636,17.31,17.859,5.77-5.954,7.4,7.637L238.2,562.915Zm3.263,0L238.2,559.547l9.909-10.221-4.139-4.27-5.77,5.953-17.31-17.858Zm-164.82,0,7.4-7.636,17.31,17.859,5.77-5.954,7.4,7.637L76.641,562.915Zm3.263,0,21.449,22.127,9.907-10.221-4.138-4.27-5.77,5.953-17.31-17.858ZM577.408,520l7.333-8.319,35.892,37.654-7.4,7.628Zm35.83,33.6,4.144-4.276-32.575-34.177L580.6,519.92ZM415.853,520l7.332-8.319,35.891,37.654-7.394,7.628Zm35.828,33.6,4.144-4.276L423.25,515.143l-4.208,4.777ZM254.3,520l7.332-8.319,35.891,37.654-7.394,7.628Zm35.828,33.6,4.144-4.276-32.575-34.177-4.208,4.777ZM92.741,520l7.33-8.319,35.892,37.654-7.393,7.628Zm35.829,33.6,4.144-4.276-32.577-34.177L95.93,519.92Zm482.94-22.132,19.038-19.534,7.4,7.634L626.4,531.482l3.959,4.225,5.537-5.91,7.861,7.6L630.346,551Zm18.853,16.184,10.058-10.206-4.449-4.3-5.617,5.995-7.2-7.679,11.526-11.891-4.142-4.272-15.772,16.181ZM449.954,531.463l19.038-19.534,7.4,7.634L464.84,531.482l3.959,4.225,5.537-5.91,7.861,7.6L468.79,551Zm18.854,16.184,10.057-10.206-4.449-4.3-5.617,5.995-7.2-7.679,11.526-11.891-4.141-4.272-15.771,16.181ZM288.4,531.463l19.039-19.534,7.4,7.634-11.553,11.919,3.959,4.225,5.538-5.91,7.859,7.6L307.234,551Zm18.854,16.184,10.057-10.206-4.448-4.3-5.618,5.995-7.2-7.679,11.526-11.891-4.142-4.272-15.771,16.181Zm-180.41-16.184,19.039-19.534,7.4,7.634-11.553,11.919,3.959,4.225,5.538-5.91,7.861,7.6L145.678,551ZM145.7,547.648l10.058-10.206-4.449-4.3-5.618,5.995-7.2-7.679,11.526-11.891-4.142-4.272-15.771,16.181ZM668.97,531.941l7.293-8.78L689.846,537.4l-7.329,8.067Zm13.467,10.132,4.209-4.633L676.38,526.679l-4.245,5.11ZM507.414,531.941l7.293-8.78L528.289,537.4l-7.33,8.067Zm13.467,10.132,4.209-4.633-10.266-10.761-4.245,5.11ZM345.857,531.941l7.293-8.78L366.733,537.4l-7.33,8.067Zm13.467,10.132,4.21-4.633-10.266-10.761-4.246,5.11ZM184.3,531.941l7.293-8.78L205.178,537.4l-7.332,8.067Zm13.465,10.132,4.211-4.633-10.266-10.761-4.245,5.11ZM22.744,531.941l7.294-8.78L43.622,537.4l-7.33,8.067Zm13.468,10.132,4.208-4.633L30.155,526.679l-4.244,5.11Zm535.005-4.652,7.4-7.636,7.4,7.636-7.4,7.635Zm3.263,0,4.137,4.269,4.139-4.269-4.139-4.269Zm-164.82,0,7.4-7.636,7.4,7.636-7.4,7.635Zm3.263,0,4.138,4.269,4.139-4.269-4.139-4.269Zm-164.82,0,7.4-7.636,7.4,7.636-7.4,7.635Zm3.263,0,4.138,4.269,4.139-4.269-4.139-4.269Zm-164.82,0,7.4-7.636,7.4,7.636-7.4,7.635Zm3.263,0,4.139,4.269,4.138-4.269-4.138-4.269Zm452.556-17.858,7.4-7.637,11.54,11.906,5.77-5.953,7.4,7.637L561.308,539.1Zm18.941,16.175,9.909-10.222-4.139-4.269-5.77,5.954-11.54-11.907-4.136,4.27Zm-180.5-16.175,7.4-7.637,11.54,11.906,5.77-5.953,7.4,7.637L399.752,539.1Zm18.941,16.175,9.909-10.222-4.139-4.269-5.77,5.954-11.54-11.907-4.138,4.27Zm-180.5-16.175,7.4-7.637,11.54,11.906,5.77-5.953,7.4,7.637L238.2,539.1ZM238.2,535.738l9.909-10.222-4.139-4.269L238.2,527.2l-11.54-11.907-4.138,4.27ZM57.7,519.563l7.4-7.637,11.54,11.906,5.77-5.953,7.4,7.637L76.641,539.1Zm18.942,16.175,9.907-10.222-4.138-4.269-5.77,5.954L65.1,515.293l-4.139,4.27Zm563.632-10.2,5.607-5.985-5.423-5.993,7.81-7.554,11.5,11.877,5.361-5.543,7.409,7.421-19.01,19.339Zm13.259,10.214,15.707-15.98-4.084-4.089-5.385,5.57-11.555-11.935-4.5,4.353,5.346,5.91-5.549,5.921ZM478.717,525.533l5.607-5.985-5.423-5.993,7.81-7.554,11.5,11.877,5.362-5.543,7.406,7.421-19.009,19.339Zm13.259,10.214,15.707-15.98-4.084-4.089-5.385,5.57-11.555-11.935-4.5,4.353,5.347,5.91-5.547,5.921ZM317.161,525.533l5.607-5.985-5.423-5.993,7.81-7.554,11.5,11.877,5.362-5.543,7.408,7.421-19.01,19.339Zm13.259,10.214,15.707-15.98-4.083-4.089-5.386,5.57L325.1,509.314l-4.5,4.353,5.348,5.91L320.4,525.5ZM155.605,525.533l5.607-5.985-5.423-5.993L163.6,506l11.5,11.877,5.362-5.543,7.408,7.421-19.01,19.339Zm13.259,10.214,15.707-15.98-4.083-4.089-5.385,5.57-11.556-11.935-4.5,4.353,5.348,5.91-5.547,5.921Zm511.6-16.581,7.4-7.637,13.557,13.986-7.4,7.636Zm13.556,10.618,4.138-4.269L687.861,514.9l-4.138,4.269ZM518.9,519.166l7.4-7.637,13.557,13.986-7.4,7.636Zm13.556,10.618,4.137-4.269L526.305,514.9l-4.138,4.269ZM357.348,519.166l7.4-7.637,13.556,13.986-7.4,7.636ZM370.9,529.784l4.139-4.269L364.75,514.9l-4.139,4.269ZM195.79,519.166l7.4-7.637,13.555,13.986-7.4,7.636Zm13.556,10.618,4.139-4.269L203.194,514.9l-4.139,4.269ZM34.234,519.166l7.4-7.637,13.556,13.986-7.4,7.636Zm13.557,10.618,4.138-4.269L41.637,514.9,37.5,519.166Zm551.89-9.824,19.326-19.938,7.4,7.635L607.083,527.6Zm7.4,4.268,16.064-16.57-4.139-4.269L602.945,519.96ZM438.125,519.96l19.326-19.938,7.4,7.635L445.526,527.6Zm7.4,4.268,16.064-16.57-4.139-4.269L441.389,519.96ZM276.569,519.96,295.9,500.022l7.4,7.635L283.972,527.6Zm7.4,4.268,16.063-16.57-4.139-4.269L279.833,519.96ZM115.013,519.96l19.327-19.938,7.4,7.635L122.415,527.6Zm7.4,4.268,16.062-16.57-4.138-4.269L118.277,519.96Zm542.751-20.839-5.77,5.952-7.4-7.635,30.481-31.448,18.955,19.557-7.422,7.4-11.527-11.693-9.927,10.243,4.151,4.426,5.757-6.136,7.416,7.65-13.172,13.587Zm11.54,8.538,9.909-10.221-4.126-4.257-5.783,6.167-7.389-7.877L682.47,482.17l11.553,11.72,4.117-4.1-15.664-16.16-27.217,28.079,4.138,4.269,5.77-5.952ZM571.217,489.8l7.4-7.637,17.31,17.859,11.54-11.906,7.4,7.635-18.942,19.541Zm3.263,0,21.447,22.127,15.679-16.174-4.139-4.269-11.54,11.906-17.31-17.858Zm-7.4,19.541-5.77,5.952-7.4-7.635,13.171-13.589,13.172,13.589-7.4,7.635Zm5.77,2.586,4.139-4.269-9.909-10.223-9.907,10.223,4.138,4.269,5.77-5.952Zm-69.238-8.538-5.77,5.952-7.4-7.635,30.48-31.448,18.955,19.557-7.422,7.4-11.526-11.693L511,495.765l4.151,4.426,5.755-6.136,7.417,7.65L515.15,515.293Zm11.54,8.538,9.908-10.221-4.124-4.257-5.783,6.167-7.389-7.877,13.152-13.568,11.553,11.72,4.118-4.1-15.664-16.16L493.7,501.705l4.137,4.269,5.77-5.952ZM409.661,489.8l7.4-7.637,17.31,17.859,11.54-11.906,7.4,7.635-18.942,19.541Zm3.263,0,21.447,22.127,15.679-16.174-4.139-4.269-11.54,11.906-17.31-17.858Zm-7.4,19.541-5.77,5.952-7.4-7.635,13.171-13.589,13.172,13.589-7.4,7.635Zm5.77,2.586,4.139-4.269-9.909-10.223-9.908,10.223,4.138,4.269,5.77-5.952Zm-69.238-8.538-5.77,5.952-7.4-7.635,30.481-31.448,18.956,19.557-7.422,7.4-11.527-11.693-9.927,10.243,4.151,4.426,5.755-6.136,7.417,7.65-13.172,13.587Zm11.54,8.538,9.907-10.221-4.124-4.257-5.783,6.167-7.389-7.877,13.152-13.568,11.553,11.72,4.118-4.1-15.664-16.16-27.217,28.079,4.138,4.269,5.77-5.952ZM248.1,489.8l7.4-7.637,17.31,17.859,11.54-11.906,7.4,7.635-18.942,19.541Zm3.263,0,21.447,22.127,15.679-16.174-4.139-4.269-11.54,11.906-17.31-17.858Zm-7.4,19.541-5.77,5.952-7.4-7.635,13.171-13.589,13.172,13.589-7.4,7.635Zm5.77,2.586,4.139-4.269-9.909-10.223-9.907,10.223,4.138,4.269,5.77-5.952ZM180.5,503.388l-5.767,5.952-7.4-7.635,30.481-31.448,18.957,19.557-7.422,7.4-11.527-11.693-9.927,10.243,4.15,4.426,5.757-6.136,7.416,7.65-13.172,13.587Zm11.54,8.538,9.909-10.221-4.123-4.257-5.786,6.167-7.388-7.877L197.8,482.17l11.553,11.72,4.117-4.1-15.665-16.16-27.216,28.079,4.139,4.269,5.767-5.952ZM86.549,489.8l7.4-7.637,17.31,17.859,11.54-11.906,7.4,7.635-18.941,19.541Zm3.263,0,21.449,22.127,15.677-16.174-4.138-4.269-11.54,11.906-17.31-17.858Zm-7.4,19.541-5.77,5.952-7.4-7.635,13.172-13.589,13.171,13.589-7.4,7.635Zm5.77,2.586,4.138-4.269-9.907-10.223L72.5,507.657l4.139,4.269,5.77-5.952Zm-69.239-8.538-5.77,5.952-7.4-7.635,30.482-31.448,18.955,19.557-7.422,7.4L36.258,485.522l-9.927,10.243,4.151,4.426,5.757-6.136,7.414,7.65L30.482,515.293Zm11.54,8.538,9.907-10.221-4.124-4.257-5.783,6.167-7.389-7.877L36.245,482.17,47.8,493.89l4.116-4.1-15.663-16.16L9.035,501.705l4.138,4.269,5.77-5.952Zm500.731-4.665L544,494.069l7.4,7.637L538.614,514.9Zm3.263,0,4.137,4.268,9.524-9.824L544,497.435Zm-164.82,0,12.786-13.193,7.4,7.637L377.058,514.9Zm3.263,0,4.138,4.268,9.524-9.824-4.139-4.27Zm-164.82,0,12.786-13.193,7.4,7.637L215.5,514.9Zm3.263,0,4.138,4.268,9.524-9.824-4.139-4.27Zm-164.819,0,12.787-13.193,7.4,7.637L53.945,514.9Zm3.263,0,4.138,4.268,9.524-9.824-4.138-4.27Zm556.029-29.368,7.4-7.637,23.08,23.811,11.54-11.906,7.4,7.637-18.942,19.541Zm3.263,0,27.217,28.08L652,489.8l-4.139-4.269-11.54,11.9-23.08-23.808Zm-164.82,0,7.4-7.637,23.08,23.811,11.54-11.906,7.4,7.637-18.942,19.541Zm3.263,0,27.217,28.08L490.44,489.8l-4.139-4.269-11.54,11.9-23.08-23.808Zm-164.82,0,7.4-7.637,23.08,23.811,11.54-11.906,7.4,7.637L313.2,509.341Zm3.263,0,27.217,28.08L328.884,489.8l-4.139-4.269-11.54,11.9-23.08-23.808Zm-164.82,0,7.4-7.637,23.08,23.811,11.54-11.906,7.4,7.637L151.65,509.341Zm3.263,0,27.219,28.08L167.326,489.8l-4.136-4.269-11.54,11.9-23.08-23.808ZM548.137,489.8l18.941-19.542,7.4,7.637-18.942,19.541Zm3.265,0,4.136,4.269,15.679-16.175-4.139-4.268Zm-164.821,0,18.941-19.542,7.4,7.637-18.942,19.541Zm3.263,0,4.138,4.269,15.679-16.175-4.139-4.268Zm-164.82,0,18.941-19.542,7.4,7.637-18.942,19.541Zm3.263,0,4.138,4.269L248.1,477.894l-4.139-4.268Zm-164.819,0,18.942-19.542,7.4,7.637L70.871,497.435Zm3.263,0,4.139,4.269,15.677-16.175-4.138-4.268Zm521.795-5.954,7.4-7.635,7.4,7.635-7.4,7.637Zm3.263,0,4.138,4.27,4.139-4.27-4.139-4.268Zm-164.819,0,7.4-7.635,7.4,7.635-7.4,7.637Zm3.263,0,4.138,4.27,4.139-4.27-4.139-4.268Zm-164.819,0,7.4-7.635,7.4,7.635-7.4,7.637Zm3.263,0,4.138,4.27,4.139-4.27-4.139-4.268Zm-164.819,0,7.4-7.635,7.4,7.635-7.4,7.637Zm3.263,0,4.139,4.27,4.138-4.27-4.138-4.268Zm540.735-10.22-11.54,11.9-7.4-7.637,11.54-11.9-4.139-4.27-11.54,11.907-7.4-7.637,18.941-19.541L666.8,477.894l-7.4,7.637Zm11.54,8.537,4.139-4.269-27.219-28.079L620.64,465.99l4.137,4.268,11.54-11.9,7.4,7.637-11.54,11.9,4.137,4.269,11.54-11.906Zm-173.1-8.537-11.54,11.9-7.4-7.637,11.54-11.9-4.139-4.27-11.54,11.907-7.4-7.637,18.941-19.541,30.482,31.445-7.4,7.637Zm11.54,8.537,4.139-4.269-27.219-28.079L459.084,465.99l4.137,4.268,11.54-11.9,7.4,7.637-11.54,11.9,4.138,4.269,11.54-11.906Zm-173.1-8.537-11.54,11.9-7.4-7.637,11.54-11.9-4.139-4.27-11.54,11.907-7.4-7.637L313.2,446.449l30.482,31.445-7.4,7.637Zm11.54,8.537,4.138-4.269L313.2,449.815,297.527,465.99l4.138,4.268,11.54-11.9,7.4,7.637-11.54,11.9,4.138,4.269,11.54-11.906ZM163.19,473.626l-11.54,11.9-7.4-7.637,11.538-11.9-4.136-4.27-11.54,11.907-7.4-7.637,18.942-19.541,30.481,31.445-7.4,7.637Zm11.54,8.537,4.136-4.269L151.65,449.815,135.971,465.99l4.139,4.268,11.54-11.9,7.4,7.637-11.54,11.9,4.139,4.269,11.54-11.906ZM525.058,465.99,538.229,452.4l7.4,7.637-5.77,5.952L551.017,477.5l-7.4,7.637Zm3.265,0,15.292,15.776,4.139-4.269L536.6,465.99l5.77-5.952-4.139-4.27Zm-164.821,0L376.673,452.4l7.4,7.637-5.769,5.952L389.461,477.5l-7.4,7.637Zm3.265,0,15.294,15.776L386.2,477.5,375.042,465.99l5.77-5.952-4.139-4.27Zm-164.821,0L215.116,452.4l7.4,7.637-5.77,5.952L227.9,477.5l-7.4,7.637Zm3.263,0L220.5,481.766l4.138-4.269L213.485,465.99l5.77-5.952-4.139-4.27Zm-164.82,0L53.562,452.4l7.4,7.637-5.77,5.952L66.347,477.5l-7.4,7.637Zm3.263,0,15.294,15.776,4.138-4.269L51.929,465.99l5.77-5.952-4.138-4.27Zm527.564,0,7.4-7.637,13.172,13.589-7.4,7.637Zm3.263,0,9.907,10.221,4.139-4.269-9.909-10.223Zm-164.82,0,7.4-7.637,13.172,13.589-7.4,7.637Zm3.263,0,9.907,10.221,4.139-4.269-9.909-10.223Zm-164.82,0,7.4-7.637,13.172,13.589-7.4,7.637Zm3.263,0,9.907,10.221,4.139-4.269-9.909-10.223Zm-164.82,0,7.4-7.637,13.171,13.589-7.4,7.637Zm3.263,0,9.909,10.221,4.138-4.269-9.907-10.223Zm573.724,0,24.326-25.1,7.4,7.637-24.327,25.1Zm3.263,0,4.138,4.268L692,448.528l-4.139-4.269Zm-84.042-11.907,7.4-7.634,11.54,11.9,23.079-23.811,7.4,7.637L601.7,473.626Zm3.263,0L601.7,470.257l27.218-28.079-4.139-4.269L601.7,461.719l-11.54-11.9ZM548.137,465.99l5.77-5.952-5.77-5.955,7.4-7.634,13.172,13.589-13.172,13.589Zm3.265-11.907,5.769,5.955L551.4,465.99l4.136,4.268,9.909-10.22-9.909-10.223ZM501.98,465.99l24.326-25.1,7.4,7.637-24.327,25.1Zm7.4,4.268,21.064-21.73-4.139-4.269L505.243,465.99ZM421.2,454.083l7.4-7.634,11.54,11.9,23.08-23.811,7.4,7.637-30.482,31.448Zm3.263,0,15.677,16.175,27.219-28.079-4.139-4.269-23.08,23.81-11.54-11.9ZM386.581,465.99l5.77-5.952-5.77-5.955,7.4-7.634,13.172,13.589-13.172,13.589Zm3.263-11.907,5.77,5.955-5.77,5.952,4.138,4.268,9.909-10.22-9.909-10.223ZM340.422,465.99l24.328-25.1,7.4,7.637-24.327,25.1Zm7.4,4.268,21.064-21.73-4.137-4.269L343.687,465.99Zm-88.18-16.175,7.4-7.634,11.54,11.9,23.08-23.811,7.4,7.637-30.482,31.448Zm3.263,0,15.677,16.175L305.8,442.178l-4.139-4.269-23.08,23.81-11.54-11.9ZM225.025,465.99l5.77-5.952-5.77-5.955,7.4-7.634L245.6,460.038l-13.172,13.589Zm3.263-11.907,5.77,5.955-5.77,5.952,4.138,4.268,9.909-10.22-9.909-10.223ZM178.866,465.99l24.328-25.1,7.4,7.637-24.328,25.1Zm7.4,4.268,21.064-21.73-4.136-4.269L182.131,465.99ZM98.088,454.083l7.4-7.634,11.54,11.9,23.08-23.811,7.4,7.637-30.481,31.448Zm3.263,0,15.679,16.175,27.217-28.079-4.138-4.269-23.08,23.81-11.54-11.9ZM63.469,465.99l5.77-5.952-5.77-5.955,7.4-7.634,13.171,13.589L70.871,473.626Zm3.263-11.907,5.77,5.955-5.77,5.952,4.139,4.268,9.908-10.22-9.908-10.223ZM17.31,465.99l24.327-25.1,7.4,7.637-24.327,25.1Zm7.4,4.268,21.062-21.73-4.138-4.269L20.573,465.99Zm609.974-34.031,7.4-7.637L666.8,454.083l-7.4,7.637Zm3.263,0L659.4,458.353l4.139-4.27-21.449-22.125Zm-164.82,0,7.4-7.637,24.712,25.493-7.4,7.637Zm3.263,0,21.447,22.127,4.139-4.27-21.449-22.125Zm-164.82,0,7.4-7.637,24.712,25.493-7.4,7.637Zm3.263,0,21.447,22.127,4.138-4.27-21.447-22.125Zm-164.82,0,7.4-7.637,24.711,25.493-7.4,7.637Zm3.263,0,21.449,22.127,4.136-4.27L157.42,431.957Zm412.166,11.9,24.711-25.493L609.1,442.178l-7.4,7.637-11.54-11.905-17.31,17.858Zm3.263,0,4.138,4.27,17.31-17.859,11.54,11.907,4.139-4.27-15.679-16.173Zm-164.82,0L428.6,422.637l18.942,19.541-7.4,7.637L428.6,437.909l-17.31,17.858Zm3.263,0,4.138,4.27,17.31-17.859,11.54,11.907,4.139-4.27L428.6,426.005Zm-164.82,0,24.711-25.493,18.942,19.541-7.4,7.637-11.54-11.905-17.31,17.858Zm3.263,0,4.138,4.27,17.31-17.859,11.54,11.907,4.139-4.27-15.679-16.173Zm-164.82,0,24.712-25.493,18.941,19.541-7.4,7.637-11.54-11.905-17.31,17.858Zm3.263,0,4.139,4.27,17.31-17.859,11.54,11.907,4.138-4.27-15.677-16.173Zm573.714-11.914,18.932-19.1,7.464,7.187-5.813,5.8,5.757,6.138-13.159,13.575Zm3.282.018,9.9,10.214,9.921-10.236-5.783-6.165,5.726-5.712-4.075-3.924ZM536.6,442.178l18.941-19.541,13.172,13.589-7.4,7.635-5.77-5.952L544,449.815Zm3.265,0,4.136,4.27,11.54-11.907,5.77,5.952,4.139-4.268-9.909-10.221ZM496.2,436.217l18.931-19.1,7.464,7.187-5.812,5.8,5.756,6.138L509.38,449.815Zm13.18,10.232,9.921-10.236-5.783-6.165,5.727-5.712-4.076-3.924-15.688,15.823Zm-134.339-4.27,18.941-19.541,13.172,13.589-7.4,7.635-5.77-5.952-11.54,11.905Zm3.265,0,4.136,4.27,11.54-11.907,5.77,5.952,4.139-4.268-9.909-10.221Zm-43.663-5.962,18.933-19.1,7.464,7.187-5.812,5.8,5.756,6.138-13.159,13.575Zm13.181,10.232,9.921-10.236-5.783-6.165,5.727-5.712-4.076-3.924-15.687,15.823Zm-134.339-4.27,18.941-19.541L245.6,436.226l-7.4,7.635-5.77-5.952-11.54,11.905Zm3.263,0,4.138,4.27,11.54-11.907,5.77,5.952,4.139-4.268-9.909-10.221Zm-43.662-5.962,18.933-19.1,7.464,7.187-5.813,5.8,5.757,6.138-13.16,13.575Zm13.18,10.232,9.922-10.236-5.783-6.165,5.727-5.712-4.076-3.924L176.37,436.234Zm-134.338-4.27,18.942-19.541,13.171,13.589-7.4,7.635-5.77-5.952-11.54,11.905Zm3.263,0,4.139,4.27,11.54-11.907,5.77,5.952,4.138-4.268-9.908-10.221ZM11.53,436.217l18.933-19.1,7.464,7.187-5.813,5.8,5.757,6.138L24.712,449.815Zm13.182,10.232,9.921-10.236-5.783-6.165,5.727-5.712L30.5,420.411,14.814,436.234Zm581.125-16.176,7.4-7.635,7.4,7.635-7.4,7.637Zm3.263,0,4.138,4.269,4.139-4.269-4.139-4.268Zm-84.042,0L544,410.732l7.4,7.637L532.46,437.909Zm3.265,0,4.138,4.269,15.677-16.173L544,414.1Zm-84.042,0,7.4-7.635,7.4,7.635-7.4,7.637Zm3.263,0,4.138,4.269,4.139-4.269-4.139-4.268Zm-84.042,0,18.941-19.541,7.4,7.637L370.9,437.909Zm3.265,0,4.136,4.269,15.679-16.173-4.139-4.27Zm-84.042,0,7.4-7.635,7.4,7.635-7.4,7.637Zm3.263,0,4.138,4.269,4.139-4.269-4.139-4.268Zm-84.042,0,18.941-19.541,7.4,7.637-18.942,19.541Zm3.263,0,4.138,4.269,15.679-16.173-4.139-4.27Zm-84.041,0,7.4-7.635,7.4,7.635-7.4,7.637Zm3.263,0,4.139,4.269,4.138-4.269-4.138-4.268Zm-84.042,0,18.942-19.541,7.4,7.637L47.792,437.909Zm3.263,0,4.139,4.269,15.677-16.173-4.138-4.27Zm602.573-5.952,24.711-25.493,7.4,7.634-24.712,25.5Zm7.4,4.269,21.448-22.128-4.139-4.268L649.49,424.321Zm-63.469-38.3-17.31,17.858-7.4-7.637,24.711-25.493,23.08,23.811,11.925-12.3,13.172,13.589-7.4,7.637-5.77-5.952-4.522,4.665,9.907,10.223,17.31-17.857,7.4,7.634-24.712,25.5Zm40.389,38.3L652,406.461l-4.139-4.268-17.31,17.856-13.171-13.589,7.786-8.031,5.77,5.952,4.139-4.27-9.909-10.221-11.925,12.3-23.08-23.81-21.447,22.126,4.138,4.27,17.31-17.859Zm-82.794-22.525,7.4-7.634,17.693,18.254,5.77-5.952,7.4,7.637-13.172,13.589Zm3.264,0,21.831,22.525,9.909-10.221-4.139-4.27-5.77,5.952L555.155,401.8ZM484.67,424.321l24.711-25.493,7.4,7.634-24.712,25.5Zm7.4,4.269,21.447-22.128-4.138-4.268-21.447,22.127Zm-63.469-38.3-17.31,17.858-7.4-7.637L428.6,375.016l23.08,23.811,11.925-12.3,13.172,13.589-7.4,7.637-5.77-5.952-4.523,4.665,9.907,10.223,17.31-17.857,7.4,7.634-24.712,25.5Zm40.389,38.3,21.449-22.128-4.139-4.268-17.31,17.856L455.82,406.461l7.786-8.031,5.77,5.952,4.138-4.27-9.908-10.221-11.925,12.3-23.08-23.81-21.447,22.126,4.138,4.27L428.6,386.92ZM386.2,406.064l7.4-7.634,17.695,18.254,5.77-5.952,7.4,7.637-13.172,13.589Zm3.265,0,21.831,22.525,9.909-10.221-4.139-4.27-5.77,5.952L393.6,401.8Zm-66.347,18.256,24.711-25.493,7.4,7.634-24.712,25.5Zm7.4,4.269,21.447-22.128-4.138-4.268-21.447,22.127Zm-63.469-38.3-17.31,17.858-7.4-7.637,24.711-25.493,23.08,23.811,11.925-12.3,13.172,13.589-7.4,7.637-5.77-5.952-4.523,4.665,9.907,10.223,17.31-17.857,7.4,7.634-24.712,25.5Zm40.389,38.3,21.449-22.128-4.139-4.268-17.31,17.856-13.171-13.589,7.786-8.031,5.77,5.952,4.138-4.27-9.907-10.221-11.925,12.3-23.08-23.81L245.6,400.509l4.138,4.27,17.31-17.859ZM224.64,406.064l7.4-7.634,17.694,18.254,5.77-5.952,7.4,7.637-13.172,13.589Zm3.265,0,21.831,22.525,9.909-10.221-4.139-4.27-5.77,5.952L232.042,401.8Zm-66.349,18.256,24.711-25.493,7.4,7.634-24.711,25.5Zm7.4,4.269,21.446-22.128-4.139-4.268-21.446,22.127Zm-63.469-38.3-17.31,17.858-7.4-7.637,24.712-25.493,23.08,23.811,11.922-12.3,13.174,13.589-7.4,7.637-5.77-5.952-4.521,4.665,9.909,10.223,17.31-17.857,7.4,7.634-24.711,25.5Zm40.389,38.3,21.446-22.128-4.136-4.268L145.88,420.05l-13.172-13.589,7.785-8.031,5.77,5.952,4.139-4.27-9.909-10.221-11.922,12.3-23.08-23.81L84.042,400.509l4.139,4.27,17.31-17.859Zm-82.8-22.525,7.4-7.634,17.695,18.254,5.77-5.952,7.4,7.637L88.181,431.957Zm3.263,0,21.834,22.525,9.907-10.221-4.138-4.27-5.77,5.952L70.486,401.8ZM0,424.321l24.712-25.493,7.4,7.634L7.4,431.957Zm3.265,0L7.4,428.589,28.85,406.461l-4.138-4.268Zm579.492-17.859,7.4-7.634L609.1,418.368l-7.4,7.637Zm3.263,0L601.7,422.637l4.139-4.269-15.679-16.175Zm-164.82,0,7.4-7.634,18.942,19.541-7.4,7.637Zm3.263,0,15.677,16.176,4.139-4.269L428.6,402.194Zm-164.819,0,7.4-7.634,18.942,19.541-7.4,7.637Zm3.263,0,15.677,16.176,4.139-4.269-15.679-16.175Zm-164.819,0,7.4-7.634,18.941,19.541-7.4,7.637Zm3.263,0,15.679,16.176,4.138-4.269-15.677-16.175Zm579.494,5.955,24.711-25.5,7.4,7.637L688.247,420.05Zm3.263,0,4.138,4.268,21.447-22.127-4.138-4.269Zm-164.821,0L544,386.92l7.4,7.637L526.69,420.05Zm7.4,4.268,21.447-22.127L544,390.288l-21.446,22.128Zm-168.958-4.268,24.711-25.5,7.4,7.637L365.133,420.05Zm7.4,4.268,21.449-22.127-4.139-4.269L361,412.416Zm-168.957-4.268,24.711-25.5,7.4,7.637L203.577,420.05Zm7.4,4.268,21.449-22.127-4.139-4.269-21.447,22.128ZM34.619,412.416l24.712-25.5,7.4,7.637L42.022,420.05Zm7.4,4.268,21.447-22.127-4.138-4.269L37.883,412.416ZM657.766,377.1l7.4-7.637,17.31,17.858,11.54-11.9,7.4,7.635-18.942,19.542Zm3.263,0,21.447,22.128,15.677-16.176-4.138-4.269-11.54,11.906-17.31-17.859Zm-164.82,0,7.4-7.637,17.31,17.858,11.54-11.9,7.4,7.635L520.92,402.591Zm24.711,22.128L536.6,383.048l-4.137-4.269-11.54,11.906-17.31-17.859-4.138,4.27ZM334.652,377.1l7.4-7.637,17.31,17.858,11.538-11.9,7.4,7.635-18.942,19.542Zm24.712,22.128,15.677-16.176-4.139-4.269-11.538,11.906-17.31-17.859-4.137,4.27ZM173.1,377.1l7.4-7.637,17.31,17.858,11.54-11.9,7.4,7.635-18.942,19.542Zm24.711,22.128,15.679-16.176-4.139-4.269-11.54,11.906L180.5,372.826l-4.136,4.27ZM11.54,377.1l7.4-7.637,17.31,17.858,11.54-11.9,7.4,7.635L36.252,402.591Zm24.712,22.128,15.677-16.176-4.138-4.269-11.54,11.906-17.31-17.859L14.8,377.1Zm611.308-8.916-5.449,5.956-7.434-7.67,12.781-12.9,19.355,18.935-7.406,7.767Zm11.825,8.715,4.136-4.338L647.485,379l-9.528,9.617,4.106,4.236L647.5,386.9ZM486,390.309l-5.449,5.956-7.434-7.67,12.782-12.9,19.355,18.935-7.406,7.767Zm11.825,8.715,4.135-4.338L485.929,379l-9.528,9.617,4.107,4.236,5.44-5.948Zm-173.381-8.715L319,396.265l-7.434-7.67,12.783-12.9L343.7,394.627l-7.406,7.767Zm11.826,8.715,4.134-4.338L324.372,379l-9.525,9.617,4.1,4.236,5.441-5.948Zm-173.382-8.715-5.449,5.956-7.435-7.67,12.784-12.9,19.354,18.935-7.406,7.767Zm11.826,8.715,4.134-4.338L162.817,379l-9.526,9.617,4.1,4.236,5.441-5.948ZM536.6,370.747l7.4-7.637,17.31,17.858,5.77-5.952,7.4,7.635L561.308,396.24Zm3.265,0,21.446,22.125,9.909-10.221-4.139-4.268-5.77,5.952L544,366.477Zm-164.821,0,7.4-7.637,17.31,17.858,5.77-5.952,7.4,7.635L399.752,396.24Zm3.265,0,21.446,22.125,9.909-10.221-4.139-4.268-5.77,5.952-17.31-17.859Zm-164.821,0,7.4-7.637,17.31,17.858,5.77-5.952,7.4,7.635L238.2,396.24Zm3.263,0L238.2,392.873l9.909-10.221-4.139-4.268-5.77,5.952-17.31-17.859Zm-164.82,0,7.4-7.637,17.31,17.858,5.77-5.952,7.4,7.635L76.641,396.24Zm3.263,0,21.449,22.125,9.907-10.221-4.138-4.268-5.77,5.952-17.31-17.859Zm522.215-17.422L584.741,345l35.892,37.656-7.4,7.629Zm35.83,33.6,4.144-4.276-32.575-34.174-4.208,4.776Zm-197.384-33.6L423.185,345l35.891,37.656-7.394,7.629Zm35.828,33.6,4.144-4.276L423.25,348.471l-4.208,4.776ZM254.3,353.325,261.629,345,297.52,382.66l-7.394,7.629Zm35.828,33.6,4.144-4.276-32.575-34.174-4.208,4.776Zm-197.384-33.6,7.33-8.321,35.892,37.656-7.393,7.629Zm35.829,33.6,4.144-4.276-32.577-34.174-4.208,4.776ZM611.51,364.79l19.038-19.534,7.4,7.633L626.4,364.809l3.959,4.225,5.537-5.911,7.861,7.6-13.407,13.607Zm18.853,16.183,10.058-10.206-4.449-4.3-5.617,6-7.2-7.681,11.526-11.892-4.142-4.272L614.773,364.8ZM449.954,364.79l19.038-19.534,7.4,7.633L464.84,364.809l3.959,4.225,5.537-5.911,7.861,7.6L468.79,384.332Zm18.854,16.183,10.057-10.206-4.449-4.3-5.617,6-7.2-7.681,11.526-11.892-4.141-4.272L453.218,364.8ZM288.4,364.79l19.039-19.534,7.4,7.633-11.553,11.921,3.959,4.225,5.538-5.911,7.859,7.6-13.407,13.607Zm18.854,16.183,10.057-10.206-4.448-4.3-5.618,6-7.2-7.681,11.526-11.892-4.142-4.272L291.662,364.8ZM126.842,364.79l19.039-19.534,7.4,7.633-11.553,11.921,3.959,4.225,5.538-5.911,7.861,7.6-13.408,13.607ZM145.7,380.972l10.058-10.206-4.449-4.3-5.618,6-7.2-7.681,11.526-11.892-4.142-4.272L130.105,364.8ZM668.97,365.266l7.293-8.779,13.583,14.237-7.329,8.068ZM682.437,375.4l4.209-4.633L676.38,360l-4.245,5.111ZM507.414,365.266l7.293-8.779,13.583,14.237-7.33,8.068ZM520.88,375.4l4.209-4.633L514.824,360l-4.245,5.111ZM345.857,365.266l7.293-8.779,13.583,14.237-7.33,8.068ZM359.324,375.4l4.21-4.633L353.268,360l-4.246,5.111ZM184.3,365.266l7.293-8.779,13.584,14.237-7.332,8.068ZM197.767,375.4l4.211-4.633L191.712,360l-4.245,5.111ZM22.744,365.266l7.294-8.779,13.584,14.237-7.33,8.068ZM36.212,375.4l4.208-4.633L30.155,360l-4.244,5.111Zm535.005-4.652,7.4-7.637,7.4,7.637-7.4,7.637Zm3.263,0,4.137,4.269,4.139-4.269-4.139-4.27Zm-164.82,0,7.4-7.637,7.4,7.637-7.4,7.637Zm3.263,0,4.138,4.269,4.139-4.269-4.139-4.27Zm-164.82,0,7.4-7.637,7.4,7.637-7.4,7.637Zm3.263,0,4.138,4.269,4.139-4.269-4.139-4.27Zm-164.82,0,7.4-7.637,7.4,7.637-7.4,7.637Zm3.263,0,4.139,4.269,4.138-4.269-4.138-4.27Zm452.556-17.859,7.4-7.637,11.54,11.907,5.77-5.952,7.4,7.634-13.172,13.589Zm18.941,16.175,9.909-10.222-4.139-4.268-5.77,5.952-11.54-11.9-4.136,4.268Zm-180.5-16.175,7.4-7.637,11.54,11.907,5.77-5.952,7.4,7.634-13.172,13.589Zm18.941,16.175,9.909-10.222-4.139-4.268-5.77,5.952-11.54-11.9-4.138,4.268Zm-180.5-16.175,7.4-7.637,11.54,11.907,5.77-5.952,7.4,7.634L238.2,372.429ZM238.2,369.063,248.1,358.84l-4.139-4.268-5.77,5.952-11.54-11.9-4.138,4.268ZM57.7,352.888l7.4-7.637,11.54,11.907,5.77-5.952,7.4,7.634L76.641,372.429Zm18.942,16.175,9.907-10.222-4.138-4.268-5.77,5.952L65.1,348.62l-4.139,4.268Zm563.632-10.2,5.607-5.985-5.423-5.995,7.81-7.554,11.5,11.879,5.361-5.544,7.409,7.419-19.01,19.342Zm13.259,10.213,15.707-15.978-4.084-4.089-5.385,5.569-11.555-11.933-4.5,4.351,5.346,5.911-5.549,5.92ZM478.717,358.859l5.607-5.985L478.9,346.88l7.81-7.554,11.5,11.879,5.362-5.544,7.406,7.419-19.009,19.342Zm13.259,10.213,15.707-15.978-4.084-4.089-5.385,5.569-11.555-11.933-4.5,4.351,5.347,5.911-5.547,5.92ZM317.161,358.859l5.607-5.985-5.423-5.995,7.81-7.554,11.5,11.879,5.362-5.544,7.408,7.419-19.01,19.342Zm13.259,10.213,15.707-15.978-4.083-4.089-5.386,5.569L325.1,342.641l-4.5,4.351,5.348,5.911-5.547,5.92ZM155.605,358.859l5.607-5.985-5.423-5.995,7.81-7.554L175.1,351.2l5.362-5.544,7.408,7.419-19.01,19.342Zm13.259,10.213,15.707-15.978-4.083-4.089-5.385,5.569-11.556-11.933-4.5,4.351L164.4,352.9l-5.547,5.92Zm511.6-16.582,7.4-7.634,13.557,13.983-7.4,7.637Zm13.556,10.62,4.138-4.27-10.293-10.617-4.138,4.267ZM518.9,352.491l7.4-7.634,13.557,13.983-7.4,7.637Zm13.556,10.62,4.137-4.27-10.292-10.617-4.138,4.267Zm-175.112-10.62,7.4-7.634,13.556,13.983-7.4,7.637Zm13.555,10.62,4.139-4.27L364.75,348.223l-4.139,4.267ZM195.79,352.491l7.4-7.634,13.555,13.983-7.4,7.637Zm13.556,10.62,4.139-4.27-10.291-10.617-4.139,4.267ZM34.234,352.491l7.4-7.634L55.193,358.84l-7.4,7.637Zm13.557,10.62,4.138-4.27L41.637,348.223,37.5,352.491Zm551.89-9.825,19.326-19.938,7.4,7.637-19.327,19.938Zm7.4,4.27,16.064-16.572-4.139-4.269-16.062,16.57Zm-168.957-4.27,19.326-19.938,7.4,7.637-19.327,19.938Zm7.4,4.27,16.064-16.572-4.139-4.269-16.063,16.57Zm-168.957-4.27L295.9,333.347l7.4,7.637-19.326,19.938Zm7.4,4.27,16.063-16.572-4.139-4.269-16.063,16.57Zm-168.958-4.27,19.327-19.938,7.4,7.637-19.326,19.938Zm7.4,4.27,16.062-16.572-4.138-4.269-16.064,16.57Zm542.751-20.841-5.77,5.952-7.4-7.635,30.481-31.447,18.955,19.555-7.422,7.4L682.483,318.85l-9.927,10.242,4.151,4.426,5.757-6.136,7.416,7.65L676.707,348.62Zm11.54,8.537,9.909-10.22-4.126-4.255-5.783,6.165-7.389-7.877L682.47,315.5l11.553,11.721,4.117-4.107-15.664-16.159-27.217,28.08L659.4,339.3l5.77-5.952ZM571.217,323.126l7.4-7.637,17.31,17.858,11.54-11.9,7.4,7.635L595.928,348.62Zm3.263,0,21.447,22.125,15.679-16.173-4.139-4.269-11.54,11.906-17.31-17.859Zm-7.4,19.541-5.77,5.954-7.4-7.637,13.171-13.589,13.172,13.589-7.4,7.637Zm5.77,2.585,4.139-4.268-9.909-10.221-9.907,10.221,4.138,4.268,5.77-5.952Zm-69.238-8.537-5.77,5.952-7.4-7.635,30.48-31.447,18.955,19.555-7.422,7.4L520.927,318.85,511,329.092l4.151,4.426,5.755-6.136,7.417,7.65L515.15,348.62Zm11.54,8.537,9.908-10.22-4.124-4.255-5.783,6.165-7.389-7.877L520.914,315.5l11.553,11.721,4.118-4.107L520.92,306.951,493.7,335.032l4.137,4.268,5.77-5.952ZM409.661,323.126l7.4-7.637,17.31,17.858,11.54-11.9,7.4,7.635L434.372,348.62Zm3.263,0,21.447,22.125,15.679-16.173-4.139-4.269-11.54,11.906-17.31-17.859Zm-7.4,19.541-5.77,5.954-7.4-7.637,13.171-13.589,13.172,13.589-7.4,7.637Zm5.77,2.585,4.139-4.268-9.909-10.221-9.908,10.221,4.138,4.268,5.77-5.952Zm-69.238-8.537-5.77,5.952-7.4-7.635,30.481-31.447L378.32,323.14l-7.422,7.4L359.371,318.85l-9.927,10.242,4.151,4.426,5.755-6.136,7.417,7.65L353.594,348.62Zm11.54,8.537,9.907-10.22-4.124-4.255-5.783,6.165-7.389-7.877L359.358,315.5l11.553,11.721,4.118-4.107-15.664-16.159-27.217,28.08,4.138,4.268,5.77-5.952ZM248.1,323.126l7.4-7.637,17.31,17.858,11.54-11.9,7.4,7.635L272.815,348.62Zm3.263,0,21.447,22.125,15.679-16.173-4.139-4.269-11.54,11.906-17.31-17.859Zm-7.4,19.541-5.77,5.954-7.4-7.637,13.171-13.589,13.172,13.589-7.4,7.637Zm5.77,2.585,4.139-4.268-9.909-10.221-9.907,10.221,4.138,4.268,5.77-5.952ZM180.5,336.715l-5.767,5.952-7.4-7.635,30.481-31.447,18.957,19.555-7.422,7.4L197.815,318.85l-9.927,10.242,4.15,4.426,5.757-6.136,7.416,7.65L192.037,348.62Zm11.54,8.537,9.909-10.22-4.123-4.255-5.786,6.165-7.388-7.877L197.8,315.5l11.553,11.721,4.117-4.107-15.665-16.159-27.216,28.08,4.139,4.268,5.767-5.952ZM86.549,323.126l7.4-7.637,17.31,17.858,11.54-11.9,7.4,7.635L111.261,348.62Zm3.263,0,21.449,22.125,15.677-16.173-4.138-4.269-11.54,11.906-17.31-17.859Zm-7.4,19.541-5.77,5.954-7.4-7.637,13.172-13.589,13.171,13.589-7.4,7.637Zm5.77,2.585,4.138-4.268-9.907-10.221L72.5,340.984l4.139,4.268,5.77-5.952Zm-69.239-8.537-5.77,5.952-7.4-7.635,30.482-31.447L55.207,323.14l-7.422,7.4L36.258,318.85l-9.927,10.242,4.151,4.426,5.757-6.136,7.414,7.65L30.482,348.62Zm11.54,8.537,9.907-10.22-4.124-4.255-5.783,6.165-7.389-7.877L36.245,315.5,47.8,327.218l4.116-4.107L36.252,306.951,9.035,335.032l4.138,4.268,5.77-5.952Zm500.731-4.665L544,327.395l7.4,7.637-12.788,13.192Zm3.263,0,4.137,4.27,9.524-9.825L544,330.763Zm-164.82,0,12.786-13.192,7.4,7.637-12.787,13.192Zm3.263,0,4.138,4.27,9.524-9.825-4.139-4.269Zm-164.82,0,12.786-13.192,7.4,7.637L215.5,348.223Zm3.263,0,4.138,4.27,9.524-9.825-4.139-4.269Zm-164.819,0,12.787-13.192,7.4,7.637L53.945,348.223Zm3.263,0,4.138,4.27,9.524-9.825-4.138-4.269ZM605.837,311.22l7.4-7.635,23.08,23.81,11.54-11.906,7.4,7.637-18.942,19.541Zm3.263,0L636.317,339.3,652,323.126l-4.139-4.27-11.54,11.907-23.08-23.811Zm-164.82,0,7.4-7.635,23.08,23.81,11.54-11.906,7.4,7.637-18.942,19.541Zm3.263,0L474.761,339.3l15.679-16.173-4.139-4.27-11.54,11.907-23.08-23.811Zm-164.82,0,7.4-7.635,23.08,23.81,11.54-11.906,7.4,7.637L313.2,342.667Zm3.263,0L313.2,339.3l15.679-16.173-4.139-4.27L313.2,330.763l-23.08-23.811Zm-164.82,0,7.4-7.635,23.08,23.81,11.54-11.906,7.4,7.637L151.65,342.667Zm3.263,0L151.65,339.3l15.676-16.173-4.136-4.27-11.54,11.907-23.08-23.811Zm423.706,11.906,18.941-19.541,7.4,7.635-18.942,19.542Zm3.265,0,4.136,4.269,15.679-16.175-4.139-4.269Zm-164.821,0,18.941-19.541,7.4,7.635-18.942,19.542Zm3.263,0,4.138,4.269,15.679-16.175-4.139-4.269Zm-164.82,0,18.941-19.541,7.4,7.635-18.942,19.542Zm3.263,0,4.138,4.269L248.1,311.22l-4.139-4.269Zm-164.819,0,18.942-19.541,7.4,7.635L70.871,330.763Zm3.263,0,4.139,4.269L86.549,311.22l-4.138-4.269Zm521.795-5.952,7.4-7.637,7.4,7.637-7.4,7.635Zm3.263,0,4.138,4.269,4.139-4.269-4.139-4.27Zm-164.819,0,7.4-7.637,7.4,7.637-7.4,7.635Zm3.263,0,4.138,4.269,4.139-4.269-4.139-4.27Zm-164.819,0,7.4-7.637,7.4,7.637-7.4,7.635Zm3.263,0,4.138,4.269,4.139-4.269-4.139-4.27Zm-164.819,0,7.4-7.637,7.4,7.637-7.4,7.635Zm3.263,0,4.139,4.269,4.138-4.269-4.138-4.27Zm540.735-10.222-11.54,11.9-7.4-7.635,11.54-11.906-4.139-4.269-11.54,11.906-7.4-7.637,18.941-19.541L666.8,311.22l-7.4,7.635Zm11.54,8.538,4.139-4.269-27.219-28.079L620.64,299.315l4.137,4.27,11.54-11.907,7.4,7.637L632.18,311.22l4.137,4.269,11.54-11.9Zm-173.1-8.538-11.54,11.9-7.4-7.635,11.54-11.906-4.139-4.269-11.54,11.906-7.4-7.637,18.941-19.541,30.482,31.447-7.4,7.635Zm11.54,8.538,4.139-4.269-27.219-28.079-15.677,16.173,4.137,4.27,11.54-11.907,7.4,7.637-11.54,11.906,4.138,4.269,11.54-11.9Zm-173.1-8.538-11.54,11.9-7.4-7.635,11.54-11.906-4.139-4.269-11.54,11.906-7.4-7.637L313.2,279.774l30.482,31.447-7.4,7.635Zm11.54,8.538,4.138-4.269L313.2,283.141l-15.677,16.173,4.138,4.27,11.54-11.907,7.4,7.637-11.54,11.906,4.138,4.269,11.54-11.9ZM163.19,306.951l-11.54,11.9-7.4-7.635,11.538-11.906-4.136-4.269-11.54,11.906-7.4-7.637,18.942-19.541,30.481,31.447-7.4,7.635Zm11.54,8.538,4.136-4.269L151.65,283.141l-15.679,16.173,4.139,4.27,11.54-11.907,7.4,7.637-11.54,11.906,4.139,4.269,11.54-11.9Zm350.328-16.175,13.171-13.589,7.4,7.637-5.77,5.952,11.155,11.509-7.4,7.635Zm3.265,0,15.292,15.778,4.139-4.269L536.6,299.315l5.77-5.952-4.139-4.269Zm-164.821,0,13.171-13.589,7.4,7.637-5.769,5.952,11.155,11.509-7.4,7.635Zm3.265,0,15.294,15.778,4.136-4.269-11.155-11.509,5.77-5.952-4.139-4.269Zm-164.821,0,13.171-13.589,7.4,7.637-5.77,5.952L227.9,310.823l-7.4,7.635Zm3.263,0L220.5,315.092l4.138-4.269-11.155-11.509,5.77-5.952-4.139-4.269Zm-164.82,0,13.172-13.589,7.4,7.637-5.77,5.952,11.155,11.509-7.4,7.635Zm3.263,0,15.294,15.778,4.138-4.269L51.929,299.315l5.77-5.952-4.138-4.269Zm527.564,0,7.4-7.637,13.172,13.589-7.4,7.637Zm3.263,0,9.907,10.223,4.139-4.27-9.909-10.221Zm-164.82,0,7.4-7.637,13.172,13.589-7.4,7.637Zm3.263,0,9.907,10.223,4.139-4.27-9.909-10.221Zm-164.82,0,7.4-7.637,13.172,13.589-7.4,7.637Zm3.263,0,9.907,10.223,4.139-4.27-9.909-10.221Zm-164.82,0,7.4-7.637,13.171,13.589-7.4,7.637Zm3.263,0,9.909,10.223,4.138-4.27-9.907-10.221Zm573.724,0,24.326-25.1,7.4,7.635-24.327,25.1Zm3.263,0,4.138,4.27L692,281.854l-4.139-4.269Zm-84.042-11.9,7.4-7.637,11.54,11.9,23.079-23.81,7.4,7.637L601.7,306.951Zm3.263,0L601.7,303.585l27.218-28.08-4.139-4.27L601.7,295.046l-11.54-11.9Zm-37.883,11.9,5.77-5.952-5.77-5.952,7.4-7.637,13.172,13.589-13.172,13.589Zm3.265-11.9,5.769,5.952-5.769,5.952,4.136,4.27,9.909-10.223-9.909-10.221Zm-49.422,11.9,24.326-25.1,7.4,7.635-24.327,25.1Zm7.4,4.27,21.064-21.731-4.139-4.269-21.062,21.73ZM421.2,287.41l7.4-7.637,11.54,11.9,23.08-23.81,7.4,7.637-30.482,31.447Zm3.263,0,15.677,16.175L467.36,275.5l-4.139-4.27-23.08,23.811-11.54-11.9Zm-37.883,11.9,5.77-5.952-5.77-5.952,7.4-7.637,13.172,13.589-13.172,13.589Zm3.263-11.9,5.77,5.952-5.77,5.952,4.138,4.27,9.909-10.223-9.909-10.221Zm-49.423,11.9,24.328-25.1,7.4,7.635-24.327,25.1Zm7.4,4.27,21.064-21.731-4.137-4.269-21.064,21.73Zm-88.18-16.175,7.4-7.637,11.54,11.9,23.08-23.81,7.4,7.637-30.482,31.447Zm3.263,0,15.677,16.175L305.8,275.5l-4.139-4.27-23.08,23.811-11.54-11.9Zm-37.883,11.9,5.77-5.952-5.77-5.952,7.4-7.637L245.6,293.363l-13.172,13.589Zm3.263-11.9,5.77,5.952-5.77,5.952,4.138,4.27,9.909-10.223-9.909-10.221Zm-49.423,11.9,24.328-25.1,7.4,7.635-24.328,25.1Zm7.4,4.27,21.064-21.731-4.136-4.269-21.064,21.73ZM98.088,287.41l7.4-7.637,11.54,11.9,23.08-23.81,7.4,7.637-30.481,31.447Zm3.263,0,15.679,16.175,27.217-28.08-4.138-4.27-23.08,23.811-11.54-11.9Zm-37.883,11.9,5.77-5.952-5.77-5.952,7.4-7.637,13.171,13.589L70.871,306.951Zm3.263-11.9,5.77,5.952-5.77,5.952,4.139,4.27,9.908-10.223-9.908-10.221Zm-49.423,11.9,24.327-25.1,7.4,7.635-24.327,25.1Zm7.4,4.27,21.062-21.731-4.138-4.269-21.064,21.73Zm609.974-34.032,7.4-7.637L666.8,287.41l-7.4,7.635Zm3.263,0L659.4,291.678l4.139-4.268-21.449-22.128Zm-164.82,0,7.4-7.637,24.712,25.495-7.4,7.635Zm3.263,0,21.447,22.125,4.139-4.268-21.449-22.128Zm-164.82,0,7.4-7.637,24.712,25.495-7.4,7.635Zm3.263,0,21.447,22.125,4.138-4.268-21.447-22.128Zm-164.82,0,7.4-7.637,24.711,25.495-7.4,7.635Zm3.263,0,21.449,22.125,4.136-4.268L157.42,265.282Zm412.166,11.9,24.711-25.493L609.1,275.5l-7.4,7.637-11.54-11.907-17.31,17.859Zm3.263,0,4.138,4.269,17.31-17.858,11.54,11.906,4.139-4.269L590.158,259.33Zm-164.82,0L428.6,255.964,447.544,275.5l-7.4,7.637L428.6,271.234l-17.31,17.859Zm3.263,0,4.138,4.269,17.31-17.858,11.54,11.906,4.139-4.269L428.6,259.33Zm-164.82,0,24.711-25.493L285.988,275.5l-7.4,7.637-11.54-11.907-17.31,17.859Zm3.263,0,4.138,4.269,17.31-17.858,11.54,11.906,4.139-4.269L267.046,259.33Zm-164.82,0,24.712-25.493L124.432,275.5l-7.4,7.637-11.54-11.907-17.31,17.859Zm3.263,0,4.139,4.269,17.31-17.858,11.54,11.906,4.138-4.269L105.491,259.33Zm573.714-11.915,18.932-19.1,7.464,7.186-5.813,5.8,5.757,6.136-13.159,13.576Zm3.282.021,9.9,10.212,9.921-10.235-5.783-6.166,5.726-5.71-4.075-3.925ZM536.6,275.5l18.941-19.541,13.172,13.589-7.4,7.635-5.77-5.954L544,283.141Zm3.265,0L544,279.774l11.54-11.906,5.77,5.954,4.139-4.269-9.909-10.223ZM496.2,269.542l18.931-19.1,7.464,7.186-5.812,5.8,5.756,6.136L509.38,283.141Zm13.18,10.232,9.921-10.235-5.783-6.166,5.727-5.71-4.076-3.925-15.688,15.826ZM375.042,275.5l18.941-19.541,13.172,13.589-7.4,7.635-5.77-5.954-11.54,11.907Zm3.265,0,4.136,4.269,11.54-11.906,5.77,5.954,4.139-4.269-9.909-10.223Zm-43.663-5.963,18.933-19.1,7.464,7.186-5.812,5.8,5.756,6.136-13.159,13.576Zm13.181,10.232,9.921-10.235-5.783-6.166,5.727-5.71-4.076-3.925-15.687,15.826ZM213.485,275.5l18.941-19.541L245.6,269.553l-7.4,7.635-5.77-5.954-11.54,11.907Zm3.263,0,4.138,4.269,11.54-11.906,5.77,5.954,4.139-4.269-9.909-10.223Zm-43.662-5.963,18.933-19.1,7.464,7.186-5.813,5.8,5.757,6.136-13.16,13.576Zm13.18,10.232,9.922-10.235-5.783-6.166,5.727-5.71-4.076-3.925L176.37,269.562ZM51.929,275.5l18.942-19.541,13.171,13.589-7.4,7.635-5.77-5.954-11.54,11.907Zm3.263,0,4.139,4.269,11.54-11.906,5.77,5.954,4.138-4.269L70.871,259.33ZM11.53,269.542l18.933-19.1,7.464,7.186-5.813,5.8,5.757,6.136L24.712,283.141Zm13.182,10.232,9.921-10.235-5.783-6.166,5.727-5.71L30.5,253.737,14.814,269.562ZM605.837,263.6l7.4-7.635,7.4,7.635-7.4,7.635Zm3.263,0,4.138,4.269,4.139-4.269-4.139-4.269Zm-84.042,0L544,244.057l7.4,7.637L532.46,271.234Zm3.265,0,4.138,4.269,15.677-16.175L544,247.426Zm-84.042,0,7.4-7.635,7.4,7.635-7.4,7.635Zm3.263,0,4.138,4.269,4.139-4.269-4.139-4.269Zm-84.042,0,18.941-19.542,7.4,7.637L370.9,271.234Zm3.265,0,4.136,4.269,15.679-16.175-4.139-4.268Zm-84.042,0,7.4-7.635,7.4,7.635-7.4,7.635Zm3.263,0,4.138,4.269,4.139-4.269-4.139-4.269Zm-84.042,0,18.941-19.542,7.4,7.637-18.942,19.541Zm3.263,0,4.138,4.269,15.679-16.175-4.139-4.268Zm-84.041,0,7.4-7.635,7.4,7.635-7.4,7.635Zm3.263,0,4.139,4.269,4.138-4.269-4.138-4.269Zm-84.042,0,18.942-19.542,7.4,7.637L47.792,271.234Zm3.263,0,4.139,4.269,15.677-16.175-4.138-4.268Zm602.573-5.954,24.711-25.493,7.4,7.637-24.712,25.493Zm7.4,4.27,21.448-22.127-4.139-4.27L649.49,257.646Zm-63.469-38.3-17.31,17.858-7.4-7.635,24.711-25.494,23.08,23.81,11.925-12.3,13.172,13.589-7.4,7.635-5.77-5.952-4.522,4.666,9.907,10.221,17.31-17.858,7.4,7.637-24.712,25.493Zm40.389,38.3L652,239.789l-4.139-4.27-17.31,17.859-13.171-13.589,7.786-8.034,5.77,5.952,4.139-4.268-9.909-10.223-11.925,12.3-23.08-23.81-21.447,22.128,4.138,4.268,17.31-17.856Zm-82.794-22.524,7.4-7.637,17.693,18.255,5.77-5.954,7.4,7.637-13.172,13.589Zm3.264,0,21.831,22.524,9.909-10.222-4.139-4.268-5.77,5.952-17.693-18.255ZM484.67,257.646l24.711-25.493,7.4,7.637-24.712,25.493Zm7.4,4.27,21.447-22.127-4.138-4.27-21.447,22.127Zm-63.469-38.3-17.31,17.858-7.4-7.635L428.6,208.343l23.08,23.81,11.925-12.3,13.172,13.589-7.4,7.635-5.77-5.952-4.523,4.666,9.907,10.221,17.31-17.858,7.4,7.637-24.712,25.493Zm40.389,38.3,21.449-22.127-4.139-4.27-17.31,17.859L455.82,239.789l7.786-8.034,5.77,5.952,4.138-4.268-9.908-10.223-11.925,12.3-23.08-23.81-21.447,22.128,4.138,4.268,17.31-17.856ZM386.2,239.392l7.4-7.637,17.695,18.255,5.77-5.954,7.4,7.637-13.172,13.589Zm3.265,0,21.831,22.524,9.909-10.222-4.139-4.268-5.77,5.952L393.6,235.123Zm-66.347,18.253,24.711-25.493,7.4,7.637-24.712,25.493Zm7.4,4.27,21.447-22.127-4.138-4.27-21.447,22.127Zm-63.469-38.3-17.31,17.858-7.4-7.635,24.711-25.494,23.08,23.81,11.925-12.3,13.172,13.589-7.4,7.635-5.77-5.952-4.523,4.666,9.907,10.221,17.31-17.858,7.4,7.637-24.712,25.493Zm40.389,38.3,21.449-22.127-4.139-4.27-17.31,17.859-13.171-13.589,7.786-8.034,5.77,5.952,4.138-4.268-9.907-10.223-11.925,12.3-23.08-23.81L245.6,233.837l4.138,4.268,17.31-17.856ZM224.64,239.392l7.4-7.637,17.694,18.255,5.77-5.954,7.4,7.637-13.172,13.589Zm3.265,0,21.831,22.524,9.909-10.222-4.139-4.268-5.77,5.952-17.694-18.255Zm-66.349,18.253,24.711-25.493,7.4,7.637L168.96,265.282Zm7.4,4.27,21.446-22.127-4.139-4.27-21.446,22.127Zm-63.469-38.3-17.31,17.858-7.4-7.635,24.712-25.494,23.08,23.81,11.922-12.3,13.174,13.589-7.4,7.635-5.77-5.952-4.521,4.666,9.909,10.221,17.31-17.858,7.4,7.637L145.88,265.282Zm40.389,38.3,21.446-22.127-4.136-4.27-17.31,17.859-13.172-13.589,7.785-8.034,5.77,5.952,4.139-4.268-9.909-10.223-11.922,12.3-23.08-23.81L84.042,233.837l4.139,4.268,17.31-17.856Zm-82.8-22.524,7.4-7.637L88.181,250.01l5.77-5.954,7.4,7.637L88.181,265.282Zm3.263,0,21.834,22.524,9.907-10.222-4.138-4.268-5.77,5.952L70.486,235.123ZM0,257.646l24.712-25.493,7.4,7.637L7.4,265.282Zm3.265,0,4.138,4.27L28.85,239.789l-4.138-4.27Zm579.492-17.856,7.4-7.637L609.1,251.693l-7.4,7.637Zm3.263,0L601.7,255.964l4.139-4.27-15.679-16.175Zm-164.82,0,7.4-7.637,18.942,19.541-7.4,7.637Zm3.263,0,15.677,16.175,4.139-4.27L428.6,235.519Zm-164.819,0,7.4-7.637,18.942,19.541-7.4,7.637Zm3.263,0,15.677,16.175,4.139-4.27-15.679-16.175Zm-164.819,0,7.4-7.637,18.941,19.541-7.4,7.637Zm3.263,0,15.679,16.175,4.138-4.27-15.677-16.175Zm579.494,5.952,24.711-25.493,7.4,7.635-24.712,25.494Zm3.263,0,4.138,4.269,21.447-22.127-4.138-4.269Zm-164.821,0L544,220.248l7.4,7.635L526.69,253.378Zm7.4,4.269,21.447-22.127L544,223.615l-21.446,22.127Zm-168.958-4.269,24.711-25.493,7.4,7.635-24.712,25.494Zm7.4,4.269,21.449-22.127-4.139-4.269L361,245.741Zm-168.957-4.269,24.711-25.493,7.4,7.635-24.712,25.494Zm7.4,4.269,21.449-22.127-4.139-4.269-21.447,22.127ZM34.619,245.741l24.712-25.493,7.4,7.635L42.022,253.378Zm7.4,4.269,21.447-22.127-4.138-4.269L37.883,245.741Zm615.744-39.589,7.4-7.635,17.31,17.858,11.54-11.906,7.4,7.637-18.942,19.541Zm3.263,0,21.447,22.128,15.677-16.175-4.138-4.269-11.54,11.9-17.31-17.856Zm-164.82,0,7.4-7.635,17.31,17.858,11.54-11.906,7.4,7.637L520.92,235.916ZM520.92,232.55,536.6,216.375l-4.137-4.269-11.54,11.9-17.31-17.856-4.138,4.268ZM334.652,210.421l7.4-7.635,17.31,17.858L370.9,208.738l7.4,7.637-18.942,19.541Zm24.712,22.128,15.677-16.175-4.139-4.269-11.538,11.9-17.31-17.856-4.137,4.268ZM173.1,210.421l7.4-7.635,17.31,17.858,11.54-11.906,7.4,7.637-18.942,19.541Zm24.711,22.128,15.679-16.175-4.139-4.269-11.54,11.9L180.5,206.154l-4.136,4.268ZM11.54,210.421l7.4-7.635,17.31,17.858,11.54-11.906,7.4,7.637L36.252,235.916ZM36.252,232.55l15.677-16.175-4.138-4.269-11.54,11.9-17.31-17.856L14.8,210.421Zm611.308-8.916-5.449,5.959-7.434-7.671,12.781-12.9,19.355,18.936-7.406,7.767Zm11.825,8.715,4.136-4.336-16.036-15.69-9.528,9.618,4.106,4.235,5.441-5.948ZM486,223.634l-5.449,5.959-7.434-7.671,12.782-12.9,19.355,18.936-7.406,7.767Zm11.825,8.715,4.135-4.336-16.034-15.69-9.528,9.618,4.107,4.235,5.44-5.948Zm-173.381-8.715L319,229.593l-7.434-7.671,12.783-12.9L343.7,227.954l-7.406,7.767Zm11.826,8.715,4.134-4.336-16.036-15.69-9.525,9.618,4.1,4.235,5.441-5.948Zm-173.382-8.715-5.449,5.959-7.435-7.671,12.784-12.9,19.354,18.936-7.406,7.767Zm11.826,8.715,4.134-4.336-16.034-15.69-9.526,9.618,4.1,4.235,5.441-5.948ZM536.6,204.072l7.4-7.635,17.31,17.858,5.77-5.952,7.4,7.635-13.172,13.589Zm3.265,0L561.308,226.2l9.909-10.223-4.139-4.269-5.77,5.952L544,199.8Zm-164.821,0,7.4-7.635,17.31,17.858,5.77-5.952,7.4,7.635-13.172,13.589Zm3.265,0L399.752,226.2l9.909-10.223-4.139-4.269-5.77,5.952L382.442,199.8Zm-164.821,0,7.4-7.635,17.31,17.858,5.77-5.952,7.4,7.635L238.2,229.567Zm3.263,0L238.2,226.2l9.909-10.223-4.139-4.269-5.77,5.952L220.886,199.8Zm-164.82,0,7.4-7.635,17.31,17.858,5.77-5.952,7.4,7.635L76.641,229.567Zm3.263,0L76.641,226.2l9.907-10.223-4.138-4.269-5.77,5.952L59.331,199.8ZM577.408,186.65l7.333-8.318,35.892,37.653-7.4,7.63Zm35.83,33.6,4.144-4.277L584.806,181.8l-4.208,4.777Zm-197.384-33.6,7.332-8.318,35.891,37.653-7.394,7.63Zm35.828,33.6,4.144-4.277L423.25,181.8l-4.208,4.777ZM254.3,186.65l7.332-8.318,35.891,37.653-7.394,7.63Zm35.828,33.6,4.144-4.277L261.694,181.8l-4.208,4.777ZM92.741,186.65l7.33-8.318,35.892,37.653-7.393,7.63Zm35.829,33.6,4.144-4.277L100.138,181.8l-4.208,4.777Zm482.94-22.132,19.038-19.535,7.4,7.635L626.4,198.134l3.959,4.226,5.537-5.91,7.861,7.6-13.407,13.6ZM630.363,214.3l10.058-10.2-4.449-4.3-5.617,5.995-7.2-7.679,11.526-11.891-4.142-4.272-15.772,16.18ZM449.954,198.116l19.038-19.535,7.4,7.635L464.84,198.134l3.959,4.226,5.537-5.91,7.861,7.6-13.407,13.6ZM468.808,214.3l10.057-10.2-4.449-4.3-5.617,5.995-7.2-7.679,11.526-11.891-4.141-4.272-15.771,16.18ZM288.4,198.116l19.039-19.535,7.4,7.635-11.553,11.918,3.959,4.226,5.538-5.91,7.859,7.6-13.407,13.6ZM307.252,214.3l10.057-10.2-4.448-4.3-5.618,5.995-7.2-7.679,11.526-11.891-4.142-4.272-15.771,16.18Zm-180.41-16.183,19.039-19.535,7.4,7.635-11.553,11.918,3.959,4.226,5.538-5.91,7.861,7.6-13.408,13.6ZM145.7,214.3l10.058-10.2-4.449-4.3-5.618,5.995-7.2-7.679,11.526-11.891-4.142-4.272-15.771,16.18Zm523.274-15.7,7.293-8.78,13.583,14.239-7.329,8.067Zm13.467,10.132,4.209-4.633L676.38,193.332l-4.245,5.109ZM507.414,198.594l7.293-8.78,13.583,14.239-7.33,8.067Zm13.467,10.132,4.209-4.633-10.266-10.761-4.245,5.109ZM345.857,198.594l7.293-8.78,13.583,14.239-7.33,8.067Zm13.467,10.132,4.21-4.633-10.266-10.761-4.246,5.109ZM184.3,198.594l7.293-8.78,13.584,14.239-7.332,8.067Zm13.465,10.132,4.211-4.633-10.266-10.761-4.245,5.109ZM22.744,198.594l7.294-8.78,13.584,14.239-7.33,8.067Zm13.468,10.132,4.208-4.633L30.155,193.332l-4.244,5.109Zm535.005-4.654,7.4-7.635,7.4,7.635-7.4,7.637Zm3.263,0,4.137,4.27,4.139-4.27-4.139-4.268Zm-164.82,0,7.4-7.635,7.4,7.635-7.4,7.637Zm3.263,0,4.138,4.27,4.139-4.27-4.139-4.268Zm-164.82,0,7.4-7.635,7.4,7.635-7.4,7.637Zm3.263,0,4.138,4.27,4.139-4.27-4.139-4.268Zm-164.82,0,7.4-7.635,7.4,7.635-7.4,7.637Zm3.263,0,4.139,4.27,4.138-4.27L93.951,199.8Zm452.556-17.856,7.4-7.637,11.54,11.9,5.77-5.952,7.4,7.637-13.172,13.589Zm18.941,16.173,9.909-10.221-4.139-4.27-5.77,5.953-11.54-11.906-4.136,4.27Zm-180.5-16.173,7.4-7.637,11.54,11.9,5.77-5.952,7.4,7.637-13.172,13.589Zm18.941,16.173,9.909-10.221-4.139-4.27-5.77,5.953-11.54-11.906-4.138,4.27Zm-180.5-16.173,7.4-7.637,11.54,11.9,5.77-5.952,7.4,7.637L238.2,205.757ZM238.2,202.389l9.909-10.221-4.139-4.27-5.77,5.953-11.54-11.906-4.138,4.27ZM57.7,186.216l7.4-7.637,11.54,11.9,5.77-5.952,7.4,7.637L76.641,205.757Zm18.942,16.173,9.907-10.221-4.138-4.27-5.77,5.953L65.1,181.945l-4.139,4.27Zm563.632-10.2,5.607-5.985-5.423-5.995,7.81-7.553,11.5,11.877,5.361-5.543,7.409,7.42-19.01,19.34ZM653.532,202.4l15.707-15.977-4.084-4.089L659.77,187.9l-11.555-11.932-4.5,4.35,5.346,5.912-5.549,5.921ZM478.717,192.186l5.607-5.985-5.423-5.995,7.81-7.553,11.5,11.877,5.362-5.543,7.406,7.42-19.009,19.34ZM491.976,202.4l15.707-15.977-4.084-4.089-5.385,5.567-11.555-11.932-4.5,4.35,5.347,5.912-5.547,5.921ZM317.161,192.186l5.607-5.985-5.423-5.995,7.81-7.553,11.5,11.877,5.362-5.543,7.408,7.42-19.01,19.34ZM330.42,202.4l15.707-15.977-4.083-4.089-5.386,5.567L325.1,175.967l-4.5,4.35,5.348,5.912L320.4,192.15ZM155.605,192.186l5.607-5.985-5.423-5.995,7.81-7.553,11.5,11.877,5.362-5.543,7.408,7.42-19.01,19.34ZM168.864,202.4l15.707-15.977-4.083-4.089L175.1,187.9l-11.556-11.932-4.5,4.35,5.348,5.912-5.547,5.921Zm511.6-16.579,7.4-7.637,13.557,13.986-7.4,7.637Zm13.556,10.618,4.138-4.269-10.293-10.62-4.138,4.27ZM518.9,185.819l7.4-7.637,13.557,13.986-7.4,7.637Zm13.556,10.618,4.137-4.269-10.292-10.62-4.138,4.27ZM357.348,185.819l7.4-7.637,13.556,13.986-7.4,7.637ZM370.9,196.437l4.139-4.269-10.291-10.62-4.139,4.27ZM195.79,185.819l7.4-7.637,13.555,13.986-7.4,7.637Zm13.556,10.618,4.139-4.269-10.291-10.62-4.139,4.27ZM34.234,185.819l7.4-7.637,13.556,13.986-7.4,7.637Zm13.557,10.618,4.138-4.269-10.293-10.62-4.138,4.27Zm551.89-9.824,19.326-19.939,7.4,7.635-19.327,19.939Zm7.4,4.268,16.064-16.572-4.139-4.269-16.062,16.573Zm-168.957-4.268,19.326-19.939,7.4,7.635-19.327,19.939Zm7.4,4.268,16.064-16.572-4.139-4.269-16.063,16.573Zm-168.957-4.268L295.9,166.674l7.4,7.635-19.326,19.939Zm7.4,4.268,16.063-16.572L295.9,170.04l-16.063,16.573Zm-168.958-4.268,19.327-19.939,7.4,7.635-19.326,19.939Zm7.4,4.268,16.062-16.572-4.138-4.269-16.064,16.573ZM665.167,170.04l-5.77,5.954-7.4-7.637,30.481-31.447,18.955,19.555-7.422,7.4-11.527-11.693-9.927,10.243,4.151,4.426,5.757-6.138,7.416,7.65-13.172,13.589Zm11.54,8.539,9.909-10.223L682.49,164.1l-5.783,6.166-7.389-7.877,13.152-13.568,11.553,11.72,4.117-4.106-15.664-16.161-27.217,28.08,4.138,4.27,5.77-5.953ZM571.217,156.451l7.4-7.635,17.31,17.858,11.54-11.906,7.4,7.637-18.942,19.541Zm3.263,0,21.447,22.128L611.607,162.4l-4.139-4.269-11.54,11.9-17.31-17.856Zm-7.4,19.542-5.77,5.952-7.4-7.637,13.171-13.589,13.172,13.589-7.4,7.637Zm5.77,2.586,4.139-4.27-9.909-10.221-9.907,10.221,4.138,4.27,5.77-5.952Zm-69.238-8.539-5.77,5.954-7.4-7.637,30.48-31.447,18.955,19.555-7.422,7.4-11.526-11.693L511,162.418l4.151,4.426,5.755-6.138,7.417,7.65L515.15,181.945Zm11.54,8.539,9.908-10.223-4.124-4.255-5.783,6.166-7.389-7.877,13.152-13.568,11.553,11.72,4.118-4.106L520.92,140.276,493.7,168.357l4.137,4.27,5.77-5.953ZM409.661,156.451l7.4-7.635,17.31,17.858,11.54-11.906,7.4,7.637-18.942,19.541Zm3.263,0,21.447,22.128L450.05,162.4l-4.139-4.269-11.54,11.9-17.31-17.856Zm-7.4,19.542-5.77,5.952-7.4-7.637,13.171-13.589,13.172,13.589-7.4,7.637Zm5.77,2.586,4.139-4.27-9.909-10.221-9.908,10.221,4.138,4.27,5.77-5.952Zm-69.238-8.539-5.77,5.954-7.4-7.637,30.481-31.447,18.956,19.555-7.422,7.4-11.527-11.693-9.927,10.243,4.151,4.426,5.755-6.138,7.417,7.65-13.172,13.589Zm11.54,8.539,9.907-10.223-4.124-4.255-5.783,6.166-7.389-7.877,13.152-13.568,11.553,11.72,4.118-4.106-15.664-16.161-27.217,28.08,4.138,4.27,5.77-5.953ZM248.1,156.451l7.4-7.635,17.31,17.858,11.54-11.906,7.4,7.637-18.942,19.541Zm3.263,0,21.447,22.128L288.494,162.4l-4.139-4.269-11.54,11.9-17.31-17.856Zm-7.4,19.542-5.77,5.952-7.4-7.637,13.171-13.589,13.172,13.589-7.4,7.637Zm5.77,2.586,4.139-4.27-9.909-10.221-9.907,10.221,4.138,4.27,5.77-5.952ZM180.5,170.04l-5.767,5.954-7.4-7.637,30.481-31.447,18.957,19.555-7.422,7.4-11.527-11.693-9.927,10.243,4.15,4.426,5.757-6.138,7.416,7.65-13.172,13.589Zm11.54,8.539,9.909-10.223-4.123-4.255-5.786,6.166-7.388-7.877L197.8,148.823l11.553,11.72,4.117-4.106-15.665-16.161-27.216,28.08,4.139,4.27,5.767-5.953ZM86.549,156.451l7.4-7.635,17.31,17.858,11.54-11.906,7.4,7.637-18.941,19.541Zm3.263,0,21.449,22.128L126.938,162.4l-4.138-4.269-11.54,11.9-17.31-17.856Zm-7.4,19.542-5.77,5.952-7.4-7.637L82.411,160.72l13.171,13.589-7.4,7.637Zm5.77,2.586,4.138-4.27-9.907-10.221L72.5,174.309l4.139,4.27,5.77-5.952ZM18.942,170.04l-5.77,5.954-7.4-7.637L36.252,136.91l18.955,19.555-7.422,7.4L36.258,152.175l-9.927,10.243,4.151,4.426,5.757-6.138,7.414,7.65L30.482,181.945Zm11.54,8.539,9.907-10.223L36.265,164.1l-5.783,6.166-7.389-7.877,13.152-13.568L47.8,160.543l4.116-4.106L36.252,140.276,9.035,168.357l4.138,4.27,5.77-5.953Zm500.731-4.667L544,160.72l7.4,7.637-12.788,13.192Zm3.263,0,4.137,4.27,9.524-9.825L544,164.088Zm-164.82,0,12.786-13.192,7.4,7.637-12.787,13.192Zm3.263,0,4.138,4.27,9.524-9.825-4.139-4.269Zm-164.82,0,12.786-13.192,7.4,7.637L215.5,181.548Zm3.263,0,4.138,4.27,9.524-9.825-4.139-4.269Zm-164.819,0L59.331,160.72l7.4,7.637L53.945,181.548Zm3.263,0,4.138,4.27,9.524-9.825-4.138-4.269Zm556.029-29.365,7.4-7.637,23.08,23.81,11.54-11.9,7.4,7.635-18.942,19.542Zm3.263,0,27.217,28.08L652,156.451l-4.139-4.268-11.54,11.9-23.08-23.811Zm-164.82,0,7.4-7.637,23.08,23.81,11.54-11.9,7.4,7.635-18.942,19.542Zm3.263,0,27.217,28.08,15.679-16.176-4.139-4.268-11.54,11.9-23.08-23.811Zm-164.82,0,7.4-7.637,23.08,23.81,11.54-11.9,7.4,7.635L313.2,175.993Zm3.263,0,27.217,28.08,15.679-16.176-4.139-4.268-11.54,11.9-23.08-23.811Zm-164.82,0,7.4-7.637,23.08,23.81,11.54-11.9,7.4,7.635L151.65,175.993Zm3.263,0,27.219,28.08,15.676-16.176-4.136-4.268-11.54,11.9-23.08-23.811Zm423.706,11.9,18.941-19.541,7.4,7.637-18.942,19.541Zm3.265,0,4.136,4.269,15.679-16.173-4.139-4.27Zm-164.821,0,18.941-19.541,7.4,7.637-18.942,19.541Zm3.263,0,4.138,4.269,15.679-16.173-4.139-4.27Zm-164.82,0,18.941-19.541,7.4,7.637-18.942,19.541Zm3.263,0,4.138,4.269L248.1,144.547l-4.139-4.27Zm-164.819,0L82.411,136.91l7.4,7.637L70.871,164.088Zm3.263,0,4.139,4.269,15.677-16.173-4.138-4.27ZM588.527,150.5l7.4-7.637,7.4,7.637-7.4,7.637Zm3.263,0,4.138,4.269,4.139-4.269-4.139-4.268Zm-164.819,0,7.4-7.637,7.4,7.637-7.4,7.637Zm3.263,0,4.138,4.269,4.139-4.269-4.139-4.268Zm-164.819,0,7.4-7.637,7.4,7.637-7.4,7.637Zm3.263,0,4.138,4.269,4.139-4.269-4.139-4.268Zm-164.819,0,7.4-7.637,7.4,7.637-7.4,7.637Zm3.263,0,4.139,4.269L115.4,150.5l-4.138-4.268Zm540.735-10.222-11.54,11.907-7.4-7.637,11.54-11.9-4.139-4.27-11.54,11.9-7.4-7.634L636.317,113.1,666.8,144.547l-7.4,7.637Zm11.54,8.539,4.139-4.269-27.219-28.08L620.64,132.643l4.137,4.268,11.54-11.9,7.4,7.637-11.54,11.9,4.137,4.269,11.54-11.906Zm-173.1-8.539-11.54,11.907-7.4-7.637,11.54-11.9-4.139-4.27-11.54,11.9-7.4-7.634L474.761,113.1l30.482,31.448-7.4,7.637Zm11.54,8.539,4.139-4.269-27.219-28.08-15.677,16.176,4.137,4.268,11.54-11.9,7.4,7.637-11.54,11.9,4.138,4.269L486.3,136.91Zm-173.1-8.539L313.2,152.183l-7.4-7.637,11.54-11.9-4.139-4.27-11.54,11.9-7.4-7.634L313.2,113.1l30.482,31.448-7.4,7.637Zm11.54,8.539,4.138-4.269L313.2,116.467l-15.677,16.176,4.138,4.268,11.54-11.9,7.4,7.637-11.54,11.9,4.138,4.269,11.54-11.906ZM163.19,140.276l-11.54,11.907-7.4-7.637,11.538-11.9-4.136-4.27-11.54,11.9-7.4-7.634L151.65,113.1l30.481,31.448-7.4,7.637Zm11.54,8.539,4.136-4.269-27.216-28.08-15.679,16.176,4.139,4.268,11.54-11.9,7.4,7.637-11.54,11.9,4.139,4.269,11.54-11.906Zm350.328-16.173,13.171-13.589,7.4,7.634-5.77,5.955,11.155,11.507-7.4,7.637Zm3.265,0,15.292,15.776,4.139-4.269L536.6,132.643l5.77-5.955-4.139-4.268Zm-164.821,0,13.171-13.589,7.4,7.634-5.769,5.955,11.155,11.507-7.4,7.637Zm3.265,0,15.294,15.776,4.136-4.269-11.155-11.507,5.77-5.955-4.139-4.268Zm-164.821,0,13.171-13.589,7.4,7.634-5.77,5.955L227.9,144.15l-7.4,7.637Zm3.263,0L220.5,148.419l4.138-4.269-11.155-11.507,5.77-5.955-4.139-4.268Zm-164.82,0,13.172-13.589,7.4,7.634-5.77,5.955L66.347,144.15l-7.4,7.637Zm3.263,0,15.294,15.776,4.138-4.269L51.929,132.643l5.77-5.955-4.138-4.268Zm527.564,0,7.4-7.637,13.172,13.589-7.4,7.637Zm3.263,0,9.907,10.22,4.139-4.268-9.909-10.222Zm-164.82,0,7.4-7.637,13.172,13.589-7.4,7.637Zm3.263,0,9.907,10.22,4.139-4.268-9.909-10.222Zm-164.82,0,7.4-7.637,13.172,13.589-7.4,7.637Zm3.263,0,9.907,10.22,4.139-4.268-9.909-10.222Zm-164.82,0,7.4-7.637,13.171,13.589-7.4,7.637Zm3.263,0,9.909,10.22,4.138-4.268-9.907-10.222Zm573.724,0,24.326-25.1,7.4,7.637-24.327,25.1Zm3.263,0,4.138,4.268L692,115.18l-4.139-4.269Zm-84.042-11.907,7.4-7.637,11.54,11.907,23.079-23.811,7.4,7.637L601.7,140.276Zm3.263,0L601.7,136.91l27.218-28.079-4.139-4.269L601.7,128.372l-11.54-11.906Zm-37.883,11.907,5.77-5.955-5.77-5.952,7.4-7.637,13.172,13.589-13.172,13.589Zm3.265-11.907,5.769,5.952-5.769,5.955,4.136,4.268,9.909-10.222-9.909-10.221ZM501.98,132.643l24.326-25.1,7.4,7.637-24.327,25.1Zm7.4,4.268,21.064-21.73-4.139-4.269-21.062,21.731ZM421.2,120.736l7.4-7.637,11.54,11.907,23.08-23.811,7.4,7.637-30.482,31.445Zm3.263,0,15.677,16.175,27.219-28.079-4.139-4.269-23.08,23.81L428.6,116.467Zm-37.883,11.907,5.77-5.955-5.77-5.952,7.4-7.637,13.172,13.589-13.172,13.589Zm3.263-11.907,5.77,5.952-5.77,5.955,4.138,4.268,9.909-10.222-9.909-10.221Zm-49.423,11.907,24.328-25.1,7.4,7.637-24.327,25.1Zm7.4,4.268,21.064-21.73-4.137-4.269-21.064,21.731Zm-88.18-16.175,7.4-7.637,11.54,11.907,23.08-23.811,7.4,7.637-30.482,31.445Zm3.263,0,15.677,16.175L305.8,108.831l-4.139-4.269-23.08,23.81-11.54-11.906Zm-37.883,11.907,5.77-5.955-5.77-5.952,7.4-7.637L245.6,126.688l-13.172,13.589Zm3.263-11.907,5.77,5.952-5.77,5.955,4.138,4.268,9.909-10.222-9.909-10.221Zm-49.423,11.907,24.328-25.1,7.4,7.637-24.328,25.1Zm7.4,4.268,21.064-21.73-4.136-4.269-21.064,21.731ZM98.088,120.736l7.4-7.637,11.54,11.907,23.08-23.811,7.4,7.637-30.481,31.445Zm3.263,0,15.679,16.175,27.217-28.079-4.138-4.269-23.08,23.81-11.54-11.906ZM63.469,132.643l5.77-5.955-5.77-5.952,7.4-7.637,13.171,13.589L70.871,140.276Zm3.263-11.907,5.77,5.952-5.77,5.955,4.139,4.268,9.908-10.222-9.908-10.221ZM17.31,132.643l24.327-25.1,7.4,7.637-24.327,25.1Zm7.4,4.268,21.062-21.73-4.138-4.269L20.573,132.643Zm609.974-34.032,7.4-7.635L666.8,120.736l-7.4,7.637Zm3.263,0L659.4,125.006l4.139-4.27L642.087,98.609Zm-164.82,0,7.4-7.635,24.712,25.493-7.4,7.637Zm3.263,0,21.447,22.128,4.139-4.27L480.531,98.609Zm-164.82,0,7.4-7.635,24.712,25.493-7.4,7.637Zm3.263,0,21.447,22.128,4.138-4.27L318.975,98.609Zm-164.82,0,7.4-7.635,24.711,25.493-7.4,7.637Zm3.263,0,21.449,22.128,4.136-4.27L157.42,98.609Zm412.166,11.906,24.711-25.494L609.1,108.831l-7.4,7.635-11.54-11.9-17.31,17.858Zm3.263,0,4.138,4.27,17.31-17.859,11.54,11.9,4.139-4.268L590.158,92.655Zm-164.82,0L428.6,89.289l18.942,19.542-7.4,7.635-11.54-11.9-17.31,17.858Zm3.263,0,4.138,4.27,17.31-17.859,11.54,11.9,4.139-4.268L428.6,92.655Zm-164.82,0,24.711-25.494,18.942,19.542-7.4,7.635-11.54-11.9-17.31,17.858Zm3.263,0,4.138,4.27,17.31-17.859,11.54,11.9,4.139-4.268L267.046,92.655Zm-164.82,0,24.712-25.494,18.941,19.542-7.4,7.635-11.54-11.9L88.181,122.42Zm3.263,0,4.139,4.27,17.31-17.859,11.54,11.9,4.138-4.268L105.491,92.655Zm573.714-11.914,18.932-19.1,7.464,7.187-5.813,5.8,5.757,6.136-13.159,13.575Zm3.282.018,9.9,10.212,9.921-10.235L675.075,96.7l5.726-5.712-4.075-3.925ZM536.6,108.831l18.941-19.542,13.172,13.589-7.4,7.637-5.77-5.952L544,116.467Zm3.265,0L544,113.1l11.54-11.9,5.77,5.952,4.139-4.269-9.909-10.222ZM496.2,102.869l18.931-19.1,7.464,7.187-5.812,5.8,5.756,6.136L509.38,116.467ZM509.38,113.1l9.921-10.235L513.518,96.7l5.727-5.712-4.076-3.925-15.688,15.824Zm-134.339-4.268,18.941-19.542,13.172,13.589-7.4,7.637-5.77-5.952-11.54,11.9Zm3.265,0,4.136,4.268,11.54-11.9,5.77,5.952,4.139-4.269-9.909-10.222Zm-43.663-5.962,18.933-19.1,7.464,7.187-5.812,5.8,5.756,6.136-13.159,13.575ZM347.824,113.1l9.921-10.235L351.962,96.7l5.727-5.712-4.076-3.925-15.687,15.824Zm-134.339-4.268,18.941-19.542L245.6,102.878l-7.4,7.637-5.77-5.952-11.54,11.9Zm3.263,0,4.138,4.268,11.54-11.9,5.77,5.952,4.139-4.269-9.909-10.222Zm-43.662-5.962,18.933-19.1,7.464,7.187-5.813,5.8,5.757,6.136-13.16,13.575Zm13.18,10.229,9.922-10.235L190.406,96.7l5.727-5.712-4.076-3.925L176.37,102.887ZM51.929,108.831,70.871,89.289l13.171,13.589-7.4,7.637-5.77-5.952-11.54,11.9Zm3.263,0,4.139,4.268,11.54-11.9,5.77,5.952,4.138-4.269L70.871,92.655ZM11.53,102.869l18.933-19.1,7.464,7.187-5.813,5.8,5.757,6.136L24.712,116.467ZM24.712,113.1l9.921-10.235L28.85,96.7l5.727-5.712L30.5,87.063,14.814,102.887ZM605.837,96.926l7.4-7.637,7.4,7.637-7.4,7.637Zm3.263,0,4.138,4.269,4.139-4.269-4.139-4.27Zm-84.042,0L544,77.385l7.4,7.637L532.46,104.562Zm3.265,0,4.138,4.269,15.677-16.173L544,80.751Zm-84.042,0,7.4-7.637,7.4,7.637-7.4,7.637Zm3.263,0,4.138,4.269,4.139-4.269-4.139-4.27Zm-84.042,0,18.941-19.541,7.4,7.637L370.9,104.562Zm3.265,0,4.136,4.269,15.679-16.173-4.139-4.27Zm-84.042,0,7.4-7.637,7.4,7.637-7.4,7.637Zm3.263,0,4.138,4.269,4.139-4.269-4.139-4.27Zm-84.042,0,18.941-19.541,7.4,7.637-18.942,19.541Zm3.263,0,4.138,4.269,15.679-16.173-4.139-4.27Zm-84.041,0,7.4-7.637,7.4,7.637-7.4,7.637Zm3.263,0,4.139,4.269,4.138-4.269-4.138-4.27Zm-84.042,0L59.331,77.385l7.4,7.637L47.792,104.562Zm3.263,0,4.139,4.269L63.469,85.021l-4.138-4.27Zm602.573-5.952,24.711-25.5,7.4,7.637L653.627,98.609Zm7.4,4.269,21.448-22.128-4.139-4.269L649.49,90.973Zm-63.469-38.3L572.848,74.8l-7.4-7.637,24.711-25.494,23.08,23.81,11.925-12.3,13.172,13.589-7.4,7.637-5.77-5.952-4.522,4.665,9.907,10.222,17.31-17.859,7.4,7.637L630.547,98.609Zm40.389,38.3L652,73.114l-4.139-4.269L630.547,86.7,617.377,73.114l7.786-8.034,5.77,5.955,4.139-4.27-9.909-10.221-11.925,12.3-23.08-23.811L568.711,67.162l4.138,4.27,17.31-17.859ZM547.754,72.717l7.4-7.637,17.693,18.256,5.77-5.952,7.4,7.637L572.848,98.609Zm3.264,0,21.831,22.525,9.909-10.221-4.139-4.27-5.77,5.952L555.155,68.45ZM484.67,90.973l24.711-25.5,7.4,7.637L492.071,98.609Zm7.4,4.269,21.447-22.128-4.138-4.269L487.933,90.973ZM428.6,56.941,411.292,74.8l-7.4-7.637L428.6,41.668l23.08,23.81,11.925-12.3,13.172,13.589-7.4,7.637-5.77-5.952-4.523,4.665,9.907,10.222L486.3,65.478l7.4,7.637L468.991,98.609Zm40.389,38.3L490.44,73.114,486.3,68.845,468.991,86.7,455.82,73.114l7.786-8.034,5.77,5.955,4.138-4.27-9.908-10.221-11.925,12.3L428.6,45.034,407.154,67.162l4.138,4.27L428.6,53.573ZM386.2,72.717l7.4-7.637,17.695,18.256,5.77-5.952,7.4,7.637L411.292,98.609Zm3.265,0,21.831,22.525L421.2,85.021l-4.139-4.27-5.77,5.952L393.6,68.45ZM323.114,90.973l24.711-25.5,7.4,7.637L330.514,98.609Zm7.4,4.269,21.447-22.128-4.138-4.269L326.377,90.973Zm-63.469-38.3L249.736,74.8l-7.4-7.637,24.711-25.494,23.08,23.81,11.925-12.3,13.172,13.589-7.4,7.637-5.77-5.952-4.523,4.665,9.907,10.222,17.31-17.859,7.4,7.637L307.435,98.609Zm40.389,38.3,21.449-22.128-4.139-4.269L307.435,86.7,294.264,73.114l7.786-8.034,5.77,5.955,4.138-4.27L302.05,56.544l-11.925,12.3-23.08-23.811L245.6,67.162l4.138,4.27,17.31-17.859ZM224.64,72.717l7.4-7.637,17.694,18.256,5.77-5.952,7.4,7.637L249.736,98.609Zm3.265,0,21.831,22.525,9.909-10.221-4.139-4.27-5.77,5.952L232.042,68.45ZM161.556,90.973l24.711-25.5,7.4,7.637L168.96,98.609Zm7.4,4.269,21.446-22.128-4.139-4.269L164.821,90.973Zm-63.469-38.3L88.181,74.8l-7.4-7.637,24.712-25.494,23.08,23.81,11.922-12.3,13.174,13.589-7.4,7.637-5.77-5.952-4.521,4.665,9.909,10.222,17.31-17.859,7.4,7.637L145.88,98.609Zm40.389,38.3,21.446-22.128-4.136-4.269L145.88,86.7,132.708,73.114l7.785-8.034,5.77,5.955,4.139-4.27-9.909-10.221-11.922,12.3-23.08-23.811L84.042,67.162l4.139,4.27,17.31-17.859Zm-82.8-22.525,7.4-7.637L88.181,83.337l5.77-5.952,7.4,7.637L88.181,98.609Zm3.263,0L88.181,95.242l9.907-10.221-4.138-4.27L88.181,86.7,70.486,68.45ZM0,90.973l24.712-25.5,7.4,7.637L7.4,98.609Zm3.265,0L7.4,95.242,28.85,73.114l-4.138-4.269ZM582.757,73.114l7.4-7.637L609.1,85.021l-7.4,7.634Zm3.263,0L601.7,89.289l4.139-4.268L590.158,68.845Zm-164.82,0,7.4-7.637,18.942,19.544-7.4,7.634Zm3.263,0,15.677,16.175,4.139-4.268L428.6,68.845Zm-164.819,0,7.4-7.637,18.942,19.544-7.4,7.634Zm3.263,0,15.677,16.175,4.139-4.268L267.046,68.845Zm-164.819,0,7.4-7.637,18.941,19.544-7.4,7.634Zm3.263,0,15.679,16.175,4.138-4.268L105.491,68.845Zm579.494,5.952,24.711-25.493,7.4,7.637L688.247,86.7Zm3.263,0,4.138,4.27L709.694,61.21l-4.138-4.269Zm-164.821,0L544,53.573l7.4,7.637L526.69,86.7Zm7.4,4.27L548.137,61.21,544,56.941,522.553,79.066Zm-168.958-4.27,24.711-25.493,7.4,7.637L365.133,86.7Zm7.4,4.27L386.581,61.21l-4.139-4.269L361,79.066Zm-168.957-4.27,24.711-25.493,7.4,7.637L203.577,86.7Zm7.4,4.27L225.025,61.21l-4.139-4.269L199.439,79.066ZM34.619,79.066,59.331,53.573l7.4,7.637L42.022,86.7Zm7.4,4.27L63.469,61.21l-4.138-4.269L37.883,79.066ZM657.766,43.749l7.4-7.637,17.31,17.858,11.54-11.906,7.4,7.637L682.477,69.242Zm3.263,0,21.447,22.125L698.154,49.7l-4.138-4.27-11.54,11.907-17.31-17.859Zm-164.82,0,7.4-7.637L520.92,53.97l11.54-11.906,7.4,7.637L520.92,69.242ZM520.92,65.875,536.6,49.7l-4.137-4.27L520.92,57.338l-17.31-17.859-4.138,4.27ZM334.652,43.749l7.4-7.637,17.31,17.858L370.9,42.065l7.4,7.637L359.364,69.242Zm24.712,22.125L375.042,49.7l-4.139-4.27L359.364,57.338l-17.31-17.859-4.137,4.27ZM173.1,43.749l7.4-7.637,17.31,17.858,11.54-11.906,7.4,7.637L197.807,69.242Zm24.711,22.125L213.485,49.7l-4.139-4.27-11.54,11.907L180.5,39.479l-4.136,4.27ZM11.54,43.749l7.4-7.637L36.252,53.97l11.54-11.906,7.4,7.637L36.252,69.242ZM36.252,65.875,51.929,49.7l-4.138-4.27L36.252,57.338,18.942,39.479,14.8,43.749ZM647.56,56.96l-5.449,5.958-7.434-7.67,12.781-12.9L666.814,61.28l-7.406,7.767Zm11.825,8.715,4.136-4.336L647.485,45.65l-9.528,9.617,4.106,4.235,5.441-5.948ZM486,56.96l-5.449,5.958-7.434-7.67,12.782-12.9L505.258,61.28l-7.406,7.767Zm11.825,8.715,4.135-4.336L485.929,45.65,476.4,55.266l4.107,4.235,5.44-5.948ZM324.447,56.96,319,62.918l-7.434-7.67,12.783-12.9L343.7,61.28,336.3,69.047Zm11.826,8.715,4.134-4.336L324.372,45.65l-9.525,9.617,4.1,4.235,5.441-5.948ZM162.891,56.96l-5.449,5.958-7.435-7.67,12.784-12.9L182.145,61.28l-7.406,7.767Zm11.826,8.715,4.134-4.336L162.817,45.65l-9.526,9.617,4.1,4.235,5.441-5.948ZM536.6,37.4l7.4-7.637,17.31,17.858,5.77-5.954,7.4,7.637L561.308,62.893Zm3.265,0,21.446,22.125L571.217,49.3l-4.139-4.27-5.77,5.954L544,33.13Zm-164.821,0,7.4-7.637,17.31,17.858,5.77-5.954,7.4,7.637L399.752,62.893Zm3.265,0,21.446,22.125L409.661,49.3l-4.139-4.27-5.77,5.954L382.442,33.13Zm-164.821,0,7.4-7.637L238.2,47.621l5.77-5.954,7.4,7.637L238.2,62.893Zm3.263,0L238.2,59.526,248.1,49.3l-4.139-4.27-5.77,5.954L220.886,33.13Zm-164.82,0,7.4-7.637,17.31,17.858,5.77-5.954,7.4,7.637L76.641,62.893Zm3.263,0L76.641,59.526,86.549,49.3l-4.138-4.27-5.77,5.954L59.331,33.13ZM577.408,19.978l7.333-8.321,35.892,37.654-7.4,7.63Zm3.19-.08,32.639,33.675,4.144-4.276L584.806,15.122Zm-164.745.08,7.332-8.321,35.891,37.654-7.394,7.63Zm3.189-.08,32.639,33.675,4.144-4.276L423.25,15.122Zm-164.745.08,7.332-8.321L297.52,49.311l-7.394,7.63Zm3.189-.08,32.639,33.675,4.144-4.276L261.694,15.122Zm-164.745.08,7.33-8.321,35.892,37.654-7.393,7.63Zm3.189-.08L128.57,53.573l4.144-4.276L100.138,15.122ZM611.51,31.441l19.038-19.534,7.4,7.634L626.4,31.462l3.959,4.225,5.537-5.911,7.861,7.6L630.346,50.983Zm3.262.01,15.591,16.175,10.058-10.206-4.449-4.3-5.617,5.995-7.2-7.679,11.526-11.891-4.142-4.272Zm-164.818-.01,19.038-19.534,7.4,7.634L464.84,31.462l3.959,4.225,5.537-5.911,7.861,7.6L468.79,50.983Zm3.263.01,15.591,16.175,10.057-10.206-4.449-4.3L468.8,39.111l-7.2-7.679L473.13,19.541l-4.141-4.272Zm-164.82-.01,19.039-19.534,7.4,7.634L303.284,31.462l3.959,4.225,5.538-5.911,7.859,7.6L307.234,50.983Zm3.263.01,15.591,16.175,10.057-10.206-4.448-4.3-5.618,5.995-7.2-7.679,11.526-11.891-4.142-4.272Zm-164.819-.01,19.039-19.534,7.4,7.634L141.728,31.462l3.959,4.225,5.538-5.911,7.861,7.6L145.678,50.983Zm3.263.01L145.7,47.625l10.058-10.206-4.449-4.3-5.618,5.995-7.2-7.679,11.526-11.891-4.142-4.272Zm538.865.469,7.293-8.78,13.583,14.239-7.329,8.067Zm3.165-.151,10.3,10.283,4.209-4.632L676.38,26.657Zm-164.721.151,7.293-8.78,13.583,14.239-7.33,8.067ZM520.88,42.051l4.209-4.632L514.824,26.657l-4.245,5.111ZM345.857,31.919l7.293-8.78,13.583,14.239-7.33,8.067Zm13.467,10.132,4.21-4.632L353.268,26.657l-4.246,5.111ZM184.3,31.919l7.293-8.78,13.584,14.239-7.332,8.067Zm13.465,10.132,4.211-4.632L191.712,26.657l-4.245,5.111ZM22.744,31.919l7.294-8.78L43.622,37.378l-7.33,8.067ZM36.212,42.051l4.208-4.632L30.155,26.657l-4.244,5.111ZM571.217,37.4l7.4-7.637,7.4,7.637-7.4,7.634Zm3.263,0,4.137,4.268,4.139-4.268-4.139-4.27Zm-164.82,0,7.4-7.637,7.4,7.637-7.4,7.634Zm3.263,0,4.138,4.268L421.2,37.4l-4.139-4.27Zm-164.82,0,7.4-7.637,7.4,7.637-7.4,7.634Zm3.263,0,4.138,4.268,4.139-4.268-4.139-4.27Zm-164.82,0,7.4-7.637,7.4,7.637-7.4,7.634Zm3.263,0,4.139,4.268L98.088,37.4l-4.138-4.27ZM542.368,19.541l7.4-7.637,11.54,11.907,5.77-5.955,7.4,7.637L561.308,39.082Zm3.265,0,15.676,16.175,9.909-10.223-4.139-4.268-5.77,5.952-11.54-11.906Zm-164.821,0,7.4-7.637,11.54,11.907,5.77-5.955,7.4,7.637L399.752,39.082Zm3.263,0,15.678,16.175,9.909-10.223-4.139-4.268-5.77,5.952-11.54-11.906Zm-164.82,0,7.4-7.637L238.2,23.811l5.77-5.955,7.4,7.637L238.2,39.082Zm3.263,0L238.2,35.716,248.1,25.493l-4.139-4.268-5.77,5.952-11.54-11.906Zm-164.819,0L65.1,11.9l11.54,11.907,5.77-5.955,7.4,7.637L76.641,39.082Zm3.263,0L76.641,35.716l9.907-10.223-4.138-4.268-5.77,5.952L65.1,15.272Zm579.311,5.971,5.607-5.985-5.423-5.995,7.81-7.554,11.5,11.877,5.361-5.541,7.409,7.42-19.01,19.34Zm3.445-11.867,5.346,5.911-5.549,5.921,10.017,10.249,15.707-15.98-4.084-4.089-5.385,5.57L648.216,9.294Zm-165,11.867,5.607-5.985L478.9,13.532l7.81-7.554,11.5,11.877,5.362-5.541,7.406,7.42-19.009,19.34Zm3.443-11.867,5.347,5.911-5.547,5.921,10.015,10.249,15.707-15.98L503.6,15.657l-5.385,5.57L486.659,9.294Zm-165,11.867,5.607-5.985-5.423-5.995,7.81-7.554,11.5,11.877,5.362-5.541,7.408,7.42-19.01,19.34ZM320.6,13.645l5.348,5.911L320.4,25.477,330.42,35.725l15.707-15.98-4.083-4.089-5.386,5.57L325.1,9.294Zm-165,11.867,5.607-5.985-5.423-5.995,7.81-7.554,11.5,11.877,5.362-5.541,7.408,7.42-19.01,19.34Zm3.443-11.867,5.348,5.911-5.547,5.921,10.015,10.249,15.707-15.98-4.083-4.089-5.385,5.57L163.547,9.294Zm521.412,5.5,7.4-7.637,13.557,13.986-7.4,7.637Zm3.263,0,10.293,10.62,4.138-4.27L687.861,14.875Zm-164.82,0,7.4-7.637,13.557,13.986-7.4,7.637Zm13.556,10.62,4.137-4.27L526.305,14.875l-4.138,4.269ZM357.348,19.144l7.4-7.637,13.556,13.986-7.4,7.637ZM370.9,29.763l4.139-4.27L364.75,14.875l-4.139,4.269ZM195.79,19.144l7.4-7.637,13.555,13.986-7.4,7.637Zm13.556,10.62,4.139-4.27L203.194,14.875l-4.139,4.269ZM34.234,19.144l7.4-7.637L55.193,25.493l-7.4,7.637Zm13.557,10.62,4.138-4.27L41.637,14.875,37.5,19.144Zm551.89-9.825L619.007,0l7.4,7.637L607.083,27.575Zm3.263,0,4.138,4.269,16.064-16.57-4.139-4.27Zm-164.82,0L457.451,0l7.4,7.637L445.526,27.575Zm3.263,0,4.138,4.269L461.59,7.637l-4.139-4.27Zm-164.82,0L295.9,0l7.4,7.637L283.972,27.575Zm3.263,0,4.139,4.269,16.063-16.57L295.9,3.366Zm-164.82,0L134.34,0l7.4,7.637L122.415,27.575Zm3.263,0,4.139,4.269,16.062-16.57-4.138-4.27Z" transform="translate(-104.717 -20.902)" fill="#fff"/>
  </g>
</svg>
