<svg xmlns="http://www.w3.org/2000/svg" width="38" height="38" viewBox="0 0 38 38">
  <g id="Group_11692" data-name="Group 11692" transform="translate(0.272 -0.024)">
    <path id="Path_154207" data-name="Path 154207" d="M19,0A19,19,0,1,1,0,19,19,19,0,0,1,19,0Z" transform="translate(-0.272 0.024)" fill="#fff"/>
    <path id="Gauge_rate_19371" data-name="Gauge rate_19371" d="M97.935,77.464c10.407,0,16.884,8.436,16.884,18.843l-7.438-.02a12.4,12.4,0,0,0-3.242-8.23l-2.426,9.05a5.391,5.391,0,1,1-9.585-4.1l7.428-8.7c-6.215-3.327-11.934-2.036-16.718,3.141C86.149,82.051,91.13,77.464,97.935,77.464ZM93.216,93.8h0a4.046,4.046,0,1,0,7.169,3.067h0l5.328-17.534Z" transform="translate(-78.917 -75.22)" fill="#f16e00" fill-rule="evenodd"/>
  </g>
</svg>
