<svg xmlns="http://www.w3.org/2000/svg" width="29.417" height="39.6" viewBox="0 0 29.417 39.6">
  <path id="voucher" d="M193.089,64.517a4.525,4.525,0,0,0-6.6-.171h0l0,0q-.077.079-.151.161L175,76.578v21.5a4.526,4.526,0,0,0,4.526,4.526h20.366a4.526,4.526,0,0,0,4.526-4.526v-21.5Zm-3.38,3.575a2.829,2.829,0,1,1-2.829,2.829A2.829,2.829,0,0,1,189.709,68.092Zm11.541,20.863-3.988,1.881,2.448,3.493-4.459-.235.252,4.17-3.736-2.288L189.754,99.7l-2.012-3.729-3.736,2.289.252-4.17-4.459.235,2.448-3.493-3.988-1.881,3.988-1.881L179.8,83.58l4.459.235-.252-4.17,3.736,2.289,2.012-3.729,2.012,3.729,3.736-2.289-.252,4.17,4.459-.235-2.448,3.493Z" transform="translate(-175 -63)" fill="#fff" fill-rule="evenodd"/>
</svg>
